<svg width="325" height="64" viewBox="0 0 325 64" fill="none" xmlns="http://www.w3.org/2000/svg">
<g clip-path="url(#clip0_2007_5523)">
<mask id="mask0_2007_5523" style="mask-type:luminance" maskUnits="userSpaceOnUse" x="0" y="0" width="325" height="64">
<path d="M324.267 0H0V64H324.267V0Z" fill="white"/>
</mask>
<g mask="url(#mask0_2007_5523)">
<path d="M4.4668 11.7139C11.6567 23.9842 30.5206 25.2809 32.5732 44.3633C32.6577 45.148 33.2593 45.7769 34.04 45.8994C44.9117 47.5974 55.5008 52.0724 64.7012 59.4453L64.71 59.4521C64.7706 59.5006 64.8337 59.5234 64.915 59.5234C64.9959 59.5233 65.0773 59.4942 65.1406 59.4336C65.272 59.3089 65.2771 59.101 65.1523 58.9697C58.7813 52.2761 50.9962 46.9276 42.2578 43.4111L39.5977 42.3418C38.2296 41.7914 37.2809 40.4342 37.3213 38.874C37.4712 33.1727 50.9579 34.3321 52.3262 31.5918L52.5615 31.1201C49.7841 28.7475 46.4845 26.9627 42.8496 25.9648C42.8174 26.1022 42.7295 26.7674 43.4688 27.9707C44.2732 29.2797 42.5885 31.3619 40.1367 29.1162L39.9307 28.9277C21.7057 12.2336 8.04075 20.8902 0.820312 2.15137L0 0H11.0098C20.9253 4.62748e-05 30.4344 4.1651 37.4463 11.1738L90.0645 64H24.4004L4.4668 11.7139Z" fill="black"/>
<path d="M96.7306 52.252C83.751 52.252 75.5083 45.5036 75.5083 37.0402C75.5083 28.4281 84.2358 21.8286 97.1033 21.8286C109.971 21.8286 118.699 28.4653 118.699 36.705C118.699 40.3964 117.057 43.4161 113.924 45.9511H121.57L119.743 49.0829C118.587 51.0589 117.169 52.252 114.111 52.252H96.7306ZM97.1033 45.3543C104.19 45.3543 110.158 41.8499 110.158 37.0402C110.158 32.2306 104.19 28.7263 97.1033 28.7263C90.0169 28.7263 84.0492 32.2306 84.0492 37.0402C84.0492 41.8499 90.0169 45.3543 97.1033 45.3543Z" fill="black"/>
<path d="M153.456 47.1068H133.018L130.109 52.2518H121.642L135.815 27.7195C136.934 25.7808 138.538 24.2896 141.745 24.2896H144.915C148.124 24.2896 149.727 25.7808 150.846 27.7195L165.019 52.2518H156.366L153.456 47.1068ZM136.485 40.9547H149.987L143.722 29.807C143.572 29.5456 143.46 29.4717 143.236 29.4717C143.012 29.4717 142.901 29.5461 142.752 29.807L136.485 40.9547Z" fill="black"/>
<path d="M205.371 24.2891V52.2518H197.799L175.571 33.7223V52.2518H168V24.2891H172.736C175.161 24.2891 176.391 24.9226 177.772 26.1156L197.801 42.782V24.2891H205.371Z" fill="black"/>
<path d="M232.297 30.59V52.2518H224.725V30.59H209.211V24.2891H247.813V30.59H232.297Z" fill="black"/>
<path d="M273.023 47.1068H252.585L249.676 52.2518H241.208L255.382 27.7195C256.501 25.7808 258.104 24.2896 261.312 24.2896H264.482C267.691 24.2896 269.294 25.7808 270.413 27.7195L284.586 52.2518H275.933L273.023 47.1068ZM256.053 40.9547H269.555L263.288 29.807C263.139 29.5456 263.027 29.4717 262.804 29.4717C262.58 29.4717 262.468 29.5461 262.319 29.807L256.053 40.9547Z" fill="black"/>
<path d="M287.194 50.2391L286.484 50.0153L288.387 43.9382C293.832 45.6904 299.65 46.3989 304.91 46.3989C313.525 46.3989 315.651 45.3922 315.651 44.3113C315.651 43.8638 315.352 43.5279 314.68 43.3041C313.823 43.006 311.437 42.5213 304.387 41.366C296.592 40.098 293.086 39.4645 290.513 38.2714C287.939 37.0782 286.373 35.1767 286.373 32.3807C286.373 30.2555 287.418 28.5405 289.095 27.198C292.079 24.8867 297.188 23.9546 302.747 23.9546C309.908 23.9546 315.912 24.5514 322.589 26.1915L323.186 26.3781L321.582 32.3058C314.123 30.7024 309.982 30.255 304.314 30.181C300.323 30.1439 297.563 30.4421 296.108 30.889C295.287 31.1504 294.951 31.523 294.951 31.9705C294.951 32.3807 295.213 32.7533 296.033 33.0142C296.928 33.3123 298.383 33.6477 306.03 34.8785C314.309 36.2205 317.032 36.7801 319.308 37.6751C322.403 38.8682 324.269 41.0679 324.269 43.8266C324.269 47.2943 321.583 49.8666 316.92 51.284C314.049 52.1417 310.207 52.6258 305.88 52.6258C299.091 52.6253 291.855 51.7303 287.194 50.2391Z" fill="black"/>
</g>
</g>
<defs>
<clipPath id="clip0_2007_5523">
<rect width="324.267" height="64" fill="white"/>
</clipPath>
</defs>
</svg>
