<svg width="314" height="64" viewBox="0 0 314 64" fill="none" xmlns="http://www.w3.org/2000/svg">
<path d="M54.8644 24.5715H73.4189V16.6286H54.8644V12.6H75.1316V3.85718H42.4756V34.8572L29.3447 3.85718H17.1558L2.74036 37.8286H15.2718L17.1558 32.5143H29.0878L31.0289 37.8286H42.5042H43.7602H75.9024V29.0858H54.8929V24.5715H54.8644ZM19.1825 25.4572L23.1504 14.9143L27.2609 25.4572H19.1825Z" fill="#0B75BA"/>
<path d="M113.154 30.8572C113.154 24.0286 110.671 23.1715 106.532 21.8572C111.099 20.7715 113.497 17.4572 113.497 13.5429C113.497 6.94289 108.815 3.85718 95.7985 3.85718H77.3582V37.8286H89.7469V25.9715H94.0572C100.023 25.9715 101.308 27.4286 101.308 31.8572C101.308 34.8858 102.05 37.0572 102.364 37.8H114.496V36.7715C112.983 36.8 113.154 35.2858 113.154 30.8572ZM95.1991 18.5429H89.7469V12.2H96.1125C99.0812 12.2 101.251 12.9143 101.251 15.3143C101.279 17.6857 99.1669 18.5429 95.1991 18.5429Z" fill="#0B75BA"/>
<path d="M157.171 1.40002C153.175 1.40002 149.921 4.65717 149.921 8.65717C149.921 12.6572 153.175 15.9143 157.171 15.9143C161.168 15.9143 164.422 12.6572 164.422 8.65717C164.422 4.65717 161.168 1.40002 157.171 1.40002Z" fill="#0B75BA"/>
<path d="M151.177 17.5428L151.148 37.8286H163.109V17.6C161.396 18.7428 159.369 19.4 157.143 19.4C154.945 19.4 152.889 18.7143 151.177 17.5428Z" fill="#1D1D1B"/>
<path d="M114.696 3.85718V12.7715H126.2V37.8286H137.76V12.7715H147.295C146.752 11.4857 146.438 10.0857 146.438 8.62861C146.438 6.91432 146.924 5.28575 147.637 3.85718H114.696Z" fill="#1D1D1B"/>
<path d="M185.089 30.4286C178.58 30.4286 177.382 25.9429 177.382 21.1714C177.382 14.6 180.093 11.2572 184.604 11.2572C188.628 11.2572 190.741 12.8857 191.14 16.4286H203.272C202.245 7.68572 195.993 2.97144 184.061 2.97144C173.157 2.97144 164.593 9.80001 164.593 20.8C164.593 31.8286 172.415 38.7429 185.289 38.7429C195.594 38.7429 202.387 33.4572 203.529 24.6857H191.255C190.769 27.9143 189.199 30.4286 185.089 30.4286Z" fill="#1D1D1B"/>
<path d="M243.807 3.85718V36.1429L228.906 16.6286L242.751 3.85718H227.736L216.917 14.8572V3.85718H204.528V37.8286H216.917V27.0572L219.943 24.2858L229.734 37.8286H243.807H245.091H276.805V29.0858H255.767V24.5715H274.322V16.6286H255.767V12.7143L286.511 12.6572L286.454 37.8286H299.271V12.6572H310.346V3.85718H243.807Z" fill="#1D1D1B"/>
<path d="M7.39326 48.2286H2.91162V47.0572H13.2165V48.2286H8.73489V59.8286H7.39326V48.2286Z" fill="#1D1D1B"/>
<path d="M15.3574 47.0858H16.6991V59.8572H15.3574V47.0858Z" fill="#1D1D1B"/>
<path d="M22.979 59.1143C21.9514 58.5429 21.1807 57.7715 20.5812 56.8001C20.0103 55.8001 19.7249 54.7143 19.7249 53.4858C19.7249 52.2572 20.0103 51.1429 20.5812 50.1715C21.1521 49.1715 21.9514 48.4001 22.979 47.8572C24.0067 47.2858 25.1485 47.0286 26.4045 47.0286C27.3465 47.0286 28.2314 47.2001 29.0307 47.5143C29.8299 47.8286 30.515 48.2858 31.0574 48.8858L30.201 49.7429C29.2019 48.7429 27.9459 48.2286 26.433 48.2286C25.4339 48.2286 24.5205 48.4572 23.6927 48.9143C22.8649 49.3715 22.2083 50.0001 21.7516 50.8001C21.2949 51.6001 21.0379 52.5143 21.0379 53.4858C21.0379 54.4858 21.2663 55.3715 21.7516 56.1715C22.2083 56.9715 22.8649 57.6001 23.6927 58.0572C24.5205 58.5143 25.4339 58.7429 26.433 58.7429C27.9745 58.7429 29.2305 58.2286 30.201 57.2001L31.0574 58.0572C30.4865 58.6572 29.8014 59.1429 29.0021 59.4572C28.2029 59.7715 27.3179 59.9429 26.3759 59.9429C25.1485 59.9429 24.0067 59.6572 22.979 59.1143Z" fill="#1D1D1B"/>
<path d="M37.9084 53.8286L35.3108 56.4858V59.8286H33.9691V47.0572H35.3108V54.7715L42.7897 47.0572H44.3311L38.8218 52.8572L44.7308 59.8286H43.1322L37.9084 53.8286Z" fill="#1D1D1B"/>
<path d="M55.9205 58.6572V59.8286H46.9001V47.0572H55.6636V48.2286H48.2703V52.7715H54.8643V53.9143H48.2703V58.6572H55.9205Z" fill="#1D1D1B"/>
<path d="M61.5726 48.2286H57.0909V47.0572H67.3959V48.2286H62.9142V59.8286H61.5726V48.2286Z" fill="#1D1D1B"/>
<path d="M70.1362 59.4857C69.2799 59.1714 68.5948 58.7714 68.1095 58.2857L68.6519 57.2572C69.1086 57.7143 69.7366 58.0857 70.4788 58.3715C71.2495 58.6572 72.0202 58.8 72.848 58.8C73.9899 58.8 74.8462 58.6 75.4171 58.1715C75.988 57.7429 76.2735 57.2 76.2735 56.5429C76.2735 56.0286 76.1308 55.6286 75.8168 55.3143C75.5028 55 75.1317 54.7715 74.675 54.6C74.2182 54.4286 73.5902 54.2572 72.791 54.0572C71.8204 53.8 71.0782 53.5714 70.5073 53.3429C69.9364 53.1143 69.4511 52.7715 69.0515 52.3143C68.6519 51.8572 68.452 51.2286 68.452 50.4286C68.452 49.7715 68.6233 49.2 68.9659 48.6572C69.3084 48.1143 69.8222 47.7143 70.5359 47.4C71.2495 47.0857 72.1059 46.9143 73.162 46.9143C73.9042 46.9143 74.6179 47.0286 75.3029 47.2286C75.988 47.4286 76.616 47.7143 77.1013 48.0572L76.6446 49.1429C76.1022 48.8 75.5313 48.5143 74.9319 48.3429C74.3324 48.1714 73.733 48.0857 73.1335 48.0857C72.0202 48.0857 71.1639 48.3143 70.6215 48.7429C70.0506 49.1715 69.7651 49.7429 69.7651 50.4C69.7651 50.9143 69.9079 51.3143 70.2219 51.6286C70.5359 51.9429 70.907 52.1714 71.3922 52.3429C71.849 52.5143 72.477 52.6857 73.2762 52.8857C74.2182 53.1143 74.9604 53.3429 75.5313 53.5714C76.1022 53.8 76.5875 54.1429 76.9871 54.6C77.3868 55.0572 77.5866 55.6857 77.5866 56.4572C77.5866 57.1143 77.4153 57.6857 77.0728 58.2286C76.7302 58.7715 76.1879 59.1714 75.4742 59.4857C74.7606 59.8 73.8757 59.9429 72.8195 59.9429C71.9346 59.9429 71.0211 59.8 70.1362 59.4857Z" fill="#1D1D1B"/>
<path d="M80.0986 59.6286C79.8987 59.4286 79.8131 59.2 79.8131 58.9143C79.8131 58.6286 79.8987 58.4 80.0986 58.2C80.2984 58 80.5267 57.9143 80.7837 57.9143C81.0406 57.9143 81.2689 58 81.4687 58.2C81.6686 58.4 81.7542 58.6286 81.7542 58.9143C81.7542 59.2 81.6686 59.4286 81.4687 59.6286C81.2689 59.8286 81.0406 59.9143 80.7837 59.9143C80.4982 59.9143 80.2698 59.8286 80.0986 59.6286Z" fill="#1D1D1B"/>
<path d="M92.0306 48.2286H87.549V47.0572H97.8539V48.2286H93.3722V59.8286H92.0306V48.2286Z" fill="#1D1D1B"/>
<path d="M109.015 58.6572V59.8286H99.9948V47.0572H108.758V48.2286H101.365V52.7715H107.959V53.9143H101.365V58.6572H109.015Z" fill="#1D1D1B"/>
<path d="M114.239 59.1143C113.211 58.5429 112.441 57.7715 111.841 56.8001C111.27 55.8001 110.985 54.7143 110.985 53.4858C110.985 52.2572 111.27 51.1429 111.841 50.1715C112.412 49.1715 113.211 48.4001 114.239 47.8572C115.267 47.2858 116.408 47.0286 117.664 47.0286C118.606 47.0286 119.491 47.2001 120.291 47.5143C121.09 47.8286 121.775 48.2858 122.317 48.8858L121.461 49.7429C120.462 48.7429 119.206 48.2286 117.693 48.2286C116.694 48.2286 115.78 48.4572 114.953 48.9143C114.125 49.3715 113.468 50.0001 113.011 50.8001C112.555 51.6001 112.298 52.5143 112.298 53.4858C112.298 54.4858 112.526 55.3715 113.011 56.1715C113.468 56.9715 114.125 57.6001 114.953 58.0572C115.78 58.5143 116.694 58.7429 117.693 58.7429C119.234 58.7429 120.49 58.2286 121.461 57.2001L122.317 58.0572C121.746 58.6572 121.061 59.1429 120.262 59.4572C119.463 59.7715 118.578 59.9429 117.636 59.9429C116.408 59.9429 115.267 59.6572 114.239 59.1143Z" fill="#1D1D1B"/>
<path d="M135.876 47.0858V59.8572H134.535V53.9715H126.571V59.8572H125.229V47.0858H126.571V52.7715H134.535V47.0858H135.876Z" fill="#1D1D1B"/>
<path d="M150.691 47.0858V59.8572H149.578L141.386 49.5143V59.8572H140.044V47.0858H141.157L149.378 57.4286V47.0858H150.691Z" fill="#1D1D1B"/>
<path d="M156.971 59.0857C155.944 58.5143 155.145 57.7429 154.574 56.7714C154.003 55.8 153.717 54.6857 153.717 53.4572C153.717 52.2286 154.003 51.1143 154.574 50.1429C155.145 49.1714 155.944 48.3714 156.971 47.8286C157.999 47.2571 159.141 46.9714 160.397 46.9714C161.653 46.9714 162.795 47.2572 163.822 47.8C164.85 48.3714 165.621 49.1429 166.22 50.1143C166.791 51.1143 167.105 52.2 167.105 53.4286C167.105 54.6572 166.82 55.7714 166.22 56.7429C165.649 57.7429 164.85 58.5143 163.822 59.0571C162.795 59.6286 161.681 59.8857 160.397 59.8857C159.141 59.9429 157.999 59.6572 156.971 59.0857ZM163.137 58.0572C163.937 57.6 164.593 56.9714 165.05 56.1714C165.507 55.3714 165.735 54.4572 165.735 53.4572C165.735 52.4572 165.507 51.5714 165.05 50.7429C164.593 49.9429 163.937 49.3143 163.137 48.8572C162.309 48.4 161.425 48.1714 160.397 48.1714C159.398 48.1714 158.484 48.4 157.657 48.8572C156.829 49.3143 156.201 49.9429 155.715 50.7429C155.259 51.5429 155.002 52.4572 155.002 53.4572C155.002 54.4572 155.23 55.3429 155.715 56.1714C156.172 56.9714 156.829 57.6 157.657 58.0572C158.484 58.5143 159.398 58.7429 160.397 58.7429C161.425 58.7429 162.338 58.5143 163.137 58.0572Z" fill="#1D1D1B"/>
<path d="M170.131 47.0858H171.472V58.6858H178.609V59.8572H170.131V47.0858Z" fill="#1D1D1B"/>
<path d="M182.719 59.0857C181.692 58.5143 180.892 57.7429 180.322 56.7714C179.751 55.8 179.465 54.6857 179.465 53.4572C179.465 52.2286 179.751 51.1143 180.322 50.1429C180.892 49.1714 181.692 48.3714 182.719 47.8286C183.747 47.2571 184.889 46.9714 186.145 46.9714C187.401 46.9714 188.543 47.2572 189.57 47.8C190.598 48.3714 191.369 49.1429 191.968 50.1143C192.539 51.1143 192.853 52.2 192.853 53.4286C192.853 54.6572 192.568 55.7714 191.968 56.7429C191.397 57.7429 190.598 58.5143 189.57 59.0571C188.543 59.6286 187.429 59.8857 186.145 59.8857C184.917 59.9429 183.747 59.6572 182.719 59.0857ZM188.885 58.0572C189.684 57.6 190.341 56.9714 190.798 56.1714C191.254 55.3714 191.483 54.4572 191.483 53.4572C191.483 52.4572 191.254 51.5714 190.798 50.7429C190.341 49.9429 189.684 49.3143 188.885 48.8572C188.057 48.4 187.172 48.1714 186.145 48.1714C185.146 48.1714 184.232 48.4 183.404 48.8572C182.577 49.3143 181.949 49.9429 181.463 50.7429C181.007 51.5429 180.75 52.4572 180.75 53.4572C180.75 54.4572 180.978 55.3429 181.463 56.1714C181.92 56.9714 182.577 57.6 183.404 58.0572C184.232 58.5143 185.146 58.7429 186.145 58.7429C187.172 58.7429 188.086 58.5143 188.885 58.0572Z" fill="#1D1D1B"/>
<path d="M204.842 53.4572H206.127V58.3143C205.527 58.8286 204.814 59.2286 204.014 59.5143C203.187 59.8001 202.359 59.9429 201.445 59.9429C200.161 59.9429 199.019 59.6572 197.991 59.1143C196.964 58.5429 196.164 57.7715 195.593 56.8001C195.023 55.8001 194.708 54.7143 194.708 53.4858C194.708 52.2572 194.994 51.1429 195.593 50.1715C196.164 49.1715 196.964 48.4001 197.991 47.8572C199.019 47.2858 200.161 47.0286 201.445 47.0286C202.416 47.0286 203.301 47.1715 204.128 47.4858C204.928 47.8001 205.641 48.2572 206.184 48.8572L205.356 49.7143C204.357 48.7143 203.072 48.2286 201.502 48.2286C200.475 48.2286 199.533 48.4572 198.705 48.9143C197.877 49.3715 197.221 50.0001 196.735 50.8001C196.25 51.6001 196.022 52.5143 196.022 53.5143C196.022 54.5143 196.25 55.4001 196.735 56.2001C197.221 57.0001 197.849 57.6286 198.676 58.0858C199.504 58.5429 200.418 58.7715 201.474 58.7715C202.787 58.7715 203.9 58.4572 204.814 57.8001V53.4572H204.842Z" fill="#1D1D1B"/>
<path d="M214.319 55.4286V59.8286H212.978V55.4286L207.868 47.0858H209.295L213.663 54.2572L218.03 47.0858H219.372L214.319 55.4286Z" fill="#1D1D1B"/>
<path d="M220.028 59.6286C219.829 59.4286 219.743 59.2 219.743 58.9143C219.743 58.6286 219.829 58.4 220.028 58.2C220.228 58 220.457 57.9143 220.713 57.9143C220.97 57.9143 221.199 58 221.399 58.2C221.598 58.4 221.684 58.6286 221.684 58.9143C221.684 59.2 221.598 59.4286 221.399 59.6286C221.199 59.8286 220.97 59.9143 220.713 59.9143C220.457 59.9143 220.228 59.8286 220.028 59.6286Z" fill="#1D1D1B"/>
<path d="M230.305 59.4857C229.448 59.1714 228.763 58.7714 228.278 58.2857L228.82 57.2572C229.277 57.7143 229.905 58.0857 230.647 58.3715C231.418 58.6572 232.189 58.8 233.016 58.8C234.158 58.8 235.015 58.6 235.586 58.1715C236.156 57.7429 236.442 57.2 236.442 56.5429C236.442 56.0286 236.299 55.6286 235.985 55.3143C235.671 55 235.3 54.7715 234.843 54.6C234.387 54.4286 233.759 54.2572 232.959 54.0572C231.989 53.8 231.247 53.5714 230.676 53.3429C230.105 53.1143 229.62 52.7715 229.22 52.3143C228.82 51.8572 228.621 51.2286 228.621 50.4286C228.621 49.7715 228.792 49.2 229.134 48.6572C229.477 48.1143 229.991 47.7143 230.704 47.4C231.418 47.0857 232.274 46.9143 233.331 46.9143C234.073 46.9143 234.786 47.0286 235.471 47.2286C236.157 47.4286 236.784 47.7143 237.27 48.0572L236.813 49.1429C236.271 48.8 235.7 48.5143 235.1 48.3429C234.501 48.1714 233.901 48.0857 233.302 48.0857C232.189 48.0857 231.332 48.3143 230.79 48.7429C230.219 49.1715 229.934 49.7429 229.934 50.4C229.934 50.9143 230.076 51.3143 230.39 51.6286C230.704 51.9429 231.075 52.1714 231.561 52.3429C232.046 52.5143 232.645 52.6857 233.445 52.8857C234.387 53.1143 235.129 53.3429 235.7 53.5714C236.271 53.8 236.756 54.1429 237.156 54.6C237.555 55.0572 237.755 55.6857 237.755 56.4572C237.755 57.1143 237.584 57.6857 237.241 58.2286C236.899 58.7715 236.356 59.1714 235.643 59.4857C234.929 59.8 234.044 59.9429 232.988 59.9429C232.074 59.9429 231.161 59.8 230.305 59.4857Z" fill="#1D1D1B"/>
<path d="M249.716 58.6572V59.8286H240.695V47.0572H249.43V48.2286H242.037V52.7715H248.631V53.9143H242.037V58.6572H249.716Z" fill="#1D1D1B"/>
<path d="M261.591 59.8286L258.679 55.7143C258.365 55.7429 258.022 55.7715 257.651 55.7715H254.226V59.8286H252.884V47.0572H257.651C259.278 47.0572 260.563 47.4572 261.476 48.2286C262.39 49 262.847 50.0858 262.847 51.4286C262.847 52.4286 262.59 53.2572 262.104 53.9429C261.591 54.6286 260.877 55.1143 259.935 55.4286L263.046 59.8H261.591V59.8286ZM260.506 53.8C261.162 53.2286 261.505 52.4572 261.505 51.4572C261.505 50.4286 261.162 49.6286 260.506 49.0858C259.849 48.5429 258.879 48.2572 257.623 48.2572H254.226V54.6572H257.623C258.879 54.6286 259.849 54.3715 260.506 53.8Z" fill="#1D1D1B"/>
<path d="M276.663 47.0858L271.011 59.8572H269.669L264.045 47.0858H265.501L270.383 58.1715L275.292 47.0858H276.663Z" fill="#1D1D1B"/>
<path d="M278.49 47.0858H279.831V59.8572H278.49V47.0858Z" fill="#1D1D1B"/>
<path d="M286.111 59.1143C285.083 58.5429 284.313 57.7715 283.713 56.8001C283.142 55.8001 282.857 54.7143 282.857 53.4858C282.857 52.2572 283.142 51.1429 283.713 50.1715C284.284 49.1715 285.083 48.4001 286.111 47.8572C287.139 47.2858 288.281 47.0286 289.537 47.0286C290.479 47.0286 291.363 47.2001 292.163 47.5143C292.962 47.8286 293.647 48.2858 294.189 48.8858L293.333 49.7429C292.334 48.7429 291.078 48.2286 289.565 48.2286C288.566 48.2286 287.653 48.4572 286.825 48.9143C285.997 49.3715 285.34 50.0001 284.884 50.8001C284.427 51.6001 284.17 52.5143 284.17 53.4858C284.17 54.4858 284.398 55.3715 284.884 56.1715C285.369 56.9715 285.997 57.6001 286.825 58.0572C287.653 58.5143 288.566 58.7429 289.565 58.7429C291.107 58.7429 292.363 58.2286 293.333 57.2001L294.189 58.0572C293.619 58.6572 292.962 59.1429 292.134 59.4572C291.335 59.7715 290.45 59.9429 289.508 59.9429C288.281 59.9429 287.139 59.6572 286.111 59.1143Z" fill="#1D1D1B"/>
<path d="M306.121 58.6572V59.8286H297.101V47.0572H305.836V48.2286H298.443V52.7715H305.037V53.9143H298.443V58.6572H306.121Z" fill="#1D1D1B"/>
<path d="M308.633 59.6286C308.434 59.4286 308.348 59.2 308.348 58.9143C308.348 58.6286 308.434 58.4 308.633 58.2C308.833 58 309.062 57.9143 309.319 57.9143C309.575 57.9143 309.804 58 310.004 58.2C310.203 58.4 310.289 58.6286 310.289 58.9143C310.289 59.2 310.203 59.4286 310.004 59.6286C309.804 59.8286 309.575 59.9143 309.319 59.9143C309.062 59.9143 308.833 59.8286 308.633 59.6286Z" fill="#1D1D1B"/>
</svg>
