<svg width="64" height="64" viewBox="0 0 64 64" fill="none" xmlns="http://www.w3.org/2000/svg">
<path fill-rule="evenodd" clip-rule="evenodd" d="M24.9533 2.41045C27.4011 1.17251 28.625 0.553544 29.9099 0.310013C31.0478 0.0943347 32.2161 0.0943347 33.354 0.310013C34.6389 0.553545 35.8628 1.17251 38.3106 2.41045L50.9731 8.81427L42.1319 15.3596C39.0702 13.5771 35.4761 12.5507 31.632 12.5507C20.447 12.5507 11.3799 21.2398 11.3799 31.9583C11.3799 36.4361 12.9623 40.5597 15.6206 43.8436L9.02293 53.4362C7.45459 52.6101 6.48163 52.003 5.71161 51.2113C4.75777 50.2307 4.0327 49.0507 3.58849 47.7561C3.08618 46.2923 3.08618 44.6358 3.08618 41.3228V22.5935C3.08618 19.2806 3.08618 17.6241 3.58849 16.1602C4.0327 14.8656 4.75778 13.6857 5.71162 12.705C6.79019 11.5961 8.26693 10.8493 11.2205 9.35557L24.9533 2.41045ZM23.6609 49.8048L11.9888 54.9494L24.9533 61.5059C27.4011 62.7438 28.625 63.3628 29.9099 63.6063C31.0478 63.822 32.2161 63.822 33.354 63.6063C34.6389 63.3628 35.8628 62.7438 38.3105 61.5059L52.0434 54.5607C54.997 53.0671 56.4737 52.3202 57.5523 51.2114C58.5061 50.2306 59.2312 49.0507 59.6754 47.7561C60.1777 46.2923 60.1777 44.6358 60.1777 41.3228V22.5935C60.1777 19.2806 60.1777 17.6241 59.6755 16.1602C59.2312 14.8656 58.5061 13.6857 57.5523 12.705C56.7479 11.878 55.722 11.2523 54.0272 10.3681L49.5581 22.9195C51.0433 25.6189 51.884 28.6945 51.884 31.9583C51.884 42.6768 42.8169 51.3659 31.632 51.3659C28.8018 51.3659 26.1073 50.8096 23.6609 49.8048Z" fill="url(#paint0_linear_2001_8)"/>
<path fill-rule="evenodd" clip-rule="evenodd" d="M49.1175 8.67055L24.5082 24.6216C24.3033 24.7544 24.1314 24.938 24.0069 25.157L9.05713 51.4485C8.24617 52.8748 9.76983 54.5058 11.1048 53.6406L35.7142 37.6895C35.919 37.5567 36.091 37.3731 36.2155 37.1542L51.1652 10.8626C51.9762 9.43638 50.4525 7.8053 49.1175 8.67055ZM29.3925 34.1813C30.9956 34.6113 32.6596 33.598 33.1092 31.9179C33.5589 30.2378 32.6239 28.5271 31.0209 28.0971C29.4179 27.667 27.7538 28.6804 27.3042 30.3605C26.8546 32.0406 27.7895 33.7512 29.3925 34.1813Z" fill="black"/>
<defs>
<linearGradient id="paint0_linear_2001_8" x1="3.11013" y1="32.0746" x2="60.0518" y2="32.0746" gradientUnits="userSpaceOnUse">
<stop stop-color="#28F2FF"/>
<stop offset="1" stop-color="#A596FF"/>
</linearGradient>
</defs>
</svg>
