<svg width="64" height="64" viewBox="0 0 64 64" fill="none" xmlns="http://www.w3.org/2000/svg">
<g clip-path="url(#clip0_2025_327)">
<path d="M34.6649 57.5887C38.2594 63.497 44.0025 63.3731 45.5313 63.3731H64L42.2121 36.9302C32.1583 37.3433 26.8422 43.7888 27.9302 46.4882L34.6649 57.5887Z" fill="url(#paint0_linear_2025_327)"/>
<path d="M27.9304 46.502C27.9028 46.4607 27.3381 45.1248 27.3381 43.5134C27.3381 37.4811 32.6956 34.0105 38.7692 32.771L42.2123 36.944C32.1585 37.3434 26.8424 43.7889 27.9304 46.502Z" fill="url(#paint1_linear_2025_327)"/>
<path d="M36.3314 26.8623C27.1452 26.8623 20.2866 28.3773 20.2866 31.9718C20.2866 33.294 20.6998 34.4371 21.8291 36.4616L27.9303 46.4879C27.9028 46.4466 27.3381 45.1107 27.3381 43.4993C27.3381 37.467 32.6955 33.9964 38.7691 32.7569C40.532 32.3988 42.3499 32.2197 44.1128 32.2197C45.6002 32.2197 47.005 32.3024 48.0792 32.688C47.4457 30.3743 45.7655 26.8623 36.3314 26.8623Z" fill="url(#paint2_linear_2025_327)"/>
<path d="M12.1748 20.6102C14.6951 24.7557 15.6316 25.7886 21.6501 25.7886H33.1363L17.2981 5.79119C13.7999 1.46668 11.7891 0.681655 8.58019 0.612793H0L12.1748 20.6102Z" fill="url(#paint3_linear_2025_327)"/>
</g>
<defs>
<linearGradient id="paint0_linear_2025_327" x1="45.89" y1="36.2377" x2="45.89" y2="76.9895" gradientUnits="userSpaceOnUse">
<stop stop-color="#ED1C24"/>
<stop offset="0.1263" stop-color="#E81B23"/>
<stop offset="0.2703" stop-color="#DB1A21"/>
<stop offset="0.4229" stop-color="#C4171D"/>
<stop offset="0.5816" stop-color="#A41317"/>
<stop offset="0.7436" stop-color="#7B0E10"/>
<stop offset="0.7546" stop-color="#780E0F"/>
</linearGradient>
<linearGradient id="paint1_linear_2025_327" x1="27.3343" y1="39.6291" x2="42.2069" y2="39.6291" gradientUnits="userSpaceOnUse">
<stop stop-color="#69231D"/>
<stop offset="0.2647" stop-color="#8D2922"/>
<stop offset="0.5812" stop-color="#B22F26"/>
<stop offset="0.8377" stop-color="#C93329"/>
<stop offset="1" stop-color="#D1342A"/>
</linearGradient>
<linearGradient id="paint2_linear_2025_327" x1="25.7003" y1="37.455" x2="42.2729" y2="27.4972" gradientUnits="userSpaceOnUse">
<stop offset="0.1" stop-color="#E7EBEE"/>
<stop offset="0.3511" stop-color="#D5DCE0"/>
<stop offset="0.8549" stop-color="#A5B4BB"/>
<stop offset="1" stop-color="#96A7B0"/>
</linearGradient>
<linearGradient id="paint3_linear_2025_327" x1="16.5648" y1="29.07" x2="16.5648" y2="0.915921" gradientUnits="userSpaceOnUse">
<stop stop-color="#1C2F72"/>
<stop offset="0.1275" stop-color="#174687"/>
<stop offset="0.4038" stop-color="#0D72AF"/>
<stop offset="0.6512" stop-color="#0692CC"/>
<stop offset="0.8584" stop-color="#02A6DE"/>
<stop offset="1" stop-color="#00ADE4"/>
</linearGradient>
<clipPath id="clip0_2025_327">
<rect width="64" height="64" fill="white"/>
</clipPath>
</defs>
</svg>
