<svg width="65" height="64" viewBox="0 0 65 64" fill="none" xmlns="http://www.w3.org/2000/svg">
<path d="M32.6309 3.05957C49.0729 3.05969 62.4023 16.3942 62.4023 32.8428C62.4023 49.2915 49.073 62.6259 32.6309 62.626C16.1886 62.626 2.85938 49.2915 2.85938 32.8428C2.85946 16.3941 16.1887 3.05957 32.6309 3.05957ZM12.998 30.4883C11.2301 29.6692 8.71783 29.8827 6.68066 30.9043V32.8076C8.34426 31.6697 10.7986 31.2811 12.3066 31.9795C13.2039 32.3951 13.6592 33.1542 13.6592 34.2344V34.2842H11.6074C8.91694 34.2842 6.16699 34.755 6.16699 38.2383H7.81055C7.81055 36.8863 8.0829 35.9288 11.6074 35.9287H13.6592V36.1406C13.6592 36.9699 13.3377 37.6629 12.8535 38.2383H15.3027V34.2344C15.3027 32.5075 14.4843 31.1771 12.998 30.4883ZM29.9277 25.9688C28.7777 25.9688 26.8477 26.4422 26.8477 29.6143V30.3838H25.2061V32.0273H26.8477V38.2383H28.4912V32.0273H33.5186V38.2383H35.1621V30.3838H28.4912V29.6143C28.4912 27.6128 29.3558 27.6123 29.9277 27.6123H31.7744V25.9688H29.9277ZM37.3086 30.3838L40.3965 38.2383H42.1611L39.0742 30.3838H37.3086ZM46.2178 30.3838L43.1309 38.2383H44.8965L47.9834 30.3838H46.2178ZM54.6621 30.0244C51.7625 30.0244 49.4033 32.5111 49.4033 35.5684C49.4033 36.536 49.6413 37.4456 50.0557 38.2383H52.0293C51.5128 37.6458 51.1649 36.8807 51.0713 36.0322H59.4346V35.0049C59.4346 32.0255 57.5167 30.0244 54.6621 30.0244ZM18.2715 35.0039V36.6475H23.5645V35.0039H18.2715ZM54.6621 31.668C56.4205 31.668 57.5431 32.6721 57.7549 34.3877H51.2158C51.6806 32.8125 53.0498 31.668 54.6621 31.668ZM33.5186 26.0723V28.2793H35.1621V26.0723H33.5186Z" fill="white"/>
</svg>
