<svg width="93" height="65" viewBox="0 0 93 65" fill="none" xmlns="http://www.w3.org/2000/svg">
<path d="M40.9314 54.0244C43.9402 54.0443 44.6048 56.5308 43.8076 58.0188C43.2064 59.1406 42.1811 59.4965 40.9872 59.4414C39.7508 59.3854 38.7955 58.7097 38.4669 57.6402C38.1327 56.5507 38.305 55.5447 39.1675 54.7362C39.7517 54.1895 40.4769 54.0149 40.9314 54.0244ZM42.8533 56.7016C42.841 56.3078 42.8079 55.9149 42.6762 55.54C42.431 54.8453 41.916 54.5037 41.1586 54.5179C40.4438 54.5312 39.9467 54.9013 39.7384 55.6036C39.533 56.2973 39.5216 57.0043 39.6987 57.7028C39.9032 58.5095 40.4362 58.9337 41.2031 58.9527C41.9444 58.9707 42.4831 58.538 42.7226 57.7275C42.8211 57.3944 42.84 57.049 42.8533 56.7016Z" fill="#5B3926"/>
<path d="M27.1625 55.4166C27.1625 56.4463 27.1682 57.3621 27.1597 58.2779C27.1559 58.667 27.2828 58.9308 27.7079 58.9479C27.8878 58.9546 27.9635 59.0191 27.9436 59.2051C27.9219 59.4053 27.7751 59.355 27.6596 59.356C27.1862 59.3598 26.7138 59.3588 26.2404 59.3569C26.1183 59.3569 25.9819 59.3845 25.9592 59.1937C25.9346 58.9868 26.0634 58.9593 26.2148 58.9451C26.5964 58.909 26.7005 58.6689 26.6967 58.3215C26.6882 57.3099 26.6901 56.2982 26.693 55.2866C26.6939 54.8994 26.5841 54.5947 26.1533 54.5293C25.9838 54.5036 25.9469 54.4163 25.9602 54.2711C25.9753 54.1108 26.0936 54.1212 26.2044 54.1212C26.5831 54.1202 26.9618 54.1316 27.3396 54.1165C27.5536 54.1079 27.6397 54.2493 27.7514 54.3822C28.5126 55.2885 29.2757 56.192 30.0398 57.0964C30.1363 57.2103 30.2386 57.3194 30.426 57.5301C30.444 56.5422 30.5046 55.6852 30.3778 54.831C30.3418 54.59 30.1259 54.5207 29.9082 54.5226C29.7434 54.5236 29.6866 54.4609 29.6876 54.3006C29.6885 54.1051 29.8163 54.1193 29.9451 54.1193C30.4336 54.1202 30.9231 54.1202 31.4116 54.1193C31.5423 54.1193 31.6691 54.1127 31.6748 54.3015C31.6796 54.4685 31.5991 54.5236 31.4448 54.5179C30.9837 54.5008 30.9117 54.7912 30.9146 55.1699C30.9231 56.434 30.9212 57.699 30.9127 58.9631C30.9117 59.1026 31.0159 59.3028 30.8048 59.3769C30.5993 59.449 30.4563 59.3323 30.3238 59.1728C29.3571 58.0065 28.3839 56.8458 27.4125 55.6842C27.3566 55.6168 27.2932 55.5552 27.1625 55.4166Z" fill="#5B3926"/>
<path d="M62.118 56.3192C62.118 55.9244 62.117 55.5286 62.118 55.1339C62.1189 54.777 62.0271 54.4999 61.5925 54.5189C61.4391 54.5255 61.3558 54.4714 61.3605 54.3035C61.3653 54.1146 61.4921 54.1203 61.6228 54.1203C62.348 54.1212 63.0732 54.1212 63.7985 54.1203C63.9348 54.1203 64.0503 54.1288 64.0503 54.3148C64.0503 54.4904 63.9518 54.5217 63.807 54.5198C63.3885 54.5141 63.2815 54.7571 63.2882 55.1348C63.3033 55.9567 63.2796 56.7785 63.2976 57.5994C63.3166 58.4516 63.7066 58.8891 64.447 58.9404C65.1609 58.9888 65.7213 58.5399 65.8255 57.7522C65.9476 56.8269 65.869 55.8912 65.8633 54.9602C65.8615 54.6973 65.6901 54.5208 65.4013 54.5246C65.2252 54.5265 65.0899 54.5132 65.1164 54.2759C65.1429 54.032 65.3237 54.1288 65.4401 54.126C65.8974 54.1146 66.3547 54.1212 66.812 54.1212C66.9398 54.1212 67.0724 54.108 67.079 54.2987C67.0847 54.4619 67.0099 54.5227 66.8527 54.5208C66.4238 54.517 66.3386 54.7912 66.3415 55.1509C66.3472 55.8931 66.3424 56.6361 66.3415 57.3792C66.3396 58.6177 65.8065 59.2422 64.589 59.432C63.1367 59.6588 62.1236 58.7914 62.118 57.3147C62.117 56.9825 62.118 56.6513 62.118 56.3192Z" fill="#5B3926"/>
<path d="M70.7619 54.5597C70.8254 54.3462 70.8452 54.1232 71.1198 54.182C71.3593 54.2332 71.2505 54.4363 71.259 54.5739C71.2751 54.8416 71.2703 55.1111 71.2609 55.3796C71.2571 55.4878 71.3309 55.6511 71.1217 55.6653C70.9731 55.6748 70.8481 55.6701 70.7922 55.4831C70.7487 55.3351 70.6654 55.1956 70.5811 55.0636C70.4059 54.7865 70.1607 54.5958 69.8341 54.5265C69.3522 54.4249 68.9451 54.5853 68.8438 54.9403C68.7198 55.3787 68.9953 55.6198 69.3323 55.801C69.7195 56.0079 70.121 56.1911 70.5101 56.3951C71.6178 56.974 71.9264 57.7626 71.3944 58.6367C70.8471 59.5354 69.6608 59.7262 68.7501 59.059C68.6506 58.9859 68.5579 58.9043 68.4424 58.8104C68.4007 58.9005 68.3486 58.966 68.3411 59.0372C68.3221 59.2203 68.2255 59.2782 68.0542 59.264C67.8591 59.2479 67.8932 59.1017 67.8923 58.9831C67.8885 58.556 67.8923 58.1299 67.8894 57.7028C67.8885 57.5681 67.8885 57.4457 68.0731 57.4438C68.2095 57.4428 68.3003 57.4637 68.3448 57.6298C68.4357 57.9648 68.5758 58.2827 68.8154 58.5456C69.1931 58.9613 69.7536 59.1036 70.1806 58.892C70.6909 58.6386 70.7714 58.0388 70.3141 57.7009C70.0386 57.4979 69.7205 57.3489 69.409 57.2008C69.0947 57.0509 68.7908 56.8895 68.5238 56.6665C67.862 56.1123 67.7115 55.4385 68.0968 54.7846C68.4831 54.1288 69.3503 53.8555 70.0822 54.1431C70.3217 54.2351 70.5073 54.406 70.7619 54.5597Z" fill="#5B3926"/>
<path d="M58.2457 54.1212C58.987 54.1212 59.7293 54.1345 60.4696 54.1146C60.765 54.107 60.8606 54.199 60.837 54.4904C60.8124 54.7893 60.8285 55.0911 60.8322 55.391C60.8341 55.539 60.7925 55.633 60.6239 55.6387C60.4696 55.6434 60.4223 55.5732 60.3778 55.4261C60.1364 54.6365 59.822 54.4619 59.0116 54.59C58.809 54.6223 58.8024 54.7295 58.8024 54.8804C58.8033 56.0505 58.8081 57.2207 58.8005 58.3908C58.7986 58.7458 58.9737 58.9166 59.3042 58.9451C59.4793 58.9603 59.5551 59.0219 59.5361 59.2079C59.5153 59.4158 59.3657 59.356 59.2559 59.357C58.5619 59.3617 57.8679 59.3607 57.1739 59.3579C57.0594 59.357 56.9145 59.4025 56.8918 59.2032C56.8691 59.0058 56.9704 58.9631 57.1361 58.9517C57.5299 58.9261 57.6615 58.704 57.6558 58.3168C57.6388 57.1941 57.6379 56.0714 57.6577 54.9487C57.6634 54.6422 57.5593 54.5881 57.2819 54.5881C56.4004 54.5891 56.3408 54.6118 56.0729 55.4356C56.0246 55.5827 55.9753 55.6444 55.821 55.6406C55.6165 55.6349 55.6629 55.4906 55.6534 55.373C55.6506 55.3416 55.6534 55.3094 55.6525 55.2781C55.6279 54.1231 55.6279 54.1231 56.7791 54.1231C57.2677 54.1212 57.7562 54.1212 58.2457 54.1212Z" fill="#5B3926"/>
<path d="M54.2211 59.357C53.8907 59.357 53.5594 59.357 53.2289 59.357C53.1191 59.357 53.0046 59.3713 53.0017 59.2014C52.9989 59.0609 53.0083 58.967 53.1911 58.9518C53.388 58.9357 53.6701 58.9053 53.5518 58.6102C53.4382 58.3264 53.5101 57.8623 52.9913 57.8728C52.7082 57.8785 52.4242 57.8737 52.1402 57.8737C51.6592 57.8747 51.4462 58.0853 51.4216 58.5684C51.4083 58.8465 51.592 58.9119 51.805 58.9461C51.9451 58.9679 52.0398 59.0078 52.0284 59.1805C52.0152 59.3694 51.8874 59.358 51.7605 59.358C51.3193 59.358 50.8781 59.3599 50.4369 59.357C50.3176 59.3561 50.1747 59.3884 50.1709 59.1862C50.169 59.0609 50.1908 58.9765 50.3328 58.9509C50.7352 58.8768 50.8772 58.5456 51.0031 58.2229C51.4992 56.9494 51.9811 55.6691 52.4763 54.3946C52.5378 54.2361 52.5359 54.0179 52.819 54.0188C53.0992 54.0198 53.1021 54.2361 53.1655 54.3946C53.6815 55.6948 54.189 56.9987 54.6955 58.3027C54.8119 58.6035 54.9312 58.9006 55.3033 58.9499C55.4945 58.9755 55.468 59.1027 55.4624 59.227C55.4538 59.4064 55.3118 59.3542 55.2143 59.3551C54.8829 59.3608 54.5525 59.357 54.2211 59.357ZM52.464 55.765C52.356 56.0478 52.2831 56.2338 52.2131 56.4208C51.7936 57.5378 51.7936 57.5378 52.9894 57.4713C53.0178 57.4694 53.0453 57.4514 53.1106 57.4267C52.9089 56.9076 52.7063 56.3885 52.464 55.765Z" fill="#5B3926"/>
<path d="M35.4391 57.8481C35.8509 56.8725 36.2315 55.9938 36.5913 55.1064C36.7191 54.7923 36.6585 54.537 36.2448 54.5228C36.0971 54.5171 35.9617 54.5228 35.9683 54.3055C35.9759 54.0701 36.1425 54.1251 36.2713 54.1232C36.7276 54.1185 37.1849 54.1175 37.6413 54.1232C37.7691 54.1251 37.9395 54.0673 37.9452 54.3036C37.949 54.4734 37.8685 54.5085 37.7198 54.5275C37.3478 54.575 37.2285 54.8862 37.1035 55.1748C36.5364 56.4863 35.9769 57.7997 35.4107 59.1122C35.3473 59.2603 35.3397 59.4501 35.0926 59.4577C34.819 59.4662 34.8067 59.2546 34.7375 59.0923C34.1742 57.7779 33.6128 56.4626 33.0542 55.1463C32.915 54.8198 32.7825 54.4924 32.3394 54.519C32.1699 54.5294 32.1813 54.4127 32.1746 54.2988C32.1652 54.1441 32.2532 54.1204 32.3801 54.1204C33.1205 54.1223 33.8608 54.1242 34.6012 54.1194C34.7489 54.1185 34.8407 54.1422 34.8322 54.3235C34.8256 54.4592 34.7782 54.4981 34.6419 54.5256C34.1013 54.6329 34.0767 54.6851 34.2945 55.1975C34.658 56.0478 35.0282 56.8963 35.4391 57.8481Z" fill="#5B3926"/>
<path d="M47.2766 59.357C46.6148 59.357 45.953 59.3617 45.2922 59.3532C45.1596 59.3513 44.9646 59.4443 44.9513 59.1672C44.9409 58.9432 45.0896 58.9518 45.224 58.9404C45.5866 58.91 45.705 58.6709 45.7069 58.3586C45.7144 57.2692 45.7135 56.1797 45.7097 55.0902C45.7087 54.7419 45.5582 54.5104 45.1748 54.5208C45.0148 54.5246 44.9523 54.4705 44.9523 54.3054C44.9532 54.1108 45.0754 54.1212 45.2041 54.1212C45.9132 54.1212 46.6214 54.1203 47.3305 54.1231C47.4498 54.1231 47.5881 54.0947 47.5994 54.294C47.6108 54.5009 47.4934 54.5189 47.3343 54.5227C46.949 54.5322 46.8335 54.759 46.8373 55.1177C46.8477 56.1597 46.8373 57.2018 46.843 58.2438C46.8458 58.7534 46.9708 58.8701 47.4924 58.8901C48.5055 58.9271 48.8435 58.7088 49.2137 57.7399C49.2648 57.607 49.3216 57.5728 49.4447 57.5719C49.6037 57.57 49.6198 57.6715 49.6179 57.7902C49.6113 58.2476 49.5971 58.705 49.5971 59.1625C49.5971 59.3883 49.4466 59.3589 49.3074 59.3589C48.6314 59.357 47.9535 59.357 47.2766 59.357Z" fill="#5B3926"/>
<path d="M24.6064 56.7091C24.6064 57.214 24.614 57.7198 24.6036 58.2247C24.5951 58.6157 24.6784 58.9232 25.1442 58.9479C25.3108 58.9564 25.4102 59.0095 25.3847 59.2041C25.3591 59.4015 25.2152 59.355 25.0997 59.355C24.3906 59.3588 23.6824 59.3578 22.9732 59.3559C22.8539 59.3559 22.7214 59.3901 22.7063 59.1889C22.6902 58.983 22.8019 58.9583 22.9581 58.9479C23.3851 58.9194 23.4892 58.6631 23.4826 58.2702C23.4646 57.2444 23.4693 56.2175 23.4798 55.1916C23.4836 54.7854 23.3813 54.4979 22.9089 54.5207C22.7233 54.5302 22.7091 54.4258 22.7091 54.2844C22.7091 54.1183 22.8189 54.1221 22.9335 54.1221C23.6738 54.1221 24.4142 54.1221 25.1546 54.1221C25.2691 54.1221 25.3799 54.1221 25.3847 54.2825C25.3884 54.4248 25.3629 54.5264 25.182 54.5197C24.6755 54.5027 24.5969 54.831 24.6036 55.24C24.613 55.7297 24.6064 56.2194 24.6064 56.7091Z" fill="#5B3926"/>
<path d="M33.1436 20.1015C16.2793 15.7454 6.22895 10.7906 2.776 8.01371C-0.676954 5.23687 0.997007 0.492554 0.997007 0.492554C5.1458 9.70482 35.1852 17.8708 35.1852 17.8708L33.1436 20.1015ZM33.0386 20.9372C33.0386 20.9372 3.41276 13.4621 0.183002 6.55949C0.183002 6.55949 -0.0270631 11.4552 3.76068 13.8832C7.55499 16.3179 19.5222 19.8778 33.8592 22.8191L33.0386 20.9372ZM34.4959 23.9115C34.4959 23.9115 9.59 18.5947 2.97294 15.0282C2.97294 15.0282 3.75412 17.3247 7.4237 19.1935C11.2443 21.1412 19.857 23.0626 33.288 25.2275L34.4959 23.9115ZM35.4543 26.4185C35.4543 26.4185 12.183 23.2666 5.89416 19.5883C5.89416 19.5883 8.60532 22.7665 12.7016 24.0233C16.5156 25.1946 20.9926 26.3988 33.0583 27.399L35.4543 26.4185ZM33.2093 28.0636C33.2093 28.0636 15.9117 27.5371 9.62939 23.4114C9.62939 23.4114 9.85259 24.6155 13.3712 26.504C16.8898 28.386 22.0364 28.9519 34.0955 29.9521L33.2093 28.0636ZM35.3165 30.4127C35.3165 30.4127 19.6666 30.3864 13.0758 27.2805C13.0758 27.2805 14.3953 29.123 17.0539 30.0574C20.9401 31.426 24.3668 31.7814 36.4718 31.8077L35.3165 30.4127ZM38.9795 32.0906C38.9795 32.0906 23.3756 33.3343 16.6206 30.6035C16.6206 30.6035 18.0451 32.3736 20.7432 33.1566C24.7016 34.3016 28.1152 34.0713 40.2005 33.4264L38.9795 32.0906Z" fill="url(#paint0_linear_2002_1338)" stroke="#5B3926" stroke-width="0.361911"/>
<path d="M57.1771 17.8641C57.1771 17.8641 87.2164 9.69811 91.3652 0.48584C91.3652 0.48584 93.0458 5.24332 89.5862 8.01358C86.1267 10.7838 76.0895 15.7453 59.2186 20.1014L57.1771 17.8641ZM58.5031 22.819C72.8401 19.8777 84.8072 16.3178 88.6016 13.8831C92.3959 11.4484 92.1792 6.55936 92.1792 6.55936C88.9495 13.4686 59.3237 20.9371 59.3237 20.9371L58.5031 22.819ZM59.0808 25.2339C72.5053 23.0691 81.118 21.1476 84.9451 19.1999C88.6147 17.3311 89.3959 15.0346 89.3959 15.0346C82.7788 18.5945 57.8729 23.9179 57.8729 23.9179L59.0808 25.2339ZM59.304 27.4054C71.3696 26.3986 75.8466 25.201 79.6606 24.0298C83.7569 22.7664 86.4681 19.5947 86.4681 19.5947C80.1858 23.273 56.9079 26.425 56.9079 26.425L59.304 27.4054ZM58.2668 29.9519C70.3324 28.9452 75.4725 28.3859 78.9911 26.5039C82.5097 24.622 82.7329 23.4112 82.7329 23.4112C76.4506 27.537 59.153 28.0634 59.153 28.0634L58.2668 29.9519ZM55.897 31.8141C68.002 31.7812 71.4287 31.4259 75.3149 30.0638C77.967 29.1294 79.293 27.287 79.293 27.287C72.7022 30.3928 57.0523 30.4191 57.0523 30.4191L55.897 31.8141ZM52.1617 33.4197C64.2471 34.0646 67.6672 34.3014 71.6191 33.1499C74.3237 32.3669 75.7416 30.5968 75.7416 30.5968C68.9867 33.3342 53.3827 32.0839 53.3827 32.0839L52.1617 33.4197Z" fill="url(#paint1_linear_2002_1338)" stroke="#5B3926" stroke-width="0.361911"/>
<path d="M46.148 12.7712C40.9489 14.5215 36.5572 12.3171 36.5572 12.3171C33.1305 18.1274 30.892 18.2591 30.892 18.2591C30.892 18.2591 33.3931 20.2397 33.3931 23.4113C33.3931 26.583 26.9138 36.3612 34.0495 41.1121C39.3734 44.6522 44.3099 44.5338 45.9707 45.9222L46.1414 46.0801C47.6119 44.5206 52.7191 44.7838 58.2333 41.1121C65.369 36.3612 58.8898 26.583 58.8898 23.4113C58.8898 20.2397 61.3909 18.2591 61.3909 18.2591C61.3909 18.2591 59.1524 18.1274 55.7257 12.3171C55.7257 12.3171 49.8044 14.4491 45.9773 12.7119" fill="url(#paint2_linear_2002_1338)"/>
<path d="M46.148 12.7712C40.9489 14.5215 36.5572 12.3171 36.5572 12.3171C33.1305 18.1274 30.892 18.2591 30.892 18.2591C30.892 18.2591 33.3931 20.2397 33.3931 23.4113C33.3931 26.583 26.9138 36.3612 34.0495 41.1121C39.3734 44.6522 44.3099 44.5338 45.9707 45.9222L46.1414 46.0801C47.6119 44.5206 52.7191 44.7838 58.2333 41.1121C65.369 36.3612 58.8898 26.583 58.8898 23.4113C58.8898 20.2397 61.3909 18.2591 61.3909 18.2591C61.3909 18.2591 59.1524 18.1274 55.7257 12.3171C55.7257 12.3171 49.8044 14.4491 45.9773 12.7119" stroke="#5B3926" stroke-width="0.723821"/>
<path d="M51.2029 33.6171C51.2029 33.6171 53.1788 33.7685 54.0716 32.8736C54.9578 31.9852 55.2795 33.3671 55.2795 34.0843C55.2795 34.8016 55.2795 35.2951 55.2795 35.2951C55.2795 35.2951 58.6865 32.1037 56.3889 29.8006C54.9644 28.3727 53.8221 28.7083 53.8221 28.7083L53.2313 28.1161C53.2313 28.1161 51.774 25.9841 48.3407 26.1749C44.1197 26.1749 42.3079 27.9779 39.2029 30.3468H40.634C40.634 30.3468 37.2007 31.7089 36.9775 32.9723H38.4611C38.4611 32.9723 37.1744 33.5184 36.5574 34.8805C36.5574 34.8805 38.1657 33.6698 38.9534 33.9659C38.9534 33.9659 37.2729 34.5581 36.8265 36.7888C36.8265 36.7888 38.4545 34.6107 40.6799 34.8542C40.6799 34.8542 37.076 36.9862 37.9162 40.7501C37.9162 40.7501 39.7412 37.9798 40.8834 37.6771C40.8834 37.6771 40.6143 40.625 39.2029 42.0332C37.7915 43.4479 37.7915 43.6651 37.7915 43.6651C37.7915 43.6651 41.3232 41.5199 41.3232 42.0792C41.3232 44.9022 45.0322 40.3487 45.0322 40.3487C45.0322 40.3487 41.6252 43.8164 44.8353 45.8431C44.8353 45.8431 44.0935 43.5137 45.2291 43.7638C46.3648 44.0138 45.0059 46.488 46.2073 48.1199C47.4086 49.7518 49.8243 48.666 49.8243 48.666C49.8243 48.666 45.9447 47.6658 48.1438 44.9482C48.1438 44.9482 47.6515 46.0866 49.7718 46.0866C49.7718 46.0866 48.5836 44.2047 51.3998 41.8292C54.216 39.4603 52.1876 34.9068 51.2029 33.6171Z" fill="#5B3926"/>
<path d="M45.294 32.9395C44.7754 33.1171 44.6244 33.8146 44.6244 33.8146C43.1409 34.1239 42.4516 36.0914 42.4516 36.0914C44.677 35.1504 45.5632 35.6439 45.5632 35.6439C45.5632 35.6439 44.8739 35.4531 43.3903 36.5849C41.7229 37.8614 42.2284 40.3224 42.2284 40.3224C42.2284 40.3224 42.2284 40.3224 43.3903 39.1577C44.5522 37.993 45.1956 38.1444 45.1956 38.1444C44.8739 40.7962 48.9242 41.8819 48.9242 41.8819C46.922 40.6778 47.4669 37.4469 47.4669 37.4469C48.2809 39.0064 49.1212 39.1051 49.1212 39.1051C48.4778 37.9667 48.898 37.1508 48.898 37.1508C50.3553 37.4206 50.9461 39.2038 50.9461 39.2038C52.9942 37.7167 50.5063 35.3939 50.8608 33.9331C51.084 33.0118 49.8039 34.3608 46.5479 33.4067C45.6682 33.1566 45.294 32.9395 45.294 32.9395C45.3662 32.9131 45.2415 32.9724 45.7142 32.9724C46.7054 32.9724 48.4975 31.7353 48.4975 31.7353L48.4319 32.0314C49.6398 31.4589 49.7645 29.702 49.7645 29.702H48.3794C48.3794 29.702 48.4122 30.9391 46.6988 30.9391C45.1168 30.9391 45.1824 29.5112 45.1168 29.4059C45.0315 29.2677 44.9724 29.5572 44.9724 29.5572C44.9724 29.5572 44.7098 31.0641 46.2065 31.3865C48.0314 31.7813 48.5763 30.3929 48.5763 30.3929C48.491 31.1365 47.6048 31.8932 46.8301 32.3275C46.2131 32.6763 45.6616 32.8408 45.6616 32.8408" fill="url(#paint3_linear_2002_1338)"/>
<path d="M53.3757 28.9124C53.3757 28.9124 52.24 29.406 52.24 30.0508C52.24 30.6957 51.0519 31.2418 51.0519 31.2418C51.0519 31.2418 50.3691 29.3204 51.8921 28.8137C53.4151 28.3071 53.3757 28.9124 53.3757 28.9124Z" fill="#E9CE8B"/>
<path d="M41.7962 23.4439H39.2426V22.9833C39.4526 22.9833 39.6167 22.957 39.7283 22.9043C39.8399 22.8517 39.9056 22.7661 39.945 22.6609C39.9778 22.5556 39.9975 22.3976 39.9975 22.2002V18.0087C39.9975 17.7191 39.9515 17.5151 39.8596 17.3967C39.7677 17.2783 39.5642 17.219 39.2491 17.219V16.7584H41.8027V17.219C41.5927 17.219 41.4286 17.2454 41.317 17.3046C41.2054 17.3572 41.1397 17.4428 41.1003 17.548C41.0675 17.6533 41.0478 17.8113 41.0478 18.0087V22.2002C41.0478 22.3911 41.0609 22.5424 41.0938 22.6477C41.1266 22.753 41.1922 22.8385 41.2973 22.8977C41.4023 22.957 41.5664 22.9833 41.7896 22.9833V23.4439H41.7962Z" fill="#5B3926"/>
<path d="M47.4093 23.3716H47.0548C47.0023 23.0887 46.917 22.8387 46.7988 22.6149C46.6084 22.8716 46.3918 23.0953 46.1555 23.2795C45.9126 23.4638 45.5844 23.5559 45.1708 23.5559C44.7178 23.5559 44.2977 23.4111 43.9104 23.115C43.5231 22.8189 43.2146 22.4109 42.9848 21.8911C42.755 21.3647 42.6434 20.7725 42.6434 20.1145C42.6434 19.6473 42.7025 19.1998 42.8272 18.7787C42.952 18.351 43.1292 17.9825 43.359 17.66C43.5887 17.3376 43.8644 17.0876 44.1861 16.9033C44.5078 16.7191 44.8557 16.627 45.2364 16.627C45.8666 16.627 46.3852 16.9033 46.7988 17.4495C46.8513 17.3047 46.9038 17.1007 46.9563 16.8309H47.2911L47.3502 19.2919H46.9957C46.9301 18.8774 46.8119 18.5023 46.6478 18.1799C46.4771 17.8574 46.2802 17.6074 46.0504 17.4363C45.8207 17.2652 45.5778 17.1797 45.3218 17.1797C45.0395 17.1797 44.7835 17.285 44.5603 17.489C44.3371 17.6929 44.1598 18.0088 44.0286 18.4299C43.9038 18.8511 43.8382 19.3775 43.8382 20.0026C43.8382 20.6145 43.8907 21.1212 43.9957 21.5292C44.1008 21.9372 44.2321 22.2399 44.3896 22.4504C44.5472 22.661 44.7047 22.7992 44.8623 22.8716C45.0198 22.9439 45.1708 22.9834 45.3086 22.9834C45.6106 22.9834 45.8863 22.8781 46.1292 22.6544C46.3721 22.4373 46.5756 22.1609 46.7266 21.8319C46.8841 21.5029 46.9892 21.1739 47.0417 20.8449H47.3962V23.3716H47.4093Z" fill="#5B3926"/>
<path d="M53.3367 23.3716H52.9888C52.9363 23.0887 52.8509 22.8387 52.7328 22.6149C52.5424 22.8716 52.3258 23.0953 52.0894 23.2795C51.8465 23.4638 51.5183 23.5559 51.1047 23.5559C50.6518 23.5559 50.2317 23.4111 49.8444 23.115C49.457 22.8189 49.1485 22.4109 48.9187 21.8911C48.689 21.3647 48.5774 20.7725 48.5774 20.1145C48.5774 19.6473 48.6365 19.1998 48.7612 18.7787C48.8859 18.351 49.0632 17.9825 49.2929 17.66C49.5227 17.3376 49.7984 17.0876 50.1201 16.9033C50.4417 16.7191 50.7896 16.627 51.1704 16.627C51.8006 16.627 52.3192 16.9033 52.7328 17.4495C52.7853 17.3047 52.8378 17.1007 52.8903 16.8309H53.2251L53.2842 19.2919H52.9297C52.864 18.8774 52.7459 18.5023 52.5818 18.1799C52.4111 17.8574 52.2142 17.6074 51.9844 17.4363C51.7546 17.2652 51.5117 17.1797 51.2557 17.1797C50.9735 17.1797 50.7174 17.285 50.4942 17.489C50.271 17.6929 50.0938 18.0088 49.9625 18.4299C49.8378 18.8511 49.7721 19.3775 49.7721 20.0026C49.7721 20.6145 49.8247 21.1212 49.9297 21.5292C50.0347 21.9372 50.166 22.2399 50.3236 22.4504C50.4811 22.661 50.6387 22.7992 50.7962 22.8716C50.9538 22.9439 51.1047 22.9834 51.2426 22.9834C51.5446 22.9834 51.8203 22.8781 52.0632 22.6544C52.3061 22.4373 52.5096 22.1609 52.6605 21.8319C52.8181 21.5029 52.9231 21.1739 52.9756 20.8449H53.3301V23.3716H53.3367Z" fill="#5B3926"/>
<path d="M24.4929 62.8397H24.0856C24.074 62.7727 24.0526 62.7134 24.0213 62.6617C23.9901 62.6093 23.9513 62.565 23.9048 62.5286C23.8584 62.4922 23.8054 62.4649 23.7458 62.4467C23.687 62.4278 23.6235 62.4183 23.5552 62.4183C23.434 62.4183 23.3266 62.4489 23.2329 62.51C23.1392 62.5704 23.0659 62.6592 23.0129 62.7764C22.9599 62.8928 22.9334 63.0351 22.9334 63.2032C22.9334 63.3742 22.9599 63.5183 23.0129 63.6355C23.0666 63.7519 23.14 63.84 23.2329 63.8996C23.3266 63.9586 23.4336 63.988 23.5542 63.988C23.621 63.988 23.6834 63.9793 23.7415 63.9618C23.8003 63.9437 23.8529 63.9171 23.8994 63.8822C23.9466 63.8472 23.9861 63.8043 24.0181 63.7534C24.0508 63.7024 24.0733 63.6442 24.0856 63.5787L24.4929 63.5809C24.4776 63.6871 24.4446 63.7868 24.3938 63.88C24.3437 63.9731 24.278 64.0554 24.1967 64.1267C24.1154 64.1973 24.0203 64.2526 23.9114 64.2926C23.8025 64.3319 23.6816 64.3516 23.5487 64.3516C23.3527 64.3516 23.1777 64.3061 23.0238 64.2151C22.8699 64.1241 22.7487 63.9928 22.6601 63.821C22.5715 63.6493 22.5272 63.4433 22.5272 63.2032C22.5272 62.9623 22.5719 62.7563 22.6612 62.5853C22.7505 62.4136 22.8721 62.2822 23.026 62.1913C23.1799 62.1003 23.3541 62.0548 23.5487 62.0548C23.6729 62.0548 23.7883 62.0723 23.895 62.1072C24.0017 62.1421 24.0969 62.1934 24.1803 62.2611C24.2638 62.3281 24.3324 62.4103 24.3862 62.5078C24.4406 62.6046 24.4762 62.7152 24.4929 62.8397Z" fill="#5B3926"/>
<path d="M25.3523 64.321H24.9211L25.7063 62.0854H26.205L26.9913 64.321H26.5601L25.9644 62.5438H25.9469L25.3523 64.321ZM25.3665 63.4444H26.5426V63.7697H25.3665V63.4444Z" fill="#5B3926"/>
<path d="M27.5151 64.321V62.0854H28.3514C28.5228 62.0854 28.6665 62.1152 28.7827 62.1749C28.8996 62.2346 28.9878 62.3183 29.0473 62.426C29.1076 62.5329 29.1377 62.6577 29.1377 62.8004C29.1377 62.9437 29.1072 63.0682 29.0462 63.1737C28.986 63.2785 28.897 63.3596 28.7794 63.4171C28.6618 63.4739 28.5173 63.5023 28.346 63.5023H27.7503V63.1661H28.2915C28.3917 63.1661 28.4738 63.1522 28.5376 63.1246C28.6015 63.0962 28.6487 63.0551 28.6792 63.0012C28.7104 62.9467 28.726 62.8797 28.726 62.8004C28.726 62.7211 28.7104 62.6534 28.6792 62.5973C28.648 62.5406 28.6004 62.4976 28.5366 62.4685C28.4727 62.4387 28.3903 62.4238 28.2894 62.4238H27.9191V64.321H27.5151ZM28.6672 63.308L29.2194 64.321H28.7685L28.2262 63.308H28.6672Z" fill="#5B3926"/>
<path d="M29.7396 64.321V62.0854H30.5759C30.7473 62.0854 30.891 62.1152 31.0072 62.1749C31.1241 62.2346 31.2123 62.3183 31.2718 62.426C31.3321 62.5329 31.3622 62.6577 31.3622 62.8004C31.3622 62.9437 31.3317 63.0682 31.2707 63.1737C31.2105 63.2785 31.1215 63.3596 31.0039 63.4171C30.8863 63.4739 30.7418 63.5023 30.5705 63.5023H29.9748V63.1661H30.5161C30.6162 63.1661 30.6983 63.1522 30.7622 63.1246C30.8261 63.0962 30.8733 63.0551 30.9037 63.0012C30.935 62.9467 30.9506 62.8797 30.9506 62.8004C30.9506 62.7211 30.935 62.6534 30.9037 62.5973C30.8725 62.5406 30.825 62.4976 30.7611 62.4685C30.6972 62.4387 30.6148 62.4238 30.5139 62.4238H30.1436V64.321H29.7396ZM30.8918 63.308L31.4439 64.321H30.993L30.4507 63.308H30.8918Z" fill="#5B3926"/>
<path d="M32.3681 62.0854V64.321H31.9641V62.0854H32.3681Z" fill="#5B3926"/>
<path d="M33.0356 64.321V62.0854H34.4862V62.4249H33.4397V63.0318H34.4111V63.3713H33.4397V63.9815H34.4949V64.321H33.0356Z" fill="#5B3926"/>
<path d="M35.1284 64.321V62.0854H35.9648C36.1361 62.0854 36.2799 62.1152 36.396 62.1749C36.5129 62.2346 36.6011 62.3183 36.6606 62.426C36.7209 62.5329 36.751 62.6577 36.751 62.8004C36.751 62.9437 36.7205 63.0682 36.6596 63.1737C36.5993 63.2785 36.5104 63.3596 36.3927 63.4171C36.2751 63.4739 36.1307 63.5023 35.9593 63.5023H35.3636V63.1661H35.9049C36.0051 63.1661 36.0871 63.1522 36.151 63.1246C36.2149 63.0962 36.2621 63.0551 36.2926 63.0012C36.3238 62.9467 36.3394 62.8797 36.3394 62.8004C36.3394 62.7211 36.3238 62.6534 36.2926 62.5973C36.2613 62.5406 36.2138 62.4976 36.1499 62.4685C36.086 62.4387 36.0036 62.4238 35.9027 62.4238H35.5324V64.321H35.1284ZM36.2806 63.308L36.8327 64.321H36.3819L35.8395 63.308H36.2806Z" fill="#5B3926"/>
<path d="M40.2526 62.8397H39.8454C39.8337 62.7727 39.8123 62.7134 39.7811 62.6617C39.7499 62.6093 39.711 62.565 39.6646 62.5286C39.6181 62.4922 39.5651 62.4649 39.5056 62.4467C39.4468 62.4278 39.3832 62.4183 39.315 62.4183C39.1938 62.4183 39.0863 62.4489 38.9927 62.51C38.899 62.5704 38.8257 62.6592 38.7727 62.7764C38.7197 62.8928 38.6932 63.0351 38.6932 63.2032C38.6932 63.3742 38.7197 63.5183 38.7727 63.6355C38.8264 63.7519 38.8997 63.84 38.9927 63.8996C39.0863 63.9586 39.1934 63.988 39.3139 63.988C39.3807 63.988 39.4431 63.9793 39.5012 63.9618C39.56 63.9437 39.6127 63.9171 39.6591 63.8822C39.7063 63.8472 39.7459 63.8043 39.7778 63.7534C39.8105 63.7024 39.833 63.6442 39.8454 63.5787L40.2526 63.5809C40.2374 63.6871 40.2044 63.7868 40.1535 63.88C40.1034 63.9731 40.0377 64.0554 39.9564 64.1267C39.8751 64.1973 39.78 64.2526 39.6711 64.2926C39.5622 64.3319 39.4413 64.3516 39.3085 64.3516C39.1124 64.3516 38.9375 64.3061 38.7836 64.2151C38.6297 64.1241 38.5084 63.9928 38.4198 63.821C38.3313 63.6493 38.287 63.4433 38.287 63.2032C38.287 62.9623 38.3316 62.7563 38.4209 62.5853C38.5102 62.4136 38.6318 62.2822 38.7857 62.1913C38.9397 62.1003 39.1139 62.0548 39.3085 62.0548C39.4326 62.0548 39.5481 62.0723 39.6548 62.1072C39.7615 62.1421 39.8566 62.1934 39.9401 62.2611C40.0236 62.3281 40.0922 62.4103 40.1459 62.5078C40.2004 62.6046 40.2359 62.7152 40.2526 62.8397Z" fill="#5B3926"/>
<path d="M42.8455 63.2032C42.8455 63.4441 42.8005 63.6504 42.7105 63.8221C42.6212 63.9931 42.4992 64.1241 42.3446 64.2151C42.1907 64.3061 42.0161 64.3516 41.8208 64.3516C41.6255 64.3516 41.4505 64.3061 41.2959 64.2151C41.1419 64.1234 41.02 63.992 40.93 63.821C40.8407 63.6493 40.796 63.4433 40.796 63.2032C40.796 62.9623 40.8407 62.7563 40.93 62.5853C41.02 62.4136 41.1419 62.2822 41.2959 62.1913C41.4505 62.1003 41.6255 62.0548 41.8208 62.0548C42.0161 62.0548 42.1907 62.1003 42.3446 62.1913C42.4992 62.2822 42.6212 62.4136 42.7105 62.5853C42.8005 62.7563 42.8455 62.9623 42.8455 63.2032ZM42.4393 63.2032C42.4393 63.0336 42.4128 62.8906 42.3598 62.7742C42.3076 62.657 42.235 62.5686 42.142 62.5089C42.0491 62.4485 41.942 62.4183 41.8208 62.4183C41.6995 62.4183 41.5924 62.4485 41.4995 62.5089C41.4066 62.5686 41.3336 62.657 41.2806 62.7742C41.2283 62.8906 41.2022 63.0336 41.2022 63.2032C41.2022 63.3727 41.2283 63.5161 41.2806 63.6333C41.3336 63.7497 41.4066 63.8381 41.4995 63.8985C41.5924 63.9582 41.6995 63.988 41.8208 63.988C41.942 63.988 42.0491 63.9582 42.142 63.8985C42.235 63.8381 42.3076 63.7497 42.3598 63.6333C42.4128 63.5161 42.4393 63.3727 42.4393 63.2032Z" fill="#5B3926"/>
<path d="M45.2903 62.0854V64.321H44.9309L43.88 62.7982H43.8615V64.321H43.4575V62.0854H43.819L44.8689 63.6093H44.8885V62.0854H45.2903Z" fill="#5B3926"/>
<path d="M47.1726 62.6999C47.1624 62.6046 47.1196 62.5304 47.0441 62.4773C46.9693 62.4241 46.872 62.3976 46.7523 62.3976C46.668 62.3976 46.5958 62.4103 46.5355 62.4358C46.4753 62.4613 46.4292 62.4958 46.3972 62.5395C46.3653 62.5831 46.349 62.633 46.3482 62.689C46.3482 62.7356 46.3588 62.776 46.3798 62.8102C46.4016 62.8444 46.431 62.8735 46.468 62.8975C46.505 62.9208 46.5461 62.9405 46.5911 62.9565C46.6361 62.9725 46.6815 62.986 46.7272 62.9969L46.9363 63.0493C47.0205 63.0689 47.1015 63.0955 47.1791 63.129C47.2576 63.1624 47.3276 63.2046 47.3893 63.2556C47.4518 63.3065 47.5011 63.368 47.5374 63.4401C47.5737 63.5121 47.5919 63.5965 47.5919 63.6933C47.5919 63.8243 47.5585 63.9397 47.4917 64.0394C47.4249 64.1383 47.3283 64.2158 47.202 64.2719C47.0764 64.3272 46.9243 64.3548 46.7457 64.3548C46.5722 64.3548 46.4216 64.3279 46.2938 64.274C46.1667 64.2202 46.0673 64.1416 45.9954 64.0383C45.9242 63.9349 45.8858 63.809 45.88 63.6606H46.2774C46.2832 63.7384 46.3072 63.8032 46.3493 63.8549C46.3914 63.9065 46.4462 63.9451 46.5138 63.9706C46.582 63.9961 46.6582 64.0088 46.7425 64.0088C46.8303 64.0088 46.9073 63.9957 46.9733 63.9695C47.0401 63.9426 47.0924 63.9054 47.1301 63.8581C47.1679 63.8101 47.1871 63.7541 47.1879 63.69C47.1871 63.6318 47.1701 63.5838 47.1367 63.5459C47.1033 63.5074 47.0564 63.4754 46.9962 63.4499C46.9367 63.4237 46.867 63.4004 46.7871 63.38L46.5334 63.3145C46.3497 63.2672 46.2045 63.1955 46.0978 63.0995C45.9918 63.0027 45.9388 62.8742 45.9388 62.7141C45.9388 62.5824 45.9743 62.4671 46.0455 62.3681C46.1174 62.2691 46.215 62.1924 46.3384 62.1378C46.4618 62.0825 46.6016 62.0548 46.7577 62.0548C46.916 62.0548 47.0546 62.0825 47.1737 62.1378C47.2935 62.1924 47.3875 62.2684 47.4558 62.3659C47.524 62.4627 47.5592 62.5741 47.5614 62.6999H47.1726Z" fill="#5B3926"/>
<path d="M49.588 62.0854H49.992V63.5459C49.992 63.706 49.9543 63.8469 49.8788 63.9684C49.804 64.0899 49.6987 64.1849 49.5629 64.2533C49.4272 64.321 49.2685 64.3548 49.087 64.3548C48.9048 64.3548 48.7458 64.321 48.6101 64.2533C48.4743 64.1849 48.369 64.0899 48.2942 63.9684C48.2195 63.8469 48.1821 63.706 48.1821 63.5459V62.0854H48.5861V63.5121C48.5861 63.6053 48.6064 63.6882 48.6471 63.761C48.6885 63.8338 48.7465 63.8909 48.8213 63.9324C48.8961 63.9731 48.9847 63.9935 49.087 63.9935C49.1894 63.9935 49.278 63.9731 49.3528 63.9324C49.4283 63.8909 49.4863 63.8338 49.527 63.761C49.5677 63.6882 49.588 63.6053 49.588 63.5121V62.0854Z" fill="#5B3926"/>
<path d="M50.6612 64.321V62.0854H51.0652V63.9815H52.0475V64.321H50.6612Z" fill="#5B3926"/>
<path d="M52.2456 62.4249V62.0854H54.0251V62.4249H53.3357V64.321H52.935V62.4249H52.2456Z" fill="#5B3926"/>
<path d="M55.0021 62.0854V64.321H54.5981V62.0854H55.0021Z" fill="#5B3926"/>
<path d="M57.5024 62.0854V64.321H57.1431L56.0922 62.7982H56.0737V64.321H55.6696V62.0854H56.0312L57.081 63.6093H57.1006V62.0854H57.5024Z" fill="#5B3926"/>
<path d="M59.6668 62.7993C59.6486 62.7403 59.6236 62.6876 59.5917 62.641C59.5604 62.5937 59.5227 62.5533 59.4784 62.5198C59.4348 62.4864 59.3847 62.4613 59.3281 62.4445C59.2715 62.427 59.2098 62.4183 59.143 62.4183C59.0232 62.4183 58.9165 62.4485 58.8228 62.5089C58.7292 62.5693 58.6555 62.6581 58.6017 62.7753C58.5487 62.8917 58.5222 63.0336 58.5222 63.201C58.5222 63.3698 58.5487 63.5128 58.6017 63.63C58.6547 63.7472 58.7284 63.8363 58.8228 63.8974C58.9172 63.9578 59.0268 63.988 59.1517 63.988C59.265 63.988 59.363 63.9662 59.4457 63.9225C59.5292 63.8789 59.5935 63.817 59.6385 63.737C59.6835 63.6562 59.706 63.5616 59.706 63.4532L59.7975 63.4673H59.192V63.1508H60.097V63.4193C60.097 63.6107 60.0563 63.7763 59.975 63.916C59.8937 64.0557 59.7819 64.1634 59.6396 64.2391C59.4973 64.3141 59.3339 64.3516 59.1495 64.3516C58.9441 64.3516 58.7636 64.3053 58.6083 64.2129C58.4536 64.1198 58.3328 63.9877 58.2456 63.8167C58.1592 63.6449 58.116 63.4412 58.116 63.2054C58.116 63.0249 58.1415 62.8637 58.1923 62.7218C58.2438 62.5799 58.3157 62.4594 58.4079 62.3605C58.5001 62.2608 58.6083 62.1851 58.7324 62.1334C58.8566 62.081 58.9916 62.0548 59.1375 62.0548C59.261 62.0548 59.376 62.073 59.4828 62.1094C59.5895 62.145 59.6842 62.196 59.767 62.2622C59.8505 62.3284 59.9191 62.407 59.9728 62.498C60.0265 62.589 60.0617 62.6894 60.0784 62.7993H59.6668Z" fill="#5B3926"/>
<path d="M63.2024 62.7993C63.1843 62.7403 63.1592 62.6876 63.1273 62.641C63.0961 62.5937 63.0583 62.5533 63.014 62.5198C62.9705 62.4864 62.9204 62.4613 62.8638 62.4445C62.8071 62.427 62.7454 62.4183 62.6786 62.4183C62.5588 62.4183 62.4521 62.4485 62.3585 62.5089C62.2648 62.5693 62.1911 62.6581 62.1374 62.7753C62.0844 62.8917 62.0579 63.0336 62.0579 63.201C62.0579 63.3698 62.0844 63.5128 62.1374 63.63C62.1904 63.7472 62.2641 63.8363 62.3585 63.8974C62.4528 63.9578 62.5625 63.988 62.6873 63.988C62.8006 63.988 62.8986 63.9662 62.9814 63.9225C63.0649 63.8789 63.1291 63.817 63.1741 63.737C63.2191 63.6562 63.2416 63.5616 63.2416 63.4532L63.3331 63.4673H62.7276V63.1508H63.6326V63.4193C63.6326 63.6107 63.5919 63.7763 63.5106 63.916C63.4293 64.0557 63.3175 64.1634 63.1752 64.2391C63.0329 64.3141 62.8696 64.3516 62.6852 64.3516C62.4797 64.3516 62.2993 64.3053 62.1439 64.2129C61.9893 64.1198 61.8684 63.9877 61.7813 63.8167C61.6949 63.6449 61.6517 63.4412 61.6517 63.2054C61.6517 63.0249 61.6771 62.8637 61.7279 62.7218C61.7795 62.5799 61.8513 62.4594 61.9435 62.3605C62.0357 62.2608 62.1439 62.1851 62.2681 62.1334C62.3922 62.081 62.5273 62.0548 62.6732 62.0548C62.7966 62.0548 62.9117 62.073 63.0184 62.1094C63.1251 62.145 63.2199 62.196 63.3026 62.2622C63.3861 62.3284 63.4547 62.407 63.5085 62.498C63.5622 62.589 63.5974 62.6894 63.6141 62.7993H63.2024Z" fill="#5B3926"/>
<path d="M64.2533 62.0854H64.7477L65.4098 63.7053H65.4359L66.0981 62.0854H66.5925V64.321H66.2048V62.7851H66.1841L65.5677 64.3144H65.278L64.6617 62.7818H64.641V64.321H64.2533V62.0854Z" fill="#5B3926"/>
<path d="M67.2624 64.321V62.0854H68.1162C68.2774 62.0854 68.4114 62.1108 68.5181 62.1618C68.6255 62.212 68.7057 62.2808 68.7587 62.3681C68.8125 62.4554 68.8393 62.5544 68.8393 62.665C68.8393 62.756 68.8219 62.8339 68.7871 62.8986C68.7522 62.9627 68.7054 63.0147 68.6466 63.0547C68.5878 63.0947 68.5221 63.1235 68.4495 63.141V63.1628C68.5286 63.1672 68.6045 63.1915 68.6771 63.2359C68.7504 63.2796 68.8103 63.3415 68.8568 63.4215C68.9032 63.5016 68.9265 63.5983 68.9265 63.7119C68.9265 63.8276 68.8985 63.9316 68.8426 64.0241C68.7867 64.1158 68.7025 64.1882 68.5899 64.2413C68.4774 64.2944 68.3358 64.321 68.1652 64.321H67.2624ZM67.6665 63.9826H68.101C68.2476 63.9826 68.3533 63.9546 68.4179 63.8985C68.4832 63.8418 68.5159 63.769 68.5159 63.6802C68.5159 63.614 68.4996 63.5543 68.4669 63.5012C68.4342 63.4473 68.3878 63.4051 68.3275 63.3746C68.2672 63.3433 68.1954 63.3276 68.1119 63.3276H67.6665V63.9826ZM67.6665 63.0362H68.0661C68.1358 63.0362 68.1986 63.0234 68.2545 62.998C68.3104 62.9718 68.3544 62.935 68.3863 62.8877C68.419 62.8397 68.4353 62.7829 68.4353 62.7174C68.4353 62.6308 68.4048 62.5595 68.3438 62.5035C68.2836 62.4474 68.1939 62.4194 68.0748 62.4194H67.6665V63.0362Z" fill="#5B3926"/>
<path d="M69.5079 64.321V62.0854H69.912V63.0318H70.9454V62.0854H71.3505V64.321H70.9454V63.3713H69.912V64.321H69.5079Z" fill="#5B3926"/>
<defs>
<linearGradient id="paint0_linear_2002_1338" x1="31.1479" y1="10.8534" x2="8.14837" y2="24.1005" gradientUnits="userSpaceOnUse">
<stop offset="0.0275" stop-color="#847B6F"/>
<stop offset="0.2527" stop-color="#B6997C"/>
<stop offset="0.3058" stop-color="#C4A881"/>
<stop offset="0.4612" stop-color="#EAD08F"/>
<stop offset="0.544" stop-color="#F9E093"/>
<stop offset="0.6186" stop-color="#ECD28F"/>
<stop offset="0.7525" stop-color="#CBAF84"/>
<stop offset="0.8297" stop-color="#B6997C"/>
<stop offset="0.9945" stop-color="#847B6F"/>
</linearGradient>
<linearGradient id="paint1_linear_2002_1338" x1="61.2187" y1="10.8533" x2="84.2181" y2="24.1004" gradientUnits="userSpaceOnUse">
<stop offset="0.0275" stop-color="#847B6F"/>
<stop offset="0.2527" stop-color="#B6997C"/>
<stop offset="0.3058" stop-color="#C4A881"/>
<stop offset="0.4612" stop-color="#EAD08F"/>
<stop offset="0.544" stop-color="#F9E093"/>
<stop offset="0.6186" stop-color="#ECD28F"/>
<stop offset="0.7525" stop-color="#CBAF84"/>
<stop offset="0.8297" stop-color="#B6997C"/>
<stop offset="0.9945" stop-color="#847B6F"/>
</linearGradient>
<linearGradient id="paint2_linear_2002_1338" x1="30.7034" y1="29.2005" x2="61.5922" y2="29.2005" gradientUnits="userSpaceOnUse">
<stop offset="0.0275" stop-color="#847B6F"/>
<stop offset="0.2527" stop-color="#B6997C"/>
<stop offset="0.3058" stop-color="#C4A881"/>
<stop offset="0.4612" stop-color="#EAD08F"/>
<stop offset="0.544" stop-color="#F9E093"/>
<stop offset="0.6186" stop-color="#ECD28F"/>
<stop offset="0.7525" stop-color="#CBAF84"/>
<stop offset="0.8297" stop-color="#B6997C"/>
<stop offset="0.9945" stop-color="#847B6F"/>
</linearGradient>
<linearGradient id="paint3_linear_2002_1338" x1="42.1591" y1="35.6285" x2="51.7711" y2="35.6285" gradientUnits="userSpaceOnUse">
<stop stop-color="#B6997C"/>
<stop offset="1" stop-color="#F9E093"/>
</linearGradient>
</defs>
</svg>
