<svg width="64" height="64" viewBox="0 0 64 64" fill="none" xmlns="http://www.w3.org/2000/svg">
<g clip-path="url(#clip0_2021_53)">
<rect width="64" height="64" fill="#FF6600"/>
<path d="M33.7002 11C47.3998 11.0001 53.4997 21.4996 53.5 27.5996C53.5 32.9996 51.1 33.7002 48.5 33.7002V33.7998H31C30.1 33.7998 28.7998 33.5004 28.7998 34.9004C28.8001 38.9002 33.9999 42.2997 37.7998 42.2998C43.7998 42.2998 46.8 38.7002 48.5 38.7002C50.2 38.7002 51.5996 41.2002 51.5996 42.7002C51.5994 48.9001 40.2999 53.4004 33 53.4004C18.5 53.4004 11 42.9 11 32.5C11 20.1 21.6002 11.1 33.7002 11ZM33.2002 18.4004C30.6002 18.4004 28.4004 21.1002 28.4004 23.7002C28.4006 26.6999 31.1003 26 33.2002 26C35.4001 26 38 26.4995 38 23.5996C37.9999 20.6998 36.1999 18.4005 33.2002 18.4004Z" fill="white"/>
</g>
<defs>
<clipPath id="clip0_2021_53">
<rect width="64" height="64" fill="white"/>
</clipPath>
</defs>
</svg>
