<svg width="64" height="64" viewBox="0 0 64 64" fill="none" xmlns="http://www.w3.org/2000/svg">
<path d="M37.6525 13.0229C35.0154 13.0229 33.5249 13.344 31.5987 14.33C30.9566 14.674 24.0086 18.2741 18.9638 20.9111C14.9738 22.9979 12.1992 25.933 10.4565 29.5331C5.43461 39.8979 0 51.2945 0 51.2945H10.8692C13.5521 51.2945 15.4325 50.1709 16.3956 48.1301C16.8312 47.2128 19.2619 42.191 21.7614 37.0774H39.4181C41.8488 37.0774 42.789 36.6646 43.7062 34.7155L44.6234 32.8123C44.6234 32.8123 32.3096 32.8123 23.3436 32.8123C25.2927 28.8452 28.1591 22.8373 28.1591 22.8373C29.3973 20.3379 30.8191 19.3289 34.0523 19.3289H46.0681H56.9373C59.6202 19.3289 61.5005 18.2282 62.4636 16.1645L64 13H37.6525V13.0229Z" fill="#0C0243"/>
</svg>
