<svg width="64" height="64" viewBox="0 0 64 64" fill="none" xmlns="http://www.w3.org/2000/svg">
<path d="M30.2612 31.3143C36.372 24.3543 38.4497 14.8302 39.183 8.23652C39.4275 6.52706 40.7718 1.76499 36.9831 2.0092C32.5833 2.2534 33.6833 16.0512 28.6724 15.5628C24.3948 15.1965 19.6284 1.52078 15.7174 3.35234C11.8065 5.18391 21.4616 15.9291 20.8505 19.348C20.1172 23.1333 3.37357 12.1439 1.29589 16.9059C-0.0484941 19.9585 18.0396 23.7438 17.0618 26.7964C16.2063 29.9711 -1.27066 29.1164 0.0737224 33.6342C1.4181 38.2742 16.4507 30.4595 17.5507 34.2448C18.6506 38.1521 4.22909 43.7689 6.06234 48.8973C7.16228 51.9499 22.9282 39.6174 30.2612 31.3143Z" fill="#F9B10B"/>
<path d="M47.9829 28.8713C45.783 24.3534 59.1046 20.4461 57.7602 16.1724C56.6603 12.6314 52.6272 15.5619 51.0384 16.4166C45.2942 19.4692 36.9834 24.8419 32.7059 33.0228C27.4506 42.7912 21.7064 61.9616 25.0062 61.8395C30.3838 61.7174 30.506 46.2101 34.4169 45.9659C38.45 45.5996 36.4946 62.3279 41.261 61.9616C46.1497 61.5953 39.0611 45.5996 41.6277 43.6459C44.1942 41.6923 54.0938 57.0774 56.5381 54.7574C60.3268 51.2164 43.9498 39.4944 47.2496 37.5407C50.3051 35.7091 63.7489 40.8375 63.9933 36.5639C64.36 32.1681 49.8162 32.6565 47.9829 28.8713Z" fill="#F9B10B"/>
</svg>
