<svg width="257" height="64" viewBox="0 0 257 64" fill="none" xmlns="http://www.w3.org/2000/svg">
<path d="M32.296 31.2853C38.8177 23.8574 41.0351 13.6928 41.8177 6.65584C42.0786 4.83143 43.5133 -0.250846 39.4699 0.00978375C34.7742 0.270413 35.9481 14.996 30.6003 14.4747C26.0351 14.0838 20.9482 -0.511475 16.7743 1.44325C12.6004 3.39797 22.9047 14.8657 22.2525 18.5145C21.4699 22.5542 3.60041 10.8259 1.38302 15.9082C-0.0517549 19.1661 19.2525 23.2058 18.2091 26.4637C17.296 29.8519 -1.3561 28.9397 0.0786795 33.7613C1.51346 38.7133 17.5569 30.3731 18.7308 34.4129C19.9047 38.583 4.51345 44.5774 6.46997 50.0507C7.64388 53.3085 24.4699 40.1467 32.296 31.2853Z" fill="#F9B10B"/>
<path d="M51.2092 28.6781C48.8614 23.8565 63.0787 19.6864 61.6439 15.1254C60.47 11.3463 56.1657 14.4738 54.47 15.386C48.3396 18.6439 39.4701 24.3778 34.9049 33.1088C29.2962 43.534 23.1658 63.9934 26.6875 63.8631C32.4266 63.7328 32.557 47.1828 36.7309 46.9222C41.0353 46.5312 38.9483 64.3844 44.0353 63.9934C49.2527 63.6025 41.6874 46.5313 44.4266 44.4462C47.1657 42.3612 57.7309 58.7808 60.3396 56.3048C64.383 52.5257 46.9048 40.0155 50.4266 37.9305C53.6874 35.9758 68.0352 41.449 68.2961 36.8879C68.6874 32.1966 53.1657 32.7179 51.2092 28.6781Z" fill="#F9B10B"/>
<path d="M157.473 41.3447C155.358 41.3447 153.712 41.8144 152.772 42.9887C152.537 42.7539 152.302 42.2842 152.066 42.0493C151.361 41.5796 150.891 41.5796 150.186 41.5796C149.246 41.5796 148.54 41.8144 148.54 42.9887C148.54 43.2236 148.775 43.6933 149.01 43.9282C149.716 44.3979 149.951 44.6328 149.951 45.8071V55.4365C149.951 56.376 150.656 57.0806 151.831 57.0806C152.772 57.0806 153.477 56.376 153.477 55.4365V46.042C153.947 45.1025 155.123 44.3979 156.533 44.3979C158.649 44.3979 159.119 45.5722 159.119 47.2163V55.4365C159.119 56.376 159.824 57.0806 160.764 57.0806C161.705 57.0806 162.41 56.376 162.41 55.4365V46.9814C162.41 43.6933 161.235 41.3447 157.473 41.3447Z" fill="#0E88D2"/>
<path d="M142.899 47.686H137.257V47.2163C137.257 45.1025 137.962 43.9282 140.078 43.9282C142.193 43.9282 142.899 45.1025 142.899 47.2163V47.686ZM140.078 41.3447C135.611 41.3447 133.731 44.3979 133.731 47.9209V50.7392C133.731 54.0273 135.376 57.0806 139.843 57.0806C141.253 57.0806 142.664 57.0806 143.839 56.6108C144.779 56.1411 145.485 55.6714 145.485 54.7319C145.485 54.0273 145.014 53.5576 144.309 53.5576C143.839 53.5576 143.369 53.7925 142.664 54.0273C142.193 54.2622 141.488 54.4971 140.078 54.4971C137.962 54.4971 137.257 53.0879 137.257 50.9741V50.2695H145.014C145.485 50.2695 146.19 49.7998 146.19 49.0952V47.686C146.19 44.1631 144.544 41.3447 140.078 41.3447Z" fill="#0E88D2"/>
<path d="M125.973 47.9209C124.092 47.4512 122.212 47.4512 122.212 45.8071C122.212 44.8677 122.917 44.1631 124.563 44.1631C125.738 44.1631 126.678 44.1631 127.854 44.6328C128.559 44.8677 129.264 44.3979 129.499 43.6933C129.734 42.9887 129.499 42.2842 128.559 41.8144C127.384 41.5796 126.443 41.3447 124.563 41.3447C121.507 41.3447 119.156 42.9887 119.156 46.042C119.156 48.8603 120.801 49.7998 122.917 50.2695C125.033 50.7392 127.149 50.7392 127.149 52.3833C127.149 53.5576 126.208 54.4971 124.328 54.4971C122.682 54.4971 121.742 54.0273 120.801 53.7925C120.096 53.5576 119.391 53.7925 119.156 54.7319C118.686 55.4365 119.156 56.376 119.861 56.6108C121.036 56.8457 122.212 57.0806 124.328 57.0806C127.619 57.0806 130.44 55.6714 130.44 52.3833C130.44 49.0952 128.089 48.3906 125.973 47.9209Z" fill="#0E88D2"/>
<path d="M112.808 41.3447C111.868 41.3447 111.163 42.0493 111.163 42.9887V55.4365C111.163 56.376 111.868 57.0806 112.808 57.0806C113.749 57.0806 114.689 56.376 114.689 55.4365V42.9887C114.689 42.0493 113.749 41.3447 112.808 41.3447Z" fill="#0E88D2"/>
<path d="M112.808 34.7673C111.868 34.7673 110.928 35.7067 110.928 36.6462C110.928 37.8205 111.868 38.76 112.808 38.76C113.984 38.76 114.924 37.8205 114.924 36.6462C114.924 35.7067 113.984 34.7673 112.808 34.7673Z" fill="#0E88D2"/>
<path d="M103.17 47.686H97.5283V47.2163C97.5283 45.1025 98.4686 43.9282 100.349 43.9282C102.465 43.9282 103.17 45.1025 103.17 47.2163V47.686ZM100.349 41.3447C95.8827 41.3447 94.0021 44.3979 94.0021 47.9209V50.7392C94.0021 54.0273 95.6476 57.0806 100.349 57.0806C101.525 57.0806 103.17 57.0806 104.11 56.6108C105.286 56.1411 105.991 55.6714 105.991 54.7319C105.991 54.0273 105.521 53.5576 104.581 53.5576C104.11 53.5576 103.64 53.7925 103.17 54.0273C102.465 54.2622 101.76 54.4971 100.584 54.4971C98.4686 54.4971 97.5283 53.0879 97.5283 50.9741V50.2695H105.286C105.991 50.2695 106.461 49.7998 106.461 49.0952V47.686C106.461 44.1631 104.816 41.3447 100.349 41.3447Z" fill="#0E88D2"/>
<path d="M89.7703 41.3447C88.5949 41.3447 86.7143 41.5796 85.5389 43.2236C85.0687 42.2842 83.8933 41.5796 82.953 41.5796C81.7776 41.5796 81.0724 41.8144 81.0724 42.9887C81.0724 43.2236 81.3075 43.6933 81.5425 43.9282C82.2478 44.3979 82.4829 44.6328 82.4829 45.8071V55.4365C82.4829 56.376 83.4232 57.0806 84.3635 57.0806C85.3038 57.0806 86.0091 56.376 86.0091 55.4365V46.7466C86.4792 44.8677 87.6546 44.3979 89.0651 44.3979C90.0054 44.3979 90.2405 44.6328 90.7106 44.6328C91.886 44.6328 92.3562 43.9282 92.3562 42.9887C92.3562 41.8144 90.9457 41.3447 89.7703 41.3447Z" fill="#0E88D2"/>
<path d="M203.401 28.8964C204.107 29.3661 204.812 29.6011 205.282 29.6011C206.222 29.6011 206.928 29.1313 206.928 28.1918C206.928 27.7221 206.693 27.4873 206.457 27.2524C205.987 26.7827 205.517 26.5478 205.517 25.3735V9.16794C205.517 8.22848 204.812 7.52384 203.872 7.52384C202.931 7.52384 201.991 8.22848 201.991 9.16794V25.8432C201.991 27.2524 202.696 28.4267 203.401 28.8964Z" fill="#0E88D2"/>
<path d="M187.886 28.8964C188.826 29.3661 190.237 29.6011 192.117 29.6011C195.408 29.6011 198.229 28.1919 198.229 24.6689C198.229 21.6157 196.114 20.6762 193.998 20.4413C192.117 19.9716 190.237 19.7368 190.237 18.0927C190.237 17.1533 190.942 16.4486 192.587 16.4486C193.763 16.4486 194.468 16.6835 195.643 17.1532C196.349 17.3881 197.289 16.9184 197.524 16.2138C197.759 15.5092 197.524 14.5697 196.584 14.3348C195.408 13.8651 194.233 13.6303 192.587 13.6303C189.531 13.6303 186.946 15.2744 186.946 18.3276C186.946 21.3808 188.826 22.3202 190.707 22.7899C192.823 23.2597 195.173 23.2597 195.173 24.9038C195.173 26.0781 194.233 26.7827 192.117 26.7827C190.707 26.7827 189.766 26.5477 188.826 26.3129C188.121 26.078 187.181 26.313 186.946 27.0176C186.71 27.7222 187.181 28.6615 187.886 28.8964Z" fill="#0E88D2"/>
<path d="M182.48 27.957V19.267C182.48 15.9789 181.304 13.6303 177.543 13.6303C175.427 13.6303 173.782 14.3349 172.841 15.5092C172.606 15.0395 172.371 14.8046 172.136 14.5697C171.666 14.1 170.961 13.8651 170.255 13.8651C169.315 13.8651 168.61 14.3349 168.61 15.2744C168.61 15.7441 168.845 16.2138 169.08 16.4486C169.785 16.6835 170.02 16.9184 170.02 18.0927V27.957C170.02 28.8964 170.961 29.6011 171.901 29.6011C172.841 29.6011 173.547 28.8964 173.547 27.957V18.5625C174.017 17.623 175.192 16.9184 176.603 16.9184C178.718 16.9184 179.188 18.0927 179.188 19.7367V27.957C179.188 28.8964 179.894 29.6011 180.834 29.6011C181.774 29.6011 182.48 28.8964 182.48 27.957Z" fill="#0E88D2"/>
<path d="M163.202 13.6303C162.262 13.6303 161.557 14.5698 161.557 15.5092V27.957C161.557 28.8964 162.262 29.6011 163.202 29.6011C164.143 29.6011 164.848 28.8964 164.848 27.957V15.5092C164.848 14.5698 164.143 13.6303 163.202 13.6303Z" fill="#0E88D2"/>
<path d="M163.203 7.28958C162.028 7.28958 161.322 7.99421 161.322 9.16853C161.322 10.3428 162.028 11.0474 163.203 11.0474C164.378 11.0474 165.319 10.3428 165.319 9.16853C165.319 7.99421 164.378 7.28958 163.203 7.28958Z" fill="#0E88D2"/>
<path d="M157.326 27.2524C156.621 26.7827 156.385 26.5478 156.385 25.3735V15.5092C156.385 14.5698 155.445 13.6303 154.505 13.6303C153.565 13.6303 152.859 14.5698 152.859 15.5092V24.6689C152.389 25.8432 151.214 26.3129 149.803 26.3129C147.688 26.3129 147.217 25.3735 147.217 23.7295V15.5092C147.217 14.5698 146.512 13.6303 145.572 13.6303C144.632 13.6303 143.926 14.5698 143.926 15.5092V23.9643C143.926 27.2524 145.102 29.6011 148.863 29.6011C150.979 29.6011 152.389 28.8964 153.564 27.957C153.8 28.4267 154.035 28.6615 154.27 28.8964C154.74 29.3661 155.445 29.6011 156.15 29.6011C157.091 29.6011 157.796 29.1313 157.796 28.1918C157.796 27.7221 157.561 27.4873 157.326 27.2524Z" fill="#0E88D2"/>
<path d="M135.463 24.434C135.463 26.313 134.288 27.2524 132.407 27.2524C130.526 27.2524 129.821 26.3129 129.821 25.1386V24.9038C129.821 23.7294 130.526 22.7899 132.642 22.7899H135.463V24.434ZM139.695 27.2524C138.989 26.7827 138.754 26.5478 138.754 25.3735V19.9716C138.754 15.744 137.344 13.6303 132.877 13.6303C131.702 13.6303 130.291 13.8651 129.116 14.3348C128.176 14.8046 127.47 15.2743 127.47 15.9789C127.47 16.6835 128.176 17.3881 128.881 17.3881C129.351 17.3881 129.821 17.1532 130.291 16.9184C130.997 16.6835 131.702 16.4486 132.642 16.4486C134.758 16.4486 135.463 17.623 135.463 19.7367V20.2064H132.172C128.411 20.2064 126.53 22.0854 126.53 24.6689V24.9038C126.53 27.7221 128.176 29.6011 131.937 29.6011C133.112 29.6011 134.993 29.3661 136.168 28.1918C136.403 28.6616 136.639 28.8964 136.874 29.1312C137.344 29.3661 137.814 29.6011 138.519 29.6011C139.46 29.6011 140.165 29.1313 140.165 28.1918C140.165 27.7221 139.93 27.4873 139.695 27.2524Z" fill="#0E88D2"/>
<path d="M88.2129 20.4414C86.0972 19.9717 84.2166 19.7368 84.2166 18.0928C84.2166 17.1533 85.1569 16.4487 86.8024 16.4487C87.9778 16.4487 88.6831 16.6836 89.8585 17.1533C90.5637 17.3882 91.269 16.9184 91.504 16.2138C91.7391 15.5093 91.504 14.5698 90.5637 14.3349C89.6234 13.8652 88.448 13.6303 86.5674 13.6303C83.5113 13.6303 81.1605 15.2744 81.1605 18.3276C81.1605 21.3808 83.0412 22.3203 84.9218 22.79C87.0375 23.2598 89.1532 23.2598 89.1532 24.9038C89.1532 26.0781 88.2129 26.7827 86.3323 26.7827C84.6867 26.7827 83.9815 26.5478 83.0412 26.313C82.3359 26.0781 81.3956 26.313 81.1605 27.0176C80.9255 27.7222 81.1605 28.6616 81.8658 28.8965C83.0412 29.3662 84.2166 29.6011 86.3323 29.6011C89.6234 29.6011 92.4444 28.1919 92.4444 24.6689C92.4444 21.6157 90.0936 20.6763 88.2129 20.4414Z" fill="#0E88D2"/>
<path d="M102.318 16.4486C103.258 16.4486 104.198 16.6835 104.904 17.1532C105.374 17.3881 106.314 17.1532 106.549 16.4486C106.784 15.5092 106.549 15.0394 105.844 14.5697C104.904 13.8651 103.258 13.6303 102.083 13.6303C97.8512 13.6303 95.7355 16.9184 95.7355 20.6763V22.7899C95.7355 26.7826 97.6161 29.6011 102.083 29.6011C103.258 29.6011 104.668 29.3661 105.844 28.6615C106.549 28.4267 106.784 27.7222 106.549 27.0176C106.314 26.313 105.609 25.8432 104.904 26.3129C103.963 26.7826 103.023 26.7827 102.318 26.7827C100.202 26.7827 99.2616 25.3734 99.2616 23.0248V20.4413C99.2616 18.0927 100.437 16.4486 102.318 16.4486Z" fill="#0E88D2"/>
<path d="M117.598 13.6303C115.953 13.6303 114.542 14.1001 113.602 15.0395V9.16794C113.602 8.22848 112.897 7.52384 111.956 7.52384C111.016 7.52384 110.311 8.22848 110.311 9.16794V27.957C110.311 28.8964 111.016 29.6011 111.956 29.6011C112.897 29.6011 113.602 28.8964 113.602 27.957V18.5625C114.307 17.623 115.247 16.9184 116.658 16.9184C118.774 16.9184 119.244 18.0927 119.244 19.7367V27.957C119.244 28.8964 119.949 29.6011 120.889 29.6011C121.83 29.6011 122.77 28.8964 122.77 27.957V19.267C122.77 15.9789 121.359 13.6303 117.598 13.6303Z" fill="#0E88D2"/>
<path d="M218.682 24.434C218.682 26.313 217.506 27.2524 215.861 27.2524C213.745 27.2524 213.04 26.3129 213.04 25.1386V24.9038C213.04 23.7294 213.745 22.7899 215.861 22.7899H218.682V24.434ZM222.913 27.2524C222.208 26.7827 221.973 26.5478 221.973 25.3735V19.9716C221.973 15.744 220.562 13.6303 216.096 13.6303C215.156 13.6303 213.51 13.8651 212.335 14.3348C211.394 14.8046 210.689 15.2743 210.689 15.9789C210.689 16.6835 211.394 17.3881 212.099 17.3881C212.57 17.3881 213.04 17.1532 213.745 16.9184C214.215 16.6835 214.92 16.4486 215.861 16.4486C217.976 16.4486 218.682 17.623 218.682 19.7367V20.2064H215.391C211.629 20.2064 209.749 22.0854 209.749 24.6689V24.9038C209.749 27.7221 211.394 29.6011 215.156 29.6011C216.566 29.6011 218.212 29.3661 219.387 28.1918C219.622 28.6616 219.857 28.8964 220.092 29.1312C220.562 29.3661 221.268 29.6011 221.738 29.6011C222.678 29.6011 223.383 29.1313 223.383 28.1918C223.383 27.7221 223.148 27.4873 222.913 27.2524Z" fill="#0E88D2"/>
<path d="M233.962 13.6303C232.081 13.6303 230.435 14.3349 229.495 15.5092C229.26 15.0395 229.025 14.8046 228.79 14.5697C228.085 14.1 227.379 13.8651 226.909 13.8651C225.969 13.8651 225.264 14.3349 225.264 15.2744C225.264 15.7441 225.499 16.2138 225.734 16.4486C226.204 16.6835 226.674 16.9184 226.674 18.0927V27.957C226.674 28.8964 227.379 29.6011 228.32 29.6011C229.26 29.6011 230.2 28.8964 230.2 27.957V18.5625C230.67 17.623 231.846 16.9184 233.256 16.9184C235.372 16.9184 235.607 18.0927 235.607 19.7367V27.957C235.607 28.8964 236.547 29.6011 237.488 29.6011C238.428 29.6011 239.133 28.8964 239.133 27.957V19.267C239.133 15.9789 237.958 13.6303 233.962 13.6303Z" fill="#0E88D2"/>
<path d="M252.298 25.6084C251.358 26.313 250.417 26.7827 249.712 26.7827C247.596 26.7827 246.891 25.6084 246.891 23.4946V20.2065C246.891 17.8579 247.596 16.6836 249.712 16.6836C250.417 16.6836 251.593 16.9184 252.298 17.8579V25.6084ZM256.529 27.2524C256.059 26.7827 255.824 26.5478 255.824 25.3735V9.16794C255.824 8.22849 254.884 7.52389 253.944 7.52389C253.003 7.52389 252.298 8.22849 252.298 9.16794V14.8047C251.358 14.1001 249.947 13.6303 249.007 13.6303C244.775 13.6303 243.365 16.4487 243.365 20.6763V23.2598C243.365 27.4873 245.246 29.6011 249.242 29.6011C250.417 29.6011 252.063 29.1313 253.003 28.4268C253.238 28.6616 253.473 28.8965 253.708 28.8965C254.179 29.3662 254.884 29.6011 255.354 29.6011C256.294 29.6011 257 29.1313 257 28.1919C257 27.7222 256.765 27.4873 256.529 27.2524Z" fill="#0E88D2"/>
</svg>
