<svg width="267" height="64" viewBox="0 0 267 64" fill="none" xmlns="http://www.w3.org/2000/svg">
<g clip-path="url(#clip0_2025_897)">
<path d="M84.1447 12.3242H77.1428V50.049H84.1447V12.3242Z" fill="black"/>
<path d="M105.702 20.939C101.495 20.939 97.9873 22.3367 95.7833 24.9843V21.2615H89.3727V50.049H96.1057V35.4941C96.1057 29.7285 99.3447 26.812 104.143 26.812C108.457 26.812 110.983 29.285 110.983 34.4189V50.049H117.716V33.5586C117.73 24.8768 112.609 20.939 105.702 20.939Z" fill="black"/>
<path d="M134.704 44.8748C132.11 44.8748 130.713 43.3698 130.713 40.561V26.866H138.427V21.4767H130.713V14.5688H123.979V21.4767H119.235V26.866H123.979V40.722C123.979 47.0791 127.594 50.4255 133.898 50.4255C136.33 50.4255 138.749 49.7804 140.362 48.49L138.481 43.6922C137.459 44.4986 136.115 44.8748 134.704 44.8748Z" fill="black"/>
<path d="M149.098 25.4681V21.2615H142.687V50.049H149.42V36.0853C149.42 30.2122 152.659 27.1882 157.78 27.1882C158.264 27.1882 158.747 27.2421 159.339 27.3496V20.939C154.541 20.939 151.047 22.4442 149.098 25.4681Z" fill="black"/>
<path d="M174.606 20.939C166.032 20.939 159.728 27.0808 159.728 35.6552C159.728 44.2295 165.978 50.4253 175.627 50.4253C180.587 50.4253 184.632 48.8125 187.212 45.7349L183.597 41.5821C181.554 43.6786 179.014 44.7136 175.775 44.7136C170.762 44.7136 167.255 42.0122 166.448 37.8189H189.04C189.094 37.1738 189.148 36.3674 189.148 35.8298C189.148 26.812 183.006 20.939 174.606 20.939ZM166.408 33.3437C167.053 29.137 170.238 26.3417 174.606 26.3417C179.028 26.3417 182.213 29.2042 182.75 33.3437H166.408Z" fill="black"/>
<path d="M208.353 20.939C204.415 20.939 201.069 22.2829 198.811 25.038V21.2615H192.4V60.5047H199.133V46.5413C201.445 49.1888 204.684 50.4253 208.353 50.4253C216.766 50.4253 222.961 44.6058 222.961 35.6552C222.961 26.7584 216.752 20.939 208.353 20.939ZM207.587 44.6597C202.735 44.6597 199.012 41.152 199.012 35.6552C199.012 30.1584 202.735 26.6508 207.587 26.6508C212.438 26.6508 216.107 30.1584 216.107 35.6552C216.107 41.152 212.438 44.6597 207.587 44.6597Z" fill="black"/>
<path d="M229.533 8.76318C227.06 8.76318 225.219 10.5372 225.219 12.8085C225.219 15.0663 227.047 16.8538 229.533 16.8538C232.06 16.8538 233.847 15.026 233.847 12.6472C233.847 10.4297 232.02 8.76318 229.533 8.76318Z" fill="black"/>
<path d="M232.866 21.2617H226.133V50.0492H232.866V21.2617Z" fill="black"/>
<path d="M259.934 10.0532V24.8233C257.676 22.1757 254.383 20.9392 250.66 20.9392C242.301 20.9392 236.105 26.7047 236.105 35.6554C236.105 44.6061 242.301 50.4255 250.66 50.4255C254.598 50.4255 257.931 49.0815 260.202 46.3263V50.0493H266.667V10.0532H259.934ZM251.48 44.6599C246.628 44.6599 242.906 41.1522 242.906 35.6554C242.906 30.1586 246.628 26.651 251.48 26.651C256.332 26.651 260.054 30.1586 260.054 35.6554C260.041 41.1522 256.318 44.6599 251.48 44.6599Z" fill="black"/>
<path d="M55.1288 11.1279C55.5053 13.5336 55.7741 15.8855 55.9891 17.9686C56.0024 18.0493 56.0293 18.1299 56.0696 18.2105C58.2333 22.2289 59.3893 26.7445 59.3893 31.4349C59.3893 33.5987 59.1475 35.7357 58.6635 37.792C58.0317 36.6899 57.2256 35.7088 56.2579 34.8891V32.6848C56.2579 31.9861 55.6933 31.4216 54.9944 31.4216H53.9461C53.7715 31.4216 53.6371 31.2872 53.6371 31.1125V28.8144H54.3763C54.7259 28.8144 55.008 28.532 55.008 28.1827V25.9786C55.008 25.6291 54.7259 25.3469 54.3763 25.3469H53.6237C53.4757 20.6028 52.4141 7.92931 49.4843 0.322557C49.4037 0.107526 49.108 0.107526 49.0275 0.322557C46.0976 7.92931 45.0357 20.6028 44.9013 25.3603H44.1488C43.7995 25.3603 43.5171 25.6426 43.5171 25.992V28.196C43.5171 28.5456 43.7995 28.8277 44.1488 28.8277H44.888V31.1259C44.888 31.3005 44.7536 31.4349 44.5789 31.4349H43.5307C42.8317 31.4349 42.2672 31.9995 42.2672 32.6984V34.9024C39.9288 36.8915 38.4504 39.8347 38.4504 43.1408V46.5947H37.3083C36.9587 46.5947 36.6765 46.8771 36.6765 47.2264V49.7397C36.6765 49.9144 36.5421 50.0488 36.3675 50.0488H33.5048C33.3301 50.0488 33.1957 49.9144 33.1957 49.7397V36.3941C35.1309 35.7088 36.5555 33.9213 36.6899 31.7709C36.7035 31.5963 36.5555 31.4485 36.3808 31.4485H33.5181C33.3435 31.4485 33.2091 31.3141 33.2091 31.1395C33.2091 26.3683 33.1688 16.8128 31.6904 12.2971C31.6232 12.0687 31.3008 12.0687 31.22 12.2971C29.7416 16.8128 29.7013 26.3683 29.7013 31.1395C29.7013 31.3141 29.5669 31.4485 29.3923 31.4485H26.5297C26.3549 31.4485 26.2071 31.5963 26.2206 31.7709C26.355 33.9213 27.7661 35.7088 29.7149 36.3941V49.7397C29.7149 49.9144 29.5805 50.0488 29.4056 50.0488H26.5431C26.3684 50.0488 26.234 49.9144 26.234 49.7397V47.2264C26.234 46.8771 25.9518 46.5947 25.6023 46.5947H24.46V43.3963C24.46 43.2213 24.4331 43.0603 24.3659 42.8989C22.35 38.1952 17.673 34.8891 12.23 34.8891C9.21957 34.8891 6.4376 35.8968 4.22008 37.6037C3.70939 35.3325 3.48091 32.9939 3.54811 30.6019C3.74971 23.7342 6.49136 17.1488 11.2355 12.1762C16.6516 6.49128 24.0165 3.40021 31.8517 3.49427C36.0448 3.54803 40.1573 4.556 43.8667 6.3972C44.0547 6.49128 44.2832 6.38376 44.3235 6.18219C44.5251 5.20109 44.7536 4.24688 44.9955 3.30613C45.0357 3.17173 44.9685 3.02389 44.8341 2.97013C40.7485 1.07517 36.2331 9.52822e-06 31.4619 9.52822e-06C14.1384 -0.01343 -0.0402328 14.1921 8.57755e-05 31.5291C0.0538437 49.1885 14.6626 63.4211 32.4699 62.8565C49.1349 62.3189 62.5877 48.6645 62.8701 31.9861C63.0045 23.9761 60.1552 16.6515 55.344 11.0204C55.2632 10.9263 55.1021 11.007 55.1288 11.1279Z" fill="black"/>
</g>
<defs>
<clipPath id="clip0_2025_897">
<rect width="266.667" height="64" fill="white"/>
</clipPath>
</defs>
</svg>
