<svg width="64" height="64" viewBox="0 0 64 64" fill="none" xmlns="http://www.w3.org/2000/svg">
<g clip-path="url(#clip0_2025_919)">
<path d="M56.1155 11.3271C56.4988 13.7758 56.7724 16.1698 56.9911 18.2902C57.0047 18.3723 57.0321 18.4544 57.0731 18.5365C59.2756 22.6268 60.4523 27.2232 60.4523 31.9975C60.4523 34.2 60.2061 36.3753 59.7134 38.4684C59.0704 37.3465 58.2498 36.3479 57.2648 35.5135V33.2698C57.2648 32.5586 56.6901 31.984 55.9787 31.984H54.9116C54.7339 31.984 54.597 31.8472 54.597 31.6694V29.3301H55.3495C55.7053 29.3301 55.9925 29.0427 55.9925 28.6871V26.4435C55.9925 26.0879 55.7053 25.8006 55.3495 25.8006H54.5835C54.4328 20.9715 53.3522 8.07122 50.3699 0.32833C50.288 0.10945 49.9869 0.10945 49.9049 0.32833C46.9226 8.07122 45.8418 20.9715 45.705 25.8142H44.939C44.5834 25.8142 44.2959 26.1015 44.2959 26.4572V28.7006C44.2959 29.0565 44.5834 29.3437 44.939 29.3437H45.6914V31.683C45.6914 31.8607 45.5546 31.9975 45.3768 31.9975H44.3098C43.5983 31.9975 43.0237 32.5722 43.0237 33.2836V35.5271C40.6434 37.5517 39.1386 40.5476 39.1386 43.9129V47.4286H37.976C37.6201 47.4286 37.333 47.7161 37.333 48.0716V50.63C37.333 50.8078 37.1962 50.9446 37.0184 50.9446H34.1045C33.9267 50.9446 33.7899 50.8078 33.7899 50.63V37.0455C35.7597 36.3479 37.2097 34.5284 37.3465 32.3396C37.3604 32.1618 37.2097 32.0114 37.0319 32.0114H34.118C33.9402 32.0114 33.8034 31.8746 33.8034 31.6968C33.8034 26.8403 33.7624 17.1137 32.2576 12.5172C32.1892 12.2847 31.861 12.2847 31.7788 12.5172C30.2739 17.1137 30.2329 26.8403 30.2329 31.6968C30.2329 31.8746 30.0961 32.0114 29.9183 32.0114H27.0045C26.8266 32.0114 26.6762 32.1618 26.6899 32.3396C26.8267 34.5284 28.2631 36.3479 30.2468 37.0455V50.63C30.2468 50.8078 30.11 50.9446 29.9319 50.9446H27.0182C26.8403 50.9446 26.7035 50.8078 26.7035 50.63V48.0716C26.7035 47.7161 26.4162 47.4286 26.0605 47.4286H24.8978V44.173C24.8978 43.9949 24.8704 43.8309 24.802 43.6667C22.75 38.8788 17.9893 35.5135 12.4489 35.5135C9.38458 35.5135 6.55282 36.5393 4.29561 38.2768C3.77578 35.9649 3.54321 33.5844 3.61161 31.1496C3.81682 24.1589 6.60754 17.4557 11.4366 12.3941C16.9497 6.60746 24.4463 3.46107 32.4218 3.55681C36.6899 3.61153 40.8761 4.63754 44.6518 6.5117C44.8431 6.60746 45.0758 6.49802 45.1168 6.29283C45.322 5.29418 45.5546 4.32289 45.8008 3.36531C45.8418 3.2285 45.7734 3.07801 45.6366 3.02329C41.4778 1.09441 36.8816 9.69876e-06 32.025 9.69876e-06C14.3915 -0.0136703 -0.0409529 14.4461 8.73107e-05 32.0934C0.0548074 50.0689 14.925 64.5562 33.051 63.9815C50.0143 63.4343 63.7079 49.5355 63.9954 32.5586C64.1322 24.4052 61.2318 16.9496 56.3345 11.2176C56.2523 11.1219 56.0883 11.204 56.1155 11.3271Z" fill="#FF2828"/>
</g>
<defs>
<clipPath id="clip0_2025_919">
<rect width="64" height="64" fill="white"/>
</clipPath>
</defs>
</svg>
