<svg width="386" height="64" viewBox="0 0 386 64" fill="none" xmlns="http://www.w3.org/2000/svg">
<g clip-path="url(#clip0_2023_2)">
<path d="M151.084 5.86939C151.084 2.62453 153.703 0 156.927 0C160.162 0 162.791 2.62453 162.791 5.86939C162.791 9.11006 160.162 11.7374 156.927 11.7374C153.703 11.7374 151.084 9.11006 151.084 5.86939Z" fill="#273B7D"/>
<path d="M243.452 44.9087C243.452 41.6625 246.069 39.0352 249.293 39.0352C252.527 39.0352 255.156 41.6625 255.156 44.9087C255.156 48.1466 252.527 50.7767 249.293 50.7767C246.069 50.7767 243.452 48.1466 243.452 44.9087Z" fill="#499FDD"/>
<path d="M55.004 42.3719C49.9621 42.3719 46.4584 38.3677 46.4584 32.6457C46.4584 26.9251 49.9621 22.9236 55.004 22.9236C60.0748 22.9236 63.6172 26.9251 63.6172 32.6457C63.6172 38.458 60.1486 42.3719 55.004 42.3719ZM55.004 14.3755C44.3372 14.3755 36.5961 22.0613 36.5961 32.6457C36.5961 43.2301 44.3372 50.9145 55.004 50.9145C65.7107 50.9145 73.4841 43.2301 73.4841 32.6457C73.4841 22.0613 65.7107 14.3755 55.004 14.3755Z" fill="#273B7D"/>
<path d="M139.746 33.5601C139.331 32.7798 138.856 32.1192 138.349 31.5948L138.027 31.2527L138.366 30.9272C138.856 30.4112 139.356 29.7992 139.839 29.0899L149.252 15.0966H137.825L130.752 26.0425C130.352 26.6295 129.544 26.9258 128.334 26.9258H126.722V6.23127C126.722 2.0921 124.143 1.52881 121.357 1.52881H116.588L116.596 50.3769H126.722V35.7243H127.67C128.824 35.7243 129.611 35.8578 129.971 36.4851L135.557 47.0277C137.117 49.8887 138.672 50.3769 141.597 50.3769H149.356L143.577 40.8176L139.746 33.5601Z" fill="#273B7D"/>
<path d="M188.901 14.2979C183.751 14.2979 180.464 16.5858 178.623 18.5205L178.008 19.1422L177.791 18.2966C177.25 16.2242 175.426 15.0837 172.682 15.0837H168.144L168.173 50.364H178.229V34.1036C178.229 32.5138 178.436 31.1341 178.856 29.8754C179.976 26.0658 183.098 23.6972 187.001 23.6972C190.14 23.6972 191.367 25.3537 191.367 29.6348V45.0009C191.367 48.6547 193.057 50.364 196.713 50.364H201.499L201.483 27.9254C201.483 19.0101 197.135 14.2979 188.904 14.2979" fill="#273B7D"/>
<path d="M157.061 15.0991H152.294L152.326 42.3779H152.323V50.3725H157.411C157.475 50.3725 157.527 50.3794 157.591 50.3794L159.961 50.3725H162.319V50.3586H162.336L162.356 20.4553C162.356 16.8475 160.631 15.0992 157.064 15.0992" fill="#273B7D"/>
<path d="M94.5053 42.3719C89.4639 42.3719 85.9533 38.3677 85.9533 32.6457C85.9533 26.9251 89.4639 22.9236 94.5053 22.9236C99.5656 22.9236 103.118 26.9251 103.118 32.6457C103.118 38.458 99.6504 42.3719 94.5053 42.3719ZM94.5053 14.3755C83.828 14.3755 76.0852 22.0613 76.0852 32.6457C76.0852 43.2301 83.828 50.9145 94.5053 50.9145C105.201 50.9145 112.987 43.2301 112.987 32.6457C112.987 22.0613 105.201 14.3755 94.5053 14.3755Z" fill="#273B7D"/>
<path d="M310.068 42.3719C305.029 42.3719 301.516 38.3677 301.516 32.6457C301.516 26.9251 305.029 22.9236 310.068 22.9236C315.129 22.9236 318.683 26.9251 318.683 32.6457C318.683 38.458 315.214 42.3719 310.068 42.3719ZM310.068 14.3755C299.393 14.3755 291.65 22.0613 291.65 32.6457C291.65 43.2301 299.393 50.9145 310.068 50.9145C320.765 50.9145 328.549 43.2301 328.549 32.6457C328.549 22.0613 320.765 14.3755 310.068 14.3755Z" fill="#499FDD"/>
<path d="M222.688 40.8201C217.189 40.8201 215.233 36.0231 215.233 31.5279C215.233 29.5473 215.733 23.0923 222.159 23.0923C225.353 23.0923 229.608 24.0075 229.608 31.8603C229.608 39.2665 225.842 40.8201 222.688 40.8201ZM234.83 15.0046C232.921 15.0046 231.453 15.7653 230.717 17.1548L230.439 17.6944L229.973 17.2897C228.35 15.885 225.439 14.2188 220.713 14.2188C211.309 14.2188 204.978 21.2815 204.978 31.7921C204.978 42.2903 211.529 49.627 220.902 49.627C224.103 49.627 226.634 48.8801 228.639 47.3613L229.415 46.7785V47.7591C229.415 52.4713 226.368 55.0708 220.844 55.0708C218.159 55.0708 215.715 54.4171 214.081 53.8246C211.947 53.1806 210.697 53.7133 209.832 55.8538L209.034 57.8288L207.904 60.7135L208.604 61.0862C212.139 62.9625 216.742 64.0821 220.902 64.0821C229.467 64.0821 239.467 59.6982 239.467 47.3613L239.503 15.0046H234.831" fill="#273B7D"/>
<path d="M17.551 41.9676L9.36459 41.9595V32.1721C9.36459 30.0802 10.1755 28.9926 11.9681 28.7422H17.551C21.5357 28.7422 24.1102 31.2555 24.1131 35.3209C24.1102 39.4935 21.5997 41.9649 17.551 41.9676ZM9.36459 15.5651V12.9892C9.36459 10.7347 10.3186 9.66233 12.4121 9.52461H16.601C20.1936 9.52461 22.3454 11.6749 22.3454 15.2716C22.3454 18.0144 20.8724 21.2147 16.7331 21.2147H9.36459V15.5651ZM28.0061 25.333L26.5262 24.5013L27.8182 23.397C29.3205 22.1049 31.8392 19.2008 31.8392 14.1826C31.8392 6.50507 25.8837 1.54947 16.6663 1.54947H6.14752V1.54639H4.94973C2.217 1.64656 0.0305765 3.8691 0 6.61882V50.1984H4.82743C4.83966 50.2015 4.84374 50.1984 4.84781 50.2015L16.8742 50.1984C27.1206 50.1984 33.7341 44.621 33.7341 35.9825C33.7341 31.3315 31.5966 27.355 28.0041 25.3327" fill="#273B7D"/>
<path d="M373.473 14.4121C369.3 14.4121 365.267 16.3662 362.677 19.6431L361.948 20.5666L361.376 19.5332C359.514 16.1367 356.308 14.4121 351.85 14.4121C347.176 14.4121 344.041 17.0199 342.584 18.5707L341.632 19.6028L341.265 18.2453C340.733 16.2911 338.994 15.2146 336.358 15.2146H332.131L332.09 50.3586H341.694V34.8451C341.694 33.4862 341.862 32.1413 342.203 30.7351C343.121 26.9868 345.64 22.9547 349.875 23.358C352.487 23.6084 353.762 25.6265 353.762 29.5251V50.3586H363.434V34.8451C363.434 33.1469 363.593 31.8756 363.976 30.6002C364.755 27.0216 367.385 23.3525 371.471 23.3525C374.428 23.3525 375.521 25.0271 375.521 29.5251V45.2208C375.521 48.7717 377.105 50.3586 380.653 50.3586H385.174L385.182 27.9228C385.182 18.9602 381.236 14.4121 373.471 14.4121" fill="#499FDD"/>
<path d="M286.09 38.1569C286.061 38.1915 281.928 42.5492 276.487 42.5492C271.53 42.5492 266.522 39.5074 266.522 32.7172C266.522 26.8548 270.405 22.7573 275.963 22.7573C277.768 22.7573 279.821 23.4041 280.142 24.4917L280.19 24.6754C280.929 27.1413 283.171 27.2735 283.611 27.2735L288.873 27.2789V22.6793C288.873 16.6125 281.156 14.4121 275.963 14.4121C264.858 14.4121 256.801 22.1438 256.801 32.7908C256.801 43.4336 264.771 51.1542 275.76 51.1542C285.294 51.1542 290.479 44.8871 290.528 44.8244L290.804 44.4851L286.638 37.5726L286.09 38.1569Z" fill="#499FDD"/>
</g>
<defs>
<clipPath id="clip0_2023_2">
<rect width="385.182" height="64" fill="white"/>
</clipPath>
</defs>
</svg>
