<svg width="266" height="82" viewBox="0 0 266 82" fill="none" xmlns="http://www.w3.org/2000/svg">
<path d="M50.8799 61.0766C47.3315 61.2233 43.7861 60.7226 40.4172 59.5988L41.5551 54.6334C44.4023 55.493 47.3467 55.9896 50.3183 56.1112C54.8699 56.1112 58.8451 55.0916 58.8451 49.7272C58.8451 44.6584 54.8699 42.2053 48.0426 41.7472V37.4764C53.3921 37.0774 57.0866 34.2844 57.0866 29.9989C57.0866 26.068 54.2936 24.5902 50.7173 24.5902C48.3647 24.5154 46.0202 24.9019 43.8161 25.7281L42.0576 21.6199C44.8716 20.1244 48.0366 19.4148 51.2198 19.5658C57.6481 19.5658 62.7169 22.5213 62.7169 29.0383C62.7037 31.1496 62.0763 33.2115 60.9111 34.9722C59.746 36.733 58.0936 38.1166 56.1556 38.9542C57.9732 39.634 64.7414 42.1462 64.7414 49.4464C64.7562 58.5052 58.3279 61.0766 50.8799 61.0766ZM24.3981 20.1421H15.7531L0 60.4411H5.91111L11.3789 46.1953L13.1374 41.629L17.29 30.457L19.7431 23.7331L21.8416 30.457L25.536 41.629H17.4526L15.8713 46.1953H27.132L31.9791 60.4411H38.2301L24.3981 20.1421ZM104.198 20.1421L92.7158 43.5944L82.5339 20.1421H73.8889V60.4411H79.8V33.25L79.401 27.8413L89.3317 50.407H95.3462L106.592 28.0778L106.311 33.9002V60.5002H112.222V20.1421H104.198ZM169.058 80.5389C152.403 67.9778 138.911 51.8109 138.911 40.3138C138.911 28.8167 152.374 12.5611 169.058 0C149.595 11.0833 132.379 28.5802 132.379 40.3138C132.379 52.0473 149.625 69.4556 169.058 80.5389ZM266 40.3138C266 28.5802 248.799 11.0981 229.322 0C246.02 12.5611 259.483 28.8167 259.483 40.3138C259.483 51.8109 245.976 67.9778 229.322 80.5389C248.769 69.4556 266 52.0326 266 40.3138ZM163.294 55.5349C162.651 55.5097 162.009 55.4455 161.373 55.3428C162.376 57.9871 163.665 60.5143 165.216 62.8794C167.905 63.84 172.826 64.6084 181.471 63.4853C180.095 60.6616 178.871 57.7659 177.806 54.8108C173.009 55.5686 168.144 55.8113 163.294 55.5349ZM179.343 39.9887C179.757 42.9442 180.333 46.2249 181.131 49.6977C188.011 48.4001 194.799 46.6525 201.451 44.4663C201.791 44.3629 224.031 38.0528 236.119 25.1518C235.029 22.6791 233.692 20.3225 232.129 18.1176C223.41 26.7478 202.751 33.4421 197.608 35.0233C191.608 36.987 185.512 38.6443 179.343 39.9887ZM169.427 68.2881C175.616 74.982 183.886 79.3877 192.894 80.7901C189.286 76.8243 186.184 72.4263 183.658 67.697C179.331 68.3933 174.942 68.6261 170.565 68.3916L169.427 68.2881ZM158.758 41.496C158.771 44.5216 159.127 47.536 159.822 50.4809C165.427 51.3676 171.137 51.3676 176.742 50.4809C175.974 47.0672 175.397 43.89 174.984 40.9049C170.491 41.7609 165.913 42.0882 161.344 41.8802L158.758 41.496ZM208.086 61.712C201.624 63.8312 195.041 65.5633 188.372 66.899C191.347 72.4105 195.362 77.2934 200.195 81.2778C210.143 81.0651 219.66 77.1695 226.902 70.345C234.144 63.5204 238.597 54.252 239.4 44.3333C230.74 53.7616 210.879 60.7662 208.086 61.712ZM174.481 36.3386C173.166 21.4278 176.284 11.8222 180.289 5.79289C174.445 8.82529 169.442 13.2568 165.726 18.6922C162.011 24.1277 159.698 30.3981 158.994 36.9444C161.846 37.506 166.605 37.6833 174.481 36.3386ZM178.915 35.4814C183.732 34.447 189.481 32.9249 196.382 30.7082C208.027 27.1468 223.706 20.4672 229.455 14.7039C224.574 9.28314 218.332 5.26669 211.376 3.071C204.42 0.875323 197.003 0.580348 189.894 2.21667C185.136 5.39389 177.053 14.0389 178.811 35.511L178.915 35.4814ZM239.297 36.1908C238.975 34.0268 238.481 31.892 237.819 29.8068C224.74 42.5452 203.83 48.4711 202.707 48.7962C196.022 50.9864 189.206 52.7534 182.299 54.0867C183.442 57.0608 184.744 59.9712 186.2 62.8056C193.181 61.524 200.061 59.7411 206.785 57.4708C231.095 49.2839 239.4 39.1611 239.223 36.2056L239.297 36.1908Z" fill="#0D3E67"/>
</svg>
