<svg width="64" height="64" viewBox="0 0 64 64" fill="none" xmlns="http://www.w3.org/2000/svg">
<g clip-path="url(#clip0_2001_1273)">
<rect width="64" height="64" rx="8" fill="#881467"/>
<path d="M39.9178 31.13H39.5301V30.1998L39.8662 30.1217C41.5995 29.7339 47.2388 27.8441 47.2388 19.5915C47.2388 12.1144 42.5826 8 34.1502 8H15.1128V55.6813H34.9005C46.0493 55.6813 48.4032 48.3088 48.4032 42.0995C48.4032 35.476 45.4804 31.6726 39.9443 31.1035M27.7607 16.9011H30.0365C33.0625 16.9011 34.5895 18.6347 34.5895 22.0239C34.5895 25.7492 32.2356 27.0951 30.2178 27.0951H27.7607V16.9011ZM30.579 46.7565H27.7858V34.8051H30.6571C33.6831 34.8051 35.3648 37.0297 35.3648 41.0911C35.3648 44.7383 33.6831 46.7579 30.6055 46.7579" fill="white"/>
</g>
<defs>
<clipPath id="clip0_2001_1273">
<rect width="64" height="64" rx="8" fill="white"/>
</clipPath>
</defs>
</svg>
