<svg width="185" height="64" viewBox="0 0 185 64" fill="none" xmlns="http://www.w3.org/2000/svg">
<path d="M17.5219 22.0754H17.248V21.4183L17.4854 21.3631C18.7098 21.0892 22.6933 19.7543 22.6933 13.9248C22.6933 8.6431 19.4043 5.73675 13.4477 5.73675H0V39.418H13.9777C21.8531 39.418 23.5158 34.2102 23.5158 29.8241C23.5158 25.1453 21.4512 22.4587 17.5406 22.0567M8.93429 12.0243H10.5419C12.6794 12.0243 13.758 13.249 13.758 15.643C13.758 18.2745 12.0953 19.2252 10.6699 19.2252H8.93429V12.0243ZM10.9251 33.1137H8.95202V24.6714H10.9802C13.1178 24.6714 14.3057 26.2428 14.3057 29.1118C14.3057 31.6881 13.1178 33.1147 10.9438 33.1147M35.3363 25.6764H45.6053V18.8045H35.3363V12.9022H46.3175V5.73773H26.401V39.419H46.7558V32.2556H35.3363V25.6764ZM59.6372 5.73773H49.8252V39.419H57.9015V18.2745H58.5408C58.5408 18.2745 63.73 38.9619 63.8393 39.419H73.5242V5.73773H65.1563V26.6813H64.517C64.517 26.6813 59.7475 6.19487 59.6372 5.73773ZM83.4632 39.419H92.3975V13.1948H98.9027V5.73773H76.9778V13.1938H83.4632V39.419ZM113.338 5.06287C101.37 5.06287 101.37 12.0243 101.37 22.5877C101.37 33.1511 101.37 40.0959 113.338 40.0959C125.307 40.0959 125.307 33.4989 125.307 22.5877C125.307 11.6785 125.307 5.06287 113.338 5.06287ZM113.338 34.3757C110.981 34.3757 110.597 32.7127 110.597 22.5877C110.597 12.4628 110.982 10.8007 113.338 10.8007C115.695 10.8007 116.08 12.445 116.08 22.5877C116.08 32.7304 115.695 34.3757 113.338 34.3757ZM139.886 34.3757C137.768 34.3757 137.383 32.8772 137.383 29.9344V5.73773H128.449V28.1059C128.449 37.0614 131.337 40.0949 139.886 40.0949C147.909 40.0949 151.325 36.5127 151.325 28.1059V5.73773H142.391V29.9344C142.391 32.8762 142.006 34.3757 139.886 34.3757ZM178.275 38.3776C178.002 37.8289 177.819 36.1471 177.819 34.2112V31.3778C177.819 29.2763 177.746 27.102 176.941 25.6576C176.118 24.1779 174.511 23.2271 172.648 23.0813H172.355V22.4045L172.628 22.368C176.227 21.8557 178.038 19.1701 178.038 14.4194C178.038 8.57021 175.06 5.73773 168.938 5.73773H154.924V39.419H163.858V25.9138H165.939C167.75 25.9138 168.881 26.5355 168.881 29.6783L169.027 34.7767C169.027 37.8841 169.356 38.9983 169.594 39.419H179.24C178.842 39.1816 178.515 38.8525 178.275 38.3776ZM165.558 20.1937H163.859V12.0243H165.266C167.167 12.0243 169.102 12.4815 169.102 15.844C169.102 19.4439 167.167 20.1937 165.542 20.1937" fill="black"/>
<path d="M180.396 3.49073H181.145C181.93 3.49073 182.168 3.27103 182.168 2.81389C182.168 2.41193 181.966 2.19222 181.254 2.19222H180.396V3.49073ZM180.396 5.82961H179.756V1.68188H181.346C182.331 1.68188 182.826 2.04641 182.826 2.86906C182.826 3.6188 182.351 3.92914 181.73 4.02077L182.917 5.84734H182.222L181.108 4.0385H180.396V5.84734" fill="black"/>
<path d="M181.254 6.98118C179.463 6.98118 178.02 5.53687 178.02 3.74674C178.02 1.95662 179.463 0.512308 181.254 0.512308C183.045 0.512308 184.471 1.95662 184.471 3.74674C184.471 5.53687 183.026 6.98118 181.254 6.98118ZM181.254 0C179.171 0 177.491 1.68175 177.491 3.74674C177.491 5.81174 179.171 7.49349 181.254 7.49349C183.337 7.49349 185 5.81174 185 3.74674C185 1.68175 183.319 0 181.254 0Z" fill="black"/>
<path d="M99.9262 63.7794H97.3503L99.9626 51.2968H105.5C106.45 51.2968 107.199 51.3885 107.728 51.5894C108.259 51.7904 108.697 52.1382 109.007 52.6682C109.336 53.1983 109.502 53.8199 109.502 54.5687C109.502 55.6288 109.19 56.5066 108.551 57.2012C107.911 57.8948 106.962 58.3154 105.663 58.48C105.992 58.7726 106.303 59.1568 106.596 59.6504C107.161 60.6189 107.801 62.008 108.514 63.7804H105.755C105.535 63.0671 105.097 61.9706 104.456 60.4908C104.11 59.6869 103.727 59.1381 103.326 58.8642C103.087 58.6997 102.648 58.6081 102.046 58.6081H101.003L99.9262 63.7794ZM101.406 56.744H102.778C104.165 56.744 105.079 56.6524 105.517 56.4879C105.975 56.3234 106.321 56.0672 106.577 55.7204C106.833 55.3736 106.962 55.0071 106.962 54.6052C106.962 54.149 106.779 53.8199 106.414 53.5825C106.194 53.4367 105.7 53.3815 104.932 53.3815H102.1L101.406 56.744ZM112.882 63.7794L115.476 51.2968H124.739L124.301 53.3805H117.614L117.012 56.213H123.479L123.041 58.2957H116.592L115.805 61.6947H123.06L122.621 63.7784L112.882 63.7794ZM127.352 63.7794L129.964 51.2968H132.542L129.929 63.7794H127.352ZM135.667 59.741L138.114 59.613C138.151 60.3992 138.28 60.9105 138.516 61.1844C138.901 61.6228 139.576 61.8425 140.599 61.8425C141.441 61.8425 142.042 61.6967 142.427 61.3854C142.81 61.0937 142.992 60.7282 142.992 60.2898C142.992 59.9243 142.846 59.613 142.536 59.3578C142.316 59.1745 141.732 58.8642 140.762 58.4435C139.795 58.0228 139.082 57.677 138.644 57.4022C138.206 57.1273 137.84 56.7628 137.584 56.3056C137.328 55.8485 137.199 55.3372 137.199 54.7332C137.199 53.6919 137.584 52.815 138.332 52.1205C139.099 51.4259 140.197 51.0791 141.639 51.0791C143.081 51.0791 144.234 51.4259 145.038 52.1017C145.842 52.7963 146.279 53.7106 146.352 54.8426L143.885 54.952C143.831 54.35 143.613 53.8929 143.247 53.5815C142.882 53.2702 142.333 53.1067 141.622 53.1067C140.908 53.1067 140.396 53.2347 140.104 53.4909C139.795 53.747 139.648 54.0574 139.648 54.4416C139.648 54.8061 139.794 55.0987 140.067 55.3184C140.342 55.5559 140.964 55.8849 141.914 56.3056C143.358 56.9273 144.272 57.4209 144.654 57.8228C145.239 58.3883 145.532 59.1194 145.532 60.0159C145.532 61.1115 145.093 62.0622 144.215 62.8297C143.338 63.6159 142.134 64.0001 140.58 64.0001C139.502 64.0001 138.571 63.8168 137.784 63.4513C136.999 63.0858 136.45 62.5922 136.121 61.9528C135.792 61.3134 135.648 60.5814 135.667 59.741ZM149.88 63.7794L152.476 51.2968H161.739L161.301 53.3805H154.614L154.028 56.213H160.496L160.058 58.2957H153.59L152.805 61.6947H160.078L159.639 63.7784L149.88 63.7794ZM174.456 63.7794H172.063L168.682 55.3904L166.927 63.7794H164.554L167.147 51.2968H169.56L172.94 59.6494L174.676 51.2968H177.069L174.456 63.7794Z" fill="black"/>
</svg>
