<svg width="64" height="64" viewBox="0 0 64 64" fill="none" xmlns="http://www.w3.org/2000/svg">
<path d="M40.6604 22.3562L39.7871 30.9772H43.717V31.2694C42.6981 37.2603 40.8059 42.5206 38.3315 46.3196C35.1294 51.2877 31.0539 53.7717 26.2507 53.7717C20.8652 53.7717 17.2264 50.1187 16.9353 44.5662C16.6442 37.9909 22.7574 32.1461 31.1995 31.1233L33.0916 30.9772L34.1105 22.5023L32.0728 22.3562C27.4151 22.0639 23.3396 19.5799 23.1941 15.7808C23.0485 14.3196 23.3396 13.2968 24.0674 11.9817C25.3774 9.78995 27.9973 9.05936 30.4717 9.05936C35.8572 9.05936 38.9137 11.3973 38.9137 11.3973L41.9704 3.65297C41.9704 3.65297 35.566 0 29.1617 0C23.6307 0 20.283 1.02283 17.5175 3.21461C14.4609 5.69863 11.6954 9.64383 12.2776 15.9269C12.7143 19.726 15.0431 23.379 17.9542 25.7169L18.2453 25.863L17.9542 26.0091C14.3154 27.7626 11.1132 30.2466 8.92992 33.0228C6.01886 36.6758 5 41.0594 5 45.589C5 54.3562 10.9676 59.3242 10.9676 59.3242C14.0242 62.2466 18.8275 64 24.0674 64C30.7628 64 34.8383 62.2466 38.9137 59.3242C46.1914 53.7717 50.9946 43.5434 52.8868 30.8311V30.6849H58.2722L59 22.0639H40.6604V22.3562Z" fill="#2A386B"/>
</svg>
