<svg width="64" height="64" viewBox="0 0 64 64" fill="none" xmlns="http://www.w3.org/2000/svg">
<g clip-path="url(#clip0_2002_1297)">
<path fill-rule="evenodd" clip-rule="evenodd" d="M27.8784 0.262052C22.5716 0.944455 17.6718 2.92682 13.5086 5.87954L25.4602 29.4045C26.2476 29.2872 27.0536 29.186 27.8784 29.102V0.262052ZM10.049 8.7149C7.06411 11.5299 4.62041 14.9126 2.89043 18.6903L18.8311 30.8815C19.3743 30.7152 19.9316 30.5575 20.5035 30.4089C20.6699 30.3657 20.8373 30.3232 21.0057 30.2816L10.049 8.7149ZM1.29225 22.9679C0.451207 25.8321 0 28.8631 0 31.9995C0 36.0261 0.743669 39.8789 2.10114 43.4282C4.29908 39.6698 7.93377 35.6106 14.0455 32.7215L1.29225 22.9679ZM4.50586 48.3823C10.0912 57.7359 20.314 64 32 64C34.5163 64 36.9646 63.7096 39.3134 63.1604C36.3614 60.2146 34.4202 57.1973 33.5348 54.1812C32.3296 50.0754 33.149 46.1805 35.6431 42.9269C38.0767 39.7519 42.0104 37.2947 46.9251 35.6277C48.0779 35.2367 49.2928 34.8863 50.5661 34.5787C47.3248 34.1455 44.17 33.8175 41.523 33.587C40.2586 33.4769 39.1202 33.3899 38.1559 33.3248C37.3605 33.2711 36.5811 33.2323 35.8177 33.2079C34.5334 33.1668 33.2936 33.166 32.097 33.2021C31.4536 33.2214 30.8227 33.2515 30.2041 33.2916C29.7312 33.3223 29.2654 33.3589 28.8067 33.4011C27.7809 33.4956 26.7903 33.6183 25.8338 33.7666C25.4266 33.8298 25.0256 33.8975 24.6307 33.9697C23.5786 34.1621 22.5696 34.3859 21.6021 34.6373C20.7306 34.8636 19.903 35.1121 19.1166 35.3797C10.1564 38.4282 6.28809 44.07 4.50586 48.3823ZM44.0896 61.6375C54.1665 57.5226 61.6759 48.4179 63.5473 37.3937C57.5549 37.5144 52.4233 38.376 48.3283 39.7649C43.9099 41.2636 40.8427 43.3246 39.1102 45.5847C37.4379 47.7662 36.9259 50.2233 37.7265 52.9507C38.4802 55.5183 40.4501 58.4802 44.0896 61.6375ZM63.9938 32.6376C63.998 32.4254 64 32.2127 64 31.9995C64 27.9474 63.2469 24.0711 61.8729 20.5032L47.9548 29.85C53.224 30.4634 59.214 31.373 63.9938 32.6376ZM60.0014 16.4977C57.8095 12.5468 54.8058 9.10862 51.2155 6.40843L39.393 29.0327C39.9357 29.0726 40.5175 29.1181 41.1323 29.1693L60.0014 16.4977ZM47.536 4.0169C43.0029 1.49459 37.7928 0.0419224 32.247 0V28.8275C33.0101 28.808 33.7876 28.8025 34.5795 28.8115L47.536 4.0169Z" fill="url(#paint0_linear_2002_1297)"/>
</g>
<defs>
<linearGradient id="paint0_linear_2002_1297" x1="0" y1="32" x2="64" y2="32" gradientUnits="userSpaceOnUse">
<stop stop-color="#0085FF"/>
<stop offset="1" stop-color="#B440FC"/>
</linearGradient>
<clipPath id="clip0_2002_1297">
<rect width="64" height="64" rx="8" fill="white"/>
</clipPath>
</defs>
</svg>
