<svg width="64" height="64" viewBox="0 0 64 64" fill="none" xmlns="http://www.w3.org/2000/svg">
<path d="M0 18.255V45.7266L8.51931 45.7154V45.7449C16.0866 45.7449 22.2218 39.5845 22.2218 31.9959C22.2218 24.4073 16.0866 18.255 8.51931 18.255L0 18.255ZM17.2938 18.255C19.6722 19.9486 21.5906 22.2447 22.8286 24.9247H26.6476C28.4848 24.9247 29.9736 26.4187 29.9736 28.261C29.9736 30.1027 28.4848 31.5953 26.6476 31.5953H24.7467L31.1436 45.6655H38.6383L33.8658 35.1671C35.5755 33.3711 36.6246 30.9397 36.6246 28.261C36.6246 22.7346 32.1585 18.255 26.6476 18.255H17.2938ZM35.2543 18.255L47.7502 45.7378H51.5062L64 18.255H56.5063L49.6277 33.3853L42.749 18.255H35.2543ZM6.65097 24.9257H8.51931C12.4136 24.9257 15.5698 28.0907 15.5698 31.9959C15.5698 35.9005 12.4136 39.0651 8.51931 39.0651V39.0356H6.65097V24.9257Z" fill="#004489"/>
</svg>
