<svg width="64" height="64" viewBox="0 0 64 64" fill="none" xmlns="http://www.w3.org/2000/svg">
<g clip-path="url(#clip0_2003_2139)">
<rect width="64" height="64" fill="white"/>
<path d="M27.3658 0.232765C14.4285 2.29354 4.2332 11.4698 0.873375 24.1455C-0.207947 28.1893 -0.285184 35.3436 0.641664 39.2708C4.2332 54.0072 16.9387 64 32 64C47.0613 64 59.7668 54.0072 63.3583 39.2708C64.2852 35.3436 64.2079 28.1893 63.1266 24.1455C60.0757 12.6363 51.3093 3.88772 39.9941 0.971534C36.5184 0.0772373 30.5711 -0.272707 27.3658 0.232765ZM38.6038 8.98132C42.6587 10.0311 45.671 11.7809 48.8377 14.9692C53.5492 19.674 55.7505 25.1953 55.7505 32.1941V35.6158H37.5611H19.3717L19.642 36.6656C20.1441 38.7653 22.075 41.6815 23.8901 43.0812C28.5243 46.6195 36.4411 46.5029 41.2685 42.7702C42.5043 41.837 43.3153 41.4871 43.8173 41.6426C45.7869 42.2647 52.661 45.7641 52.661 46.1141C52.661 46.3474 51.4638 47.7082 50.0349 49.1858C45.4393 53.7739 40.0713 55.7958 32.3476 55.8347C24.8942 55.8347 19.6034 53.735 14.7761 48.8747C10.1032 44.1699 8.24954 39.4263 8.24954 32.3108C8.24954 24.8065 10.1032 20.1017 15.0078 15.1636C18.6379 11.4698 22.2681 9.44791 26.8251 8.59249C30.1463 7.93149 35.2053 8.12591 38.6038 8.98132Z" fill="#006EB7"/>
<path d="M29.0268 18.5271C26.126 19.537 24.1789 21.0907 22.5497 23.5377L21 25.8682L33.3978 25.9848C40.2325 26.0236 45.8751 25.9848 45.9546 25.9071C46.3122 25.5575 44.4843 22.6832 43.0141 21.3626C40.4312 18.9544 38.4046 18.1776 34.3515 18.0222C31.8084 17.9445 30.2586 18.061 29.0268 18.5271Z" fill="#006EB7"/>
</g>
<defs>
<clipPath id="clip0_2003_2139">
<rect width="64" height="64" fill="white"/>
</clipPath>
</defs>
</svg>
