<svg width="584" height="64" viewBox="0 0 584 64" fill="none" xmlns="http://www.w3.org/2000/svg">
<g clip-path="url(#clip0_2004_3732)">
<path d="M62.5525 0.228571C58.1715 0.228571 55.6953 0.761904 52.4953 2.4C51.4287 2.97143 39.8858 8.95238 31.5049 13.3333C24.8763 16.8 20.2668 21.6762 17.3715 27.6571C9.02866 44.8762 9.15527e-05 63.8095 9.15527e-05 63.8095H18.0572C22.5144 63.8095 25.6382 61.9429 27.2382 58.5524C27.962 57.0286 32.0001 48.6857 36.1525 40.1905H65.4858C69.5239 40.1905 71.0858 39.5048 72.6096 36.2667L74.1334 33.1048C74.1334 33.1048 53.6763 33.1048 38.781 33.1048C42.0191 26.5143 46.781 16.5333 46.781 16.5333C48.8382 12.381 51.2001 10.7048 56.5715 10.7048H76.5334H94.5906C99.0477 10.7048 102.172 8.87619 103.772 5.44762L106.324 0.190475H62.5525V0.228571Z" fill="white"/>
<path fill-rule="evenodd" clip-rule="evenodd" d="M113.638 5.48569C115.276 2.09521 118.4 0.228546 122.857 0.228546H140.914C140.914 0.228546 114.591 54.5143 112.648 58.5524C111.01 61.9428 107.886 63.8095 103.429 63.8095H85.4097C85.4097 63.8095 111.695 9.52378 113.638 5.48569ZM459.581 5.48569C461.181 2.09521 464.305 0.228546 468.762 0.228546H486.819C486.819 0.228546 460.457 54.5143 458.514 58.5524C456.876 61.9428 453.791 63.8095 449.334 63.8095H431.314C431.314 63.8095 457.638 9.52378 459.581 5.48569ZM308.191 63.7714H294.591C290.172 63.7714 287.695 61.9428 285.257 58.819C283.886 56.9905 269.867 38.4381 260.724 26.3619C260.153 25.6 259.619 24.4952 259.467 23.4285C253.524 35.619 243.467 56.6476 242.553 58.5143C240.953 61.9047 237.829 63.7714 233.372 63.7714H225.105C225.105 63.7714 238.895 34.5905 247.276 17.3333C250.324 11.1238 253.905 6.9714 260.153 3.69521C262.286 2.55236 263.314 2.09521 265.334 0.990451C267.81 -0.266692 270.324 -2.52718e-05 271.772 2.05712C276.191 8.11426 289.295 25.8666 300.419 40.9524C301.219 42.0571 302.172 43.8095 302.438 45.1428C308.534 32.5333 320.419 7.8095 321.562 5.48569C323.2 2.09521 326.324 0.228546 330.781 0.228546H339.086L308.191 63.7714ZM207.772 63.7714H194.172C189.714 63.7714 187.276 61.9809 184.838 58.8571C183.467 56.9905 169.448 38.4762 160.305 26.3619C159.734 25.6 159.162 24.5333 159.048 23.4285C153.105 35.619 143.01 56.6857 142.134 58.5143C140.534 61.9428 137.372 63.7714 132.953 63.7714H124.686C124.686 63.7714 138.476 34.6285 146.857 17.3714C149.905 11.1619 153.486 6.9714 159.734 3.73331C161.867 2.59045 162.857 2.09521 164.914 1.02855C167.353 -0.266692 169.867 -2.52718e-05 171.353 2.05712C175.772 8.11426 188.876 25.9047 200 40.9905C200.8 42.0571 201.753 43.8095 201.981 45.1428C208.114 32.5333 220 7.84759 221.143 5.52378C222.781 2.09521 225.905 0.266641 230.362 0.266641H238.667L207.772 63.7714ZM434.743 22.2857C433.714 24.3047 414.629 63.6952 414.629 63.6952H398.438C393.6 63.6952 391.657 60.3047 393.486 56.5714C395.543 52.3047 398.4 46.4 401.448 40.1524H360.114C355.81 49.0666 351.886 57.1047 351.238 58.5143C349.6 61.9047 346.476 63.7714 342.019 63.7714H324C324 63.7714 332.876 45.1809 341.295 27.9238C344.343 21.5619 348.762 16.8381 355.772 13.1809C364.153 8.79998 375.429 2.9714 376.457 2.39998C379.695 0.76188 382.172 0.228546 386.553 0.228546H406.4C411.124 0.228546 415.695 1.56188 419.238 4.22855C420 4.79998 432.534 14.1714 433.448 14.819C436.305 16.8762 436.533 18.8571 434.743 22.2857ZM404.953 33.1047C408.153 26.4 411.429 19.7333 413.943 14.5143C414.972 12.3047 414.095 10.7047 411.048 10.7047H381.448C375.772 10.7047 373.676 12.3047 371.467 16.8762C371.467 16.8762 368.267 23.4285 363.581 33.1047H404.953ZM582.667 22.4381C582.324 23.0476 579.353 29.6381 578.21 31.8476C575.772 36.5333 570.743 38.9714 559.467 38.9714C557.181 38.9714 550.591 38.9714 542.781 38.9714L542.591 40.3428C546.629 40.9905 550.476 41.6381 551.391 41.7524C554.476 42.2476 555.581 43.3905 556.534 44.9905C562.629 55.2762 568 63.8095 568 63.8095H547.391C542.019 63.8095 539.962 62.5143 537.562 58.5524C536.876 57.2952 532.572 50.1714 528.762 43.8095C526.743 40.419 525.029 38.9333 520 38.9333C512.381 38.9333 509.486 38.9333 509.486 38.9333C505.372 47.3524 500.572 57.0285 499.886 58.5524C498.248 61.9428 495.124 63.8095 490.705 63.8095H472.648C472.648 63.8095 481.295 45.6381 489.676 28.3809C493.181 21.1809 497.067 17.0285 505.372 12.6857C513.753 8.30474 524.076 2.9714 525.105 2.39998C528.343 0.76188 530.819 0.228546 535.2 0.228546H553.905C559.162 0.228546 564.153 2.01902 567.924 4.83807C568.686 5.4095 580.343 14.1714 581.257 14.819C584.076 16.8762 584.343 18.8571 582.667 22.4381ZM558.781 10.7047H528.876C524.229 10.7047 521.562 12.3047 519.772 15.9619C519.772 15.9619 515.315 25.1809 512.115 31.8095H543.581C550.972 31.8095 554.172 30.2476 555.848 26.7047C558.248 21.7524 559.81 18.4 561.676 14.5143C562.743 12.3047 561.791 10.7047 558.781 10.7047Z" fill="white"/>
</g>
<defs>
<clipPath id="clip0_2004_3732">
<rect width="584" height="64" fill="white"/>
</clipPath>
</defs>
</svg>
