<svg width="205" height="64" viewBox="0 0 205 64" fill="none" xmlns="http://www.w3.org/2000/svg">
<g clip-path="url(#clip0_2004_3596)">
<path d="M2.11916 52.7281L3.79302 57.2903C3.98549 57.7979 4.17795 58.4046 4.30043 58.8714H4.32959C4.4754 58.4105 4.63287 57.8212 4.82533 57.2612L6.35339 52.734H7.83479L5.72934 58.2355C4.72619 60.8841 4.03798 62.2259 3.08148 63.066C2.38161 63.6553 1.7109 63.8945 1.36096 63.9586L1.01103 62.7918C1.36097 62.681 1.82171 62.4593 2.2358 62.1034C2.62073 61.8 3.08148 61.2575 3.41392 60.5399C3.47808 60.394 3.52474 60.2832 3.52474 60.2074C3.52474 60.1257 3.49558 60.0148 3.41392 59.8398L0.573608 52.7281H2.11916Z" fill="black"/>
<path d="M15.9589 56.5205C15.9589 59.3734 13.9642 60.6218 12.1154 60.6218C10.0449 60.6218 8.41772 59.0933 8.41772 56.6489C8.41772 54.0819 10.1207 52.5651 12.2437 52.5651C14.46 52.5651 15.9589 54.1753 15.9589 56.5205ZM9.85246 56.6022C9.85246 58.2941 10.809 59.5659 12.1795 59.5659C13.521 59.5659 14.5241 58.3057 14.5241 56.5672C14.5241 55.2604 13.8709 53.6152 12.2145 53.6152C10.5698 53.621 9.85246 55.1495 9.85246 56.6022Z" fill="black"/>
<path d="M24.1883 58.3231C24.1883 59.134 24.2058 59.8399 24.2524 60.4466H23.0101L22.9285 59.1865H22.8935C22.5436 59.8107 21.7154 60.6217 20.3448 60.6217C19.1317 60.6217 17.6794 59.9333 17.6794 57.2379V52.7224H19.085V56.9812C19.085 58.4514 19.5458 59.4549 20.8055 59.4549C21.7445 59.4549 22.3978 58.8015 22.6544 58.1597C22.736 57.9672 22.7827 57.7105 22.7827 57.4421V52.7224H24.1883V58.3231Z" fill="black"/>
<path d="M26.5212 55.1316C26.5212 54.2215 26.5037 53.4398 26.457 52.7222H27.6818L27.746 54.2507H27.7926C28.1426 53.2122 29.0057 52.5588 29.9447 52.5588C30.0905 52.5588 30.2013 52.5763 30.3297 52.588V53.9123C30.1839 53.8773 30.0439 53.8773 29.8514 53.8773C28.8599 53.8773 28.1601 54.6124 27.9676 55.6625C27.9384 55.8551 27.9209 56.0943 27.9209 56.3159V60.4289H26.5212V55.1316Z" fill="black"/>
<path d="M41.7142 59.3149C41.7142 61.1001 41.3467 62.1678 40.6119 62.8562C39.8478 63.5446 38.763 63.7838 37.789 63.7838C36.8617 63.7838 35.8411 63.5621 35.2228 63.1479L35.5728 62.0627C36.0802 62.3953 36.8792 62.687 37.8357 62.687C39.2704 62.687 40.3202 61.9344 40.3202 59.9742V59.1282H40.2911C39.877 59.8458 39.0313 60.4175 37.8357 60.4175C35.9227 60.4175 34.5521 58.7899 34.5521 56.6546C34.5521 54.041 36.2551 52.5708 38.0457 52.5708C39.3871 52.5708 40.1044 53.2534 40.4544 53.8951H40.4835L40.5302 52.7283H41.7725C41.7258 53.2709 41.7083 53.9068 41.7083 54.8344V59.3149H41.7142ZM40.3144 55.7737C40.3144 55.5345 40.2969 55.3245 40.2328 55.1494C39.9761 54.321 39.3054 53.6501 38.2731 53.6501C36.9317 53.6501 35.9752 54.7819 35.9752 56.5671C35.9752 58.0839 36.7567 59.3441 38.2556 59.3441C39.1305 59.3441 39.912 58.8015 40.2036 57.9089C40.2852 57.6697 40.3144 57.4014 40.3144 57.1622V55.7737Z" fill="black"/>
<path d="M44.0295 49.1228H45.4351V60.4466H44.0295V49.1228Z" fill="black"/>
<path d="M54.7786 56.5205C54.7786 59.3734 52.7839 60.6218 50.9351 60.6218C48.8646 60.6218 47.2374 59.0933 47.2374 56.6489C47.2374 54.0819 48.9463 52.5651 51.0634 52.5651C53.2797 52.5651 54.7786 54.1753 54.7786 56.5205ZM48.6722 56.6022C48.6722 58.2941 49.6287 59.5659 50.9992 59.5659C52.3407 59.5659 53.3438 58.3057 53.3438 56.5672C53.3438 55.2604 52.6906 53.6152 51.0342 53.6152C49.3895 53.621 48.6722 55.1495 48.6722 56.6022Z" fill="black"/>
<path d="M56.5458 49.1228H57.9339V53.9709H57.9631C58.4588 53.1074 59.3511 52.5649 60.5934 52.5649C62.5239 52.5649 63.8595 54.1576 63.8595 56.4912C63.8595 59.2507 62.104 60.6216 60.3835 60.6216C59.2695 60.6216 58.3771 60.1899 57.7823 59.1865H57.7531L57.6714 60.4466H56.4758C56.505 59.9216 56.54 59.1398 56.54 58.4514V49.1228H56.5458ZM57.9339 57.3488C57.9339 57.5238 57.9514 57.6988 57.9981 57.8563C58.2547 58.8306 59.0829 59.5015 60.1035 59.5015C61.5849 59.5015 62.4481 58.3055 62.4481 56.5378C62.4481 54.9918 61.6491 53.6675 60.1385 53.6675C59.1995 53.6675 58.3072 54.3384 58.0155 55.3885C57.9689 55.5636 57.9339 55.7561 57.9339 55.9778V57.3488Z" fill="black"/>
<path d="M71.0446 58.5974C71.0446 59.2683 71.0738 59.9218 71.1554 60.4468H69.8956L69.7848 59.4725H69.7382C69.3066 60.0793 68.4784 60.6218 67.3761 60.6218C65.8131 60.6218 65.014 59.5192 65.014 58.4049C65.014 56.538 66.6704 55.5171 69.6565 55.5346V55.3771C69.6565 54.7528 69.4816 53.5918 67.901 53.6035C67.1661 53.6035 66.4196 53.8135 65.8772 54.1753L65.5564 53.236C66.1922 52.8393 67.137 52.5651 68.1051 52.5651C70.4672 52.5651 71.0388 54.1753 71.0388 55.7096V58.5974H71.0446ZM69.6915 56.503C68.1635 56.4739 66.4254 56.7422 66.4254 58.2416C66.4254 59.1692 67.032 59.5834 67.7319 59.5834C68.7525 59.5834 69.4057 58.9475 69.6274 58.2882C69.674 58.1307 69.6915 57.9674 69.6915 57.839V56.503Z" fill="black"/>
<path d="M73.3076 49.1228H74.7132V60.4466H73.3076V49.1228Z" fill="black"/>
<path d="M80.4521 55.2486C80.4521 54.2568 80.4171 53.4634 80.3879 52.7283H81.6302L81.7119 54.0526H81.741C82.3009 53.1134 83.2224 52.5708 84.4822 52.5708C86.366 52.5708 87.7658 54.1518 87.7658 56.4796C87.7658 59.2566 86.0569 60.6276 84.2431 60.6276C83.2224 60.6276 82.3301 60.1784 81.8693 59.4141H81.8402V63.6087H80.4521V55.2486ZM81.8402 57.3022C81.8402 57.5122 81.8577 57.6989 81.9043 57.8739C82.1609 58.8482 83.0066 59.5191 84.0098 59.5191C85.4912 59.5191 86.3544 58.3056 86.3544 56.5379C86.3544 55.0094 85.5437 53.6851 84.0564 53.6851C83.0999 53.6851 82.1901 54.356 81.9335 55.4061C81.8868 55.5812 81.8402 55.7912 81.8402 55.9662V57.3022Z" fill="black"/>
<path d="M94.9512 58.5974C94.9512 59.2683 94.9862 59.9218 95.062 60.4468H93.8023L93.6915 59.4725H93.6448C93.2132 60.0793 92.385 60.6218 91.2827 60.6218C89.7197 60.6218 88.9207 59.5192 88.9207 58.4049C88.9207 56.538 90.577 55.5171 93.5631 55.5346V55.3771C93.5631 54.7528 93.3882 53.5918 91.8076 53.6035C91.0728 53.6035 90.3262 53.8135 89.7838 54.1753L89.4631 53.236C90.0988 52.8393 91.0436 52.5651 92.0118 52.5651C94.3738 52.5651 94.9454 54.1753 94.9454 55.7096V58.5974H94.9512ZM93.5923 56.503C92.0643 56.4739 90.3262 56.7422 90.3262 58.2416C90.3262 59.1692 90.9328 59.5834 91.6327 59.5834C92.6533 59.5834 93.3065 58.9475 93.5282 58.2882C93.5748 58.1307 93.5923 57.9674 93.5923 57.839V56.503Z" fill="black"/>
<path d="M97.2141 55.1316C97.2141 54.2215 97.1966 53.4398 97.1499 52.7222H98.3805L98.4447 54.2507H98.4913C98.8413 53.2122 99.7044 52.5588 100.643 52.5588C100.789 52.5588 100.9 52.5763 101.028 52.588V53.9123C100.883 53.8773 100.743 53.8773 100.55 53.8773C99.5586 53.8773 98.8588 54.6124 98.6663 55.6625C98.6371 55.8551 98.6196 56.0943 98.6196 56.3159V60.4289H97.2141V55.1316Z" fill="black"/>
<path d="M104.505 50.8729V52.7223H106.517V53.7899H104.505V57.9554C104.505 58.9122 104.779 59.4548 105.554 59.4548C105.939 59.4548 106.161 59.4198 106.365 59.3614L106.429 60.429C106.155 60.5224 105.729 60.6216 105.187 60.6216C104.534 60.6216 104.009 60.3999 103.671 60.0323C103.286 59.6006 103.128 58.918 103.128 58.0079V53.7958H101.932V52.7281H103.128V51.293L104.505 50.8729Z" fill="black"/>
<path d="M108.091 54.8169C108.091 54.006 108.074 53.3642 108.027 52.7283H109.269L109.351 54.006H109.386C109.771 53.2884 110.663 52.5708 111.935 52.5708C113.002 52.5708 114.658 53.2067 114.658 55.8553V60.4467H113.253V55.9954C113.253 54.7527 112.792 53.7143 111.468 53.7143C110.558 53.7143 109.841 54.3677 109.584 55.1494C109.52 55.3245 109.491 55.5637 109.491 55.8028V60.4467H108.085V54.8169H108.091Z" fill="black"/>
<path d="M117.726 56.8414C117.761 58.7375 118.951 59.5192 120.374 59.5192C121.377 59.5192 122.001 59.3442 122.509 59.1225L122.765 60.1259C122.27 60.3476 121.412 60.6218 120.182 60.6218C117.808 60.6218 116.385 59.0408 116.385 56.713C116.385 54.3853 117.755 52.5651 120.007 52.5651C122.544 52.5651 123.197 54.7645 123.197 56.188C123.197 56.4739 123.179 56.6839 123.15 56.8414H117.726ZM121.838 55.8379C121.856 54.9628 121.471 53.5743 119.89 53.5743C118.455 53.5743 117.849 54.8695 117.738 55.8379H121.838Z" fill="black"/>
<path d="M124.935 55.1316C124.935 54.2215 124.917 53.4398 124.87 52.7222H126.095L126.159 54.2507H126.206C126.556 53.2122 127.419 52.5588 128.358 52.5588C128.504 52.5588 128.615 52.5763 128.743 52.588V53.9123C128.597 53.8773 128.457 53.8773 128.265 53.8773C127.279 53.8773 126.574 54.6124 126.381 55.6625C126.346 55.8551 126.334 56.0943 126.334 56.3159V60.4289H124.929V55.1316H124.935Z" fill="black"/>
<path d="M133.672 60.4466V53.7958H132.604V52.7282H133.672V52.3607C133.672 51.2755 133.928 50.2896 134.564 49.6653C135.089 49.1578 135.789 48.9478 136.448 48.9478C136.961 48.9478 137.375 49.0586 137.644 49.1694L137.451 50.2546C137.241 50.1612 136.973 50.0795 136.559 50.0795C135.363 50.0795 135.06 51.118 135.06 52.314V52.7282H136.926V53.7958H135.06V60.4466H133.672Z" fill="black"/>
<path d="M144.98 56.5205C144.98 59.3734 142.986 60.6218 141.137 60.6218C139.066 60.6218 137.439 59.0933 137.439 56.6489C137.439 54.0819 139.148 52.5651 141.265 52.5651C143.481 52.5651 144.98 54.1753 144.98 56.5205ZM138.874 56.6022C138.874 58.2941 139.83 59.5659 141.201 59.5659C142.542 59.5659 143.546 58.3057 143.546 56.5672C143.546 55.2604 142.892 53.6152 141.236 53.6152C139.591 53.621 138.874 55.1495 138.874 56.6022Z" fill="black"/>
<path d="M146.748 55.1316C146.748 54.2215 146.73 53.4398 146.684 52.7222H147.914L147.978 54.2507H148.025C148.375 53.2122 149.238 52.5588 150.177 52.5588C150.323 52.5588 150.434 52.5763 150.562 52.588V53.9123C150.416 53.8773 150.276 53.8773 150.084 53.8773C149.092 53.8773 148.392 54.6124 148.2 55.6625C148.171 55.8551 148.153 56.0943 148.153 56.3159V60.4289H146.748V55.1316Z" fill="black"/>
<path d="M160.85 60.1725C160.482 60.3475 159.672 60.6217 158.634 60.6217C156.307 60.6217 154.79 59.0407 154.79 56.6838C154.79 54.3093 156.417 52.5708 158.937 52.5708C159.765 52.5708 160.5 52.7808 160.885 52.985L160.564 54.0526C160.232 53.8776 159.701 53.6851 158.937 53.6851C157.17 53.6851 156.207 55.0094 156.207 56.6021C156.207 58.3873 157.356 59.4899 158.884 59.4899C159.683 59.4899 160.208 59.2974 160.605 59.1224L160.85 60.1725Z" fill="black"/>
<path d="M169.394 56.5205C169.394 59.3734 167.4 60.6218 165.551 60.6218C163.48 60.6218 161.853 59.0933 161.853 56.6489C161.853 54.0819 163.562 52.5651 165.679 52.5651C167.895 52.5651 169.394 54.1753 169.394 56.5205ZM163.288 56.6022C163.288 58.2941 164.244 59.5659 165.615 59.5659C166.956 59.5659 167.96 58.3057 167.96 56.5672C167.96 55.2604 167.306 53.6152 165.65 53.6152C164.005 53.621 163.288 55.1495 163.288 56.6022Z" fill="black"/>
<path d="M171.167 54.8169C171.167 54.006 171.15 53.3642 171.103 52.7283H172.346L172.427 54.006H172.456C172.841 53.2884 173.734 52.5708 175.005 52.5708C176.072 52.5708 177.735 53.2067 177.735 55.8553V60.4467H176.329V55.9954C176.329 54.7527 175.868 53.7143 174.544 53.7143C173.634 53.7143 172.917 54.3677 172.66 55.1494C172.596 55.3245 172.567 55.5637 172.567 55.8028V60.4467H171.162V54.8169H171.167Z" fill="black"/>
<path d="M181.66 50.8729V52.7223H183.666V53.7899H181.66V57.9554C181.66 58.9122 181.928 59.4548 182.709 59.4548C183.094 59.4548 183.316 59.4198 183.52 59.3614L183.584 60.429C183.316 60.5224 182.884 60.6216 182.342 60.6216C181.689 60.6216 181.164 60.3999 180.826 60.0323C180.441 59.6006 180.283 58.918 180.283 58.0079V53.7958H179.088V52.7281H180.283V51.293L181.66 50.8729Z" fill="black"/>
<path d="M185.952 56.8414C185.981 58.7375 187.177 59.5192 188.6 59.5192C189.603 59.5192 190.227 59.3442 190.735 59.1225L190.991 60.1259C190.496 60.3476 189.638 60.6218 188.408 60.6218C186.034 60.6218 184.611 59.0408 184.611 56.713C184.611 54.3853 185.981 52.5651 188.233 52.5651C190.77 52.5651 191.423 54.7645 191.423 56.188C191.423 56.4739 191.405 56.6839 191.376 56.8414H185.952ZM190.064 55.8379C190.082 54.9628 189.697 53.5743 188.116 53.5743C186.681 53.5743 186.075 54.8695 185.964 55.8379H190.064Z" fill="black"/>
<path d="M193.161 54.8169C193.161 54.006 193.143 53.3642 193.097 52.7283H194.339L194.421 54.006H194.456C194.841 53.2884 195.733 52.5708 197.004 52.5708C198.072 52.5708 199.728 53.2067 199.728 55.8553V60.4467H198.323V55.9954C198.323 54.7527 197.862 53.7143 196.538 53.7143C195.628 53.7143 194.911 54.3677 194.654 55.1494C194.59 55.3245 194.561 55.5637 194.561 55.8028V60.4467H193.155V54.8169H193.161Z" fill="black"/>
<path d="M203.636 50.8729V52.7223H205.642V53.7899H203.636V57.9554C203.636 58.9122 203.904 59.4548 204.686 59.4548C205.07 59.4548 205.292 59.4198 205.496 59.3614L205.56 60.429C205.292 60.5224 204.861 60.6216 204.318 60.6216C203.665 60.6216 203.14 60.3999 202.802 60.0323C202.417 59.6006 202.259 58.918 202.259 58.0079V53.7958H201.064V52.7281H202.259V51.293L203.636 50.8729Z" fill="black"/>
<path d="M104.715 24.0015H93.3533L91.3645 28.6337C90.8746 29.7772 90.6297 30.6231 90.6297 31.189C90.6297 31.6383 90.8396 32.0291 91.2654 32.3675C91.6911 32.7059 92.6126 32.9276 94.0241 33.0268V33.826H84.7799V33.0268C86.0047 32.8109 86.7979 32.5309 87.1595 32.1808C87.8943 31.4866 88.7109 30.0806 89.6032 27.957L99.9263 3.79834H100.685L110.903 28.2195C111.725 30.1856 112.472 31.4574 113.142 32.0408C113.813 32.6242 114.746 32.9567 115.948 33.0268V33.826H104.371V33.0268C105.537 32.9684 106.33 32.7759 106.738 32.4433C107.152 32.1108 107.357 31.7083 107.357 31.2299C107.357 30.594 107.065 29.5905 106.493 28.2195L104.715 24.0015ZM104.108 22.3972L99.1331 10.5308L94.0241 22.3972H104.108Z" fill="black"/>
<path d="M156.569 4.46924L156.896 11.3534H156.073C155.916 10.1399 155.7 9.27647 155.426 8.75724C154.977 7.92297 154.382 7.30457 153.641 6.90786C152.901 6.51114 151.921 6.31279 150.708 6.31279H146.573V28.7387C146.573 30.5414 146.765 31.6674 147.156 32.1166C147.704 32.7234 148.55 33.0267 149.687 33.0267H150.702V33.826H138.256V33.0267H139.294C140.536 33.0267 141.417 32.6534 141.936 31.9008C142.251 31.4399 142.414 30.3839 142.414 28.7387V6.31279H138.886C137.515 6.31279 136.541 6.41197 135.964 6.61616C135.211 6.89035 134.57 7.41542 134.039 8.19717C133.503 8.97893 133.188 10.0291 133.088 11.3592H132.266L132.61 4.47507H156.569V4.46924Z" fill="black"/>
<path d="M26.3463 3.79834L27.1045 13.0628H26.3463C25.5823 10.7525 24.5908 9.01395 23.3835 7.84715C21.6396 6.16111 19.3942 5.31518 16.653 5.31518C12.9146 5.31518 10.0742 6.79702 8.12626 9.75487C6.49323 12.2518 5.68254 15.2272 5.68254 18.6751C5.68254 21.4754 6.22494 24.0307 7.30391 26.341C8.38872 28.6512 9.80596 30.3431 11.5556 31.4166C13.3112 32.49 15.1075 33.0268 16.9563 33.0268C18.0411 33.0268 19.0851 32.8926 20.0941 32.6184C21.1031 32.3442 22.0771 31.9416 23.0161 31.4049V22.9164C23.0161 21.4462 22.9052 20.4836 22.6778 20.0286C22.4562 19.5735 22.1062 19.2293 21.6396 18.9901C21.1731 18.7509 20.3449 18.6342 19.1609 18.6342V17.8116H30.5222V18.6342H29.9798C28.8542 18.6342 28.0843 19.0076 27.6644 19.7602C27.3728 20.2969 27.2328 21.3471 27.2328 22.9222V31.9066C25.5706 32.7992 23.9376 33.4585 22.322 33.8785C20.7065 34.2986 18.9101 34.5086 16.933 34.5086C11.264 34.5086 6.95398 32.6884 4.01451 29.0538C1.80408 26.3235 0.701782 23.1789 0.701782 19.6144C0.701782 17.0299 1.32 14.5563 2.56228 12.1877C4.03201 9.36399 6.04998 7.19957 8.61618 5.68273C10.7683 4.42841 13.3053 3.79834 16.2331 3.79834C17.3004 3.79834 18.2686 3.88585 19.1434 4.06087C20.0183 4.23589 21.2547 4.6151 22.8528 5.21017C23.6634 5.51354 24.2 5.66522 24.4741 5.66522C24.7482 5.66522 24.9815 5.53688 25.1798 5.28601C25.3723 5.03515 25.4948 4.53926 25.5356 3.80417H26.3463V3.79834Z" fill="black"/>
<path d="M41.1894 -0.0928955V40.261H40.1105V-0.0928955H41.1894Z" fill="black"/>
<path d="M64.4953 33.0267V33.826H51.9209V33.0267H52.959C54.1722 33.0267 55.0528 32.6709 55.6011 31.9649C55.9452 31.5041 56.1201 30.3898 56.1201 28.6337V9.66735C56.1201 8.17967 56.0268 7.19956 55.8402 6.72117C55.6944 6.35946 55.4028 6.05026 54.9537 5.78773C54.318 5.44352 53.6531 5.2685 52.9649 5.2685H51.9267V4.46924H64.5011V5.2685H63.4396C62.244 5.2685 61.3692 5.62437 60.8209 6.33029C60.4593 6.79118 60.2785 7.90547 60.2785 9.66151V28.6279C60.2785 30.1156 60.3719 31.0957 60.5585 31.5741C60.7043 31.9358 61.0076 32.245 61.4683 32.5075C62.0865 32.8517 62.7456 33.0267 63.4396 33.0267H64.4953Z" fill="black"/>
<path d="M76.1715 -0.0928955V40.261H75.0925V-0.0928955H76.1715Z" fill="black"/>
<path d="M124.439 -0.0928955V40.261H123.36V-0.0928955H124.439Z" fill="black"/>
<path d="M165.679 -0.0928955V40.261H164.6V-0.0928955H165.679Z" fill="black"/>
<path d="M193.697 24.0015H182.336L180.347 28.6337C179.857 29.7772 179.612 30.6231 179.612 31.189C179.612 31.6383 179.822 32.0291 180.248 32.3675C180.674 32.7059 181.595 32.9276 183.007 33.0268V33.826H173.763V33.0268C174.987 32.8109 175.781 32.5309 176.142 32.1808C176.877 31.4866 177.694 30.0806 178.586 27.957L188.909 3.79834H189.667L199.879 28.2195C200.702 30.1856 201.448 31.4574 202.119 32.0408C202.79 32.6242 203.723 32.9567 204.924 33.0268V33.826H193.347V33.0268C194.514 32.9684 195.307 32.7759 195.715 32.4433C196.129 32.1108 196.333 31.7083 196.333 31.2299C196.333 30.594 196.042 29.5905 195.47 28.2195L193.697 24.0015ZM193.091 22.3972L188.11 10.5308L183.001 22.3972H193.091Z" fill="black"/>
</g>
<defs>
<clipPath id="clip0_2004_3596">
<rect width="205" height="64" fill="white"/>
</clipPath>
</defs>
</svg>
