<svg width="160" height="64" viewBox="0 0 160 64" fill="none" xmlns="http://www.w3.org/2000/svg">
<g clip-path="url(#clip0_2003_1904)">
<path d="M10.4296 16.2003H0.0254864V55.7694C3.45842 54.5329 6.92803 53.4008 10.4296 52.3746V16.2003ZM0 0H10.592V9.26867H0V0ZM26.7662 37.5493C26.7662 28.2769 31.8277 24.252 37.7322 24.252C43.6361 24.252 45.6042 27.8111 45.6042 34.0851V47.5329C49.308 47.7062 52.7843 48.1178 56.1045 48.7046V32.0233C56.1045 21.5339 50.669 15.263 41.1072 15.263C33.6079 15.263 29.202 18.9152 26.7662 24.1577V16.2009H16.3615V50.7773C20.0123 49.8732 23.4727 49.1742 26.7655 48.6549L26.7662 37.5493ZM102.831 16.2003H92.5178L80.1462 51.7247L68.3366 16.2003H57.368L69.9104 52.202C76.0047 54.1491 81.8149 56.4116 87.8634 58.4282L102.831 16.2003ZM105.647 0H116.237V9.26867H105.647V0ZM116.142 16.2003H105.738V62.9546C109.024 63.4643 112.475 63.8001 116.142 63.9071V16.2003ZM141.912 15.2636C129.348 15.2636 122.225 20.9751 121.475 30.526H131.226C131.412 25.7531 134.975 23.035 141.347 23.035C147.72 23.035 149.594 25.8429 149.594 30.1514V34.5528C148.283 34.4579 146.503 34.3649 145.003 34.3649C127.473 34.3649 120.164 40.3566 120.164 50.9398C120.164 57.3336 123.758 61.8121 129.843 63.2617C134.508 62.7054 139.516 61.7911 144.939 60.4372C148.02 59.668 151.076 58.8045 154.104 57.8478C156.08 57.2283 158.046 56.576 160 55.8911V30.1514C159.999 21.6313 155.78 15.2636 141.912 15.2636ZM149.593 44.4765C149.593 51.5948 144.251 55.8076 137.783 55.8076C133.378 55.8076 130.849 53.4673 130.849 49.3469C130.849 43.5418 135.816 41.1983 145.285 41.1983C146.785 41.1983 148.282 41.1983 149.595 41.2933V44.4765H149.593Z" fill="#009ADA"/>
</g>
<defs>
<clipPath id="clip0_2003_1904">
<rect width="160" height="64" fill="white"/>
</clipPath>
</defs>
</svg>
