<svg width="64" height="64" viewBox="0 0 64 64" fill="none" xmlns="http://www.w3.org/2000/svg">
<g clip-path="url(#clip0_2002_1363)">
<path d="M22.9304 28.6456C11.1988 25.6153 4.2073 22.1684 1.80527 20.2367C-0.596769 18.305 0.567716 15.0046 0.567716 15.0046C3.45381 21.4131 24.3506 27.0938 24.3506 27.0938L22.9304 28.6456ZM22.8573 29.2269C22.8573 29.2269 2.24823 24.0269 0.00145676 19.2251C0.00145676 19.2251 -0.144675 22.6307 2.49026 24.3198C5.12976 26.0135 13.4547 28.4899 23.4282 30.5361L22.8573 29.2269ZM23.8711 31.2959C23.8711 31.2959 6.54541 27.5973 1.94227 25.1163C1.94227 25.1163 2.48569 26.7139 5.03843 28.0139C7.69619 29.3688 13.6876 30.7054 23.0309 32.2114L23.8711 31.2959ZM24.5378 33.0399C24.5378 33.0399 8.34922 30.8473 3.97441 28.2885C3.97441 28.2885 5.86042 30.4994 8.70998 31.3737C11.3632 32.1885 14.4776 33.0262 22.871 33.722L24.5378 33.0399ZM22.9761 34.1843C22.9761 34.1843 10.943 33.8181 6.57281 30.948C6.57281 30.948 6.72807 31.7857 9.17577 33.0994C11.6235 34.4086 15.2037 34.8023 23.5926 35.4981L22.9761 34.1843ZM24.4419 35.8185C24.4419 35.8185 13.5551 35.8002 8.97028 33.6396C8.97028 33.6396 9.88816 34.9213 11.7376 35.5713C14.4411 36.5234 16.8248 36.7706 25.2457 36.7889L24.4419 35.8185ZM26.9901 36.9857C26.9901 36.9857 16.1353 37.8509 11.4362 35.9512C11.4362 35.9512 12.4272 37.1826 14.3041 37.7273C17.0577 38.5238 19.4324 38.3636 27.8395 37.915L26.9901 36.9857Z" fill="url(#paint0_linear_2002_1363)" stroke="#5B3926" stroke-width="0.251762"/>
<path d="M39.649 27.0891C39.649 27.0891 60.5458 21.4085 63.4319 15C63.4319 15 64.601 18.3095 62.1944 20.2366C59.7878 22.1638 52.8054 25.6152 41.0693 28.6455L39.649 27.0891ZM40.5715 30.536C50.545 28.4899 58.8699 26.0134 61.5094 24.3198C64.1489 22.6261 63.9982 19.225 63.9982 19.225C61.7514 24.0314 41.1423 29.2268 41.1423 29.2268L40.5715 30.536ZM40.9734 32.2159C50.3121 30.7099 56.3035 29.3733 58.9658 28.0184C61.5185 26.7184 62.062 25.1208 62.062 25.1208C57.4588 27.5972 40.1331 31.3004 40.1331 31.3004L40.9734 32.2159ZM41.1286 33.7265C49.5221 33.0261 52.6365 32.193 55.2897 31.3783C58.1392 30.4994 60.0252 28.293 60.0252 28.293C55.655 30.8518 39.4618 33.0445 39.4618 33.0445L41.1286 33.7265ZM40.4071 35.498C48.8005 34.7976 52.3762 34.4085 54.8239 33.0994C57.2716 31.7902 57.4268 30.948 57.4268 30.948C53.0566 33.8181 41.0236 34.1843 41.0236 34.1843L40.4071 35.498ZM38.7586 36.7934C47.1794 36.7705 49.5632 36.5233 52.2666 35.5758C54.1115 34.9258 55.0339 33.6441 55.0339 33.6441C50.4491 35.8047 39.5623 35.823 39.5623 35.823L38.7586 36.7934ZM36.1602 37.9103C44.5673 38.3589 46.9465 38.5237 49.6956 37.7227C51.577 37.1779 52.5634 35.9466 52.5634 35.9466C47.8644 37.8508 37.0095 36.9811 37.0095 36.9811L36.1602 37.9103Z" fill="url(#paint1_linear_2002_1363)" stroke="#5B3926" stroke-width="0.251762"/>
<path d="M31.9766 23.5463C28.3599 24.7639 25.3048 23.2305 25.3048 23.2305C22.9211 27.2724 21.3638 27.3639 21.3638 27.3639C21.3638 27.3639 23.1037 28.7418 23.1037 30.9481C23.1037 33.1545 18.5965 39.9566 23.5604 43.2616C27.2639 45.7242 30.698 45.6418 31.8533 46.6077L31.9721 46.7176C32.995 45.6327 36.5478 45.8158 40.3838 43.2616C45.3477 39.9566 40.8404 33.1545 40.8404 30.9481C40.8404 28.7418 42.5803 27.3639 42.5803 27.3639C42.5803 27.3639 41.0231 27.2724 38.6393 23.2305C38.6393 23.2305 34.5202 24.7136 31.8579 23.5051" fill="url(#paint2_linear_2002_1363)"/>
<path d="M31.9766 23.5463C28.3599 24.7639 25.3048 23.2305 25.3048 23.2305C22.9211 27.2724 21.3638 27.3639 21.3638 27.3639C21.3638 27.3639 23.1037 28.7418 23.1037 30.9481C23.1037 33.1545 18.5965 39.9566 23.5604 43.2616C27.2639 45.7242 30.698 45.6418 31.8533 46.6077L31.9721 46.7176C32.995 45.6327 36.5478 45.8158 40.3838 43.2616C45.3477 39.9566 40.8404 33.1545 40.8404 30.9481C40.8404 28.7418 42.5803 27.3639 42.5803 27.3639C42.5803 27.3639 41.0231 27.2724 38.6393 23.2305C38.6393 23.2305 34.5202 24.7136 31.8579 23.5051" stroke="#5B3926" stroke-width="0.503524"/>
<path d="M35.493 38.0477C35.493 38.0477 36.8676 38.153 37.4886 37.5305C38.1051 36.9125 38.3289 37.8738 38.3289 38.3727C38.3289 38.8717 38.3289 39.215 38.3289 39.215C38.3289 39.215 40.699 36.9949 39.1007 35.3928C38.1097 34.3995 37.3151 34.6329 37.3151 34.6329L36.9041 34.2209C36.9041 34.2209 35.8903 32.7378 33.502 32.8706C30.5657 32.8706 29.3053 34.1248 27.1453 35.7727H28.1408C28.1408 35.7727 25.7525 36.7203 25.5972 37.5991H26.6292C26.6292 37.5991 25.7342 37.9791 25.3049 38.9266C25.3049 38.9266 26.4238 38.0843 26.9717 38.2903C26.9717 38.2903 25.8027 38.7023 25.4922 40.2541C25.4922 40.2541 26.6247 38.7389 28.1728 38.9083C28.1728 38.9083 25.6657 40.3914 26.2502 43.0097C26.2502 43.0097 27.5197 41.0826 28.3143 40.872C28.3143 40.872 28.1271 42.9228 27.1453 43.9023C26.1635 44.8865 26.1635 45.0376 26.1635 45.0376C26.1635 45.0376 28.6203 43.5453 28.6203 43.9344C28.6203 45.8981 31.2004 42.7305 31.2004 42.7305C31.2004 42.7305 28.8304 45.1428 31.0634 46.5527C31.0634 46.5527 30.5474 44.9323 31.3374 45.1062C32.1274 45.2802 31.1822 47.0013 32.0178 48.1365C32.8535 49.2717 34.534 48.5164 34.534 48.5164C34.534 48.5164 31.8352 47.8207 33.365 45.9302C33.365 45.9302 33.0225 46.7221 34.4975 46.7221C34.4975 46.7221 33.671 45.4129 35.63 43.7604C37.5891 42.1125 36.178 38.9449 35.493 38.0477Z" fill="#5B3926"/>
<path d="M31.3827 37.5763C31.0219 37.6999 30.9169 38.1851 30.9169 38.1851C29.8848 38.4002 29.4053 39.7689 29.4053 39.7689C30.9534 39.1143 31.5699 39.4576 31.5699 39.4576C31.5699 39.4576 31.0904 39.3249 30.0583 40.1122C28.8984 41.0002 29.25 42.7122 29.25 42.7122C29.25 42.7122 29.25 42.7122 30.0583 41.902C30.8666 41.0918 31.3142 41.1971 31.3142 41.1971C31.0904 43.0418 33.908 43.7971 33.908 43.7971C32.5152 42.9594 32.8942 40.7118 32.8942 40.7118C33.4605 41.7967 34.045 41.8654 34.045 41.8654C33.5975 41.0735 33.8897 40.5059 33.8897 40.5059C34.9035 40.6935 35.3145 41.934 35.3145 41.934C36.7393 40.8995 35.0085 39.2837 35.2551 38.2675C35.4104 37.6266 34.5199 38.565 32.2549 37.9013C31.643 37.7273 31.3827 37.5763 31.3827 37.5763C31.4329 37.558 31.3461 37.5992 31.6749 37.5992C32.3645 37.5992 33.6112 36.7386 33.6112 36.7386L33.5655 36.9446C34.4057 36.5463 34.4925 35.3241 34.4925 35.3241H33.529C33.529 35.3241 33.5518 36.1847 32.3599 36.1847C31.2594 36.1847 31.305 35.1914 31.2594 35.1182C31.2 35.022 31.1589 35.2234 31.1589 35.2234C31.1589 35.2234 30.9762 36.2717 32.0174 36.496C33.2869 36.7706 33.666 35.8048 33.666 35.8048C33.6066 36.322 32.9901 36.8485 32.4512 37.1506C32.022 37.3932 31.6384 37.5076 31.6384 37.5076" fill="url(#paint3_linear_2002_1363)"/>
<path d="M37.0047 34.7748C37.0047 34.7748 36.2147 35.1182 36.2147 35.5668C36.2147 36.0154 35.3881 36.3953 35.3881 36.3953C35.3881 36.3953 34.9132 35.0587 35.9726 34.7062C37.0321 34.3537 37.0047 34.7748 37.0047 34.7748Z" fill="#E9CE8B"/>
<path d="M28.9493 30.9707H27.1729V30.6503C27.319 30.6503 27.4331 30.6319 27.5108 30.5953C27.5884 30.5587 27.6341 30.4992 27.6615 30.426C27.6843 30.3527 27.698 30.2429 27.698 30.1055V27.1897C27.698 26.9883 27.666 26.8464 27.6021 26.764C27.5382 26.6816 27.3966 26.6404 27.1774 26.6404V26.3199H28.9538V26.6404C28.8077 26.6404 28.6935 26.6587 28.6159 26.6999C28.5383 26.7365 28.4926 26.796 28.4652 26.8692C28.4424 26.9425 28.4287 27.0523 28.4287 27.1897V30.1055C28.4287 30.2383 28.4378 30.3436 28.4606 30.4168C28.4835 30.49 28.5291 30.5495 28.6022 30.5907C28.6753 30.6319 28.7894 30.6503 28.9447 30.6503V30.9707H28.9493Z" fill="#5B3926"/>
<path d="M32.8542 30.9204H32.6076C32.571 30.7236 32.5117 30.5497 32.4295 30.394C32.2971 30.5726 32.1464 30.7282 31.982 30.8564C31.813 30.9845 31.5847 31.0486 31.297 31.0486C30.9819 31.0486 30.6896 30.9479 30.4202 30.7419C30.1507 30.5359 29.9361 30.2521 29.7763 29.8905C29.6165 29.5243 29.5388 29.1123 29.5388 28.6546C29.5388 28.3296 29.5799 28.0183 29.6667 27.7254C29.7534 27.4278 29.8767 27.1715 30.0366 26.9472C30.1964 26.7229 30.3882 26.5489 30.612 26.4208C30.8357 26.2926 31.0778 26.2285 31.3426 26.2285C31.781 26.2285 32.1418 26.4208 32.4295 26.8007C32.466 26.7 32.5025 26.5581 32.5391 26.3704H32.772L32.8131 28.0824H32.5665C32.5208 27.794 32.4386 27.5331 32.3244 27.3088C32.2057 27.0845 32.0687 26.9106 31.9089 26.7915C31.7491 26.6725 31.5801 26.613 31.402 26.613C31.2056 26.613 31.0275 26.6863 30.8723 26.8282C30.717 26.9701 30.5937 27.1898 30.5024 27.4827C30.4156 27.7757 30.3699 28.1419 30.3699 28.5768C30.3699 29.0025 30.4065 29.3549 30.4795 29.6387C30.5526 29.9225 30.6439 30.1331 30.7535 30.2796C30.8631 30.4261 30.9727 30.5222 31.0823 30.5726C31.1919 30.6229 31.297 30.6504 31.3929 30.6504C31.6029 30.6504 31.7947 30.5771 31.9637 30.4215C32.1327 30.2704 32.2742 30.0782 32.3792 29.8493C32.4888 29.6204 32.5619 29.3916 32.5984 29.1627H32.845V30.9204H32.8542Z" fill="#5B3926"/>
<path d="M36.9775 30.9204H36.7355C36.699 30.7236 36.6396 30.5497 36.5574 30.394C36.425 30.5726 36.2743 30.7282 36.1099 30.8564C35.9409 30.9845 35.7126 31.0486 35.4249 31.0486C35.1098 31.0486 34.8175 30.9479 34.5481 30.7419C34.2787 30.5359 34.064 30.2521 33.9042 29.8905C33.7444 29.5243 33.6667 29.1123 33.6667 28.6546C33.6667 28.3296 33.7078 28.0183 33.7946 27.7254C33.8814 27.4278 34.0047 27.1715 34.1645 26.9472C34.3243 26.7229 34.5161 26.5489 34.7399 26.4208C34.9637 26.2926 35.2057 26.2285 35.4706 26.2285C35.909 26.2285 36.2697 26.4208 36.5574 26.8007C36.5939 26.7 36.6305 26.5581 36.667 26.3704H36.8999L36.941 28.0824H36.6944C36.6487 27.794 36.5665 27.5331 36.4524 27.3088C36.3336 27.0845 36.1966 26.9106 36.0368 26.7915C35.877 26.6725 35.708 26.613 35.5299 26.613C35.3336 26.613 35.1555 26.6863 35.0002 26.8282C34.8449 26.9701 34.7216 27.1898 34.6303 27.4827C34.5435 27.7757 34.4979 28.1419 34.4979 28.5768C34.4979 29.0025 34.5344 29.3549 34.6075 29.6387C34.6805 29.9225 34.7719 30.1331 34.8815 30.2796C34.9911 30.4261 35.1007 30.5222 35.2103 30.5726C35.3199 30.6229 35.4249 30.6504 35.5208 30.6504C35.7309 30.6504 35.9227 30.5771 36.0916 30.4215C36.2606 30.2704 36.4021 30.0782 36.5072 29.8493C36.6168 29.6204 36.6898 29.3916 36.7264 29.1627H36.973V30.9204H36.9775Z" fill="#5B3926"/>
</g>
<defs>
<linearGradient id="paint0_linear_2002_1363" x1="21.5421" y1="22.2121" x2="5.54254" y2="31.4275" gradientUnits="userSpaceOnUse">
<stop offset="0.0275" stop-color="#847B6F"/>
<stop offset="0.2527" stop-color="#B6997C"/>
<stop offset="0.3058" stop-color="#C4A881"/>
<stop offset="0.4612" stop-color="#EAD08F"/>
<stop offset="0.544" stop-color="#F9E093"/>
<stop offset="0.6186" stop-color="#ECD28F"/>
<stop offset="0.7525" stop-color="#CBAF84"/>
<stop offset="0.8297" stop-color="#B6997C"/>
<stop offset="0.9945" stop-color="#847B6F"/>
</linearGradient>
<linearGradient id="paint1_linear_2002_1363" x1="42.4606" y1="22.2121" x2="58.46" y2="31.4274" gradientUnits="userSpaceOnUse">
<stop offset="0.0275" stop-color="#847B6F"/>
<stop offset="0.2527" stop-color="#B6997C"/>
<stop offset="0.3058" stop-color="#C4A881"/>
<stop offset="0.4612" stop-color="#EAD08F"/>
<stop offset="0.544" stop-color="#F9E093"/>
<stop offset="0.6186" stop-color="#ECD28F"/>
<stop offset="0.7525" stop-color="#CBAF84"/>
<stop offset="0.8297" stop-color="#B6997C"/>
<stop offset="0.9945" stop-color="#847B6F"/>
</linearGradient>
<linearGradient id="paint2_linear_2002_1363" x1="21.2326" y1="34.9753" x2="42.7204" y2="34.9753" gradientUnits="userSpaceOnUse">
<stop offset="0.0275" stop-color="#847B6F"/>
<stop offset="0.2527" stop-color="#B6997C"/>
<stop offset="0.3058" stop-color="#C4A881"/>
<stop offset="0.4612" stop-color="#EAD08F"/>
<stop offset="0.544" stop-color="#F9E093"/>
<stop offset="0.6186" stop-color="#ECD28F"/>
<stop offset="0.7525" stop-color="#CBAF84"/>
<stop offset="0.8297" stop-color="#B6997C"/>
<stop offset="0.9945" stop-color="#847B6F"/>
</linearGradient>
<linearGradient id="paint3_linear_2002_1363" x1="29.2018" y1="39.4469" x2="35.8884" y2="39.4469" gradientUnits="userSpaceOnUse">
<stop stop-color="#B6997C"/>
<stop offset="1" stop-color="#F9E093"/>
</linearGradient>
<clipPath id="clip0_2002_1363">
<rect width="64" height="64" fill="white"/>
</clipPath>
</defs>
</svg>
