<svg width="300" height="52" viewBox="0 0 300 52" fill="none" xmlns="http://www.w3.org/2000/svg">
  <path d="M35.6851 20.8867C35.4896 20.8867 35.3251 20.8918 35.2326 20.9021C35.1246 21.0975 34.9652 21.3597 34.7286 21.7249C38.4104 21.7249 41.7529 22.0282 45.4501 22.6915L44.4062 23.6994C41.0689 23.1081 38.2973 22.8716 34.7646 22.8716C34.2505 22.8716 34.1425 22.8716 34.0191 22.8767C33.8956 23.0618 33.6179 23.4217 33.3403 23.756C33.6539 23.7355 34.2607 23.7252 35.0988 23.7252C38.0042 23.7252 40.7192 23.9411 43.6658 24.4143L42.6218 25.4272C40.3798 25.0776 37.6391 24.877 35.1811 24.877C34.3069 24.877 33.3145 24.9079 32.4249 24.9593C32.2244 25.1907 31.6999 25.7564 31.5405 25.9311C32.718 25.8078 34.0139 25.7512 35.5565 25.7512C37.7523 25.7512 39.8503 25.8952 41.8351 26.1883L40.7912 27.191C39.3772 27.0162 37.6596 26.9134 36.1428 26.9134C32.2296 26.9134 29.1442 27.7617 25.956 29.7107C28.9951 32.9708 33.9728 35.0328 38.7961 35.0328H39.2486L37.562 36.6631C30.6046 35.3568 23.2821 32.2972 17.0961 28.1062C11.1466 24.0902 9.06406 22.9025 4.42069 20.8508L4.38985 19.6577L7.53171 21.005L8.60129 20.1565L18.8599 24.8565L18.1914 25.3912L12.9258 23.103L12.4065 23.5092L15.1422 25.0364C17.451 26.3221 19.2095 26.8979 20.8345 26.8979C24.3878 26.8979 27.5759 24.3782 29.6327 19.9509C31.1806 19.7502 32.8312 19.6577 34.816 19.6577C38.8886 19.6577 42.8429 20.0485 47.3218 20.8867L46.2316 21.9408C43.4447 21.3597 38.7086 20.8867 35.6851 20.8867ZM25.7144 50.1713C12.3687 50.1713 1.54299 39.3456 1.54299 26C1.54299 12.6543 12.3687 1.82846 25.7144 1.82846C39.06 1.82846 49.8857 12.6543 49.8857 26C49.8857 39.3456 39.06 50.1713 25.7144 50.1713ZM25.7144 0.285709C11.4945 0.285709 0 11.7799 0 26C0 40.22 11.4945 51.7143 25.7144 51.7143C39.9344 51.7143 51.4287 40.22 51.4287 26C51.4287 11.7799 39.9344 0.285709 25.7144 0.285709ZM93.649 36.2368H108.392V43.1429H85.7144V8.857H93.649V36.2368ZM126.22 18.4571H133.616V43.1429H126.661V40.3021C125.633 42.2123 123.527 43.8775 119.657 43.8775C113.339 43.8775 110.057 41.0366 110.057 32.9061V18.4571H117.453V32.5631C117.453 35.8449 118.874 37.3141 121.861 37.3141C124.555 37.3141 126.22 35.8449 126.22 32.5631V18.4571ZM139.298 17.5266C139.298 11.5512 143.07 8.36726 148.996 8.36726C150.907 8.36726 152.131 8.66118 152.131 8.66118V14.6366C152.131 14.6366 151.102 14.539 150.22 14.539C147.919 14.539 146.694 15.3226 146.694 17.4776V18.4571H152.131V24.4816H146.694V43.1429H139.298V24.4816H135.576V18.4571H139.298V17.5266ZM165.159 18.4571H170.791V24.4816H165.159V34.0816C165.159 36.7266 166.53 37.4123 168.686 37.4123C169.567 37.4123 170.791 37.2655 170.791 37.2655V43.1919C170.791 43.1919 169.077 43.5835 167.266 43.5835C161.339 43.5835 157.764 40.8898 157.764 34.9145V24.4816H154.041V18.4571H157.764V11.2572H165.159V18.4571ZM187.166 17.7225C193.436 17.7225 196.717 20.5631 196.717 28.6938V43.1429H189.321V29.0366C189.321 25.7551 187.901 24.2859 184.816 24.2859C182.023 24.2859 180.359 25.7551 180.359 29.0366V43.1429H172.962V8.90611H180.407V20.8571C181.681 19.0447 183.689 17.7225 187.166 17.7225ZM215.574 33.5428C215.574 36.2368 213.027 38.2451 209.109 38.2451C207.199 38.2451 206.072 37.3634 206.072 35.6979C206.072 34.4245 206.856 33.3471 209.355 33.0044L213.616 32.4164C214.35 32.3183 215.134 32.1716 215.574 32.0246V33.5428ZM211.46 17.7226C204.162 17.7226 200.635 20.5145 200.342 25.7553H207.542C207.639 24.3837 208.423 23.3551 211.46 23.3551C214.154 23.3551 215.428 24.237 215.428 25.5591C215.428 26.735 214.692 27.1756 212.88 27.3714L208.179 27.8612C201.811 28.5467 198.921 31.1918 198.921 35.9921C198.921 40.4491 201.664 43.8775 207.493 43.8775C211.46 43.8775 213.812 42.6041 215.868 40.0569V43.1429H222.628V26.9307C222.628 20.1225 218.661 17.7226 211.46 17.7226ZM239.729 17.7225C246.146 17.7225 249.427 20.5631 249.427 28.6938V43.1429H242.031V29.0366C242.031 25.7551 240.611 24.2859 237.526 24.2859C234.733 24.2859 233.069 25.7551 233.069 29.0366V43.1429H225.672V18.4572H232.627V21.2982C233.656 19.3877 235.762 17.7225 239.729 17.7225ZM265.029 27.6652C271.298 28.4981 274.433 30.4572 274.433 35.6001C274.433 40.792 270.76 43.8776 262.972 43.8776C254.499 43.8776 251.51 40.4983 251.364 35.5508H258.662C258.858 37.3634 260.13 38.2451 262.972 38.2451C265.861 38.2451 267.037 37.5591 267.037 36.1879C267.037 34.9145 266.057 34.3268 263.511 33.9839L260.914 33.6408C255.477 32.9062 252.344 30.8002 252.344 25.9021C252.344 21.2001 255.821 17.7225 263.119 17.7225C269.878 17.7225 273.503 20.4163 273.845 25.7551H266.645C266.401 24.335 265.617 23.4532 263.119 23.4532C260.67 23.4532 259.74 24.2859 259.74 25.3636C259.74 26.4408 260.328 27.0287 262.433 27.3227L265.029 27.6652ZM292.947 33.5433C292.947 36.2369 290.4 38.2451 286.482 38.2451C284.571 38.2451 283.445 37.3634 283.445 35.6979C283.445 34.4245 284.229 33.3471 286.727 33.0044L290.988 32.4164C291.723 32.3188 292.506 32.1716 292.947 32.0246V33.5433ZM288.832 17.7226C281.535 17.7226 278.008 20.5145 277.715 25.7553H284.915C285.013 24.3837 285.797 23.3554 288.832 23.3554C291.527 23.3554 292.801 24.237 292.801 25.5594C292.801 26.735 292.065 27.1756 290.254 27.3714L285.551 27.8612C279.184 28.5471 276.295 31.192 276.295 35.9921C276.295 40.4491 279.036 43.8775 284.865 43.8775C288.832 43.8775 291.184 42.6041 293.241 40.0569V43.1429H300V26.9307C300 20.1229 296.033 17.7226 288.832 17.7226Z" fill="#000000"></path>
</svg>
