<svg width="64" height="64" viewBox="0 0 64 64" fill="none" xmlns="http://www.w3.org/2000/svg">
<g clip-path="url(#clip0_1_119)">
<path d="M44.1454 25.6368C43.9021 25.6368 43.6974 25.6431 43.5823 25.6559C43.4479 25.8991 43.2495 26.2254 42.9551 26.6798C47.5368 26.6798 51.6964 27.0573 56.2973 27.8828L54.9983 29.1371C50.8452 28.4012 47.3961 28.1069 42.9999 28.1069C42.3601 28.1069 42.2257 28.1069 42.0721 28.1132C41.9184 28.3435 41.5728 28.7915 41.2274 29.2075C41.6177 29.1819 42.3729 29.1691 43.4158 29.1691C47.0314 29.1691 50.4101 29.4378 54.0769 30.0266L52.7777 31.2872C49.9877 30.8521 46.577 30.6025 43.5182 30.6025C42.4304 30.6025 41.1954 30.6409 40.0883 30.7049C39.8387 30.9928 39.1861 31.6968 38.9877 31.9143C40.453 31.7607 42.0657 31.6903 43.9854 31.6903C46.7179 31.6903 49.3288 31.8696 51.7988 32.2343L50.4996 33.4821C48.7399 33.2646 46.6026 33.1366 44.7149 33.1366C39.8452 33.1366 36.0056 34.1924 32.0381 36.6177C35.82 40.6748 42.0145 43.2408 48.0168 43.2408H48.5799L46.4811 45.2696C37.823 43.644 28.7106 39.8365 21.0125 34.621C13.6086 29.6234 11.017 28.1453 5.23861 25.5921L5.20022 24.1073L9.11009 25.784L10.4411 24.7281L23.2073 30.5769L22.3754 31.2424L15.8228 28.3949L15.1764 28.9003L18.5809 30.8009C21.4541 32.4008 23.6425 33.1174 25.6647 33.1174C30.0865 33.1174 34.054 29.9818 36.6136 24.4722C38.5398 24.2225 40.5939 24.1073 43.0639 24.1073C48.132 24.1073 53.0529 24.5937 58.6266 25.6368L57.27 26.9485C53.8017 26.2254 47.908 25.6368 44.1454 25.6368ZM31.7374 62.0798C15.1295 62.0798 1.65747 48.6078 1.65747 31.9999C1.65747 15.392 15.1295 1.91986 31.7374 1.91986C48.3453 1.91986 61.8173 15.392 61.8173 31.9999C61.8173 48.6078 48.3453 62.0798 31.7374 62.0798ZM31.7374 0C14.0415 0 -0.262695 14.3039 -0.262695 31.9999C-0.262695 49.6959 14.0415 64 31.7374 64C49.4334 64 63.7374 49.6959 63.7374 31.9999C63.7374 14.3039 49.4334 0 31.7374 0ZM116.278 44.7391H134.625V53.3334H106.404V10.6665H116.278V44.7391ZM156.812 22.6133H166.015V53.3334H157.36V49.7981C156.08 52.1753 153.459 54.2475 148.644 54.2475C140.781 54.2475 136.697 50.7122 136.697 40.5942V22.6133H145.901V40.1674C145.901 44.2514 147.669 46.0797 151.387 46.0797C154.739 46.0797 156.812 44.2514 156.812 40.1674V22.6133ZM173.086 21.4553C173.086 14.0193 177.78 10.057 185.155 10.057C187.532 10.057 189.056 10.4228 189.056 10.4228V17.8589C189.056 17.8589 187.776 17.7374 186.678 17.7374C183.814 17.7374 182.29 18.7126 182.29 21.3944V22.6133H189.056V30.1105H182.29V53.3334H173.086V30.1105H168.454V22.6133H173.086V21.4553ZM205.268 22.6133H212.277V30.1105H205.268V42.0571C205.268 45.3487 206.975 46.2019 209.657 46.2019C210.754 46.2019 212.277 46.0192 212.277 46.0192V53.3943C212.277 53.3943 210.145 53.8817 207.89 53.8817C200.514 53.8817 196.065 50.5295 196.065 43.0936V30.1105H191.432V22.6133H196.065V13.6534H205.268V22.6133ZM232.655 21.699C240.458 21.699 244.541 25.2341 244.541 35.3523V53.3334H235.337V35.7788C235.337 31.6953 233.57 29.8669 229.73 29.8669C226.255 29.8669 224.183 31.6953 224.183 35.7788V53.3334H214.979V10.7276H224.244V25.5999C225.829 23.3445 228.327 21.699 232.655 21.699ZM268.007 41.3866C268.007 44.7391 264.837 47.2383 259.962 47.2383C257.585 47.2383 256.182 46.1411 256.182 44.0685C256.182 42.4838 257.158 41.143 260.267 40.7166L265.57 39.9848C266.484 39.8627 267.459 39.6801 268.007 39.4972V41.3866ZM262.888 21.6992C253.806 21.6992 249.416 25.1736 249.052 31.6954H258.011C258.133 29.9885 259.108 28.7085 262.888 28.7085C266.24 28.7085 267.825 29.806 267.825 31.4513C267.825 32.9146 266.91 33.463 264.655 33.7066L258.804 34.3161C250.879 35.1692 247.284 38.4609 247.284 44.4346C247.284 49.981 250.697 54.2475 257.951 54.2475C262.888 54.2475 265.814 52.6628 268.373 49.493V53.3334H276.785V33.1582C276.785 24.6858 271.848 21.6992 262.888 21.6992ZM298.067 21.699C306.052 21.699 310.136 25.2341 310.136 35.3523V53.3334H300.931V35.7788C300.931 31.6953 299.164 29.8669 295.324 29.8669C291.849 29.8669 289.778 31.6953 289.778 35.7788V53.3334H280.574V22.6134H289.229V26.1488C290.509 23.7714 293.13 21.699 298.067 21.699ZM329.551 34.0723C337.352 35.1087 341.254 37.5467 341.254 43.9467C341.254 50.4077 336.682 54.2476 326.991 54.2476C316.447 54.2476 312.727 50.0423 312.545 43.8855H321.628C321.871 46.1411 323.455 47.2383 326.991 47.2383C330.586 47.2383 332.049 46.3847 332.049 44.6782C332.049 43.0936 330.83 42.3622 327.662 41.9355L324.43 41.5085C317.664 40.5944 313.765 37.9736 313.765 31.8782C313.765 26.0267 318.092 21.699 327.174 21.699C335.585 21.699 340.096 25.0514 340.522 31.6953H331.562C331.258 29.928 330.282 28.8306 327.174 28.8306C324.126 28.8306 322.969 29.8669 322.969 31.208C322.969 32.5486 323.7 33.2801 326.321 33.646L329.551 34.0723ZM364.294 41.3872C364.294 44.7392 361.124 47.2383 356.248 47.2383C353.87 47.2383 352.469 46.1411 352.469 44.0685C352.469 42.4838 353.444 41.143 356.552 40.7166L361.855 39.9848C362.77 39.8633 363.744 39.6801 364.294 39.4972V41.3872ZM359.173 21.6992C350.092 21.6992 345.703 25.1736 345.337 31.6954H354.298C354.42 29.9885 355.395 28.709 359.173 28.709C362.526 28.709 364.111 29.806 364.111 31.4517C364.111 32.9146 363.196 33.463 360.941 33.7066L355.089 34.3161C347.166 35.1697 343.57 38.4611 343.57 44.4346C343.57 49.981 346.982 54.2475 354.236 54.2475C359.173 54.2475 362.099 52.6628 364.659 49.493V53.3334H373.07V33.1582C373.07 24.6862 368.133 21.6992 359.173 21.6992Z" fill="#FDC441"/>
</g>
<defs>
<clipPath id="clip0_1_119">
<rect width="64" height="64" fill="white"/>
</clipPath>
</defs>
</svg>
