<svg width="543" height="64" viewBox="0 0 543 64" fill="none" xmlns="http://www.w3.org/2000/svg">
<g clip-path="url(#clip0_1_36)">
<g clip-path="url(#clip1_1_36)">
<path fill-rule="evenodd" clip-rule="evenodd" d="M117.106 62.7618L100.169 40.9951H93.7992V62.7618H74.3781V5.46973H103.276C124.407 5.46973 137.925 11.4437 137.925 23.3137C137.925 31.3353 130.154 36.3209 119.594 38.9406L138.233 62.7585H117.106V62.7618ZM93.7992 15.4545V31.4165H103.432C113.376 31.4165 118.5 28.7122 118.5 23.4727C118.504 18.3213 113.999 15.4545 102.345 15.4545H93.7992Z" fill="#2B4779"/>
<path d="M186.573 41.1508V62.7551H167.155V41.3133L139.184 5.46634H160.629L169.016 17.0859C172.594 22.0749 176.168 27.7272 177.099 30.4282C178.185 27.7272 181.76 21.8312 185.178 17.0859L193.569 5.46634H214.696L186.573 41.1474V41.1508Z" fill="#2B4779"/>
<path fill-rule="evenodd" clip-rule="evenodd" d="M260.003 62.7618L254.879 50.814H230.489L225.364 62.7618H205.476L233.284 5.46973H252.242L280.047 62.7618H260.003ZM247.737 34.4458C245.869 30.0254 243.384 23.3915 242.609 20.5315C241.831 23.4761 239.658 29.6159 237.637 34.2799L234.686 41.2422H250.688L247.737 34.4458Z" fill="#2B4779"/>
<path d="M332.885 62.7618L312.844 37.228C310.045 33.6267 306.626 28.9592 304.609 25.6051C304.765 29.1285 304.917 35.0178 304.917 38.6157V62.7618H287.205V5.47649H306.782L325.892 30.6042C328.535 34.0362 332.421 39.3603 334.438 42.552C334.283 39.032 333.819 32.811 333.819 29.2063V5.47649H351.531V62.7618H332.885Z" fill="#2B4779"/>
<path fill-rule="evenodd" clip-rule="evenodd" d="M414.228 62.7618L409.097 50.814H384.707L379.579 62.7618H359.694L387.503 5.46973H406.46L434.269 62.7618H414.228ZM401.952 34.4458C400.09 30.0254 397.606 23.3915 396.824 20.5315C396.049 23.4761 393.873 29.6159 391.852 34.2799L388.901 41.2422H404.907L401.952 34.4458Z" fill="#2B4779"/>
<path d="M441.888 5.45959H461.305V62.7517H441.888V5.45959Z" fill="#2B4779"/>
<path fill-rule="evenodd" clip-rule="evenodd" d="M520.76 62.7618L503.82 40.9951H497.453V62.7618H478.029V5.46973H506.927C528.057 5.46973 541.572 11.4437 541.572 23.3137C541.572 31.3353 533.808 36.3209 523.244 38.9406L541.884 62.7585H520.757L520.76 62.7618ZM497.453 15.4545V31.4165H507.083C517.027 31.4165 522.151 28.7122 522.151 23.4727C522.151 18.3213 517.65 15.4545 505.996 15.4545H497.453Z" fill="#2B4779"/>
<path d="M42.5892 3.42872C46.6135 4.77581 50.8714 5.80814 55.2139 6.3023L58.2398 6.32937L58.3346 6.24476C60.1454 6.29553 61.4823 5.50013 63.2457 5.1109C63.4353 5.0669 63.8888 4.95182 64.0818 5.20905C64.1698 5.54752 64.031 5.91306 63.6519 6.16352C61.4959 7.81862 58.9235 9.04725 56.5001 9.93065V9.88326C55.7047 10.0356 54.8518 10.3774 54.0259 10.6516C51.0407 11.5553 47.6425 12.1239 44.4304 11.8937C38.2771 11.5756 33.0478 9.37556 27.6154 9.63618C22.2812 9.32141 17.211 11.3657 14.3713 15.3935C12.9125 17.5021 11.7549 19.7258 11.3928 22.173C11.5552 24.3865 14.659 25.2361 15.8199 27.0672C16.4867 28.174 16.8184 29.3958 17.3193 30.5432C18.6089 32.8583 19.8849 35.1734 21.4689 37.3531L21.4283 37.3971C22.3557 38.8559 23.8348 40.115 25.5813 40.9713C27.849 42.596 29.8493 44.6302 31.0373 46.8133L30.9764 46.8505C32.3134 48.9862 33.0647 51.2032 34.1005 53.4303C34.5642 54.7977 35.0786 56.0026 35.4746 57.3328C35.6134 57.458 35.6134 57.6577 35.6912 57.8337C36.0568 58.8863 36.3716 60.01 36.8183 60.9848C36.6254 61.1337 36.9673 61.1879 36.9266 61.3334C36.9503 61.9224 37.5257 62.8092 36.7574 63.2085C35.6405 62.2168 35.0515 60.7648 34.4491 59.7088C33.1291 57.4005 31.6161 55.17 29.9847 52.9767L30.0355 52.9327C29.037 51.6736 27.9302 50.2555 26.7862 48.9524C21.9665 43.608 14.8857 40.396 9.70722 35.3088L9.65645 35.3528C9.21645 34.9568 8.93214 34.4322 8.57336 33.9786L8.61059 33.9313C7.97766 33.0445 7.60535 32.0358 6.99273 31.1288L7.02996 31.0848C5.42563 28.6952 3.88561 26.1567 2.84991 23.6419C2.63329 22.5317 2.25421 21.5739 2.16959 20.2911L2.04774 19.8714C2.11544 18.7071 -0.775063 18.0301 0.815727 15.7929C1.8142 14.7132 5.6761 13.3864 6.98934 11.359C7.0198 11.0577 7.0875 10.699 6.82688 10.4248C6.82688 10.2082 6.60349 9.97803 6.4478 9.75465C5.71671 8.84417 3.73669 9.56511 3.76715 8.2214C3.97023 8.21124 3.7773 8.03186 3.91269 7.95739C3.80099 7.294 3.75699 6.85399 3.94315 6.29553C4.34254 5.19551 4.73178 3.92627 4.65393 2.8161C4.73516 2.39978 5.15147 2.14932 5.57117 1.98686C6.39364 1.78039 7.11119 1.6687 7.92012 1.56039L8.02166 1.64501C9.88323 1.48931 12.1239 1.6247 13.3593 3.09025C13.894 4.20381 13.4777 5.52382 13.1765 6.64415C13.0817 7.29061 12.3777 7.81524 12.5402 8.49555C12.7873 8.74602 13.3017 8.73248 13.6267 8.59371C16.4427 6.88446 18.9 4.51181 20.9477 2.11886C22.8363 0.348682 25.6185 -0.263941 28.1773 0.101602C33.3592 0.504376 37.739 2.24409 42.5723 3.42534L42.5892 3.42872Z" fill="#F4CA35"/>
<path d="M29.23 12.7976C29.9611 13.769 28.9829 14.6287 28.6918 15.485C25.649 20.0577 24.5896 25.243 22.569 30.1439C22.42 30.3132 22.1188 30.3639 21.9022 30.2963C21.364 29.9104 21.364 29.2775 21.4283 28.7224C21.8311 23.4085 23.2324 18.4229 25.4899 13.6742C26.0179 12.9126 26.9182 12.0529 28.0792 12.2323C28.5192 12.3237 28.9084 12.476 29.23 12.7976Z" fill="#F4CA35"/>
<path d="M37.2448 14.1854C37.634 15.9319 36.3817 17.3636 35.8266 18.9273C32.8684 24.8437 29.3145 30.6382 27.5613 36.9642C27.4801 37.1638 27.3616 37.438 27.128 37.526C26.8776 37.5937 26.6677 37.4685 26.6 37.2925C26.0077 34.7777 26.6914 32.1613 27.3345 29.7684C29.0235 24.4578 31.061 19.0255 33.9143 14.0839C34.246 13.8334 34.2968 13.6168 34.7097 13.5017C35.7014 13.3968 36.6965 13.4712 37.2448 14.1854Z" fill="#F4CA35"/>
<path d="M45.8045 14.4831C46.6033 15.0822 46.1904 16.2195 45.879 16.9269C42.4097 24.6202 36.7912 31.2541 34.4659 39.3231C33.8262 41.0324 33.4099 42.8026 32.8752 44.5254C32.7804 44.8334 32.3268 44.8435 32.0053 44.7691C31.6973 44.038 31.7887 43.1072 31.7887 42.3152C32.5198 35.8336 34.0666 29.5347 37.2278 23.8891C38.6663 21.0697 40.0574 18.5346 41.5636 15.7828C41.99 15.0044 42.7042 14.3004 43.7399 14.0465C44.5015 13.9991 45.2359 14.1785 45.8045 14.4831Z" fill="#F4CA35"/>
<path d="M55.3054 14.8791C55.8605 15.8099 55.3257 16.8388 55.0719 17.729C52.8651 23.9128 48.7392 29.0304 45.4256 34.6625C42.5893 39.2893 40.7311 44.4306 38.8424 49.4534C38.1892 50.963 37.9557 52.6384 37.1603 54.0735C37.096 54.2258 36.8929 54.1344 36.7541 54.175C36.2667 53.7621 36.331 53.1731 36.2159 52.6553C36.5883 46.3632 39.0117 40.6804 41.2828 35.0043C44.1293 28.675 47.9438 22.63 50.5364 16.0841C50.8952 15.2616 51.6094 14.2496 52.7094 13.9382C53.8128 13.7723 54.6488 14.1717 55.3054 14.8791Z" fill="#F4CA35"/>
</g>
</g>
<defs>
<clipPath id="clip0_1_36">
<rect width="542.222" height="64" fill="white"/>
</clipPath>
<clipPath id="clip1_1_36">
<rect width="542.222" height="63.2931" fill="white"/>
</clipPath>
</defs>
</svg>
