<svg width="543" height="64" viewBox="0 0 543 64" fill="none" xmlns="http://www.w3.org/2000/svg">
<g clip-path="url(#clip0_2004_3715)">
<g clip-path="url(#clip1_2004_3715)">
<path fill-rule="evenodd" clip-rule="evenodd" d="M117.106 62.7618L100.169 40.9951H93.7992V62.7618H74.3781V5.46973H103.276C124.407 5.46973 137.925 11.4437 137.925 23.3137C137.925 31.3353 130.154 36.3209 119.594 38.9406L138.233 62.7585H117.106V62.7618ZM93.7992 15.4545V31.4165H103.432C113.376 31.4165 118.5 28.7122 118.5 23.4727C118.504 18.3213 113.999 15.4545 102.345 15.4545H93.7992Z" fill="white"/>
<path d="M186.573 41.1508V62.7551H167.155V41.3133L139.184 5.46634H160.629L169.016 17.0859C172.594 22.0749 176.168 27.7272 177.099 30.4282C178.185 27.7272 181.76 21.8312 185.178 17.0859L193.569 5.46634H214.696L186.573 41.1474V41.1508Z" fill="white"/>
<path fill-rule="evenodd" clip-rule="evenodd" d="M260.003 62.7618L254.879 50.814H230.489L225.364 62.7618H205.476L233.284 5.46973H252.242L280.047 62.7618H260.003ZM247.737 34.4458C245.869 30.0254 243.384 23.3915 242.609 20.5315C241.831 23.4761 239.658 29.6159 237.637 34.2799L234.686 41.2422H250.688L247.737 34.4458Z" fill="white"/>
<path d="M332.885 62.7618L312.844 37.228C310.045 33.6267 306.626 28.9592 304.609 25.6051C304.765 29.1285 304.917 35.0178 304.917 38.6157V62.7618H287.205V5.47649H306.782L325.892 30.6042C328.535 34.0362 332.421 39.3603 334.438 42.552C334.282 39.032 333.819 32.811 333.819 29.2063V5.47649H351.531V62.7618H332.885Z" fill="white"/>
<path fill-rule="evenodd" clip-rule="evenodd" d="M414.228 62.7618L409.097 50.814H384.707L379.579 62.7618H359.694L387.503 5.46973H406.46L434.269 62.7618H414.228ZM401.952 34.4458C400.09 30.0254 397.606 23.3915 396.824 20.5315C396.049 23.4761 393.873 29.6159 391.852 34.2799L388.901 41.2422H404.907L401.952 34.4458Z" fill="white"/>
<path d="M441.888 5.45959H461.305V62.7517H441.888V5.45959Z" fill="white"/>
<path fill-rule="evenodd" clip-rule="evenodd" d="M520.76 62.7618L503.82 40.9951H497.453V62.7618H478.029V5.46973H506.927C528.057 5.46973 541.572 11.4437 541.572 23.3137C541.572 31.3353 533.808 36.3209 523.245 38.9406L541.884 62.7585H520.757L520.76 62.7618ZM497.453 15.4545V31.4165H507.083C517.027 31.4165 522.151 28.7122 522.151 23.4727C522.151 18.3213 517.65 15.4545 505.996 15.4545H497.453Z" fill="white"/>
<path d="M42.5892 3.42872C46.6136 4.77581 50.8715 5.80814 55.214 6.3023L58.2399 6.32937L58.3347 6.24476C60.1455 6.29553 61.4824 5.50013 63.2458 5.1109C63.4353 5.0669 63.8889 4.95182 64.0818 5.20905C64.1698 5.54752 64.031 5.91306 63.652 6.16352C61.4959 7.81862 58.9236 9.04725 56.5002 9.93065V9.88326C55.7048 10.0356 54.8518 10.3774 54.026 10.6516C51.0407 11.5553 47.6425 12.1239 44.4305 11.8937C38.2772 11.5756 33.0479 9.37556 27.6155 9.63618C22.2813 9.32141 17.2111 11.3657 14.3713 15.3935C12.9126 17.5021 11.755 19.7258 11.3928 22.173C11.5553 24.3865 14.659 25.2361 15.82 27.0672C16.4868 28.174 16.8184 29.3958 17.3194 30.5432C18.6089 32.8583 19.8849 35.1734 21.469 37.3531L21.4284 37.3971C22.3557 38.8559 23.8348 40.115 25.5813 40.9713C27.8491 42.596 29.8494 44.6302 31.0374 46.8133L30.9765 46.8505C32.3134 48.9862 33.0648 51.2032 34.1005 53.4303C34.5642 54.7977 35.0787 56.0026 35.4747 57.3328C35.6135 57.458 35.6135 57.6577 35.6913 57.8337C36.0568 58.8863 36.3716 60.01 36.8184 60.9848C36.6255 61.1337 36.9673 61.1879 36.9267 61.3334C36.9504 61.9224 37.5258 62.8092 36.7575 63.2085C35.6405 62.2168 35.0516 60.7648 34.4491 59.7088C33.1291 57.4005 31.6162 55.17 29.9848 52.9767L30.0355 52.9327C29.0371 51.6736 27.9303 50.2555 26.7863 48.9524C21.9665 43.608 14.8858 40.396 9.70728 35.3088L9.65651 35.3528C9.21651 34.9568 8.9322 34.4322 8.57342 33.9786L8.61065 33.9313C7.97772 33.0445 7.60541 32.0358 6.99279 31.1288L7.03002 31.0848C5.42569 28.6952 3.88567 26.1567 2.84997 23.6419C2.63335 22.5317 2.25427 21.5739 2.16965 20.2911L2.0478 19.8714C2.1155 18.7071 -0.775001 18.0301 0.815788 15.7929C1.81426 14.7132 5.67616 13.3864 6.9894 11.359C7.01987 11.0577 7.08756 10.699 6.82694 10.4248C6.82694 10.2082 6.60355 9.97803 6.44786 9.75465C5.71677 8.84417 3.73675 9.56511 3.76721 8.2214C3.97029 8.21124 3.77736 8.03186 3.91275 7.95739C3.80106 7.294 3.75705 6.85399 3.94321 6.29553C4.3426 5.19551 4.73184 3.92627 4.65399 2.8161C4.73522 2.39978 5.15153 2.14932 5.57123 1.98686C6.3937 1.78039 7.11125 1.6687 7.92018 1.56039L8.02172 1.64501C9.88329 1.48931 12.1239 1.6247 13.3593 3.09025C13.8941 4.20381 13.4778 5.52382 13.1766 6.64415C13.0818 7.29061 12.3778 7.81524 12.5402 8.49555C12.7873 8.74602 13.3018 8.73248 13.6267 8.59371C16.4428 6.88446 18.9 4.51181 20.9477 2.11886C22.8364 0.348682 25.6186 -0.263941 28.1774 0.101602C33.3593 0.504376 37.739 2.24409 42.5723 3.42534L42.5892 3.42872Z" fill="white"/>
<path d="M29.23 12.7976C29.9611 13.769 28.9829 14.6287 28.6918 15.485C25.649 20.0577 24.5896 25.243 22.569 30.1439C22.4201 30.3132 22.1188 30.3639 21.9022 30.2963C21.3641 29.9104 21.3641 29.2775 21.4284 28.7224C21.8311 23.4085 23.2324 18.4229 25.49 13.6742C26.018 12.9126 26.9183 12.0529 28.0792 12.2323C28.5192 12.3237 28.9085 12.476 29.23 12.7976Z" fill="white"/>
<path d="M37.2449 14.1854C37.6341 15.9319 36.3818 17.3636 35.8267 18.9273C32.8685 24.8437 29.3146 30.6382 27.5614 36.9642C27.4801 37.1638 27.3617 37.438 27.1281 37.526C26.8777 37.5937 26.6678 37.4685 26.6001 37.2925C26.0078 34.7777 26.6915 32.1613 27.3346 29.7684C29.0235 24.4578 31.0611 19.0255 33.9144 14.0839C34.2461 13.8334 34.2968 13.6168 34.7098 13.5017C35.7015 13.3968 36.6966 13.4712 37.2449 14.1854Z" fill="white"/>
<path d="M45.8046 14.4831C46.6034 15.0822 46.1905 16.2195 45.8791 16.9269C42.4098 24.6202 36.7913 31.2541 34.466 39.3231C33.8263 41.0324 33.41 42.8026 32.8752 44.5254C32.7804 44.8334 32.3269 44.8435 32.0054 44.7691C31.6974 44.038 31.7887 43.1072 31.7887 42.3152C32.5198 35.8336 34.0666 29.5347 37.2279 23.8891C38.6664 21.0697 40.0575 18.5346 41.5636 15.7828C41.9901 15.0044 42.7043 14.3004 43.74 14.0465C44.5015 13.9991 45.236 14.1785 45.8046 14.4831Z" fill="white"/>
<path d="M55.3054 14.8791C55.8605 15.8099 55.3258 16.8388 55.0719 17.729C52.8651 23.9128 48.7392 29.0304 45.4256 34.6625C42.5893 39.2893 40.7311 44.4306 38.8425 49.4534C38.1892 50.963 37.9557 52.6384 37.1603 54.0735C37.096 54.2258 36.8929 54.1344 36.7541 54.175C36.2667 53.7621 36.3311 53.1731 36.216 52.6553C36.5883 46.3632 39.0117 40.6804 41.2828 35.0043C44.1293 28.675 47.9438 22.63 50.5365 16.0841C50.8952 15.2616 51.6094 14.2496 52.7094 13.9382C53.8128 13.7723 54.6488 14.1717 55.3054 14.8791Z" fill="white"/>
</g>
</g>
<defs>
<clipPath id="clip0_2004_3715">
<rect width="542.222" height="64" fill="white"/>
</clipPath>
<clipPath id="clip1_2004_3715">
<rect width="542.222" height="63.2931" fill="white"/>
</clipPath>
</defs>
</svg>
