<svg width="242" height="64" viewBox="0 0 242 64" fill="none" xmlns="http://www.w3.org/2000/svg">
<path d="M152.151 44.3278C152.446 44.3278 152.691 44.1276 152.755 43.8544L153.283 40.9424C153.341 40.5972 153.116 40.2748 152.775 40.2028C151.713 39.977 150.219 40.603 148.697 42.215C148.666 42.2454 148.63 42.2594 148.586 42.2594C148.502 42.2594 148.433 42.1927 148.433 42.1044C148.433 42.0991 148.433 42.0909 148.433 42.0821L148.608 41.1156C148.614 41.0822 148.614 41.0524 148.614 41.019C148.614 40.6826 148.335 40.4011 147.995 40.4011H144.323C144.016 40.4011 143.751 40.6217 143.693 40.9254L140.646 56.9501C140.613 57.1373 140.665 57.3281 140.785 57.4744C140.907 57.6148 141.163 57.6973 141.352 57.6973H145.027C145.341 57.6973 145.606 57.479 145.658 57.1783C145.658 57.1783 147.679 46.2165 147.709 46.0784C147.881 45.1791 149.561 44.3348 151.986 44.3348L152.151 44.3278Z" fill="white"/>
<path d="M90.1883 47.5626H85.1121H85.1098C84.94 47.5574 84.8039 47.4199 84.8039 47.2414C84.8039 47.2163 84.8039 47.1864 84.811 47.1642C85.3084 45.3077 86.3056 44.0871 88.2357 44.0871C89.936 44.0871 90.6067 44.8443 90.6067 46.2315C90.6067 46.5621 90.5649 46.929 90.4959 47.3257V47.3222C90.4594 47.4585 90.3356 47.5626 90.1883 47.5626ZM88.0837 54.1374C84.811 54.1374 84.0754 53.6541 84.0754 51.821C84.0754 51.6197 84.1255 51.1037 84.1515 50.869C84.1697 50.707 84.3059 50.5888 84.4668 50.5888H84.4715L93.9661 50.5823C94.3627 50.5823 94.6156 50.4647 94.7275 49.8615L95.0293 48.1039C95.1195 47.5632 95.1855 46.9887 95.1855 46.4726C95.1855 42.9427 93.0243 40.1582 88.9135 40.1582C83.9252 40.1582 80.7308 42.8491 79.815 48.1039L79.4496 50.2202C79.3582 50.8222 79.2981 51.3997 79.2981 51.9129C79.2981 56.1127 82.4017 57.9844 85.6862 57.9844C88.0996 57.9844 90.2631 57.7088 92.452 57.1869C92.9972 57.0524 93.1227 56.8564 93.2129 56.3672L93.5936 54.3082L93.5966 54.3176C93.6013 54.2866 93.6013 54.2568 93.6013 54.2263C93.6013 53.8759 93.319 53.5915 92.9648 53.5915C92.3895 53.5903 89.6608 54.1374 88.0837 54.1374Z" fill="white"/>
<path d="M166.021 38.7863C165.84 38.7863 165.673 38.709 165.557 38.5739C165.44 38.4364 165.396 38.2591 165.426 38.083L165.862 35.7192C165.915 35.4348 166.162 35.2253 166.454 35.2253H170.055C170.234 35.2253 170.403 35.3055 170.516 35.4436C170.627 35.5787 170.68 35.7584 170.647 35.9357L170.214 38.2989C170.161 38.5826 169.914 38.7868 169.619 38.7868L166.021 38.7863Z" fill="white"/>
<path d="M166.188 57.699H162.582C162.407 57.699 162.235 57.6223 162.121 57.4877C162.01 57.352 161.96 57.1665 161.993 56.9963L164.934 40.8937C164.987 40.6094 165.238 40.4028 165.532 40.4028H169.129C169.31 40.4028 169.479 40.4771 169.597 40.6182C169.708 40.7562 169.756 40.9353 169.725 41.1061L166.776 57.2086C166.728 57.4918 166.474 57.699 166.188 57.699Z" fill="white"/>
<path d="M161.307 35.9351L157.4 57.2087C157.348 57.4919 157.097 57.699 156.804 57.699H153.208C153.024 57.699 152.854 57.6224 152.737 57.4878C152.626 57.352 152.579 57.1666 152.61 56.9963L156.518 35.7162C156.571 35.4319 156.818 35.2224 157.113 35.2224H160.711C160.892 35.2224 161.058 35.2996 161.175 35.4401C161.287 35.5782 161.337 35.7572 161.307 35.9351Z" fill="white"/>
<path d="M178.168 45.9529C178.338 45.084 179.912 44.266 182.198 44.211C182.982 44.1917 183.426 44.2971 183.156 46.0219C183.093 46.4052 181.16 56.9457 181.16 56.9457C181.126 57.133 181.174 57.3237 181.299 57.4682C181.421 57.611 181.596 57.697 181.785 57.697L185.389 57.6993C185.696 57.6993 185.965 57.4811 186.019 57.1804C186.019 57.1804 187.52 48.8462 188.141 45.5696C188.669 42.7629 186.934 40.1575 183.654 40.1575C182.259 40.1575 180.274 41.0954 179.121 42.2223C179.09 42.2498 179.057 42.2609 179.02 42.2609C178.932 42.2609 178.865 42.1942 178.865 42.1059C178.865 42.1006 178.865 42.0895 178.865 42.0813C178.865 42.0813 178.962 41.502 178.962 41.5044C179.031 41.1223 179.034 41.117 179.037 41.103C179.053 40.9234 178.992 40.7473 178.873 40.6121C178.749 40.4769 178.58 40.4026 178.399 40.4026H174.81C174.502 40.4026 174.237 40.6203 174.18 40.9239L171.255 56.9457C171.225 57.133 171.269 57.3237 171.388 57.4682C171.511 57.6145 171.692 57.6993 171.881 57.6993H175.478C175.787 57.6993 176.051 57.4811 176.105 57.1804L178.168 45.9529Z" fill="white"/>
<path d="M202.152 1.58228C202.358 0.409248 203.543 -0.570705 205.396 0.386963C208.17 1.82104 212.187 6.83469 213.459 10.5676C214.025 12.222 215.013 12.5166 216.484 11.5881C218.814 10.1211 226.758 4.34865 238.787 6.47192C242.996 7.2204 242.261 10.5023 241.086 12.0452C239.537 14.0702 236.214 15.8456 234.221 20.51C232.32 24.9409 229.441 25.3027 228.046 25.0354C227.433 24.9196 226.143 24.635 225.696 24.4641C225.526 24.3981 225.421 24.5716 225.58 24.7073C227.275 26.1482 227.909 28.0269 227.826 29.2766C227.675 31.5035 226.621 33.5259 224.998 35.2004C221.261 39.065 217.119 40.1272 213.933 38.7815C213.202 38.4726 212.561 38.0169 212.059 37.4524C209.69 34.8031 210.57 25.7468 210.608 25.2708C210.645 24.9121 210.689 24.6276 210.412 24.6165C210.148 24.6053 210.058 24.7849 209.947 25.0989C209.831 25.4207 207.418 31.6746 205.268 32.6096C203.745 33.2801 201.652 32.8189 200.338 31.5364C196.986 28.2838 196.384 23.5201 197.952 19.8264C199.252 16.774 203.285 17.076 203.535 17.0842C203.738 17.0922 203.782 16.9185 203.663 16.8284C203.532 16.7295 201.799 15.1588 201.104 14.05C199.919 12.1602 201.95 9.50231 202.054 6.96021C202.191 3.77176 201.927 2.86124 202.152 1.58228ZM233.534 9.20044C228.292 8.5944 217.236 11.0048 214.083 16.6799C212.579 19.387 212.295 23.4895 212.229 25.6965C212.121 29.3099 212.326 31.9365 212.758 33.7708C213.93 38.7809 222.565 37.1901 224.5 29.4485C225.287 26.2965 221.466 22.9096 221.233 22.6292C220.923 22.2459 221.25 21.8116 221.679 21.9309C223.675 22.4767 224.704 22.7032 225.804 22.8577C230.223 23.4754 229.507 21.3236 231.687 17.9202C233.866 14.5206 235.484 13.3779 236.12 12.3792C236.898 11.1617 236.633 9.55617 233.534 9.20044ZM206.582 4.88794C205.555 4.18884 204.726 4.49499 204.518 5.39282C204.424 5.80189 204.53 6.6627 204.474 7.78149C204.447 8.32775 204.341 8.9247 204.182 9.56274C203.633 11.7766 202.833 12.8802 203.595 14.0872C204.515 15.538 206.242 17.2082 206.829 17.8303C207.012 18.021 206.875 18.3164 206.59 18.2903C205.132 18.1785 202.231 17.9498 200.819 19.2375C199.418 20.5218 199.461 24.5094 200.351 26.9768C201.707 30.4318 203.684 31.9365 205.893 28.9631C207.976 26.171 210.929 19.3283 211.14 18.7249C211.363 18.0918 211.67 16.9553 211.776 15.6106C211.92 13.8367 211.762 11.7205 210.77 9.89282C209.737 8.1681 208.421 6.15759 206.582 4.88794Z" fill="white"/>
<path d="M57.9766 46.2295C58.1433 45.3905 59.6515 44.6047 61.8345 44.5105C62.5812 44.4771 63.038 44.5959 62.7433 46.2371C62.6985 46.494 61.4502 53.6421 60.8361 57.0064C60.7972 57.1802 60.8497 57.3552 60.9593 57.4897C61.0695 57.6243 61.2392 57.6986 61.4155 57.6986H64.8096C65.0966 57.6986 65.3382 57.4973 65.3907 57.2165C65.406 57.1504 66.771 49.6506 67.299 46.7145L67.3963 46.2289C67.5619 45.3875 69.0589 44.6041 71.2578 44.5099C72.0016 44.48 72.4571 44.5953 72.1666 46.2365C71.7399 48.5828 70.1987 57.0035 70.1987 57.0035C70.1639 57.1714 70.2134 57.3511 70.3266 57.4798C70.4362 57.6155 70.6059 57.6898 70.7822 57.6898C70.7822 57.6898 74.1816 57.6957 74.2211 57.6957C74.5046 57.6898 74.7491 57.4886 74.7992 57.2077C74.8175 57.1082 76.895 45.7702 77.0117 45.1026C77.4413 42.7095 75.8365 40.1567 72.3292 40.1567C69.9983 40.1813 69.1903 41.0642 67.1629 42.07C67.1517 42.0729 67.1323 42.0782 67.1163 42.0782C67.0881 42.0782 67.0609 42.0671 67.0415 42.0507C66.2724 41.252 65.1944 40.1597 63.0374 40.1597C61.5622 40.1597 60.1554 41.073 58.9496 42.2163C58.9231 42.2385 58.8895 42.2608 58.8523 42.2608C58.784 42.2608 58.7221 42.2081 58.7221 42.1367C58.7221 42.1309 58.7268 42.1227 58.7303 42.1116L58.916 41.1034C58.949 40.9267 58.9048 40.75 58.791 40.6178C58.6779 40.4826 58.5105 40.4025 58.3343 40.4025H54.9225C54.6361 40.4025 54.3944 40.6038 54.3414 40.8852L51.381 57.0058C51.3474 57.1796 51.3963 57.3546 51.506 57.4891C51.6179 57.6237 51.7877 57.698 51.9657 57.698H54.6496H55.0038C55.2301 57.698 55.3733 57.698 55.4105 57.698C55.6981 57.698 55.9391 57.4967 55.9922 57.2159L57.9766 46.2295Z" fill="white"/>
<path d="M27.5922 40.1627C29.0014 40.1487 30.4766 40.381 31.7095 40.6811C32.0154 40.7554 32.1845 41.0866 32.1274 41.3973C32.0171 41.9958 31.6453 44.0209 31.6453 44.0209C31.5881 44.328 31.3246 44.541 31.0194 44.541C30.9952 44.541 30.9693 44.541 30.9469 44.541C29.9255 44.4328 28.6248 44.3392 27.1761 44.3392C25.675 44.3392 24.5735 45.0313 24.0543 47.8275L23.5934 50.3505C23.5033 50.9215 23.442 51.4048 23.442 51.7933C23.442 53.417 24.2128 53.823 25.4941 53.8663C27.0748 53.9213 28.1109 53.7727 29.0426 53.6422C29.0692 53.6376 29.0916 53.6376 29.111 53.6376C29.2872 53.6376 29.4564 53.7095 29.5778 53.8412C29.7139 53.9851 29.7746 54.1899 29.7404 54.3824L29.2695 56.9463C29.2324 57.1645 29.0804 57.3442 28.8735 57.4237C27.9005 57.8017 26.0752 57.9837 24.4533 57.9837C20.8718 57.9837 18.6234 55.858 18.6234 52.1298C18.6234 51.5587 18.6846 50.9876 18.8078 50.3557L19.264 47.8281C20.2741 42.2088 23.1402 40.2124 27.5828 40.1686" fill="white"/>
<path d="M49.4615 44.7699C49.6577 42.4787 48.2557 40.1576 45.3336 40.1576C44.2857 40.1576 43.3651 40.3314 40.5787 40.8966C40.5633 40.9024 40.5563 40.9053 40.5409 40.9053C40.4726 40.9053 40.4154 40.8498 40.4154 40.7784C40.4154 40.7702 40.4154 40.7673 40.4154 40.762C40.7896 38.82 41.336 36.0297 41.3472 35.9718C41.3778 35.7939 41.3319 35.6149 41.2193 35.4762C41.1067 35.341 40.9335 35.2585 40.7555 35.2585H37.0979C36.9576 35.2585 36.8256 35.3083 36.7242 35.3914C36.7172 35.3943 36.7172 35.3943 36.713 35.3996C36.6423 35.4575 36.581 35.5371 36.5433 35.6254C36.5433 35.6254 36.5433 35.6313 36.5392 35.6313C36.5392 35.6336 36.5368 35.6336 36.5368 35.6424C36.5368 35.6424 36.5368 35.6447 36.5368 35.6511H36.5321C36.5321 35.6564 36.528 35.6564 36.528 35.6623V35.6646C36.528 35.6675 36.5239 35.6734 36.5239 35.6757C36.5127 35.698 36.5103 35.7255 36.5062 35.75C36.5062 35.75 36.5062 35.75 36.5062 35.7559L32.6135 56.9973C32.5805 57.1676 32.6288 57.3525 32.7419 57.4888C32.8563 57.6234 33.0301 57.7 33.2064 57.7H36.8492C37.1397 57.7 37.3885 57.4929 37.4415 57.2097L39.4654 46.2748C39.6363 45.4188 41.1621 44.6049 43.4205 44.5388C44.1826 44.5172 44.6505 44.6272 44.3523 46.3076L42.3957 56.995C42.3585 57.1676 42.411 57.3502 42.5247 57.4888C42.6373 57.6181 42.8111 57.7 42.9874 57.7H46.5589C46.8536 57.7 47.1017 57.4929 47.1547 57.2097C47.1547 57.2039 47.6828 54.3468 48.2185 51.4412C48.7613 48.5286 49.4615 44.7699 49.4615 44.7699Z" fill="white"/>
<path d="M11.3271 38.8466C9.77762 38.8466 8.13331 39.2878 8.09147 40.9682C8.03194 43.7112 16.4138 45.1692 16.4751 50.4521C16.5435 56.0146 12.1009 57.9829 6.9652 57.9829C4.54765 57.9829 1.92617 57.6787 0.426251 57.2878C0.184614 57.2158 -0.0334493 56.9701 0.00426978 56.6811C0.101514 56.1217 0.558268 53.6777 0.558268 53.6777C0.617794 53.315 0.841161 53.1354 1.18004 53.1354C1.89729 53.2009 3.63826 53.6777 7.05596 53.6777C9.04564 53.6777 10.4984 53.2319 10.8178 51.3122C11.3807 47.9397 2.92278 47.1328 2.74067 41.4211C2.57152 36.1078 7.19151 34.4871 11.8062 34.4871C13.9933 34.4871 16.2264 34.8984 17.3533 35.1991C17.6067 35.2623 17.7876 35.4911 17.7876 35.7643C17.7876 35.8059 17.7876 35.8386 17.7794 35.8743C17.4399 37.7665 17.4629 37.6396 17.2407 38.8425C17.1729 39.2035 16.9796 39.3832 16.6755 39.3832C16.0189 39.3159 14.4383 38.8466 11.3271 38.8466Z" fill="white"/>
<path d="M106.279 40.5496C106.274 40.5689 106.274 40.5829 106.274 40.6022C106.274 40.7344 106.38 40.8392 106.511 40.8392H108.462C108.649 40.8392 108.831 40.9188 108.951 41.0627C109.072 41.206 109.12 41.4003 109.087 41.5858L108.642 44.0046C108.589 44.3071 108.325 44.5224 108.017 44.5224H105.802C105.647 44.5224 105.519 44.6271 105.489 44.781C104.939 47.7036 104.004 52.7237 103.894 53.3164C103.86 53.492 103.906 53.6792 104.019 53.8167C104.132 53.96 104.298 54.046 104.478 54.0618C104.961 54.0899 105.573 54.0741 106.236 54.0016C106.258 53.9987 106.282 53.9928 106.308 53.9928C106.485 53.9928 106.652 54.0671 106.771 54.1941C106.91 54.3403 106.971 54.5451 106.937 54.7406L106.546 56.889C106.507 57.1231 106.335 57.4548 106.107 57.5174C104.93 57.8545 104.071 57.9838 103.249 57.9838C100.417 57.9838 98.9799 56.9072 98.9799 54.214C98.9799 53.7535 99.0666 53.2281 99.162 52.6377L100.624 44.8857C100.639 44.7921 100.617 44.6991 100.556 44.6271C100.496 44.5528 100.406 44.5113 100.307 44.5113L97.8525 44.5089C97.6651 44.5089 97.4865 44.4253 97.3663 44.2848C97.2472 44.1403 97.1942 43.9502 97.2278 43.7653L97.6527 41.3681C97.7099 41.0633 97.9733 40.8427 98.2833 40.8427H101.081C101.236 40.8427 101.363 40.735 101.394 40.5835L102.31 35.7588C102.359 35.4996 102.559 35.3006 102.818 35.2538L106.495 34.5529C106.537 34.5447 106.574 34.5447 106.612 34.5447C106.779 34.5447 106.944 34.6079 107.065 34.7237C107.213 34.8753 107.28 35.0853 107.239 35.2866L106.279 40.5496Z" fill="white"/>
<path d="M119.035 40.6046C119.035 40.7374 119.141 40.8421 119.275 40.8421H122.082C122.27 40.8421 122.45 40.9275 122.572 41.0709C122.692 41.2172 122.745 41.4032 122.711 41.591L122.284 43.9853C122.228 44.2901 121.961 44.5089 121.655 44.5089L118.567 44.5224C118.417 44.5224 118.28 44.6271 118.254 44.781C117.707 47.7094 116.768 52.7237 116.659 53.3164C116.629 53.492 116.673 53.6792 116.787 53.8167C116.9 53.96 117.068 54.046 117.248 54.0618C117.729 54.0899 118.341 54.0741 119.004 54.0016C119.026 53.9987 119.05 53.9928 119.072 53.9928C119.249 53.9928 119.419 54.0671 119.539 54.1941C119.675 54.3403 119.735 54.5451 119.698 54.7406L119.315 56.889C119.269 57.1231 119.104 57.4548 118.873 57.5174C117.697 57.8545 116.836 57.9838 116.018 57.9838C113.182 57.9838 111.749 56.9072 111.749 54.214C111.749 53.7535 111.833 53.2281 111.931 52.6377L113.393 44.8857C113.408 44.7921 113.382 44.6991 113.325 44.6271C113.265 44.5528 113.175 44.5113 113.076 44.5113L111.139 44.523C110.95 44.523 110.769 44.4428 110.648 44.2965C110.527 44.1514 110.474 43.9583 110.509 43.7764L110.95 41.357C111.007 41.0551 111.272 40.8339 111.579 40.8339L113.847 40.8427C114.001 40.8427 114.133 40.735 114.164 40.5835L115.075 35.7588C115.121 35.4996 115.325 35.3006 115.582 35.2538L119.262 34.5529C119.302 34.5447 119.343 34.5447 119.381 34.5447C119.548 34.5447 119.709 34.6079 119.83 34.7237C119.978 34.8753 120.046 35.0853 120.009 35.2866L119.035 40.6046Z" fill="white"/>
<path d="M133.955 47.5618H128.878C128.709 47.5565 128.57 47.419 128.57 47.2405C128.57 47.2154 128.576 47.1855 128.584 47.1633C129.081 45.3121 130.069 44.0863 132 44.0863C133.705 44.0863 134.374 44.8434 134.374 46.2307C134.374 46.5612 134.33 46.9281 134.263 47.3248V47.3213C134.233 47.4576 134.105 47.5618 133.955 47.5618ZM131.855 54.1365C128.583 54.1365 127.844 53.6532 127.844 51.8201C127.844 51.6188 127.894 51.1028 127.919 50.8682C127.938 50.7061 128.075 50.5879 128.235 50.5879H128.238L137.734 50.5815C138.128 50.5815 138.387 50.4662 138.493 49.8606L138.801 48.103C138.89 47.5623 138.951 46.9878 138.951 46.4717C138.951 42.9418 136.792 40.1597 132.679 40.1597C127.693 40.1597 124.496 42.8482 123.581 48.103L123.22 50.2193C123.125 50.8272 123.064 51.3988 123.064 51.912C123.064 56.1118 126.17 57.9836 129.458 57.9836C131.863 57.9836 134.035 57.708 136.22 57.1861C136.765 57.0515 136.887 56.8555 136.982 56.371L137.362 54.3074V54.3167C137.368 54.2857 137.368 54.2559 137.368 54.2255C137.368 53.875 137.082 53.5906 136.732 53.5906C136.162 53.5895 133.429 54.1365 131.855 54.1365Z" fill="white"/>
<path fill-rule="evenodd" clip-rule="evenodd" d="M189.475 62.7831C190.342 63.2962 193.206 64.0001 195.877 64.0001C200.998 64.0001 203.567 62.2905 204.348 57.8975L206.866 44.153C207.512 40.6342 204.683 40.4025 204.445 40.3726C203.149 40.2152 201.609 40.1246 200.132 40.1632C194.666 40.3094 191.964 42.2526 190.936 47.9245L190.564 49.9987C190.438 50.6435 190.408 51.2198 190.408 51.768C190.408 55.8526 193.358 57.9391 197.12 57.9391C197.876 57.9391 198.605 57.7823 199.41 57.6108C199.491 57.605 199.543 57.6576 199.543 57.7185C199.525 57.8238 199.502 57.9391 199.502 57.9391C199.289 59.1151 198.733 60.3356 196.586 60.3356C193.095 60.3356 190.492 59.3187 190.492 59.3187C190.408 59.2912 190.339 59.2673 190.25 59.2673C189.962 59.2673 189.718 59.4773 189.668 59.7505C189.508 60.5995 189.245 62.0705 189.22 62.2027C189.214 62.236 189.211 62.2635 189.211 62.2963C189.211 62.4999 189.316 62.6836 189.475 62.7831ZM200.019 53.6345C199.205 53.7094 198.255 53.8106 197.621 53.8106C196.128 53.8106 195.147 53.3519 195.133 51.4924C195.124 50.2222 195.622 47.9292 195.622 47.9292C196.022 45.7602 197.282 44.1307 199.491 44.1307C200.329 44.1307 202.024 44.181 201.865 45.0406L200.343 53.3519C200.309 53.5023 200.178 53.6205 200.019 53.6345Z" fill="white"/>
</svg>
