<svg width="159" height="64" viewBox="0 0 159 64" fill="none" xmlns="http://www.w3.org/2000/svg">
<g clip-path="url(#clip0_2003_2052)">
<path d="M119.497 26.1236L112.53 35.9251L128.627 59.5113V26.1236H119.497ZM71.3391 28.1095V58.3152L86.532 35.7103L79.408 26.3617C85.3611 24.7184 90.7636 22.1694 95.4762 18.4764L100.067 24.3004L108.779 11.1195H158.277V26.083H147.142V62.6004L108.774 62.6121L98.9542 47.9156L88.7464 62.6121H52.6566V52.5667C50.0597 59.6739 41.8748 63.9998 25.6327 63.9998C1.54771 63.9998 0.376784 55.47 0.0115967 45.7033H19.0593C19.1231 48.6182 19.61 50.7318 20.7809 52.1196C22.0098 53.5074 23.6676 54.2332 26.1254 54.2332C29.9975 54.2332 34.1769 53.1415 34.1769 48.9144C34.1769 47.9679 33.8697 47.1666 33.377 46.5105C30.8554 43.1543 9.65718 40.6807 3.69825 34.4851C1.30424 32.0057 0.562276 28.2895 0.562276 25.2991C0.562276 13.7847 9.47169 8.60522 27.2326 8.60522C46.0948 8.60522 50.564 15.2189 50.8074 26.083H32.4669C32.3452 23.1681 31.4699 20.8919 30.1946 19.8351C28.9599 18.8132 27.8876 18.3428 26.0095 18.3777C22.0794 18.4532 19.9868 20.1254 19.9868 22.8255C19.9868 23.6268 20.2302 24.6488 20.7867 25.2294C23.6734 28.5101 44.1993 30.8444 50.0944 37.1096C51.0335 38.1026 51.9842 39.3974 52.6624 41.1916V29.0617C58.7488 29.2882 65.0903 29.0908 71.3391 28.1095Z" fill="#1A1A1A"/>
<path d="M52.7146 11.0961C71.7623 12.5013 82.4919 7.10123 86.1727 0.00561523H105.626C99.7774 16.9492 81.5354 27.5636 52.7204 26.1119V11.0961H52.7146Z" fill="#FF5000"/>
</g>
<defs>
<clipPath id="clip0_2003_2052">
<rect width="159" height="64" fill="white"/>
</clipPath>
</defs>
</svg>
