<svg width="64" height="64" viewBox="0 0 64 64" fill="none" xmlns="http://www.w3.org/2000/svg">
<g clip-path="url(#clip0_2003_2141)">
<rect width="64" height="64" fill="white"/>
<rect width="64" height="64" rx="8" fill="#FF5000"/>
<g clip-path="url(#clip1_2003_2141)">
<path d="M45.3357 29.9673L42.9256 33.3577L48.4938 41.5165V29.9673H45.3357ZM28.6772 30.6542V41.1027L33.9326 33.2834L31.4683 30.0496C33.5276 29.4812 35.3963 28.5995 37.0265 27.322L38.6146 29.3366L41.6283 24.7772H58.75V29.9532H54.8982V42.5851L41.6263 42.5891L38.2296 37.5054L34.6986 42.5891H22.2147V39.1143C21.3164 41.5727 18.4851 43.0691 12.8668 43.0691C4.53551 43.0691 4.13047 40.1185 4.00415 36.7402H10.593C10.615 37.7484 10.7835 38.4796 11.1885 38.9596C11.6136 39.4397 12.1871 39.6907 13.0372 39.6907C14.3766 39.6907 15.8223 39.3131 15.8223 37.8509C15.8223 37.5235 15.7161 37.2463 15.5456 37.0193C14.6734 35.8584 7.34067 35.0027 5.27941 32.8596C4.45129 32.002 4.19464 30.7165 4.19464 29.6821C4.19464 25.6991 7.27651 23.9075 13.4202 23.9075C19.9449 23.9075 21.4908 26.1952 21.575 29.9532H15.2308C15.1887 28.9449 14.8859 28.1576 14.4448 27.792C14.0177 27.4385 13.6468 27.2758 12.9971 27.2879C11.6377 27.314 10.9138 27.8925 10.9138 28.8264C10.9138 29.1036 10.998 29.4571 11.1905 29.658C12.1891 30.7928 19.2892 31.6003 21.3284 33.7675C21.6532 34.111 21.9821 34.5589 22.2167 35.1795V30.9836C24.3221 31.062 26.5157 30.9937 28.6772 30.6542Z" fill="#1A1A1A"/>
<path d="M22.2346 24.7692C28.8235 25.2553 32.5349 23.3873 33.8082 20.9329H40.5374C38.5142 26.7938 32.2041 30.4655 22.2366 29.9633V24.7692H22.2346Z" fill="white"/>
</g>
</g>
<defs>
<clipPath id="clip0_2003_2141">
<rect width="64" height="64" fill="white"/>
</clipPath>
<clipPath id="clip1_2003_2141">
<rect width="55" height="22.1005" fill="white" transform="translate(4 20.9309)"/>
</clipPath>
</defs>
</svg>
