<svg width="64" height="64" viewBox="0 0 64 64" fill="none" xmlns="http://www.w3.org/2000/svg">
<rect width="64" height="64" fill="white"/>
<path d="M47.8385 10L48.9572 23.5752H47.8385C46.7111 20.19 45.2482 17.6425 43.4669 15.9327C40.8938 13.4622 37.5807 12.2226 33.5361 12.2226C28.02 12.2226 23.8291 14.394 20.9548 18.7282C18.5453 22.387 17.3491 26.7468 17.3491 31.799C17.3491 35.9024 18.1494 39.6467 19.7414 43.0319C21.3421 46.4172 23.4332 48.8963 26.0149 50.4692C28.6051 52.0422 31.2556 52.8286 33.9836 52.8286C35.5842 52.8286 37.1246 52.632 38.6133 52.2302C40.1021 51.8285 41.5392 51.2386 42.9247 50.4521V38.0139C42.9247 35.8596 42.7612 34.4491 42.4256 33.7823C42.0986 33.1155 41.5822 32.6111 40.8938 32.2606C40.2054 31.9101 38.9834 31.7392 37.2365 31.7392V30.5338H54V31.7392H53.1997C51.5388 31.7392 50.4029 32.2863 49.7833 33.3891C49.353 34.1755 49.1465 35.7143 49.1465 38.0224V51.1873C46.6939 52.4952 44.2844 53.4612 41.9006 54.0767C39.5169 54.6922 36.8664 55 33.9492 55C25.5846 55 19.2251 52.3328 14.8879 47.007C11.6264 43.0063 10 38.3986 10 33.1753C10 29.3883 10.9122 25.7637 12.7452 22.2929C14.9138 18.1554 17.8913 14.9839 21.6777 12.7612C24.8531 10.9233 28.5965 10 32.9165 10C34.4913 10 35.9198 10.1282 37.2106 10.3847C38.5015 10.6411 40.3258 11.1968 42.6838 12.0688C43.8799 12.5133 44.6716 12.7356 45.0761 12.7356C45.4805 12.7356 45.8248 12.5475 46.1174 12.1799C46.4013 11.8123 46.582 11.0857 46.6423 10.0085H47.8385V10Z" fill="#3482BF"/>
</svg>
