<svg width="1080" height="1080" viewBox="0 0 1080 1080" fill="none" xmlns="http://www.w3.org/2000/svg">
<rect width="1080" height="1080" fill="black"/>
<path d="M134 536C134 313.774 316.12 133 540 133C763.88 133 946 313.774 946 536C946 758.226 763.88 939 540 939C316.12 939 134 758.226 134 536ZM193.189 507.214H308.899C311.949 457.803 323.005 409.204 341.64 363.286H238.661C212.918 407.312 197.384 456.48 193.189 507.214ZM367.015 507.214H511V363.286H405.034C383.481 408.506 370.598 457.313 367.044 507.214M511 564.786H367.015C370.569 614.687 383.452 663.494 405.005 708.714H511V564.786ZM511 766.286H438.674C459.176 795.54 483.497 821.965 511 844.871V766.286ZM627.145 870.49C693.618 853.373 753.503 817.117 799.26 766.286H710.114C687.684 804.815 659.747 839.915 627.174 870.49M738.36 708.714H841.31V708.772C867.071 664.731 882.615 615.542 886.811 564.786H771.101C768.042 614.198 757.005 662.798 738.36 708.714ZM712.956 564.786H569V708.714H674.966C696.519 663.494 709.402 614.687 712.956 564.786ZM771.072 507.214H886.782C882.586 456.458 867.042 407.27 841.281 363.228V363.286H738.331C756.976 409.202 768.013 457.802 771.072 507.214ZM674.966 363.286H569V507.214H712.985C709.431 457.313 696.548 408.506 674.995 363.286M710.143 305.714H799.26C753.566 254.948 693.778 218.715 627.406 201.568C659.882 232.143 687.73 267.222 710.085 305.714M569 227.129V305.714H641.326C620.824 276.46 596.503 250.035 569 227.129ZM511 227.129C483.497 250.035 459.176 276.46 438.674 305.714H511V227.129ZM569 766.286V844.871C596.503 821.965 620.824 795.54 641.326 766.286H569ZM238.661 708.714H341.727C323.062 662.801 311.977 614.201 308.899 564.786H193.16C197.51 616.888 213.547 665.708 238.632 708.714M453 870.519C420.425 839.935 392.488 804.825 370.06 766.286H280.74C326.54 817.156 386.49 853.425 453.029 870.519M369.886 305.714C392.261 267.228 420.129 232.159 452.623 201.596C386.254 218.736 326.467 254.958 280.769 305.714H369.886Z" fill="#83CBFF"/>
</svg>
