<svg width="64" height="64" viewBox="0 0 64 64" fill="none" xmlns="http://www.w3.org/2000/svg">
<g clip-path="url(#clip0_2003_2157)">
<path d="M62.8367 10H1.16327C0.530612 10 0 10.5305 0 11.1631V51.9323C0 52.5853 0.530612 53.0954 1.16327 53.0954H62.8367C63.4898 53.0954 64 52.5649 64 51.9323V11.1631C64 10.5305 63.4898 10 62.8367 10Z" fill="black"/>
<path d="M20.1224 31.813H2.10199C1.44892 31.813 0.938721 32.3435 0.938721 32.9761V51.0141C0.938721 51.6671 1.46933 52.1772 2.10199 52.1772H20.1428C20.7959 52.1772 21.3061 51.6467 21.3061 51.0141V32.9761C21.3061 32.3435 20.7755 31.813 20.1224 31.813Z" fill="#FFDD00"/>
<path d="M41.0205 31.813H22.9797C22.3266 31.813 21.8164 32.3435 21.8164 32.9761V51.0141C21.8164 51.6671 22.347 52.1772 22.9797 52.1772H41.0205C41.6735 52.1772 42.1838 51.6467 42.1838 51.0141V32.9761C42.1838 32.3435 41.6735 31.813 41.0205 31.813Z" fill="#FFDD00"/>
<path d="M61.9184 31.813H43.8776C43.2246 31.813 42.7144 32.3435 42.7144 32.9761V51.0141C42.7144 51.6671 43.245 52.1772 43.8776 52.1772H61.9184C62.5715 52.1772 63.0817 51.6467 63.0817 51.0141V32.9761C63.0817 32.3435 62.5511 31.813 61.9184 31.813Z" fill="#FFDD00"/>
<path d="M20.1224 10.939H2.10199C1.44892 10.939 0.938721 11.4695 0.938721 12.1021V30.1401C0.938721 30.793 1.46933 31.3032 2.10199 31.3032H20.1428C20.7959 31.3032 21.3061 30.7726 21.3061 30.1401V12.1021C21.3061 11.4491 20.7755 10.939 20.1224 10.939Z" fill="#FFDD00"/>
<path d="M41.0205 10.9387H22.9797C22.3266 10.9387 21.8164 11.4693 21.8164 12.1018V30.1398C21.8164 30.7928 22.347 31.3029 22.9797 31.3029H41.0205C41.6735 31.3029 42.1838 30.7724 42.1838 30.1398V12.1018C42.1838 11.4488 41.6735 10.9387 41.0205 10.9387Z" fill="#FFDD00"/>
<path d="M61.9184 10.9387H43.8776C43.2246 10.9387 42.7144 11.4693 42.7144 12.1018V30.1398C42.7144 30.7928 43.245 31.3029 43.8776 31.3029H61.9184C62.5715 31.3029 63.0817 30.7724 63.0817 30.1398V12.1018C63.0817 11.4488 62.5511 10.9387 61.9184 10.9387Z" fill="#FFDD00"/>
<path fill-rule="evenodd" clip-rule="evenodd" d="M34.653 31.3028C34.653 26.875 34.653 22.4471 34.653 17.9988C32.755 17.9988 30.8367 17.9988 28.9387 17.9988C28.9387 22.4267 28.9387 26.8546 28.9387 31.3028H34.653Z" fill="black"/>
<path fill-rule="evenodd" clip-rule="evenodd" d="M28.9387 31.813C28.9387 35.9552 28.9387 40.077 28.9387 44.2192C30.8367 44.2192 32.755 44.2192 34.653 44.2192C34.653 40.077 34.653 35.9552 34.653 31.813H28.9387Z" fill="black"/>
<path fill-rule="evenodd" clip-rule="evenodd" d="M9.4489 31.3028C9.4489 30.8539 9.4489 30.405 9.4489 29.9357H12.3673C12.653 29.9357 12.9183 30.2214 12.9183 30.507C12.9183 30.5275 12.9183 30.4866 12.9183 30.507C12.9183 30.6295 12.9183 30.9152 12.9183 31.2824H18.6326C18.6326 30.3846 18.653 29.5888 18.6326 28.9359C18.6326 28.9155 18.6326 28.9155 18.6326 28.8951C18.6326 26.7321 16.8571 24.9569 14.6938 24.9365C14.6734 24.9365 14.6938 24.9365 14.6734 24.9365C12.7958 24.9365 11.3265 24.9365 9.4489 24.9365C9.4489 22.6307 9.4489 20.3045 9.4489 17.9988C7.55095 17.9988 5.63258 17.9988 3.73462 17.9988C3.73462 22.4267 3.73462 26.8546 3.73462 31.3028H9.4489Z" fill="black"/>
<path fill-rule="evenodd" clip-rule="evenodd" d="M3.73462 31.813C3.73462 35.9552 3.73462 40.077 3.73462 44.2192C5.63258 44.2192 7.55095 44.2192 9.4489 44.2192C9.4489 40.077 9.4489 35.9552 9.4489 31.813H3.73462Z" fill="black"/>
<path fill-rule="evenodd" clip-rule="evenodd" d="M12.9185 31.813C12.9185 34.8125 12.9185 41.8318 12.9185 44.2192C14.8164 44.2192 16.7348 44.2192 18.6327 44.2192C18.6327 40.3015 18.6327 35.8736 18.6327 31.9558C18.6327 31.8946 18.6327 31.8538 18.6327 31.813H12.9185Z" fill="black"/>
<path fill-rule="evenodd" clip-rule="evenodd" d="M58.1018 31.3028L61.2855 24.916H54.4692L52.8978 28.9766L51.3263 24.916H44.51L47.6937 31.3028H58.1018Z" fill="black"/>
<path fill-rule="evenodd" clip-rule="evenodd" d="M57.8368 31.813H47.9593L49.2654 34.4452L44.2654 44.2396H51.0001L52.898 39.4853L54.7756 44.2396H61.5307L56.5307 34.4452L57.8368 31.813Z" fill="black"/>
</g>
<defs>
<clipPath id="clip0_2003_2157">
<rect width="64" height="43.1224" fill="white" transform="translate(0 10)"/>
</clipPath>
</defs>
</svg>
