<svg width="254" height="64" viewBox="0 0 254 64" fill="none" xmlns="http://www.w3.org/2000/svg">
<g clip-path="url(#clip0_2004_5139)">
<path d="M82.4665 43.821C89.8568 43.821 94.6957 39.4124 94.6957 32.2969C94.6957 25.1794 89.8568 20.7718 82.4665 20.7718H74.5973V43.821H82.4665ZM65.9844 13.7087H82.8919C95.0675 13.7087 103.415 21.0382 103.415 32.2969C103.415 43.5555 95.0675 50.884 82.8919 50.884H65.9844V13.7087Z" fill="white"/>
<path d="M114.372 34.1027H128.461C127.876 30.4914 125.165 28.1539 121.443 28.1539C117.668 28.1539 114.957 30.4379 114.372 34.1027ZM136.117 38.9342H114.478C115.276 42.4939 118.306 44.67 122.666 44.67C125.696 44.67 127.876 43.7686 129.843 41.9095L134.257 46.6885C131.598 49.7154 127.61 51.3101 122.453 51.3101C112.564 51.3101 106.13 45.0959 106.13 36.5976C106.13 28.0479 112.67 21.8872 121.39 21.8872C129.791 21.8872 136.277 27.517 136.277 36.7036C136.277 37.3425 136.171 38.2438 136.117 38.9342Z" fill="white"/>
<path d="M176.05 13.709L159.94 50.8842H151.433L135.376 13.709H144.681L156.006 40.2634L167.49 13.709H176.05Z" fill="white"/>
<path d="M181.477 34.1027H195.566C194.981 30.4914 192.27 28.1539 188.548 28.1539C184.773 28.1539 182.062 30.4379 181.477 34.1027ZM203.222 38.9342H181.583C182.381 42.4939 185.411 44.67 189.771 44.67C192.802 44.67 194.981 43.7686 196.948 41.9095L201.362 46.6885C198.703 49.7154 194.715 51.3101 189.558 51.3101C179.669 51.3101 173.236 45.0959 173.236 36.5976C173.236 28.0479 179.775 21.8872 188.495 21.8872C196.896 21.8872 203.382 27.517 203.382 36.7036C203.382 37.3425 203.276 38.2438 203.222 38.9342Z" fill="white"/>
<path d="M205.086 48.23L207.85 42.2812C210.402 43.9274 214.284 45.0416 217.793 45.0416C221.621 45.0416 223.057 44.0343 223.057 42.4397C223.057 37.7666 205.777 42.5466 205.777 31.1285C205.777 25.7107 210.668 21.8875 219.015 21.8875C222.95 21.8875 227.31 22.7908 230.021 24.3834L227.256 30.2777C224.439 28.685 221.621 28.1541 219.015 28.1541C215.294 28.1541 213.699 29.3229 213.699 30.8096C213.699 35.6956 230.979 30.9691 230.979 42.2267C230.979 47.5396 226.034 51.3093 217.474 51.3093C212.636 51.3093 207.744 49.9831 205.086 48.23Z" fill="white"/>
<path d="M253.471 49.5027C251.769 50.7249 249.271 51.3093 246.718 51.3093C239.967 51.3093 236.032 47.8566 236.032 41.059V29.3219H231.619V22.9492H236.032V15.9922H244.327V22.9492H251.451V29.3219H244.327V40.954C244.327 43.3955 245.655 44.7247 247.888 44.7247C249.112 44.7247 250.335 44.3533 251.238 43.6629L253.471 49.5027Z" fill="white"/>
<path d="M48.2545 27.8283L0.000350459 -0.000198454L-0.000189159 15.3537L48.2545 43.1825C54.1709 39.7706 54.1709 31.2403 48.2545 27.8283Z" fill="white"/>
<path d="M13.3115 47.9801V29.2681L0 21.5916V54.0967C0 61.6138 8.14688 66.3115 14.6639 62.5533L42.8465 46.3007L29.5349 38.6241L13.3115 47.9801Z" fill="white"/>
</g>
<defs>
<clipPath id="clip0_2004_5139">
<rect width="254" height="64" fill="white"/>
</clipPath>
</defs>
</svg>
