<svg width="149" height="64" viewBox="0 0 149 64" fill="none" xmlns="http://www.w3.org/2000/svg">
<path d="M0 7.4162e-05V63.9574L19.834 63.9312V64C37.4517 64 51.735 49.6576 51.735 31.9905C51.735 14.3234 37.4517 0 19.834 0L0 7.4162e-05ZM40.262 7.4162e-05C45.7994 3.94298 50.2656 9.28843 53.1479 15.5278H62.039C66.3162 15.5278 69.7823 19.006 69.7823 23.2952C69.7823 27.5829 66.3162 31.0579 62.039 31.0579H57.6135L72.5062 63.815H89.9547L78.8438 39.3736C82.8241 35.1922 85.2666 29.5316 85.2666 23.2952C85.2666 10.4292 74.869 7.4162e-05 62.039 7.4162e-05H40.262ZM82.0765 7.4162e-05L111.168 63.9835H119.913L149 7.4162e-05H131.554L115.539 35.2252L99.525 7.4162e-05H82.0765ZM15.4843 15.5302H19.834C28.9003 15.5302 36.2484 22.8988 36.2484 31.9906C36.2484 41.0808 28.9003 48.4486 19.834 48.4486V48.3798H15.4843V15.5302Z" fill="#004489"/>
</svg>
