<svg width="430" height="64" viewBox="0 0 430 64" fill="none" xmlns="http://www.w3.org/2000/svg">
<g clip-path="url(#clip0_2025_402)">
<path d="M118.463 51.0115C116.656 51.4131 114.447 51.6139 112.238 51.6139C105.813 51.6139 104.408 49.4052 104.408 45.1888V20.8939H92.3607V46.5942C92.3607 58.039 98.7858 63.2593 111.636 63.2593C117.86 63.2593 123.683 62.0546 130.711 60.4484V20.8939H118.463V51.0115ZM157.616 52.2162C153.198 52.2162 152.596 50.2084 152.596 46.795V31.1339H162.635V20.8939H152.596V8.8468H140.549V20.8939H134.525V30.9331H140.549V47.3974C140.549 54.6256 141.954 63.0586 154.002 63.0586C157.616 63.0586 160.627 62.2554 164.041 61.2515L162.836 51.2123C161.029 51.8146 159.423 52.2162 157.616 52.2162ZM30.9207 29.5276C28.7121 28.7244 26.1019 27.9213 23.4917 27.1182C16.4643 25.1103 14.2556 24.1064 14.2556 20.8939C14.2556 17.2797 16.8658 15.4727 23.2909 15.4727C28.5113 15.4727 33.1294 16.8782 37.7474 18.4844L40.3576 6.83896C34.9364 4.83112 29.9168 3.02406 23.6925 3.02406C9.23604 3.02406 1.20467 11.2562 1.20467 21.0946C1.20467 28.5237 4.41722 33.3425 11.6455 36.3543C13.6533 37.1574 16.2635 37.9605 18.8737 38.7637C26.7043 41.1731 29.1137 42.3778 29.1137 45.3895C29.1137 49.0037 26.1019 51.0115 19.8776 51.0115C14.2556 51.0115 9.03526 49.4052 3.61408 46.9958L0.803101 59.0429C6.82663 61.4523 12.6494 63.0586 19.8776 63.0586C34.7356 63.0586 42.3655 54.8264 42.3655 44.7872C42.3655 36.7558 37.7474 32.1378 30.9207 29.5276ZM189.139 18.886C185.123 18.886 181.308 19.8899 178.698 20.6931V0.81543H166.651V63.0586H178.698V31.937C180.907 31.1339 183.316 30.3307 186.328 30.3307C190.946 30.3307 192.753 32.1378 192.753 36.555V63.0586H204.8V35.1495C204.8 24.1064 199.78 18.886 189.139 18.886ZM67.0619 18.6852C54.8141 18.6852 44.9756 27.319 44.9756 40.7715C44.9756 54.2241 54.8141 63.2593 67.0619 63.2593C79.3098 63.2593 89.1482 54.4248 89.1482 40.7715C89.1482 27.1182 79.3098 18.6852 67.0619 18.6852ZM67.0619 51.2123C61.8415 51.2123 57.6251 47.3974 57.6251 40.5707C57.6251 33.7441 61.6407 30.1299 67.0619 30.1299C72.4831 30.1299 76.4988 33.7441 76.4988 40.5707C76.4988 47.5982 72.2823 51.2123 67.0619 51.2123ZM337.518 37.3582C335.711 36.7558 333.904 36.1535 331.696 35.5511C327.479 34.3464 325.873 33.7441 325.873 31.937C325.873 30.1299 327.479 28.9252 331.294 28.9252C335.31 28.9252 338.924 29.7284 342.94 30.9331L344.947 20.4923C340.53 19.4884 336.314 18.6852 331.495 18.6852C320.05 18.6852 313.826 24.508 313.826 32.5393C313.826 38.1613 316.637 41.7754 322.259 44.1848C323.865 44.7872 325.672 45.5903 327.881 46.1927C332.298 47.3974 334.507 47.9997 334.507 50.0076C334.507 52.0154 331.896 52.8186 328.282 52.8186C323.865 52.8186 319.849 52.0154 315.633 50.4092L313.826 60.8499C319.046 62.2554 323.865 63.2593 329.286 63.2593C341.333 63.2593 346.754 57.035 346.754 49.2044C346.554 43.7833 344.345 39.7676 337.518 37.3582ZM292.342 18.6852C279.693 18.6852 270.657 27.5197 270.657 41.5746C270.657 54.6256 278.488 63.2593 292.543 63.2593C298.767 63.2593 303.787 61.4523 309.007 59.2437L307.2 49.2044C303.184 51.0115 299.169 52.417 294.35 52.417C287.122 52.417 284.11 49.4052 283.708 44.988H310.814C310.814 44.988 311.216 40.1692 311.216 39.1652C311.216 27.7205 304.991 18.6852 292.342 18.6852ZM283.909 36.9566C284.712 33.3425 286.519 28.7244 291.74 28.7244C296.96 28.7244 298.566 33.9448 298.566 36.9566H283.909ZM370.447 52.2162C366.03 52.2162 365.427 50.2084 365.427 46.795V31.1339H375.467V20.8939H365.427V8.8468H353.38V20.8939H347.156V31.1339H353.38V47.5982C353.38 54.8264 355.187 63.2593 367.234 63.2593C370.849 63.2593 373.86 62.4562 377.274 61.4523L375.868 51.4131C373.86 51.8146 372.254 52.2162 370.447 52.2162ZM378.478 3.22484C375.467 3.22484 373.258 5.63425 373.057 8.64602C372.856 11.6578 375.467 14.0672 378.278 14.0672C381.289 14.0672 383.699 11.6578 383.699 8.64602C383.699 5.63425 381.49 3.22484 378.478 3.22484ZM378.478 13.0633C376.069 13.0633 374.262 11.2562 374.262 8.64602C374.262 6.03582 376.069 4.22876 378.679 4.22876C381.089 4.22876 383.096 6.03582 382.896 8.64602C382.695 11.2562 380.888 13.0633 378.478 13.0633ZM379.081 8.8468C380.085 8.64602 380.687 8.24445 380.687 7.24053C380.687 6.23661 379.884 5.43347 378.679 5.43347H376.671V11.6578H377.876V9.04759C378.278 9.04759 378.478 9.24837 378.679 9.64994L380.085 11.6578H381.49L380.285 9.64994C379.482 9.24837 379.282 9.04759 379.081 8.8468ZM378.278 8.24445H377.675V6.43739H378.478C379.282 6.43739 379.482 6.83896 379.482 7.24053C379.482 8.04366 378.88 8.24445 378.278 8.24445ZM259.413 20.8939L251.783 43.9841L244.154 20.8939H233.713L225.882 43.9841L218.252 20.8939H205.202L220.26 63.0586H231.303L238.933 40.1692L246.563 63.0586H257.606L272.665 20.8939H259.413Z" fill="#304CB2"/>
<path d="M415.624 18.4844C411.608 18.4844 408.194 19.8899 405.584 21.2954C402.974 19.8899 399.762 18.4844 395.545 18.4844C387.313 18.4844 382.093 23.7048 382.093 32.9408C382.093 43.984 392.734 54.8263 405.584 63.6608C418.434 55.0271 429.076 44.1848 429.076 32.9408C429.076 23.7048 423.655 18.4844 415.624 18.4844Z" fill="#CCCCCC"/>
<path d="M383.297 33.1412C383.297 44.3851 395.344 55.0267 405.383 62.0541C408.395 60.0463 411.407 57.6368 414.218 55.2274C400.765 43.9835 387.915 33.7435 383.498 30.1294C383.498 30.9325 383.297 31.9365 383.297 33.1412Z" fill="url(#paint0_linear_2025_402)"/>
<path d="M426.868 38.3619C417.029 30.3305 411.206 26.1141 404.781 22.2992C402.974 21.2952 399.561 19.689 395.746 19.689C392.132 19.689 388.919 20.8937 386.711 23.1023C385.305 24.5078 384.301 26.3148 383.9 28.5235C388.919 32.1376 402.773 41.976 416.628 53.0192C421.246 48.6019 425.06 43.5823 426.868 38.3619Z" fill="url(#paint1_linear_2025_402)"/>
<path d="M424.257 23.1023C422.048 20.8937 419.037 19.689 415.423 19.689C411.608 19.689 408.797 20.8937 406.588 22.0984C410.403 24.307 418.635 28.925 427.269 35.3501C427.47 34.547 427.47 33.5431 427.47 32.7399C427.67 28.7243 426.466 25.3109 424.257 23.1023Z" fill="url(#paint2_linear_2025_402)"/>
</g>
<defs>
<linearGradient id="paint0_linear_2025_402" x1="383.385" y1="45.9522" x2="414.421" y2="45.9522" gradientUnits="userSpaceOnUse">
<stop stop-color="#3656CC"/>
<stop offset="0.35" stop-color="#304CB2"/>
<stop offset="0.72" stop-color="#283B80"/>
</linearGradient>
<linearGradient id="paint1_linear_2025_402" x1="387.794" y1="21.436" x2="422.854" y2="45.9855" gradientUnits="userSpaceOnUse">
<stop offset="0.3" stop-color="#E61C23"/>
<stop offset="0.8" stop-color="#C3161C"/>
</linearGradient>
<linearGradient id="paint2_linear_2025_402" x1="409.528" y1="18.2624" x2="429.574" y2="32.2986" gradientUnits="userSpaceOnUse">
<stop stop-color="#FDBC11"/>
<stop offset="0.25" stop-color="#FCB415"/>
<stop offset="0.8" stop-color="#F89E1C"/>
</linearGradient>
<clipPath id="clip0_2025_402">
<rect width="429.867" height="64" fill="white"/>
</clipPath>
</defs>
</svg>
