<svg width="416" height="64" viewBox="0 0 416 64" fill="none" xmlns="http://www.w3.org/2000/svg">
<g clip-path="url(#clip0_2024_242)">
<path d="M77.174 57.1844L40.0623 39.3143V0L77.174 57.1844ZM80.1247 64L40.0623 47.0857V64H80.1247Z" fill="white"/>
<path d="M2.95074 57.1844L40.0624 0V39.3143L2.95074 57.1844Z" fill="white"/>
<path d="M0 63.9997H40.0623V47.0854L0 63.9997Z" fill="white"/>
<path d="M83.3663 52.2803C84.8208 52.2803 86.026 53.4439 86.026 54.8985C86.026 56.353 84.8624 57.5582 83.4078 57.5582C81.9533 57.5582 80.7481 56.3946 80.7481 54.94C80.7481 53.4439 81.9117 52.2803 83.3663 52.2803ZM83.3663 57.1426C84.613 57.1426 85.6104 56.1452 85.6104 54.8985C85.6104 53.6517 84.613 52.6543 83.3663 52.6543C82.1195 52.6543 81.1221 53.6517 81.1221 54.8985C81.1221 56.1452 82.1195 57.1426 83.3663 57.1426ZM82.7845 56.4361H82.4104V53.4024H83.5741C84.2806 53.4024 84.5299 53.6933 84.5299 54.2335C84.5715 54.6907 84.1975 55.0647 83.7819 55.1062L84.6962 56.4361H84.2806L83.3663 55.1062H82.826L82.7845 56.4361ZM82.7845 54.7322H83.2832C83.6988 54.7322 84.1559 54.6907 84.1559 54.192C84.1559 53.8179 83.7819 53.6933 83.491 53.6933H82.826V54.7322H82.7845Z" fill="white"/>
<path d="M111.418 57.1846H129.413C147.948 57.1846 158.961 47.5846 158.961 31.6677C158.961 15.7508 147.948 6.19238 129.413 6.19238H111.418V57.1846ZM122.805 15.0443H129.413C141.423 15.0443 147.449 20.9872 147.449 31.6677C147.449 42.3482 141.423 48.2911 129.413 48.2911H122.805V15.0443Z" fill="white"/>
<path d="M197.694 35.0755H219.345V26.2236H197.694V15.0443H222.171V6.19238H186.265V57.1846H222.961V48.3326H197.694V35.0755Z" fill="white"/>
<path d="M287.875 48.3326H265.891V6.19238H254.462V57.1846H287.875V48.3326Z" fill="white"/>
<path d="M349.382 6.19238H303.626V15.0443H320.748V57.1846H332.218V15.0443H349.382V6.19238Z" fill="white"/>
<path d="M415.584 57.1844H403.657L398.67 44.4259H377.932L372.945 57.1844H361.808L383.127 5.98438H394.639L415.584 57.1844ZM395.429 35.8649L388.322 17.7454L381.174 35.8649H395.429Z" fill="white"/>
</g>
<defs>
<clipPath id="clip0_2024_242">
<rect width="415.584" height="64" fill="white"/>
</clipPath>
</defs>
</svg>
