<svg width="253" height="88" viewBox="0 0 253 88" fill="none" xmlns="http://www.w3.org/2000/svg">
<g clip-path="url(#clip0_1524_50)">
<path d="M183.909 6.53906C185.593 6.53906 188.046 8.97184 188.046 13.1985C188.046 17.1016 183.021 30.8136 179.744 40.8765C176.23 51.6438 172.876 68.2187 170.062 68.2105C167.781 68.2187 165.201 62.6241 165.201 60.1954C165.201 58.2869 169.276 45.3612 172.438 36.0478C176.296 24.6334 181.628 6.53906 183.909 6.53906Z" fill="#E10019"/>
<path d="M205.644 37.5271C203.187 45.5463 199.693 55.7484 192.805 55.7484C191.478 55.7484 190.011 54.6385 190.224 52.4678C190.884 45.7879 197.326 37.5722 204.788 37.5722C205.095 37.5722 205.661 37.5681 205.644 37.5271ZM203.494 29.8028C194.037 29.8028 180.62 44.6944 180.62 55.6501C180.62 61.0112 184.404 64.386 188.987 64.386C194.566 64.386 197.617 61.4741 201.68 58.0952C201.68 60.9089 204.575 62.6495 206.545 62.6495C210.26 62.6495 214.093 58.5416 217.927 54.3232C217.104 56.9525 216.805 58.4802 216.805 60.1635C216.805 61.7403 219.659 65.9833 221.134 65.9833C221.814 65.9833 223.951 62.1212 226.278 58.8774C229.366 54.5566 233.445 50.2972 235.853 50.2972C236.693 50.2972 236.808 51.2187 236.808 52.0624C236.808 54.1061 236.279 55.7197 236.279 58.7669C236.279 62.2154 237.295 65.0372 240.85 65.0454C246.133 65.0372 252.743 59.545 252.743 56.8215C252.743 55.8344 252.543 54.872 251.478 54.872C250.212 54.872 247.976 56.1907 245.941 56.1907C244.905 56.1907 244.466 54.6016 244.466 52.8078C244.466 48.3026 245.818 44.9729 245.818 39.8288C245.818 37.2568 244.663 35.7251 241.993 35.7251C238.646 35.7251 232.679 41.3565 229.063 45.4685C230.263 41.1927 231.913 36.2165 231.913 34.4636C231.913 31.5066 227.642 27.7305 226.278 27.7305C225.012 27.7305 221.982 37.9572 220.769 42.5524C219.295 44.8009 213.024 52.3122 211.009 52.3122C209.314 52.3122 209.388 51.1573 209.388 50.3955C209.388 48.745 214.663 38.4527 214.663 35.5162C214.663 33.3169 212.504 28.7953 209.949 28.7953C209.044 28.7953 208.401 30.2697 207.934 31.0397C207.082 30.2247 205.595 29.8028 203.494 29.8028Z" fill="#E10019"/>
<path d="M142.307 59.1249C138.612 71.9195 133.923 87.8882 131.896 87.8882C129.528 87.8882 127.182 84.0343 127.182 81.0527C127.182 76.8465 131.244 68.1434 134.582 57.0689C139.604 40.4367 144.711 21.8755 147.574 21.8755C149.683 21.8755 151.907 26.0325 152.083 28.0844C152.152 28.9527 152.189 30.2264 151.96 31.0455C153.582 29.7841 155.699 29.0919 158.136 29.0919C161.712 29.0919 165.946 32.6551 165.946 40.2647C165.946 50.348 157.489 63.7898 149.134 63.7898C146.427 63.7898 143.392 61.7338 142.307 59.1249ZM145.255 50.6143C145.255 52.9487 147.135 54.1447 149.245 54.1447C152.611 54.1447 157.157 47.9603 157.157 42.9719C157.157 39.7978 155.757 37.6599 153.045 37.6599C148.163 37.6599 145.255 47.9603 145.255 50.6143Z" fill="#E10019"/>
<path d="M104.983 51.3272C105.823 53.5921 107.142 54.2351 109.026 54.2351C114.182 54.2351 120.985 49.7217 124.917 41.8459C129.123 33.5851 136.503 3.46611 139.173 3.46611C141.786 3.46611 143.625 7.4634 143.625 9.80199C143.625 13.5249 137.699 30.8165 133.018 44.336C129.307 55.0665 126.85 68.2092 124.089 68.2092C121.603 68.2092 119.502 62.9833 119.465 60.7552C119.425 59.0638 119.736 57.6876 119.986 56.9463C117.528 59.1703 112.048 63.8269 106.716 63.8269C101.572 63.8269 97.2797 60.9559 96.2312 52.4617C92.6639 52.3511 89.0844 50.8234 89.0844 50.8234C85.9799 59.887 82.8304 68.971 81.0939 68.971C78.313 68.971 76.1669 64.9819 76.1669 61.943C76.1669 59.3423 78.3621 52.9327 80.7621 46.2528C78.3458 44.4507 75.1348 40.8138 75.1348 40.8138C75.0979 41.6124 75.0898 41.9524 74.9833 42.792C73.345 55.8569 65.5429 63.2372 59.2357 63.2372C52.8507 63.2372 49.0377 58.4249 48.7961 53.2357C48.5872 48.5586 50.9053 42.964 52.5886 40.5681C52.5886 40.5681 50.3524 40.8589 46.3878 41.8746C41.7926 56.0535 38.3072 69.3601 35.8622 69.3601C33.1386 69.3519 30.6403 64.4536 30.6403 62.0822C30.6403 59.8174 32.2253 54.4603 35.6983 44.1968C34.1666 44.6063 27.802 46.4944 25.9222 47.1046C20.86 60.5587 17.862 69.4461 15.462 69.4461C12.9105 69.4461 11.0716 63.6959 11.0716 61.1976C11.0716 58.388 14.7125 50.4958 14.7125 50.4958C7.57392 53.0514 1.04145 55.259 0.410728 54.7716C-1.62888 53.1579 3.09744 45.6016 5.03465 44.2336C5.83739 43.6684 11.8784 41.5961 18.8204 39.45C25.0252 24.0751 34.2321 2.38487 36.284 2.38487C37.9509 2.38487 40.1748 7.84429 40.1748 10.8136C40.1666 13.3529 34.4205 26.2253 29.899 36.923C31.0007 36.6117 36.8246 34.9612 38.7782 34.4001C44.1189 19.0007 51.6548 0.111816 53.7681 0.111816C55.6439 0.111816 57.1224 5.72687 57.1224 9.08935C57.1224 11.301 52.8753 22.4778 49.2957 32.5202C53.6002 31.4144 56.934 31.1646 59.7149 31.1646C62.9054 31.1646 63.9129 34.0561 63.9129 35.809C63.9129 38.1353 62.1845 39.6056 60.4931 40.0316C59.2152 42.8002 57.3067 45.8964 57.3067 50.3647C57.3067 51.9251 58.5681 53.7804 59.977 53.7804C63.7654 53.7804 67.0337 44.5695 67.558 39.8227C67.7996 37.5455 67.0337 35.6616 67.0337 35.6616C65.6207 34.6254 64.5927 33.7325 64.5927 31.1523C64.5927 28.31 66.7921 25.1195 69.786 25.1195C72.3048 25.1195 73.9307 27.7161 75.0734 30.9434C75.0734 30.9434 78.2966 35.7353 83.2973 39.1797C87.9008 25.9714 94.3595 6.61562 96.0223 6.61562C98.4756 6.61562 100.941 10.1993 100.941 13.6109C100.941 15.4826 95.7029 32.0124 91.5991 43.566C91.5991 43.566 93.1964 44.0248 94.2776 44.2418C95.5145 44.508 96.481 44.5449 96.653 44.5367C98.8524 36.5093 106.147 26.983 113.04 26.983C118.577 26.983 121.435 30.1735 121.435 35.5305C121.435 41.9155 114.907 48.3497 104.983 51.3272ZM114.481 36.4151C114.481 35.1537 114.018 34.4943 112.593 34.4943C109.624 34.4943 106.241 39.0691 104.918 43.5619C110.889 41.6043 114.481 37.9879 114.481 36.4151Z" fill="#E10019"/>
</g>
<defs>
<clipPath id="clip0_1524_50">
<rect width="252.653" height="88" fill="white"/>
</clipPath>
</defs>
</svg>
