<svg width="288" height="64" viewBox="0 0 288 64" fill="none" xmlns="http://www.w3.org/2000/svg">
<g clip-path="url(#clip0_2004_2276)">
<path d="M10.7146 16.7839C9.42142 16.7839 8.68249 16.9683 7.85119 17.4294V35.4121C8.49776 35.6888 9.32906 35.781 10.2527 35.781C14.2245 35.781 15.9795 32.1844 15.9795 26.0058C15.9795 20.6571 14.8711 16.7839 10.7146 16.7839ZM9.88326 40.5764C5.17255 40.5764 1.84734 39.6542 0 38.5475V0H7.85119V13.1873C9.14432 12.5418 10.5298 12.1729 12.9314 12.1729C19.3047 12.1729 23.8307 17.4294 23.8307 25.4524C23.8307 35.1354 18.7505 40.5764 9.88326 40.5764Z" fill="black"/>
<path d="M69.6446 17.614C67.7049 16.8762 65.3034 17.0607 64.0102 17.614V40.0232H56.1591V14.1097C59.2072 12.6342 64.6568 11.0664 71.1225 12.7264L69.6446 17.614Z" fill="black"/>
<path d="M286.522 17.614C284.582 16.8762 282.181 17.0607 280.888 17.614V40.0232H273.037V14.1097C276.085 12.6342 281.534 11.0664 288 12.7264L286.522 17.614Z" fill="black"/>
<path d="M87.841 17.0606C87.1944 16.7839 86.4555 16.5995 85.3471 16.5995C81.2829 16.5995 79.6203 19.9194 79.6203 26.4669C79.6203 32.7378 81.2829 35.6888 85.1623 35.6888C86.1784 35.6888 87.102 35.4122 87.7486 35.0433V17.0606H87.841ZM83.5921 51.6427C79.4356 51.6427 75.6485 50.8127 73.4317 49.6139L75.4638 44.4496C77.1264 45.3718 79.6203 46.1096 82.2066 46.1096C86.3631 46.1096 87.841 44.0807 87.841 40.9453V39.3776C86.9173 39.8387 85.3471 40.2075 83.1303 40.2075C76.5722 40.2075 71.9539 35.1355 71.9539 26.928C71.9539 17.7061 76.5722 11.9885 85.9936 11.9885C90.1501 11.9885 93.7524 12.8185 95.6921 14.0173V40.2075C95.5074 48.0462 90.612 51.6427 83.5921 51.6427Z" fill="black"/>
<path d="M205.793 40.0233V20.7495C205.793 18.6285 204.593 17.0607 201.822 17.0607C200.436 17.0607 199.328 17.4296 198.404 18.3518V40.0233H190.553V20.6573C190.553 18.444 189.075 17.0607 186.304 17.0607C184.918 17.0607 184.087 17.2452 183.071 17.614V40.1155H175.22V14.1097C178.268 12.7264 181.501 12.0809 186.212 12.0809C190.738 12.0809 193.324 13.2797 194.894 14.8475C196.649 13.372 199.42 12.0809 203.854 12.0809C210.319 12.0809 213.645 15.9541 213.645 20.8417V40.1155H205.793V40.0233Z" fill="black"/>
<path d="M34.9147 26.7437H51.6332C52.0026 17.4296 48.0308 12.0809 40.0873 12.0809C32.2361 12.0809 27.8025 17.614 27.8025 26.2826C27.8025 35.0434 32.6056 40.5766 41.011 40.5766C45.6293 40.5766 48.6774 39.6544 50.8018 38.5478L48.9545 33.6602C47.4766 34.3979 45.0751 35.1357 41.8423 35.1357C38.9789 35.1357 37.2239 34.1212 36.1155 32.0924C36.2079 32.0924 34.9147 29.787 34.9147 26.7437ZM34.9147 22.4094C35.3766 18.6285 37.1315 16.6919 39.8102 16.6919C42.3965 16.6919 43.9667 18.444 44.2438 22.4094H34.9147Z" fill="black"/>
<path d="M107.33 26.7437H124.049C124.418 17.4296 120.446 12.0809 112.503 12.0809C104.652 12.0809 100.218 17.614 100.218 26.2826C100.218 35.0434 105.021 40.5766 113.334 40.5766C117.953 40.5766 121.001 39.6544 123.125 38.5478L121.37 33.5679C119.892 34.3057 117.491 35.0434 114.258 35.0434C111.395 35.0434 109.64 34.029 108.531 32.0002C108.624 32.0924 107.33 29.787 107.33 26.7437ZM107.423 22.4094C107.885 18.6285 109.64 16.6919 112.318 16.6919C114.904 16.6919 116.475 18.444 116.752 22.4094H107.423Z" fill="black"/>
<path d="M224.729 26.7437H241.447C241.817 17.4296 237.845 12.0809 229.901 12.0809C222.05 12.0809 217.616 17.614 217.616 26.2826C217.616 35.0434 222.42 40.5766 230.733 40.5766C235.351 40.5766 238.399 39.6544 240.523 38.5478L238.768 33.5679C237.291 34.3057 234.889 35.0434 231.656 35.0434C228.793 35.0434 227.038 34.029 225.929 32.0002C226.022 32.0924 224.729 29.787 224.729 26.7437ZM224.729 22.4094C225.191 18.6285 226.946 16.6919 229.624 16.6919C232.21 16.6919 233.781 18.444 234.058 22.4094H224.729Z" fill="black"/>
<path d="M252.069 26.7437H268.788C269.157 17.4296 265.185 12.0809 257.242 12.0809C249.391 12.0809 244.957 17.614 244.957 26.2826C244.957 35.0434 249.76 40.5766 258.073 40.5766C262.691 40.5766 265.74 39.6544 267.864 38.5478L266.109 33.5679C264.631 34.3057 262.23 35.0434 258.997 35.0434C256.133 35.0434 254.378 34.029 253.27 32.0002C253.362 32.0924 252.069 29.787 252.069 26.7437ZM252.069 22.4094C252.531 18.6285 254.286 16.6919 256.965 16.6919C259.551 16.6919 261.121 18.444 261.398 22.4094H252.069Z" fill="black"/>
<path d="M155.269 14.1095L154.715 19.5505H157.209V19.7349C156.562 23.5159 155.361 26.8358 153.791 29.2335C151.759 32.3689 149.173 33.9366 146.124 33.9366C142.707 33.9366 140.398 31.6312 140.213 28.1268C140.028 23.977 143.908 20.2882 149.265 19.6427L150.466 19.5505L151.112 14.2018L149.819 14.1095C146.863 13.9251 144.277 12.3574 144.185 9.95968C144.092 9.03749 144.277 8.39196 144.739 7.56199C145.57 6.1787 147.233 5.71761 148.803 5.71761C152.221 5.71761 154.16 7.19311 154.16 7.19311L156.1 2.30551C156.1 2.30551 152.036 3.05176e-05 147.972 3.05176e-05C144.462 3.05176e-05 142.337 0.645564 140.582 2.02885C138.643 3.59657 136.888 6.08649 137.257 10.0519C137.534 12.4496 139.012 14.7551 140.86 16.2306L141.044 16.3228L140.86 16.415C138.55 17.5216 136.518 19.0894 135.133 20.8415C133.285 23.147 132.639 25.9136 132.639 28.7724C132.639 34.3055 136.426 37.441 136.426 37.441C138.366 39.2853 141.414 40.392 144.739 40.392C148.988 40.392 151.574 39.2853 154.16 37.441C158.779 33.9366 161.827 27.4813 163.028 19.4582V19.366H166.445L166.907 13.9251H155.269V14.1095Z" fill="black"/>
<path d="M259.459 61.5101H257.149V63.8156H259.459V61.5101ZM254.194 57.6369C254.563 57.3602 255.395 57.268 256.133 57.268C256.318 57.268 256.688 57.268 256.965 57.3602L257.242 55.5158C256.965 55.4236 256.688 55.4236 256.503 55.4236C255.579 55.4236 254.748 55.7925 254.009 56.3458L253.917 55.6081H251.977V63.9078H254.286V57.6369H254.194ZM248.559 58.6513H245.419C245.419 58.1902 245.696 56.9914 247.082 56.9914C248.19 56.9914 248.559 57.6369 248.559 58.6513ZM250.314 59.9424C250.407 59.4813 250.499 58.928 250.499 58.4669C250.499 56.7147 249.575 55.3314 247.082 55.3314C244.31 55.3314 243.11 57.268 243.11 59.389C243.11 62.8012 245.049 64 247.359 64C248.282 64 249.298 63.8156 250.222 63.5389L250.037 61.879C249.391 62.0634 248.375 62.2478 247.636 62.2478C246.25 62.2478 245.327 61.6023 245.327 60.1268V59.9424H250.314ZM240.616 63.8156H243.202L239.785 59.2968L242.648 55.5158H240.154L237.845 58.5591H236.921V52.2882L234.612 52.4726V63.8156H236.921V60.0346H237.845L240.616 63.8156ZM230.917 64C231.841 64 232.488 63.8156 233.319 63.6311L233.226 62.0634C232.58 62.2478 231.841 62.3401 231.287 62.3401C229.994 62.3401 229.07 61.7867 229.07 59.7579C229.07 57.7291 229.994 57.1758 231.287 57.1758C231.841 57.1758 232.488 57.268 233.042 57.3602L233.226 55.7003C232.488 55.5158 231.749 55.4236 231.01 55.4236C228.7 55.4236 226.761 56.5303 226.761 59.7579C226.761 62.8012 228.7 64 230.917 64ZM223.805 58.6513H220.665C220.665 58.1902 220.942 56.9914 222.327 56.9914C223.343 56.9914 223.805 57.6369 223.805 58.6513ZM225.468 59.9424C225.56 59.4813 225.652 58.928 225.652 58.4669C225.652 56.7147 224.729 55.3314 222.235 55.3314C219.464 55.3314 218.263 57.268 218.263 59.389C218.263 62.8012 220.203 64 222.512 64C223.436 64 224.452 63.8156 225.375 63.5389L225.191 61.879C224.544 62.0634 223.528 62.2478 222.789 62.2478C221.404 62.2478 220.48 61.6023 220.48 60.1268V59.9424H225.468ZM214.661 62.1556C214.291 62.2478 213.922 62.3401 213.552 62.3401C212.352 62.3401 211.52 61.6023 211.52 59.8501C211.52 58.2824 212.167 57.0836 213.46 57.0836C213.829 57.0836 214.199 57.0836 214.568 57.1758V62.1556H214.661ZM216.878 52.4726H214.568V55.6081C214.014 55.4236 213.46 55.4236 212.998 55.4236C210.042 55.4236 209.119 57.7291 209.119 59.8501C209.119 63.17 211.058 64 213.09 64C214.476 64 215.861 63.8156 216.785 63.5389V52.4726H216.878ZM203.854 61.1412C203.854 62.5245 203.854 64 206.44 64C206.717 64 207.548 64 208.287 63.6311L208.01 62.0634C207.548 62.1556 207.087 62.2478 206.902 62.2478C206.348 62.2478 206.163 61.9712 206.163 61.4179V57.1758H208.38L208.472 55.6081H206.071V53.5792L203.761 53.7637V55.7003H202.284V57.268H203.761V61.1412H203.854ZM193.786 63.8156H196.003V57.3602C196.464 57.0836 197.111 56.9914 197.665 56.9914C198.404 56.9914 199.051 57.268 199.051 58.3746V63.8156H201.268V58.1902C201.268 55.7925 199.697 55.3314 198.035 55.3314C196.28 55.3314 194.525 55.9769 193.786 56.2536V63.8156ZM192.308 61.9712H187.228V59.1124H191.846V57.268H187.228V54.8703H192.123V53.0259H184.826V63.8156H192.308V61.9712ZM177.991 57.6369C178.361 57.3602 179.192 57.268 179.931 57.268C180.116 57.268 180.485 57.268 180.762 57.3602L181.039 55.5158C180.762 55.4236 180.485 55.4236 180.3 55.4236C179.377 55.4236 178.545 55.7925 177.806 56.3458L177.714 55.6081H175.774V63.9078H178.083V57.6369H177.991ZM170.786 53.8559H172.726V51.9193H170.786V53.8559ZM167.738 53.8559H169.678V51.9193H167.738V53.8559ZM174.019 55.5158H171.802V62.0634C171.433 62.1556 170.971 62.2478 170.417 62.2478C169.586 62.1556 168.847 61.879 168.847 60.7723V55.5158H166.538V60.9568C166.538 63.2622 168.2 64 169.863 64C171.71 64 173.28 63.5389 174.019 63.2622V55.5158ZM165.429 54.8703V53.0259H158.132V63.8156H160.534V59.1124H165.06V57.268H160.534V54.7781H165.429V54.8703ZM153.329 61.5101H151.02V63.8156H153.329V61.5101ZM142.06 63.8156H144.277V57.3602C144.739 57.0836 145.386 56.9914 145.94 56.9914C146.679 56.9914 147.325 57.268 147.325 58.3746V63.8156H149.542V58.1902C149.542 55.7925 147.972 55.3314 146.309 55.3314C144.554 55.3314 142.799 55.9769 142.06 56.2536V63.8156ZM138.735 58.6513H135.595C135.595 58.1902 135.872 56.9914 137.257 56.9914C138.273 56.9914 138.735 57.6369 138.735 58.6513ZM140.49 59.9424C140.582 59.4813 140.675 58.928 140.675 58.4669C140.675 56.7147 139.751 55.3314 137.257 55.3314C134.486 55.3314 133.285 57.268 133.285 59.389C133.285 62.8012 135.225 64 137.534 64C138.458 64 139.474 63.8156 140.398 63.5389L140.213 61.879C139.566 62.0634 138.55 62.2478 137.811 62.2478C136.426 62.2478 135.502 61.6023 135.502 60.1268V59.9424H140.49ZM132.085 55.7925C131.438 55.5158 130.699 55.3314 129.498 55.3314C127.466 55.3314 126.173 56.0692 126.173 57.9135C126.173 59.389 127.466 59.8501 128.667 60.4035C129.406 60.7723 130.053 61.049 130.053 61.6023C130.053 62.2478 129.498 62.3401 128.759 62.3401C127.836 62.3401 126.635 61.9712 126.266 61.879L125.896 63.5389C126.45 63.8156 127.651 64.0922 128.759 64.0922C131.161 64.0922 132.269 63.0778 132.269 61.3256C132.269 59.8501 130.976 59.4813 129.96 59.0202C129.129 58.7435 128.298 58.3746 128.298 57.8213C128.298 57.268 128.852 57.0836 129.591 57.0836C130.422 57.0836 131.346 57.268 131.715 57.4524L132.085 55.7925ZM122.479 54.2248H124.788V51.8271H122.479V54.2248ZM124.788 55.5158H122.479V63.8156H124.788V55.5158ZM119.246 58.6513H116.105C116.105 58.1902 116.382 56.9914 117.768 56.9914C118.784 56.9914 119.246 57.6369 119.246 58.6513ZM121.001 59.9424C121.093 59.4813 121.185 58.928 121.185 58.4669C121.185 56.7147 120.262 55.3314 117.768 55.3314C114.997 55.3314 113.796 57.268 113.796 59.389C113.796 62.8012 115.736 64 118.045 64C118.969 64 119.985 63.8156 120.908 63.5389L120.724 61.879C120.077 62.0634 119.061 62.2478 118.322 62.2478C116.937 62.2478 116.013 61.6023 116.013 60.1268V59.9424H121.001ZM107.33 58.3746V54.6859C107.7 54.5937 108.069 54.5937 108.439 54.5937C109.455 54.5937 110.471 54.9625 110.471 56.5303C110.471 58.098 109.547 58.4669 108.439 58.4669C108.069 58.4669 107.7 58.4669 107.33 58.3746ZM104.929 63.8156H107.33V59.9424C107.7 60.0346 108.069 60.1268 108.439 60.1268L110.748 63.8156H113.334L110.656 59.8501C111.949 59.389 112.872 58.3746 112.872 56.438C112.872 53.3948 110.748 52.8415 108.531 52.8415C107.238 52.8415 105.945 52.9337 104.929 53.1182V63.8156Z" fill="black"/>
</g>
<defs>
<clipPath id="clip0_2004_2276">
<rect width="288" height="64" fill="white"/>
</clipPath>
</defs>
</svg>
