<svg width="64" height="64" viewBox="0 0 64 64" fill="none" xmlns="http://www.w3.org/2000/svg">
<rect width="64" height="64" fill="#E23546"/>
<path d="M37.2587 12.6537C36.7667 13.1224 36.0934 14.3344 36.0934 16.0335C36.0934 16.4413 36.0934 26.1801 36.0934 26.5284C36.0934 27.3992 35.7713 28.2289 35.253 28.699C34.9805 28.9496 33.27 30.5015 33.1646 30.5836H34.1515C34.4502 30.299 37.5617 27.5571 37.8853 27.1847C38.3072 26.7018 39.3161 25.4834 39.3161 23.5684C39.3161 23.1188 39.3231 13.8898 39.3231 13.4834C39.3231 11.9705 40.0233 11.1316 40.39 10.7259C40.7624 10.3111 41.9426 9.29088 42.2449 9.02114L41.27 9.01123C40.989 9.27176 37.5964 12.3344 37.2587 12.6537Z" fill="white"/>
<path d="M29.5562 50.8602L33.365 54.1884H35.9186C38.5112 54.1884 40.8793 53.0769 42.4461 51.5116C44.0114 49.9463 44.5891 47.8457 44.5891 45.8783C44.5891 44.4475 44.5891 40.6833 44.5891 40.422C44.5891 38.5884 43.4393 37.5208 43.1172 37.2015C42.9431 37.0287 41.8323 35.981 41.8323 35.981V40.1693C41.8323 40.1693 43.0549 41.4295 43.2949 41.6843C44.4284 42.8872 44.4156 45.0733 40.8376 48.5608C40.2089 49.1718 38.4213 50.8602 35.9611 50.8602C35.6107 50.8602 29.5562 50.8602 29.5562 50.8602Z" fill="white"/>
<path d="M45.0557 31.5204C45.0557 31.5204 46.1488 32.7756 46.5793 33.1119C48.0207 34.2468 48.6529 32.9498 47.7255 31.4673C47.506 31.1119 46.6097 30.5165 45.0557 31.5204ZM40.1524 28.4712C39.7262 28.9193 39.3226 30.0174 39.3226 30.9852C39.3226 31.5232 39.3226 33.0524 39.3226 33.0524C39.3226 33.0524 41.0026 33.0524 41.414 33.0524C42.2303 33.0524 42.9672 32.4464 43.5393 31.9176C43.5541 31.8907 43.5393 29.8666 43.5393 29.8666C43.5393 29.8666 44.0759 30.4832 44.5531 30.9795C45.2554 30.3381 47.0657 28.445 48.3818 28.445C51.0494 28.445 50.4448 31.7873 49.3531 32.862C49.0012 33.2096 47.4274 34.6524 46.9403 35.1154C45.683 36.3154 43.5258 35.742 43.5258 32.6454C43.5258 32.6454 41.2143 34.8408 40.8639 35.1303C40.5113 35.4227 39.3226 36.685 39.3226 36.685C39.3226 36.685 39.3226 41.6046 39.3226 42.1285C39.3226 44.7402 38.5304 45.6811 37.7495 46.4025C37.4034 46.7218 34.5963 49.2691 34.0901 49.7144H33.0947C33.0947 49.7144 34.9028 48.1363 35.2448 47.7788C35.6377 47.3753 36.0929 46.5455 36.0929 45.1671C36.0929 44.8188 36.0504 36.6135 36.0504 36.6135C36.0504 36.6135 23.2618 36.6135 22.6791 36.6135C18.0278 36.6135 17.0345 31.4531 17.0055 30.0733C16.9977 29.6655 17.0055 25.5445 17.0055 24.9031C17.0055 24.0528 16.4632 22.6241 15.5952 22.1816H16.9057C17.0579 22.2468 17.8819 22.5802 17.8819 25.7434C17.8819 25.7434 17.8267 29.4255 17.8267 29.6223C17.8267 31.2266 19.1018 33.0673 20.946 33.0673C21.3226 33.0673 36.0787 33.0524 36.0787 33.0524C36.0929 32.6454 36.5028 31.0999 37.2299 30.2864C37.6391 29.8248 40.8872 26.8549 41.2568 26.5689L42.2175 26.559C42.078 26.6914 40.5014 28.0995 40.1524 28.4712Z" fill="white"/>
<path d="M28.8934 41.3199C28.8934 42.0483 26.5614 43.991 26.4247 44.1269C26.2562 43.3404 25.6672 42.4717 23.9277 40.7308L26.4814 38.1758C28.1925 39.8869 28.8934 40.2522 28.8934 41.3199Z" fill="white"/>
<path d="M24.4236 26.292C23.7255 27.0248 23.6023 27.2088 22.9475 27.6011C23.0077 27.6011 30.6891 27.6011 30.9397 27.6011C33.1075 27.6011 32.6742 26.2581 32.2834 25.5791C31.4912 24.188 28.9758 21.6053 28.9758 21.6053C28.9758 21.6053 24.5708 26.1384 24.4236 26.292ZM33.3227 12.0379C33.8367 12.5526 34.9397 13.9395 34.2777 14.6021C33.6923 15.1869 32.7875 16.1172 32.7875 16.1172C32.7443 15.7809 31.894 14.9759 31.894 14.9759C31.894 14.9759 31.9018 17.4432 31.894 17.749C31.8671 18.8619 31.4445 19.1798 31.4445 19.1798C31.4445 19.1798 33.5032 21.2209 33.5032 23.8453C33.5032 25.1189 33.5068 26.2871 33.5068 26.5391C33.5068 27.0786 33.3716 27.4935 32.9963 27.9062C32.8108 28.1115 30.905 30.0301 30.614 30.292C30.0625 30.789 29.4827 30.8726 29.0459 30.8726C28.7393 30.8726 22.1539 30.8726 21.9514 30.8726C20.8342 30.8726 19.6816 30.0011 19.6816 29.126C19.6816 28.9094 19.6972 26.4973 19.6972 26.4973C20.0597 26.9165 20.4307 27.4099 21.3241 27.3979C22.0229 27.3844 22.7549 26.8379 22.9546 26.6411C23.1549 26.4379 28.3209 21.0396 28.3209 21.0396C28.3209 21.0396 25.9032 18.7982 24.3075 17.7306C23.5287 17.2124 22.4993 17.8687 22.345 18.5554C21.8537 20.6998 22.345 23.9239 22.345 23.9239C22.345 23.9239 20.7662 22.3458 20.3861 21.9685C19.5946 21.177 19.6257 19.388 20.5652 18.4492C20.7117 18.2984 22.1439 16.6835 23.9641 16.6835C24.2537 16.6835 26.476 16.6835 26.7967 16.6835C28.6954 16.6835 30.745 18.5448 30.745 18.5448C30.745 18.5448 31.0487 18.2085 31.0487 17.8878C31.0487 16.9143 31.0416 14.3175 31.0416 14.3175C29.613 12.8867 29.4204 11.4135 30.1057 10.7267C31.3815 9.44743 31.8508 9 31.8508 9C31.8508 9 31.8353 10.5483 33.3227 12.0379Z" fill="white"/>
<path d="M15.3119 33.564H14C14 33.564 15.4117 34.3399 15.4117 36.3364C15.4117 36.8631 15.4117 42.2783 15.4117 42.7137C15.4117 46.8617 18.8347 50.7002 22.994 50.7002C23.6935 50.7002 26.0014 50.7002 26.4665 50.7002C28.5515 50.7002 29.2835 50.1955 30.5458 49.0755C31.006 48.6648 31.6064 47.9916 31.8294 47.7452C32.5543 46.9325 33.3267 46.2769 33.3267 44.1374C33.3267 43.6149 33.3267 42.3399 33.3267 42.0482C33.3267 40.245 32.2804 39.4946 31.7798 38.9912C31.4563 38.6663 30.5657 37.8181 30.5657 37.8181V42.0928C30.5657 42.0928 31.44 43.0245 31.8287 43.3303C33.6304 44.7533 32.1996 47.2369 30.5196 47.2369C30.1862 47.2369 23.3586 47.2397 22.8927 47.2397C19.9575 47.2397 16.2874 44.805 16.2874 40.5905C16.2874 40.0249 16.2874 37.4939 16.2874 37.1243C16.2888 33.564 15.3119 33.564 15.3119 33.564Z" fill="white"/>
<path d="M23.6738 41.332C23.6738 42.0605 21.3396 44.0017 21.203 44.1376C21.0359 43.3511 20.4455 42.481 18.7046 40.7401L21.2603 38.1851C22.9715 39.8983 23.6738 40.2644 23.6738 41.332Z" fill="white"/>
</svg>
