<svg width="210" height="64" viewBox="0 0 210 64" fill="none" xmlns="http://www.w3.org/2000/svg">
<path d="M40.064 48.0931C37.2699 48.2087 34.4782 47.8143 31.8255 46.9295L32.7215 43.0196C34.9634 43.6965 37.2819 44.0875 39.6218 44.1833C43.2058 44.1833 46.336 43.3804 46.336 39.1564C46.336 35.1651 43.2058 33.2335 37.8298 32.8727V29.5098C42.0422 29.1956 44.9513 26.9964 44.9513 23.6218C44.9513 20.5265 42.752 19.3629 39.936 19.3629C38.0835 19.304 36.2374 19.6084 34.5018 20.2589L33.1171 17.024C35.3329 15.8464 37.8251 15.2877 40.3316 15.4065C45.3935 15.4065 49.3847 17.7338 49.3847 22.8655C49.3743 24.5279 48.8803 26.1515 47.9628 27.5379C47.0454 28.9244 45.7443 30.0139 44.2182 30.6735C45.6494 31.2087 50.9789 33.1869 50.9789 38.9353C50.9905 46.0684 45.9287 48.0931 40.064 48.0931ZM19.2116 15.8604H12.4044L0 47.5927H4.65455L8.96 36.3753L10.3447 32.7796L13.6145 23.9825L15.5462 18.688L17.1985 23.9825L20.1076 32.7796H13.7425L12.4975 36.3753H21.3644L25.1811 47.5927H30.1033L19.2116 15.8604ZM82.048 15.8604L73.0065 34.3273L64.9891 15.8604H58.1818V47.5927H62.8364V26.1818L62.5222 21.9229L70.3418 39.6916H75.0778L83.9331 22.1091L83.712 26.6938V47.6393H88.3665V15.8604H82.048ZM133.12 63.4182C120.006 53.5273 109.382 40.7971 109.382 31.744C109.382 22.6909 119.983 9.89091 133.12 0C117.795 8.72727 104.239 22.5047 104.239 31.744C104.239 40.9833 117.818 54.6909 133.12 63.4182ZM209.455 31.744C209.455 22.5047 195.91 8.73891 180.573 0C193.722 9.89091 204.323 22.6909 204.323 31.744C204.323 40.7971 193.687 53.5273 180.573 63.4182C195.887 54.6909 209.455 40.9716 209.455 31.744ZM128.582 43.7295C128.075 43.7096 127.57 43.6591 127.069 43.5782C127.859 45.6604 128.873 47.6503 130.095 49.5127C132.212 50.2691 136.087 50.8742 142.895 49.9898C141.811 47.7663 140.848 45.4862 140.009 43.1593C136.231 43.756 132.4 43.9471 128.582 43.7295ZM141.219 31.488C141.545 33.8153 141.999 36.3985 142.627 39.1331C148.045 38.1113 153.389 36.7353 158.627 35.0138C158.895 34.9324 176.407 29.9636 185.926 19.8051C185.067 17.8581 184.014 16.0024 182.784 14.2662C175.919 21.0618 159.651 26.3331 155.601 27.5782C150.877 29.1244 146.076 30.4294 141.219 31.488ZM133.411 53.7716C138.284 59.0425 144.796 62.5117 151.889 63.616C149.048 60.4932 146.606 57.0302 144.617 53.3062C141.209 53.8544 137.753 54.0378 134.307 53.8531L133.411 53.7716ZM125.009 32.6749C125.02 35.0574 125.301 37.4309 125.847 39.7498C130.261 40.448 134.757 40.448 139.171 39.7498C138.566 37.0618 138.112 34.56 137.786 32.2095C134.248 32.8835 130.644 33.1412 127.046 32.9775L125.009 32.6749ZM163.852 48.5935C158.763 50.2622 153.58 51.626 148.329 52.6778C150.671 57.0177 153.833 60.8626 157.638 64C165.472 63.8325 172.965 60.7651 178.668 55.3913C184.37 50.0174 187.877 42.7193 188.509 34.9091C181.69 42.3331 166.051 47.8487 163.852 48.5935ZM137.391 28.6138C136.355 16.8727 138.81 9.30909 141.964 4.56145C137.362 6.94924 133.422 10.4387 130.497 14.7187C127.571 18.9987 125.75 23.9362 125.196 29.0909C127.441 29.5331 131.188 29.6727 137.391 28.6138ZM140.881 27.9389C144.675 27.1244 149.201 25.9258 154.636 24.1804C163.805 21.376 176.151 16.1164 180.678 11.5782C176.835 7.30976 171.919 4.14711 166.442 2.41818C160.965 0.689249 155.125 0.456979 149.527 1.74545C145.78 4.24727 139.415 11.0545 140.8 27.9622L140.881 27.9389ZM188.428 28.4975C188.174 26.7935 187.785 25.1125 187.264 23.4705C176.966 33.5011 160.5 38.1673 159.616 38.4233C154.352 40.1479 148.985 41.5393 143.546 42.5891C144.446 44.931 145.472 47.2227 146.618 49.4545C152.115 48.4454 157.532 47.0415 162.828 45.2538C181.969 38.8073 188.509 30.8364 188.369 28.5091L188.428 28.4975Z" fill="white"/>
</svg>
