<svg width="64" height="64" viewBox="0 0 64 64" fill="none" xmlns="http://www.w3.org/2000/svg">
<path d="M43.3631 32.4375C41.8186 32.7758 34.9178 36.0547 32.1199 37.4664C32.0689 37.478 30.57 37.8163 30.4642 37.8402C29.6131 37.6348 18.2587 33.8762 12.2042 35.8192C9.24647 36.7799 0.293723 39.1191 0.293723 39.1191C-0.60827 39.3986 0.814995 39.4998 1.24823 39.4349C1.67374 39.3785 3.14257 39.1438 4.88323 38.7908C8.37459 38.085 10.3415 37.9668 12.1818 37.8595C15.6886 37.661 20.933 38.1947 25.1279 40.2821C25.4507 40.4388 25.5966 40.6188 25.6167 40.8358C25.6484 41.4289 24.6723 42.3926 24.2861 42.6428C24.2861 42.6428 25.5063 42.7124 26.2693 42.4753C26.5542 42.3926 26.8801 42.3741 27.3249 42.3455C27.9018 42.2992 28.6841 42.2505 29.9105 42.0227C32.3284 41.581 33.4265 40.9794 34.5787 40.3292L34.6614 40.2821C35.4035 39.8797 42.0418 37.1722 42.0418 37.1722C46.0073 35.5458 47.6769 37.112 52.4309 36.6046C57.1927 36.1026 60.9574 34.7087 63.8642 34.4739C64.4086 34.4268 63.163 34.0623 62.8263 34.0214C61.4192 33.86 54.733 34.0152 52.695 33.7395C48.2368 33.1372 44.9239 32.0993 43.3631 32.4375Z" fill="#002D62"/>
<path d="M55.4657 32.9729C54.9166 31.1249 54.1281 29.3889 53.1265 27.8011C51.7689 27.893 50.7341 27.8011 49.7958 27.6999C49.7247 27.6876 49.656 27.6876 49.5896 27.6876C50.7989 29.202 51.7643 30.9218 52.4307 32.7752C52.5589 32.7953 52.6856 32.8177 52.8199 32.8324C53.386 32.9049 54.3436 32.952 55.4657 32.9729Z" fill="#002D62"/>
<path d="M14.5454 38.893C14.5454 40.941 15.3733 44.6656 15.3733 44.6656C15.4111 44.8162 15.4567 44.9807 15.4628 45.0378C15.4822 45.0981 15.6196 45.1421 15.7764 45.1421H18.2074C18.3542 45.1421 18.4522 45.0517 18.4175 44.9506C18.3781 44.8448 18.3241 44.6339 18.2785 44.4857C18.2785 44.4857 17.4004 41.009 17.375 38.9957C16.395 38.8629 15.4443 38.7903 14.5454 38.7664V38.893Z" fill="#002D62"/>
<path d="M17.9453 34.3894C18.4642 32.3815 19.3129 30.4996 20.4389 28.8269C19.5021 28.9064 18.3839 29.033 16.8881 29.3188C16.0656 30.8934 15.4447 32.6009 15.0493 34.3894C15.9359 34.3323 16.9058 34.3323 17.9453 34.3894Z" fill="#002D62"/>
<path d="M23.9513 24.9533C27.0658 22.377 31.0784 20.8248 35.4355 20.8248C38.7523 20.8248 41.8622 21.7314 44.535 23.296C45.2756 22.991 45.8779 22.774 46.2046 22.6998C46.8641 22.5554 47.6997 22.6442 48.7708 22.8218C45.1489 19.8131 40.5038 17.9999 35.4355 17.9999C28.7084 17.9999 22.7141 21.1993 18.8984 26.1479C19.9302 25.863 20.8445 25.5989 21.4492 25.4012C22.1728 25.1718 23.0099 25.0181 23.9513 24.9533Z" fill="#002D62"/>
<path d="M46.4024 23.5641C45.1807 23.8189 39.6992 26.433 37.4929 27.5489C37.4488 27.552 36.2603 27.8292 36.1762 27.8385C35.5066 27.6833 26.5045 24.707 21.7142 26.2461C19.3657 27.006 12.2679 28.8625 12.2679 28.8625C11.5513 29.0726 12.6842 29.1521 13.0325 29.1104C13.363 29.0649 14.5306 28.8718 15.9145 28.5946C18.6738 28.0347 20.226 27.9397 21.6949 27.8555C24.4657 27.6995 28.6243 28.1297 31.9465 29.7784C32.2029 29.902 32.328 30.0541 32.345 30.2263C32.3581 30.6835 31.5921 31.4558 31.2847 31.6519C31.2847 31.6519 32.2485 31.6998 32.8516 31.5206C33.0872 31.4558 33.3389 31.4303 33.6887 31.4148C34.1505 31.3801 34.7699 31.3361 35.7414 31.16C37.6604 30.8117 38.5308 30.3229 39.4382 29.8178L39.5061 29.7915C40.0884 29.4556 45.3374 27.3126 45.3374 27.3126C48.4929 26.0245 49.8157 27.2701 53.5866 26.8655C57.3483 26.4662 60.3439 25.3681 62.639 25.1719C63.08 25.1356 62.0814 24.8522 61.8189 24.8205C60.7115 24.6923 55.4207 24.8128 53.7874 24.5958C50.2636 24.1209 47.6318 23.3 46.4024 23.5641Z" fill="#002D62"/>
</svg>
