<svg width="220" height="64" viewBox="0 0 220 64" fill="none" xmlns="http://www.w3.org/2000/svg">
<g clip-path="url(#clip0_2007_5982)">
<path d="M49.6646 16.5359C47.8957 16.9233 39.992 20.6788 36.7875 22.2956C36.7291 22.3088 35.0124 22.6962 34.8912 22.7237C33.9165 22.4884 20.912 18.1836 13.9777 20.409C10.5902 21.5093 0.336406 24.1884 0.336406 24.1884C-0.696664 24.5085 0.933429 24.6244 1.42962 24.5501C1.91697 24.4855 3.59925 24.2167 5.59286 23.8125C9.59158 23.004 11.8443 22.8687 13.9521 22.7458C17.9685 22.5185 23.975 23.1296 28.7794 25.5204C29.1491 25.6999 29.3163 25.906 29.3393 26.1546C29.3756 26.8338 28.2576 27.9377 27.8154 28.2242C27.8154 28.2242 29.2128 28.3038 30.0867 28.0323C30.4131 27.9377 30.7863 27.9164 31.2958 27.8837C31.9565 27.8306 32.8525 27.7749 34.257 27.514C37.0263 27.0081 38.284 26.3191 39.6037 25.5743L39.6983 25.5204C40.5483 25.0596 48.1513 21.9586 48.1513 21.9586C52.6931 20.0959 54.6053 21.8896 60.0501 21.3085C65.5038 20.7336 69.8157 19.1371 73.1448 18.8682C73.7684 18.8143 72.3417 18.3968 71.9561 18.3499C70.3446 18.1651 62.6868 18.3428 60.3526 18.0271C55.2465 17.3372 51.4521 16.1485 49.6646 16.5359Z" fill="white"/>
<path d="M61.2838 23.9295C61.2838 26.2203 60.2331 30.3349 60.2331 30.3349C60.1889 30.5047 60.1146 30.7461 60.0801 30.8673C60.0385 30.9832 60.1473 31.0867 60.3268 31.0867H63.1068C63.2721 31.0867 63.4464 31.0363 63.457 30.9673C63.4747 30.9018 63.526 30.7134 63.5711 30.5409C63.5711 30.5409 64.5157 26.2857 64.5157 23.9295C64.5157 23.1812 64.468 22.44 64.3972 21.7041C63.3898 21.9014 62.3116 22.0774 61.2113 22.2171C61.26 22.7823 61.2838 23.3625 61.2838 23.9295Z" fill="white"/>
<path d="M63.526 17.1489C62.8971 15.0324 61.9941 13.0441 60.8469 11.2256C59.292 11.3308 58.1068 11.2256 57.0322 11.1097C56.9508 11.0956 56.8721 11.0956 56.796 11.0956C58.1811 12.83 59.2867 14.7998 60.05 16.9225C60.1968 16.9455 60.3419 16.9711 60.4958 16.988C61.1441 17.0711 62.2409 17.125 63.526 17.1489Z" fill="white"/>
<path d="M16.6591 23.9295C16.6591 26.2751 17.6072 30.5409 17.6072 30.5409C17.6506 30.7134 17.7027 30.9018 17.7098 30.9673C17.7319 31.0363 17.8894 31.0867 18.0689 31.0867H20.8532C21.0213 31.0867 21.1336 30.9832 21.0938 30.8673C21.0487 30.7461 20.9868 30.5047 20.9346 30.3349C20.9346 30.3349 19.929 26.3529 19.8998 24.0471C18.7774 23.895 17.6886 23.8118 16.6591 23.7844V23.9295Z" fill="white"/>
<path d="M20.5529 18.7712C21.1472 16.4716 22.1193 14.3161 23.4089 12.4003C22.336 12.4914 21.0553 12.6365 19.342 12.9638C18.4001 14.7672 17.6889 16.7228 17.2361 18.7712C18.2515 18.7058 19.3624 18.7058 20.5529 18.7712Z" fill="white"/>
<path d="M27.4318 7.96399C30.9989 5.01337 35.5946 3.23557 40.5849 3.23557C44.3837 3.23557 47.9455 4.27395 51.0067 6.0659C51.8549 5.71653 52.5448 5.46799 52.9189 5.38308C53.6742 5.21769 54.6312 5.3194 55.858 5.52283C51.7098 2.07691 46.3897 0.000153646 40.5849 0.000153646C32.8802 0.000153646 26.0149 3.66454 21.6447 9.33228C22.8263 9.0059 23.8735 8.70341 24.5661 8.47699C25.3948 8.2143 26.3536 8.03828 27.4318 7.96399Z" fill="white"/>
<path d="M53.1455 6.37304C51.7463 6.66491 45.4682 9.65887 42.9413 10.9369C42.8909 10.9405 41.5297 11.258 41.4333 11.2686C40.6664 11.0908 30.3561 7.68206 24.8696 9.44483C22.1799 10.3152 14.0507 12.4414 14.0507 12.4414C13.2299 12.682 14.5274 12.7731 14.9263 12.7254C15.3049 12.6732 16.6422 12.452 18.2272 12.1345C21.3875 11.4933 23.1653 11.3845 24.8475 11.2881C28.021 11.1094 32.7839 11.6021 36.589 13.4904C36.8826 13.6319 37.0259 13.8062 37.0454 14.0034C37.0604 14.527 36.183 15.4115 35.831 15.6362C35.831 15.6362 36.9348 15.691 37.6256 15.4858C37.8953 15.4115 38.1837 15.3823 38.5843 15.3646C39.1133 15.3248 39.8226 15.2744 40.9353 15.0728C43.1332 14.6739 44.13 14.114 45.1693 13.5355L45.2471 13.5055C45.914 13.1207 51.9258 10.6663 51.9258 10.6663C55.5398 9.19098 57.0549 10.6176 61.3738 10.1542C65.6821 9.6969 69.113 8.43918 71.7416 8.21452C72.2467 8.17295 71.1031 7.84834 70.8023 7.81208C69.534 7.66526 63.4744 7.80324 61.6038 7.5547C57.5679 7.01074 54.5536 6.07054 53.1455 6.37304Z" fill="white"/>
<path fill-rule="evenodd" clip-rule="evenodd" d="M90.1261 23.9709L89.0771 16.375C89.0408 16.0725 88.9152 16.0522 88.7905 16.3352L85.8107 23.4632C85.6948 23.741 85.8505 23.9709 86.153 23.9709H90.1261ZM97.7255 30.463C97.7724 30.7566 97.5769 30.9963 97.2726 30.9963H91.7464C91.4457 30.9963 91.1609 30.7566 91.1353 30.4488L90.9619 28.9788C90.9362 28.671 90.6514 28.4296 90.356 28.4296H84.4221C84.1196 28.4296 83.7755 28.6613 83.6596 28.9275L82.9813 30.4975C82.8619 30.7717 82.5098 30.9963 82.2144 30.9963H76.2424C75.9417 30.9963 75.8055 30.7823 75.9417 30.5046L86.1663 9.56014C86.2998 9.27888 86.6642 9.05776 86.9632 9.05776H92.9077C93.2094 9.05776 93.503 9.29745 93.5676 9.60171L97.7255 30.463Z" fill="white"/>
<path fill-rule="evenodd" clip-rule="evenodd" d="M119.68 9.0576L118.982 13.717C118.932 14.0186 118.643 14.2698 118.348 14.2698H109.315C108.999 14.2698 108.709 14.5042 108.666 14.8067L108.358 16.7366C108.314 17.0161 108.526 17.2682 108.823 17.2682H116.681C116.994 17.2682 117.197 17.5203 117.148 17.821L116.528 21.6437C116.499 21.9427 116.202 22.1779 115.894 22.1779H108.073C107.774 22.1779 107.496 22.43 107.448 22.7343L107.085 25.1905C107.042 25.4965 107.256 25.738 107.565 25.738H117.262C117.563 25.738 117.768 25.9856 117.731 26.2863L117.137 30.4522C117.097 30.7565 116.811 30.9971 116.51 30.9971H99.8553C99.5493 30.9971 99.3335 30.7565 99.3909 30.4522L102.554 9.60687C102.595 9.2973 102.886 9.0576 103.181 9.0576H119.68Z" fill="white"/>
<path fill-rule="evenodd" clip-rule="evenodd" d="M161.94 9.0576L161.238 13.717C161.186 14.0186 160.907 14.2698 160.606 14.2698H151.554C151.25 14.2698 150.962 14.5042 150.911 14.8067L150.604 16.7189C150.57 17.0161 150.766 17.2682 151.081 17.2682H158.937C159.239 17.2682 159.464 17.5203 159.407 17.821L158.801 21.6437C158.757 21.9427 158.469 22.1779 158.148 22.1779H150.309C150.013 22.1779 149.74 22.43 149.691 22.7343L149.332 25.1905C149.291 25.4965 149.501 25.738 149.809 25.738H159.52C159.821 25.738 160.033 25.9856 159.998 26.2863L159.397 30.4522C159.355 30.7565 159.069 30.9971 158.761 30.9971H142.091C141.789 30.9971 141.581 30.7565 141.628 30.4522L144.799 9.60687C144.846 9.2973 145.122 9.0576 145.432 9.0576H161.94Z" fill="white"/>
<path fill-rule="evenodd" clip-rule="evenodd" d="M174.321 23.9709L173.291 16.375C173.244 16.0725 173.117 16.0522 172.992 16.3352L170.014 23.4632C169.893 23.741 170.042 23.9709 170.353 23.9709H174.321ZM181.924 30.463C181.984 30.7566 181.787 30.9963 181.481 30.9963H175.965C175.662 30.9963 175.374 30.7566 175.352 30.4488L175.171 28.9788C175.138 28.671 174.865 28.4296 174.556 28.4296H168.632C168.33 28.4296 167.983 28.6613 167.854 28.9275L167.185 30.4975C167.071 30.7717 166.706 30.9963 166.417 30.9963H160.439C160.136 30.9963 159.998 30.7823 160.127 30.5046L170.375 9.56014C170.505 9.27888 170.868 9.05776 171.171 9.05776H177.105C177.413 9.05776 177.706 9.29745 177.77 9.60171L181.924 30.463Z" fill="white"/>
<path fill-rule="evenodd" clip-rule="evenodd" d="M206.969 9.0576L203.73 30.4522C203.692 30.7565 203.403 30.9971 203.097 30.9971H197.723C197.422 30.9971 197.073 30.7724 196.947 30.4973L192.192 20.1295C192.076 19.858 191.915 19.3865 191.84 19.0982L191.595 17.7591C191.55 17.4584 191.512 17.3531 191.512 17.5141C191.512 17.6866 191.512 18.0669 191.511 18.3703C191.511 18.3703 191.504 18.8921 191.472 19.1804C191.447 19.4591 191.387 19.9358 191.342 20.2427L189.821 30.4522C189.773 30.7565 189.489 30.9971 189.189 30.9971H183.747C183.454 30.9971 183.234 30.7565 183.285 30.4522L186.428 9.60687C186.468 9.2973 186.758 9.0576 187.064 9.0576H192.391C192.689 9.0576 193.043 9.28934 193.178 9.55999L197.81 19.7766C197.939 20.0517 198.118 20.5266 198.205 20.8114L198.54 22.3301C198.599 22.6308 198.651 22.6273 198.661 22.3301L198.747 20.7389C198.778 20.4311 198.827 19.9482 198.894 19.6475L200.415 9.60156C200.46 9.2973 200.744 9.0576 201.052 9.0576H206.969Z" fill="white"/>
<path fill-rule="evenodd" clip-rule="evenodd" d="M135.78 18.6916C135.48 18.6916 135.231 18.6916 135.231 18.7137C135.231 18.7137 134.981 18.7172 134.676 18.7172H133.545C133.227 18.7172 132.949 18.9649 132.907 19.2585L132.295 23.0777C132.251 23.3749 132.458 23.6217 132.766 23.6217H133.491C133.801 23.6217 133.919 23.8445 133.778 24.1002C133.778 24.1002 133.491 24.6167 133.154 24.9643C132.228 25.9416 131.052 26.4148 129.623 26.4148C128.245 26.4148 127.219 25.9231 126.566 24.9386C125.911 23.9551 125.761 22.3294 126.103 20.074C126.438 17.7965 127.1 16.1629 128.052 15.1758C129.007 14.1914 130.162 13.6961 131.501 13.6961C132.892 13.6961 133.919 14.1861 134.593 15.1661L134.685 15.2987C134.768 15.4765 135.093 15.6198 135.396 15.6198H141.234C141.529 15.6198 141.72 15.3889 141.642 15.0882C141.642 15.0882 140.987 12.5887 140.07 11.4548C138.452 9.46294 135.86 8.45641 132.302 8.45641C128.844 8.45641 125.973 9.47886 123.727 11.4946C121.475 13.5422 120.077 16.3884 119.516 20.0493C119.122 22.6532 119.289 24.8245 119.998 26.5723C120.722 28.3209 121.808 29.5919 123.26 30.4003C124.707 31.2025 126.659 31.6094 129.054 31.6094C131.439 31.6094 133.481 31.1229 135.207 30.2004C136.938 29.2673 138.359 27.9698 139.449 26.2892C140.556 24.6167 141.284 22.4798 141.687 19.8697C141.733 19.4708 141.766 19.2479 141.766 19.2479C141.801 18.9454 141.573 18.6916 141.27 18.6916H135.78Z" fill="white"/>
<path d="M0.0510254 38.437H219.365Z" fill="white"/>
<path d="M0.0510254 38.437H219.365" stroke="white" stroke-width="0.383863"/>
<path d="M198.981 50.8921C199.656 49.9537 200.407 49.0541 201.233 48.1971C202.062 47.3383 202.941 46.5528 203.858 45.8426L202.874 49.7741L198.981 50.8921Z" fill="white"/>
<path d="M205.789 52.5903C204.64 52.4727 203.485 52.2746 202.329 51.9853C201.169 51.697 200.054 51.3308 198.979 50.8921L202.874 49.7742L205.789 52.5903Z" fill="white"/>
<path d="M203.857 45.8427C204.329 46.8978 204.735 47.999 205.065 49.1435C205.391 50.2889 205.633 51.4414 205.791 52.5903L202.875 49.7742L203.857 45.8427Z" fill="white"/>
<path d="M197.604 58.9734C196.922 58.042 196.296 57.0488 195.737 55.9989C195.177 54.9446 194.7 53.8691 194.307 52.7767L197.745 54.9243L197.604 58.9734Z" fill="white"/>
<path d="M201.321 53.0223C200.857 54.0793 200.311 55.1176 199.681 56.1268C199.048 57.1404 198.354 58.0895 197.604 58.9749L197.746 54.9239L201.321 53.0223Z" fill="white"/>
<path d="M194.311 52.7768C195.46 52.6521 196.629 52.6079 197.82 52.6477C199.011 52.6884 200.183 52.8184 201.322 53.0218L197.746 54.9243L194.311 52.7768Z" fill="white"/>
<path d="M204.866 62.7791C203.768 63.1417 202.629 63.4283 201.457 63.6361C200.283 63.8431 199.11 63.9643 197.955 63.9988L201.059 61.394L204.866 62.7791Z" fill="white"/>
<path d="M200.354 57.4031C201.216 58.1753 202.033 59.0147 202.801 59.9274C203.567 60.8411 204.256 61.7946 204.867 62.7808L201.059 61.3939L200.354 57.4031Z" fill="white"/>
<path d="M197.955 63.9988C198.19 62.8675 198.509 61.7372 198.915 60.6201C199.325 59.4986 199.809 58.4239 200.354 57.4032L201.059 61.394L197.955 63.9988Z" fill="white"/>
<path d="M210.728 57.0491C210.731 58.2069 210.655 59.3762 210.491 60.5561C210.325 61.736 210.077 62.8885 209.751 64.0002L208.233 60.243L210.728 57.0491Z" fill="white"/>
<path d="M204.222 59.68C205.22 59.0998 206.272 58.5797 207.374 58.1322C208.482 57.6864 209.603 57.3255 210.731 57.0487L208.233 60.2434L204.222 59.68Z" fill="white"/>
<path d="M209.752 63.9988C208.748 63.4274 207.774 62.772 206.836 62.0397C205.895 61.3073 205.023 60.5157 204.218 59.6799L208.233 60.2433L209.752 63.9988Z" fill="white"/>
<path d="M207.091 49.7036C208.192 50.0574 209.282 50.4917 210.351 51.0126C211.423 51.5362 212.441 52.1288 213.398 52.7807L209.358 53.0637L207.091 49.7036Z" fill="white"/>
<path d="M207.582 56.7051C207.335 55.5756 207.169 54.4125 207.086 53.2273C207.002 52.0377 207.007 50.8596 207.091 49.7036L209.358 53.0637L207.582 56.7051Z" fill="white"/>
<path d="M213.398 52.7805C212.543 53.5562 211.62 54.2832 210.634 54.9484C209.646 55.6152 208.626 56.2008 207.58 56.7058L209.358 53.0635L213.398 52.7805Z" fill="white"/>
<path d="M215.813 54.0276H215.988V52.4939H216.653V52.3329H215.148V52.4939H215.813V54.0276Z" fill="white"/>
<path d="M218.854 52.3329H219.102V54.0276H218.928V52.5647H218.926L218.176 54.0276H218.014L217.27 52.5629H217.264V54.0276H217.09V52.3329H217.346L218.1 53.8065L218.854 52.3329Z" fill="white"/>
<path d="M140.337 52.1308H141.432V59.6196H140.662V53.155H140.64L137.342 59.6196H136.627L133.338 53.1444H133.32V59.6196H132.548V52.1308H133.675L137.008 58.6449L140.337 52.1308Z" fill="white"/>
<path d="M111.039 55.895C111.039 58.2513 112.674 59.7734 115.079 59.7734C117.321 59.7734 118.677 58.2583 118.854 56.7636L118.876 56.5822H118.068L118.042 56.7158C117.787 58.1531 116.652 59.0429 115.079 59.0429C112.763 59.0429 111.837 57.4154 111.837 55.8915C111.837 54.0296 113.18 52.7286 115.108 52.7286C116.578 52.7286 117.633 53.4282 117.934 54.601L117.965 54.7293H118.769L118.724 54.5267C118.355 52.9223 117.04 51.9998 115.108 51.9998C112.369 51.9998 111.039 54.0208 111.039 55.895ZM121.278 52.1563V59.6142H127.297V58.8854H122.05V56.1161H127.029V55.3988H122.05V52.886H127.235V52.1563H121.278ZM107.851 52.1563V58.3813C107.375 57.8002 102.455 52.1563 102.455 52.1563H101.678V59.6142H102.445V53.3919C102.923 53.9739 107.843 59.6142 107.843 59.6142H108.619V52.1563H107.851ZM88.8476 59.6142H89.6162V52.1563H88.8476V59.6142ZM81.8752 52.1563V59.6142H87.2396V58.8854H82.6509V52.1563H81.8752ZM74.841 52.1563V59.6142H80.2151V58.8854H75.6167V52.1563H74.841ZM95.7978 53.1876C96.0322 53.7024 97.1793 56.2196 97.3483 56.5946H94.2358C94.41 56.2178 95.5625 53.7024 95.7978 53.1876ZM95.4378 52.1563L92.0069 59.6142H92.864C92.864 59.6142 93.8316 57.4879 93.913 57.3102H97.6667C97.748 57.4862 98.7289 59.6142 98.7289 59.6142H99.5736L96.1604 52.1563H95.4378ZM68.6585 53.1876C68.892 53.7024 70.0391 56.2196 70.2063 56.5946H67.0983C67.2681 56.2178 68.4214 53.7024 68.6585 53.1876ZM68.2976 52.1563L64.8685 59.6142H65.7238C65.7238 59.6142 66.6923 57.4879 66.7736 57.3102H70.5274C70.6087 57.4862 71.587 59.6142 71.587 59.6142H72.4352L69.0193 52.1563H68.2976ZM56.9064 52.886C58.0845 52.886 58.6541 53.3106 58.6541 54.1862C58.6541 55.1662 58.05 55.6429 56.7976 55.6429H53.8399V52.886H56.9064ZM53.0642 52.1563V59.6142H53.8399V56.3717H56.8578C58.188 56.3717 58.5011 56.6362 58.5356 57.7966C58.563 59.0092 58.6161 59.4073 58.7789 59.5656L58.8275 59.6142H59.6271L59.5006 59.3763C59.3785 59.1428 59.3387 58.6793 59.3246 57.4756C59.3148 56.7361 58.9089 56.1993 58.2694 55.9622C59.1035 55.5872 59.4475 54.8292 59.4475 54.2092C59.4475 52.8268 58.6046 52.1563 56.8719 52.1563H53.0642ZM47.1214 53.1876C47.3567 53.7024 48.511 56.2178 48.6817 56.5946H45.5701C45.7434 56.2196 46.8888 53.7024 47.1214 53.1876ZM46.7747 52.1563L43.3438 59.6142H44.1867C44.1867 59.6142 45.1659 57.4862 45.2472 57.3102H49.0027C49.0823 57.4879 50.0517 59.6142 50.0517 59.6142H50.9123L47.4814 52.1563H46.7747ZM36.5909 52.1563V52.886H39.4778V59.6142H40.2446V52.886H43.1333V52.1563H36.5909ZM28.6827 57.1651C28.6827 57.9037 28.9003 58.4503 29.3302 58.8837C29.906 59.4603 30.9302 59.7522 32.2118 59.7522C32.93 59.7522 35.3906 59.5939 35.3906 57.5516C35.3906 55.7553 33.7526 55.5872 32.3047 55.4439L32.3029 55.4404C30.8108 55.29 29.7087 55.1282 29.7087 54.1119C29.7087 53.6095 29.9643 53.2416 30.4977 53.0001C31.0478 52.7454 31.6413 52.7091 32.2569 52.7091C32.7266 52.7091 33.5916 52.7816 34.0842 53.2708C34.3089 53.4972 34.4265 53.8581 34.4265 54.2145L35.1766 54.2225C35.1766 53.6767 35.0014 53.1257 34.6565 52.779C34.0276 52.1501 32.9698 52.0183 32.1915 52.0183C31.1248 52.0183 30.0749 52.2465 29.4284 52.894C29.0887 53.2292 28.9171 53.6422 28.9171 54.1119C28.9171 55.8729 30.7091 56.0162 32.1154 56.1418C32.7805 56.201 33.4076 56.2576 33.8737 56.462C34.3655 56.6778 34.5972 57.0369 34.5972 57.5861C34.5972 57.9355 34.4796 58.2291 34.2505 58.4582C33.7039 59.0048 32.5727 59.0614 32.1632 59.0614C31.1478 59.0614 30.3305 58.8439 29.8971 58.4105C29.584 58.0974 29.4284 57.7126 29.4239 57.1633L28.6827 57.1651Z" fill="white"/>
<path d="M18.7199 56.5947C18.8924 56.2196 20.0396 53.7024 20.2713 53.1912C20.5048 53.7024 21.6617 56.2196 21.8342 56.5947H18.7199ZM20.6339 52.1581H19.9237L16.4963 59.6143H17.3375C17.3375 59.6143 18.3157 57.4862 18.3971 57.312H22.1543C22.2339 57.488 23.2007 59.6143 23.2007 59.6143H24.0613L20.6339 52.1581Z" fill="white"/>
<path d="M143.841 52.1723V59.6284H149.861V58.8987H144.615V56.1321H149.593V55.413H144.615V52.9011H149.802V52.1723H143.841Z" fill="white"/>
<path d="M160.001 52.1379H161.096V59.625H160.328V53.1586H160.306L157.006 59.625H156.291L153.002 53.1489H152.982V59.625H152.214V52.1379H153.337L156.672 58.6485L160.001 52.1379Z" fill="white"/>
<path d="M164.294 56.1041H167.731C168.628 56.1041 169.299 56.4083 169.299 57.4909C169.299 58.5187 168.546 58.9185 167.542 58.9185H164.294V56.1041ZM163.531 59.6199H167.668C168.815 59.6199 170.127 59.0494 170.127 57.4909C170.127 56.5357 169.536 55.814 168.557 55.6671V55.6459C169.442 55.4354 169.835 54.7614 169.835 54.0362C169.835 52.9757 169.228 52.1567 167.765 52.1567H163.531V59.6199ZM164.294 52.8563H167.62C168.465 52.8563 169.067 53.1535 169.067 54.0689C169.067 55.0657 168.401 55.4027 167.359 55.4027H164.294V52.8563Z" fill="white"/>
<path d="M172.564 52.1654V59.6216H178.584V58.891H173.334V56.1235H178.315V55.4062H173.334V52.8942H178.522V52.1654H172.564Z" fill="white"/>
<path d="M184.66 55.6481H181.698V52.8947H184.765C185.947 52.8947 186.517 53.3175 186.517 54.1922C186.517 55.1713 185.907 55.6481 184.66 55.6481ZM187.362 59.3815C187.239 59.148 187.197 58.6871 187.184 57.4825C187.175 56.7431 186.767 56.2062 186.128 55.9691C186.963 55.5959 187.306 54.8361 187.306 54.2161C187.306 52.8337 186.461 52.1641 184.73 52.1641H180.923V59.6194H181.698V56.3787H184.718C186.047 56.3787 186.36 56.6413 186.394 57.8044C186.422 59.0171 186.477 59.4124 186.637 59.5716L186.686 59.6194H187.486L187.362 59.3815Z" fill="white"/>
</g>
<defs>
<clipPath id="clip0_2007_5982">
<rect width="219.374" height="64" fill="white"/>
</clipPath>
</defs>
</svg>
