<svg width="493" height="64" viewBox="0 0 493 64" fill="none" xmlns="http://www.w3.org/2000/svg">
<path d="M34.6153 45.5385C34.6153 43.3846 35.5384 43.0769 37.6922 44.3077C41.3846 46.4615 45.0769 48.3077 45.0769 48.3077C45.0769 47.0769 46.3076 46.1538 48.4615 46.7692C50.6153 47.3846 52.7692 47.6923 52.7692 47.6923C52.7692 47.6923 51.5384 44.9231 50.923 43.6923C49.9999 41.5385 50.923 40.3077 51.8461 40C51.8461 40 50.6153 39.0769 49.6922 38.4615C47.8461 37.2308 48.1538 35.6923 49.9999 35.0769C52.4615 33.8462 55.8461 32.6154 55.8461 32.6154C54.923 32 53.6922 30.4615 54.923 28.3077C56.1538 26.4615 58.3076 23.6923 58.3076 23.6923C58.3076 23.6923 54.923 23.6923 52.4615 23.6923C50.3076 23.6923 49.6922 21.8462 49.6922 20.6154C49.6922 20.6154 46.3076 23.0769 43.8461 24.6154C41.6922 26.1538 39.8461 24.6154 40.1538 22.1538C40.7692 18.4615 41.0769 14.1538 41.0769 14.1538C39.8461 15.3846 37.6922 15.0769 36.4615 13.2308C34.923 10.1538 33.3846 6.46154 33.3846 6.46154C33.3846 6.46154 31.8461 10.1538 30.3076 13.2308C29.3846 15.0769 27.2307 15.3846 25.9999 14.4615C25.9999 14.4615 26.3076 18.7692 26.923 22.4615C27.2307 24.6154 25.3846 26.1538 23.2307 24.6154C20.7692 23.0769 17.0769 20.6154 17.0769 20.6154C17.0769 21.8462 16.4615 23.3846 14.3076 23.6923C11.8461 23.6923 8.46147 23.6923 8.46147 23.6923C8.46147 23.6923 10.6153 26.4615 11.8461 28.3077C13.0769 30.1538 11.8461 32 10.923 32.6154C10.923 32.6154 13.9999 34.1538 16.7692 35.0769C18.6153 36 19.2307 37.2308 17.0769 38.4615C16.4615 39.0769 14.923 40 14.923 40C16.1538 40.3077 17.0769 41.5385 16.1538 43.6923C15.5384 44.9231 14.3076 47.6923 14.3076 47.6923C14.3076 47.6923 16.4615 47.0769 18.6153 46.7692C20.7692 46.1538 21.6922 47.3846 21.9999 48.3077C21.9999 48.3077 25.6922 46.1538 29.3846 44.3077C31.2307 43.0769 32.4615 43.6923 32.4615 45.5385V50.7692C32.4615 53.8462 31.8461 56.9231 30.923 58.7692C17.0769 57.2308 5.38455 46.1538 5.38455 31.3846C5.38455 16.3077 17.9999 4 33.6922 4C49.3845 4 61.9999 16.3077 61.9999 31.3846C61.9999 45.5385 50.923 57.2308 36.7692 58.7692V62.4615C53.3846 60.9231 66.3076 47.6923 66.3076 31.3846C66.3076 13.8462 51.5384 0 33.3846 0C15.5384 0 0.769165 13.8462 0.769165 31.0769C0.769165 46.1538 12.1538 58.7692 27.2307 61.5385C29.6922 62.1538 31.2307 62.4615 32.7692 64C34.3076 60.9231 34.6153 54.7692 34.6153 51.3846V45.5385Z" fill="white"/>
<path d="M166.615 47.6922V14.4614H182.923C191.538 14.4614 195.538 18.1537 195.846 22.7691C195.846 24.923 195.538 27.0768 194 28.6153C192.461 30.1537 191.846 30.7691 189.077 32.3076L201.384 47.9999H192.461L181.384 33.846H174V47.6922H166.615ZM174 29.5384H177.384C186.308 29.5384 188.154 27.9999 188.154 23.6922C188.154 19.3845 184.154 18.7691 178.308 18.7691H174V29.5384Z" fill="white"/>
<path d="M93.6921 47.6922L108.154 14.4614H117.077L131.538 47.6922H122.615L118.615 38.7691H103.231L99.2306 47.6922H93.6921ZM105.077 34.4614H116.461L110.615 21.2307L105.077 34.4614Z" fill="white"/>
<path d="M149.384 14.4614H141.692V47.6922H149.384V14.4614Z" fill="white"/>
<path d="M256.769 46.4617C253.077 48.0001 248.461 48.6155 242.923 48.6155C236.461 48.6155 231.231 47.077 227.538 44.0001C223.846 40.9232 222 36.6155 222 31.077C222 25.5386 223.846 20.9232 227.538 18.154C231.231 15.077 236.461 13.5386 243.538 13.5386C247.846 13.5386 252.154 13.8463 256.769 14.7693V20.3078C251.846 18.7693 247.231 18.154 243.846 18.154C239.538 18.154 236.461 19.3847 234 21.5386C231.846 23.6924 230.615 27.077 230.615 31.077C230.615 35.077 231.846 38.154 234.308 40.6155C236.769 42.7693 240.154 44.0001 244.461 44.0001C248.461 44.0001 252.769 43.077 256.769 41.5386V46.4617Z" fill="white"/>
<path d="M266.307 47.6922L280.769 14.4614H289.692L304.154 47.6922H295.231L291.231 38.7691H275.846L271.846 47.6922H266.307ZM278 34.4614H289.384L283.846 21.2307L278 34.4614Z" fill="white"/>
<path d="M362.615 47.6922L377.077 14.4614H386L400.461 47.6922H391.538L387.538 38.7691H372.154L368.154 47.6922H362.615ZM374 34.4614H385.384L379.538 21.2307L374 34.4614Z" fill="white"/>
<path d="M470.923 21.2307L476.769 34.4614H465.384L470.923 21.2307ZM468.461 14.4614L454 47.6922H459.538L463.538 38.7691H478.923L482.923 47.6922H491.846L477.384 14.4614H468.461Z" fill="white"/>
<path d="M315.231 47.6922V14.4614H324.154L345.077 38.1537V14.4614H351.538V47.6922H343.231L321.692 22.7691V47.6922H315.231Z" fill="white"/>
<path d="M411.231 47.6922V14.4614H427.231C433.077 14.4614 437.384 15.9999 440.461 18.4614C443.538 21.2307 445.077 25.2307 445.077 30.1537C445.077 35.6922 443.538 39.9999 440.154 42.7691C436.769 45.846 432.461 47.3845 426.615 47.3845H411.231V47.6922ZM418.923 43.0768H424.769C428.769 43.0768 431.846 42.1537 434 39.9999C436.154 37.846 437.077 35.0768 437.077 30.7691C437.077 27.6922 436.154 24.923 434.615 22.7691C433.384 21.2307 432.154 20.3076 430.615 19.6922C429.077 19.0768 426.923 18.7691 423.846 18.7691H419.231V43.0768H418.923Z" fill="white"/>
</svg>
