<svg width="418" height="64" viewBox="0 0 418 64" fill="none" xmlns="http://www.w3.org/2000/svg">
<path d="M381.426 57.85C385.057 63.8187 390.859 63.6935 392.403 63.6935H411.061L389.05 36.9805C378.894 37.3979 373.523 43.9092 374.623 46.6361L381.426 57.85Z" fill="black"/>
<path d="M374.623 46.6501C374.595 46.6084 374.024 45.2588 374.024 43.631C374.024 37.5371 379.436 34.031 385.572 32.7788L389.05 36.9945C378.894 37.3979 373.523 43.9092 374.623 46.6501Z" fill="black"/>
<path d="M383.11 26.8101C373.83 26.8101 366.901 28.3405 366.901 31.9718C366.901 33.3074 367.318 34.4622 368.459 36.5074L374.623 46.6361C374.595 46.5944 374.024 45.2448 374.024 43.617C374.024 37.5231 379.437 34.017 385.572 32.7648C387.353 32.4031 389.19 32.2222 390.97 32.2222C392.473 32.2222 393.892 32.3057 394.977 32.6953C394.337 30.3579 392.64 26.8101 383.11 26.8101Z" fill="black"/>
<path d="M358.706 20.4937C361.252 24.6816 362.198 25.725 368.278 25.725H379.882L363.882 5.5233C360.348 1.1546 358.317 0.361557 355.075 0.291992H346.407L358.706 20.4937Z" fill="black"/>
<path d="M181.356 51.0329V35.7981C181.356 32.8903 180.035 31.1094 177.544 31.1094C174.247 31.1094 172.063 34.6155 172.063 39.346V51.0329H166.72C166.72 51.0329 166.72 34.1842 166.72 33.7112C166.72 31.8051 166.539 29.0225 166.456 27.4503H170.755C171.242 27.4503 171.381 27.659 171.395 28.0903C171.409 28.5912 171.45 31.0399 171.45 31.0399H171.576C172.229 29.9268 173.871 26.9633 178.81 26.9633C183.903 26.9633 186.755 30.4416 186.755 34.3512V51.0468H181.356V51.0329ZM139.506 45.8573C139.645 45.8573 139.854 45.9547 139.896 46.3581C139.993 47.4851 140.035 49.3216 140.049 49.892C138.977 50.4347 136.654 51.4781 133.816 51.4781C126.664 51.4781 122.296 47.332 122.296 39.2207C122.296 31.6242 126.191 26.9494 133.816 26.9494C136.348 26.9494 138.671 27.8399 140.049 28.5355C140.049 29.3703 139.965 31.2764 139.896 32.0833C139.868 32.4173 139.701 32.5842 139.506 32.5842C139.297 32.5842 139.228 32.5286 139.089 32.4729C137.363 31.6242 135.749 31.2207 134.289 31.2207C129.739 31.2207 127.875 34.1981 127.875 39.2347C127.875 43.7147 129.377 47.2347 134.289 47.2347C136.167 47.2347 137.878 46.5668 138.95 46.052C139.228 45.9129 139.283 45.8573 139.506 45.8573ZM158.01 51.0329C157.579 51.0329 157.217 50.8938 157.176 50.2677C157.12 49.5025 157.023 48.0138 157.023 48.0138C156.633 48.4451 154.685 51.492 149.788 51.492C145.099 51.492 142.4 47.8747 142.4 43.9094C142.4 38.3999 147.743 35.6451 155.673 35.6451H156.73V34.7825C156.73 32.306 154.977 30.9842 151.694 30.9842C148.744 30.9842 146.282 32.0277 145.336 32.5007C145.266 32.5286 145.099 32.6399 144.932 32.6399C144.682 32.6399 144.529 32.4868 144.515 32.2086C144.473 31.3181 144.376 29.6207 144.362 28.5355C145.322 28.1599 148.536 26.9773 152.056 26.9773C159.068 26.9773 162.073 30.2329 162.073 35.4225V44.619C162.073 47.972 162.379 50.1703 162.49 51.0468C162.49 51.0329 158.386 51.0329 158.01 51.0329ZM156.716 39.0677C156.716 39.0677 155.909 39.0677 155.812 39.0677C149.092 39.0677 147.756 41.4051 147.756 43.7842C147.756 45.7181 149.036 47.5686 151.555 47.5686C154.894 47.5686 156.716 44.3407 156.716 40.946V39.0677ZM89.5582 45.8573C89.8504 45.8573 89.9339 46.1216 89.9617 46.386C90.0591 47.3877 90.1425 49.6694 90.1286 50.2399C89.5582 50.4207 86.6782 51.4781 82.8104 51.4781C75.2973 51.4781 70.7895 47.5964 70.7895 39.2207C70.7895 32.0555 74.6434 26.9494 81.5721 26.9494C88.3617 26.9494 91.6034 31.499 91.6034 37.1338C91.6034 37.8016 91.5338 38.9147 91.4086 40.4034H76.2852C76.2852 44.4381 78.8591 47.332 83.5895 47.332C86.2052 47.332 88.2921 46.3999 89.113 45.9964C89.266 45.9129 89.3634 45.8573 89.5582 45.8573ZM76.3408 36.8138H86.2608C86.4695 33.0155 84.4799 30.8868 81.4608 30.8868C78.3025 30.8868 76.4938 33.1686 76.3408 36.8138ZM61.5373 51.0329V35.9512C61.5373 33.2381 60.3825 31.1234 57.6138 31.1234C54.4834 31.1234 52.6886 34.546 52.6886 39.332V51.0468H47.3321V35.8955C47.3321 33.419 46.3025 31.1094 43.4225 31.1094C40.2504 31.1094 38.4834 34.5181 38.4834 39.4851V51.019H33.1269C33.1269 51.019 33.1269 36.1181 33.1269 33.8364C33.1269 31.6242 32.9321 28.4799 32.8625 27.4364H37.1478C37.6347 27.4364 37.7878 27.5894 37.8017 28.0903C37.8156 28.7164 37.8573 31.012 37.8573 31.012H37.9825C38.3165 30.3442 40.0695 26.9355 44.9808 26.9355C49.5582 26.9355 51.3112 30.219 51.7425 31.2347C52.1599 30.3442 54.2052 26.9355 58.8104 26.9355C63.6104 26.9355 66.8799 29.5094 66.8799 34.6851V51.019H61.5373V51.0329ZM101.078 39.5268V51.0329H95.7217C95.7217 51.0329 95.7217 35.1442 95.7217 33.5025C95.7217 31.819 95.5269 28.6051 95.4573 27.4364H99.7843C100.243 27.4364 100.396 27.6312 100.396 28.0903C100.41 28.786 100.452 31.012 100.452 31.012H100.577C101.009 29.9964 102.525 26.9355 106.963 26.9355C108.452 26.9355 109.565 27.4086 109.746 27.492C109.746 28.5077 109.635 30.7338 109.579 31.332C109.551 31.7216 109.37 31.8468 109.19 31.8468C109.009 31.8468 108.925 31.8051 108.814 31.7633C108.48 31.6242 107.701 31.3877 106.629 31.3877C103.763 31.4016 101.078 33.4607 101.078 39.5268ZM112.57 51.0329V27.4503H117.913V51.0329H112.57ZM112.501 23.9999V18.8242H117.983V23.9999H112.501ZM25.0156 51.0329L22.553 44.0764H9.44689L6.98428 51.0329H1.39124L13.1478 20.0625H19.3808L30.9425 51.0329H25.0156ZM16.0556 25.7112H15.9582L10.9495 39.8747H21.0782L16.0556 25.7112ZM331.631 51.4781C338.602 51.4781 341.941 48.626 341.941 44.3964C341.941 40.2225 338.977 38.4694 335.833 37.4399C334.929 37.1477 334.052 36.8555 333.231 36.5773C331.089 35.8677 329.962 34.9355 329.962 33.5442C329.962 32.0694 331.297 31.0399 334.094 31.0399C336.57 31.0399 338.602 32.0555 339.395 32.4312C339.534 32.4868 339.645 32.5842 339.868 32.5842C340.035 32.5842 340.243 32.4729 340.271 32.0555C340.327 31.2625 340.424 29.8294 340.424 28.452C339.77 28.1599 337.433 26.9494 333.663 26.9494C327.903 26.9494 324.369 29.9407 324.369 33.892C324.369 37.7181 326.984 39.4712 329.878 40.4312C330.546 40.6538 331.77 41.0573 332.494 41.3077C335.499 42.3094 336.362 43.2138 336.362 44.619C336.362 46.4555 334.4 47.3599 331.047 47.3599C328.292 47.3599 326.386 46.3442 325.621 45.9964C325.468 45.9268 325.37 45.8434 325.162 45.8434C324.772 45.8434 324.758 46.372 324.758 46.4555C324.744 46.706 324.619 49.1547 324.619 49.9616C325.217 50.2538 327.958 51.4781 331.631 51.4781ZM319.096 45.8573C319.388 45.8573 319.485 46.1216 319.499 46.386C319.596 47.3877 319.68 49.6694 319.666 50.2399C319.096 50.4207 316.216 51.4781 312.348 51.4781C304.835 51.4781 300.327 47.5964 300.327 39.2347C300.327 32.0555 304.181 26.9494 311.096 26.9494C317.899 26.9494 321.127 31.499 321.127 37.1338C321.127 37.8016 321.057 38.9147 320.932 40.4034H305.809C305.809 44.4242 308.383 47.3181 313.113 47.3181C315.729 47.3181 317.802 46.386 318.623 45.9825C318.803 45.9268 318.901 45.8573 319.096 45.8573ZM305.878 36.8138H315.784C315.993 33.0155 313.99 30.8868 310.984 30.8868C307.84 30.8868 306.031 33.1686 305.878 36.8138ZM291.061 51.0329V35.7981C291.061 32.8903 289.739 31.1094 287.249 31.1094C283.951 31.1094 281.767 34.6155 281.767 39.346V51.0329H276.41C276.41 51.0329 276.41 34.1842 276.41 33.7112C276.41 31.8051 276.229 29.0225 276.146 27.4503H280.445C280.932 27.4503 281.071 27.6451 281.071 28.0903C281.085 28.5912 281.127 31.0399 281.127 31.0399H281.252C281.892 29.9268 283.548 26.9633 288.473 26.9633C293.565 26.9633 296.403 30.4416 296.403 34.3512V51.0468H291.061V51.0329ZM242.31 39.5268V51.0329H236.939C236.939 51.0329 236.939 35.1442 236.939 33.5025C236.939 31.819 236.744 28.6051 236.675 27.4503H241.002C241.475 27.4503 241.6 27.6451 241.614 28.1042C241.628 28.7999 241.656 31.026 241.656 31.026H241.781C242.198 30.0103 243.729 26.9494 248.167 26.9494C249.656 26.9494 250.755 27.4364 250.936 27.506C250.936 28.5216 250.824 30.7477 250.769 31.332C250.727 31.7216 250.56 31.8468 250.379 31.8468C250.198 31.8468 250.115 31.8051 250.017 31.7633C249.683 31.6242 248.904 31.3877 247.819 31.3877C244.995 31.4016 242.31 33.4607 242.31 39.5268ZM259.381 51.0329V18.852H254.024V51.0329H259.381ZM225.767 51.0329V27.4503H231.123V51.0329H225.767ZM225.697 23.9999V18.8242H231.179V23.9999H225.697ZM265.224 51.0329V27.4503H270.581V51.0329H265.224ZM265.155 23.9999V18.8242H270.636V23.9999H265.155ZM217.642 51.0329L215.193 44.0764H202.073L199.61 51.0329H194.017L205.76 20.0625H211.993L223.555 51.0329H217.642ZM208.668 25.7112H208.57L203.562 39.8747H213.69L208.668 25.7112ZM416 62.2886C416 63.0816 415.374 63.7077 414.581 63.7077C413.788 63.7077 413.162 63.0816 413.162 62.2886C413.162 61.5094 413.788 60.8694 414.581 60.8694C415.374 60.8555 416 61.4955 416 62.2886ZM413.44 62.2886C413.44 62.9147 413.955 63.4294 414.581 63.4294C415.207 63.4294 415.722 62.9147 415.722 62.2886C415.722 61.6625 415.207 61.1477 414.581 61.1477C413.941 61.1338 413.44 61.6486 413.44 62.2886ZM414.539 62.372H414.414V62.9564H414.163V61.5373H414.581C414.901 61.5373 415.082 61.7042 415.082 61.9547C415.082 62.2468 414.845 62.3164 414.803 62.3303L415.151 62.9564H414.859L414.539 62.372ZM414.511 62.2051C414.72 62.2051 414.831 62.1077 414.831 61.9686C414.831 61.8294 414.72 61.732 414.511 61.732C414.442 61.732 414.414 61.746 414.414 61.746V62.2051C414.414 62.1912 414.469 62.2051 414.511 62.2051Z" fill="black"/>
</svg>
