<svg width="64" height="64" viewBox="0 0 64 64" fill="none" xmlns="http://www.w3.org/2000/svg">
<path d="M43.125 55.5556V28.6667C41.075 27.8271 39.25 27.2345 37.65 26.8889C36.05 26.4938 34.45 26.2222 32.85 26.0741C32.25 28.3457 31.725 30.6667 31.275 33.037C30.825 35.3581 30.45 37.679 30.15 40C29.85 42.2716 29.625 44.4938 29.475 46.6667C29.325 48.8395 29.25 50.8395 29.25 52.6667C29.25 54.7407 29.325 56.4444 29.475 57.7778C29.675 59.1111 29.9 60.1729 30.15 60.963C30.45 61.8025 30.75 62.4444 31.05 62.8889C31.4 63.3333 31.7 63.7037 31.95 64C30.7 64 29.35 63.9259 27.9 63.7778C26.5 63.6296 25.175 63.1358 23.925 62.2963C22.725 61.5062 21.725 60.2716 20.925 58.5926C20.125 56.9136 19.725 54.5185 19.725 51.4074C19.725 49.7778 19.85 47.9753 20.1 46C20.35 44.0247 20.7 41.9506 21.15 39.7778C21.6 37.5556 22.15 35.284 22.8 32.963C23.5 30.5926 24.275 28.2469 25.125 25.9259C22.725 26.0741 20.8 26.4444 19.35 27.037C17.9 27.6296 17.05 28.5679 16.8 29.8519C17.05 29.8519 17.375 30.1729 17.775 30.8148C18.175 31.4074 18.375 32 18.375 32.5926C18.375 33.3333 18.025 33.9259 17.325 34.3704C16.625 34.8148 15.75 35.037 14.7 35.037C13.25 35.037 11.95 34.5926 10.8 33.7037C9.6 32.8148 9 31.5062 9 29.7778C9 27.4074 10.225 25.4568 12.675 23.9259C15.125 22.3951 18.35 21.6296 22.35 21.6296C23.55 21.6296 25.025 21.7037 26.775 21.8519C28.025 18.8889 29.425 16.0988 30.975 13.4815C32.525 10.8148 34.2 8.4938 36 6.51852C37.8 4.49383 39.7 2.91358 41.7 1.77778C43.7 0.592593 45.8 0 48 0C48.75 0 49.675 0.0740746 50.775 0.222224C51.925 0.370373 53 0.641977 54 1.03704V55.5556H43.125ZM43.125 5.33333C41.225 6.5679 39.475 8.76546 37.875 11.9259C36.275 15.0864 34.9 18.7407 33.75 22.8889C35.3 23.1852 36.85 23.5556 38.4 24C40 24.3951 41.575 24.8642 43.125 25.4074V5.33333Z" fill="#FF770D"/>
</svg>
