<svg width="64" height="64" viewBox="0 0 64 64" fill="none" xmlns="http://www.w3.org/2000/svg">
<g clip-path="url(#clip0_2023_45)">
<path fill-rule="evenodd" clip-rule="evenodd" d="M64 12.0962C64 5.42039 58.6127 0.000488281 51.9802 0.000488281H12.0197C5.38723 0.000488281 0 5.42039 0 12.0962V50.9042C0 57.5783 5.38723 63 12.0198 63H51.9802C58.6128 63 64 57.5783 64 50.9042L64 12.0962Z" fill="#0C3B7C"/>
<path fill-rule="evenodd" clip-rule="evenodd" d="M0.00219727 39.1387H31.9663V62.9997H0.00222069L0.00219727 39.1387Z" fill="#0C3B7C"/>
<path d="M29.0865 41.7003L23.9318 41.6951V35.4914C23.9318 34.1658 24.4427 33.476 25.5696 33.3183H29.0865C31.5946 33.3183 33.217 34.91 33.217 37.4861C33.217 40.1319 31.6357 41.6977 29.0865 41.7003ZM23.9318 24.9674V23.3344C23.9318 21.9055 24.5325 21.226 25.8494 21.1381H28.4884C30.75 21.1381 32.1055 22.4998 32.1055 24.7814C32.1055 26.5177 31.1762 28.546 28.5706 28.546H23.9318V24.9674ZM35.6686 31.1583L34.7368 30.6312L35.5505 29.9309C36.4978 29.1118 38.0843 27.2696 38.0843 24.0914C38.0843 19.2235 34.3337 16.0841 28.5295 16.0841H21.9063V16.0815H21.1516C19.4317 16.1461 18.0531 17.5543 18.0352 19.2959V46.9171H28.6604C35.1116 46.9171 39.2754 43.3824 39.2754 37.9072C39.2754 34.9591 37.9302 32.4398 35.6686 31.1583Z" fill="white"/>
<path d="M42.0427 43.1013C42.0427 40.9913 43.7335 39.2842 45.8167 39.2842C47.9051 39.2842 49.6038 40.9913 49.6038 43.1013C49.6038 45.2086 47.9051 46.9183 45.8166 46.9183C43.7335 46.9183 42.0427 45.2086 42.0427 43.1013Z" fill="#00BAFC"/>
</g>
<defs>
<clipPath id="clip0_2023_45">
<rect width="64" height="63" fill="white"/>
</clipPath>
</defs>
</svg>
