<svg width="64" height="64" viewBox="0 0 64 64" fill="none" xmlns="http://www.w3.org/2000/svg">
<mask id="mask0_2007_5462" style="mask-type:alpha" maskUnits="userSpaceOnUse" x="0" y="25" width="21" height="28">
<path fill-rule="evenodd" clip-rule="evenodd" d="M0.00103236 25.6829V52.7865H20.4966V25.6829H0.00103236Z" fill="white"/>
</mask>
<g mask="url(#mask0_2007_5462)">
<path d="M6.73291 25.6829C4.80322 25.6829 2.81623 25.8725 -0.00697684 25.8725V45.5876C-0.00697684 45.5876 3.08557 45.78 5.39858 44.0443V30.6545H7.46837C11.0839 30.6545 14.8355 32.2758 14.8355 39.2179C14.8355 45.4554 11.9838 47.8529 6.35352 47.8529H-0.00708008V52.7299C2.81623 52.7299 4.80322 52.7859 6.73281 52.7859C17.2103 52.7859 20.4963 46.868 20.4963 39.2103C20.4963 31.5539 17.211 25.6829 6.73291 25.6829Z" fill="#E40028"/>
</g>
<path fill-rule="evenodd" clip-rule="evenodd" d="M24.7588 20.3916C24.7588 16.3446 25.565 16.428 28.5061 16.7324C29.5096 16.8363 30.7617 16.9659 32.315 16.9659C33.8679 16.9659 35.1197 16.8364 36.1229 16.7326C39.0639 16.4283 39.8703 16.3449 39.8703 20.3917V20.9559H43.9881V19.5162C43.9881 14.4012 41.5954 12.2033 32.3141 12.2033C23.0328 12.2033 20.6401 14.4013 20.6401 19.5162V20.9559H24.758L24.7588 20.3916ZM61.3715 46.9606C61.3715 46.9606 58.6086 43.2348 57.2069 40.4738C60.7491 38.6699 61.6379 35.7291 61.6379 33.0419C61.6379 24.6214 54.4344 24.4547 50.797 24.4566C49.733 24.4571 48.6168 24.5055 47.5034 24.5537C46.3056 24.6057 45.111 24.6574 43.9879 24.6494V29.6976H51.6006C54.6722 29.6976 56.2901 31.0148 56.2901 33.5746C56.2901 36.3606 54.692 37.5801 52.0735 37.5801H49.2463V32.0045C49.2463 32.0045 45.7622 31.8616 43.9879 34.4072V52.007H49.2463V41.7224C51.851 41.1734 52.946 43.3399 54.0163 45.4572C54.2456 45.9112 54.4739 46.3628 54.7157 46.785C54.8137 46.9559 54.9097 47.1244 55.0041 47.2901C56.7361 50.3307 57.9517 52.4646 61.5667 52.4646C62.2579 52.4646 63.0378 52.3831 63.9255 52.2147L63.9999 47.8741C63.0638 48.042 62.2982 48.1575 61.3715 46.9606ZM40.653 52.4647H22.309V24.4577H40.653V29.6119H28.2894V35.5017H38.9775V40.2143H28.2894V47.2826H40.653V52.4647Z" fill="#E40028"/>
</svg>
