<svg width="304" height="85" viewBox="0 0 304 85" fill="none" xmlns="http://www.w3.org/2000/svg">
  <g clip-path="url(#clip0_871_2623)">
    <mask id="mask0_871_2623" style="mask-type:alpha" maskUnits="userSpaceOnUse" x="0" y="27" width="42" height="56">
      <path fill-rule="evenodd" clip-rule="evenodd" d="M0.00113455 27.5648V82.9899H41.913V27.5648H0.00113455Z" fill="#000000"></path>
    </mask>
    <g mask="url(#mask0_871_2623)">
      <path d="M13.7672 27.5647C9.8211 27.5647 5.75784 27.9525 -0.0154139 27.9525V68.2684C-0.0154139 68.2684 6.30863 68.6619 11.0386 65.1125V37.7314H15.2711C22.6647 37.7314 30.3365 41.0467 30.3365 55.2429C30.3365 67.9982 24.5049 72.9009 12.9914 72.9009H-0.015625V82.8739C5.75784 82.8739 9.8211 82.9886 13.767 82.9886C35.1926 82.9886 41.9123 70.8868 41.9123 55.2275C41.9123 39.5706 35.1941 27.5647 13.7672 27.5647Z" fill="#000000"></path>
    </g>
    <path fill-rule="evenodd" clip-rule="evenodd" d="M50.6291 16.7447C50.6291 8.46873 52.2778 8.63931 58.2922 9.26188C60.3442 9.47425 62.9048 9.73924 66.0811 9.73924C69.2567 9.73924 71.8164 9.47442 73.868 9.26215C79.8821 8.6399 81.5311 8.4693 81.5311 16.7448V17.8986H89.9517V14.9544C89.9517 4.49469 85.0588 0.000135422 66.0792 0.000135422C47.0997 0.000135422 42.2068 4.4949 42.2068 14.9544V17.8986H50.6276L50.6291 16.7447ZM125.5 71.0763C125.5 71.0763 119.85 63.4573 116.983 57.8113C124.227 54.1224 126.044 48.1086 126.044 42.6136C126.044 25.3944 111.314 25.0534 103.876 25.0572C101.7 25.0583 99.4171 25.1573 97.1402 25.2559C94.6909 25.3621 92.2479 25.4678 89.9513 25.4516V35.7747H105.519C111.8 35.7747 115.109 38.4683 115.109 43.703C115.109 49.4 111.841 51.8939 106.486 51.8939H100.704V40.4922C100.704 40.4922 93.5796 40.2 89.9513 45.4056V81.3958H100.704V60.3645C106.031 59.242 108.27 63.6722 110.459 68.0021C110.928 68.9303 111.394 69.8539 111.889 70.7172C112.089 71.0668 112.286 71.4113 112.479 71.7501C116.021 77.968 118.506 82.3317 125.899 82.3317C127.312 82.3317 128.907 82.1649 130.722 81.8206L130.875 72.9444C128.96 73.2877 127.395 73.5239 125.5 71.0763ZM83.1317 82.3319H45.6194V25.0595H83.1317V35.5995H57.8491V47.6438H79.7054V57.2806H57.8491V71.7347H83.1317V82.3319Z" fill="#000000"></path>
    <path fill-rule="evenodd" clip-rule="evenodd" d="M147.64 82.3333V31.3183H164.163V27.4436H126.651V31.3183H143.257V82.3333H147.64ZM184.661 78.805C170.576 78.805 168.217 66.6513 168.217 54.4976C168.217 42.3429 170.576 30.9735 184.661 30.9735C198.744 30.9735 201.029 42.3446 201.029 54.4976C201.029 66.6515 198.743 78.805 184.661 78.805ZM164.162 54.4976C164.162 39.8339 167.996 27.4438 184.661 27.4438C201.325 27.4438 205.086 39.833 205.086 54.4976C205.086 69.4741 201.325 82.3326 184.66 82.3326C167.996 82.3326 164.162 69.4732 164.162 54.4976ZM248.807 27.4438V62.446C248.807 68.6512 247.957 78.7533 234.42 78.7533C219.957 78.7533 219.417 68.6512 219.417 62.446V27.4438H215.317V62.446C215.317 76.2081 221.426 82.3329 234.112 82.3329C246.796 82.3329 252.829 76.2081 252.829 62.446V27.4438H248.807ZM270.554 55.2914H286.345C293.43 55.2914 298.207 50.8511 298.207 43.2638C298.207 36.3227 294.049 31.3176 286.883 31.3176H270.554V55.2914ZM285.266 59.1651L299.208 82.3324H303.983L289.503 58.5212C297.745 57.6335 302.288 51.3363 302.288 43.2649C302.288 34.6289 297.129 27.444 287.27 27.444H266.471V82.3329H270.554V59.1655L285.266 59.1651Z" fill="#000000"></path>
  </g>
  <defs>
    <clipPath id="clip0_871_2623">
      <rect width="304" height="84.4444" fill="#000000"></rect>
    </clipPath>
  </defs>
</svg>
