<svg width="231" height="64" viewBox="0 0 231 64" fill="none" xmlns="http://www.w3.org/2000/svg">
<g clip-path="url(#clip0_2007_5478)">
<mask id="mask0_2007_5478" style="mask-type:alpha" maskUnits="userSpaceOnUse" x="0" y="20" width="32" height="43">
<path fill-rule="evenodd" clip-rule="evenodd" d="M0.000867578 20.8912V62.8976H31.7657V20.8912H0.000867578Z" fill="white"/>
</mask>
<g mask="url(#mask0_2007_5478)">
<path d="M10.4341 20.8912C7.44336 20.8912 4.36384 21.1851 -0.0116808 21.1851V51.7403C-0.0116808 51.7403 4.78128 52.0385 8.36608 49.3484V28.5964H11.5739C17.1774 28.5964 22.9918 31.1091 22.9918 41.8683C22.9918 51.5355 18.5722 55.2512 9.84608 55.2512H-0.0118408V62.8097C4.36384 62.8097 7.44336 62.8966 10.4339 62.8966C26.6723 62.8966 31.7651 53.7248 31.7651 41.8566C31.7651 29.9904 26.6734 20.8912 10.4341 20.8912Z" fill="black"/>
</g>
<path fill-rule="evenodd" clip-rule="evenodd" d="M38.3716 12.6907C38.3716 6.41837 39.6212 6.54765 44.1794 7.01949C45.7346 7.18045 47.6753 7.38128 50.0826 7.38128C52.4894 7.38128 54.4294 7.18057 55.9842 7.01969C60.5423 6.54809 61.7921 6.4188 61.7921 12.6907V13.5652H68.174V11.3338C68.174 3.40646 64.4657 6.10352e-05 50.0812 6.10352e-05C35.6967 6.10352e-05 31.9884 3.40662 31.9884 11.3338V13.5652H38.3705L38.3716 12.6907ZM95.1156 53.8683C95.1156 53.8683 90.8335 48.0939 88.661 43.8149C94.151 41.019 95.5284 36.4612 95.5284 32.2966C95.5284 19.2462 84.3641 18.9878 78.7268 18.9907C77.0777 18.9915 75.3478 19.0665 73.6222 19.1412C71.7658 19.2217 69.9143 19.3019 68.1737 19.2896V27.1134H79.9722C84.7327 27.1134 87.2402 29.1549 87.2402 33.1222C87.2402 37.44 84.7634 39.3301 80.7052 39.3301H76.3234V30.6888C76.3234 30.6888 70.9236 30.4673 68.1737 34.4126V61.6894H76.3234V45.7499C80.3602 44.8992 82.0574 48.2568 83.7161 51.5384C84.0716 52.2419 84.4254 52.9419 84.8001 53.5961C84.9519 53.8611 85.1007 54.1222 85.2471 54.379C87.9315 59.0915 89.8155 62.3987 95.418 62.3987C96.4894 62.3987 97.698 62.2723 99.0738 62.0113L99.1892 55.2841C97.7383 55.5443 96.5518 55.7233 95.1156 53.8683ZM63.0052 62.3988H34.5748V18.9924H63.0052V26.9806H43.8436V36.1089H60.4084V43.4126H43.8436V54.3673H63.0052V62.3988Z" fill="black"/>
<path fill-rule="evenodd" clip-rule="evenodd" d="M111.896 62.4V23.736H124.419V20.7993H95.9884V23.736H108.574V62.4H111.896ZM139.954 59.7259C129.279 59.7259 127.491 50.5147 127.491 41.3035C127.491 32.0915 129.279 23.4747 139.954 23.4747C150.627 23.4747 152.359 32.0928 152.359 41.3035C152.359 50.5148 150.627 59.7259 139.954 59.7259ZM124.418 41.3035C124.418 30.1899 127.323 20.7995 139.954 20.7995C152.583 20.7995 155.434 30.1892 155.434 41.3035C155.434 52.654 152.583 62.3995 139.953 62.3995C127.323 62.3995 124.418 52.6534 124.418 41.3035ZM188.57 20.7995V47.3275C188.57 52.0304 187.925 59.6867 177.666 59.6867C166.704 59.6867 166.295 52.0304 166.295 47.3275V20.7995H163.188V47.3275C163.188 57.7577 167.818 62.3996 177.432 62.3996C187.045 62.3996 191.618 57.7577 191.618 47.3275V20.7995H188.57ZM205.052 41.9051H217.02C222.389 41.9051 226.01 38.5398 226.01 32.7894C226.01 27.5288 222.858 23.7355 217.428 23.7355H205.052V41.9051ZM216.202 44.8409L226.768 62.3993H230.388L219.413 44.3529C225.66 43.6801 229.103 38.9075 229.103 32.7902C229.103 26.2451 225.192 20.7996 217.72 20.7996H201.957V62.3996H205.052V44.8412L216.202 44.8409Z" fill="black"/>
</g>
<defs>
<clipPath id="clip0_2007_5478">
<rect width="230.4" height="64" fill="white"/>
</clipPath>
</defs>
</svg>
