<svg width="149" height="64" viewBox="0 0 149 64" fill="none" xmlns="http://www.w3.org/2000/svg">
<path d="M6.10352e-05 7.4162e-05V63.9574L19.8341 63.9312V64C37.4518 64 51.7351 49.6576 51.7351 31.9905C51.7351 14.3234 37.4518 0 19.8341 0L6.10352e-05 7.4162e-05ZM40.2621 7.4162e-05C45.7994 3.94298 50.2657 9.28843 53.1479 15.5278H62.039C66.3162 15.5278 69.7824 19.006 69.7824 23.2952C69.7824 27.5829 66.3162 31.0579 62.039 31.0579H57.6136L72.5062 63.815H89.9548L78.8439 39.3736C82.8242 35.1922 85.2667 29.5316 85.2667 23.2952C85.2667 10.4292 74.8691 7.4162e-05 62.039 7.4162e-05H40.2621ZM82.0766 7.4162e-05L111.168 63.9835H119.913L149 7.4162e-05H131.554L115.539 35.2252L99.5251 7.4162e-05H82.0766ZM15.4844 15.5302H19.8341C28.9004 15.5302 36.2484 22.8988 36.2484 31.9906C36.2484 41.0808 28.9004 48.4486 19.8341 48.4486V48.3798H15.4844V15.5302Z" fill="white"/>
</svg>
