<svg width="279" height="64" viewBox="0 0 279 64" fill="none" xmlns="http://www.w3.org/2000/svg">
<g clip-path="url(#clip0_2021_50)">
<path d="M19.7333 27.7333C17.8667 27.7333 15.4667 28.3556 15.4667 25.6889C15.4667 23.3778 17.4222 20.9778 19.7333 20.9778C22.4 20.9778 24 23.0222 24 25.6C24 28.1778 21.6889 27.7333 19.7333 27.7333ZM33.3333 34.5778C35.6444 34.5778 37.7778 33.9556 37.7778 29.1556C37.7778 23.7333 32.3556 14.4 20.1778 14.4C9.42222 14.4889 0 22.4889 0 33.5111C0 42.7556 6.66667 52.0889 19.5556 52.0889C26.0444 52.0889 36.0889 48.0889 36.0889 42.5778C36.0889 41.2444 34.8444 39.0222 33.3333 39.0222C31.8222 39.0222 29.1556 42.2222 23.8222 42.2222C20.4444 42.2222 15.8222 39.2 15.8222 35.6444C15.8222 34.4 16.9778 34.6667 17.7778 34.6667H33.3333V34.5778ZM58.7556 35.6444C60.8 35.6444 60.7111 37.4222 60.7111 39.0222C60.7111 41.1556 60.5333 44.0889 57.7778 44.0889C55.7333 44.0889 54.6667 42.0444 54.6667 40.1778C54.6667 37.9556 56.3556 35.6444 58.7556 35.6444ZM76.1778 26.7556C76.1778 16 64.9778 14.4 60.8889 14.4C54.0444 14.4 41.9556 18.3111 41.9556 24.4444C41.9556 26.7556 43.6444 28.3556 45.9556 28.3556C52.3556 28.3556 52.8 20.6222 57.0667 20.6222C60.3556 20.6222 60.4444 25.6 60.4444 27.9111C60.4444 30.4889 59.4667 30.3111 57.2445 30.3111C44.6222 30.3111 39.7333 36.6222 39.7333 41.6889C39.7333 48.8 45.6889 51.9111 51.6444 51.9111C58.1333 51.9111 60.3556 48.2667 62.0445 48.2667C63.8222 48.2667 64 51.9111 69.6889 51.9111C74.9333 51.9111 80.5333 47.4667 80.5333 43.3778C80.5333 39.4667 76.2667 46.4 76.2667 33.7778L76.1778 26.7556ZM105.244 15.3778C104.178 15.3778 100.8 14.4889 97.9556 14.4889C90.5778 14.4889 84.7111 19.0222 84.7111 26.2222C84.7111 38.0444 98.7556 38.5778 98.7556 42.7556C98.7556 44.3556 97.4222 45.0667 96 45.0667C92 45.0667 89.0667 37.9556 85.9556 37.9556C83.9111 37.9556 83.2 39.4667 83.2 41.3333C83.2 44.0889 84.9778 48.1778 86.7556 50.1333C87.7333 51.2889 88.4444 51.4667 89.9556 51.4667C90.8444 51.4667 91.7333 51.2 92.7111 51.2C93.6 51.2 98.8445 52.0889 101.867 52.0889C109.333 52.0889 115.822 47.4667 115.822 40.7111C115.822 29.6 100 28.7111 100 24.1778C100 22.8444 101.244 21.7778 102.578 21.7778C105.778 21.7778 108 27.4667 112.089 27.4667C113.956 27.4667 115.556 26.0444 115.556 24.0889C115.556 21.1556 112.267 14.5778 108.978 14.5778C107.733 14.4889 106.578 15.3778 105.244 15.3778ZM149.867 45.0667L154.133 33.3333C155.111 30.5778 156.267 27.3778 157.867 24.8889C160.356 20.6222 164.711 22.4889 164.711 18.3111C164.711 15.0222 159.378 14.6667 157.067 14.6667C154.489 14.6667 147.733 15.1111 147.733 18.9333C147.733 21.4222 150.044 21.1556 150.044 24.3556C150.044 26.0444 148.533 31.0222 146.4 31.0222C145.156 31.0222 142.044 25.9556 142.044 23.2889C142.044 21.6 143.644 20.9778 143.644 19.0222C143.644 14.9333 137.156 14.6667 134.489 14.6667C119.378 14.6667 118.044 17.8667 118.044 20C118.044 23.2889 122.133 22.4 123.467 25.3333L133.511 46.3111C134.4 48.0889 135.822 50.8444 135.822 52.8C135.822 54.4889 134.933 56.2667 133.067 56.2667C130.133 56.2667 132 48.7111 125.333 48.7111C121.689 48.7111 118.933 51.7333 118.933 55.2889C118.933 61.2444 125.067 63.9111 130.222 63.9111C141.778 63.9111 146.311 54.5778 149.867 45.0667ZM198.756 35.4667L199.289 13.3333C199.467 7.28889 205.067 9.06667 205.067 5.33333C205.067 3.37778 203.467 0 189.956 0C176 0 175.378 4.62222 175.378 5.95556C175.378 10.7556 182.222 6.48889 181.867 14.4889C181.333 27.3778 185.333 42.0444 176.889 42.9333C175.2 43.1111 173.689 42.0444 173.689 40.2667C173.689 39.3778 174.222 38.1333 174.222 36.8889C174.222 32.3556 170.044 29.7778 165.867 29.7778C161.067 29.7778 157.778 33.6889 157.778 38.4C157.778 48.6222 170.222 52.0889 178.489 52.0889C182.489 52.0889 198.311 50.6667 198.756 35.4667ZM223.289 27.7333C221.422 27.7333 218.933 28.3556 218.933 25.6889C218.933 23.3778 220.889 20.9778 223.289 20.9778C225.956 20.9778 227.556 23.0222 227.556 25.6C227.467 28.1778 225.156 27.7333 223.289 27.7333ZM236.8 34.5778C239.111 34.5778 241.244 33.9556 241.244 29.1556C241.244 23.7333 235.822 14.4 223.644 14.4C212.889 14.4 203.467 22.4 203.467 33.5111C203.467 42.7556 210.133 52.0889 223.022 52.0889C229.511 52.0889 239.556 48.0889 239.556 42.5778C239.556 41.2444 238.222 39.0222 236.8 39.0222C235.289 39.0222 232.622 42.2222 227.289 42.2222C223.911 42.2222 219.2 39.2 219.2 35.6444C219.2 34.4 220.356 34.6667 221.156 34.6667H236.8V34.5778ZM266.133 35.6444V24.9778C266.133 22.4 266.222 22.3111 268.8 22.3111H273.778C276.533 22.3111 277.067 22.0444 277.067 17.9556C277.067 14.7556 277.067 14.4889 273.956 14.4889H268.978C265.6 14.4889 266.222 14.5778 266.222 8.62222C266.222 5.33333 266.044 5.6 263.2 5.6C261.067 5.6 261.156 5.33333 259.467 6.4L243.111 16.8C242.222 17.3333 242.489 18.1333 242.489 19.2C242.489 22.5778 242.222 22.3111 246.044 22.3111C249.244 22.3111 249.244 21.7778 249.244 24.3556V39.1111C249.244 50.4889 258.4 52.0889 262.044 52.0889C269.244 52.0889 277.422 47.9111 277.422 43.2C277.422 41.9556 276.444 39.9111 275.022 39.9111C273.689 39.9111 272.444 41.6 270.222 41.6C268.178 41.6 266.133 40.4444 266.133 35.6444Z" fill="#FF6600"/>
</g>
<defs>
<clipPath id="clip0_2021_50">
<rect width="278.222" height="64" fill="white"/>
</clipPath>
</defs>
</svg>
