<svg width="93" height="64" viewBox="0 0 93 64" fill="none" xmlns="http://www.w3.org/2000/svg">
<g clip-path="url(#clip0_2025_836)">
<path d="M51.7947 4.37636C51.3026 4.84504 50.6294 6.05707 50.6294 7.75619C50.6294 8.16398 50.6294 17.9027 50.6294 18.2511C50.6294 19.1219 50.3072 19.9516 49.789 20.4217C49.5164 20.6723 47.806 22.2242 47.7005 22.3063H48.6874C48.9862 22.0217 52.0977 19.2797 52.4212 18.9073C52.8432 18.4245 53.852 17.2061 53.852 15.2911C53.852 14.8415 53.8591 5.61247 53.8591 5.2061C53.8591 3.69318 54.5593 2.85424 54.926 2.44858C55.2984 2.03371 56.4786 1.01353 56.7809 0.743798L55.806 0.733887C55.5249 0.994418 52.1324 4.05707 51.7947 4.37636Z" fill="white"/>
<path d="M44.092 42.5829L47.9009 45.911H50.4545C53.0471 45.911 55.4152 44.7995 56.982 43.2342C58.5473 41.6689 59.125 39.5684 59.125 37.601C59.125 36.1702 59.125 32.4059 59.125 32.1447C59.125 30.311 57.9752 29.2434 57.6531 28.9241C57.4789 28.7514 56.3681 27.7036 56.3681 27.7036V31.8919C56.3681 31.8919 57.5908 33.1521 57.8308 33.407C58.9643 34.6098 58.9515 36.796 55.3735 40.2834C54.7448 40.8944 52.9572 42.5829 50.497 42.5829C50.1466 42.5829 44.092 42.5829 44.092 42.5829Z" fill="white"/>
<path d="M59.5916 23.2431C59.5916 23.2431 60.6847 24.4983 61.1151 24.8346C62.5565 25.9694 63.1887 24.6724 62.2613 23.19C62.0418 22.8346 61.1455 22.2392 59.5916 23.2431ZM54.6882 20.1939C54.262 20.642 53.8585 21.74 53.8585 22.7078C53.8585 23.2459 53.8585 24.7751 53.8585 24.7751C53.8585 24.7751 55.5385 24.7751 55.9498 24.7751C56.7661 24.7751 57.5031 24.1691 58.0751 23.6402C58.09 23.6133 58.0751 21.5893 58.0751 21.5893C58.0751 21.5893 58.6117 22.2059 59.0889 22.7022C59.7912 22.0608 61.6015 20.1677 62.9176 20.1677C65.5852 20.1677 64.9806 23.51 63.8889 24.5847C63.5371 24.9323 61.9633 26.3751 61.4762 26.8381C60.2188 28.0381 58.0617 27.4646 58.0617 24.368C58.0617 24.368 55.7502 26.5634 55.3997 26.853C55.0471 27.1454 53.8585 28.4077 53.8585 28.4077C53.8585 28.4077 53.8585 33.3273 53.8585 33.8512C53.8585 36.4629 53.0663 37.4038 52.2854 38.1252C51.9392 38.4445 49.1321 40.9917 48.6259 41.437H47.6305C47.6305 41.437 49.4387 39.859 49.7806 39.5015C50.1735 39.0979 50.6287 38.2682 50.6287 36.8898C50.6287 36.5415 50.5863 28.3362 50.5863 28.3362C50.5863 28.3362 37.7976 28.3362 37.2149 28.3362C32.5636 28.3362 31.5703 23.1758 31.5413 21.796C31.5335 21.3882 31.5413 17.2671 31.5413 16.6257C31.5413 15.7754 30.999 14.3468 30.131 13.9043H31.4415C31.5937 13.9694 32.4178 14.3029 32.4178 17.4661C32.4178 17.4661 32.3625 21.1482 32.3625 21.345C32.3625 22.9493 33.6376 24.79 35.4818 24.79C35.8585 24.79 50.6146 24.7751 50.6146 24.7751C50.6287 24.368 51.0387 22.8225 51.7657 22.0091C52.1749 21.5475 55.4231 18.5776 55.7926 18.2916L56.7533 18.2816C56.6139 18.414 55.0372 19.8222 54.6882 20.1939Z" fill="white"/>
<path d="M43.4293 33.0425C43.4293 33.771 41.0973 35.7137 40.9607 35.8496C40.7922 35.063 40.2032 34.1944 38.4637 32.4535L41.0173 29.8984C42.7285 31.6096 43.4293 31.9749 43.4293 33.0425Z" fill="white"/>
<path d="M38.9594 18.0147C38.2613 18.7474 38.1381 18.9315 37.4832 19.3237C37.5434 19.3237 45.2248 19.3237 45.4755 19.3237C47.6432 19.3237 47.21 17.9807 46.8192 17.3018C46.027 15.9106 43.5116 13.328 43.5116 13.328C43.5116 13.328 39.1066 17.8611 38.9594 18.0147ZM47.8585 3.76053C48.3724 4.27522 49.4755 5.66213 48.8135 6.32478C48.228 6.90956 47.3232 7.83982 47.3232 7.83982C47.2801 7.50354 46.4298 6.69859 46.4298 6.69859C46.4298 6.69859 46.4376 9.16584 46.4298 9.47168C46.4029 10.5846 45.9802 10.9025 45.9802 10.9025C45.9802 10.9025 48.039 12.9435 48.039 15.568C48.039 16.8416 48.0425 18.0097 48.0425 18.2618C48.0425 18.8012 47.9073 19.2161 47.5321 19.6289C47.3466 19.8342 45.4408 21.7527 45.1498 22.0147C44.5983 22.5117 44.0185 22.5952 43.5817 22.5952C43.2751 22.5952 36.6896 22.5952 36.4871 22.5952C35.37 22.5952 34.2174 21.7237 34.2174 20.8487C34.2174 20.632 34.233 18.22 34.233 18.22C34.5955 18.6391 34.9664 19.1326 35.8599 19.1205C36.5586 19.1071 37.2907 18.5605 37.4903 18.3637C37.6907 18.1605 42.8567 12.7623 42.8567 12.7623C42.8567 12.7623 40.439 10.5209 38.8432 9.45328C38.0645 8.93505 37.0351 9.59133 36.8808 10.2781C36.3894 12.4225 36.8808 15.6465 36.8808 15.6465C36.8808 15.6465 35.302 14.0685 34.9218 13.6912C34.1303 12.8996 34.1615 11.1106 35.1009 10.1719C35.2475 10.0211 36.6797 8.4062 38.4999 8.4062C38.7894 8.4062 41.0117 8.4062 41.3325 8.4062C43.2312 8.4062 45.2808 10.2674 45.2808 10.2674C45.2808 10.2674 45.5845 9.93115 45.5845 9.61044C45.5845 8.63699 45.5774 6.04018 45.5774 6.04018C44.1487 4.60938 43.9562 3.13611 44.6415 2.44938C45.9172 1.17009 46.3866 0.722656 46.3866 0.722656C46.3866 0.722656 46.371 2.27097 47.8585 3.76053Z" fill="white"/>
<path d="M29.8478 25.2866H28.5359C28.5359 25.2866 29.9476 26.0626 29.9476 28.059C29.9476 28.5857 29.9476 34.001 29.9476 34.4364C29.9476 38.5843 33.3706 42.4229 37.5299 42.4229C38.2294 42.4229 40.5374 42.4229 41.0025 42.4229C43.0875 42.4229 43.8195 41.9181 45.0818 40.7981C45.542 40.3875 46.1423 39.7142 46.3653 39.4679C47.0903 38.6551 47.8627 37.9995 47.8627 35.8601C47.8627 35.3376 47.8627 34.0626 47.8627 33.7709C47.8627 31.9677 46.8163 31.2172 46.3158 30.7139C45.9922 30.3889 45.1016 29.5408 45.1016 29.5408V33.8155C45.1016 33.8155 45.9759 34.7472 46.3646 35.053C48.1664 36.476 46.7356 38.9595 45.0556 38.9595C44.7221 38.9595 37.8945 38.9624 37.4287 38.9624C34.4935 38.9624 30.8234 36.5277 30.8234 32.3132C30.8234 31.7475 30.8234 29.2165 30.8234 28.847C30.8248 25.2866 29.8478 25.2866 29.8478 25.2866Z" fill="white"/>
<path d="M38.2096 33.0546C38.2096 33.7831 35.8754 35.7244 35.7388 35.8603C35.5717 35.0737 34.9812 34.2036 33.2404 32.4628L35.7961 29.9077C37.5073 31.621 38.2096 31.987 38.2096 33.0546Z" fill="white"/>
<path d="M11.4896 61.4345C11.0712 61.4345 7.84784 61.4302 7.40324 61.4302C6.12466 61.4302 6.22448 60.3555 6.11262 59.4585V53.5817C6.11262 53.5817 7.00891 53.5598 7.99298 53.5598C9.12855 53.5598 10.5466 53.3927 11.9222 54.1721C11.9222 54.1721 10.931 51.7991 7.98519 51.7991H6.11262C6.11262 51.7991 6.11262 51.4614 6.11262 50.6429V49.9145C6.11262 49.9145 6.11262 48.2691 5.70837 47.8005C5.70837 47.8005 8.21245 47.809 8.38944 47.8104C10.7321 47.8132 12.5473 47.7757 14.4347 49.0132C14.4347 49.0132 14.073 45.9258 9.53492 45.9258C6.95935 45.9258 1.08253 45.9258 0.713684 45.9258C0.713684 45.9258 2.28891 47.2405 2.19545 49.9067L2.28891 60.5842C2.28891 63.2858 3.33952 63.3304 3.33952 63.3304C3.44572 63.3304 3.98236 63.3304 6.36041 63.3304C6.75687 63.3304 7.22979 63.3304 7.73244 63.3304C9.00324 63.3304 10.6733 63.3304 12.0284 63.3304C14.005 63.3304 14.6917 61.9449 14.6917 61.169L14.7208 60.1389C14.7208 60.1389 14.0935 61.4345 11.4896 61.4345Z" fill="white"/>
<path d="M34.6145 60.5243V53.056C34.6145 50.1605 32.2322 49.3874 30.4744 49.3874C28.1501 49.3874 27.445 51.3456 27.1498 52.0033C26.623 50.1916 24.7958 49.3633 23.297 49.3633C20.4963 49.3633 19.7777 52.0472 19.7777 52.0472C19.7777 52.0472 19.7098 49.4603 17.4365 49.4603L15.2198 49.4645C15.2198 49.4645 16.4942 49.9941 16.4942 52.2312L16.4921 60.5236C16.4921 63.2875 17.6029 63.3137 17.6029 63.3137H21.2814C21.1845 63.2875 19.8669 62.2893 19.8669 60.5024V53.1488C19.9129 52.8181 20.468 51.7215 22.0545 51.7215C22.9246 51.7215 23.9002 52.6397 23.8846 53.6904L23.879 60.5208C23.879 63.3059 24.9749 63.3123 24.9749 63.3123H28.6662C28.6662 63.3123 27.2531 62.3247 27.2531 60.4953L27.2418 53.1403C27.3784 52.7282 27.8669 51.7406 29.2623 51.7406C30.3512 51.7406 31.2645 52.6603 31.2383 53.7123C31.2383 53.7123 31.2305 59.9502 31.2333 60.5293C31.2517 63.3265 32.3306 63.3045 32.3306 63.3045C34.2542 63.3045 36.0234 63.3116 36.0234 63.3116C36.0234 63.3116 34.6145 62.3431 34.6145 60.5243Z" fill="white"/>
<path d="M41.028 60.5202C41.028 62.3609 42.4439 63.3131 42.4439 63.3131C42.4439 63.3131 40.691 63.306 38.766 63.306C38.766 63.306 37.6708 63.3188 37.6708 60.5435V60.5308L37.6758 52.2094C37.6758 50.0204 36.4028 49.4575 36.4028 49.4575H38.5968C39.3798 49.4575 41.0173 49.4575 41.0173 52.5549L41.0117 60.5067L41.028 60.5202Z" fill="white"/>
<path d="M52.313 50.5079C52.313 50.5079 51.9583 49.5082 50.434 49.5082C48.1268 49.5082 47.5646 52.2353 47.5646 52.2353C47.3728 50.0838 46.7958 49.4424 45.1986 49.4424L42.9714 49.4452C42.9714 49.4452 44.2655 49.979 44.2655 52.2105L44.2592 60.5178C44.2592 63.2831 45.3657 63.3093 45.3657 63.3093H49.0089C48.9154 63.2831 47.6022 62.2834 47.6022 60.4923L47.6078 53.7015C47.6963 53.0792 48.0163 52.6077 48.5084 52.2884C49.714 51.5224 51.3692 51.7107 52.3137 52.8456C52.3137 52.8456 52.313 51.3914 52.313 50.5079Z" fill="white"/>
<path d="M69.3615 51.013C70.6082 51.013 71.5384 51.5553 71.5384 51.5553L71.5469 49.4576H68.4744V46.2866C68.4744 46.2866 67.6786 47.6955 66.0149 49.0413C64.9735 49.9015 62.7838 50.9578 62.7838 50.9578L65.1172 51.001L65.1122 60.6357C65.1122 63.3068 66.233 63.3068 66.233 63.3068C68.245 63.3068 69.8705 63.3139 69.8705 63.3139C69.8705 63.3139 68.4694 62.361 68.4694 60.6109L68.4744 51.0087C69.423 51.0116 68.7597 51.013 69.3615 51.013Z" fill="white"/>
<path d="M78.2464 54.3134C78.8559 53.1878 79.3345 50.3439 77.2531 50.4996C74.868 50.678 75.326 57.0674 75.326 57.0674C76.1168 56.1924 77.3161 56.0154 78.2464 54.3134ZM80.5041 55.2012C78.4411 57.3378 76.822 57.003 75.5646 58.5803C75.5646 58.5803 75.7671 60.7113 77.3728 61.4646C77.9313 61.7216 80.1997 62.4479 81.6651 59.8858L81.6616 62.3198C81.6616 62.3198 80.7172 63.3293 77.7197 63.3293C74.1444 63.3293 71.6701 60.5046 71.6701 56.6745C71.6701 52.9067 73.6885 49.4051 77.4598 49.3888C81.1908 49.3647 83.2128 52.3637 80.5041 55.2012Z" fill="white"/>
<path d="M39.3175 48.333C40.2662 48.333 41.0372 47.5988 41.0372 46.6707C41.0372 45.7425 40.2662 44.9893 39.3175 44.9893C38.3688 44.9893 37.6375 45.7425 37.6375 46.6707C37.6375 47.5988 38.3688 48.333 39.3175 48.333Z" fill="white"/>
<path d="M88.5742 59.5454C88.6018 60.5273 87.7296 61.8229 85.8648 61.8229C84.0355 61.8229 83.2312 59.8583 83.2312 59.8583L83.2163 62.3376C83.2163 62.3376 84.5714 63.3181 86.6896 63.3181H86.6875C89.21 63.3181 91.697 61.425 91.6213 58.7787C91.5951 57.8399 91.2744 57.042 90.7753 56.3546C89.9201 55.2332 88.3781 54.4034 87.1555 53.6969C85.496 52.7362 85.7197 50.6717 88.1544 50.8679C89.9781 51.0144 90.7505 52.7716 90.7505 52.7716V50.4622C90.7505 50.4622 89.3452 49.3535 87.2248 49.3535C85.0224 49.3535 83.0634 50.8112 83.1179 52.664C83.1661 54.3036 83.8344 55.3726 85.1795 56.3503C85.7133 56.7496 86.3491 57.1326 87.0839 57.544C88.1608 58.1351 88.5558 58.8643 88.5742 59.5454Z" fill="white"/>
<path d="M58.5884 52.5076C58.5884 53.864 57.438 54.4708 56.6868 54.8C54.4999 55.7557 51.702 56.8092 51.702 59.9865C51.702 62.1132 53.2433 63.3331 55.4082 63.3331C57.0677 63.3331 57.901 62.4757 58.3137 61.6679C58.5643 63.2347 59.3452 63.3062 59.3452 63.3062C61.2574 63.3062 63.0096 63.3175 63.0096 63.3175C63.0096 63.3175 61.5803 62.3469 61.5803 60.5295V52.7483C61.5803 50.88 59.5137 49.4336 57.3211 49.4336C55.2121 49.4336 53.8811 50.4516 53.8811 50.4516C53.8811 51.0754 53.8811 52.863 53.8811 52.863C53.8811 52.863 54.6337 50.9494 56.5403 50.9494C58.1226 50.9494 58.5884 51.7253 58.5884 52.5076ZM56.6033 61.7359C55.4479 61.7359 54.6613 61.1164 54.6613 59.8039C54.6613 56.6817 57.4967 56.0389 58.2571 55.115L58.2521 60.9416C58.2273 60.9642 57.7417 61.7359 56.6033 61.7359Z" fill="white"/>
</g>
<defs>
<clipPath id="clip0_2025_836">
<rect width="92.3894" height="64" fill="white"/>
</clipPath>
</defs>
</svg>
