<svg width="253" height="64" viewBox="0 0 253 64" fill="none" xmlns="http://www.w3.org/2000/svg">
  <g clip-path="url(#clip0_1_23)">
    <path d="M18.6448 54.0861L19.6661 49.1616H6.02678V41.6519H17.3122L18.339 36.3214H6.02678V29.4162H18.5647L19.6661 24.499H0.126465V54.0861H18.6448ZM188.946 41.1841C190.051 41.3206 191.555 41.5372 192.301 41.9105C193.049 42.2873 193.677 42.8353 194.121 43.376C194.564 43.9167 194.882 44.5265 195.075 45.2056C195.268 45.8847 195.367 46.5692 195.367 47.2628V47.6797C195.367 48.8994 195.145 49.9444 194.702 50.8165C194.258 51.6903 193.628 52.3948 192.813 52.9355C191.993 53.4762 190.439 53.9095 189.288 54.1608C188.137 54.412 186.872 54.534 185.485 54.534C184.322 54.534 183.075 54.4429 181.746 54.2663C180.415 54.0843 179.086 53.7876 177.757 53.3707L178.682 49.3145C179.983 49.675 181.161 49.8916 182.213 50.0446C183.266 50.1975 184.32 50.2503 185.372 50.2721C186.361 50.294 186.996 50.2867 187.653 50.2139C188.258 50.1465 188.709 49.9699 189.04 49.7496C189.375 49.5275 189.685 49.1834 189.781 48.8412C189.867 48.5535 189.891 48.3842 189.891 47.9692C189.891 47.332 189.712 46.8823 189.395 46.4545C189.077 46.0248 188.418 45.79 187.391 45.6516L184.305 45.2274C182.142 44.9525 179.921 44.3609 178.895 43.3377C177.87 42.3128 177.356 40.9547 177.356 39.267V38.8501C177.356 36.6637 178.166 35.0198 179.789 33.9256C181.411 32.8315 184.378 32.1379 187.398 32.1379C188.893 32.1379 190.244 32.2489 191.451 32.471C192.658 32.6931 193.617 32.9426 194.338 33.2193L193.35 37.1534C192.379 36.9004 191.393 36.7201 190.462 36.5982C189.446 36.4634 188.553 36.4015 187.5 36.4015C185.589 36.4015 184.354 36.5108 183.675 36.9076C182.996 37.3118 182.703 37.6923 182.703 38.5789C182.703 39.3253 182.949 39.7422 183.362 40.059C183.779 40.3794 184.444 40.6343 185.494 40.7744L188.946 41.1841ZM169.235 32.5256C167.651 32.1233 166.105 32.0214 164.321 32.0214C162.625 32.0214 160.58 32.2325 159.242 32.6349C157.906 33.0354 156.768 33.6526 155.834 34.4827C154.898 35.3147 154.179 36.3815 153.677 37.6832C153.172 38.9849 152.921 40.5341 152.921 42.3383V43.7929C152.921 47.3119 153.633 49.8953 155.057 51.541C156.48 53.1904 159.118 54.25 161.94 54.25C164.873 54.25 166.708 53.4471 168.208 52.0034V52.9483C168.208 55.2476 167.819 56.6203 166.856 57.7836C165.892 58.9469 164.178 59.4548 161.964 59.3565C160.416 59.2892 159.524 59.1963 158.346 59.0052C157.167 58.8104 156.067 58.5519 155.06 58.2478L154.094 62.6499C155.444 63.1196 156.834 63.46 158.257 63.6675C159.681 63.8751 161.257 63.9388 162.981 63.9807C166.548 64.0626 169.27 63.0103 171.154 61.0715C173.038 59.1308 173.875 56.3891 173.875 52.8427V34.2642C172.583 33.5725 170.815 32.928 169.235 32.5256ZM168.21 44.2844C168.21 46.2233 167.835 47.6506 167.09 48.5645C166.342 49.4784 165.15 49.9371 163.515 49.9371C162.572 49.9371 161.805 49.7988 161.208 49.5202C160.611 49.2435 160.149 48.8357 159.816 48.295C159.481 47.7525 159.253 47.0971 159.131 46.3198C159.005 45.5442 158.942 44.6449 158.942 43.6199V42.1253C158.942 39.9097 159.364 38.3277 160.209 37.3864C161.054 36.4452 162.39 35.9737 164.219 35.9737C164.938 35.9737 165.659 36.0447 166.38 36.1813C167.101 36.3196 167.709 36.5417 168.208 36.8458L168.21 44.2844Z" fill="#000000"></path>
    <path d="M129.291 54.0867V32.5208H134.556L134.887 34.8492C135.579 33.9335 136.473 33.2326 137.569 32.7502C138.663 32.2659 139.916 32.022 141.328 32.022C142.492 32.022 143.812 32.1749 144.767 32.4789C145.723 32.7848 146.548 33.249 147.24 33.8716C147.931 34.4961 148.472 35.2771 148.86 36.2201C149.249 37.1631 149.442 38.27 149.442 39.5444V54.0867H143.708V40.9134C143.708 39.1693 143.389 37.9277 142.754 37.1941C142.115 36.4604 141.165 36.0963 139.668 36.0963C138.035 36.0963 136.823 36.9501 136.096 37.9387C135.332 38.98 135.224 41.07 135.224 42.9542V54.0849H129.291V54.0867ZM60.9432 37.3488C60.6082 37.2669 60.2095 37.185 59.738 37.0994C59.2646 37.0175 58.7822 36.9774 58.2816 36.9774C56.4537 36.9774 55.132 37.4544 54.3128 38.4084C53.4954 39.3641 53.2879 40.4018 53.2879 42.368V54.0867H47.0726V32.5208H52.6234L52.9565 35.0968C53.6483 34.1556 54.5094 33.442 55.5326 32.9559C56.5575 32.4716 57.79 32.2295 59.23 32.2295C59.7853 32.2295 60.2768 32.2641 60.7065 32.3333C61.1361 32.4025 61.584 32.5208 62.0573 32.6865L60.9432 37.3488ZM43.2404 32.5208V54.0885H37.9772L37.6459 51.7619C36.9541 52.6758 36.0602 53.3767 34.9643 53.8592C33.8701 54.3434 32.6158 54.5874 31.2049 54.5874C30.0398 54.5874 28.7217 54.4344 27.7641 54.1286C26.8102 53.8227 25.9855 53.3603 25.2937 52.7359C24.6019 52.1115 24.0612 51.3304 23.6716 50.3874C23.2838 49.4462 23.0908 48.3375 23.0908 47.0631V32.5208H28.8237V45.6959C28.8237 47.4382 29.1441 48.6798 29.7794 49.4153C30.4166 50.1471 31.3687 50.5112 32.8652 50.5112C34.4982 50.5112 35.7107 49.6574 36.4371 48.6688C37.2017 47.6275 37.3091 45.5357 37.3091 43.6551V32.5208H43.2404ZM122.384 23.815C123.544 23.815 124.43 24.0717 124.949 24.556C125.468 25.0421 125.728 25.7903 125.728 26.6769C125.728 27.5635 125.468 28.3117 124.949 28.796C124.43 29.2803 123.544 29.5078 122.384 29.5078C121.228 29.5078 120.309 29.2803 119.79 28.796C119.271 28.3117 119.011 27.5635 119.011 26.6769C119.011 25.7903 119.271 25.0421 119.79 24.556C120.309 24.0717 121.228 23.815 122.384 23.815ZM119.508 32.5208H125.361V54.0885H119.508V32.5208ZM116.509 32.5208L110.15 54.0885H104.892L101.135 41.0463L97.4246 54.0885H91.974L85.4711 32.5208H91.568L94.7776 45.9071L98.3112 33.4347H104.046L107.574 45.7687L110.747 32.5208H116.509Z" fill="#000000"></path>
    <path d="M83.7289 38.2732C83.4103 37.0007 82.8696 35.9047 82.1087 34.9908C81.3459 34.0769 80.3264 33.356 79.052 32.8299C77.7794 32.3037 75.7113 32.0507 73.7998 32.0507C71.8882 32.0507 69.7491 32.3747 68.4766 32.9009C67.2004 33.427 66.1827 34.1479 65.4217 35.0618C64.6589 35.9757 64.1109 37.0717 63.7796 38.3442C63.4483 39.6186 63.1807 40.9112 63.1807 42.4077V44.1535C63.1807 45.6464 63.421 47.0045 63.7414 48.2788C64.06 49.5532 64.6007 50.6546 65.3635 51.5813C66.1244 52.5116 67.1421 53.238 68.4165 53.7641C69.6909 54.2902 71.8646 54.6143 73.8016 54.6143C75.7405 54.6143 77.8614 54.3193 79.1503 53.7641C80.4392 53.2125 81.4569 52.4624 82.2051 51.523C82.9534 50.5836 83.4795 49.4804 83.7835 48.2188C84.0894 46.9608 84.3424 45.6154 84.3424 44.1754V42.4295C84.3406 40.933 84.0475 39.5494 83.7289 38.2732ZM78.5805 44.4867C78.5805 46.7314 78.2291 48.3171 77.5209 49.2455C76.8146 50.1722 75.5894 50.6364 73.8435 50.6364C72.9824 50.6364 72.2505 50.5399 71.6406 50.3451C71.0308 50.154 70.5247 49.8226 70.1241 49.3493C69.72 48.8778 69.4305 48.2497 69.2521 47.4578C69.0701 46.6677 68.9827 45.6773 68.9827 44.4867V42.0781C68.9827 39.8626 69.3486 38.2878 70.0823 37.3593C70.8159 36.4327 72.0703 35.9685 73.8435 35.9685C75.6167 35.9685 76.8473 36.4327 77.5391 37.3593C78.2346 38.2878 78.5787 39.8626 78.5787 42.0781L78.5805 44.4867Z" fill="#000000"></path>
    <path d="M215.961 0.11325C211.26 -0.529395 208.874 2.0867 205.582 4.49161L194.33 13.3284L194.326 13.3303L196.492 14.4754C196.496 14.479 196.501 14.4808 196.507 14.4845C199.325 15.8699 203.245 15.3966 205.914 13.4195L210.665 9.64369L212.482 8.1982L221.537 1.00349L215.961 0.11325Z" fill="#000000"></path>
    <path d="M194.329 13.3286L196.492 14.4773C196.497 14.4792 196.501 14.4828 196.507 14.4846C199.325 15.8719 203.246 15.3985 205.915 13.4196L210.665 9.64568L212.483 8.20018L194.329 13.3286Z" fill="#000000"></path>
    <path d="M235.176 5.57098L229.135 4.48412C229.135 4.48412 224.93 3.48466 221.416 6.20634C221.416 6.20634 218.822 8.13609 216.909 9.62892L212.654 12.9987L202.812 20.827L202.73 20.8925L205.702 22.4636C208.522 23.8563 212.45 23.3848 215.123 21.4041L223.923 14.4333L231.02 8.84428L235.176 5.57098Z" fill="#000000"></path>
    <path d="M216.911 9.62949C218.821 8.13666 221.415 6.2069 221.415 6.2069C222.079 5.69169 222.769 5.3112 223.45 5.03084L212.485 8.20037L210.666 9.64405L205.918 13.4198C203.25 15.3987 199.328 15.8721 196.51 14.4848C198.913 15.9249 202.645 16.2562 208.267 14.5795L212.106 13.4362L212.658 12.9993L216.911 9.62949ZM232.378 12.9865C234.189 11.5683 235.557 10.5416 236.917 9.93169L224.643 13.8677L223.922 14.4357L215.121 21.4046C212.449 23.3854 208.52 23.8587 205.7 22.4642C210.033 24.8436 216.705 23.0941 222.316 21.0988L222.651 20.8275C222.649 20.8275 232.043 13.2287 232.378 12.9865ZM246.811 20.8931C241.885 19.4621 240.406 20.3669 234.603 22.1128H234.601L234.117 22.5152L234.102 22.5243L224.748 29.9411C222.083 31.9163 217.918 32.2968 215.099 30.9169C218.577 32.7301 222.172 32.2859 228.324 30.3671L252.977 22.7992L246.811 20.8931Z" fill="#000000"></path>
    <path d="M248.446 10.6651L241.925 9.47811C238.018 8.75354 236.17 10.017 232.376 12.9863C232.041 13.2302 222.649 20.8273 222.649 20.8273L212.104 29.3346L215.074 30.9057C217.896 32.3002 222.079 31.9215 224.75 29.9408L234.104 22.524L234.116 22.5149L234.111 22.5185L248.446 10.6651Z" fill="#000000"></path>
    <path d="M224.641 13.8675L202.729 20.8929L212.105 13.4361L232.959 7.31547L224.641 13.8675ZM234.603 22.1127L212.107 29.3347L222.314 21.0968L245.024 13.4961L234.603 22.1127Z" fill="#000000"></path>
  </g>
  <defs>
    <clipPath id="clip0_1_23">
      <rect width="252.121" height="64" fill="#000000"></rect>
    </clipPath>
  </defs>
</svg>
