<svg width="305" height="78" viewBox="0 0 305 78" fill="none" xmlns="http://www.w3.org/2000/svg">
  <g clip-path="url(#clip0_1_23)">
    <path d="M22.5329 65.3649L23.7672 59.4135H7.28357V50.3378H20.9224L22.1633 43.8957H7.28357V35.5505H22.4361L23.7672 29.6078H0.152832V65.3649H22.5329ZM228.347 49.7723C229.683 49.9373 231.5 50.1992 232.402 50.6502C233.306 51.1056 234.066 51.7679 234.602 52.4213C235.137 53.0748 235.522 53.8118 235.755 54.6325C235.988 55.4532 236.107 56.2804 236.107 57.1187V57.6225C236.107 59.0966 235.839 60.3595 235.304 61.4134C234.767 62.4695 234.006 63.3209 233.02 63.9744C232.03 64.6278 230.151 65.1515 228.761 65.4551C227.37 65.7587 225.841 65.9061 224.165 65.9061C222.759 65.9061 221.252 65.7961 219.646 65.5827C218.037 65.3627 216.431 65.0041 214.825 64.5002L215.943 59.5983C217.516 60.0339 218.939 60.2957 220.211 60.4805C221.483 60.6653 222.757 60.7291 224.028 60.7556C225.223 60.782 225.991 60.7732 226.785 60.6851C227.516 60.6037 228.061 60.3903 228.462 60.1241C228.867 59.8557 229.241 59.4399 229.357 59.0262C229.461 58.6786 229.489 58.474 229.489 57.9723C229.489 57.2023 229.274 56.6588 228.891 56.1418C228.506 55.6226 227.709 55.3387 226.468 55.1715L222.739 54.6589C220.125 54.3267 217.441 53.6116 216.2 52.3751C214.962 51.1364 214.341 49.4951 214.341 47.4556V46.9517C214.341 44.3093 215.32 42.3226 217.28 41.0003C219.241 39.678 222.827 38.8397 226.477 38.8397C228.284 38.8397 229.916 38.9739 231.375 39.2423C232.833 39.5108 233.993 39.8122 234.864 40.1466L233.67 44.9012C232.497 44.5953 231.304 44.3775 230.18 44.2301C228.952 44.0673 227.872 43.9925 226.6 43.9925C224.29 43.9925 222.799 44.1245 221.978 44.6041C221.157 45.0926 220.803 45.5524 220.803 46.6239C220.803 47.526 221.1 48.0298 221.599 48.4126C222.103 48.7999 222.906 49.1079 224.176 49.2773L228.347 49.7723ZM204.526 39.3083C202.612 38.8221 200.744 38.6989 198.588 38.6989C196.537 38.6989 194.067 38.9541 192.449 39.4404C190.835 39.9244 189.459 40.6702 188.331 41.6735C187.2 42.679 186.331 43.9683 185.724 45.5414C185.114 47.1145 184.81 48.9869 184.81 51.1672V52.9252C184.81 57.1781 185.671 60.3001 187.391 62.2891C189.112 64.2824 192.3 65.5629 195.71 65.5629C199.255 65.5629 201.472 64.5926 203.285 62.8479V63.9898C203.285 66.7686 202.814 68.4275 201.651 69.8334C200.487 71.2393 198.414 71.8532 195.739 71.7344C193.869 71.653 192.79 71.5408 191.367 71.3097C189.941 71.0743 188.612 70.7619 187.396 70.3945L186.227 75.7145C187.86 76.2821 189.539 76.6935 191.259 76.9444C192.98 77.1952 194.885 77.2722 196.969 77.3228C201.279 77.4218 204.568 76.1501 206.845 73.8069C209.122 71.4616 210.134 68.1481 210.134 63.8622V41.4095C208.572 40.5734 206.436 39.7946 204.526 39.3083ZM203.287 53.5192C203.287 55.8624 202.834 57.5873 201.934 58.6918C201.03 59.7963 199.589 60.3507 197.613 60.3507C196.474 60.3507 195.547 60.1835 194.826 59.8469C194.104 59.5125 193.545 59.0196 193.142 58.3662C192.738 57.7105 192.463 56.9185 192.315 55.979C192.163 55.0417 192.086 53.9548 192.086 52.7162V50.9098C192.086 48.2322 192.597 46.3203 193.618 45.1828C194.639 44.0453 196.254 43.4755 198.465 43.4755C199.334 43.4755 200.205 43.5613 201.076 43.7263C201.948 43.8935 202.682 44.1619 203.285 44.5293L203.287 53.5192Z" fill="#000000"></path>
    <path d="M156.253 65.3656V39.3025H162.615L163.016 42.1165C163.852 41.0098 164.932 40.1627 166.257 39.5797C167.579 38.9945 169.093 38.6996 170.8 38.6996C172.206 38.6996 173.801 38.8844 174.956 39.2519C176.111 39.6215 177.108 40.1825 177.944 40.935C178.78 41.6897 179.434 42.6335 179.902 43.7732C180.373 44.9129 180.606 46.2506 180.606 47.7907V65.3656H173.676V49.4452C173.676 47.3375 173.291 45.837 172.523 44.9503C171.751 44.0636 170.602 43.6236 168.794 43.6236C166.82 43.6236 165.355 44.6555 164.477 45.8502C163.553 47.1087 163.423 49.6345 163.423 51.9116V65.3634H156.253V65.3656ZM73.6518 45.1373C73.247 45.0383 72.7652 44.9393 72.1953 44.8359C71.6233 44.7369 71.0402 44.6885 70.4352 44.6885C68.2262 44.6885 66.6289 45.2649 65.6388 46.4178C64.651 47.5729 64.4001 48.827 64.4001 51.2032V65.3656H56.8888V39.3025H63.5971L63.9997 42.4157C64.8358 41.2782 65.8764 40.4158 67.1129 39.8283C68.3516 39.2431 69.8411 38.9504 71.5815 38.9504C72.2525 38.9504 72.8466 38.9923 73.3658 39.0759C73.8851 39.1595 74.4263 39.3025 74.9983 39.5027L73.6518 45.1373ZM52.2574 39.3025V65.3678H45.8968L45.4963 62.556C44.6603 63.6605 43.58 64.5076 42.2555 65.0906C40.9332 65.6759 39.4173 65.9707 37.7121 65.9707C36.304 65.9707 34.7111 65.7859 33.5538 65.4162C32.4009 65.0466 31.4043 64.4878 30.5682 63.7331C29.7321 62.9784 29.0787 62.0346 28.6079 60.8949C28.1392 59.7574 27.906 58.4175 27.906 56.8774V39.3025H34.8343V55.2251C34.8343 57.3306 35.2216 58.8311 35.9894 59.72C36.7595 60.6045 37.9102 61.0445 39.7187 61.0445C41.6922 61.0445 43.1575 60.0126 44.0354 58.8179C44.9595 57.5594 45.0893 55.0315 45.0893 52.7587V39.3025H52.2574ZM147.905 28.7813C149.307 28.7813 150.378 29.0915 151.005 29.6768C151.632 30.2642 151.947 31.1685 151.947 32.2399C151.947 33.3114 151.632 34.2157 151.005 34.8009C150.378 35.3862 149.307 35.6612 147.905 35.6612C146.508 35.6612 145.397 35.3862 144.77 34.8009C144.143 34.2157 143.828 33.3114 143.828 32.2399C143.828 31.1685 144.143 30.2642 144.77 29.6768C145.397 29.0915 146.508 28.7813 147.905 28.7813ZM144.429 39.3025H151.502V65.3678H144.429V39.3025ZM140.805 39.3025L133.12 65.3678H126.766L122.225 49.6058L117.741 65.3678H111.154L103.295 39.3025H110.663L114.542 55.4803L118.812 40.407H125.743L130.007 55.3131L133.842 39.3025H140.805Z" fill="#000000"></path>
    <path d="M101.189 46.2545C100.804 44.7166 100.151 43.3921 99.2309 42.2876C98.3091 41.1831 97.077 40.3119 95.5369 39.676C93.999 39.0402 91.4996 38.7343 89.1894 38.7343C86.8792 38.7343 84.294 39.126 82.7561 39.7618C81.2138 40.3977 79.9839 41.2689 79.0642 42.3734C78.1424 43.4779 77.4801 44.8024 77.0797 46.3403C76.6793 47.8804 76.3558 49.4425 76.3558 51.2511V53.361C76.3558 55.1652 76.6463 56.8065 77.0335 58.3466C77.4185 59.8867 78.072 61.2178 78.9938 62.3377C79.9135 63.462 81.1434 64.3399 82.6835 64.9757C84.2236 65.6116 86.8506 66.0032 89.1916 66.0032C91.5348 66.0032 94.098 65.6468 95.6557 64.9757C97.2134 64.3091 98.4433 63.4026 99.3475 62.2673C100.252 61.132 100.888 59.7987 101.255 58.274C101.625 56.7537 101.931 55.1278 101.931 53.3874V51.2775C101.928 49.4689 101.574 47.7968 101.189 46.2545ZM94.967 53.7637C94.967 56.4765 94.5424 58.3928 93.6865 59.5149C92.8329 60.6348 91.3522 61.1958 89.2422 61.1958C88.2015 61.1958 87.3171 61.0792 86.58 60.8438C85.8429 60.6128 85.2313 60.2123 84.7473 59.6403C84.2588 59.0705 83.909 58.3114 83.6934 57.3543C83.4734 56.3995 83.3678 55.2026 83.3678 53.7637V50.8528C83.3678 48.1752 83.81 46.2721 84.6967 45.15C85.5833 44.0301 87.0992 43.4691 89.2422 43.4691C91.3852 43.4691 92.8725 44.0301 93.7085 45.15C94.549 46.2721 94.9648 48.1752 94.9648 50.8528L94.967 53.7637Z" fill="#000000"></path>
    <path d="M260.996 0.136867C255.315 -0.639792 252.431 2.52184 248.453 5.42826L234.854 16.1079L234.849 16.1101L237.468 17.494C237.472 17.4984 237.478 17.5006 237.485 17.505C240.891 19.1793 245.628 18.6073 248.853 16.2179L254.596 11.6547L256.792 9.9078L267.735 1.21275L260.996 0.136867Z" fill="#000000"></path>
    <path d="M234.853 16.1081L237.467 17.4964C237.474 17.4986 237.478 17.503 237.485 17.5052C240.891 19.1817 245.63 18.6096 248.855 16.2181L254.595 11.6571L256.793 9.91019L234.853 16.1081Z" fill="#000000"></path>
    <path d="M284.218 6.73271L276.918 5.41921C276.918 5.41921 271.835 4.21132 267.589 7.50057C267.589 7.50057 264.454 9.83274 262.141 11.6369L257 15.7094L245.106 25.1701L245.007 25.2493L248.597 27.148C252.005 28.8312 256.753 28.2613 259.983 25.8675L270.619 17.4431L279.195 10.6886L284.218 6.73271Z" fill="#000000"></path>
    <path d="M262.144 11.6376C264.452 9.83342 267.587 7.50125 267.587 7.50125C268.39 6.8786 269.224 6.41877 270.047 6.07994L256.795 9.91043L254.597 11.6552L248.859 16.2183C245.634 18.6099 240.895 19.1819 237.489 17.5054C240.393 19.2457 244.903 19.6462 251.698 17.6198L256.338 16.2381L257.004 15.7101L262.144 11.6376ZM280.837 15.6947C283.026 13.9807 284.678 12.7398 286.322 12.0028L271.488 16.7595L270.617 17.446L259.981 25.8682C256.751 28.262 252.003 28.834 248.595 27.1487C253.832 30.0243 261.895 27.91 268.676 25.4986L269.081 25.1708C269.079 25.1708 280.432 15.9873 280.837 15.6947ZM298.279 25.25C292.326 23.5206 290.539 24.6141 283.525 26.7241H283.523L282.938 27.2103L282.92 27.2213L271.616 36.1848C268.395 38.572 263.361 39.0318 259.955 37.3641C264.157 39.5554 268.502 39.0186 275.937 36.6996L305.731 27.5535L298.279 25.25Z" fill="#000000"></path>
    <path d="M300.255 12.8891L292.374 11.4546C287.653 10.579 285.419 12.1059 280.834 15.6943C280.429 15.9892 269.079 25.1704 269.079 25.1704L256.335 35.4518L259.924 37.3506C263.334 39.0359 268.39 38.5782 271.618 36.1845L282.922 27.221L282.938 27.21L282.931 27.2144L300.255 12.8891Z" fill="#000000"></path>
    <path d="M271.486 16.7594L245.005 25.2498L256.336 16.2379L281.539 8.84099L271.486 16.7594ZM283.525 26.7239L256.338 35.452L268.674 25.4962L296.119 16.3105L283.525 26.7239Z" fill="#000000"></path>
  </g>
  <defs>
    <clipPath id="clip0_1_23">
      <rect width="304.697" height="77.3462" fill="#000000"></rect>
    </clipPath>
  </defs>
</svg>
