<svg width="298" height="33" viewBox="0 0 298 33" fill="none" xmlns="http://www.w3.org/2000/svg">
  <g clip-path="url(#clip0_1_107)">
    <path d="M31.9095 0.116601C29.6747 0.116601 28.4115 0.388668 26.7791 1.2243C26.235 1.5158 20.3467 4.56683 16.0714 6.80167C12.69 8.5701 10.3385 11.0576 8.8616 14.1086C4.6057 22.8925 0 32.5508 0 32.5508H9.2114C11.4851 32.5508 13.0786 31.5986 13.8948 29.869C14.2641 29.0917 16.324 24.8358 18.4422 20.5022H33.4059C35.4658 20.5022 36.2626 20.1524 37.0399 18.5005L37.8173 16.8876C37.8173 16.8876 27.3816 16.8876 19.7831 16.8876C21.435 13.5256 23.8641 8.43407 23.8641 8.43407C24.9135 6.31583 26.1184 5.46077 28.8585 5.46077H39.0416H48.253C50.5267 5.46077 52.1202 4.52797 52.9364 2.77897L54.2384 0.097168H31.9095V0.116601Z" fill="#FFFFFF"></path>
    <path fill-rule="evenodd" clip-rule="evenodd" d="M57.9697 2.79838C58.8053 1.06881 60.3988 0.116577 62.6725 0.116577H71.8839C71.8839 0.116577 58.4555 27.8091 57.4644 29.869C56.6288 31.5986 55.0352 32.5508 52.7615 32.5508H43.5696C43.5696 32.5508 56.9786 4.85831 57.9697 2.79838ZM234.444 2.79838C235.26 1.06881 236.854 0.116577 239.127 0.116577H248.339C248.339 0.116577 234.891 27.8091 233.9 29.869C233.064 31.5986 231.49 32.5508 229.216 32.5508H220.024C220.024 32.5508 233.453 4.85831 234.444 2.79838ZM157.216 32.5314H150.278C148.024 32.5314 146.761 31.5986 145.517 30.005C144.817 29.0722 137.666 19.6082 133.002 13.4478C132.71 13.0592 132.438 12.4956 132.36 11.9515C129.329 18.1701 124.198 28.8973 123.732 29.8496C122.916 31.5791 121.322 32.5314 119.049 32.5314H114.832C114.832 32.5314 121.866 17.6454 126.142 8.84214C127.696 5.67451 129.523 3.55628 132.71 1.88501C133.799 1.30201 134.323 1.06881 135.353 0.505244C136.616 -0.136056 137.899 -2.28398e-05 138.637 1.04938C140.892 4.13928 147.577 13.1952 153.251 20.8908C153.659 21.4544 154.145 22.3483 154.281 23.0285C157.391 16.596 163.454 3.98381 164.037 2.79838C164.872 1.06881 166.466 0.116577 168.74 0.116577H172.976L157.216 32.5314ZM105.989 32.5314H99.0517C96.778 32.5314 95.5343 31.618 94.2906 30.0245C93.591 29.0722 86.4395 19.6276 81.7755 13.4478C81.484 13.0592 81.1925 12.515 81.1342 11.9515C78.1026 18.1701 72.9528 28.9168 72.5058 29.8496C71.6896 31.5986 70.0766 32.5314 67.8224 32.5314H63.6053C63.6053 32.5314 70.6402 17.6649 74.9155 8.86158C76.4702 5.69394 78.2969 3.55628 81.484 1.90444C82.5723 1.32144 83.0775 1.06881 84.1269 0.524677C85.3707 -0.136056 86.6533 -2.28398e-05 87.4112 1.04938C89.6654 4.13928 96.3505 13.2146 102.025 20.9102C102.433 21.4544 102.919 22.3483 103.036 23.0285C106.164 16.596 112.228 4.00324 112.811 2.81781C113.646 1.06881 115.24 0.13601 117.513 0.13601H121.75L105.989 32.5314ZM221.773 11.3685C221.249 12.3984 211.512 32.4925 211.512 32.4925H203.253C200.785 32.4925 199.794 30.7629 200.727 28.8585C201.776 26.6819 203.234 23.6698 204.789 20.4827H183.703C181.507 25.0301 179.506 29.1305 179.175 29.8496C178.34 31.5791 176.746 32.5314 174.473 32.5314H165.281C165.281 32.5314 169.809 23.0479 174.103 14.2446C175.658 10.9992 177.912 8.58951 181.488 6.72391C185.763 4.48908 191.516 1.51578 192.04 1.22428C193.692 0.388644 194.955 0.116577 197.19 0.116577H207.315C209.725 0.116577 212.057 0.796744 213.864 2.15708C214.253 2.44858 220.646 7.22918 221.113 7.55954C222.57 8.60894 222.687 9.61948 221.773 11.3685ZM206.576 16.8875C208.209 13.4673 209.88 10.0664 211.163 7.40408C211.687 6.27694 211.24 5.46074 209.686 5.46074H194.586C191.69 5.46074 190.622 6.27694 189.494 8.60894C189.494 8.60894 187.862 11.9515 185.472 16.8875H206.576ZM297.233 11.4462C297.058 11.7571 295.542 15.1191 294.959 16.2462C293.715 18.6365 291.15 19.8803 285.398 19.8803C284.232 19.8803 280.87 19.8803 276.886 19.8803L276.789 20.5799C278.849 20.9102 280.812 21.2406 281.278 21.2989C282.852 21.5515 283.416 22.1345 283.902 22.9507C287.011 28.1977 289.751 32.5508 289.751 32.5508H279.238C276.498 32.5508 275.448 31.8901 274.224 29.869C273.874 29.2277 271.678 25.5937 269.735 22.3483C268.705 20.6187 267.83 19.8608 265.265 19.8608C261.378 19.8608 259.901 19.8608 259.901 19.8608C257.803 24.1556 255.354 29.0917 255.004 29.869C254.169 31.5986 252.575 32.5508 250.321 32.5508H241.109C241.109 32.5508 245.521 23.2811 249.796 14.4778C251.584 10.8049 253.566 8.68668 257.803 6.47128C262.078 4.23644 267.344 1.51578 267.869 1.22428C269.521 0.388644 270.784 0.116577 273.019 0.116577H282.561C285.243 0.116577 287.788 1.02994 289.712 2.46801C290.101 2.75951 296.047 7.22918 296.514 7.55954C297.952 8.60894 298.088 9.61948 297.233 11.4462ZM285.048 5.46074H269.793C267.422 5.46074 266.062 6.27694 265.148 8.14254C265.148 8.14254 262.875 12.8454 261.242 16.2268H277.294C281.064 16.2268 282.697 15.43 283.552 13.6227C284.776 11.0964 285.573 9.38628 286.525 7.40408C287.069 6.27694 286.583 5.46074 285.048 5.46074Z" fill="#FFFFFF"></path>
  </g>
  <defs>
    <clipPath id="clip0_1_107">
      <rect width="297.913" height="32.648" fill="#FFFFFF"></rect>
    </clipPath>
  </defs>
</svg>
