<svg width="333" height="64" viewBox="0 0 333 64" fill="none" xmlns="http://www.w3.org/2000/svg">
<g clip-path="url(#clip0_2018_19)">
<path fill-rule="evenodd" clip-rule="evenodd" d="M81.5088 12.1733H93.5107V25.8123H106.698V12.1733H118.774V51.0889H106.698V35.3745H93.5107V51.0889H81.5088V12.1733Z" fill="black"/>
<path fill-rule="evenodd" clip-rule="evenodd" d="M140.186 22.2595C138.185 22.2595 136.336 22.3985 134.558 22.695C132.78 22.9915 131.445 23.4396 130.408 24.0326C129.074 24.7738 128.04 25.67 127.299 26.7077C126.558 27.7455 125.959 29.1437 125.589 30.9227L135.895 32.0425C136.34 30.8565 136.923 29.9676 137.59 29.5229C138.479 29.004 139.807 28.6986 141.585 28.6986C142.918 28.6986 143.957 28.9299 144.476 29.5229C144.995 30.0417 145.3 30.926 145.3 32.2603C143.966 32.7791 142.704 33.2272 141.445 33.5978C140.259 33.8943 137.669 34.4778 133.595 35.2931C130.187 35.9603 127.89 37.011 126.63 38.4193C125.371 39.7536 124.781 41.5267 124.781 43.6763C124.781 43.8246 124.781 43.9755 124.781 44.0496C124.855 46.1992 125.731 47.976 127.361 49.3844C129.065 51.0151 131.66 51.7485 134.994 51.7485C137.513 51.7485 139.74 51.3818 141.74 50.5664C143.074 49.9734 144.483 49.0078 145.891 47.6735C146.039 48.4889 146.19 49.0915 146.264 49.4621C146.412 49.9068 146.702 50.4281 147.072 51.0952H157.223C156.704 49.9834 156.341 49.0058 156.119 48.2645C155.971 47.5233 155.886 46.4881 155.886 45.1539V44.0496V32.6335C155.886 31.2993 155.596 29.8892 155.078 28.4808C154.559 26.9983 153.822 25.89 152.933 25.0747C151.599 23.9628 149.958 23.147 147.958 22.8505C146.032 22.4799 143.445 22.2595 140.186 22.2595ZM145.3 37.7505V39.4458C145.3 40.7801 145.076 41.9003 144.631 42.7898C144.409 43.2345 144.034 43.679 143.59 44.0496C143.294 44.3461 142.927 44.636 142.409 44.8584C141.371 45.4514 140.255 45.7449 139.144 45.7449C137.959 45.7449 137.079 45.5328 136.486 45.0139C136.19 44.7174 135.966 44.4202 135.817 44.0496C135.669 43.679 135.584 43.3123 135.584 42.8676C135.584 42.1263 135.893 41.4542 136.486 40.8612C137.079 40.2682 138.476 39.7433 140.699 39.1503C142.254 38.7056 143.818 38.2694 145.3 37.7505Z" fill="black"/>
<path fill-rule="evenodd" clip-rule="evenodd" d="M162.41 12.1733H173.153V26.5536C174.635 24.997 176.116 23.8851 177.524 23.2921C179.006 22.625 180.784 22.2543 182.71 22.2543C185.673 22.2543 187.97 23.1438 189.674 24.997C191.378 26.7018 192.193 29.4445 192.193 33.1507V51.0889H181.376V35.5968C181.376 33.8178 181.006 32.6318 180.339 31.8906C179.672 31.0752 178.783 30.7787 177.598 30.7787C176.264 30.7787 175.227 31.2234 174.412 32.2612C173.597 33.2248 173.153 35.0038 173.153 37.5982V51.0889H162.41V12.1733Z" fill="black"/>
<path fill-rule="evenodd" clip-rule="evenodd" d="M198.712 22.9213H208.714V27.517C210.195 25.6639 211.751 24.2555 213.307 23.4402C214.863 22.6989 216.715 22.2542 218.938 22.2542C221.975 22.2542 224.272 23.1437 225.976 24.9968C227.68 26.7017 228.495 29.4443 228.495 33.1505V51.0887H217.604V35.5966C217.604 33.8177 217.308 32.6316 216.641 31.8904C215.974 31.075 215.085 30.7785 213.9 30.7785C212.566 30.7785 211.529 31.2233 210.714 32.261C209.899 33.2246 209.529 35.0037 209.529 37.598V51.0887H198.712V22.9213Z" fill="black"/>
<path fill-rule="evenodd" clip-rule="evenodd" d="M275.02 44.7142H261.389L259.462 51.0889H247.164L261.833 12.1733H274.946L289.615 51.0889H276.947L275.02 44.7142ZM272.576 36.2639L268.205 22.2543L263.982 36.2639H272.576Z" fill="black"/>
<path fill-rule="evenodd" clip-rule="evenodd" d="M293.097 12.1733H303.914V19.5117H293.097V12.1733ZM293.097 22.9214H303.914V51.163H293.097V22.9214Z" fill="black"/>
<path fill-rule="evenodd" clip-rule="evenodd" d="M310.952 22.9213H321.102V27.517C322.065 25.5156 323.028 24.1814 324.065 23.366C325.102 22.6248 326.436 22.2542 327.918 22.2542C329.547 22.2542 331.251 22.773 333.178 23.7367L329.844 31.4456C328.51 30.9268 327.547 30.6303 326.806 30.6303C325.399 30.6303 324.287 31.2233 323.472 32.4093C322.361 34.04 321.768 37.1533 321.768 41.6749V51.0887H310.952V22.9213Z" fill="black"/>
<path d="M31.9453 -0.130859C49.6518 -0.130859 64.0244 14.249 64.0244 31.9648C64.0244 49.6806 49.6517 64.0605 31.9453 64.0605C14.2391 64.0603 -0.132753 49.6805 -0.132812 31.9648C-0.132812 14.2491 14.2391 -0.130616 31.9453 -0.130859ZM18.166 26.4053L8.3125 24.626L1.64453 28.332L50.3184 55.7588V44.417L38.9092 42.3418L50.3184 35.8936V24.9971L33.0566 34.7812L28.4639 32.1123L50.3184 19.6602V8.1709L18.166 26.4053Z" fill="black"/>
</g>
<defs>
<clipPath id="clip0_2018_19">
<rect width="333" height="64" fill="white"/>
</clipPath>
</defs>
</svg>
