<svg width="333" height="64" viewBox="0 0 333 64" fill="none" xmlns="http://www.w3.org/2000/svg">
<g clip-path="url(#clip0_2003_1867)">
<path fill-rule="evenodd" clip-rule="evenodd" d="M81.5089 12.1736H93.5108V25.8126H106.698V12.1736H118.774V51.0891H106.698V35.3747H93.5108V51.0891H81.5089V12.1736Z" fill="#2B408F"/>
<path fill-rule="evenodd" clip-rule="evenodd" d="M140.186 22.2598C138.185 22.2598 136.336 22.3988 134.558 22.6953C132.78 22.9918 131.445 23.4398 130.408 24.0328C129.074 24.7741 128.04 25.6702 127.299 26.708C126.558 27.7457 125.959 29.1439 125.589 30.9229L135.895 32.0428C136.34 30.8568 136.923 29.9679 137.59 29.5231C138.479 29.0042 139.807 28.6988 141.585 28.6988C142.918 28.6988 143.957 28.9301 144.476 29.5231C144.995 30.042 145.3 30.9263 145.3 32.2605C143.966 32.7794 142.704 33.2274 141.445 33.5981C140.259 33.8946 137.669 34.478 133.595 35.2934C130.187 35.9605 127.89 37.0112 126.63 38.4196C125.371 39.7538 124.781 41.527 124.781 43.6766C124.781 43.8248 124.781 43.9757 124.781 44.0498C124.855 46.1995 125.731 47.9762 127.361 49.3846C129.065 51.0154 131.66 51.7487 134.994 51.7487C137.513 51.7487 139.74 51.382 141.74 50.5667C143.074 49.9737 144.483 49.008 145.891 47.6738C146.039 48.4891 146.19 49.0917 146.264 49.4624C146.412 49.9071 146.702 50.4284 147.072 51.0955H157.223C156.704 49.9836 156.341 49.006 156.119 48.2648C155.971 47.5235 155.886 46.4884 155.886 45.1541V44.0498V32.6338C155.886 31.2995 155.596 29.8894 155.078 28.4811C154.559 26.9986 153.822 25.8903 152.933 25.0749C151.599 23.963 149.958 23.1473 147.958 22.8508C146.032 22.4801 143.445 22.2598 140.186 22.2598ZM145.3 37.7508V39.4461C145.3 40.7803 145.076 41.9006 144.631 42.79C144.409 43.2348 144.034 43.6792 143.59 44.0498C143.294 44.3464 142.927 44.6362 142.409 44.8586C141.371 45.4516 140.255 45.7452 139.144 45.7452C137.959 45.7452 137.079 45.533 136.486 45.0141C136.19 44.7177 135.966 44.4205 135.817 44.0498C135.669 43.6792 135.584 43.3126 135.584 42.8678C135.584 42.1266 135.893 41.4544 136.486 40.8614C137.079 40.2684 138.476 39.7436 140.699 39.1506C142.254 38.7058 143.818 38.2697 145.3 37.7508Z" fill="#2B408F"/>
<path fill-rule="evenodd" clip-rule="evenodd" d="M162.41 12.1736H173.153V26.5538C174.635 24.9972 176.116 23.8853 177.524 23.2923C179.006 22.6252 180.784 22.2546 182.71 22.2546C185.673 22.2546 187.97 23.1441 189.674 24.9972C191.378 26.7021 192.193 29.4447 192.193 33.151V51.0891H181.376V35.5971C181.376 33.8181 181.006 32.632 180.339 31.8908C179.672 31.0754 178.783 30.7789 177.598 30.7789C176.264 30.7789 175.227 31.2237 174.412 32.2614C173.597 33.2251 173.153 35.0041 173.153 37.5984V51.0891H162.41V12.1736Z" fill="#2B408F"/>
<path fill-rule="evenodd" clip-rule="evenodd" d="M198.712 22.9215H208.714V27.5173C210.196 25.6642 211.751 24.2558 213.307 23.4404C214.863 22.6991 216.715 22.2544 218.938 22.2544C221.975 22.2544 224.272 23.1439 225.976 24.997C227.68 26.7019 228.495 29.4445 228.495 33.1508V51.089H217.604V35.5969C217.604 33.8179 217.308 32.6319 216.641 31.8906C215.974 31.0752 215.085 30.7788 213.9 30.7788C212.566 30.7788 211.529 31.2235 210.714 32.2613C209.899 33.2249 209.529 35.0039 209.529 37.5983V51.089H198.712V22.9215Z" fill="#2B408F"/>
<path fill-rule="evenodd" clip-rule="evenodd" d="M275.02 44.7144H261.389L259.462 51.0891H247.164L261.833 12.1736H274.946L289.615 51.0891H276.947L275.02 44.7144ZM272.576 36.2642L268.205 22.2546L263.982 36.2642H272.576Z" fill="#2B408F"/>
<path fill-rule="evenodd" clip-rule="evenodd" d="M293.097 12.1736H303.914V19.512H293.097V12.1736ZM293.097 22.9217H303.914V51.1633H293.097V22.9217Z" fill="#2B408F"/>
<path fill-rule="evenodd" clip-rule="evenodd" d="M310.952 22.9215H321.102V27.5173C322.065 25.5159 323.028 24.1816 324.065 23.3663C325.102 22.625 326.436 22.2544 327.918 22.2544C329.548 22.2544 331.251 22.7733 333.178 23.7369L329.844 31.4459C328.51 30.927 327.547 30.6305 326.806 30.6305C325.399 30.6305 324.287 31.2235 323.473 32.4095C322.361 34.0402 321.769 37.1535 321.769 41.6751V51.089H310.952V22.9215Z" fill="#2B408F"/>
<path fill-rule="evenodd" clip-rule="evenodd" d="M-0.133301 31.9647C-0.133301 14.2489 14.2393 -0.131348 31.9458 -0.131348C49.6522 -0.131348 64.0248 14.2489 64.0248 31.9647C64.0248 49.6806 49.6522 64.0608 31.9458 64.0608C14.2393 64.0608 -0.133301 49.6806 -0.133301 31.9647Z" fill="#2B408F"/>
<path fill-rule="evenodd" clip-rule="evenodd" d="M18.1656 26.4054L50.3188 8.17065V19.66L28.4635 32.113L33.0568 34.7815L50.3188 24.997V35.8933L38.9096 42.3422L50.3188 44.4177V55.7588L1.64453 28.3326L8.31223 24.6264L18.1656 26.4054Z" fill="#FFFEFF"/>
</g>
<defs>
<clipPath id="clip0_2003_1867">
<rect width="333" height="64" fill="white"/>
</clipPath>
</defs>
</svg>
