<svg width="95" height="64" viewBox="0 0 95 64" fill="none" xmlns="http://www.w3.org/2000/svg">
<g clip-path="url(#clip0_2004_3643)">
<path d="M93.2734 0C94.2427 8.90689e-05 95 0.787666 95 1.72656V62.2432C95 63.1821 94.2427 63.9696 93.2734 63.9697H1.72656C0.787538 63.9696 0 63.2123 0 62.2432V1.72656C0 0.787666 0.787538 8.90633e-05 1.72656 0H93.2734ZM3.12012 32.3789C2.15075 32.3789 1.39355 33.1665 1.39355 34.1055V60.8799C1.39355 61.8491 2.18104 62.6064 3.12012 62.6064H29.8994C30.8688 62.6064 31.626 61.8188 31.626 60.8799V34.1055C31.626 33.1665 30.8385 32.3789 29.8691 32.3789H3.12012ZM34.1104 32.3789C33.141 32.3789 32.3838 33.1665 32.3838 34.1055V60.8799C32.3838 61.8491 33.1713 62.6064 34.1104 62.6064H60.8896C61.859 62.6064 62.6162 61.8188 62.6162 60.8799V34.1055C62.6162 33.1665 61.859 32.3789 60.8896 32.3789H34.1104ZM65.1309 32.3789C64.1615 32.3789 63.4043 33.1665 63.4043 34.1055V60.8799C63.4043 61.8491 64.1918 62.6064 65.1309 62.6064H91.9102C92.8795 62.6064 93.6367 61.8188 93.6367 60.8799V34.1055C93.6367 33.1666 92.8492 32.379 91.9102 32.3789H65.1309ZM3.12012 1.39355C2.15075 1.39358 1.39355 2.18118 1.39355 3.12012V29.8955C1.39372 30.8646 2.18113 31.6221 3.12012 31.6221H29.8994C30.8687 31.6221 31.6258 30.8343 31.626 29.8955V3.12012C31.626 2.15088 30.8385 1.39355 29.8691 1.39355H3.12012ZM34.1104 1.39355C33.141 1.39357 32.3838 2.18118 32.3838 3.12012V29.8945C32.3838 30.8638 33.1713 31.6211 34.1104 31.6211H60.8896C61.859 31.6211 62.6162 30.8335 62.6162 29.8945V3.12012C62.6162 2.15088 61.859 1.39355 60.8896 1.39355H34.1104ZM65.1309 1.39355C64.1615 1.39355 63.4043 2.18117 63.4043 3.12012V29.8945C63.4043 30.8638 64.1918 31.6211 65.1309 31.6211H91.9102C92.8795 31.621 93.6367 30.8334 93.6367 29.8945V3.12012C93.6367 2.15094 92.8492 1.39364 91.9102 1.39355H65.1309Z" fill="black"/>
<path fill-rule="evenodd" clip-rule="evenodd" d="M51.4381 31.6215C51.4381 25.0489 51.4381 18.4762 51.4381 11.8733C48.6208 11.8733 45.7732 11.8733 42.9559 11.8733C42.9559 18.4459 42.9559 25.0186 42.9559 31.6215H51.4381Z" fill="black"/>
<path fill-rule="evenodd" clip-rule="evenodd" d="M42.9559 32.3787C42.9559 38.5273 42.9559 44.6456 42.9559 50.7942C45.7732 50.7942 48.6208 50.7942 51.4381 50.7942C51.4381 44.6456 51.4381 38.5273 51.4381 32.3787H42.9559Z" fill="black"/>
<path fill-rule="evenodd" clip-rule="evenodd" d="M14.0257 31.6215C14.0257 30.9552 14.0257 30.2888 14.0257 29.5922H18.3577C18.7818 29.5922 19.1756 30.0162 19.1756 30.4403C19.1756 30.4705 19.1756 30.41 19.1756 30.4403C19.1756 30.622 19.1756 31.046 19.1756 31.5912H27.6577C27.6577 30.2585 27.688 29.0773 27.6577 28.108C27.6577 28.0777 27.6577 28.0777 27.6577 28.0474C27.6577 24.8368 25.0222 22.2017 21.8111 22.1714C21.7808 22.1714 21.8111 22.1714 21.7808 22.1714C18.9938 22.1714 16.8127 22.1714 14.0257 22.1714C14.0257 18.7488 14.0257 15.2959 14.0257 11.8733C11.2084 11.8733 8.36086 11.8733 5.54358 11.8733C5.54358 18.4459 5.54358 25.0186 5.54358 31.6215H14.0257Z" fill="black"/>
<path fill-rule="evenodd" clip-rule="evenodd" d="M5.54358 32.3787C5.54358 38.5273 5.54358 44.6456 5.54358 50.7942C8.36086 50.7942 11.2084 50.7942 14.0257 50.7942C14.0257 44.6456 14.0257 38.5273 14.0257 32.3787H5.54358Z" fill="black"/>
<path fill-rule="evenodd" clip-rule="evenodd" d="M19.1757 32.3787C19.1757 36.8311 19.1757 47.2504 19.1757 50.7942C21.9929 50.7942 24.8405 50.7942 27.6578 50.7942C27.6578 44.9788 27.6578 38.4061 27.6578 32.5907C27.6578 32.4998 27.6578 32.4392 27.6578 32.3787H19.1757Z" fill="black"/>
<path fill-rule="evenodd" clip-rule="evenodd" d="M86.2451 31.6215L90.9708 22.1411H80.8529L78.5203 28.1686L76.1877 22.1411H66.0697L70.7955 31.6215H86.2451Z" fill="black"/>
<path fill-rule="evenodd" clip-rule="evenodd" d="M85.8514 32.3787H71.1894L73.1282 36.2859L65.7063 50.8245H75.7031L78.5204 43.7672L81.3074 50.8245H91.3345L83.9126 36.2859L85.8514 32.3787Z" fill="black"/>
</g>
<defs>
<clipPath id="clip0_2004_3643">
<rect width="95" height="64" fill="white"/>
</clipPath>
</defs>
</svg>
