<svg width="248" height="64" viewBox="0 0 248 64" fill="none" xmlns="http://www.w3.org/2000/svg">
<g clip-path="url(#clip0_2024_14)">
<path fill-rule="evenodd" clip-rule="evenodd" d="M23.8322 25.3656C27.6358 28.0505 30.5152 31.9563 31.904 36.5113C34.0234 31.8805 35.6054 26.9885 35.6054 22.7006C35.6054 21.244 35.3914 19.8376 34.9941 18.5107C30.6283 19.689 26.7732 22.108 23.8322 25.3656Z" fill="#FABF37"/>
<path fill-rule="evenodd" clip-rule="evenodd" d="M23.8322 25.3655C26.7627 22.1537 30.6682 19.6784 34.9933 18.511C34.7296 17.6245 34.3855 16.7649 33.969 15.9777L33.9672 15.9775L33.9688 15.9806C33.8388 16.045 33.7096 16.1108 33.5809 16.1778C29.5043 18.2148 26.1007 21.4368 23.8322 25.3655Z" fill="#DA7F0A"/>
<path d="M20.2723 21.4009C20.3194 21.4009 20.366 21.4101 20.4095 21.4281C20.453 21.4461 20.4925 21.4724 20.5258 21.5056C20.5591 21.5389 20.5855 21.5783 20.6036 21.6217C20.6216 21.6652 20.6309 21.7117 20.6309 21.7587C20.6309 21.8057 20.6216 21.8522 20.6036 21.8957C20.5856 21.9391 20.5592 21.9785 20.5259 22.0118C20.4926 22.045 20.4531 22.0714 20.4096 22.0894C20.3661 22.1074 20.3195 22.1167 20.2724 22.1167C20.1773 22.1167 20.0861 22.079 20.0189 22.0119C19.9516 21.9448 19.9138 21.8538 19.9138 21.7589C19.9138 21.6639 19.9516 21.5729 20.0188 21.5058C20.086 21.4386 20.1772 21.4009 20.2723 21.4009Z" fill="#A7A5A6"/>
<path fill-rule="evenodd" clip-rule="evenodd" d="M15.1906 9.40086C16.9965 8.5934 18.9732 8.13731 21.0782 8.13731C23.2289 8.13731 25.2703 8.60632 27.1068 9.44725C25.5687 8.21638 23.7534 7.31678 21.7681 6.85813C20.4076 6.56368 19.0194 6.41558 17.6272 6.41638C17.5811 6.41638 17.5347 6.41559 17.4884 6.41447C11.7826 6.37446 6.59095 3.88259 3.05688 -0.0644531C5.24561 4.4506 9.77127 7.82963 14.6357 9.25355C14.7946 9.29994 14.9963 9.35367 15.1906 9.40086Z" fill="#3AB6D7"/>
<path fill-rule="evenodd" clip-rule="evenodd" d="M-0.184082 9.15078C2.75908 8.8439 5.70192 9.01416 8.48506 9.82672C7.88314 9.2383 7.32067 8.60525 6.79892 7.94335C4.35387 7.86667 2.00129 8.29439 -0.184082 9.15078Z" fill="#78CB19"/>
<path fill-rule="evenodd" clip-rule="evenodd" d="M9.66186 13.7644C5.44778 13.3157 2.45032 15.6904 2.40161 15.7398C3.28716 15.1482 4.27253 14.8644 5.41728 14.8644C6.48809 14.8644 7.53606 15.2197 8.37098 15.7428C8.75634 15.0573 9.18435 14.4056 9.66186 13.7644Z" fill="#EE980D"/>
<path fill-rule="evenodd" clip-rule="evenodd" d="M28.1511 9.97874C26.0558 8.80382 23.7139 8.12598 21.1426 8.12598C13.1193 8.12598 6.61536 14.6459 6.61536 22.6885C6.61536 35.6838 21.1426 54.2299 21.1426 54.2299C21.1426 54.2299 27.0546 46.682 31.3358 37.8425C30.4978 33.6371 28.4234 29.8153 25.52 26.8862C25.5184 26.8877 25.5168 26.8892 25.5151 26.8906C24.3695 28.0247 22.7926 28.7255 21.0515 28.7255C17.551 28.7255 14.7131 25.8933 14.7131 22.3995C14.7131 19.1075 17.2327 16.4036 20.4522 16.1022C22.5834 13.609 25.2041 11.5182 28.1511 9.97874Z" fill="#D13926"/>
<path d="M21.033 20.4937C19.9833 20.4937 19.1322 21.343 19.1322 22.3912C19.1322 23.4391 19.9833 24.2886 21.033 24.2886C22.0829 24.2886 22.9338 23.4391 22.9338 22.3912C22.9338 21.343 22.0829 20.4937 21.033 20.4937ZM20.2725 22.1165C20.1774 22.1165 20.0862 22.0788 20.019 22.0117C19.9517 21.9446 19.9139 21.8536 19.9139 21.7586C19.9139 21.6637 19.9517 21.5727 20.019 21.5056C20.0862 21.4385 20.1774 21.4007 20.2725 21.4007C20.3676 21.4007 20.4588 21.4385 20.526 21.5056C20.5932 21.5727 20.631 21.6637 20.631 21.7586C20.631 21.8536 20.5932 21.9446 20.526 22.0117C20.4588 22.0788 20.3676 22.1165 20.2725 22.1165Z" fill="#231F20"/>
<path d="M8.79244 13.0098C6.47435 13.1899 4.15387 14.1998 2.40161 15.7398C2.6038 15.5724 5.56229 13.3278 9.66186 13.7645C9.38044 13.5034 9.09047 13.2517 8.79244 13.0098Z" fill="#F6C229"/>
<path fill-rule="evenodd" clip-rule="evenodd" d="M8.13302 12.501C5.97368 13.0334 3.94019 14.2329 2.40161 15.7399C4.14796 14.204 6.48042 13.1936 8.79244 13.0097C8.57662 12.835 8.35676 12.6654 8.13302 12.501Z" fill="#F3B623"/>
<path fill-rule="evenodd" clip-rule="evenodd" d="M9.66176 13.7639C10.1324 13.1866 10.6548 12.5828 11.2139 12.0575C11.2139 12.0651 11.2137 12.0717 11.2139 12.0575C9.15007 10.7882 6.81409 9.85097 4.28472 9.3987C2.85602 9.14315 -0.116368 9.12402 -0.184082 9.15048C0.0960367 9.18699 0.398833 9.24151 0.67975 9.29173C4.15712 9.91362 7.2512 11.5837 9.66176 13.7639Z" fill="#4CAE09"/>
<path d="M8.48506 9.82669C8.49065 9.82828 8.47963 9.82509 8.48506 9.82669C5.72556 9.02083 2.73401 8.85424 -0.184082 9.15075C0.294707 9.13465 2.97484 9.16462 4.28472 9.39881C6.81409 9.85108 9.15007 10.7885 11.2139 12.0576C10.2388 11.3975 9.3255 10.6509 8.48506 9.82669Z" fill="#B6DD57"/>
<path fill-rule="evenodd" clip-rule="evenodd" d="M11.2139 12.0577C11.2263 12.0461 11.2003 12.0695 11.2139 12.0577C12.0443 11.2831 13 10.5732 13.994 10.0089C14.0029 10.0121 13.9855 10.0057 13.994 10.0089C9.08518 8.34661 5.10411 4.67234 3.05688 -0.0649414C4.11268 4.95674 7.11892 9.28017 11.2139 12.0577Z" fill="#209BC7"/>
<path d="M15.1907 9.40086C15.0047 9.35576 14.8197 9.30664 14.6359 9.25355C9.77151 7.82963 5.24586 4.4506 3.05713 -0.0644531C5.1042 4.67251 9.08559 8.34694 13.9941 10.0095C14.3832 9.78815 14.7826 9.58504 15.1907 9.40086Z" fill="#4FCAE3"/>
<path fill-rule="evenodd" clip-rule="evenodd" d="M31.9042 36.5112C30.7427 32.702 28.5385 29.3476 25.6236 26.7808C25.5878 26.8179 25.5517 26.8544 25.5151 26.8906L25.5153 26.8904L25.5201 26.886C28.4235 29.8151 30.4979 33.6369 31.3358 37.8423C31.614 37.2675 31.9649 36.3782 31.9042 36.5112Z" fill="#CA3322"/>
<path fill-rule="evenodd" clip-rule="evenodd" d="M23.8324 25.3655C23.1045 26.0695 22.1185 26.5025 21.033 26.5025C18.7927 26.5025 16.9765 24.6617 16.9765 22.3909C16.9765 21.7741 17.1115 21.1894 17.3517 20.6641C18.2104 19.0329 19.2544 17.5038 20.4529 16.1016C17.2332 16.4029 14.7134 19.1071 14.7134 22.3992C14.7134 25.893 17.5513 28.7253 21.0518 28.7253C22.7932 28.7253 24.3703 28.0243 25.5158 26.8899C25.5521 26.854 25.5879 26.8177 25.6233 26.7812V26.7805C25.0521 26.2772 24.4543 25.8049 23.8324 25.3655Z" fill="#A92F1E"/>
<path fill-rule="evenodd" clip-rule="evenodd" d="M28.1512 9.97852C23.5468 12.3838 19.7371 16.1325 17.3516 20.6642C17.1037 21.2062 16.9758 21.7952 16.9764 22.391C16.9764 24.6617 18.7926 26.5026 21.0329 26.5026C22.1201 26.5026 23.1041 26.0715 23.8323 25.3656C26.1011 21.4291 29.4987 18.2177 33.5811 16.1777C33.7098 16.1109 33.839 16.045 33.969 15.9805C32.6565 13.457 30.6345 11.371 28.1512 9.97852ZM21.0329 24.2884C19.9832 24.2884 19.1321 23.4389 19.1321 22.391C19.1321 21.343 19.9832 20.4934 21.0329 20.4934C22.0828 20.4934 22.9337 21.343 22.9337 22.391C22.9337 23.4389 22.0828 24.2884 21.0329 24.2884Z" fill="#ECECEC"/>
<path d="M247.587 38.7064C246.291 37.6387 244.411 37.2181 242.498 37.2181C239.322 37.2181 236.114 38.771 235.66 42.4269C235.303 45.3065 237.702 46.3418 239.906 47.3447C241.299 47.9918 242.531 48.5418 242.401 49.6741C242.239 50.9035 241.137 51.1946 239.776 51.1946C237.961 51.1946 235.789 50.4181 235.012 50.127L233.877 53.4917C234.817 54.1064 237.151 54.6242 239.257 54.6242C243.892 54.6242 246.258 52.6506 246.712 49.1887C247.036 46.3093 244.67 45.4357 242.758 44.6593C241.234 44.0446 239.776 43.3975 239.906 42.2651C240.035 41.1975 240.975 40.8415 242.142 40.8415C243.925 40.8415 246.193 41.6828 246.55 42.1681L247.587 38.7064ZM229.242 42.2653C228.983 44.4007 226.714 45.4683 224.77 45.4683C224.348 45.4683 223.83 45.4036 223.376 45.2418C223.83 42.4918 225.321 40.68 227.784 40.68C228.756 40.68 229.34 41.4889 229.242 42.2653ZM228.465 37.3801C222.177 37.3801 219.324 41.8126 218.741 46.4067C218.223 50.7744 220.005 54.4951 225.612 54.4951C228.853 54.4951 231.187 53.7833 231.868 53.5245L231.803 50.2568C230.863 50.6126 229.307 50.9686 227.751 50.9686C225.321 50.9686 223.116 50.1921 223.343 47.7656C223.992 47.9597 224.77 48.0567 225.547 48.0567C228.756 48.0567 233.067 46.6007 233.618 42.2007C234.007 38.933 231.771 37.3801 228.465 37.3801ZM208.11 48.8655C207.754 51.648 207.397 54.6245 212.356 54.6245C212.907 54.6245 214.528 54.5598 215.986 53.9451L215.921 50.7421C215.014 50.9686 214.106 51.0332 213.685 51.0332C212.615 51.0332 212.421 50.4832 212.551 49.2861L213.62 40.7446H217.963L218.579 37.6063H214.009L214.527 33.4651L210.055 33.8534L209.569 37.6388H206.651L206.295 40.7448H209.115L208.11 48.8655ZM198.29 52.9098C198.646 54.0745 199.781 54.5922 201.239 54.5922C202.309 54.5922 203.508 54.3011 204.675 53.7833L204.837 50.8391C204.513 51.0332 204.091 51.1626 203.67 51.1626C203.119 51.1626 202.665 50.9037 202.73 50.2566L204.189 38.5768C202.114 37.6387 200.17 37.2827 198.355 37.2827C191.808 37.2827 189.247 41.7151 188.664 46.1476C188.113 50.5477 189.377 54.5595 194.303 54.5595C195.956 54.5598 197.415 53.8156 198.29 52.9098ZM198.322 50.451C197.479 51.001 196.539 51.1628 195.924 51.1628C193.525 51.1628 192.845 48.8655 193.136 46.439C193.493 43.6567 194.53 40.7124 197.642 40.7124C198.257 40.7124 198.744 40.7448 199.424 41.133L198.322 50.451ZM182.376 41.8124C183.154 41.2948 184.904 41.0359 186.298 41.0359C186.719 41.0359 187.497 41.0682 187.983 41.133L188.891 37.4446C188.372 37.3476 187.854 37.3152 187.4 37.3152C185.617 37.3152 183.737 37.9946 182.311 39.1594V37.6063H178.454L176.445 54.2038H180.853L182.376 41.8124ZM171.097 35.0505H175.602L176.186 30.2622H171.68L171.097 35.0505ZM175.278 37.6065H170.773L168.764 54.204H173.269L175.278 37.6065ZM157.323 43.0742L158.165 36.0536C158.814 35.9241 159.592 35.7947 160.434 35.7947C162.347 35.7947 164.324 36.5065 163.902 39.7419C163.546 42.6538 161.633 43.2684 159.494 43.2684C158.749 43.2684 158.003 43.236 157.323 43.0742ZM151.294 54.2038H155.962L156.934 46.2125C158.068 46.4714 159.138 46.6008 160.208 46.6008C164.356 46.6008 167.759 44.5303 168.375 39.6124C169.121 33.53 165.102 32.3653 160.856 32.3653C158.328 32.3653 155.702 32.624 153.887 33.0123L151.294 54.2038ZM139.95 54.4951C140.404 54.4951 142.316 54.3656 143.516 53.4922L143.451 54.1393C142.997 57.6981 141.506 58.2805 139.659 58.2805C138.297 58.2805 135.867 57.9245 133.792 57.2776L132.787 60.7393C134.797 61.5806 137.26 62.0011 139.043 62.0011C143.03 62.0011 147.016 60.2864 147.761 54.2362L149.803 37.6063H145.363L143.775 50.7419C142.803 51.0979 141.992 51.2272 141.279 51.2272C138.395 51.2272 138.071 48.8654 138.524 45.2418C138.881 42.1682 140.048 38.8034 140.469 37.6063H136.256C135.478 39.6446 134.667 42.5888 134.311 45.436C133.727 50.1273 133.792 54.4951 139.95 54.4951ZM125.625 52.9098C125.981 54.0745 127.116 54.5922 128.574 54.5922C129.644 54.5922 130.843 54.3011 132.01 53.7833L132.172 50.8391C131.848 51.0332 131.426 51.1626 131.005 51.1626C130.454 51.1626 130 50.9037 130.065 50.2566L131.524 38.5768C129.449 37.6387 127.505 37.2827 125.69 37.2827C119.142 37.2827 116.582 41.7151 115.999 46.1476C115.448 50.5477 116.712 54.5595 121.638 54.5595C123.291 54.5598 124.75 53.8156 125.625 52.9098ZM125.657 50.451C124.814 51.001 123.874 51.1628 123.259 51.1628C120.86 51.1628 120.18 48.8655 120.471 46.439C120.828 43.6567 121.865 40.7124 124.977 40.7124C125.592 40.7124 126.079 40.7448 126.759 41.133L125.657 50.451ZM108.317 50.8715C107.539 51.098 106.761 51.195 106.145 51.195C103.747 51.195 102.483 49.6744 102.904 46.2449C103.261 43.1713 104.816 40.7448 107.345 40.7448C107.993 40.7448 108.738 40.7771 109.548 40.9713L108.317 50.8715ZM115.123 31.524H110.715L109.938 37.9624C108.965 37.5095 107.863 37.3801 106.988 37.3801C101.219 37.3801 98.9501 41.9095 98.4314 46.2127C97.5886 52.9098 101.089 54.56 105.108 54.56C107.831 54.56 110.553 54.1394 112.401 53.6218L115.123 31.524ZM92.695 35.0505H97.2003L97.7836 30.2622H93.2784L92.695 35.0505ZM96.8761 37.6065H92.3708L90.3615 54.204H94.8665L96.8761 37.6065ZM88.2874 50.7421C87.3798 50.9686 86.6345 50.9686 86.2454 50.9686C85.2407 50.9686 85.0462 50.451 85.1757 49.2539L87.3474 31.5564H82.8099L80.6707 48.995C80.3467 51.7126 80.1521 54.6245 85.0138 54.6245C85.5324 54.6245 86.8613 54.5274 88.3522 53.9127L88.2874 50.7421ZM71.7901 40.8095C73.6051 40.8095 74.8043 41.6184 74.2858 45.9861C73.7672 50.095 72.3087 51.1628 70.4936 51.1628C68.711 51.1628 67.4794 50.095 67.998 45.9861C68.5167 41.6184 69.9751 40.8095 71.7901 40.8095ZM69.9102 54.6245C74.61 54.6245 77.8834 52.2951 78.6613 45.9538C79.4392 39.5477 76.8787 37.3154 72.2438 37.3154C67.771 37.3154 64.4326 39.6124 63.6548 45.9861C62.8447 52.3597 65.4699 54.6245 69.9102 54.6245ZM56.8814 41.133H49.0701L50.1398 32.5916H45.5049L42.8472 54.2038H47.4821L48.6164 44.886H56.4276L55.2933 54.2038H59.9282L62.5859 32.5916H57.9511L56.8814 41.133Z" fill="#6A3460"/>
</g>
<defs>
<clipPath id="clip0_2024_14">
<rect width="247.415" height="64" fill="white"/>
</clipPath>
</defs>
</svg>
