<svg width="185" height="64" viewBox="0 0 185 64" fill="none" xmlns="http://www.w3.org/2000/svg">
  <path d="M134.159 4.68626C135.386 4.68626 137.175 6.46007 137.175 9.54182C137.175 12.3877 133.511 22.3855 131.122 29.7226C128.559 37.5733 126.114 49.6584 124.062 49.6525C122.399 49.6584 120.518 45.5793 120.518 43.8085C120.518 42.4169 123.489 32.9925 125.794 26.2018C128.607 17.8793 132.495 4.68626 134.159 4.68626Z" fill="#FFFFFF"></path>
  <path d="M150.006 27.2804C148.214 33.1274 145.667 40.566 140.644 40.566C139.677 40.566 138.608 39.7568 138.763 38.1741C139.244 33.3036 143.941 27.3133 149.382 27.3133C149.606 27.3133 150.018 27.3103 150.006 27.2804ZM148.438 21.6485C141.543 21.6485 131.76 32.5063 131.76 40.4944C131.76 44.4033 134.52 46.8639 137.861 46.8639C141.928 46.8639 144.153 44.7407 147.115 42.2771C147.115 44.3287 149.227 45.5978 150.663 45.5978C153.372 45.5978 156.167 42.6026 158.962 39.5268C158.361 41.444 158.143 42.5578 158.143 43.7852C158.143 44.9349 160.225 48.0286 161.3 48.0286C161.796 48.0286 163.354 45.2126 165.051 42.8475C167.302 39.6971 170.276 36.5914 172.032 36.5914C172.644 36.5914 172.728 37.2633 172.728 37.8785C172.728 39.3686 172.343 40.5451 172.343 42.7669C172.343 45.2813 173.083 47.3387 175.675 47.3447C179.528 47.3387 184.347 43.3342 184.347 41.3484C184.347 40.6288 184.201 39.927 183.425 39.927C182.502 39.927 180.871 40.8886 179.387 40.8886C178.632 40.8886 178.312 39.7299 178.312 38.4219C178.312 35.1371 179.298 32.7094 179.298 28.9587C179.298 27.0834 178.456 25.9665 176.509 25.9665C174.069 25.9665 169.718 30.0725 167.081 33.0707C167.956 29.9531 169.16 26.3249 169.16 25.0468C169.16 22.8907 166.045 20.1375 165.051 20.1375C164.128 20.1375 161.918 27.594 161.034 30.9445C159.959 32.5839 155.387 38.0606 153.918 38.0606C152.682 38.0606 152.735 37.2185 152.735 36.6631C152.735 35.4596 156.582 27.9553 156.582 25.8142C156.582 24.2106 155.008 20.9139 153.145 20.9139C152.485 20.9139 152.016 21.9889 151.675 22.5503C151.054 21.956 149.97 21.6485 148.438 21.6485Z" fill="#FFFFFF"></path>
  <path d="M103.825 43.0279C101.131 52.3568 97.7123 64 96.2341 64C94.5081 64 92.797 61.19 92.797 59.016C92.797 55.9492 95.7593 49.6035 98.1931 41.5288C101.854 29.4019 105.578 15.8684 107.665 15.8684C109.203 15.8684 110.825 18.8994 110.953 20.3955C111.004 21.0286 111.031 21.9573 110.864 22.5545C112.046 21.6348 113.59 21.1301 115.367 21.1301C117.974 21.1301 121.061 23.7281 121.061 29.2765C121.061 36.6285 114.895 46.4292 108.803 46.4292C106.829 46.4292 104.616 44.9301 103.825 43.0279ZM105.975 36.8226C105.975 38.5247 107.346 39.3967 108.884 39.3967C111.338 39.3967 114.653 34.8875 114.653 31.2504C114.653 28.936 113.632 27.3773 111.655 27.3773C108.095 27.3773 105.975 34.8875 105.975 36.8226Z" fill="#FFFFFF"></path>
  <path d="M76.6116 37.3424C77.2238 38.9938 78.1853 39.4626 79.559 39.4626C83.3186 39.4626 88.2787 36.1718 91.1454 30.4294C94.2123 24.4062 99.5934 2.4457 101.54 2.4457C103.446 2.4457 104.786 5.36023 104.786 7.06535C104.786 9.7798 100.465 22.3875 97.0521 32.245C94.3466 40.0688 92.5549 49.6515 90.5422 49.6515C88.7296 49.6515 87.1977 45.8412 87.1708 44.2167C87.1409 42.9834 87.3679 41.98 87.5501 41.4395C85.7583 43.061 81.7628 46.4563 77.8748 46.4563C74.1241 46.4563 70.9946 44.363 70.2301 38.1696C67.6291 38.089 65.0192 36.9751 65.0192 36.9751C62.7556 43.5836 60.4593 50.207 59.1931 50.207C57.1655 50.207 55.6007 47.2984 55.6007 45.0827C55.6007 43.1864 57.2013 38.513 58.9512 33.6425C57.1894 32.3286 54.8482 29.6769 54.8482 29.6769C54.8213 30.2592 54.8153 30.507 54.7377 31.1192C53.5432 40.6452 47.8545 46.0263 43.2558 46.0263C38.6003 46.0263 35.8201 42.5175 35.6439 38.734C35.4916 35.3238 37.1818 31.2446 38.4092 29.4977C38.4092 29.4977 36.7787 29.7097 33.8881 30.4503C30.5375 40.7885 27.9963 50.4907 26.2135 50.4907C24.2277 50.4847 22.4061 46.9132 22.4061 45.1842C22.4061 43.5328 23.5618 39.6269 26.0941 32.1435C24.9772 32.4421 20.3367 33.8187 18.966 34.2637C15.2751 44.0733 13.0892 50.5534 11.3393 50.5534C9.47886 50.5534 8.13806 46.3607 8.13806 44.5392C8.13806 42.4906 10.7928 36.7362 10.7928 36.7362C5.58784 38.5996 0.824854 40.2092 0.364979 39.8538C-1.12215 38.6773 2.32393 33.1677 3.7364 32.1703C4.32169 31.7582 8.72634 30.2472 13.7879 28.6824C18.312 17.4723 25.025 1.65734 26.5211 1.65734C27.7365 1.65734 29.358 5.63794 29.358 7.80294C29.352 9.65438 25.1624 19.04 21.8656 26.84C22.6689 26.613 26.9153 25.4096 28.3397 25.0005C32.2337 13.7724 37.7283 0 39.2692 0C40.6369 0 41.7149 4.09408 41.7149 6.54575C41.7149 8.1583 38.6182 16.3076 36.0083 23.6298C39.1468 22.8235 41.5775 22.6414 43.6051 22.6414C45.9314 22.6414 46.666 24.7496 46.666 26.0277C46.666 27.7239 45.4058 28.7959 44.1725 29.1065C43.2408 31.1252 41.8493 33.3827 41.8493 36.6407C41.8493 37.7784 42.769 39.1312 43.7963 39.1312C46.5585 39.1312 48.9415 32.4152 49.3237 28.9542C49.4999 27.2939 48.9415 25.9202 48.9415 25.9202C47.9112 25.1647 47.1617 24.5137 47.1617 22.6324C47.1617 20.56 48.7653 18.2337 50.9482 18.2337C52.7847 18.2337 53.9702 20.127 54.8034 22.4801C54.8034 22.4801 57.1535 25.974 60.7997 28.4854C64.1562 18.8549 68.8654 4.74208 70.0778 4.74208C71.8665 4.74208 73.6642 7.35501 73.6642 9.84251C73.6642 11.2072 69.8449 23.2595 66.8527 31.6836C66.8527 31.6836 68.0173 32.018 68.8057 32.1763C69.7075 32.3704 70.4123 32.3973 70.5377 32.3913C72.1413 26.5384 77.4597 19.5925 82.4855 19.5925C86.5228 19.5925 88.6072 21.9187 88.6072 25.8247C88.6072 30.4801 83.8472 35.1715 76.6116 37.3424ZM83.5366 26.4697C83.5366 25.5499 83.1992 25.0691 82.16 25.0691C79.995 25.0691 77.5284 28.4047 76.5638 31.6806C80.9177 30.2532 83.5366 27.6164 83.5366 26.4697Z" fill="#FFFFFF"></path>
</svg>
