<svg width="64" height="64" viewBox="0 0 64 64" fill="none" xmlns="http://www.w3.org/2000/svg">
<g clip-path="url(#clip0_1_126)">
<path d="M53.3719 36.8527C51.0307 37.0264 50.2548 37.0473 48.9857 37.2331C47.9931 37.3788 46.6031 37.6393 44.9489 38.1429C40.9034 50.6205 37.8376 62.3235 35.6917 62.3241C33.2871 62.3226 31.092 58.017 31.092 55.9228C31.092 53.9294 32.4918 49.2187 35.5456 40.1839C34.1946 40.551 28.602 42.2051 26.9455 42.7475C22.4882 54.5865 19.8551 62.4005 17.7384 62.4013C15.4933 62.4013 13.8729 57.3472 13.8732 55.1466C13.8729 52.6746 17.0767 45.7259 17.0767 45.7259C10.7915 47.9795 5.04835 49.9268 4.49293 49.4892C2.70006 48.0689 6.85855 41.4248 8.56159 40.224C9.2644 39.7271 14.586 37.9017 20.6931 36.0116C26.1521 22.4813 34.2584 3.39821 36.0602 3.39821C37.5249 3.39821 39.4822 8.19682 39.4822 10.8135C39.4819 13.0485 34.4231 24.3741 30.4449 33.7861C31.41 33.5122 36.5331 32.0616 38.2551 31.5639C42.9543 18.0148 49.5869 1.39698 51.4464 1.39698C53.0953 1.39698 54.4002 6.33702 54.4006 9.29524C54.4006 11.2404 50.655 21.075 47.5073 29.9123C51.2946 28.9387 54.2276 28.7183 56.6751 28.7183C59.4823 28.7183 60.3719 31.2653 60.3719 32.8078C60.3719 33.0888 60.3552 33.6336 60.0837 34.2655C59.3859 35.8898 57.6927 36.4231 57.3573 36.5217C56.4247 36.6076 55.0485 36.7284 53.3719 36.8527Z" fill="#E30613"/>
<path d="M53.3719 36.8527C51.0307 37.0264 50.2548 37.0473 48.9857 37.2331C47.9931 37.3788 46.603 37.6393 44.9489 38.1429C40.9034 50.6205 37.8376 62.3235 35.6917 62.3241C33.2871 62.3226 31.092 58.017 31.092 55.9228C31.092 53.9294 32.4918 49.2187 35.5456 40.1839C34.1946 40.551 28.602 42.2051 26.9455 42.7475C22.4882 54.5865 19.8551 62.4005 17.7384 62.4013C15.4933 62.4013 13.8729 57.3472 13.8732 55.1466C13.8729 52.6746 17.0767 45.7259 17.0767 45.7259C10.7915 47.9795 5.04835 49.9268 4.49293 49.4892C2.70006 48.0689 6.85855 41.4248 8.56159 40.224C9.2644 39.7271 14.586 37.9017 20.6931 36.0116C26.1521 22.4813 34.2584 3.39821 36.0602 3.39821C37.5249 3.39821 39.4822 8.19681 39.4822 10.8135C39.4819 13.0485 34.4231 24.3741 30.4449 33.7861C31.41 33.5122 36.5331 32.0616 38.2551 31.5639C42.9543 18.0148 49.5869 1.39698 51.4465 1.39698C53.0953 1.39698 54.4002 6.33702 54.4006 9.29524C54.4006 11.2404 50.655 21.075 47.5073 29.9123C51.2946 28.9387 54.2276 28.7183 56.6751 28.7183C59.4823 28.7183 60.3719 31.2653 60.3719 32.8078C60.3719 33.0888 60.3552 33.6336 60.0837 34.2655C59.3859 35.8898 57.6927 36.4231 57.3573 36.5217C56.4247 36.6076 55.0485 36.7284 53.3719 36.8527Z" stroke="#E30613" stroke-width="0.0502927" stroke-miterlimit="1"/>
</g>
<defs>
<clipPath id="clip0_1_126">
<rect width="64" height="64" fill="white"/>
</clipPath>
</defs>
</svg>
