<svg width="92" height="64" viewBox="0 0 92 64" fill="none" xmlns="http://www.w3.org/2000/svg">
<path d="M40.4931 53.0719C43.4828 53.0916 44.1432 55.5564 43.3511 57.0315C42.7537 58.1435 41.7349 58.4963 40.5486 58.4417C39.32 58.3862 38.3707 57.7164 38.0443 56.6562C37.7122 55.5762 37.8834 54.579 38.7404 53.7775C39.3209 53.2356 40.0415 53.0625 40.4931 53.0719ZM42.4028 55.7258C42.3906 55.3354 42.3576 54.9459 42.2269 54.5743C41.9832 53.8857 41.4715 53.547 40.7189 53.5611C40.0086 53.5743 39.5147 53.9412 39.3077 54.6373C39.1036 55.325 39.0923 56.0259 39.2682 56.7182C39.4714 57.5179 40.0011 57.9384 40.7631 57.9572C41.4997 57.9751 42.035 57.5461 42.273 56.7427C42.3708 56.4125 42.3896 56.0701 42.4028 55.7258Z" fill="black"/>
<path d="M26.8104 54.4523C26.8104 55.473 26.816 56.3808 26.8076 57.2886C26.8038 57.6743 26.9299 57.9359 27.3523 57.9528C27.531 57.9594 27.6063 58.0234 27.5865 58.2078C27.5649 58.4062 27.4191 58.3564 27.3043 58.3573C26.8339 58.3611 26.3645 58.3602 25.8941 58.3583C25.7728 58.3583 25.6373 58.3856 25.6147 58.1965C25.5902 57.9914 25.7182 57.9641 25.8687 57.95C26.2478 57.9142 26.3513 57.6762 26.3476 57.3319C26.3391 56.3291 26.341 55.3262 26.3438 54.3234C26.3447 53.9396 26.2356 53.6376 25.8076 53.5727C25.6392 53.5473 25.6025 53.4607 25.6156 53.3168C25.6307 53.1578 25.7483 53.1681 25.8584 53.1681C26.2347 53.1672 26.611 53.1785 26.9863 53.1635C27.1989 53.155 27.2845 53.2951 27.3956 53.4268C28.1519 54.3253 28.9102 55.2209 29.6693 56.1174C29.7653 56.2303 29.8669 56.3385 30.0532 56.5473C30.0711 55.568 30.1313 54.7185 30.0052 53.8718C29.9694 53.6329 29.755 53.5642 29.5386 53.5661C29.3749 53.567 29.3184 53.5049 29.3194 53.346C29.3203 53.1522 29.4473 53.1663 29.5753 53.1663C30.0607 53.1672 30.5471 53.1672 31.0325 53.1663C31.1623 53.1663 31.2884 53.1597 31.294 53.3469C31.2987 53.5125 31.2188 53.567 31.0654 53.5614C30.6073 53.5445 30.5358 53.8323 30.5386 54.2077C30.5471 55.4608 30.5452 56.7148 30.5367 57.9679C30.5358 58.1061 30.6393 58.3047 30.4295 58.378C30.2253 58.4495 30.0833 58.3338 29.9516 58.1758C28.9911 57.0196 28.024 55.869 27.0588 54.7176C27.0033 54.6508 26.9402 54.5896 26.8104 54.4523Z" fill="black"/>
<path d="M61.5439 55.3469C61.5439 54.9556 61.543 54.5633 61.5439 54.1719C61.5449 53.8182 61.4536 53.5435 61.0218 53.5623C60.8694 53.5689 60.7866 53.5153 60.7913 53.3488C60.796 53.1616 60.9221 53.1672 61.0519 53.1672C61.7725 53.1681 62.4931 53.1681 63.2138 53.1672C63.3492 53.1672 63.464 53.1757 63.464 53.36C63.464 53.5341 63.3662 53.5651 63.2222 53.5633C62.8064 53.5576 62.7001 53.7984 62.7067 54.1729C62.7217 54.9876 62.6982 55.8022 62.7161 56.616C62.7349 57.4608 63.1225 57.8945 63.8582 57.9453C64.5675 57.9932 65.1244 57.5483 65.2279 56.7674C65.3493 55.8502 65.2712 54.9226 65.2655 53.9998C65.2637 53.7392 65.0934 53.5642 64.8065 53.5679C64.6315 53.5698 64.497 53.5567 64.5233 53.3215C64.5496 53.0797 64.7293 53.1757 64.845 53.1728C65.2994 53.1615 65.7538 53.1681 66.2082 53.1681C66.3352 53.1681 66.4669 53.155 66.4735 53.3441C66.4791 53.5059 66.4048 53.5661 66.2486 53.5642C65.8225 53.5604 65.7378 53.8323 65.7406 54.1888C65.7463 54.9245 65.7416 55.6611 65.7406 56.3977C65.7387 57.6254 65.2091 58.2444 63.9993 58.4326C62.5562 58.6574 61.5496 57.7976 61.5439 56.3338C61.543 56.0045 61.5439 55.6762 61.5439 55.3469Z" fill="black"/>
<path d="M70.1339 53.6026C70.197 53.3909 70.2167 53.1698 70.4895 53.2282C70.7275 53.279 70.6194 53.4803 70.6278 53.6167C70.6438 53.882 70.6391 54.1491 70.6297 54.4154C70.6259 54.5226 70.6993 54.6844 70.4914 54.6985C70.3437 54.7079 70.2195 54.7032 70.164 54.5179C70.1208 54.3712 70.038 54.2329 69.9543 54.1021C69.7802 53.8274 69.5366 53.6383 69.212 53.5696C68.7332 53.469 68.3286 53.628 68.228 53.9798C68.1047 54.4144 68.3785 54.6534 68.7134 54.8331C69.0982 55.0382 69.497 55.2197 69.8837 55.422C70.9844 55.9959 71.2911 56.7776 70.7624 57.644C70.2186 58.5349 69.0398 58.724 68.1348 58.0627C68.0361 57.9902 67.9439 57.9093 67.8291 57.8162C67.7877 57.9056 67.736 57.9705 67.7284 58.041C67.7096 58.2226 67.6137 58.28 67.4434 58.2659C67.2496 58.2499 67.2835 58.105 67.2825 57.9874C67.2788 57.5641 67.2825 57.1417 67.2797 56.7183C67.2788 56.5847 67.2788 56.4634 67.4622 56.4615C67.5977 56.4606 67.688 56.4813 67.7322 56.6459C67.8225 56.978 67.9617 57.2931 68.1997 57.5537C68.5751 57.9658 69.132 58.1069 69.5563 57.8971C70.0634 57.6459 70.1433 57.0514 69.689 56.7164C69.4152 56.5151 69.0991 56.3674 68.7896 56.2207C68.4773 56.0721 68.1753 55.9121 67.91 55.691C67.2524 55.1416 67.1028 54.4737 67.4857 53.8255C67.8695 53.1755 68.7313 52.9045 69.4585 53.1896C69.6965 53.2808 69.8809 53.4502 70.1339 53.6026Z" fill="black"/>
<path d="M57.6963 53.168C58.4329 53.168 59.1705 53.1812 59.9062 53.1614C60.1997 53.1539 60.2947 53.2452 60.2712 53.534C60.2467 53.8303 60.2627 54.1295 60.2665 54.4267C60.2684 54.5735 60.227 54.6666 60.0595 54.6723C59.9062 54.677 59.8591 54.6074 59.8149 54.4615C59.575 53.6788 59.2627 53.5058 58.4574 53.6328C58.2561 53.6647 58.2495 53.771 58.2495 53.9206C58.2504 55.0806 58.2551 56.2405 58.2476 57.4004C58.2457 57.7523 58.4198 57.9216 58.7481 57.9499C58.9221 57.9649 58.9974 58.0261 58.9786 58.2104C58.9579 58.4165 58.8092 58.3572 58.7001 58.3581C58.0105 58.3629 57.321 58.3619 56.6314 58.3591C56.5176 58.3581 56.3736 58.4033 56.3511 58.2057C56.3285 58.0101 56.4291 57.9677 56.5938 57.9564C56.9851 57.931 57.1159 57.7109 57.1102 57.3271C57.0933 56.2142 57.0924 55.1012 57.1121 53.9883C57.1178 53.6845 57.0143 53.6309 56.7387 53.6309C55.8628 53.6318 55.8035 53.6544 55.5373 54.471C55.4893 54.6168 55.4404 54.6779 55.2871 54.6741C55.0839 54.6685 55.13 54.5255 55.1206 54.4089C55.1177 54.3778 55.1206 54.3458 55.1196 54.3148C55.0952 53.1699 55.0952 53.1699 56.2391 53.1699C56.7245 53.168 57.21 53.168 57.6963 53.168Z" fill="black"/>
<path d="M53.6976 58.3584C53.3693 58.3584 53.04 58.3584 52.7117 58.3584C52.6026 58.3584 52.4888 58.3725 52.4859 58.2041C52.4831 58.0649 52.4925 57.9717 52.6741 57.9567C52.8698 57.9407 53.1501 57.9106 53.0325 57.618C52.9196 57.3367 52.9911 56.8767 52.4756 56.887C52.1943 56.8927 51.9121 56.888 51.6298 56.888C51.1519 56.8889 50.9403 57.0978 50.9158 57.5766C50.9027 57.8523 51.0852 57.9172 51.2968 57.951C51.4361 57.9727 51.5301 58.0122 51.5188 58.1834C51.5057 58.3706 51.3787 58.3593 51.2526 58.3593C50.8142 58.3593 50.3758 58.3612 49.9374 58.3584C49.8189 58.3574 49.6768 58.3894 49.6731 58.189C49.6712 58.0649 49.6928 57.9811 49.834 57.9557C50.2338 57.8824 50.3749 57.554 50.5 57.2342C50.993 55.9717 51.4718 54.7026 51.9638 53.4392C52.025 53.2821 52.0231 53.0657 52.3044 53.0667C52.5828 53.0676 52.5856 53.2821 52.6487 53.4392C53.1614 54.728 53.6656 56.0206 54.1689 57.3132C54.2847 57.6114 54.4032 57.9059 54.7729 57.9548C54.9629 57.9802 54.9366 58.1063 54.9309 58.2295C54.9225 58.4073 54.7814 58.3556 54.6845 58.3565C54.3552 58.3621 54.0269 58.3584 53.6976 58.3584ZM51.9516 54.7976C51.8443 55.078 51.7719 55.2624 51.7023 55.4477C51.2855 56.5549 51.2855 56.555 52.4737 56.4891C52.5019 56.4872 52.5292 56.4693 52.5941 56.4449C52.3937 55.9303 52.1924 55.4157 51.9516 54.7976Z" fill="black"/>
<path d="M35.0348 56.8625C35.444 55.8954 35.8222 55.0243 36.1797 54.1447C36.3067 53.8333 36.2465 53.5802 35.8354 53.5661C35.6886 53.5605 35.5541 53.5661 35.5607 53.3507C35.5682 53.1174 35.7338 53.1719 35.8617 53.1701C36.3152 53.1654 36.7696 53.1644 37.223 53.1701C37.35 53.1719 37.5193 53.1146 37.525 53.3488C37.5287 53.5172 37.4488 53.552 37.3011 53.5708C36.9314 53.6179 36.8128 53.9264 36.6887 54.2124C36.1251 55.5125 35.5692 56.8145 35.0066 58.1156C34.9436 58.2624 34.936 58.4505 34.6905 58.458C34.4186 58.4665 34.4064 58.2567 34.3377 58.0958C33.778 56.7929 33.2201 55.489 32.6651 54.1842C32.5268 53.8606 32.3951 53.536 31.9548 53.5624C31.7864 53.5727 31.7977 53.457 31.7911 53.3441C31.7817 53.1908 31.8692 53.1672 31.9952 53.1672C32.7309 53.1691 33.4666 53.171 34.2022 53.1663C34.349 53.1654 34.4403 53.1889 34.4318 53.3686C34.4252 53.5031 34.3782 53.5417 34.2427 53.5689C33.7055 53.6752 33.6811 53.727 33.8974 54.235C34.2587 55.0779 34.6265 55.9189 35.0348 56.8625Z" fill="black"/>
<path d="M46.7966 58.3583C46.139 58.3583 45.4814 58.363 44.8248 58.3545C44.6931 58.3526 44.4993 58.4448 44.4861 58.1701C44.4758 57.9481 44.6235 57.9565 44.757 57.9453C45.1174 57.9152 45.235 57.6781 45.2368 57.3686C45.2444 56.2886 45.2434 55.2086 45.2397 54.1286C45.2387 53.7834 45.0891 53.5538 44.7081 53.5642C44.5492 53.568 44.4871 53.5143 44.4871 53.3506C44.488 53.1578 44.6094 53.1681 44.7373 53.1681C45.4419 53.1681 46.1456 53.1672 46.8502 53.17C46.9688 53.17 47.1061 53.1418 47.1174 53.3393C47.1287 53.5444 47.012 53.5623 46.854 53.5661C46.4711 53.5755 46.3563 53.8003 46.3601 54.1559C46.3704 55.1889 46.3601 56.2218 46.3657 57.2548C46.3686 57.7599 46.4927 57.8756 47.0111 57.8954C48.0177 57.9321 48.3535 57.7157 48.7214 56.7552C48.7722 56.6235 48.8286 56.5896 48.9509 56.5887C49.109 56.5868 49.125 56.6875 49.1231 56.8051C49.1165 57.2585 49.1024 57.712 49.1024 58.1654C49.1024 58.3893 48.9528 58.3601 48.8145 58.3601C48.1428 58.3583 47.4692 58.3583 46.7966 58.3583Z" fill="black"/>
<path d="M24.2712 55.7336C24.2712 56.234 24.2787 56.7355 24.2684 57.2359C24.2599 57.6235 24.3427 57.9283 24.8056 57.9528C24.9711 57.9613 25.0699 58.014 25.0445 58.2068C25.0191 58.4025 24.8761 58.3564 24.7613 58.3564C24.0567 58.3602 23.353 58.3592 22.6484 58.3573C22.5299 58.3573 22.3982 58.3912 22.3831 58.1918C22.3671 57.9876 22.4781 57.9632 22.6334 57.9528C23.0576 57.9246 23.1611 57.6706 23.1545 57.2811C23.1367 56.2641 23.1414 55.2463 23.1517 54.2293C23.1555 53.8267 23.0539 53.5416 22.5844 53.5642C22.4001 53.5736 22.3859 53.4701 22.3859 53.3299C22.3859 53.1653 22.4951 53.1691 22.6089 53.1691C23.3446 53.1691 24.0802 53.1691 24.8159 53.1691C24.9297 53.1691 25.0398 53.1691 25.0445 53.3281C25.0483 53.4692 25.0229 53.5699 24.8432 53.5633C24.3399 53.5463 24.2618 53.8718 24.2684 54.2773C24.2778 54.7627 24.2712 55.2481 24.2712 55.7336Z" fill="black"/>
<path d="M44.2257 44.3828C44.0897 43.7167 44.0067 42.7353 44.7628 42.9014C45.3892 43.0394 45.2509 43.8575 45.2091 44.835C44.9369 44.666 44.6071 44.519 44.2257 44.3828ZM47.6583 44.0762C47.6557 44.0824 47.6358 44.1362 47.6222 44.2168C47.5911 44.2264 47.56 44.2355 47.5294 44.2451C47.5702 44.1899 47.6123 44.1329 47.6583 44.0762ZM44.2111 39.9277C43.5594 40.7433 42.3409 42.618 43.4542 44.1377C42.0172 43.7181 40.0915 43.3129 37.9298 42.4736C38.9197 41.9002 40.8798 40.8181 40.881 41.2314C40.8812 43.4935 43.2885 40.9747 44.2111 39.9277ZM90.6056 0C90.6089 0.0093303 92.2721 4.7185 88.838 7.46191C85.4517 10.1671 75.7222 14.9782 59.4073 19.249C59.2162 19.5456 59.0298 19.8785 58.8683 20.2461C60.7488 19.7663 88.3156 12.6355 91.4152 6.02051C91.4153 6.02405 91.6283 10.8677 87.8595 13.2803C84.1266 15.6698 72.4329 19.1511 58.3751 22.0498C58.3501 22.2685 58.3351 22.4938 58.3351 22.7256C58.3351 22.8136 58.3411 22.9069 58.3507 23.0049C63.0872 21.9672 82.8744 17.5207 88.6486 14.4219C88.6486 14.4219 87.8727 16.6983 84.2267 18.5508C80.4396 20.4736 71.9362 22.3697 58.6915 24.5049C58.7712 24.7676 58.8619 25.0444 58.9591 25.334C65.1755 24.3999 80.782 21.8378 85.7394 18.9424C85.7151 18.9707 83.0274 22.0921 78.9757 23.3389C75.2555 24.4786 70.9 25.6405 59.4005 26.627C59.4756 26.8444 59.5525 27.0661 59.629 27.292C63.429 27.1043 76.7066 26.2123 82.0284 22.7256C82.0284 22.7256 81.8064 23.9256 78.3107 25.791C75.0634 27.5237 70.4256 28.1225 60.1759 28.999C60.2318 29.1879 60.2853 29.3786 60.338 29.5703C65.3748 29.3549 74.1142 28.6811 78.6105 26.5674C78.6105 26.5674 77.2926 28.3941 74.6573 29.3203C71.4376 30.4461 68.5351 30.8764 60.6866 31.0078C60.7276 31.2052 60.7656 31.4032 60.7999 31.6016C65.6465 31.6026 71.5681 31.2688 75.0812 29.8486C75.0671 29.8661 73.6592 31.6075 70.9855 32.3799C68.3421 33.1483 65.9378 33.2909 60.9855 33.1084C61.1665 35.7994 60.47 38.4211 57.6827 40.2725C54.4435 42.4241 51.3452 43.2109 49.0519 43.8154C49.1504 43.0703 49.5913 42.0805 50.8937 40.9844C53.6916 38.6365 51.6769 34.1229 50.6984 32.8438C50.7286 32.846 52.6687 32.9865 53.549 32.1064C54.4295 31.2261 54.7491 32.5957 54.7491 33.3066V34.5068C54.7732 34.4843 58.1252 31.3354 55.8507 29.0605C54.4429 27.6528 53.313 27.974 53.3009 27.9775L52.714 27.3906C52.711 27.3863 51.2622 25.2771 47.8546 25.4658C43.6605 25.4658 41.8598 27.2534 38.7745 29.6016H40.1964C40.1801 29.608 36.7839 30.9547 36.5626 32.2041H38.0372C38.0268 32.2086 36.7563 32.7511 36.1456 34.0957C36.1563 34.0877 37.7464 32.897 38.5265 33.1895C38.5092 33.1956 36.8545 33.7877 36.4132 35.9873C36.4291 35.9661 38.042 33.8292 40.2423 34.0693C40.2214 34.0817 36.6638 36.194 37.4962 39.9141C37.5167 39.8831 39.3159 37.1666 40.4445 36.8682C40.4409 36.9067 40.1676 39.7999 38.7745 41.1865C38.2074 41.7537 37.8702 42.1271 37.6691 42.3701C36.3907 41.8571 35.0344 41.1892 33.6525 40.2725C30.8684 38.4231 30.1708 35.8051 30.3497 33.1172C25.4551 33.2935 23.0647 33.1455 20.4318 32.3857C17.7564 31.6111 16.3408 29.8626 16.3351 29.8555C19.8282 31.2642 25.7031 31.6027 30.5343 31.6064C30.5692 31.4045 30.6078 31.2029 30.6495 31.002C22.8667 30.8724 19.9736 30.4405 16.7657 29.3135C14.1471 28.3952 12.8361 26.5927 12.8136 26.5615C17.2844 28.6631 25.9496 29.3412 30.9991 29.5605C31.0515 29.3704 31.1058 29.1815 31.1613 28.9941C20.9726 28.1257 16.3453 27.5201 13.1066 25.792C9.61554 23.9227 9.38946 22.7291 9.38879 22.7256C14.6737 26.1881 27.8035 27.0919 31.7072 27.2881C31.7847 27.0592 31.8625 26.8344 31.9386 26.6143C20.4973 25.6351 16.1533 24.4692 12.4415 23.332C8.37745 22.0881 5.68506 18.9451 5.67688 18.9355C10.6189 21.8193 26.1164 24.3729 32.382 25.3164C32.4793 25.026 32.57 24.7485 32.6495 24.4854C19.446 22.3557 10.9704 20.4636 7.19739 18.5449C3.57643 16.7053 2.78534 14.4473 2.77454 14.416C8.51471 17.5023 28.1037 21.9103 32.9874 22.9805C32.9956 22.8914 33.0001 22.8063 33.0001 22.7256C33.0001 22.4875 32.9845 22.2564 32.9581 22.0322C18.9376 19.137 7.28221 15.6651 3.55676 13.2803C-0.206398 10.8732 0.0020752 6.02051 0.0020752 6.02051C3.05891 12.5379 29.9119 19.5693 32.4562 20.2227C32.2922 19.8534 32.1034 19.5195 31.9103 19.2227C15.6614 14.9586 5.95235 10.168 2.57922 7.46191C-0.837086 4.72107 0.796586 0.0468831 0.810669 0.00683594C4.22205 7.56363 25.2507 14.4088 32.4034 16.5459C33.3577 15.7259 34.636 14.2805 36.1447 11.7285C36.1753 11.7438 40.2585 13.7738 45.1925 12.3301L45.505 12.1191C49.3078 13.8411 55.1915 11.7285 55.1915 11.7285C56.7074 14.2927 57.9897 15.7407 58.9454 16.5586C66.0322 14.4447 87.1833 7.58077 90.6056 0ZM44.8409 32.1787C44.916 32.2193 45.2959 32.4145 46.0724 32.6348C49.3074 33.5804 50.5802 32.2442 50.3585 33.1572C50.0067 34.6053 52.4772 36.9078 50.4425 38.3818C50.4362 38.363 49.8474 36.6129 48.4073 36.3467C48.3981 36.365 47.9981 37.1687 48.63 38.2842C48.6238 38.2834 47.7912 38.1803 46.9855 36.6406C46.9768 36.6931 46.4608 39.8533 48.4337 41.0371C48.4187 41.0331 44.4103 39.9554 44.7286 37.332C44.7168 37.3294 44.0783 37.1924 42.9347 38.3359C41.8348 39.4359 41.7828 39.4887 41.7804 39.4912C41.7804 39.4912 41.2785 37.0517 42.9347 35.7861C44.3882 34.6799 45.0751 34.8476 45.0939 34.8525C45.0717 34.8406 44.1851 34.3761 42.0021 35.2969C42.0078 35.2807 42.6934 33.3455 44.1613 33.04C44.163 33.0319 44.2964 32.4305 44.7345 32.2109L44.8409 32.1787ZM44.507 28.8193C44.5081 28.8137 44.5667 28.5341 44.6505 28.6689C44.7154 28.7757 44.6523 30.1894 46.2228 30.1895C47.9089 30.1892 47.8931 28.9853 47.8927 28.9629H49.2687C49.2667 28.9894 49.1352 30.7083 47.9445 31.2715L48.0099 30.9785C47.9931 30.9901 46.2246 32.2048 45.2443 32.2051C44.9549 32.2051 44.8906 32.1819 44.8673 32.1709L45.1915 32.0742C45.2036 32.0706 45.7465 31.9071 46.3527 31.5654C47.1222 31.135 48.003 30.3844 48.088 29.6475C48.0799 29.6679 47.5328 31.0209 45.7335 30.6328C44.258 30.3157 44.503 28.8424 44.507 28.8193ZM44.8673 32.1709L44.8409 32.1787C44.8331 32.1745 44.8276 32.1724 44.8263 32.1719C44.8534 32.162 44.8532 32.1642 44.8673 32.1709ZM51.3829 28.082C52.8733 27.5874 52.8583 28.1623 52.8575 28.1797C52.8482 28.1837 51.8648 28.6127 51.7413 29.1904L51.7159 29.4268C51.5873 30.0084 50.5639 30.4819 50.548 30.4893C50.5452 30.4815 49.8732 28.5834 51.3829 28.082ZM44.7697 16.001C44.3915 16.001 44.0462 16.0929 43.7267 16.2754C43.4071 16.458 43.1327 16.7058 42.9044 17.0254C42.6763 17.3449 42.5 17.7101 42.3761 18.1338C42.2522 18.5511 42.1935 18.9951 42.1935 19.458C42.1935 20.1102 42.3041 20.698 42.5323 21.2197C42.7606 21.7348 43.0675 22.1392 43.4523 22.4326C43.8369 22.726 44.2544 22.87 44.7042 22.8701C45.115 22.8701 45.4414 22.7782 45.6827 22.5957C45.9174 22.4132 46.1333 22.1917 46.3224 21.9375C46.4396 22.1591 46.5242 22.4073 46.5763 22.6875H46.9161V20.1826H46.5636C46.5114 20.5086 46.4066 20.8351 46.2501 21.1611C46.1001 21.487 45.8985 21.7614 45.6573 21.9766C45.4161 22.1982 45.1418 22.3027 44.8419 22.3027C44.7051 22.3027 44.5549 22.263 44.3986 22.1914C44.2422 22.1197 44.0852 21.9828 43.9288 21.7744C43.7723 21.5657 43.6416 21.2646 43.5372 20.8604C43.433 20.4561 43.381 19.9539 43.381 19.3477C43.381 18.7281 43.4456 18.2055 43.5695 17.7881C43.6999 17.3709 43.8761 17.0576 44.0978 16.8555C44.3195 16.6533 44.5742 16.5488 44.8546 16.5488C45.1089 16.5488 45.3501 16.6343 45.5782 16.8037C45.8065 16.9733 46.0024 17.2215 46.172 17.541C46.3349 17.8604 46.4525 18.232 46.5177 18.6426H46.8702L46.8116 16.2031H46.4786C46.4265 16.4703 46.3745 16.673 46.3224 16.8164C45.9115 16.2751 45.3958 16.001 44.7697 16.001ZM50.6652 16.001C50.2871 16.001 49.9417 16.0929 49.6222 16.2754C49.3026 16.458 49.0282 16.7058 48.7999 17.0254C48.5718 17.3449 48.3955 17.7101 48.2716 18.1338C48.1478 18.5511 48.089 18.9951 48.089 19.458C48.089 20.1102 48.1996 20.698 48.4279 21.2197C48.6561 21.7348 48.9631 22.1391 49.3478 22.4326C49.7326 22.7261 50.1507 22.8701 50.6007 22.8701C51.0113 22.87 51.337 22.7781 51.5782 22.5957C51.8129 22.4132 52.0288 22.1917 52.2179 21.9375C52.3352 22.1591 52.4206 22.4072 52.4728 22.6875H52.8116V20.1826H52.4591C52.4069 20.5086 52.3031 20.8351 52.1466 21.1611C51.9966 21.4872 51.7941 21.7614 51.5529 21.9766C51.3116 22.1982 51.0373 22.3027 50.7374 22.3027C50.6006 22.3027 50.4505 22.263 50.2941 22.1914C50.1377 22.1197 49.9807 21.9828 49.8243 21.7744C49.6678 21.5657 49.5371 21.2646 49.4327 20.8604C49.3285 20.4561 49.2765 19.9539 49.2765 19.3477C49.2765 18.7281 49.3411 18.2055 49.465 17.7881C49.5954 17.3709 49.7716 17.0576 49.9933 16.8555C50.215 16.6533 50.4697 16.5489 50.7501 16.5488C51.0045 16.5488 51.2465 16.6341 51.4747 16.8037C51.7028 16.9733 51.898 17.2216 52.0675 17.541C52.2304 17.8604 52.348 18.232 52.4132 18.6426H52.7657L52.7072 16.2031H52.3741C52.322 16.4703 52.27 16.673 52.2179 16.8164C51.807 16.2752 51.2912 16.001 50.6652 16.001ZM38.8204 16.1318V16.5879C39.1335 16.5879 39.3356 16.6472 39.4269 16.7646C39.518 16.8821 39.5646 17.0844 39.5646 17.3711V21.5264C39.5645 21.7217 39.5444 21.8782 39.5118 21.9824C39.4727 22.0866 39.4076 22.1715 39.297 22.2236C39.1861 22.2758 39.0223 22.3018 38.8136 22.3018V22.7588H41.3448V22.3018C41.1233 22.3018 40.96 22.2764 40.8556 22.2178C40.7514 22.1592 40.6861 22.0739 40.6534 21.9697C40.6209 21.8655 40.6076 21.7152 40.6075 21.5264V17.3711C40.6075 17.1755 40.6277 17.0184 40.6603 16.9141C40.6994 16.8099 40.7644 16.725 40.8751 16.6729C40.9859 16.6142 41.149 16.5879 41.3575 16.5879V16.1318H38.8204Z" fill="black"/>
<path d="M24.1578 61.927H23.7531C23.7415 61.8606 23.7202 61.8018 23.6892 61.7506C23.6582 61.6986 23.6196 61.6546 23.5734 61.6186C23.5273 61.5825 23.4746 61.5554 23.4155 61.5374C23.357 61.5186 23.2939 61.5093 23.2261 61.5093C23.1056 61.5093 22.9988 61.5396 22.9058 61.6002C22.8127 61.66 22.7399 61.748 22.6872 61.8642C22.6345 61.9796 22.6082 62.1206 22.6082 62.2873C22.6082 62.4568 22.6345 62.5997 22.6872 62.7158C22.7406 62.8312 22.8134 62.9185 22.9058 62.9777C22.9988 63.0361 23.1053 63.0653 23.225 63.0653C23.2914 63.0653 23.3534 63.0567 23.4111 63.0393C23.4696 63.0213 23.5219 62.995 23.568 62.9604C23.6149 62.9257 23.6542 62.8832 23.686 62.8327C23.7184 62.7822 23.7408 62.7245 23.7531 62.6595L24.1578 62.6617C24.1426 62.767 24.1098 62.8659 24.0593 62.9582C24.0095 63.0505 23.9442 63.132 23.8634 63.2027C23.7826 63.2727 23.6881 63.3275 23.5799 63.3672C23.4717 63.4062 23.3516 63.4257 23.2196 63.4257C23.0248 63.4257 22.851 63.3806 22.698 63.2904C22.5451 63.2002 22.4246 63.07 22.3366 62.8998C22.2486 62.7295 22.2046 62.5254 22.2046 62.2873C22.2046 62.0485 22.249 61.8444 22.3377 61.6748C22.4264 61.5046 22.5473 61.3744 22.7002 61.2842C22.8531 61.194 23.0263 61.1489 23.2196 61.1489C23.343 61.1489 23.4577 61.1662 23.5637 61.2009C23.6697 61.2355 23.7643 61.2864 23.8472 61.3534C23.9302 61.4198 23.9983 61.5013 24.0517 61.598C24.1058 61.6939 24.1412 61.8036 24.1578 61.927Z" fill="black"/>
<path d="M25.0118 63.3954H24.5833L25.3634 61.1792H25.859L26.6403 63.3954H26.2118L25.6199 61.6337H25.6026L25.0118 63.3954ZM25.0258 62.5264H26.1945V62.8489H25.0258V62.5264Z" fill="black"/>
<path d="M27.1608 63.3954V61.1792H27.9918C28.1621 61.1792 28.3049 61.2088 28.4203 61.268C28.5365 61.3271 28.6241 61.4101 28.6833 61.5168C28.7431 61.6229 28.7731 61.7466 28.7731 61.888C28.7731 62.0301 28.7428 62.1535 28.6822 62.2581C28.6223 62.362 28.5339 62.4424 28.4171 62.4994C28.3002 62.5557 28.1566 62.5838 27.9864 62.5838H27.3945V62.2505H27.9323C28.0318 62.2505 28.1134 62.2368 28.1768 62.2094C28.2403 62.1812 28.2872 62.1405 28.3175 62.0871C28.3485 62.033 28.364 61.9666 28.364 61.888C28.364 61.8094 28.3485 61.7423 28.3175 61.6867C28.2865 61.6305 28.2392 61.5879 28.1758 61.559C28.1123 61.5295 28.0304 61.5147 27.9301 61.5147H27.5622V63.3954H27.1608ZM28.3056 62.3912L28.8542 63.3954H28.4062L27.8674 62.3912H28.3056Z" fill="black"/>
<path d="M29.3712 63.3954V61.1792H30.2022C30.3725 61.1792 30.5153 61.2088 30.6307 61.268C30.7469 61.3271 30.8345 61.4101 30.8937 61.5168C30.9535 61.6229 30.9835 61.7466 30.9835 61.888C30.9835 62.0301 30.9532 62.1535 30.8926 62.2581C30.8327 62.362 30.7443 62.4424 30.6275 62.4994C30.5106 62.5557 30.367 62.5838 30.1968 62.5838H29.6049V62.2505H30.1427C30.2422 62.2505 30.3238 62.2368 30.3872 62.2094C30.4507 62.1812 30.4976 62.1405 30.5279 62.0871C30.5589 62.033 30.5744 61.9666 30.5744 61.888C30.5744 61.8094 30.5589 61.7423 30.5279 61.6867C30.4969 61.6305 30.4496 61.5879 30.3862 61.559C30.3227 61.5295 30.2408 61.5147 30.1405 61.5147H29.7726V63.3954H29.3712ZM30.516 62.3912L31.0646 63.3954H30.6166L30.0778 62.3912H30.516Z" fill="black"/>
<path d="M31.983 61.1792V63.3954H31.5816V61.1792H31.983Z" fill="black"/>
<path d="M32.6463 63.3954V61.1792H34.0876V61.5158H33.0477V62.1174H34.013V62.4539H33.0477V63.0588H34.0963V63.3954H32.6463Z" fill="black"/>
<path d="M34.7257 63.3954V61.1792H35.5568C35.727 61.1792 35.8699 61.2088 35.9853 61.268C36.1015 61.3271 36.1891 61.4101 36.2483 61.5168C36.3081 61.6229 36.3381 61.7466 36.3381 61.888C36.3381 62.0301 36.3078 62.1535 36.2472 62.2581C36.1873 62.362 36.0989 62.4424 35.9821 62.4994C35.8652 62.5557 35.7216 62.5838 35.5514 62.5838H34.9595V62.2505H35.4973C35.5968 62.2505 35.6784 62.2368 35.7418 62.2094C35.8053 62.1812 35.8522 62.1405 35.8825 62.0871C35.9135 62.033 35.929 61.9666 35.929 61.888C35.929 61.8094 35.9135 61.7423 35.8825 61.6867C35.8515 61.6305 35.8042 61.5879 35.7408 61.559C35.6773 61.5295 35.5954 61.5147 35.4951 61.5147H35.1272V63.3954H34.7257ZM35.8706 62.3912L36.4192 63.3954H35.9712L35.4324 62.3912H35.8706Z" fill="black"/>
<path d="M39.8174 61.927H39.4127C39.4012 61.8606 39.3799 61.8018 39.3489 61.7506C39.3179 61.6986 39.2793 61.6546 39.2331 61.6186C39.1869 61.5825 39.1343 61.5554 39.0751 61.5374C39.0167 61.5186 38.9536 61.5093 38.8858 61.5093C38.7653 61.5093 38.6585 61.5396 38.5655 61.6002C38.4724 61.66 38.3995 61.748 38.3469 61.8642C38.2942 61.9796 38.2679 62.1206 38.2679 62.2873C38.2679 62.4568 38.2942 62.5997 38.3469 62.7158C38.4003 62.8312 38.4731 62.9185 38.5655 62.9777C38.6585 63.0361 38.7649 63.0653 38.8847 63.0653C38.951 63.0653 39.0131 63.0567 39.0708 63.0393C39.1292 63.0213 39.1815 62.995 39.2277 62.9604C39.2746 62.9257 39.3139 62.8832 39.3456 62.8327C39.3781 62.7822 39.4005 62.7245 39.4127 62.6595L39.8174 62.6617C39.8023 62.767 39.7695 62.8659 39.719 62.9582C39.6692 63.0505 39.6039 63.132 39.5231 63.2027C39.4423 63.2727 39.3478 63.3275 39.2396 63.3672C39.1314 63.4062 39.0113 63.4257 38.8793 63.4257C38.6845 63.4257 38.5106 63.3806 38.3577 63.2904C38.2048 63.2002 38.0843 63.07 37.9963 62.8998C37.9083 62.7295 37.8643 62.5254 37.8643 62.2873C37.8643 62.0485 37.9086 61.8444 37.9974 61.6748C38.0861 61.5046 38.2069 61.3744 38.3599 61.2842C38.5128 61.194 38.6859 61.1489 38.8793 61.1489C39.0026 61.1489 39.1173 61.1662 39.2234 61.2009C39.3294 61.2355 39.4239 61.2864 39.5069 61.3534C39.5898 61.4198 39.658 61.5013 39.7114 61.598C39.7655 61.6939 39.8009 61.8036 39.8174 61.927Z" fill="black"/>
<path d="M42.3939 62.2873C42.3939 62.5261 42.3491 62.7306 42.2597 62.9008C42.1709 63.0704 42.0498 63.2002 41.8961 63.2904C41.7432 63.3806 41.5697 63.4257 41.3756 63.4257C41.1816 63.4257 41.0077 63.3806 40.854 63.2904C40.7011 63.1995 40.5799 63.0693 40.4905 62.8998C40.4017 62.7295 40.3574 62.5254 40.3574 62.2873C40.3574 62.0485 40.4017 61.8444 40.4905 61.6748C40.5799 61.5046 40.7011 61.3744 40.854 61.2842C41.0077 61.194 41.1816 61.1489 41.3756 61.1489C41.5697 61.1489 41.7432 61.194 41.8961 61.2842C42.0498 61.3744 42.1709 61.5046 42.2597 61.6748C42.3491 61.8444 42.3939 62.0485 42.3939 62.2873ZM41.9902 62.2873C41.9902 62.1192 41.9639 61.9775 41.9112 61.862C41.8593 61.7459 41.7872 61.6582 41.6948 61.5991C41.6025 61.5392 41.4961 61.5093 41.3756 61.5093C41.2551 61.5093 41.1487 61.5392 41.0564 61.5991C40.964 61.6582 40.8916 61.7459 40.8389 61.862C40.7869 61.9775 40.761 62.1192 40.761 62.2873C40.761 62.4554 40.7869 62.5975 40.8389 62.7136C40.8916 62.8291 40.964 62.9167 41.0564 62.9766C41.1487 63.0357 41.2551 63.0653 41.3756 63.0653C41.4961 63.0653 41.6025 63.0357 41.6948 62.9766C41.7872 62.9167 41.8593 62.8291 41.9112 62.7136C41.9639 62.5975 41.9902 62.4554 41.9902 62.2873Z" fill="black"/>
<path d="M44.8231 61.1792V63.3954H44.466L43.4218 61.8858H43.4034V63.3954H43.0019V61.1792H43.3612L44.4043 62.6898H44.4238V61.1792H44.8231Z" fill="black"/>
<path d="M46.6935 61.7884C46.6834 61.6939 46.6408 61.6204 46.5658 61.5677C46.4915 61.515 46.3948 61.4887 46.2758 61.4887C46.1921 61.4887 46.1203 61.5013 46.0604 61.5266C46.0006 61.5518 45.9548 61.5861 45.923 61.6294C45.8913 61.6727 45.875 61.7221 45.8743 61.7776C45.8743 61.8238 45.8848 61.8638 45.9057 61.8977C45.9273 61.9316 45.9566 61.9605 45.9933 61.9843C46.0301 62.0074 46.0709 62.0269 46.1156 62.0427C46.1604 62.0586 46.2054 62.072 46.2509 62.0828L46.4586 62.1347C46.5423 62.1542 46.6228 62.1805 46.7 62.2137C46.7779 62.2469 46.8475 62.2887 46.9088 62.3392C46.9708 62.3897 47.0199 62.4507 47.056 62.5221C47.092 62.5935 47.1101 62.6772 47.1101 62.7732C47.1101 62.903 47.0769 63.0173 47.0105 63.1162C46.9442 63.2143 46.8482 63.2911 46.7227 63.3467C46.5979 63.4015 46.4467 63.4289 46.2693 63.4289C46.0969 63.4289 45.9472 63.4022 45.8202 63.3488C45.694 63.2954 45.5951 63.2175 45.5237 63.1151C45.453 63.0127 45.4148 62.8879 45.409 62.7407H45.804C45.8098 62.8179 45.8336 62.8821 45.8754 62.9333C45.9172 62.9845 45.9717 63.0228 46.0388 63.048C46.1066 63.0733 46.1824 63.0859 46.266 63.0859C46.3533 63.0859 46.4298 63.0729 46.4954 63.0469C46.5618 63.0202 46.6137 62.9834 46.6513 62.9365C46.6888 62.8889 46.7079 62.8334 46.7086 62.7699C46.7079 62.7122 46.6909 62.6646 46.6578 62.6271C46.6246 62.5888 46.578 62.5571 46.5182 62.5318C46.459 62.5059 46.3898 62.4828 46.3104 62.4626L46.0583 62.3977C45.8758 62.3508 45.7315 62.2797 45.6254 62.1845C45.5201 62.0885 45.4674 61.9612 45.4674 61.8025C45.4674 61.6719 45.5028 61.5576 45.5735 61.4595C45.6449 61.3614 45.7419 61.2853 45.8646 61.2312C45.9872 61.1763 46.1261 61.1489 46.2812 61.1489C46.4384 61.1489 46.5762 61.1763 46.6945 61.2312C46.8136 61.2853 46.907 61.3607 46.9748 61.4573C47.0426 61.5533 47.0776 61.6636 47.0798 61.7884H46.6935Z" fill="black"/>
<path d="M49.0935 61.1792H49.495V62.6271C49.495 62.7858 49.4574 62.9254 49.3824 63.0458C49.3081 63.1663 49.2035 63.2605 49.0686 63.3283C48.9337 63.3954 48.7761 63.4289 48.5957 63.4289C48.4147 63.4289 48.2567 63.3954 48.1218 63.3283C47.9869 63.2605 47.8823 63.1663 47.808 63.0458C47.7337 62.9254 47.6965 62.7858 47.6965 62.6271V61.1792H48.098V62.5935C48.098 62.6859 48.1182 62.7681 48.1586 62.8402C48.1997 62.9124 48.2574 62.969 48.3317 63.0101C48.406 63.0505 48.494 63.0707 48.5957 63.0707C48.6975 63.0707 48.7855 63.0505 48.8598 63.0101C48.9348 62.969 48.9925 62.9124 49.0329 62.8402C49.0733 62.7681 49.0935 62.6859 49.0935 62.5935V61.1792Z" fill="black"/>
<path d="M50.1599 63.3954V61.1792H50.5613V63.0588H51.5374V63.3954H50.1599Z" fill="black"/>
<path d="M51.7342 61.5158V61.1792H53.5024V61.5158H52.8174V63.3954H52.4192V61.5158H51.7342Z" fill="black"/>
<path d="M54.4733 61.1792V63.3954H54.0718V61.1792H54.4733Z" fill="black"/>
<path d="M56.9577 61.1792V63.3954H56.6006L55.5564 61.8858H55.538V63.3954H55.1365V61.1792H55.4958L56.5389 62.6898H56.5584V61.1792H56.9577Z" fill="black"/>
<path d="M59.1083 61.8869C59.0903 61.8285 59.0654 61.7762 59.0336 61.73C59.0026 61.6831 58.9651 61.6431 58.9211 61.6099C58.8778 61.5767 58.828 61.5518 58.7718 61.5352C58.7155 61.5179 58.6542 61.5093 58.5878 61.5093C58.4688 61.5093 58.3627 61.5392 58.2697 61.5991C58.1766 61.659 58.1034 61.747 58.05 61.8631C57.9974 61.9785 57.971 62.1192 57.971 62.2851C57.971 62.4525 57.9974 62.5942 58.05 62.7104C58.1027 62.8265 58.1759 62.9149 58.2697 62.9755C58.3635 63.0354 58.4724 63.0653 58.5965 63.0653C58.709 63.0653 58.8064 63.0437 58.8886 63.0004C58.9716 62.9571 59.0354 62.8958 59.0802 62.8164C59.1249 62.7364 59.1473 62.6426 59.1473 62.5351L59.2382 62.5492H58.6365V62.2354H59.5357V62.5015C59.5357 62.6913 59.4953 62.8554 59.4145 62.9939C59.3337 63.1324 59.2226 63.2392 59.0813 63.3142C58.9399 63.3885 58.7775 63.4257 58.5943 63.4257C58.3902 63.4257 58.2109 63.3798 58.0565 63.2882C57.9028 63.1959 57.7827 63.065 57.6962 62.8954C57.6103 62.7252 57.5674 62.5232 57.5674 62.2895C57.5674 62.1105 57.5926 61.9508 57.6431 61.8101C57.6944 61.6694 57.7658 61.55 57.8574 61.4519C57.949 61.3531 58.0565 61.2781 58.1799 61.2268C58.3032 61.1749 58.4374 61.1489 58.5824 61.1489C58.705 61.1489 58.8194 61.167 58.9254 61.203C59.0315 61.2384 59.1256 61.2889 59.2079 61.3545C59.2908 61.4202 59.359 61.4981 59.4124 61.5883C59.4658 61.6784 59.5007 61.778 59.5173 61.8869H59.1083Z" fill="black"/>
<path d="M62.6215 61.8869C62.6035 61.8285 62.5786 61.7762 62.5468 61.73C62.5158 61.6831 62.4783 61.6431 62.4343 61.6099C62.391 61.5767 62.3412 61.5518 62.285 61.5352C62.2287 61.5179 62.1674 61.5093 62.101 61.5093C61.982 61.5093 61.8759 61.5392 61.7829 61.5991C61.6898 61.659 61.6166 61.747 61.5632 61.8631C61.5105 61.9785 61.4842 62.1192 61.4842 62.2851C61.4842 62.4525 61.5105 62.5942 61.5632 62.7104C61.6159 62.8265 61.6891 62.9149 61.7829 62.9755C61.8766 63.0354 61.9856 63.0653 62.1097 63.0653C62.2222 63.0653 62.3196 63.0437 62.4018 63.0004C62.4848 62.9571 62.5486 62.8958 62.5934 62.8164C62.6381 62.7364 62.6604 62.6426 62.6604 62.5351L62.7513 62.5492H62.1497V62.2354H63.0489V62.5015C63.0489 62.6913 63.0085 62.8554 62.9277 62.9939C62.8469 63.1324 62.7358 63.2392 62.5944 63.3142C62.453 63.3885 62.2907 63.4257 62.1075 63.4257C61.9033 63.4257 61.7241 63.3798 61.5697 63.2882C61.416 63.1959 61.2959 63.065 61.2094 62.8954C61.1235 62.7252 61.0806 62.5232 61.0806 62.2895C61.0806 62.1105 61.1058 61.9508 61.1563 61.8101C61.2076 61.6694 61.279 61.55 61.3706 61.4519C61.4622 61.3531 61.5697 61.2781 61.6931 61.2268C61.8164 61.1749 61.9506 61.1489 62.0956 61.1489C62.2182 61.1489 62.3326 61.167 62.4386 61.203C62.5447 61.2384 62.6388 61.2889 62.721 61.3545C62.804 61.4202 62.8722 61.4981 62.9256 61.5883C62.9789 61.6784 63.0139 61.778 63.0305 61.8869H62.6215Z" fill="black"/>
<path d="M63.6657 61.1792H64.1569L64.8148 62.7851H64.8408L65.4987 61.1792H65.99V63.3954H65.6048V61.8728H65.5842L64.9718 63.3889H64.6839L64.0714 61.8696H64.0509V63.3954H63.6657V61.1792Z" fill="black"/>
<path d="M66.6557 63.3954V61.1792H67.5041C67.6642 61.1792 67.7973 61.2045 67.9034 61.255C68.0101 61.3047 68.0898 61.3729 68.1425 61.4595C68.1959 61.5461 68.2226 61.6442 68.2226 61.7538C68.2226 61.844 68.2053 61.9212 68.1706 61.9854C68.136 62.0489 68.0895 62.1004 68.0311 62.1401C67.9726 62.1798 67.9073 62.2083 67.8352 62.2256V62.2473C67.9138 62.2516 67.9892 62.2757 68.0614 62.3198C68.1342 62.363 68.1937 62.4244 68.2399 62.5037C68.2861 62.5831 68.3092 62.679 68.3092 62.7915C68.3092 62.9063 68.2814 63.0094 68.2258 63.101C68.1703 63.1919 68.0866 63.2637 67.9748 63.3164C67.863 63.369 67.7223 63.3954 67.5528 63.3954H66.6557ZM67.0572 63.0599H67.4889C67.6346 63.0599 67.7396 63.0321 67.8038 62.9766C67.8687 62.9203 67.9012 62.8482 67.9012 62.7602C67.9012 62.6945 67.885 62.6354 67.8525 62.5827C67.82 62.5293 67.7739 62.4875 67.714 62.4572C67.6541 62.4262 67.5827 62.4107 67.4997 62.4107H67.0572V63.0599ZM67.0572 62.1217H67.4543C67.5236 62.1217 67.586 62.1091 67.6415 62.0839C67.6971 62.0579 67.7407 62.0215 67.7724 61.9746C67.8049 61.927 67.8211 61.8707 67.8211 61.8058C67.8211 61.7199 67.7908 61.6492 67.7302 61.5937C67.6704 61.5381 67.5813 61.5103 67.463 61.5103H67.0572V62.1217Z" fill="black"/>
<path d="M68.8869 63.3954V61.1792H69.2884V62.1174H70.3153V61.1792H70.7178V63.3954H70.3153V62.4539H69.2884V63.3954H68.8869Z" fill="black"/>
</svg>
