<svg width="374" height="64" viewBox="0 0 374 64" fill="none" xmlns="http://www.w3.org/2000/svg">
  <path d="M44.4081 25.6368C44.1648 25.6368 43.9601 25.6431 43.845 25.6559C43.7106 25.8991 43.5122 26.2254 43.2178 26.6798C47.7995 26.6798 51.9591 27.0573 56.56 27.8828L55.261 29.1371C51.1079 28.4012 47.6588 28.1069 43.2626 28.1069C42.6228 28.1069 42.4883 28.1069 42.3348 28.1132C42.1811 28.3435 41.8355 28.7915 41.4901 29.2075C41.8804 29.1819 42.6356 29.1691 43.6785 29.1691C47.2941 29.1691 50.6728 29.4378 54.3396 30.0266L53.0404 31.2872C50.2504 30.8521 46.8397 30.6025 43.7808 30.6025C42.693 30.6025 41.458 30.6409 40.351 30.7049C40.1014 30.9928 39.4488 31.6968 39.2504 31.9143C40.7157 31.7607 42.3283 31.6903 44.2481 31.6903C46.9806 31.6903 49.5915 31.8696 52.0615 32.2343L50.7623 33.4821C49.0026 33.2646 46.8653 33.1366 44.9776 33.1366C40.1079 33.1366 36.2683 34.1924 32.3008 36.6177C36.0827 40.6748 42.2772 43.2408 48.2795 43.2408H48.8426L46.7438 45.2696C38.0857 43.644 28.9733 39.8365 21.2752 34.621C13.8713 29.6234 11.2797 28.1453 5.5013 25.5921L5.46292 24.1073L9.37278 25.784L10.7038 24.7281L23.47 30.5769L22.6381 31.2424L16.0855 28.3949L15.4391 28.9003L18.8436 30.8009C21.7168 32.4008 23.9052 33.1174 25.9274 33.1174C30.3492 33.1174 34.3167 29.9818 36.8763 24.4722C38.8025 24.2225 40.8566 24.1073 43.3266 24.1073C48.3947 24.1073 53.3156 24.5937 58.8893 25.6368L57.5327 26.9485C54.0644 26.2254 48.1707 25.6368 44.4081 25.6368ZM32.0001 62.0798C15.3922 62.0798 1.92016 48.6078 1.92016 31.9999C1.92016 15.392 15.3922 1.91986 32.0001 1.91986C48.608 1.91986 62.08 15.392 62.08 31.9999C62.08 48.6078 48.608 62.0798 32.0001 62.0798ZM32.0001 -3.8147e-06C14.3042 -3.8147e-06 0 14.3039 0 31.9999C0 49.6959 14.3042 64 32.0001 64C49.6961 64 64.0001 49.6959 64.0001 31.9999C64.0001 14.3039 49.6961 -3.8147e-06 32.0001 -3.8147e-06ZM116.541 44.7391H134.888V53.3334H106.667V10.6665H116.541V44.7391ZM157.074 22.6133H166.278V53.3334H157.623V49.7981C156.343 52.1753 153.722 54.2475 148.907 54.2475C141.044 54.2475 136.96 50.7122 136.96 40.5942V22.6133H146.164V40.1674C146.164 44.2514 147.932 46.0797 151.65 46.0797C155.002 46.0797 157.074 44.2514 157.074 40.1674V22.6133ZM173.349 21.4553C173.349 14.0193 178.042 10.057 185.417 10.057C187.795 10.057 189.318 10.4228 189.318 10.4228V17.8589C189.318 17.8589 188.038 17.7374 186.941 17.7374C184.076 17.7374 182.552 18.7126 182.552 21.3944V22.6133H189.318V30.1105H182.552V53.3334H173.349V30.1105H168.716V22.6133H173.349V21.4553ZM205.531 22.6133H212.54V30.1105H205.531V42.0571C205.531 45.3487 207.237 46.2019 209.92 46.2019C211.017 46.2019 212.54 46.0192 212.54 46.0192V53.3943C212.54 53.3943 210.407 53.8817 208.153 53.8817C200.777 53.8817 196.328 50.5295 196.328 43.0936V30.1105H191.695V22.6133H196.328V13.6534H205.531V22.6133ZM232.917 21.699C240.72 21.699 244.804 25.2341 244.804 35.3523V53.3334H235.6V35.7788C235.6 31.6953 233.832 29.8669 229.993 29.8669C226.517 29.8669 224.446 31.6953 224.446 35.7788V53.3334H215.242V10.7276H224.506V25.5999C226.091 23.3445 228.59 21.699 232.917 21.699ZM268.27 41.3866C268.27 44.7391 265.1 47.2383 260.224 47.2383C257.848 47.2383 256.445 46.1411 256.445 44.0685C256.445 42.4838 257.42 41.143 260.53 40.7166L265.833 39.9848C266.746 39.8627 267.722 39.6801 268.27 39.4972V41.3866ZM263.15 21.6992C254.068 21.6992 249.679 25.1736 249.315 31.6954H258.274C258.396 29.9885 259.371 28.7085 263.15 28.7085C266.503 28.7085 268.087 29.806 268.087 31.4513C268.087 32.9146 267.172 33.463 264.918 33.7066L259.067 34.3161C251.142 35.1692 247.546 38.4609 247.546 44.4346C247.546 49.981 250.96 54.2475 258.213 54.2475C263.15 54.2475 266.077 52.6628 268.635 49.493V53.3334H277.048V33.1582C277.048 24.6858 272.111 21.6992 263.15 21.6992ZM298.33 21.699C306.315 21.699 310.398 25.2341 310.398 35.3523V53.3334H301.194V35.7788C301.194 31.6953 299.427 29.8669 295.587 29.8669C292.112 29.8669 290.041 31.6953 290.041 35.7788V53.3334H280.836V22.6134H289.491V26.1488C290.772 23.7714 293.393 21.699 298.33 21.699ZM329.814 34.0723C337.615 35.1087 341.516 37.5467 341.516 43.9467C341.516 50.4077 336.945 54.2476 327.253 54.2476C316.709 54.2476 312.99 50.0423 312.808 43.8855H321.89C322.134 46.1411 323.718 47.2383 327.253 47.2383C330.849 47.2383 332.312 46.3847 332.312 44.6782C332.312 43.0936 331.093 42.3622 327.925 41.9355L324.693 41.5085C317.927 40.5944 314.027 37.9736 314.027 31.8782C314.027 26.0267 318.355 21.699 327.437 21.699C335.848 21.699 340.359 25.0514 340.785 31.6953H331.825C331.52 29.928 330.545 28.8306 327.437 28.8306C324.389 28.8306 323.231 29.8669 323.231 31.208C323.231 32.5486 323.963 33.2801 326.583 33.646L329.814 34.0723ZM364.556 41.3872C364.556 44.7392 361.386 47.2383 356.511 47.2383C354.133 47.2383 352.732 46.1411 352.732 44.0685C352.732 42.4838 353.707 41.143 356.815 40.7166L362.118 39.9848C363.033 39.8633 364.007 39.6801 364.556 39.4972V41.3872ZM359.436 21.6992C350.355 21.6992 345.966 25.1736 345.6 31.6954H354.56C354.682 29.9885 355.658 28.709 359.436 28.709C362.789 28.709 364.374 29.806 364.374 31.4517C364.374 32.9146 363.459 33.463 361.204 33.7066L355.352 34.3161C347.429 35.1697 343.833 38.4611 343.833 44.4346C343.833 49.981 347.245 54.2475 354.499 54.2475C359.436 54.2475 362.362 52.6628 364.922 49.493V53.3334H373.333V33.1582C373.333 24.6862 368.396 21.6992 359.436 21.6992Z" fill="#000000"></path>
</svg>
