<svg width="325" height="64" viewBox="0 0 325 64" fill="none" xmlns="http://www.w3.org/2000/svg">
<g clip-path="url(#clip0_2007_5494)">
<mask id="mask0_2007_5494" style="mask-type:luminance" maskUnits="userSpaceOnUse" x="0" y="0" width="325" height="64">
<path d="M324.267 0H0V64H324.267V0Z" fill="white"/>
</mask>
<g mask="url(#mask0_2007_5494)">
<path d="M24.4007 64H90.0646L37.4461 11.174C30.4341 4.16521 20.9252 0 11.0096 0H0L0.820326 2.15099L4.46556 11.7122L24.4007 64Z" fill="url(#paint0_linear_2007_5494)"/>
<path d="M4.46554 11.7124C11.6547 23.9843 30.5201 25.2797 32.5728 44.3629C32.6571 45.1478 33.2591 45.7769 34.04 45.8995C44.9117 47.5975 55.5009 52.0724 64.7013 59.4454L64.7095 59.452C64.7702 59.5007 64.8332 59.5237 64.9147 59.5237C64.9957 59.5237 65.0772 59.4942 65.1407 59.4334C65.2721 59.3087 65.277 59.1013 65.1522 58.97C58.7811 52.2763 50.9959 46.928 42.2575 43.4115L39.5979 42.3415C38.2298 41.7911 37.2809 40.4345 37.3213 38.8743C37.4707 33.1725 50.9587 34.3322 52.3263 31.5915L52.5617 31.12C49.7843 28.7474 46.4845 26.963 42.8496 25.9651C42.8174 26.1025 42.7292 26.7677 43.4686 27.9712C44.2731 29.2802 42.5886 31.3618 40.1369 29.1161L39.9306 28.9273C21.7055 12.2332 8.04072 20.8902 0.820312 2.15112L4.46554 11.7124Z" fill="white"/>
<path d="M48.2932 30.8101C48.2932 30.8101 45.3046 30.9589 43.4687 27.9709C44.0148 28.8598 43.4128 30.1055 42.2029 30.1093V34.658C44.168 34.0874 46.4096 33.7379 48.2932 33.3418V30.8101Z" fill="url(#paint1_linear_2007_5494)"/>
<path d="M36.2963 46.292C46.3729 48.2307 56.139 52.5825 64.7013 59.4447C45.6126 43.1427 36.9153 46.0901 36.2963 46.292Z" fill="url(#paint2_linear_2007_5494)"/>
<path d="M8.30395 12.5657C5.33786 10.4575 2.82927 7.36502 0.820312 2.15112L4.46554 11.7124C11.6542 23.9832 30.5163 25.2797 32.5723 44.3568C30.4971 20.0083 19.7979 23.6473 8.30395 12.5657Z" fill="url(#paint3_linear_2007_5494)"/>
<path d="M96.7306 52.252C83.751 52.252 75.5083 45.5036 75.5083 37.0402C75.5083 28.4281 84.2358 21.8286 97.1033 21.8286C109.971 21.8286 118.699 28.4653 118.699 36.705C118.699 40.3964 117.057 43.4161 113.924 45.9511H121.57L119.743 49.0829C118.587 51.0589 117.169 52.252 114.111 52.252H96.7306ZM97.1033 45.3543C104.19 45.3543 110.158 41.8499 110.158 37.0402C110.158 32.2306 104.19 28.7263 97.1033 28.7263C90.0169 28.7263 84.0492 32.2306 84.0492 37.0402C84.0492 41.8499 90.0169 45.3543 97.1033 45.3543Z" fill="#323232"/>
<path d="M153.456 47.1068H133.018L130.109 52.2518H121.642L135.815 27.7195C136.934 25.7808 138.538 24.2896 141.745 24.2896H144.915C148.124 24.2896 149.727 25.7808 150.846 27.7195L165.019 52.2518H156.366L153.456 47.1068ZM136.485 40.9547H149.987L143.722 29.807C143.572 29.5456 143.46 29.4717 143.236 29.4717C143.012 29.4717 142.901 29.5461 142.752 29.807L136.485 40.9547Z" fill="#323232"/>
<path d="M205.371 24.2891V52.2518H197.799L175.571 33.7223V52.2518H168V24.2891H172.736C175.161 24.2891 176.391 24.9226 177.772 26.1156L197.801 42.782V24.2891H205.371Z" fill="#323232"/>
<path d="M232.297 30.59V52.2518H224.725V30.59H209.211V24.2891H247.813V30.59H232.297Z" fill="#323232"/>
<path d="M273.023 47.1068H252.585L249.676 52.2518H241.208L255.382 27.7195C256.501 25.7808 258.104 24.2896 261.312 24.2896H264.482C267.691 24.2896 269.294 25.7808 270.413 27.7195L284.586 52.2518H275.933L273.023 47.1068ZM256.053 40.9547H269.555L263.288 29.807C263.139 29.5456 263.027 29.4717 262.804 29.4717C262.58 29.4717 262.468 29.5461 262.319 29.807L256.053 40.9547Z" fill="#323232"/>
<path d="M287.194 50.2391L286.484 50.0153L288.387 43.9382C293.832 45.6904 299.65 46.3989 304.91 46.3989C313.525 46.3989 315.651 45.3922 315.651 44.3113C315.651 43.8638 315.352 43.5279 314.68 43.3041C313.823 43.006 311.437 42.5213 304.387 41.366C296.592 40.098 293.086 39.4645 290.513 38.2714C287.939 37.0782 286.373 35.1767 286.373 32.3807C286.373 30.2555 287.418 28.5405 289.095 27.198C292.079 24.8867 297.188 23.9546 302.747 23.9546C309.908 23.9546 315.912 24.5514 322.589 26.1915L323.186 26.3781L321.582 32.3058C314.123 30.7024 309.982 30.255 304.314 30.181C300.323 30.1439 297.563 30.4421 296.108 30.889C295.287 31.1504 294.951 31.523 294.951 31.9705C294.951 32.3807 295.213 32.7533 296.033 33.0142C296.928 33.3123 298.383 33.6477 306.03 34.8785C314.309 36.2205 317.032 36.7801 319.308 37.6751C322.403 38.8682 324.269 41.0679 324.269 43.8266C324.269 47.2943 321.583 49.8666 316.92 51.284C314.049 52.1417 310.207 52.6258 305.88 52.6258C299.091 52.6253 291.855 51.7303 287.194 50.2391Z" fill="#323232"/>
</g>
</g>
<defs>
<linearGradient id="paint0_linear_2007_5494" x1="57.0734" y1="63.7674" x2="13.2942" y2="-0.194232" gradientUnits="userSpaceOnUse">
<stop stop-color="#BE0000"/>
<stop offset="0.3898" stop-color="#DE0000"/>
<stop offset="0.768" stop-color="#F60000"/>
<stop offset="1" stop-color="#FF0000"/>
</linearGradient>
<linearGradient id="paint1_linear_2007_5494" x1="44.97" y1="34.8999" x2="45.56" y2="28.1537" gradientUnits="userSpaceOnUse">
<stop offset="0.65" stop-color="white" stop-opacity="0"/>
<stop offset="0.7285" stop-color="#E0E0E0" stop-opacity="0.2617"/>
<stop offset="0.8148" stop-color="#C5C5C5" stop-opacity="0.5493"/>
<stop offset="0.8914" stop-color="#B5B5B5" stop-opacity="0.8047"/>
<stop offset="0.95" stop-color="#AFAFAF"/>
</linearGradient>
<linearGradient id="paint2_linear_2007_5494" x1="36.2963" y1="52.7022" x2="64.7013" y2="52.7022" gradientUnits="userSpaceOnUse">
<stop stop-color="white" stop-opacity="0"/>
<stop offset="0.0839" stop-color="#F1F1F1" stop-opacity="0.0932"/>
<stop offset="0.2921" stop-color="#D4D4D4" stop-opacity="0.3246"/>
<stop offset="0.4993" stop-color="#C0C0C0" stop-opacity="0.5548"/>
<stop offset="0.7032" stop-color="#B3B3B3" stop-opacity="0.7814"/>
<stop offset="0.9" stop-color="#AFAFAF"/>
</linearGradient>
<linearGradient id="paint3_linear_2007_5494" x1="0.820203" y1="23.2541" x2="32.5722" y2="23.2541" gradientUnits="userSpaceOnUse">
<stop offset="0.25" stop-color="white" stop-opacity="0"/>
<stop offset="0.4615" stop-color="#EDEDED" stop-opacity="0.282"/>
<stop offset="0.886" stop-color="#BDBDBD" stop-opacity="0.848"/>
<stop offset="1" stop-color="#AFAFAF"/>
</linearGradient>
<clipPath id="clip0_2007_5494">
<rect width="324.267" height="64" fill="white"/>
</clipPath>
</defs>
</svg>
