<svg width="64" height="64" viewBox="0 0 64 64" fill="none" xmlns="http://www.w3.org/2000/svg">
<g clip-path="url(#clip0_1_201)">
<path d="M42.4043 3.44079C46.4432 4.79274 50.7164 5.82878 55.0746 6.32472L58.1114 6.3519L58.2065 6.26698C60.0238 6.31793 61.3656 5.51967 63.1354 5.12903C63.3256 5.08487 63.7808 4.96938 63.9744 5.22754C64.0627 5.56722 63.9234 5.93408 63.543 6.18545C61.3792 7.84652 58.7976 9.07958 56.3654 9.96616V9.9186C55.5672 10.0715 54.7112 10.4145 53.8823 10.6897C50.8863 11.5967 47.4758 12.1673 44.2522 11.9363C38.0767 11.617 32.8286 9.40907 27.3766 9.67063C22.0232 9.35472 16.9347 11.4064 14.0847 15.4487C12.6207 17.5649 11.4589 19.7967 11.0955 22.2526C11.2585 24.4741 14.3734 25.3268 15.5386 27.1645C16.2078 28.2752 16.5406 29.5015 17.0434 30.653C18.3376 32.9765 19.6182 35.2999 21.2079 37.4875L21.1672 37.5317C22.0979 38.9957 23.5823 40.2594 25.3351 41.1188C27.611 42.7493 29.6186 44.7908 30.8109 46.9817L30.7497 47.0191C32.0915 49.1625 32.8456 51.3875 33.885 53.6226C34.3504 54.9949 34.8667 56.2042 35.2641 57.5392C35.4034 57.6649 35.4034 57.8653 35.4815 58.0419C35.8484 59.0983 36.1643 60.2261 36.6127 61.2044C36.4191 61.3539 36.7621 61.4082 36.7214 61.5543C36.7452 62.1453 37.3226 63.0353 36.5515 63.4361C35.4306 62.4408 34.8395 60.9836 34.2349 59.9238C32.9101 57.6071 31.3917 55.3686 29.7544 53.1674L29.8054 53.1233C28.8033 51.8596 27.6925 50.4363 26.5444 49.1286C21.7073 43.7649 14.601 40.5413 9.40384 35.4358L9.35289 35.48C8.9113 35.0825 8.62596 34.556 8.2659 34.1008L8.30326 34.0533C7.66805 33.1633 7.29439 32.1511 6.67956 31.2407L6.71693 31.1965C5.10682 28.7983 3.56125 26.2507 2.52181 23.7268C2.30441 22.6127 1.92396 21.6514 1.83904 20.3639L1.71675 19.9427C1.78469 18.7742 -1.11623 18.0948 0.480294 15.8495C1.48237 14.7659 5.35818 13.4344 6.67617 11.3996C6.70674 11.0973 6.77467 10.7372 6.51312 10.4621C6.51312 10.2447 6.28892 10.0137 6.13267 9.78952C5.39895 8.87577 3.41178 9.5993 3.44235 8.25074C3.64617 8.24055 3.45255 8.06052 3.58842 7.98579C3.47632 7.32 3.43216 6.87841 3.61899 6.31793C4.01982 5.21395 4.41046 3.94013 4.33233 2.82596C4.41386 2.40815 4.83167 2.15678 5.25288 1.99373C6.07832 1.78652 6.79845 1.67442 7.6103 1.56572L7.71221 1.65065C9.58048 1.49439 11.8292 1.63026 13.0691 3.1011C13.6058 4.21867 13.1879 5.54345 12.8856 6.66781C12.7905 7.31661 12.084 7.84312 12.247 8.52589C12.495 8.77726 13.0113 8.76367 13.3374 8.6244C16.1636 6.90898 18.6297 4.52779 20.6848 2.12621C22.5803 0.349648 25.3725 -0.265184 27.9405 0.101677C33.1411 0.505904 37.5366 2.25189 42.3873 3.43739L42.4043 3.44079Z" fill="#F4CA35"/>
<path d="M28.9968 12.8434C29.7306 13.8183 28.7489 14.6811 28.4567 15.5405C25.403 20.1297 24.3398 25.3337 22.3118 30.2523C22.1624 30.4222 21.86 30.4731 21.6426 30.4052C21.1025 30.0179 21.1025 29.3827 21.1671 28.8256C21.5713 23.4926 22.9776 18.489 25.2433 13.7232C25.7732 12.9589 26.6768 12.0961 27.8419 12.2761C28.2835 12.3678 28.6741 12.5207 28.9968 12.8434Z" fill="#F4CA35"/>
<path d="M37.0407 14.2363C37.4313 15.989 36.1745 17.4259 35.6174 18.9953C32.6486 24.933 29.0819 30.7484 27.3223 37.0971C27.2408 37.2975 27.1219 37.5727 26.8875 37.661C26.6361 37.7289 26.4255 37.6033 26.3576 37.4266C25.7631 34.9028 26.4493 32.277 27.0947 29.8754C28.7897 24.5457 30.8346 19.0938 33.6982 14.1343C34.0311 13.883 34.082 13.6656 34.4964 13.5501C35.4917 13.4448 36.4904 13.5195 37.0407 14.2363Z" fill="#F4CA35"/>
<path d="M45.6314 14.535C46.433 15.1363 46.0186 16.2776 45.7061 16.9876C42.2243 24.7086 36.5855 31.3665 34.2519 39.4646C33.6099 41.18 33.1921 42.9566 32.6554 44.6856C32.5602 44.9947 32.1051 45.0049 31.7824 44.9301C31.4733 44.1964 31.565 43.2623 31.565 42.4674C32.2987 35.9624 33.8511 29.6409 37.0237 23.9749C38.4674 21.1453 39.8635 18.6011 41.3751 15.8394C41.8031 15.0582 42.5198 14.3516 43.5593 14.0969C44.3236 14.0493 45.0607 14.2293 45.6314 14.535Z" fill="#F4CA35"/>
<path d="M55.1663 14.9325C55.7234 15.8666 55.1867 16.8992 54.932 17.7926C52.7172 23.9987 48.5764 29.1347 45.2509 34.7871C42.4043 39.4306 40.5395 44.5904 38.644 49.6314C37.9884 51.1464 37.754 52.8278 36.9558 54.2681C36.8912 54.421 36.6874 54.3292 36.5482 54.37C36.059 53.9556 36.1235 53.3645 36.0081 52.8448C36.3817 46.5301 38.8139 40.8267 41.0932 35.1302C43.9499 28.7781 47.7782 22.7113 50.3802 16.1417C50.7402 15.3163 51.457 14.3007 52.561 13.9881C53.6683 13.8217 54.5074 14.2225 55.1663 14.9325Z" fill="#F4CA35"/>
</g>
<defs>
<clipPath id="clip0_1_201">
<rect width="64" height="64" fill="white"/>
</clipPath>
</defs>
</svg>
