<svg width="64" height="64" viewBox="0 0 64 64" fill="none" xmlns="http://www.w3.org/2000/svg">
<path d="M39.7502 54.2054C34.42 59.7173 28.5132 61.232 23.9699 59.3126C22.9267 58.872 22.0122 58.2227 21.296 57.4174C17.916 53.6388 19.1727 40.7214 19.2273 40.043C19.2794 39.5314 19.3424 39.1258 18.9465 39.11C18.5699 39.0941 18.4422 39.3503 18.2842 39.7985C18.1186 40.2574 14.6764 49.1767 11.6108 50.5102C9.43868 51.4666 6.45292 50.809 4.57842 48.9797C-0.201986 44.3407 -1.06107 37.5461 1.17573 32.2779C3.03006 27.9242 8.78133 28.3548 9.13774 28.3665C9.42774 28.3782 9.49079 28.1303 9.32015 28.0018C9.13354 27.8608 6.66307 25.621 5.67202 24.0396C3.9816 21.3441 6.87742 17.5538 7.02704 13.9278C7.22121 9.37977 6.84464 8.08128 7.16574 6.25704C7.45995 4.58385 9.14953 3.18605 11.7932 4.55214C15.7498 6.59752 21.4784 13.7476 23.2924 19.0718C24.1002 21.4317 25.5081 21.8523 27.6071 20.528C30.9299 18.4359 42.2602 10.2018 59.4165 13.2302C65.4208 14.2975 64.3726 18.9791 62.6956 21.1797C60.4866 24.068 55.7482 26.5999 52.9062 33.2526C50.1936 39.5731 46.0865 40.088 44.0968 39.7067C43.2226 39.5414 41.3843 39.1359 40.7463 38.8922C40.5042 38.7979 40.3537 39.0457 40.5798 39.2393C42.9973 41.2947 43.9027 43.9743 43.7841 45.7568C43.5689 48.933 42.0651 51.817 39.7502 54.2054Z" fill="#DC0019"/>
<path d="M39.0397 46.0014C40.1635 41.5042 34.7098 36.6724 34.3803 36.2752C33.9373 35.7286 34.4047 35.1102 35.0166 35.2804C37.8629 36.059 39.3305 36.382 40.9007 36.6023C47.2034 37.4835 46.1813 34.4142 49.2906 29.5599C52.3982 24.7105 54.7056 23.0816 55.6126 21.6571C56.7239 19.9205 56.3456 17.6297 51.925 17.1224C44.448 16.2578 28.6795 19.696 24.1823 27.7907C22.038 31.652 21.632 37.5027 21.5379 40.6505C21.3832 45.8044 21.6757 49.5505 22.2919 52.1667C23.9646 59.3126 36.2809 57.0436 39.0397 46.0014Z" fill="#FFD500"/>
<path d="M20.8921 26.2647C20.7408 28.1832 20.302 29.8038 19.9851 30.7068C19.6842 31.5663 15.4729 41.3276 12.5023 45.3098C9.35175 49.5508 6.53157 47.4045 4.59739 42.4767C3.3281 38.9576 3.26508 33.2704 5.26399 31.4386C7.27804 29.6011 11.4162 29.9273 13.495 30.0867C13.9027 30.1243 14.0977 29.7037 13.8363 29.4316C12.9999 28.5446 10.5361 26.162 9.22481 24.0925C8.13709 22.3709 9.27776 20.7978 10.0612 17.64C10.2881 16.7296 10.4378 15.8784 10.4773 15.099C10.5572 13.5025 10.4058 12.275 10.5412 11.6917C10.8379 10.4107 12.0189 9.97424 13.4832 10.9715C16.1067 12.7824 17.9837 15.6497 19.4573 18.1099C20.872 20.7169 21.0981 23.7345 20.8921 26.2647Z" fill="#FFD500"/>
</svg>
