<svg width="304" height="62" viewBox="0 0 304 62" fill="none" xmlns="http://www.w3.org/2000/svg">
  <g clip-path="url(#clip0_1524_55)">
    <path fill-rule="evenodd" clip-rule="evenodd" d="M24.082 2.32338C26.4444 1.13012 27.6255 0.533486 28.8656 0.298744C29.9637 0.0908484 31.0912 0.0908484 32.1893 0.298744C33.4294 0.533486 34.6105 1.13012 36.9729 2.32338L49.1932 8.4961L40.6607 14.8052C37.7059 13.0871 34.2374 12.0977 30.5275 12.0977C19.7331 12.0977 10.9826 20.4732 10.9826 30.8049C10.9826 35.1211 12.5098 39.0959 15.0752 42.2613L8.70795 51.5077C7.19437 50.7115 6.25539 50.1262 5.51227 49.3631C4.59173 48.4178 3.89198 47.2805 3.46328 46.0326C2.97852 44.6216 2.97852 43.0249 2.97852 39.8315V21.778C2.97852 18.5847 2.97852 16.988 3.46328 15.5769C3.89198 14.3291 4.59174 13.1917 5.51227 12.2464C6.55317 11.1775 7.97835 10.4577 10.8288 9.01786L24.082 2.32338ZM22.8347 48.0074L11.5703 52.9663L24.082 59.2862C26.4444 60.4795 27.6255 61.0761 28.8656 61.3108C29.9637 61.5187 31.0912 61.5187 32.1893 61.3108C33.4294 61.0761 34.6105 60.4795 36.9728 59.2862L50.2261 52.5917C53.0766 51.1519 54.5017 50.432 55.5426 49.3632C56.4632 48.4178 57.1629 47.2805 57.5916 46.0326C58.0764 44.6216 58.0764 43.0249 58.0764 39.8315V21.778C58.0764 18.5847 58.0764 16.988 57.5916 15.5769C57.1629 14.3291 56.4632 13.1917 55.5426 12.2464C54.7663 11.4492 53.7763 10.8462 52.1406 9.99384L47.8276 22.0923C49.261 24.6943 50.0723 27.6589 50.0723 30.8049C50.0723 41.1366 41.3218 49.5121 30.5275 49.5121C27.7962 49.5121 25.1957 48.9759 22.8347 48.0074Z" fill="#000000"></path>
    <path fill-rule="evenodd" clip-rule="evenodd" d="M47.4023 8.35773L23.6524 23.7331C23.4546 23.8612 23.2887 24.0382 23.1686 24.2492L8.74086 49.592C7.95822 50.9667 9.42867 52.5389 10.717 51.7049L34.467 36.3295C34.6647 36.2015 34.8307 36.0245 34.9508 35.8134L49.3785 10.4707C50.1612 9.09592 48.6907 7.5237 47.4023 8.35773ZM28.3662 32.9478C29.9132 33.3624 31.5191 32.3856 31.953 30.7661C32.387 29.1466 31.4846 27.4977 29.9376 27.0832C28.3906 26.6686 26.7847 27.6454 26.3507 29.265C25.9168 30.8844 26.8191 32.5333 28.3662 32.9478Z" fill="#000000"></path>
    <path d="M88.6966 36.8314C88.8531 38.0364 89.3618 39.0848 90.2223 39.9768C91.0987 40.8531 92.2645 41.5338 93.7196 42.0189C95.1906 42.504 96.8811 42.7465 98.7903 42.7465C100.621 42.7465 102.209 42.5665 103.555 42.2066C104.916 41.8467 105.957 41.3225 106.676 40.634C107.412 39.9455 107.78 39.1317 107.78 38.1928C107.78 37.4104 107.576 36.7688 107.17 36.2681C106.778 35.7674 106.105 35.3605 105.151 35.0475C104.212 34.7189 102.913 34.4607 101.255 34.2729L94.1661 33.4748C91.1299 33.1462 88.6495 32.5594 86.7251 31.7144C84.8158 30.8694 83.4078 29.7583 82.5002 28.3813C81.6079 27.0042 81.1621 25.3299 81.1621 23.3582C81.1621 21.1048 81.835 19.1566 83.1807 17.5135C84.5424 15.8704 86.4668 14.6107 88.9548 13.7344C91.4428 12.8581 94.346 12.4199 97.6633 12.4199C100.902 12.4199 103.797 12.8972 106.348 13.8518C108.915 14.8063 110.941 16.1442 112.428 17.8656C113.914 19.5869 114.728 21.5743 114.869 23.8276H106.794C106.654 22.7948 106.192 21.895 105.409 21.1282C104.627 20.3615 103.555 19.7669 102.193 19.3444C100.848 18.9218 99.2832 18.7106 97.4992 18.7106C95.8088 18.7106 94.3378 18.8827 93.0862 19.227C91.8345 19.5712 90.8717 20.072 90.1988 20.7292C89.5259 21.3708 89.1895 22.1454 89.1895 23.053C89.1895 23.7729 89.3777 24.3675 89.753 24.8369C90.1441 25.3064 90.7782 25.6976 91.6546 26.0106C92.5462 26.3235 93.7514 26.5739 95.2689 26.7617L102.616 27.6536C105.887 28.0292 108.476 28.6003 110.386 29.3672C112.295 30.1182 113.672 31.1276 114.517 32.3951C115.361 33.6626 115.784 35.2979 115.784 37.3008C115.784 39.6481 115.072 41.7059 113.648 43.4741C112.224 45.2424 110.213 46.6116 107.616 47.5819C105.034 48.5521 102.045 49.0372 98.6491 49.0372C95.1754 49.0372 92.0928 48.5286 89.4006 47.5114C86.7092 46.4943 84.5888 45.0625 83.0402 43.216C81.5062 41.3695 80.6928 39.2413 80.5986 36.8314H88.6966ZM128.215 12.1852V48.333H120.351V12.1852H128.215ZM149.221 49.0372C146.06 49.0372 143.228 48.4503 140.724 47.2768C138.221 46.0875 136.264 44.4287 134.856 42.3006C133.448 40.1567 132.744 37.6921 132.744 34.9067C132.744 32.1682 133.416 29.7427 134.762 27.6302C136.108 25.502 137.978 23.8511 140.372 22.6774C142.766 21.5039 145.473 20.917 148.494 20.917C151.529 20.917 154.174 21.5977 156.428 22.9591C158.681 24.3049 160.41 26.2297 161.615 28.7334C162.835 31.2215 163.446 34.1242 163.446 37.4417H141.147C141.741 39.2569 142.9 40.6574 144.621 41.6433C146.342 42.6292 148.525 43.1221 151.169 43.1221C153.188 43.1221 155.215 42.8326 157.249 42.2536C159.283 41.6746 161.106 40.8609 162.718 39.8125V45.0703C160.949 46.3222 158.892 47.3002 156.545 48.0044C154.213 48.6929 151.772 49.0372 149.221 49.0372ZM155.817 32.2308C155.363 30.4625 154.502 29.1011 153.235 28.1466C151.983 27.1764 150.418 26.6913 148.541 26.6913C146.553 26.6913 144.886 27.192 143.541 28.1935C142.211 29.1793 141.334 30.5251 140.912 32.2308H155.817ZM191.786 42.324C190.455 44.4522 188.773 46.1031 186.739 47.2768C184.72 48.4503 182.475 49.0372 180.002 49.0372C177.42 49.0372 175.12 48.4503 173.101 47.2768C171.082 46.1031 169.51 44.4522 168.383 42.324C167.272 40.1958 166.716 37.7547 166.716 35.0006C166.716 32.2308 167.272 29.7818 168.383 27.6536C169.51 25.5098 171.075 23.8511 173.078 22.6774C175.096 21.5039 177.405 20.917 180.002 20.917C182.475 20.917 184.72 21.5039 186.739 22.6774C188.773 23.8354 190.463 25.4785 191.809 27.6067L192.49 21.6447H200.611L199.062 34.9771L200.611 48.333H192.49L191.786 42.324ZM174.674 35.0006C174.674 36.5341 174.994 37.9033 175.636 39.1083C176.278 40.3132 177.162 41.2521 178.289 41.925C179.431 42.5979 180.722 42.9343 182.162 42.9343C183.617 42.9343 185.002 42.5979 186.316 41.925C187.631 41.2521 188.781 40.321 189.767 39.1317C190.768 37.9268 191.551 36.5498 192.114 35.0006C191.551 33.4514 190.768 32.0743 189.767 30.8694C188.781 29.6645 187.631 28.7256 186.316 28.0527C185.002 27.3641 183.617 27.0199 182.162 27.0199C180.722 27.0199 179.431 27.3641 178.289 28.0527C177.162 28.7256 176.278 29.6723 175.636 30.8929C174.994 32.0978 174.674 33.467 174.674 35.0006ZM213.716 21.6447V27.6302C215.061 25.4863 216.744 23.8354 218.762 22.6774C220.797 21.5039 223.058 20.917 225.546 20.917C228.144 20.917 230.444 21.5039 232.447 22.6774C234.465 23.8511 236.03 25.5098 237.141 27.6536C238.268 29.7818 238.831 32.2308 238.831 35.0006C238.831 37.7547 238.268 40.1958 237.141 42.324C236.03 44.4522 234.465 46.1031 232.447 47.2768C230.428 48.4503 228.128 49.0372 225.546 49.0372C223.058 49.0372 220.797 48.4503 218.762 47.2768C216.744 46.0875 215.061 44.4209 213.716 42.277V56.079H205.852V21.6447H213.716ZM213.434 35.0006C213.997 36.5498 214.772 37.9268 215.758 39.1317C216.759 40.321 217.917 41.2521 219.232 41.925C220.546 42.5979 221.931 42.9343 223.386 42.9343C224.826 42.9343 226.109 42.5979 227.235 41.925C228.378 41.2521 229.27 40.3132 229.912 39.1083C230.553 37.9033 230.874 36.5341 230.874 35.0006C230.874 33.467 230.553 32.0978 229.912 30.8929C229.27 29.6723 228.378 28.7256 227.235 28.0527C226.109 27.3641 224.826 27.0199 223.386 27.0199C221.931 27.0199 220.546 27.3641 219.232 28.0527C217.917 28.7256 216.759 29.6645 215.758 30.8694C214.772 32.0743 213.997 33.4514 213.434 35.0006ZM246.647 48.7555C245.786 48.7555 245.004 48.5521 244.3 48.1452C243.595 47.7384 243.04 47.1828 242.633 46.4787C242.227 45.7745 242.023 44.9921 242.023 44.1314C242.023 43.2864 242.227 42.5118 242.633 41.8076C243.04 41.0878 243.595 40.5245 244.3 40.1176C245.004 39.7107 245.786 39.5073 246.647 39.5073C247.508 39.5073 248.29 39.7107 248.994 40.1176C249.698 40.5245 250.254 41.0878 250.661 41.8076C251.068 42.5118 251.271 43.2864 251.271 44.1314C251.271 44.9921 251.068 45.7745 250.661 46.4787C250.254 47.1828 249.698 47.7384 248.994 48.1452C248.29 48.5521 247.508 48.7555 246.647 48.7555ZM260.087 22.0906L264.007 21.3395V48.333H256.144V21.3395L260.087 22.0906ZM255.275 14.509C255.275 13.2884 255.713 12.3104 256.59 11.575C257.482 10.8238 258.648 10.4482 260.087 10.4482C261.512 10.4482 262.662 10.8238 263.538 11.575C264.43 12.3104 264.876 13.2884 264.876 14.509C264.876 15.7296 264.43 16.7154 263.538 17.4666C262.662 18.202 261.512 18.5697 260.087 18.5697C258.648 18.5697 257.482 18.202 256.59 17.4666C255.713 16.7154 255.275 15.7296 255.275 14.509ZM285.225 49.0372C281.939 49.0372 279.029 48.4503 276.494 47.2768C273.974 46.1031 272.018 44.4601 270.625 42.3475C269.233 40.2193 268.536 37.7703 268.536 35.0006C268.536 32.2151 269.233 29.7583 270.625 27.6302C272.018 25.502 273.974 23.8511 276.494 22.6774C279.029 21.5039 281.939 20.917 285.225 20.917C288.511 20.917 291.414 21.5039 293.933 22.6774C296.468 23.8511 298.432 25.502 299.825 27.6302C301.218 29.7583 301.914 32.2151 301.914 35.0006C301.914 37.7703 301.218 40.2193 299.825 42.3475C298.432 44.4601 296.468 46.1031 293.933 47.2768C291.414 48.4503 288.511 49.0372 285.225 49.0372ZM276.47 35.0006C276.47 36.6593 276.822 38.0989 277.526 39.3195C278.23 40.5245 279.24 41.4555 280.554 42.1128C281.868 42.77 283.426 43.0986 285.225 43.0986C287.025 43.0986 288.574 42.77 289.873 42.1128C291.187 41.4555 292.197 40.5245 292.901 39.3195C293.605 38.0989 293.957 36.6593 293.957 35.0006C293.957 33.3419 293.605 31.9022 292.901 30.6816C292.197 29.461 291.187 28.5221 289.873 27.8649C288.558 27.2077 287.009 26.8791 285.225 26.8791C283.426 26.8791 281.868 27.2077 280.554 27.8649C279.24 28.5221 278.23 29.461 277.526 30.6816C276.822 31.9022 276.47 33.3419 276.47 35.0006Z" fill="#000000"></path>
  </g>
  <defs>
    <linearGradient id="paint0_linear_1524_55" x1="3.00163" y1="30.917" x2="57.9549" y2="30.917" gradientUnits="userSpaceOnUse">
      <stop stop-color="#28F2FF"></stop>
      <stop offset="1" stop-color="#A596FF"></stop>
    </linearGradient>
    <clipPath id="clip0_1524_55">
      <rect width="304" height="61.6904" fill="#000000"></rect>
    </clipPath>
  </defs>
</svg>
