<svg width="315" height="64" viewBox="0 0 315 64" fill="none" xmlns="http://www.w3.org/2000/svg">
<path fill-rule="evenodd" clip-rule="evenodd" d="M24.9533 2.41045C27.4011 1.17251 28.625 0.553544 29.9099 0.310013C31.0478 0.0943347 32.2161 0.0943347 33.354 0.310013C34.6389 0.553545 35.8628 1.17251 38.3106 2.41045L50.9731 8.81427L42.1319 15.3596C39.0702 13.5771 35.4761 12.5507 31.632 12.5507C20.447 12.5507 11.3799 21.2398 11.3799 31.9583C11.3799 36.4361 12.9623 40.5597 15.6206 43.8436L9.02293 53.4362C7.45459 52.6101 6.48163 52.003 5.71161 51.2113C4.75777 50.2307 4.0327 49.0507 3.58849 47.7561C3.08618 46.2923 3.08618 44.6358 3.08618 41.3228V22.5935C3.08618 19.2806 3.08618 17.6241 3.58849 16.1602C4.0327 14.8656 4.75778 13.6857 5.71162 12.705C6.79019 11.5961 8.26693 10.8493 11.2205 9.35557L24.9533 2.41045ZM23.6609 49.8048L11.9888 54.9494L24.9533 61.5059C27.4011 62.7438 28.625 63.3628 29.9099 63.6063C31.0478 63.822 32.2161 63.822 33.354 63.6063C34.6389 63.3628 35.8628 62.7438 38.3105 61.5059L52.0434 54.5607C54.997 53.0671 56.4737 52.3202 57.5523 51.2114C58.5061 50.2306 59.2312 49.0507 59.6754 47.7561C60.1777 46.2923 60.1777 44.6358 60.1777 41.3228V22.5935C60.1777 19.2806 60.1777 17.6241 59.6755 16.1602C59.2312 14.8656 58.5061 13.6857 57.5523 12.705C56.7479 11.878 55.722 11.2523 54.0272 10.3681L49.5581 22.9195C51.0433 25.6189 51.884 28.6945 51.884 31.9583C51.884 42.6768 42.8169 51.3659 31.632 51.3659C28.8018 51.3659 26.1073 50.8096 23.6609 49.8048Z" fill="white"/>
<path fill-rule="evenodd" clip-rule="evenodd" d="M49.1177 8.67055L24.5083 24.6216C24.3034 24.7544 24.1315 24.938 24.007 25.157L9.05725 51.4485C8.24629 52.8748 9.76995 54.5058 11.1049 53.6406L35.7143 37.6895C35.9192 37.5567 36.0912 37.3731 36.2156 37.1542L51.1654 10.8626C51.9763 9.43638 50.4527 7.8053 49.1177 8.67055ZM29.3927 34.1813C30.9957 34.6113 32.6597 33.598 33.1093 31.9179C33.559 30.2378 32.624 28.5271 31.021 28.0971C29.418 27.667 27.7539 28.6804 27.3043 30.3605C26.8547 32.0406 27.7897 33.7512 29.3927 34.1813Z" fill="white"/>
<path d="M91.9061 38.2102C92.0682 39.4603 92.5954 40.548 93.4871 41.4733C94.3952 42.3825 95.6031 43.0886 97.1109 43.5919C98.6351 44.0951 100.387 44.3468 102.365 44.3468C104.262 44.3468 105.908 44.1601 107.302 43.7867C108.712 43.4133 109.791 42.8694 110.537 42.1552C111.299 41.4409 111.68 40.5967 111.68 39.6226C111.68 38.8109 111.469 38.1453 111.048 37.6258C110.642 37.1063 109.945 36.6842 108.956 36.3595C107.983 36.0186 106.637 35.7507 104.919 35.556L97.5735 34.728C94.4274 34.3871 91.8574 33.7783 89.8632 32.9016C87.8849 32.025 86.4259 30.8724 85.4855 29.4438C84.561 28.0151 84.099 26.2781 84.099 24.2326C84.099 21.8948 84.7962 19.8737 86.1907 18.1691C87.6016 16.4644 89.5957 15.1576 92.1737 14.2484C94.7517 13.3394 97.76 12.8848 101.197 12.8848C104.554 12.8848 107.553 13.38 110.197 14.3702C112.856 15.3605 114.955 16.7485 116.496 18.5343C118.036 20.3201 118.879 22.3819 119.025 24.7196H110.659C110.513 23.6481 110.034 22.7147 109.223 21.9191C108.413 21.1237 107.302 20.5068 105.891 20.0685C104.497 19.6301 102.876 19.411 101.027 19.411C99.2757 19.411 97.7514 19.5895 96.4545 19.9467C95.1576 20.3038 94.1599 20.8234 93.4627 21.5052C92.7655 22.1708 92.4168 22.9744 92.4168 23.916C92.4168 24.6628 92.6119 25.2797 93.0007 25.7667C93.406 26.2537 94.063 26.6596 94.9711 26.9843C95.895 27.3089 97.1438 27.5687 98.7162 27.7635L106.329 28.6888C109.718 29.0785 112.402 29.671 114.38 30.4665C116.358 31.2457 117.785 32.2929 118.661 33.6079C119.536 34.9228 119.974 36.6193 119.974 38.6972C119.974 41.1324 119.236 43.2672 117.761 45.1017C116.285 46.9362 114.201 48.3566 111.51 49.3632C108.834 50.3697 105.737 50.8729 102.219 50.8729C98.6193 50.8729 95.4252 50.3454 92.6356 49.2901C89.8468 48.2349 87.6497 46.7494 86.045 44.8339C84.4555 42.9182 83.6127 40.7103 83.5151 38.2102H91.9061ZM132.854 12.6413V50.1424H124.706V12.6413H132.854ZM154.621 50.8729C151.346 50.8729 148.41 50.2642 145.816 49.0466C143.222 47.8128 141.195 46.0919 139.736 43.8841C138.276 41.66 137.547 39.1031 137.547 36.2134C137.547 33.3724 138.244 30.8561 139.639 28.6645C141.033 26.4566 142.97 24.7439 145.452 23.5263C147.932 22.3088 150.737 21.7 153.867 21.7C157.012 21.7 159.752 22.4062 162.088 23.8186C164.423 25.2148 166.214 27.2116 167.463 29.809C168.727 32.3903 169.36 35.4017 169.36 38.8434H146.254C146.87 40.7266 148.07 42.1795 149.854 43.2022C151.638 44.2251 153.899 44.7364 156.639 44.7364C158.731 44.7364 160.831 44.4361 162.939 43.8354C165.047 43.2348 166.936 42.3906 168.606 41.3029V46.7575C166.773 48.0563 164.641 49.071 162.209 49.8015C159.793 50.5158 157.264 50.8729 154.621 50.8729ZM161.455 33.4374C160.985 31.6029 160.093 30.1905 158.78 29.2002C157.483 28.1937 155.861 27.6904 153.916 27.6904C151.856 27.6904 150.129 28.21 148.735 29.2489C147.357 30.2717 146.449 31.6679 146.011 33.4374H161.455ZM198.725 43.9085C197.347 46.1163 195.604 47.8291 193.496 49.0466C191.404 50.2642 189.078 50.8729 186.516 50.8729C183.84 50.8729 181.456 50.2642 179.365 49.0466C177.273 47.8291 175.643 46.1163 174.476 43.9085C173.325 41.7006 172.749 39.1681 172.749 36.3108C172.749 33.4374 173.325 30.8967 174.476 28.6888C175.643 26.4647 177.265 24.7439 179.34 23.5263C181.432 22.3088 183.824 21.7 186.516 21.7C189.078 21.7 191.404 22.3088 193.496 23.5263C195.604 24.7277 197.355 26.4323 198.75 28.6401L199.455 22.4549H207.87L206.265 36.2865L207.87 50.1424H199.455L198.725 43.9085ZM180.994 36.3108C180.994 37.9018 181.327 39.3223 181.992 40.5723C182.656 41.8224 183.572 42.7964 184.74 43.4945C185.924 44.1926 187.262 44.5416 188.753 44.5416C190.261 44.5416 191.696 44.1926 193.058 43.4945C194.42 42.7964 195.612 41.8305 196.634 40.5967C197.671 39.3466 198.482 37.918 199.065 36.3108C198.482 34.7036 197.671 33.2751 196.634 32.025C195.612 30.775 194.42 29.8009 193.058 29.1028C191.696 28.3885 190.261 28.0313 188.753 28.0313C187.262 28.0313 185.924 28.3885 184.74 29.1028C183.572 29.8009 182.656 30.7831 181.992 32.0494C181.327 33.2994 180.994 34.7199 180.994 36.3108ZM221.449 22.4549V28.6645C222.843 26.4404 224.586 24.7277 226.678 23.5263C228.786 22.3088 231.129 21.7 233.707 21.7C236.399 21.7 238.782 22.3088 240.858 23.5263C242.949 24.7439 244.571 26.4647 245.722 28.6888C246.889 30.8967 247.473 33.4374 247.473 36.3108C247.473 39.1681 246.889 41.7006 245.722 43.9085C244.571 46.1163 242.949 47.8291 240.858 49.0466C238.766 50.2642 236.382 50.8729 233.707 50.8729C231.129 50.8729 228.786 50.2642 226.678 49.0466C224.586 47.8128 222.843 46.0838 221.449 43.8597V58.1784H213.301V22.4549H221.449ZM221.157 36.3108C221.741 37.918 222.543 39.3466 223.565 40.5967C224.602 41.8305 225.802 42.7964 227.164 43.4945C228.527 44.1926 229.961 44.5416 231.47 44.5416C232.961 44.5416 234.291 44.1926 235.458 43.4945C236.642 42.7964 237.566 41.8224 238.231 40.5723C238.896 39.3223 239.228 37.9018 239.228 36.3108C239.228 34.7199 238.896 33.2994 238.231 32.0494C237.566 30.7831 236.642 29.8009 235.458 29.1028C234.291 28.3885 232.961 28.0313 231.47 28.0313C229.961 28.0313 228.527 28.3885 227.164 29.1028C225.802 29.8009 224.602 30.775 223.565 32.025C222.543 33.2751 221.741 34.7036 221.157 36.3108ZM255.572 50.5807C254.68 50.5807 253.869 50.3697 253.14 49.9476C252.41 49.5255 251.835 48.9492 251.413 48.2187C250.992 47.4881 250.781 46.6764 250.781 45.7835C250.781 44.9069 250.992 44.1033 251.413 43.3727C251.835 42.626 252.41 42.0415 253.14 41.6195C253.869 41.1973 254.68 40.9863 255.572 40.9863C256.464 40.9863 257.275 41.1973 258.004 41.6195C258.734 42.0415 259.31 42.626 259.731 43.3727C260.152 44.1033 260.363 44.9069 260.363 45.7835C260.363 46.6764 260.152 47.4881 259.731 48.2187C259.31 48.9492 258.734 49.5255 258.004 49.9476C257.275 50.3697 256.464 50.5807 255.572 50.5807ZM269.498 22.9175L273.56 22.1383V50.1424H265.412V22.1383L269.498 22.9175ZM264.512 15.0521C264.512 13.7858 264.966 12.7712 265.874 12.0082C266.799 11.2289 268.007 10.8393 269.498 10.8393C270.974 10.8393 272.166 11.2289 273.074 12.0082C273.998 12.7712 274.46 13.7858 274.46 15.0521C274.46 16.3184 273.998 17.3411 273.074 18.1204C272.166 18.8834 270.974 19.2649 269.498 19.2649C268.007 19.2649 266.799 18.8834 265.874 18.1204C264.966 17.3411 264.512 16.3184 264.512 15.0521ZM295.546 50.8729C292.141 50.8729 289.125 50.2642 286.498 49.0466C283.887 47.8291 281.861 46.1245 280.418 43.9328C278.975 41.725 278.253 39.1843 278.253 36.3108C278.253 33.4211 278.975 30.8723 280.418 28.6645C281.861 26.4566 283.887 24.7439 286.498 23.5263C289.125 22.3088 292.141 21.7 295.546 21.7C298.951 21.7 301.958 22.3088 304.569 23.5263C307.196 24.7439 309.231 26.4566 310.674 28.6645C312.117 30.8723 312.838 33.4211 312.838 36.3108C312.838 39.1843 312.117 41.725 310.674 43.9328C309.231 46.1245 307.196 47.8291 304.569 49.0466C301.958 50.2642 298.951 50.8729 295.546 50.8729ZM286.474 36.3108C286.474 38.0316 286.838 39.5252 287.569 40.7915C288.298 42.0415 289.344 43.0075 290.706 43.6893C292.068 44.3711 293.681 44.7121 295.546 44.7121C297.411 44.7121 299.016 44.3711 300.362 43.6893C301.724 43.0075 302.77 42.0415 303.499 40.7915C304.229 39.5252 304.594 38.0316 304.594 36.3108C304.594 34.59 304.229 33.0964 303.499 31.8302C302.77 30.5639 301.724 29.5898 300.362 28.908C298.999 28.2262 297.394 27.8853 295.546 27.8853C293.681 27.8853 292.068 28.2262 290.706 28.908C289.344 29.5898 288.298 30.5639 287.569 31.8302C286.838 33.0964 286.474 34.59 286.474 36.3108Z" fill="white"/>
</svg>
