<svg width="64" height="64" viewBox="0 0 64 64" fill="none" xmlns="http://www.w3.org/2000/svg">
<path d="M45.6752 1C40.2051 1 35.5556 2.91453 32 4.82906C28.4444 2.91453 24.0684 1 18.3248 1C7.11111 1 0 8.11111 0 20.6923C0 35.735 14.4957 50.5043 32 62.5385C49.5043 50.7778 64 36.0086 64 20.6923C64 8.11111 56.6154 1 45.6752 1Z" fill="#CCCCCC"/>
<path d="M1.64087 20.9654C1.64087 36.2816 18.0511 50.7773 31.7263 60.35C35.8289 57.6149 39.9315 54.3329 43.7606 51.0508C25.4358 35.7346 7.93149 21.7859 1.91439 16.8628C1.91439 17.9568 1.64087 19.3243 1.64087 20.9654Z" fill="url(#paint0_linear_2025_535)"/>
<path d="M60.9916 28.077C47.5899 17.1368 39.6583 11.3933 30.9061 6.19667C28.4446 4.82915 23.795 2.64111 18.5985 2.64111C13.6754 2.64111 9.2993 4.28214 6.29076 7.29069C4.37623 9.20522 3.00868 11.6668 2.46167 14.6753C9.29928 19.5984 28.1711 33.0001 47.0429 48.0428C53.3335 42.0257 58.5301 35.1881 60.9916 28.077Z" fill="url(#paint1_linear_2025_535)"/>
<path d="M57.4358 7.29069C54.4273 4.28214 50.3247 2.64111 45.4016 2.64111C40.205 2.64111 36.376 4.28214 33.3674 5.92317C38.564 8.93171 49.7777 15.2223 61.5384 23.9745C61.8119 22.8804 61.8119 21.5129 61.8119 20.4189C62.0854 14.9488 60.4444 10.2992 57.4358 7.29069Z" fill="url(#paint2_linear_2025_535)"/>
<defs>
<linearGradient id="paint0_linear_2025_535" x1="1.76121" y1="38.4163" x2="44.0368" y2="38.4163" gradientUnits="userSpaceOnUse">
<stop stop-color="#3656CC"/>
<stop offset="0.35" stop-color="#304CB2"/>
<stop offset="0.72" stop-color="#283B80"/>
</linearGradient>
<linearGradient id="paint1_linear_2025_535" x1="7.76602" y1="5.02088" x2="55.5243" y2="38.4617" gradientUnits="userSpaceOnUse">
<stop offset="0.3" stop-color="#E61C23"/>
<stop offset="0.8" stop-color="#C3161C"/>
</linearGradient>
<linearGradient id="paint2_linear_2025_535" x1="37.3729" y1="0.697864" x2="64.6788" y2="19.8177" gradientUnits="userSpaceOnUse">
<stop stop-color="#FDBC11"/>
<stop offset="0.25" stop-color="#FCB415"/>
<stop offset="0.8" stop-color="#F89E1C"/>
</linearGradient>
</defs>
</svg>
