<svg width="384" height="48" viewBox="0 0 384 48" fill="none" xmlns="http://www.w3.org/2000/svg">
<g clip-path="url(#clip0_2025_954)">
<path d="M13.6 11.0625H1.3867C1.20424 11.0638 1.02335 11.0284 0.854539 10.9583C0.685724 10.8883 0.532352 10.785 0.403333 10.6544C0.274315 10.5239 0.172222 10.3687 0.102987 10.1979C0.0337529 10.0271 -0.00124276 9.84403 3.37011e-05 9.65943V1.45682C-0.00124276 1.27221 0.0337529 1.08918 0.102987 0.918363C0.172222 0.74755 0.274315 0.592363 0.403333 0.461817C0.532352 0.331271 0.685724 0.227972 0.854539 0.157917C1.02335 0.0878634 1.20424 0.0524535 1.3867 0.053745H36.2133C37.3163 0.0551729 38.3735 0.499102 39.1534 1.28818C39.9332 2.07726 40.3719 3.14706 40.3733 4.26297V9.65943C40.3746 9.84403 40.3396 10.0271 40.2704 10.1979C40.2012 10.3687 40.099 10.5239 39.9701 10.6544C39.8411 10.785 39.6876 10.8883 39.5188 10.9583C39.35 11.0284 39.1691 11.0638 38.9867 11.0625H26.72V45.8696C26.7212 46.0543 26.6862 46.2372 26.6171 46.4081C26.5479 46.5789 26.4457 46.7341 26.3168 46.8646C26.1877 46.9951 26.0343 47.0984 25.8656 47.1684C25.6967 47.2385 25.5157 47.274 25.3333 47.2726H17.76C16.6572 47.2712 15.5999 46.8273 14.82 46.0383C14.0402 45.2491 13.6014 44.1794 13.6 43.0634V11.0625Z" fill="white"/>
<path d="M49.6 17.3238L49.6533 17.5936C51.36 14.5176 54.4533 13.1685 57.6533 13.1685C60.5148 13.1223 63.2972 14.1182 65.4933 15.9747C65.7265 16.1881 65.8801 16.476 65.9288 16.7904C65.9774 17.1047 65.9176 17.4263 65.76 17.7015L62.1333 24.3392C62.0439 24.5038 61.9216 24.6481 61.7745 24.7628C61.6273 24.8775 61.4583 24.9603 61.278 25.0058C61.0979 25.0513 60.9102 25.0588 60.7271 25.0277C60.5438 24.9966 60.369 24.9276 60.2133 24.8249C58.9228 24.0065 57.4144 23.6108 55.8933 23.6915C52.8533 23.6915 50.24 25.5804 50.24 29.9514V45.8711C50.2414 46.0556 50.2064 46.2387 50.137 46.4094C50.0679 46.5802 49.9658 46.7354 49.8368 46.8659C49.7077 46.9966 49.5543 47.0999 49.3856 47.1699C49.2167 47.24 49.0359 47.2753 48.8533 47.2741H42.08C40.9772 47.2727 39.9198 46.8288 39.14 46.0396C38.3601 45.2506 37.9214 44.1808 37.92 43.0649V15.3271C37.9187 15.1425 37.9537 14.9595 38.0229 14.7887C38.0922 14.6178 38.1943 14.4627 38.3233 14.3321C38.4524 14.2016 38.6056 14.0983 38.7745 14.0282C38.9434 13.9582 39.1242 13.9227 39.3066 13.924H45.5466C46.5031 13.9419 47.4252 14.2881 48.1616 14.9059C48.8981 15.5236 49.4053 16.3761 49.6 17.3238Z" fill="white"/>
<path d="M92.9066 13.9777H99.1466C100.25 13.9791 101.307 14.423 102.087 15.2121C102.867 16.0012 103.305 17.071 103.307 18.187V45.8707C103.308 46.0552 103.273 46.2383 103.204 46.4092C103.135 46.58 103.032 46.7352 102.903 46.8657C102.774 46.9962 102.621 47.0995 102.452 47.1695C102.283 47.2396 102.103 47.2751 101.92 47.2737H95.5199C94.5292 47.2693 93.5724 46.9086 92.82 46.2561C92.0679 45.6039 91.5694 44.7022 91.4133 43.7121C88.6399 46.95 84.2133 48.0831 80.5333 47.8673C70.88 47.2737 65.4933 40.3123 65.4933 30.5987C65.4933 20.7772 71.8933 13.2222 81.4933 13.2222C86.1333 13.2222 89.44 14.8411 91.1466 17.5393L91.5733 15.1109C91.6312 14.7949 91.7959 14.509 92.0391 14.3023C92.2823 14.0956 92.5891 13.9808 92.9066 13.9777ZM77.7066 30.5987C77.7066 35.2398 80.64 37.8839 84.32 37.8839C88.4266 37.8839 91.0933 34.5381 91.0933 30.5987C91.0933 26.1736 88.64 23.2595 84.32 23.2595C80.64 23.2595 77.7066 25.9578 77.7066 30.5987Z" fill="white"/>
<path d="M121.867 23.2581L125.387 34.0512L128.693 23.2581L131.893 14.8398C131.992 14.5797 132.169 14.357 132.398 14.2024C132.627 14.0478 132.898 13.9688 133.173 13.9763H139.04C139.719 13.9765 140.388 14.1456 140.988 14.4688C141.587 14.7919 142.099 15.2592 142.479 15.8295C142.858 16.3998 143.093 17.0556 143.163 17.7393C143.233 18.4231 143.136 19.1138 142.88 19.7506L132 46.5708C131.901 46.8309 131.725 47.0537 131.496 47.2082C131.266 47.3628 130.995 47.4418 130.72 47.4343H122.187C121.375 47.4235 120.583 47.1792 119.903 46.7301C119.223 46.2811 118.683 45.6457 118.347 44.898L106.08 15.8651C105.991 15.6519 105.956 15.4197 105.977 15.1893C105.998 14.9589 106.076 14.7375 106.203 14.545C106.33 14.3524 106.502 14.1947 106.704 14.0861C106.906 13.9774 107.131 13.9212 107.36 13.9224H117.333C117.609 13.9149 117.88 13.9938 118.109 14.1485C118.338 14.3031 118.514 14.5257 118.613 14.7858L121.867 23.2581Z" fill="white"/>
<path d="M171.573 14.0836H177.813C178.915 14.085 179.973 14.529 180.754 15.3181C181.532 16.1071 181.971 17.1769 181.973 18.2928V45.9767C181.975 46.1612 181.939 46.3444 181.87 46.5152C181.801 46.6859 181.699 46.8411 181.57 46.9717C181.442 47.1022 181.287 47.2055 181.118 47.2756C180.949 47.3456 180.77 47.381 180.587 47.3797H174.187C173.196 47.3753 172.239 47.0146 171.487 46.3621C170.734 45.7097 170.236 44.808 170.08 43.8181C167.307 47.056 162.88 48.1892 159.2 47.9733C149.547 47.3797 144.16 40.4183 144.16 30.7047C144.16 20.8832 150.56 13.3281 160.16 13.3281C164.8 13.3281 168.107 14.9471 169.813 17.6453L170.24 15.2169C170.298 14.9008 170.462 14.615 170.706 14.4082C170.949 14.2015 171.256 14.0868 171.573 14.0836ZM156.373 30.7586C156.373 35.3996 159.307 38.0439 162.987 38.0439C167.093 38.0439 169.76 34.6981 169.76 30.7586C169.76 26.3335 167.307 23.4196 162.987 23.4196C159.307 23.4196 156.373 26.1177 156.373 30.7586Z" fill="white"/>
<path d="M200 4.20926V45.8699C200.002 46.0544 199.966 46.2375 199.897 46.4084C199.827 46.5792 199.726 46.7342 199.596 46.8649C199.467 46.9954 199.314 47.0987 199.145 47.1687C198.976 47.2388 198.796 47.2741 198.613 47.2729H192C190.898 47.2715 189.84 46.8276 189.059 46.0386C188.279 45.2494 187.842 44.1796 187.84 43.0636V1.40311C187.838 1.2185 187.874 1.03546 187.943 0.864652C188.012 0.69384 188.114 0.538652 188.243 0.408107C188.371 0.277561 188.526 0.17426 188.695 0.104206C188.864 0.0341524 189.043 -0.00125746 189.227 3.40999e-05H195.84C196.942 0.00146202 198 0.445392 198.78 1.23447C199.559 2.02354 199.998 3.09335 200 4.20926Z" fill="white"/>
<path d="M231.627 14.0314H237.867C238.969 14.0328 240.027 14.4767 240.807 15.2658C241.586 16.0549 242.025 17.1247 242.027 18.2406V45.9245C242.028 46.109 241.993 46.2921 241.924 46.4628C241.854 46.6336 241.753 46.7888 241.623 46.9195C241.495 47.05 241.34 47.1533 241.172 47.2233C241.003 47.2934 240.823 47.3287 240.64 47.3275H234.24C233.25 47.3229 232.292 46.9623 231.54 46.3099C230.788 45.6574 230.29 44.7558 230.133 43.7659C227.36 47.0038 222.933 48.1369 219.253 47.9211C209.6 47.3275 204.213 40.3661 204.213 30.6525C204.213 20.831 210.613 13.2759 220.213 13.2759C224.853 13.2759 228.16 14.8948 229.867 17.5931L230.293 15.1646C230.343 14.8449 230.507 14.5541 230.75 14.3459C230.996 14.1377 231.307 14.026 231.627 14.0314ZM216.427 30.6525C216.427 35.2934 219.36 37.9376 223.04 37.9376C227.147 37.9376 229.813 34.5918 229.813 30.6525C229.813 26.2274 227.36 23.3133 223.04 23.3133C219.36 23.3133 216.427 26.0116 216.427 30.6525Z" fill="white"/>
<path d="M251.893 35.2397C260.8 35.2397 260.747 47.4357 251.893 47.4357C243.2 47.3816 243.04 35.2397 251.893 35.2397Z" fill="white"/>
<path d="M290.293 40.4197C290.469 40.6092 290.604 40.8338 290.69 41.0789C290.773 41.3241 290.807 41.5845 290.787 41.8436C290.768 42.1028 290.693 42.3547 290.572 42.5835C290.45 42.8121 290.283 43.0126 290.08 43.1719C286.656 45.9047 282.439 47.4217 278.08 47.4893C268.48 47.4893 259.467 42.6864 259.467 30.2745C259.467 18.1865 268.64 12.844 277.867 12.844C281.115 12.8288 284.313 13.6654 287.147 15.2724C287.628 15.5516 288.041 15.9376 288.354 16.4014C288.668 16.8652 288.873 17.3948 288.955 17.9504C289.038 18.506 288.994 19.0731 288.828 19.6094C288.663 20.1456 288.38 20.637 288 21.0466L285.44 23.8526C285.127 24.1838 284.704 24.3883 284.254 24.4281C283.803 24.4677 283.351 24.3399 282.987 24.0686C281.689 23.1573 280.139 22.685 278.56 22.7195C273.92 22.7195 271.36 26.1732 271.36 30.3285C271.36 33.944 273.813 37.1819 278.453 37.1819C279.835 37.1947 281.195 36.8411 282.4 36.1566C283.109 35.7584 283.931 35.6112 284.732 35.7383C285.534 35.8654 286.27 36.2594 286.827 36.8581L290.293 40.4197Z" fill="white"/>
<path d="M329.013 30.2743C329.013 42.3623 319.52 47.6508 310.24 47.6508C300.8 47.6508 291.467 42.4164 291.467 30.2743C291.467 17.9703 300.693 12.8438 310.24 12.8438C319.947 12.8438 329.013 18.1863 329.013 30.2743ZM317.013 30.2743C317.013 26.4428 314.56 22.9892 310.24 22.9892C305.92 22.9892 303.467 26.4428 303.467 30.2743C303.467 34.1058 305.92 37.5056 310.24 37.5056C314.347 37.5056 317.013 34.3216 317.013 30.2743Z" fill="white"/>
<path d="M356.693 46.8397C355.463 46.8388 354.283 46.3439 353.413 45.4637C352.544 44.5834 352.053 43.3898 352.053 42.1448V28.4378C352.053 24.6063 350.773 23.3112 348.587 23.3112C346.507 23.3112 344.32 24.9841 344.267 28.6536V45.1668C344.27 45.3944 344.227 45.6203 344.142 45.8312C344.059 46.042 343.932 46.2335 343.772 46.3946C343.614 46.5554 343.424 46.6826 343.216 46.7682C343.008 46.8539 342.784 46.8966 342.56 46.8936H336.747C335.516 46.8929 334.336 46.3979 333.467 45.5176C332.597 44.6372 332.107 43.4436 332.107 42.1986V15.3244C332.103 15.0968 332.146 14.8709 332.231 14.6601C332.315 14.4492 332.441 14.2577 332.599 14.0967C332.759 13.9358 332.947 13.8087 333.157 13.7229C333.365 13.6372 333.587 13.5946 333.813 13.5975H338.773C339.808 13.5903 340.814 13.9387 341.628 14.5857C342.443 15.2327 343.015 16.14 343.253 17.1592C345.333 14.2451 348.907 12.842 352.32 12.896C355.627 12.95 358.827 14.5149 360.48 17.5909C363.2 14.1372 366.88 12.7881 371.413 12.7881C378.507 12.7881 384 17.2132 384 28.276V45.0589C384.003 45.2865 383.961 45.5124 383.875 45.7233C383.792 45.9341 383.666 46.1256 383.506 46.2865C383.347 46.4475 383.157 46.5746 382.949 46.6603C382.741 46.746 382.517 46.7887 382.293 46.7857H376.373C375.143 46.7848 373.963 46.29 373.093 45.4097C372.224 44.5293 371.733 43.3357 371.733 42.0907V28.4378C371.733 24.93 370.133 23.527 368.32 23.527C366.24 23.527 364.053 24.93 364.053 28.5997V45.1668C364.057 45.3944 364.014 45.6203 363.929 45.8312C363.845 46.042 363.719 46.2335 363.559 46.3946C363.401 46.5554 363.211 46.6826 363.003 46.7682C362.795 46.8539 362.571 46.8966 362.347 46.8936H356.693V46.8397Z" fill="white"/>
</g>
<defs>
<clipPath id="clip0_2025_954">
<rect width="384" height="48" fill="white"/>
</clipPath>
</defs>
</svg>
