<svg width="64" height="64" viewBox="0 0 64 64" fill="none" xmlns="http://www.w3.org/2000/svg">
<rect width="64" height="64" fill="#2446FF"/>
<path d="M51 45.9818C51.0036 47.1692 50.6548 48.3311 49.9977 49.3201C49.3406 50.3092 48.4048 51.0811 47.3087 51.538C46.2127 51.9949 45.0057 52.1164 43.8406 51.8869C42.6756 51.6575 41.6048 51.0875 40.7638 50.2491C39.9229 49.4107 39.3496 48.3417 39.1166 47.1773C38.8836 46.0129 39.0014 44.8056 39.455 43.7081C39.9086 42.6107 40.6776 41.6726 41.6647 41.0125C42.6517 40.3524 43.8125 40 45 40C45.787 39.9976 46.5668 40.1506 47.2947 40.4501C48.0225 40.7497 48.6841 41.1899 49.2415 41.7456C49.7989 42.3013 50.2411 42.9615 50.5429 43.6884C50.8446 44.4154 51 45.1947 51 45.9818Z" fill="#FFB400"/>
<path fill-rule="evenodd" clip-rule="evenodd" d="M12 12V19.6278H23.9102V52H33.0898V19.6278H45V12H12Z" fill="white"/>
</svg>
