<svg width="266" height="64" viewBox="0 0 266 64" fill="none" xmlns="http://www.w3.org/2000/svg">
<g clip-path="url(#clip0_2023_143)">
<path d="M101.278 14.9863C99.4304 14.9914 97.6066 15.3992 95.9333 16.1815C94.26 16.9637 92.7774 18.1015 91.5889 19.5156V16.6011H81.8806V64.0005H92.672V47.3999C95.0834 49.4224 98.1302 50.531 101.278 50.5309C105.914 50.4635 110.334 48.5595 113.568 45.2369C116.802 41.9142 118.586 37.4442 118.528 32.8079C118.586 28.1715 116.802 23.7015 113.568 20.3789C110.334 17.0562 105.914 15.1522 101.278 15.0848M118.528 32.8079C118.586 28.1715 116.802 23.7015 113.568 20.3789C110.334 17.0562 105.914 15.1522 101.278 15.0848M100.214 40.6848C98.6437 40.7516 97.0892 40.347 95.7506 39.5231C94.4119 38.6992 93.3504 37.4936 92.7026 36.0614C92.0547 34.6293 91.8502 33.036 92.1153 31.4867C92.3803 29.9373 93.1029 28.5027 94.19 27.3674C95.2771 26.232 96.679 25.4479 98.2154 25.1158C99.7518 24.7838 101.352 24.919 102.811 25.504C104.27 26.0891 105.521 27.0973 106.402 28.3989C107.283 29.7005 107.755 31.236 107.756 32.8079C107.78 33.8207 107.603 34.8282 107.237 35.7727C106.87 36.7171 106.321 37.58 105.62 38.3117C104.919 39.0435 104.081 39.6297 103.154 40.037C102.226 40.4442 101.227 40.6643 100.214 40.6848Z" fill="#2446FF"/>
<path d="M136.31 44.0714C136.314 45.3536 135.937 46.6082 135.228 47.6762C134.518 48.7442 133.508 49.5776 132.324 50.071C131.141 50.5644 129.838 50.6955 128.58 50.4478C127.322 50.2 126.165 49.5845 125.257 48.6793C124.349 47.774 123.73 46.6196 123.479 45.3623C123.227 44.105 123.354 42.8013 123.844 41.6164C124.334 40.4314 125.164 39.4184 126.23 38.7056C127.296 37.9928 128.549 37.6123 129.831 37.6123C130.681 37.6097 131.523 37.7749 132.309 38.0983C133.095 38.4218 133.81 38.8971 134.411 39.4972C135.013 40.0972 135.491 40.8101 135.817 41.5951C136.142 42.38 136.31 43.2215 136.31 44.0714Z" fill="#FFB400"/>
<path fill-rule="evenodd" clip-rule="evenodd" d="M68.9231 12.072C67.7266 12.0759 66.5558 11.7247 65.5591 11.0627C64.5623 10.4008 63.7844 9.458 63.3238 8.35367C62.8632 7.24934 62.7406 6.03317 62.9717 4.85916C63.2027 3.68514 63.7769 2.60609 64.6216 1.75864C65.4663 0.911181 66.5435 0.333441 67.7168 0.0985721C68.89 -0.136297 70.1066 -0.0177305 71.2124 0.439258C72.3182 0.896246 73.2636 1.6711 73.9287 2.66571C74.5939 3.66031 74.949 4.82993 74.949 6.02647C74.9516 6.81945 74.7976 7.60514 74.496 8.33851C74.1943 9.07187 73.7508 9.73848 73.191 10.3001C72.6312 10.8618 71.9661 11.3074 71.2337 11.6114C70.5013 11.9155 69.7161 12.072 68.9231 12.072Z" fill="#2446FF"/>
<path d="M74.3386 16.6011H63.5669V48.9358H74.3386V16.6011Z" fill="#2446FF"/>
<path fill-rule="evenodd" clip-rule="evenodd" d="M0 1.51611V10.5549H14.0012V48.9155H24.7926V10.5549H38.7938V1.51611H0Z" fill="#2446FF"/>
<path d="M158.937 40.6255C156.848 40.6255 154.844 39.7956 153.367 38.3184C151.89 36.8412 151.06 34.8376 151.06 32.7486C151.06 30.6595 151.89 28.6559 153.367 27.1787C154.844 25.7015 156.848 24.8716 158.937 24.8716C159.961 24.8751 160.974 25.0923 161.91 25.5094C162.846 25.9265 163.684 26.5342 164.372 27.2938L171.5 20.1652C169.017 17.6983 165.859 16.022 162.424 15.3476C158.99 14.6733 155.432 15.0311 152.2 16.376C148.969 17.7208 146.208 19.9925 144.265 22.9045C142.323 25.8165 141.287 29.2384 141.287 32.7387C141.287 36.239 142.323 39.6609 144.265 42.5729C146.208 45.4849 148.969 47.7566 152.2 49.1014C155.432 50.4463 158.99 50.8041 162.424 50.1298C165.859 49.4554 169.017 47.7791 171.5 45.3122L164.372 38.2033C163.681 38.9591 162.842 39.5643 161.907 39.9811C160.972 40.3979 159.96 40.6172 158.937 40.6255Z" fill="#2446FF"/>
<path fill-rule="evenodd" clip-rule="evenodd" d="M253.243 14.9668C251.244 14.8406 249.248 15.2683 247.477 16.2029C245.705 17.1375 244.225 18.5427 243.2 20.264C242.218 18.5935 240.803 17.2194 239.105 16.287C237.406 15.3545 235.487 14.8984 233.551 14.9668C231.646 14.9123 229.762 15.3764 228.101 16.3094C226.44 17.2424 225.063 18.6093 224.118 20.264V16.6013H214.43V48.9163H225.201V28.7514C225.159 28.1038 225.251 27.4545 225.47 26.8436C225.689 26.2327 226.031 25.6733 226.475 25.1999C226.919 24.7264 227.455 24.3491 228.051 24.0911C228.646 23.8331 229.288 23.7 229.937 23.7C230.586 23.7 231.228 23.8331 231.824 24.0911C232.419 24.3491 232.956 24.7264 233.399 25.1999C233.843 25.6733 234.185 26.2327 234.404 26.8436C234.624 27.4545 234.715 28.1038 234.673 28.7514V48.9163H244.815V28.7514C244.773 28.1038 244.865 27.4545 245.084 26.8436C245.303 26.2327 245.645 25.6733 246.089 25.1999C246.533 24.7264 247.069 24.3491 247.664 24.0911C248.26 23.8331 248.902 23.7 249.551 23.7C250.2 23.7 250.842 23.8331 251.437 24.0911C252.033 24.3491 252.569 24.7264 253.013 25.1999C253.457 25.6733 253.799 26.2327 254.018 26.8436C254.237 27.4545 254.329 28.1038 254.287 28.7514V48.9163H265.059V26.7231C265.059 19.4369 260.49 14.9077 253.243 14.9077" fill="#2446FF"/>
<path d="M191.252 14.9863C187.746 14.9863 184.32 16.0258 181.405 17.9732C178.491 19.9206 176.219 22.6886 174.878 25.9271C173.536 29.1655 173.185 32.7291 173.869 36.167C174.553 39.6049 176.241 42.7629 178.72 45.2415C181.198 47.7201 184.356 49.4081 187.794 50.0919C191.232 50.7758 194.796 50.4248 198.034 49.0834C201.272 47.742 204.04 45.4704 205.988 42.5558C207.935 39.6413 208.975 36.2147 208.975 32.7094C208.975 28.009 207.107 23.501 203.784 20.1773C200.46 16.8536 195.952 14.9863 191.252 14.9863ZM191.252 40.5863C189.681 40.6531 188.127 40.2486 186.788 39.4246C185.449 38.6007 184.388 37.3951 183.74 35.963C183.092 34.5308 182.888 32.9376 183.153 31.3882C183.418 29.8389 184.14 28.4043 185.227 27.2689C186.315 26.1336 187.716 25.3494 189.253 25.0174C190.789 24.6853 192.39 24.8205 193.849 25.4056C195.308 25.9907 196.558 26.9988 197.439 28.3004C198.321 29.602 198.792 31.1375 198.794 32.7094C198.836 34.7535 198.066 36.7309 196.652 38.2076C195.238 39.6843 193.296 40.5398 191.252 40.5863Z" fill="#2446FF"/>
<path d="M56.0246 16.4238C54.1011 16.4203 52.2071 16.8976 50.515 17.8124C48.823 18.7273 47.3864 20.0506 46.336 21.662V16.6011H36.6277V48.9162H47.4585V35.4466C47.4084 34.2463 47.6079 33.0486 48.0444 31.9293C48.4809 30.81 49.145 29.7934 49.9945 28.9439C50.844 28.0943 51.8606 27.4303 52.9799 26.9938C54.0992 26.5573 55.2969 26.3578 56.4972 26.4078C57.0658 26.4171 57.6325 26.4764 58.1908 26.5851V16.7389C57.4737 16.6294 56.7499 16.5702 56.0246 16.5617" fill="#2446FF"/>
</g>
<defs>
<clipPath id="clip0_2023_143">
<rect width="265.058" height="64" fill="white"/>
</clipPath>
</defs>
</svg>
