<svg width="147" height="64" viewBox="0 0 147 64" fill="none" xmlns="http://www.w3.org/2000/svg">
<g clip-path="url(#clip0_2023_132)">
<path d="M145.718 55.327C145.851 55.2209 145.958 55.0851 146.029 54.9304C146.104 54.7171 146.138 54.4912 146.127 54.2653V32.4934C146.137 32.2635 146.104 32.0337 146.029 31.8161C145.96 31.6648 145.853 31.5344 145.718 31.4378C145.388 31.1855 144.624 31.0594 143.424 31.0594C142.223 31.0594 141.446 31.1855 141.093 31.4378C140.957 31.5344 140.85 31.6648 140.781 31.8161C140.713 32.0349 140.686 32.2647 140.702 32.4934V54.2777C140.683 54.4707 140.707 54.6656 140.772 54.8482C140.838 55.0308 140.943 55.1965 141.08 55.3333C141.41 55.5856 142.187 55.7117 143.411 55.7117C144.636 55.7117 145.405 55.5833 145.718 55.327ZM129.474 55.4491C130.608 55.081 131.648 54.4733 132.525 53.6673C133.322 52.9297 133.933 52.0137 134.307 50.9946C134.689 49.9069 134.879 48.7609 134.869 47.608V32.4933C134.892 32.2982 134.87 32.1003 134.805 31.9151C134.739 31.7299 134.631 31.5623 134.49 31.4255C134.132 31.1733 133.368 31.0472 132.196 31.0472C131.024 31.0472 130.247 31.1733 129.865 31.4255C129.724 31.517 129.613 31.6488 129.548 31.8038C129.466 32.0246 129.425 32.2581 129.426 32.4933V47.5408C129.422 48.1638 129.317 48.782 129.114 49.3714C128.869 50.0392 128.384 50.5917 127.754 50.9213C126.898 51.3648 125.94 51.5753 124.977 51.5315C124.287 51.5461 123.599 51.4493 122.939 51.2447C122.424 51.0828 121.952 50.8052 121.56 50.4331C121.198 50.0796 120.926 49.6444 120.767 49.1639C120.595 48.6381 120.511 48.0877 120.517 47.5346V32.4931C120.54 32.2979 120.518 32.1001 120.453 31.9148C120.387 31.7296 120.279 31.562 120.138 31.4252C119.78 31.173 119.016 31.0469 117.844 31.0469C116.672 31.0469 115.895 31.173 115.513 31.4252C115.372 31.5168 115.261 31.6485 115.196 31.8035C115.131 32.0273 115.106 32.2607 115.123 32.4931V47.6015C115.112 48.7544 115.302 49.9003 115.684 50.9881C116.048 52.0136 116.65 52.938 117.441 53.6852C118.321 54.4825 119.361 55.0818 120.492 55.4426C123.421 56.2969 126.533 56.2969 129.462 55.4426L129.474 55.4491ZM102.857 55.327C102.989 55.2219 103.091 55.0855 103.156 54.9304C103.227 54.716 103.258 54.4907 103.248 54.2653V35.6845H108.679C109.008 35.6935 109.337 35.6545 109.655 35.5685C109.78 35.5269 109.896 35.4606 109.996 35.3736C110.095 35.2867 110.177 35.1808 110.235 35.0621C110.43 34.6391 110.557 34.1882 110.613 33.7257C110.691 33.274 110.736 32.8172 110.747 32.3589C110.755 32.1388 110.73 31.9189 110.674 31.706C110.627 31.5496 110.525 31.4154 110.387 31.3276C110.27 31.2606 110.142 31.2152 110.009 31.1934C109.773 31.1595 109.534 31.1452 109.295 31.1507H92.3862C92.0569 31.1416 91.728 31.1807 91.4099 31.2666C91.2791 31.305 91.1575 31.3697 91.0525 31.4568C90.9476 31.5439 90.8616 31.6515 90.7997 31.7731C90.6114 32.1407 90.4837 32.5363 90.4214 32.9447C90.3315 33.442 90.2865 33.9464 90.2872 34.4519C90.2882 34.6815 90.3232 34.9098 90.3909 35.1292C90.4392 35.2885 90.546 35.4237 90.6899 35.5075C91.0318 35.6552 91.405 35.716 91.7761 35.6845H97.8232V54.2528C97.7989 54.4507 97.8235 54.6515 97.8948 54.8376C97.966 55.0238 98.0818 55.1896 98.232 55.3207C98.5615 55.5729 99.3385 55.699 100.563 55.699C101.787 55.699 102.55 55.577 102.851 55.3329L102.857 55.327Z" fill="white"/>
<path d="M79.9899 7.05392C79.9899 8.92473 79.2467 10.7189 77.9238 12.0418C76.601 13.3647 74.8068 14.1078 72.9359 14.1078C71.0651 14.1078 69.2709 13.3647 67.9481 12.0418C66.6252 10.7189 65.882 8.92473 65.882 7.05392C65.882 5.1831 66.6252 3.38891 67.9481 2.06605C69.2709 0.743179 71.0651 0 72.9359 0C74.8068 0 76.601 0.743179 77.9238 2.06605C79.2467 3.38891 79.9899 5.1831 79.9899 7.05392ZM3.7773 17.8238H22.8096C24.689 17.8238 26.0803 18.434 26.6294 21.064C27.2396 24.0113 27.0077 26.0616 23.676 26.2936L17.6961 26.7207C22.1019 54.4848 47.7914 63.5411 61.7827 33.6219C64.1014 28.6733 64.8336 27.7702 67.3903 28.3986C70.8257 29.2529 71.2955 31.0346 69.648 36.0078C57.5721 72.8866 16.9217 76.5873 8.94684 27.349L4.10784 27.6968C0.15985 27.9775 0.00130209 24.6458 0.00130209 22.8151C-0.0109021 19.1356 1.34984 17.8238 3.77832 17.8238L3.7773 17.8238Z" fill="white"/>
</g>
<defs>
<clipPath id="clip0_2023_132">
<rect width="146.127" height="64" fill="white"/>
</clipPath>
</defs>
</svg>
