<svg width="64" height="64" viewBox="0 0 64 64" fill="none" xmlns="http://www.w3.org/2000/svg">
<rect width="64" height="64" fill="#1414D2"/>
<path d="M13.5704 8.17921C8.95978 8.17654 4.38394 9.01454 0.0480566 10.6556L0 10.675V12.3736C0.262462 12.2692 0.713455 12.1105 1.37146 11.9519C1.70046 11.8745 2.02946 11.8048 2.35477 11.7468L2.69856 11.6965C6.94971 11.058 10.6094 11.9635 12.8089 14.6024C17.6183 20.3795 13.6333 32.2469 3.90367 41.1079C2.66529 42.2378 1.39364 43.2593 0.103507 44.1763L0 44.246V47.0745C0.391845 46.7921 0.783691 46.5057 1.16814 46.2078C1.69676 47.1442 5.21968 53.0295 5.28252 53.1302C5.54498 52.9522 6.3028 52.4453 7.22326 51.7913C8.47596 50.8959 9.68852 49.9404 10.8571 48.928L5.47844 42.4699C6.02185 41.9089 7.8443 40.0128 9.28969 38.2136C9.62979 38.4844 14.1101 42.1217 15.903 43.8049C17.2915 42.2297 18.5783 40.5596 19.7549 38.8056C17.2819 37.1069 12.1509 34.0423 12.1509 34.0423C13.0048 32.6261 13.7368 31.2061 14.3356 29.8053C14.3356 29.8053 20.3205 32.2547 22.764 33.5122C23.479 31.9987 24.0809 30.4295 24.5643 28.8186C21.533 27.534 16.1211 26.1836 15.6332 26.0636C15.9511 24.8409 16.1618 23.6491 16.2468 22.4999C19.358 22.8462 22.4416 23.4255 25.4736 24.2334C25.5974 22.9833 25.5813 21.7224 25.4256 20.4762C22.3796 19.8924 19.2915 19.583 16.195 19.5514C16.0908 18.6687 15.886 17.8023 15.5851 16.9705C15.5851 16.9705 19.9213 16.572 24.4534 17.1292C24.2088 16.6097 23.9309 16.1081 23.6216 15.6278C23.38 15.2795 23.1285 14.9389 22.8675 14.6063C22.8675 14.6063 19.0341 14.3006 14.5944 14.9971C14.1981 14.4081 13.7379 13.8692 13.2229 13.3913C15.6874 12.8431 18.2002 12.5681 20.7197 12.571C19.6034 11.77 18.4426 11.2322 18.4426 11.2322C15.3078 11.2941 12.0215 12.2073 11.7591 12.2808C10.8645 11.7313 10.1658 11.5108 10.0808 11.4837L10.0734 11.4798L10.0771 11.4759C10.3321 11.3947 12.7535 10.6285 14.5279 10.4273H14.5205C12.1065 10.0946 8.78325 10.8878 8.3988 10.9845C7.81405 10.8689 7.22439 10.7824 6.6318 10.7253C6.6318 10.7253 8.42098 10.1836 10.7868 9.83532C12.942 9.51802 20.1689 8.58937 24.7861 15.0938C29.1592 21.2539 27.5697 30.8114 21.6328 39.978C19.9828 42.5581 18.108 44.9726 16.0324 47.1906C14.2136 49.1679 12.3727 50.8782 10.6168 52.3369C7.92133 54.6072 4.99869 56.565 1.90008 58.1759C1.26795 58.528 0.635825 58.8608 0 59.178V62.1575C5.07181 59.6462 8.07719 57.2549 8.07719 57.2549L12.3468 63.6008C12.3468 63.6008 15.6553 61.43 18.9749 58.5705L13.8588 52.5072H13.8551C15.7539 50.7493 17.5384 48.8607 19.1967 46.854C19.1967 46.854 24.5051 51.7875 25.0855 52.3679C26.7712 50.379 28.3164 48.2895 29.6878 46.111C27.5952 44.4051 25.4551 42.7637 23.2704 41.1892C23.2704 41.1892 25.433 37.5674 26.3128 35.3579C26.3128 35.3579 29.8135 37.3584 33.122 39.6066C33.9316 37.7106 34.6044 35.7449 35.0849 33.7367C32.9113 32.363 28.0798 30.1072 28.0798 30.1072C28.4938 28.4046 28.7415 26.7408 28.8117 25.135C28.8117 25.135 32.3235 26.2997 35.8649 28.1608C35.9241 26.6243 35.8237 25.0856 35.5655 23.5717C32.5675 22.0627 28.5788 21.0411 28.5788 21.0411C28.3757 19.8018 28.0281 18.5933 27.5438 17.4426C27.5438 17.4426 31.1702 18.1545 34.3752 19.5166C33.9301 18.452 33.3275 17.4674 32.5897 16.599C30.5344 15.4227 25.8618 14.5289 25.8618 14.5289C25.3527 13.8524 24.786 13.2256 24.1687 12.6561C25.64 12.8689 27.9319 13.4145 27.9319 13.4145C25.4108 12.1221 22.5718 11.3792 22.5385 11.3676C22.5348 11.3676 21.9766 10.9807 21.3038 10.6053C21.3038 10.6053 28.3496 12.1183 32.1757 15.1403C32.5232 15.4111 32.8559 15.7168 33.1923 16.0573C33.5804 16.4443 33.9168 16.8776 34.2125 17.3033C41.8387 28.2266 35.2439 49.2762 16.6571 63.9955H23.5699C23.0983 63.4519 22.6288 62.9063 22.1614 62.3587C24.3485 60.2504 26.3847 57.9768 28.2535 55.5563L32.8559 60.3505C34.6598 58.203 36.3307 55.9084 37.8094 53.4939C37.8094 53.4939 35.3918 51.0678 32.8189 48.7268C34.8853 45.2327 36.1607 41.7502 36.1607 41.7502C36.3566 41.9011 38.8629 43.8513 41.4321 46.3548C42.6705 43.5108 43.4394 39.889 43.4394 39.889C40.763 37.3391 38.0164 35.5166 38.0164 35.5166C38.4338 33.5856 38.6764 31.6176 38.7409 29.639C38.7409 29.639 41.6502 31.4498 44.1639 33.7638C44.1943 32.0508 44.038 30.3398 43.6982 28.6639C41.2029 26.4041 38.4341 24.8873 38.4341 24.8873C38.4304 24.8873 38.1643 22.9913 37.2771 20.7006L37.2992 20.7122C37.4693 20.8012 38.7927 21.5055 41.129 23.2467C39.3065 20.7741 36.1718 18.3403 36.1718 18.3403C35.8624 17.7945 35.5204 17.2698 35.1478 16.7693C37.72 18.6106 40.0708 20.7699 42.1493 23.2003C42.9182 24.2102 43.6242 25.4987 44.1713 26.9729C44.3192 27.3754 44.4486 27.7778 44.5632 28.1763C46.271 34.2087 45.2212 40.9879 43.2952 46.5405C41.0735 52.9406 37.3732 58.9188 33.0333 63.9955H41.2177C42.0125 62.8192 42.7259 61.697 43.4579 60.4085C42.9108 59.5379 40.4192 56.4888 40.4192 56.4888C41.803 54.1244 43.0009 51.6463 44.0013 49.0789C44.0013 49.0789 45.6648 51.0097 46.9697 52.9947C48.2524 49.7831 48.8513 46.4322 48.8513 46.4322C47.9715 44.896 46.0049 42.5125 46.0049 42.5125C46.4374 40.4707 46.6763 38.3892 46.7183 36.2982C47.7016 37.5287 49.0287 39.4711 49.0287 39.4711V39.4595C48.7774 35.652 46.8995 32.185 46.4854 31.4576L46.4448 31.2215C46.2028 30.0277 45.8955 28.8495 45.5243 27.6926C47.6388 30.9546 48.9955 34.6228 48.9955 34.6228C49.8642 36.9831 50.3854 39.9625 50.3854 43.2051C50.3854 44.9231 50.0564 53.8847 43.517 63.9955H45.5871C46.8934 61.4593 48.049 58.8412 49.0472 56.156C49.0731 56.2373 49.5241 57.4794 49.8568 58.7679C50.5517 56.2025 51.0471 53.5287 51.3244 50.7814C51.2356 50.4254 51.0508 49.845 50.9473 49.4968C50.9473 49.4968 51.3909 47.1597 51.5683 44.4975C52.2285 49.5291 51.9866 54.6455 50.8549 59.5843C50.4889 61.105 50.0453 62.5986 49.561 63.9955H51.3244C52.7956 59.5611 53.5534 54.8869 53.5534 50.1894C53.5534 27.0232 35.6173 8.17921 13.5704 8.17921ZM0 35.8532V41.4407C0.946344 40.7983 1.89269 40.0864 2.82055 39.3009L0 35.8532ZM1.28644 12.7258C0.844912 13.0347 0.415736 13.3626 0 13.7086V15.0048C1.18985 14.0316 2.44365 13.1472 3.7521 12.3582C2.92259 12.416 2.09839 12.5389 1.28644 12.7258ZM4.89067 34.7272L0 31.148V28.0912C2.48785 24.3882 2.84642 20.1357 0.665398 18.0617C0.461673 17.8681 0.238581 17.6982 0 17.5548V16.0302L0.0406629 16.0535C0.0406629 16.0535 3.15694 13.4726 5.63 12.362C6.22886 12.4046 6.80184 12.4936 7.34525 12.6252C3.6449 14.2658 0.913074 16.305 0.724545 16.4481C1.1053 16.6842 1.44909 16.9782 1.49714 17.0169C3.89518 15.4884 6.43553 14.2191 9.07898 13.2288C9.615 13.4842 10.1325 13.8053 10.5798 14.1652C6.28062 15.4305 2.14776 17.6863 2.14776 17.6863C2.38065 17.9727 2.58766 18.2784 2.7651 18.6073C2.7884 18.5967 2.81182 18.5864 2.83533 18.5763C7.23805 16.6029 11.9106 15.593 11.9106 15.593C12.2766 16.1192 12.5797 16.7035 12.8089 17.3497C12.8089 17.3497 8.6132 17.8527 3.21609 19.6636C3.45267 20.4452 3.51921 21.0295 3.51921 21.0373C3.51921 21.0373 8.60951 19.8455 13.3006 19.7139C13.3638 20.5743 13.3415 21.4393 13.234 22.2948C10.4541 22.1439 3.83713 22.5115 3.57466 22.5309C3.57466 22.5309 3.55249 23.5292 3.30481 24.4694C3.30481 24.4694 8.14003 24.6319 12.5391 25.4909C12.1926 26.6087 11.7611 27.6956 11.2489 28.7413C8.41841 27.8903 5.56733 27.1162 2.69856 26.4196C2.38079 27.2352 1.99484 28.0199 1.5452 28.7645C1.5452 28.7645 6.97928 31.2486 9.06789 32.4636L9.07159 32.4675C8.16591 33.8837 6.36934 35.8726 6.36934 35.8726C5.87902 35.4872 5.38612 35.1054 4.89067 34.7272Z" fill="white"/>
</svg>
