<svg width="338" height="64" viewBox="0 0 338 64" fill="none" xmlns="http://www.w3.org/2000/svg">
<g clip-path="url(#clip0_2025_279)">
<path d="M282.709 8.17921C278.098 8.17654 273.523 9.01454 269.187 10.6556L269.139 10.675V12.3736C269.401 12.2692 269.852 12.1105 270.51 11.9519C270.839 11.8745 271.168 11.8048 271.493 11.7468L271.837 11.6965C276.088 11.058 279.748 11.9635 281.948 14.6024C286.757 20.3795 282.772 32.2469 273.042 41.1079C271.804 42.2378 270.532 43.2593 269.242 44.1763L269.139 44.246V47.0745C269.531 46.7921 269.922 46.5057 270.307 46.2078C270.835 47.1442 274.358 53.0295 274.421 53.1302C274.684 52.9522 275.441 52.4453 276.362 51.7913C277.615 50.8959 278.827 49.9404 279.996 48.928L274.617 42.4699C275.161 41.9089 276.983 40.0128 278.428 38.2136C278.768 38.4844 283.249 42.1217 285.042 43.8049C286.43 42.2297 287.717 40.5596 288.894 38.8056C286.421 37.1069 281.29 34.0423 281.29 34.0423C282.144 32.6261 282.875 31.2061 283.474 29.8053C283.474 29.8053 289.459 32.2547 291.903 33.5122C292.618 31.9987 293.22 30.4295 293.703 28.8186C290.672 27.534 285.26 26.1836 284.772 26.0636C285.09 24.8409 285.3 23.6491 285.385 22.4999C288.497 22.8462 291.58 23.4255 294.612 24.2334C294.736 22.9833 294.72 21.7224 294.564 20.4762C291.518 19.8924 288.43 19.583 285.334 19.5514C285.229 18.6687 285.025 17.8023 284.724 16.9705C284.724 16.9705 289.06 16.572 293.592 17.1292C293.347 16.6097 293.07 16.1081 292.76 15.6278C292.519 15.2795 292.267 14.9389 292.006 14.6063C292.006 14.6063 288.173 14.3006 283.733 14.9971C283.337 14.4081 282.877 13.8692 282.362 13.3913C284.826 12.8431 287.339 12.5681 289.858 12.571C288.742 11.77 287.581 11.2322 287.581 11.2322C284.447 11.2941 281.16 12.2073 280.898 12.2808C280.003 11.7313 279.304 11.5108 279.219 11.4837L279.212 11.4798L279.216 11.4759C279.471 11.3947 281.892 10.6285 283.667 10.4273H283.659C281.245 10.0946 277.922 10.8878 277.537 10.9845C276.953 10.8689 276.363 10.7824 275.77 10.7253C275.77 10.7253 277.56 10.1836 279.926 9.83532C282.081 9.51802 289.308 8.58937 293.925 15.0938C298.298 21.2539 296.708 30.8114 290.771 39.978C289.121 42.5581 287.247 44.9726 285.171 47.1906C283.352 49.1679 281.511 50.8782 279.755 52.3369C277.06 54.6072 274.137 56.565 271.039 58.1759C270.407 58.528 269.774 58.8608 269.139 59.178V62.1575C274.21 59.6462 277.216 57.2549 277.216 57.2549L281.485 63.6008C281.485 63.6008 284.794 61.43 288.114 58.5705L282.997 52.5072H282.994C284.893 50.7493 286.677 48.8607 288.335 46.854C288.335 46.854 293.644 51.7875 294.224 52.3679C295.91 50.379 297.455 48.2895 298.827 46.111C296.734 44.4051 294.594 42.7637 292.409 41.1892C292.409 41.1892 294.572 37.5674 295.451 35.3579C295.451 35.3579 298.952 37.3584 302.261 39.6066C303.07 37.7106 303.743 35.7449 304.224 33.7367C302.05 32.363 297.218 30.1072 297.218 30.1072C297.632 28.4046 297.88 26.7408 297.95 25.135C297.95 25.135 301.462 26.2997 305.004 28.1608C305.063 26.6243 304.962 25.0856 304.704 23.5717C301.706 22.0627 297.718 21.0411 297.718 21.0411C297.514 19.8018 297.167 18.5933 296.682 17.4426C296.682 17.4426 300.309 18.1545 303.514 19.5166C303.069 18.452 302.466 17.4674 301.728 16.599C299.673 15.4227 295 14.5289 295 14.5289C294.491 13.8524 293.925 13.2256 293.307 12.6561C294.779 12.8689 297.071 13.4145 297.071 13.4145C294.549 12.1221 291.71 11.3792 291.677 11.3676C291.673 11.3676 291.115 10.9807 290.442 10.6053C290.442 10.6053 297.488 12.1183 301.314 15.1403C301.662 15.4111 301.995 15.7168 302.331 16.0573C302.719 16.4443 303.055 16.8776 303.351 17.3033C310.977 28.2266 304.383 49.2762 285.796 63.9955H292.709C292.237 63.4519 291.767 62.9063 291.3 62.3587C293.487 60.2504 295.523 57.9768 297.392 55.5563L301.995 60.3505C303.799 58.203 305.469 55.9084 306.948 53.4939C306.948 53.4939 304.53 51.0678 301.958 48.7268C304.024 45.2327 305.299 41.7502 305.299 41.7502C305.495 41.9011 308.002 43.8513 310.571 46.3548C311.809 43.5108 312.578 39.889 312.578 39.889C309.902 37.3391 307.155 35.5166 307.155 35.5166C307.572 33.5856 307.815 31.6176 307.88 29.639C307.88 29.639 310.789 31.4498 313.303 33.7638C313.333 32.0508 313.177 30.3398 312.837 28.6639C310.342 26.4041 307.573 24.8873 307.573 24.8873C307.569 24.8873 307.303 22.9913 306.416 20.7006L306.438 20.7122C306.608 20.8012 307.931 21.5055 310.268 23.2467C308.445 20.7741 305.31 18.3403 305.31 18.3403C305.001 17.7945 304.659 17.2698 304.286 16.7693C306.859 18.6106 309.209 20.7699 311.288 23.2003C312.057 24.2102 312.763 25.4987 313.31 26.9729C313.458 27.3754 313.587 27.7778 313.702 28.1763C315.41 34.2087 314.36 40.9879 312.434 46.5405C310.212 52.9406 306.512 58.9188 302.172 63.9955H310.356C311.151 62.8192 311.865 61.697 312.597 60.4085C312.049 59.5379 309.558 56.4888 309.558 56.4888C310.942 54.1244 312.14 51.6463 313.14 49.0789C313.14 49.0789 314.803 51.0097 316.108 52.9947C317.391 49.7831 317.99 46.4322 317.99 46.4322C317.11 44.896 315.144 42.5125 315.144 42.5125C315.576 40.4707 315.815 38.3892 315.857 36.2982C316.84 37.5287 318.167 39.4711 318.167 39.4711V39.4595C317.916 35.652 316.038 32.185 315.624 31.4576L315.583 31.2215C315.342 30.0277 315.034 28.8495 314.663 27.6926C316.777 30.9546 318.134 34.6228 318.134 34.6228C319.003 36.9831 319.524 39.9625 319.524 43.2051C319.524 44.9231 319.195 53.8847 312.656 63.9955H314.726C316.032 61.4593 317.188 58.8412 318.186 56.156C318.212 56.2373 318.663 57.4794 318.995 58.7679C319.69 56.2025 320.186 53.5287 320.463 50.7814C320.374 50.4254 320.189 49.845 320.086 49.4968C320.086 49.4968 320.53 47.1597 320.707 44.4975C321.367 49.5291 321.125 54.6455 319.994 59.5843C319.628 61.105 319.184 62.5986 318.7 63.9955H320.463C321.934 59.5611 322.692 54.8869 322.692 50.1894C322.692 27.0232 304.756 8.17921 282.709 8.17921ZM269.139 35.8532V41.4407C270.085 40.7983 271.031 40.0864 271.959 39.3009L269.139 35.8532ZM270.425 12.7258C269.984 13.0347 269.554 13.3626 269.139 13.7086V15.0048C270.329 14.0316 271.582 13.1472 272.891 12.3582C272.061 12.416 271.237 12.5389 270.425 12.7258ZM274.029 34.7272L269.139 31.148V28.0912C271.627 24.3882 271.985 20.1357 269.804 18.0617C269.6 17.8681 269.377 17.6982 269.139 17.5548V16.0302L269.179 16.0535C269.179 16.0535 272.296 13.4726 274.769 12.362C275.368 12.4046 275.941 12.4936 276.484 12.6252C272.784 14.2658 270.052 16.305 269.863 16.4481C270.244 16.6842 270.588 16.9782 270.636 17.0169C273.034 15.4884 275.574 14.2191 278.218 13.2288C278.754 13.4842 279.271 13.8053 279.718 14.1652C275.419 15.4305 271.286 17.6863 271.286 17.6863C271.519 17.9727 271.726 18.2784 271.904 18.6073C271.927 18.5967 271.95 18.5864 271.974 18.5763C276.377 16.6029 281.049 15.593 281.049 15.593C281.415 16.1192 281.718 16.7035 281.948 17.3497C281.948 17.3497 277.752 17.8527 272.355 19.6636C272.591 20.4452 272.658 21.0295 272.658 21.0373C272.658 21.0373 277.748 19.8455 282.439 19.7139C282.503 20.5743 282.48 21.4393 282.373 22.2948C279.593 22.1439 272.976 22.5115 272.713 22.5309C272.713 22.5309 272.691 23.5292 272.443 24.4694C272.443 24.4694 277.279 24.6319 281.678 25.4909C281.331 26.6087 280.9 27.6956 280.388 28.7413C277.557 27.8903 274.706 27.1162 271.837 26.4196C271.519 27.2352 271.134 28.0199 270.684 28.7645C270.684 28.7645 276.118 31.2486 278.207 32.4636L278.21 32.4675C277.305 33.8837 275.508 35.8726 275.508 35.8726C275.018 35.4872 274.525 35.1054 274.029 34.7272Z" fill="white"/>
<path d="M282.709 8.18042C304.756 8.18042 322.692 27.0245 322.692 50.1906C322.692 54.8881 321.934 59.5623 320.463 64.0005H330.278V0.000488281H269.139V10.6762L269.187 10.6568C273.523 9.01576 278.099 8.17776 282.709 8.18042ZM269.139 28.0924C271.627 24.3894 271.985 20.1369 269.804 18.0629C269.6 17.8694 269.377 17.6994 269.139 17.556V28.0924ZM281.948 14.6036C279.748 11.9647 276.088 11.0593 271.837 11.6977L271.494 11.748C271.164 11.8074 270.836 11.8758 270.51 11.9531C269.852 12.1117 269.401 12.2704 269.139 12.3749V13.7098C269.56 13.3616 269.985 13.0327 270.425 12.727C271.272 12.5335 272.096 12.4136 272.891 12.3594C271.664 13.0946 270.244 14.089 269.139 15.0061V16.0315L269.179 16.0547C269.179 16.0547 272.296 13.4738 274.769 12.3633C275.368 12.4058 275.941 12.4948 276.484 12.6264C272.784 14.267 270.052 16.3062 269.863 16.4494C270.244 16.6854 270.588 16.9795 270.636 17.0182C273.034 15.4896 275.574 14.2204 278.218 13.23C278.754 13.4854 279.271 13.8065 279.719 14.1664C275.419 15.4317 271.286 17.6876 271.286 17.6876C271.519 17.9739 271.726 18.2796 271.904 18.6085C271.927 18.5979 271.951 18.5876 271.974 18.5775C276.377 16.6041 281.049 15.5942 281.049 15.5942C281.415 16.1205 281.718 16.7047 281.948 17.3509C281.948 17.3509 277.752 17.854 272.355 19.6648C272.591 20.4465 272.658 21.0307 272.658 21.0385C272.658 21.0385 277.748 19.8467 282.439 19.7151C282.503 20.5755 282.48 21.4405 282.373 22.296C279.593 22.1451 272.976 22.5127 272.713 22.5321C272.713 22.5321 272.691 23.5304 272.444 24.4706C272.444 24.4706 277.279 24.6332 281.678 25.4922C281.331 26.6099 280.9 27.6968 280.388 28.7425C277.557 27.8915 274.706 27.1174 271.837 26.4208C271.52 27.2365 271.134 28.0211 270.684 28.7657C270.684 28.7657 276.118 31.2498 278.207 32.4648L278.21 32.4687C277.305 33.8849 275.508 35.8738 275.508 35.8738C275.018 35.4884 274.525 35.1066 274.029 34.7285L269.139 31.1492V35.8545L271.959 39.3021C271.055 40.0664 270.114 40.7806 269.139 41.4419V44.2472L269.242 44.1776C270.532 43.2605 271.804 42.239 273.042 41.1091C282.772 32.2482 286.757 20.3807 281.948 14.6036ZM293.925 15.0951C289.308 8.59058 282.081 9.51924 279.926 9.83653C277.56 10.1848 275.771 10.7265 275.771 10.7265C276.299 10.7768 277.02 10.8774 277.538 10.9857C277.922 10.889 281.245 10.0958 283.659 10.4285H283.667C281.892 10.6298 279.471 11.3959 279.216 11.4772L279.212 11.481L279.22 11.4849C279.305 11.512 280.003 11.7325 280.898 12.282C281.16 12.2085 284.447 11.2953 287.581 11.2334C287.581 11.2334 288.742 11.7712 289.858 12.5722C287.339 12.5694 284.826 12.8443 282.362 13.3925C282.835 13.8336 283.308 14.3637 283.733 14.9983C288.173 14.3018 292.006 14.6075 292.006 14.6075C292.006 14.6075 292.524 15.2692 292.76 15.629C293.056 16.0779 293.359 16.639 293.592 17.1304C289.06 16.5732 284.724 16.9717 284.724 16.9717C285.02 17.7804 285.223 18.6433 285.334 19.5526C285.837 19.5488 289.674 19.5565 294.564 20.4774C294.72 21.6498 294.734 22.9074 294.612 24.2346C291.58 23.4267 288.497 22.8474 285.386 22.5011C285.301 23.6503 285.09 24.8421 284.772 26.0648C285.26 26.1848 290.672 27.5352 293.703 28.8199C293.22 30.4307 292.618 31.9999 291.903 33.5135C289.459 32.2559 283.474 29.8066 283.474 29.8066C282.876 31.2073 282.144 32.6274 281.29 34.0436C281.29 34.0436 286.421 37.1081 288.894 38.8068C287.717 40.5608 286.43 42.2309 285.042 43.8061C283.249 42.1229 278.769 38.4856 278.428 38.2148C277.216 39.6892 275.944 41.1092 274.617 42.4711L279.996 48.9292C278.828 49.943 277.616 50.8985 276.362 51.7926C275.442 52.4465 274.684 52.9534 274.421 53.1314C274.358 53.0308 270.836 47.1454 270.307 46.209C269.922 46.5069 269.531 46.7933 269.139 47.0757V59.1793C269.775 58.862 270.407 58.5292 271.039 58.1771C274.137 56.5662 277.06 54.6084 279.756 52.3381C281.668 50.7505 283.477 49.0313 285.171 47.1918C287.33 44.8702 289.208 42.4441 290.772 39.9792C296.708 30.8126 298.298 21.2552 293.925 15.0951ZM303.351 17.3045C303.048 16.8579 302.706 16.4409 302.331 16.0585C302.011 15.7303 301.672 15.424 301.314 15.1415C297.488 12.1195 290.443 10.6065 290.443 10.6065C291.115 10.9819 291.674 11.3688 291.677 11.3688C291.711 11.3804 294.55 12.1234 297.071 13.4157C297.071 13.4157 294.779 12.8701 293.307 12.6573C293.917 13.2145 294.494 13.8607 295.001 14.5301C295.001 14.5301 299.673 15.424 301.728 16.6003C301.728 16.6003 302.712 17.6605 303.514 19.5178C300.309 18.1558 296.683 17.4438 296.683 17.4438C297.163 18.5737 297.507 19.7848 297.718 21.0423C297.718 21.0423 301.706 22.0639 304.704 23.5729C304.963 25.0627 305.059 26.6027 305.004 28.1621C301.462 26.3009 297.95 25.1362 297.95 25.1362C297.868 26.8153 297.623 28.4812 297.219 30.1084C297.219 30.1084 302.05 32.3642 304.224 33.7379C303.734 35.7506 303.077 37.7147 302.261 39.6078C298.952 37.3597 295.452 35.3592 295.452 35.3592C294.572 37.5686 292.409 41.1904 292.409 41.1904C292.465 41.2291 296.065 43.8177 298.827 46.1123C297.437 48.31 295.899 50.4009 294.224 52.3691C293.644 51.7887 288.335 46.8552 288.335 46.8552C286.735 48.7976 284.949 50.6936 282.994 52.5084L288.114 58.5718C284.794 61.4313 281.486 63.602 281.486 63.602L277.216 57.2562C277.216 57.2562 274.211 59.6475 269.139 62.1587V64.0005H285.796C304.383 49.2774 310.977 28.2278 303.351 17.3045ZM302.172 64.0005C306.512 58.92 310.212 52.9418 312.434 46.5418C314.36 40.9892 315.41 34.2099 313.702 28.1775C313.586 27.7714 313.455 27.37 313.31 26.9742C312.819 25.6182 312.138 24.3466 311.288 23.2015C309.21 20.7711 306.859 18.6119 304.287 16.7705C304.664 17.2813 305.011 17.8075 305.311 18.3415C305.311 18.3415 308.445 20.7754 310.268 23.2479C307.931 21.5067 306.608 20.8024 306.438 20.7134L306.416 20.7018C307.303 22.9925 307.569 24.8885 307.573 24.8885C307.573 24.8885 310.342 26.4053 312.837 28.6651C313.184 30.3367 313.325 32.0508 313.303 33.765C310.789 31.4511 307.88 29.6402 307.88 29.6402C307.815 31.6189 307.573 33.5868 307.155 35.5178C307.155 35.5178 309.902 37.3403 312.578 39.8902C312.578 39.8902 311.809 43.512 310.571 46.356C308.89 44.7278 307.131 43.1909 305.299 41.7514C305.299 41.7514 304.024 45.2339 301.958 48.728C304.531 51.069 306.948 53.4951 306.948 53.4951C305.469 55.9096 303.799 58.2042 301.995 60.3517L297.392 55.5575C295.523 57.978 293.487 60.2516 291.3 62.3599L292.709 64.0005H302.172ZM310.356 64.0005H312.656C319.195 53.8859 319.524 44.9243 319.524 43.2063C319.524 39.9638 319.003 36.9843 318.134 34.624C318.134 34.624 316.778 30.9558 314.663 27.6939C314.892 28.4213 315.336 29.8994 315.583 31.2228L315.624 31.4588C316.038 32.1862 317.916 35.6532 318.167 39.4607V39.4724C318.167 39.4724 316.84 37.5299 315.857 36.2994C315.815 38.3904 315.576 40.4719 315.144 42.5137C315.144 42.5137 317.11 44.8973 317.99 46.4334C317.99 46.4334 317.391 49.7843 316.108 52.9959C314.804 51.0109 313.14 49.0801 313.14 49.0801C312.14 51.6475 310.942 54.1257 309.558 56.49C309.558 56.49 312.05 59.5391 312.597 60.4097C311.865 61.6982 311.151 62.8204 310.356 64.0005ZM314.726 64.0005C316.032 61.4627 317.187 58.8433 318.186 56.1572C318.212 56.2385 318.663 57.4806 318.996 58.7691C319.691 56.2037 320.186 53.5299 320.463 50.7826C320.374 50.4266 320.19 49.8462 320.086 49.498C320.086 49.498 320.53 47.1609 320.707 44.4987C321.367 49.5304 321.125 54.6467 319.994 59.5855C319.633 61.0788 319.201 62.5523 318.7 64.0005H314.726ZM334.895 58.7343C334.565 58.7343 334.238 58.8023 333.933 58.9346C333.628 59.0668 333.351 59.2606 333.117 59.5049C332.884 59.7493 332.699 60.0393 332.572 60.3586C332.446 60.6778 332.381 61.0199 332.381 61.3655C332.381 61.711 332.446 62.0532 332.572 62.3724C332.699 62.6916 332.884 62.9817 333.117 63.226C333.351 63.4703 333.628 63.6642 333.933 63.7964C334.238 63.9286 334.565 63.9967 334.895 63.9967C335.562 63.9967 336.201 63.7195 336.672 63.226C337.144 62.7326 337.409 62.0633 337.409 61.3655C337.409 60.6676 337.144 59.9984 336.672 59.5049C336.201 59.0115 335.562 58.7343 334.895 58.7343ZM334.895 59.1251C335.463 59.1261 336.008 59.3635 336.41 59.7851C336.811 60.2068 337.036 60.778 337.035 61.3732C337.034 61.9684 336.807 62.5389 336.405 62.959C336.002 63.3792 335.456 63.6146 334.887 63.6136C334.319 63.6126 333.774 63.3751 333.372 62.9535C332.971 62.5319 332.746 61.9607 332.747 61.3655C332.748 60.7703 332.975 60.1998 333.378 59.7797C333.78 59.3595 334.326 59.1241 334.895 59.1251ZM333.993 60.0383H335.187C335.649 60.0383 335.956 60.3207 335.956 60.7541C335.956 61.1875 335.686 61.439 335.283 61.4893L336.1 62.6076H335.608L334.847 61.5086H334.366V62.6076H333.993V60.0383ZM334.366 60.4136V61.1488H335.176C335.435 61.1488 335.56 61.0172 335.56 60.7851C335.56 60.5413 335.427 60.4136 335.176 60.4136H334.366ZM122.359 24.579H134.181V48.0663H143.282V24.579H155.101V15.9347H122.359V24.579ZM177.695 35.4095H196.614V28.5916H177.695V23.8051H198.074V15.9347H168.59V48.0663H198.241V40.1959H177.695V35.4095ZM221.67 39.422H229.773C235.703 39.422 238.375 37.1507 238.375 32.0005C238.375 26.8503 235.703 24.579 229.773 24.579H221.67V39.422ZM212.565 15.9347H230.106C242.301 15.9347 247.898 21.4796 247.898 32.0005C247.898 42.5214 242.301 48.0663 230.106 48.0663H212.565V15.9347ZM99.7691 48.0663H108.874V15.9347H99.7691V48.0663ZM75.4193 34.6317L58.4664 15.9347H49.4872V48.0663H57.9637V27.7016L76.4654 48.0663H83.8994V15.9347H75.4193V34.6317ZM0.00012207 32.3294V15.9347H9.10497V31.8457C9.10497 37.9671 11.8812 40.548 17.2265 40.548C22.5719 40.548 25.3481 37.9671 25.3481 31.8457V15.9347H34.4529V32.3294C34.4529 43.7829 28.919 48.7202 17.2265 48.7202C5.534 48.7202 0.00012207 43.7829 0.00012207 32.3294Z" fill="#1414D2"/>
</g>
<defs>
<clipPath id="clip0_2025_279">
<rect width="337.408" height="64" fill="white"/>
</clipPath>
</defs>
</svg>
