<svg width="64" height="64" viewBox="0 0 64 64" fill="none" xmlns="http://www.w3.org/2000/svg">
<rect width="64" height="64" fill="#00A1E4"/>
<g clip-path="url(#clip0_2025_348)">
<path d="M22.2577 31.2009C22.2161 30.0671 22.2354 28.9303 22.2473 27.7965C28.7728 27.8158 35.2982 27.8009 41.8237 27.8039C41.8252 28.9333 41.8252 30.0612 41.8237 31.1891C35.3012 31.1965 28.7787 31.1742 22.2577 31.2009ZM31.1031 16.8975H32.7326C32.7459 17.451 32.7444 18.0031 32.7415 18.5567C33.2861 18.5552 33.8323 18.5581 34.3769 18.5537C34.3814 19.0969 34.3814 19.64 34.365 20.1832C33.8248 20.1832 33.2832 20.1862 32.743 20.1832C32.743 20.7175 32.7415 21.2532 32.7459 21.789C32.2087 21.8231 31.6715 21.8157 31.1342 21.8112C31.1313 21.2681 31.1313 20.7234 31.1283 20.1787C30.5821 20.1862 30.0375 20.1832 29.4928 20.1847C29.4839 19.643 29.4854 19.0998 29.4839 18.5581C30.033 18.5567 30.5821 18.5552 31.1298 18.5581C31.1179 18.0046 31.1669 17.4481 31.1031 16.8975ZM44.6506 24.258C44.6506 24.6307 44.5771 24.9998 44.4345 25.3442C44.2919 25.6885 44.0828 26.0014 43.8192 26.265C43.5557 26.5285 43.2428 26.7376 42.8984 26.8802C42.5541 27.0229 42.185 27.0963 41.8123 27.0963C41.0595 27.0963 40.3376 26.7973 39.8053 26.265C39.273 25.7327 38.974 25.0108 38.974 24.258C38.974 23.5053 39.273 22.7833 39.8053 22.251C40.3376 21.7188 41.0595 21.4197 41.8123 21.4197C42.565 21.4197 43.287 21.7188 43.8192 22.251C44.3515 22.7833 44.6506 23.5053 44.6506 24.258ZM38.1281 24.258C38.1281 24.6307 38.0546 24.9998 37.912 25.3442C37.7694 25.6885 37.5603 26.0014 37.2967 26.265C37.0332 26.5285 36.7203 26.7376 36.3759 26.8802C36.0316 27.0229 35.6625 27.0963 35.2898 27.0963C34.537 27.0963 33.8151 26.7973 33.2828 26.265C32.7505 25.7327 32.4515 25.0108 32.4515 24.258C32.4515 23.5053 32.7505 22.7833 33.2828 22.251C33.8151 21.7188 34.537 21.4197 35.2898 21.4197C36.0425 21.4197 36.7645 21.7188 37.2967 22.251C37.829 22.7833 38.1281 23.5053 38.1281 24.258ZM31.6056 24.2581C31.6056 25.0108 31.3065 25.7328 30.7742 26.265C30.242 26.7973 29.52 27.0963 28.7673 27.0963C28.0145 27.0963 27.2926 26.7973 26.7603 26.265C26.228 25.7328 25.929 25.0108 25.929 24.2581C25.929 23.5053 26.228 22.7834 26.7603 22.2511C27.2926 21.7188 28.0145 21.4198 28.7673 21.4198C29.52 21.4198 30.242 21.7188 30.7742 22.2511C31.3065 22.7834 31.6056 23.5053 31.6056 24.2581ZM25.0831 24.2581C25.0831 25.0108 24.784 25.7328 24.2518 26.265C23.7195 26.7973 22.9975 27.0963 22.2448 27.0963C21.492 27.0963 20.7701 26.7973 20.2378 26.265C19.7055 25.7328 19.4065 25.0108 19.4065 24.2581C19.4065 23.5053 19.7055 22.7834 20.2378 22.2511C20.7701 21.7188 21.492 21.4198 22.2448 21.4198C22.9975 21.4198 23.7195 21.7188 24.2518 22.2511C24.784 22.7834 25.0831 23.5053 25.0831 24.2581Z" fill="white"/>
<path d="M36.7227 34.0754C39.4356 34.0665 42.1485 34.0932 44.8614 34.062C45.7177 36.3905 46.4672 38.7591 47.276 41.1054C47.3428 41 47.4377 40.911 47.4719 40.7878C48.2451 38.5484 49.0361 36.3148 49.8167 34.0769C52.5444 34.0739 55.2722 34.0724 57.9999 34.0783V47.0877C56.3303 47.1085 54.6592 47.0951 52.9897 47.0951C52.9867 44.1003 53.0045 41.1039 52.9808 38.1076C52.7478 38.2382 52.724 38.5335 52.6246 38.7546C51.6555 41.5373 50.6611 44.311 49.692 47.0936C48.1219 47.0936 46.5503 47.1144 44.9816 47.0833C43.9977 44.2383 42.9796 41.4067 41.9868 38.5662C41.9511 38.4074 41.8621 38.2916 41.7226 38.2174C41.7181 41.1767 41.7241 44.1374 41.7211 47.0981C40.0545 47.0981 38.3879 47.0981 36.7213 47.0966C36.7242 42.7572 36.7198 38.4163 36.7227 34.0754ZM6.05737 34.0754C7.70469 34.0754 9.35201 34.0739 11.0008 34.0769C11.0038 35.6529 10.9978 37.2305 11.0023 38.8081C12.6363 37.2439 14.2331 35.6425 15.8671 34.0783C17.5278 34.0739 19.1884 34.0739 20.8491 34.0783C18.9347 36.024 16.9683 37.9191 15.0687 39.8781C17.4625 42.1992 19.7746 44.6063 22.1892 46.9022C22.21 42.6281 22.1922 38.3525 22.1981 34.0769C23.8826 34.0739 25.567 34.0739 27.2514 34.0769C27.2514 37.3195 27.2484 40.5622 27.2514 43.8049C29.942 43.7975 32.6312 43.8138 35.3203 43.796C35.3574 44.8957 35.3262 45.9969 35.3381 47.0966C28.7993 47.0966 22.259 47.1025 15.7202 47.0936C14.1738 45.5279 12.6066 43.983 11.0528 42.4248C11.0305 43.9845 11.0557 45.5428 11.0394 47.1025C9.37873 47.0907 7.71805 47.104 6.05737 47.0951L6.05737 34.0754Z" fill="white"/>
</g>
<defs>
<clipPath id="clip0_2025_348">
<rect width="51.9425" height="30.2053" fill="white" transform="translate(6.05737 16.8975)"/>
</clipPath>
</defs>
</svg>
