<svg width="111" height="64" viewBox="0 0 111 64" fill="none" xmlns="http://www.w3.org/2000/svg">
<g clip-path="url(#clip0_2025_335)">
<path d="M34.3253 30.3067C34.2372 27.9043 34.2781 25.4956 34.3033 23.0932C48.1296 23.1341 61.956 23.1026 75.7824 23.1089C75.7855 25.5019 75.7855 27.8917 75.7824 30.2815C61.9623 30.2973 48.1422 30.2501 34.3253 30.3067ZM53.0671 0H56.5198C56.5481 1.1729 56.5449 2.34265 56.5386 3.51555C57.6927 3.51241 58.8499 3.5187 60.0039 3.50926C60.0133 4.66015 60.0133 5.81104 59.9787 6.96192C58.8341 6.96192 57.6864 6.96821 56.5418 6.96192C56.5418 8.09394 56.5386 9.22911 56.5481 10.3643C55.4098 10.4366 54.2715 10.4209 53.1332 10.4114C53.1269 9.26055 53.1269 8.10652 53.1206 6.95249C51.9634 6.96821 50.8094 6.96192 49.6553 6.96507C49.6365 5.81732 49.6396 4.66644 49.6365 3.51869C50.7999 3.51555 51.9634 3.51241 53.1237 3.51869C53.0986 2.3458 53.2023 1.16661 53.0671 0ZM81.772 15.5958C81.772 16.3855 81.6164 17.1675 81.3142 17.8972C81.012 18.6268 80.569 19.2898 80.0106 19.8482C79.4521 20.4067 78.7892 20.8496 78.0595 21.1519C77.3299 21.4541 76.5479 21.6096 75.7581 21.6096C74.1632 21.6096 72.6335 20.976 71.5057 19.8482C70.3779 18.7204 69.7443 17.1907 69.7443 15.5958C69.7443 14.0008 70.3779 12.4712 71.5057 11.3433C72.6335 10.2155 74.1632 9.58192 75.7581 9.58192C77.3531 9.58192 78.8828 10.2155 80.0106 11.3433C81.1384 12.4712 81.772 14.0008 81.772 15.5958ZM67.9519 15.5958C67.9519 16.3855 67.7964 17.1675 67.4941 17.8972C67.1919 18.6268 66.7489 19.2898 66.1905 19.8482C65.6321 20.4067 64.9691 20.8496 64.2395 21.1519C63.5098 21.4541 62.7278 21.6096 61.9381 21.6096C60.3431 21.6096 58.8134 20.976 57.6856 19.8482C56.5578 18.7204 55.9242 17.1907 55.9242 15.5958C55.9242 14.0008 56.5578 12.4712 57.6856 11.3433C58.8134 10.2155 60.3431 9.58192 61.9381 9.58192C63.533 9.58192 65.0627 10.2155 66.1905 11.3433C67.3183 12.4712 67.9519 14.0008 67.9519 15.5958ZM54.1318 15.5959C54.1318 17.1909 53.4982 18.7205 52.3704 19.8483C51.2426 20.9761 49.713 21.6097 48.118 21.6097C46.523 21.6097 44.9934 20.9761 43.8656 19.8483C42.7377 18.7205 42.1041 17.1909 42.1041 15.5959C42.1041 14.0009 42.7377 12.4713 43.8656 11.3434C44.9934 10.2156 46.523 9.58203 48.118 9.58203C49.713 9.58203 51.2426 10.2156 52.3704 11.3434C53.4982 12.4713 54.1318 14.0009 54.1318 15.5959ZM40.3118 15.5959C40.3118 17.1909 39.6782 18.7205 38.5504 19.8483C37.4225 20.9761 35.8929 21.6097 34.2979 21.6097C32.7029 21.6097 31.1733 20.9761 30.0455 19.8483C28.9177 18.7205 28.2841 17.1909 28.2841 15.5959C28.2841 14.0009 28.9177 12.4713 30.0455 11.3434C31.1733 10.2156 32.7029 9.58203 34.2979 9.58203C35.8929 9.58203 37.4225 10.2156 38.5504 11.3434C39.6782 12.4713 40.3118 14.0009 40.3118 15.5959Z" fill="#00A1E4"/>
<path d="M64.9748 36.3974C70.7229 36.3786 76.4711 36.4352 82.2192 36.3691C84.0336 41.3029 85.6216 46.3215 87.3353 51.2929C87.4768 51.0697 87.6781 50.881 87.7504 50.62C89.3887 45.875 91.0647 41.1425 92.7187 36.4006C98.4983 36.3943 104.278 36.3911 110.057 36.4037V63.9684C106.52 64.0124 102.979 63.9841 99.4417 63.9841C99.4354 57.6385 99.4731 51.2898 99.4228 44.941C98.9291 45.2178 98.8788 45.8435 98.6681 46.312C96.6148 52.208 94.5079 58.0851 92.4546 63.981C89.1277 63.981 85.7977 64.025 82.4739 63.959C80.3891 57.931 78.232 51.9313 76.1283 45.9127C76.0529 45.5762 75.8642 45.331 75.5686 45.1737C75.5592 51.4439 75.5718 57.7171 75.5655 63.9904C72.0342 63.9904 68.5029 63.9904 64.9717 63.9873C64.9779 54.7928 64.9685 45.5951 64.9748 36.3974ZM0 36.3974C3.49039 36.3974 6.98079 36.3943 10.4743 36.4006C10.4806 39.74 10.468 43.0826 10.4775 46.4252C13.9396 43.1109 17.323 39.718 20.7851 36.4037C24.3038 36.3943 27.8225 36.3943 31.3412 36.4037C27.2848 40.5262 23.1184 44.5417 19.0934 48.6924C24.1655 53.6104 29.0646 58.7108 34.1807 63.5753C34.2247 54.5192 34.187 45.4599 34.1996 36.4006C37.7686 36.3943 41.3376 36.3943 44.9066 36.4006C44.9066 43.2713 44.9003 50.142 44.9066 57.0128C50.6076 56.9971 56.3054 57.0316 62.0032 56.9939C62.0819 59.324 62.0158 61.6572 62.041 63.9873C48.1863 63.9873 34.3285 63.9999 20.4738 63.981C17.1973 60.6635 13.8767 57.3901 10.5844 54.0884C10.5372 57.3933 10.5907 60.695 10.5561 63.9999C7.03739 63.9747 3.51869 64.003 0 63.9841L0 36.3974Z" fill="#00A1E4"/>
</g>
<defs>
<clipPath id="clip0_2025_335">
<rect width="110.057" height="64" fill="white"/>
</clipPath>
</defs>
</svg>
