<svg width="64" height="64" viewBox="0 0 64 64" fill="none" xmlns="http://www.w3.org/2000/svg">
<g clip-path="url(#clip0_2025_966)">
<circle cx="32" cy="32" r="32" fill="#2D2D4F"/>
<path d="M26.7769 22.2603H16.7461C16.5962 22.2614 16.4477 22.2323 16.309 22.1747C16.1704 22.1172 16.0444 22.0324 15.9384 21.9252C15.8325 21.8179 15.7486 21.6905 15.6918 21.5502C15.6349 21.4099 15.6062 21.2596 15.6072 21.108V14.3711C15.6062 14.2195 15.6349 14.0692 15.6918 13.9289C15.7486 13.7886 15.8325 13.6611 15.9384 13.5539C16.0444 13.4467 16.1704 13.3619 16.309 13.3043C16.4477 13.2468 16.5962 13.2177 16.7461 13.2188H45.3493C46.2552 13.22 47.1235 13.5846 47.764 14.2326C48.4044 14.8807 48.7648 15.7593 48.7659 16.6758V21.108C48.767 21.2596 48.7382 21.4099 48.6814 21.5502C48.6246 21.6905 48.5406 21.8179 48.4348 21.9252C48.3288 22.0324 48.2028 22.1172 48.0641 22.1747C47.9255 22.2323 47.7769 22.2614 47.6271 22.2603H37.5524V50.8475C37.5534 50.9992 37.5247 51.1494 37.4679 51.2897C37.4111 51.4301 37.3271 51.5575 37.2213 51.6647C37.1153 51.7719 36.9892 51.8567 36.8507 51.9142C36.712 51.9718 36.5633 52.001 36.4135 51.9998H30.1936C29.2878 51.9986 28.4194 51.634 27.7789 50.986C27.1384 50.3379 26.7781 49.4594 26.7769 48.5427V22.2603Z" fill="white"/>
</g>
<defs>
<clipPath id="clip0_2025_966">
<rect width="64" height="64" fill="white"/>
</clipPath>
</defs>
</svg>
