<svg width="64" height="64" viewBox="0 0 64 64" fill="none" xmlns="http://www.w3.org/2000/svg">
<g clip-path="url(#clip0_2006_5287)">
<path d="M63.9656 20.316L33.9199 3.59702C33.0242 3.09901 31.9955 2.89216 30.9768 3.00523C29.9581 3.11829 28.9999 3.54565 28.2354 4.22792C28.2354 4.22792 0.595044 28.9635 0.413574 29.2143C11.6491 24.7406 23.4547 21.857 35.4884 20.6469C44.9445 19.5733 54.4854 19.4638 63.9637 20.3199" fill="#CA000F"/>
<path d="M36.3136 27.4213C25.3412 28.5149 14.5937 31.239 4.42603 35.5035C4.63259 35.7109 42.5656 59.8475 42.5656 59.8475C43.0605 60.1615 43.6125 60.3751 44.19 60.4759C44.7675 60.5768 45.3592 60.5629 45.9314 60.4352C46.5035 60.3074 47.0449 60.0683 47.5245 59.7314C48.0042 59.3945 48.4127 58.9665 48.7269 58.4718C48.8031 58.3512 48.8745 58.2277 48.9392 58.1004C48.9392 58.1004 64.3603 27.6982 64.4134 27.5535C55.0857 26.3881 45.6518 26.3438 36.3136 27.4213Z" fill="#CA000F"/>
</g>
<defs>
<clipPath id="clip0_2006_5287">
<rect width="64" height="64" fill="white"/>
</clipPath>
</defs>
</svg>
