<svg width="295" height="64" viewBox="0 0 295 64" fill="none" xmlns="http://www.w3.org/2000/svg">
<g clip-path="url(#clip0_2006_5298)">
<mask id="mask0_2006_5298" style="mask-type:luminance" maskUnits="userSpaceOnUse" x="0" y="0" width="295" height="64">
<path d="M295 0H0V64H295V0Z" fill="white"/>
</mask>
<g mask="url(#mask0_2006_5298)">
<path d="M61.8845 33.4681L67.1574 27.1449C69.3836 30.1309 71.8439 31.6526 74.7736 31.6526C78.5813 31.6526 80.5731 29.0631 80.5731 24.5546V15.0789H66.1615V7.46729H90.0059V24.0299C90.0059 34.1585 84.9067 39.4418 75.2421 39.4418C69.7349 39.4418 64.8723 37.3341 61.8845 33.4697" fill="black"/>
<path d="M130.489 7.46729V38.9672H121.818V35.2199C120.588 36.5862 119.077 37.6704 117.388 38.3981C115.699 39.1257 113.873 39.4796 112.034 39.4354C104.126 39.4354 98.5598 34.985 98.5598 25.2665V7.46729H107.699V23.92C107.699 29.1889 110.043 31.5308 114.085 31.5308C118.303 31.5308 121.35 28.8378 121.35 23.0409V7.46729H130.489Z" fill="black"/>
<path d="M171.209 20.9339V38.9672H162.068V22.3393C162.068 17.2431 159.726 14.9029 155.682 14.9029C151.29 14.9029 148.125 17.5967 148.125 23.3928V38.9672H138.986V7.46723H147.718V11.1556C150.178 8.46258 153.869 6.99902 158.146 6.99902C165.586 6.99902 171.213 11.3316 171.213 20.9339" fill="black"/>
<path d="M188.61 7.46729H179.472V38.9672H188.61V7.46729Z" fill="black"/>
<path d="M231.437 23.2166C231.437 33.1112 224.585 39.4352 215.736 39.4352C211.81 39.4352 208.589 38.205 206.245 35.629V47.5166H197.106V7.46705H205.835V11.0973C208.12 8.34535 211.518 6.99805 215.736 6.99805C224.58 6.99805 231.437 13.3221 231.437 23.2166ZM222.18 23.2166C222.18 17.7717 218.724 14.4926 214.154 14.4926C209.585 14.4926 206.128 17.7717 206.128 23.2166C206.128 28.6616 209.585 31.9406 214.154 31.9406C218.724 31.9406 222.18 28.6616 222.18 23.2166Z" fill="black"/>
<path d="M268.231 25.7934H244.386C245.263 29.7166 248.604 32.1166 253.408 32.1166C254.864 32.1751 256.317 31.9352 257.678 31.4117C259.038 30.8882 260.276 30.0921 261.317 29.0724L266.177 34.3414C263.249 37.6794 258.855 39.4376 253.172 39.4376C242.276 39.4376 235.187 32.5896 235.187 23.2198C235.187 13.7927 242.393 7.00122 251.998 7.00122C261.254 7.00122 268.401 13.2074 268.401 23.3369C268.401 24.0392 268.285 25.0345 268.227 25.7958M244.269 20.4639H259.794C259.563 18.6006 258.639 16.8923 257.207 15.6775C255.775 14.4628 253.938 13.8304 252.061 13.9057C247.902 13.9057 244.914 16.4244 244.269 20.4639Z" fill="black"/>
<path d="M294.069 6.99902V15.43C293.307 15.3719 292.721 15.313 292.019 15.313C286.98 15.313 283.64 18.0649 283.64 24.0959V38.9672H274.502V7.46723H283.231V11.6254C285.457 8.58043 289.207 6.99982 294.067 6.99982" fill="black"/>
<path d="M52.4574 14.3136L27.6569 0.513346C26.9176 0.102276 26.0685 -0.0684553 25.2276 0.0248706C24.3868 0.118197 23.5959 0.470946 22.9648 1.03411C22.9648 1.03411 0.149789 21.4515 0 21.6585C9.27408 17.9658 19.0187 15.5856 28.9516 14.5868C36.7569 13.7006 44.6322 13.6101 52.4558 14.3168" fill="black"/>
<path d="M29.6329 20.1786C20.576 21.0813 11.7048 23.3298 3.31213 26.8499C3.48264 27.0211 34.7934 46.9439 34.7934 46.9439C35.2019 47.2032 35.6575 47.3794 36.1342 47.4627C36.6109 47.5459 37.0993 47.5345 37.5716 47.4291C38.0439 47.3236 38.4907 47.1262 38.8867 46.8481C39.2826 46.5701 39.6198 46.2168 39.8791 45.8084C39.942 45.7089 40.001 45.607 40.0544 45.5019C40.0544 45.5019 52.7833 20.4072 52.8271 20.2877C45.1278 19.3258 37.3409 19.2892 29.6329 20.1786Z" fill="black"/>
<path d="M64.5019 53.2518H62.2479V52.137H68.0196V53.2518H65.7656V59.2183H64.5019V53.2518Z" fill="black"/>
<path d="M74.3545 59.2181L72.9641 57.1478C72.877 57.1558 72.7895 57.159 72.702 57.1574H71.1667V59.2205H69.9038V52.1416H72.702C74.4899 52.1416 75.5982 53.0924 75.5982 54.6602C75.624 55.1378 75.4977 55.6114 75.2375 56.0128C74.9773 56.4142 74.5964 56.7229 74.1497 56.8946L75.7145 59.2205L74.3545 59.2181ZM72.6438 53.2516H71.1667V56.0736H72.6438C73.7513 56.0736 74.325 55.5473 74.325 54.6578C74.325 53.7684 73.7513 53.2516 72.6438 53.2516Z" fill="black"/>
<path d="M82.35 57.5801H78.9494L78.2786 59.2188H76.9767L80.0378 52.1399H81.2815L84.3522 59.2188H83.0304L82.35 57.5801ZM81.9325 56.5489L80.6497 53.4545L79.3749 56.5489H81.9325Z" fill="black"/>
<path d="M92.0081 52.1389L89.0442 59.2178H87.8021L84.8286 52.1389H86.199L88.4626 57.5998L90.7469 52.1389H92.0081Z" fill="black"/>
<path d="M98.7607 58.1158V59.2178H93.6615V52.1389H98.6269V53.2418H94.9251V55.082H98.2094V56.1641H94.9251V58.1158H98.7607Z" fill="black"/>
<path d="M101.102 52.1389H102.366V58.1054H105.922V59.2202H101.102V52.1389Z" fill="black"/>
<path d="M112.985 52.7863H110.595V52.1389H116.092V52.7863H113.702V59.2186H112.985V52.7863Z" fill="black"/>
<path d="M122.983 58.5712V59.2186H118.173V52.1389H122.837V52.7863H118.892V55.3049H122.409V55.9419H118.892V58.5697L122.983 58.5712Z" fill="black"/>
<path d="M124.964 55.6788C124.948 55.2047 125.028 54.7322 125.201 54.2904C125.374 53.8486 125.636 53.4467 125.97 53.1096C126.304 52.7724 126.703 52.5071 127.144 52.3298C127.584 52.1526 128.056 52.0672 128.53 52.0789C128.995 52.0617 129.458 52.1451 129.887 52.3233C130.317 52.5016 130.702 52.7705 131.018 53.1116L130.561 53.5894C130.305 53.3144 129.993 53.0972 129.646 52.9525C129.299 52.8078 128.925 52.7388 128.55 52.7501C127.783 52.768 127.054 53.0848 126.518 53.6328C125.983 54.1809 125.683 54.9166 125.683 55.6828C125.683 56.449 125.983 57.1848 126.518 57.7328C127.054 58.2808 127.783 58.5977 128.55 58.6155C128.926 58.6273 129.301 58.5575 129.649 58.4108C129.996 58.2641 130.307 58.0441 130.561 57.7659L131.018 58.2436C130.701 58.5869 130.314 58.8577 129.883 59.0374C129.452 59.2172 128.988 59.3017 128.521 59.2852C128.047 59.2958 127.576 59.2095 127.137 59.0318C126.697 58.854 126.299 58.5885 125.966 58.2514C125.633 57.9144 125.372 57.5129 125.2 57.0716C125.028 56.6304 124.948 56.1586 124.964 55.6852" fill="black"/>
<path d="M139.17 52.1389V59.2178H138.461V55.9531H134.205V59.2178H133.488V52.1389H134.205V55.2946H138.461V52.1389H139.17Z" fill="black"/>
<path d="M148.002 52.1389V59.2178H147.41L143.037 53.4735V59.2178H142.32V52.1389H142.913L147.295 57.8833V52.1389H148.002Z" fill="black"/>
<path d="M150.547 55.6785C150.553 54.9742 150.768 54.2874 151.164 53.7047C151.56 53.122 152.119 52.6694 152.772 52.4039C153.425 52.1384 154.141 52.0719 154.832 52.2127C155.523 52.3535 156.156 52.6953 156.652 53.1952C157.149 53.6951 157.486 54.3306 157.622 55.0217C157.758 55.7128 157.686 56.4287 157.416 57.0791C157.145 57.7295 156.688 58.2854 156.102 58.6768C155.516 59.0681 154.828 59.2775 154.123 59.2785C153.648 59.2902 153.176 59.2049 152.735 59.0278C152.294 58.8507 151.894 58.5855 151.559 58.2485C151.224 57.9115 150.962 57.5097 150.788 57.0678C150.614 56.6259 150.532 56.1531 150.547 55.6785ZM156.97 55.6785C156.955 55.1166 156.774 54.5716 156.451 54.1119C156.127 53.6521 155.675 53.2979 155.151 53.0938C154.627 52.8896 154.054 52.8445 153.505 52.9641C152.955 53.0837 152.453 53.3627 152.062 53.7661C151.67 54.1696 151.406 54.6795 151.303 55.2321C151.2 55.7847 151.263 56.3553 151.483 56.8726C151.703 57.3899 152.071 57.8307 152.54 58.14C153.01 58.4493 153.561 58.6132 154.123 58.6112C154.506 58.6161 154.885 58.5429 155.239 58.3961C155.592 58.2493 155.912 58.032 156.178 57.7575C156.445 57.483 156.652 57.157 156.789 56.7996C156.925 56.4421 156.986 56.0606 156.97 55.6785Z" fill="black"/>
<path d="M160.234 52.1389H160.951V58.5712H164.76V59.2178H160.232L160.234 52.1389Z" fill="black"/>
<path d="M166.152 55.6785C166.158 54.9742 166.372 54.2874 166.768 53.7047C167.164 53.122 167.724 52.6694 168.376 52.4039C169.029 52.1384 169.746 52.0719 170.436 52.2127C171.127 52.3535 171.76 52.6953 172.257 53.1952C172.753 53.6951 173.091 54.3306 173.227 55.0217C173.362 55.7128 173.291 56.4287 173.02 57.0791C172.75 57.7295 172.293 58.2854 171.707 58.6768C171.121 59.0681 170.432 59.2775 169.727 59.2785C169.252 59.2902 168.78 59.2049 168.339 59.0278C167.898 58.8507 167.498 58.5855 167.163 58.2485C166.829 57.9115 166.566 57.5097 166.392 57.0678C166.218 56.6259 166.136 56.1531 166.152 55.6785ZM172.574 55.6785C172.559 55.1166 172.379 54.5716 172.055 54.1119C171.731 53.6521 171.279 53.2979 170.755 53.0938C170.231 52.8896 169.659 52.8445 169.109 52.9641C168.56 53.0837 168.058 53.3627 167.666 53.7661C167.274 54.1696 167.011 54.6795 166.908 55.2321C166.805 55.7847 166.867 56.3553 167.087 56.8726C167.307 57.3899 167.675 57.8307 168.145 58.14C168.614 58.4493 169.165 58.6132 169.727 58.6112C170.11 58.6161 170.49 58.5429 170.843 58.3961C171.197 58.2493 171.516 58.032 171.783 57.7575C172.049 57.483 172.257 57.157 172.393 56.7996C172.529 56.4421 172.591 56.0606 172.574 55.6785Z" fill="black"/>
<path d="M180.629 55.6791H181.319V58.3792C180.628 58.9806 179.737 59.3016 178.821 59.279C177.865 59.2776 176.95 58.8971 176.275 58.221C175.601 57.5449 175.222 56.6286 175.224 55.6739C175.225 54.7191 175.606 53.804 176.282 53.1298C176.959 52.4557 177.876 52.0777 178.831 52.0791C179.301 52.0585 179.769 52.139 180.205 52.3151C180.641 52.4912 181.034 52.7589 181.358 53.0999L180.911 53.5777C180.646 53.3036 180.327 53.0881 179.973 52.9453C179.62 52.8025 179.241 52.7355 178.86 52.7488C178.4 52.7584 177.949 52.8758 177.543 53.0914C177.138 53.3071 176.788 53.615 176.523 53.9903C176.258 54.3657 176.085 54.798 176.018 55.2525C175.95 55.7069 175.991 56.1708 176.136 56.6067C176.281 57.0427 176.526 57.4385 176.852 57.7623C177.178 58.0862 177.576 58.3289 178.013 58.4711C178.45 58.6132 178.915 58.6508 179.369 58.5808C179.823 58.5108 180.255 58.3351 180.629 58.0679V55.6791Z" fill="black"/>
<path d="M186.613 56.7748V59.2193H185.904V56.7748L183.183 52.1428H183.95L186.282 56.1178L188.614 52.1428H189.332L186.613 56.7748Z" fill="black"/>
<path d="M252.521 48.2039V63.9998H252.11V48.2039H252.521Z" fill="black"/>
<path d="M214.622 53.8773C214.622 55.5152 213.999 56.2064 212.421 56.2064C212.092 56.2103 211.763 56.182 211.44 56.122V55.0407C211.691 55.0709 211.944 55.086 212.198 55.086C213.033 55.086 213.154 54.5549 213.154 53.9545V48.938H214.624L214.622 53.8773Z" fill="black"/>
<path d="M221.08 54.5542C221.08 55.0686 221.08 55.6809 221.091 56.103H219.713C219.691 55.9604 219.679 55.6626 219.671 55.4269C219.498 55.7023 219.251 55.9233 218.957 56.0642C218.664 56.2051 218.337 56.2602 218.014 56.2232C217.75 56.2495 217.485 56.2165 217.236 56.1265C216.987 56.0366 216.761 55.892 216.576 55.7035C216.39 55.5149 216.249 55.2872 216.163 55.0371C216.077 54.7869 216.049 54.5207 216.079 54.258V50.7791H217.485V53.9952C217.485 54.6211 217.697 55.1602 218.485 55.1602C219.334 55.1602 219.674 54.7405 219.674 53.5931V50.7791H221.083L221.08 54.5542Z" fill="black"/>
<path d="M222.627 52.1202C222.627 51.6648 222.627 51.179 222.616 50.7793H223.981C224.013 51.026 224.031 51.2743 224.036 51.523C224.282 51.167 224.636 50.8995 225.045 50.7603C225.455 50.621 225.899 50.6173 226.311 50.7498C226.723 50.8823 227.082 51.1439 227.333 51.4958C227.585 51.8478 227.717 52.2714 227.709 52.7039V56.1032H226.3V52.852C226.3 52.1839 226.039 51.7141 225.264 51.7141C224.44 51.7141 224.032 52.2022 224.032 53.1856V56.1032H222.623L222.627 52.1202Z" fill="black"/>
<path d="M229.237 48.5273H230.645V49.7863H229.237V48.5273ZM229.237 50.7792H230.645V56.1031H229.237V50.7792Z" fill="black"/>
<path d="M233.584 55.5685V58.1596H232.183V52.0673C232.183 51.6349 232.183 51.2009 232.172 50.7789H233.538C233.567 51.0183 233.583 51.2592 233.584 51.5003C233.776 51.2156 234.041 50.9871 234.351 50.8383C234.661 50.6896 235.005 50.6259 235.347 50.6539C236.669 50.6539 237.669 51.6652 237.669 53.3055C237.669 55.1919 236.542 56.227 235.131 56.227C234.838 56.2594 234.542 56.2158 234.271 56.1005C234 55.9851 233.764 55.8019 233.584 55.5685ZM236.235 53.3557C236.235 52.3285 235.757 51.7034 234.915 51.7034C233.902 51.7034 233.526 52.2942 233.526 53.4417C233.526 54.5389 233.857 55.1879 234.844 55.1879C235.768 55.1879 236.235 54.5158 236.235 53.3557Z" fill="black"/>
<path d="M239.968 53.7062C239.946 53.8925 239.964 54.0813 240.019 54.2605C240.075 54.4397 240.167 54.6052 240.291 54.7463C240.414 54.8874 240.566 55.001 240.737 55.0797C240.907 55.1585 241.092 55.2005 241.28 55.2032C241.517 55.2395 241.759 55.1947 241.967 55.076C242.175 54.9573 242.337 54.7718 242.426 54.5495H243.838C243.662 55.0838 243.309 55.5417 242.836 55.847C242.363 56.1523 241.8 56.2865 241.241 56.2273C240.879 56.2514 240.515 56.1974 240.176 56.069C239.837 55.9405 239.529 55.7407 239.273 55.4829C239.018 55.2252 238.821 54.9156 238.696 54.5751C238.571 54.2346 238.52 53.8712 238.548 53.5096C238.508 53.1338 238.551 52.7539 238.674 52.3965C238.797 52.0392 238.997 51.713 239.259 51.4408C239.521 51.1686 239.84 50.957 240.192 50.8208C240.545 50.6847 240.923 50.6272 241.301 50.6525C241.651 50.621 242.005 50.6666 242.336 50.7863C242.667 50.9059 242.968 51.0966 243.217 51.345C243.467 51.5933 243.659 51.8933 243.78 52.2238C243.901 52.5543 243.948 52.9073 243.918 53.2579C243.922 53.4068 243.915 53.5558 243.899 53.7039L239.968 53.7062ZM242.504 52.8877C242.524 52.7204 242.507 52.5508 242.455 52.3907C242.402 52.2306 242.315 52.084 242.2 51.9611C242.085 51.8382 241.944 51.742 241.787 51.6794C241.631 51.6168 241.462 51.5891 241.294 51.5985C240.437 51.5985 240.079 52.1416 240.003 52.8877H242.504Z" fill="black"/>
<path d="M245.081 52.2237C245.081 51.6225 245.081 51.1694 245.07 50.7785H246.451C246.47 50.9083 246.49 51.3996 246.49 51.7643C246.657 51.4087 246.927 51.1122 247.267 50.914C247.606 50.7157 247.997 50.6252 248.389 50.6542V51.8964C247.211 51.8885 246.49 52.2715 246.49 53.6928V56.1024H245.081V52.2237Z" fill="black"/>
<path d="M214.82 61.925C214.857 62.1633 214.838 62.407 214.764 62.6366C214.69 62.8662 214.564 63.0754 214.395 63.2475C214.226 63.4196 214.019 63.5499 213.79 63.628C213.562 63.7062 213.319 63.7299 213.08 63.6975C211.984 63.6975 211.587 63.1353 211.504 62.6177H212.036C212.109 62.8351 212.255 63.0206 212.449 63.1428C212.644 63.2649 212.874 63.3163 213.102 63.2882C214.058 63.2882 214.315 62.726 214.315 61.8549V61.5205C214.201 61.7516 214.017 61.9412 213.789 62.0624C213.561 62.1837 213.301 62.2306 213.045 62.1965C212.818 62.1973 212.593 62.1506 212.386 62.0593C212.178 61.9679 211.991 61.8341 211.839 61.6663C211.686 61.4985 211.57 61.3005 211.498 61.0852C211.427 60.8698 211.401 60.6419 211.423 60.416C211.398 60.1796 211.422 59.9404 211.495 59.7141C211.568 59.4878 211.688 59.2794 211.847 59.1023C212.006 58.9252 212.2 58.7834 212.417 58.6861C212.634 58.5889 212.869 58.5383 213.107 58.5376C213.883 58.5376 214.216 58.8712 214.315 59.1348C214.323 58.9485 214.335 58.704 214.342 58.6228H214.835C214.835 58.7876 214.82 59.3156 214.82 59.658V61.925ZM211.97 60.3961C211.948 60.5645 211.961 60.7355 212.009 60.8983C212.057 61.0611 212.139 61.2122 212.248 61.3418C212.358 61.4714 212.494 61.5768 212.646 61.6511C212.799 61.7255 212.966 61.7672 213.135 61.7737C214.054 61.7737 214.33 61.2163 214.33 60.3404C214.33 59.4645 214.054 58.9564 213.161 58.9564C212.341 58.9564 211.972 59.5935 211.972 60.3897" fill="black"/>
<path d="M216.042 59.5965C216.042 59.0391 216.035 58.7723 216.034 58.6226H216.545C216.555 58.7309 216.564 58.9842 216.564 59.3926C216.678 59.1334 216.867 58.9138 217.106 58.7615C217.345 58.6093 217.624 58.5313 217.907 58.5374V59.0295C217.725 59.0185 217.544 59.0465 217.374 59.1117C217.204 59.177 217.05 59.2779 216.923 59.4077C216.796 59.5375 216.698 59.6931 216.636 59.864C216.574 60.0349 216.549 60.2171 216.564 60.3983V62.2051H216.042V59.5965Z" fill="black"/>
<path d="M221.866 60.4061C221.885 60.6515 221.852 60.898 221.769 61.1296C221.686 61.3613 221.555 61.5729 221.385 61.7506C221.214 61.9284 221.008 62.0683 220.781 62.1612C220.553 62.2542 220.308 62.2981 220.062 62.2901C219.819 62.2952 219.579 62.2492 219.356 62.1551C219.132 62.0611 218.932 61.921 218.766 61.7442C218.601 61.5673 218.475 61.3576 218.396 61.1287C218.317 60.8998 218.287 60.6568 218.309 60.4157C218.289 60.171 218.321 59.925 218.403 59.6937C218.485 59.4624 218.615 59.2511 218.785 59.0736C218.955 58.8961 219.16 58.7565 219.387 58.6639C219.615 58.5713 219.859 58.5279 220.105 58.5365C220.348 58.5284 220.59 58.5722 220.814 58.6648C221.039 58.7574 221.242 58.8967 221.409 59.0735C221.575 59.2503 221.703 59.4606 221.782 59.6904C221.861 59.9201 221.891 60.1641 221.869 60.4061M218.852 60.4133C218.83 60.5919 218.845 60.7731 218.897 60.9455C218.948 61.118 219.035 61.2778 219.152 61.4148C219.269 61.5518 219.413 61.6631 219.575 61.7415C219.737 61.82 219.913 61.8639 220.093 61.8705C220.881 61.8705 221.324 61.2757 221.324 60.4149C221.324 59.5867 220.886 58.9561 220.078 58.9561C219.258 58.9561 218.852 59.5732 218.852 60.4133Z" fill="black"/>
<path d="M225.821 61.1595C225.821 61.5091 225.828 62.0354 225.828 62.2042H225.322C225.303 62.0103 225.294 61.8154 225.297 61.6205C225.189 61.8466 225.012 62.033 224.792 62.1531C224.572 62.2733 224.32 62.3213 224.071 62.2902C223.895 62.3109 223.717 62.2913 223.55 62.2329C223.383 62.1745 223.232 62.0788 223.107 61.9531C222.983 61.8275 222.889 61.6751 222.832 61.5077C222.775 61.3402 222.757 61.162 222.78 60.9867V58.6226H223.295V60.8792C223.295 61.3785 223.467 61.8531 224.185 61.8531C224.992 61.8531 225.297 61.4414 225.297 60.4755V58.6226H225.82L225.821 61.1595Z" fill="black"/>
<path d="M227.564 61.7113V63.6223H227.044V59.5008C227.044 59.2078 227.044 58.898 227.036 58.6249H227.545C227.562 58.827 227.568 59.0297 227.564 59.2325C227.7 59.0039 227.897 58.8179 228.133 58.6955C228.369 58.5731 228.634 58.5191 228.899 58.5397C229.123 58.5429 229.343 58.5929 229.547 58.6866C229.75 58.7804 229.931 58.9156 230.079 59.0838C230.226 59.2519 230.337 59.4491 230.403 59.6626C230.47 59.8761 230.491 60.1012 230.465 60.3234C230.499 60.5673 230.48 60.8157 230.41 61.0519C230.34 61.2881 230.221 61.5067 230.06 61.693C229.899 61.8794 229.7 62.0293 229.476 62.1327C229.252 62.2361 229.009 62.2906 228.763 62.2925C228.53 62.3161 228.295 62.2748 228.084 62.1732C227.873 62.0716 227.694 61.9136 227.568 61.7168M229.924 60.3425C229.924 59.5462 229.513 58.9681 228.786 58.9681C227.9 58.9681 227.541 59.4785 227.541 60.4054C227.541 61.3139 227.827 61.8713 228.736 61.8713C229.506 61.8713 229.931 61.2829 229.931 60.3425" fill="black"/>
<path d="M261.574 53.6265C261.369 54.6864 260.513 55.3887 258.98 55.3887C258.625 55.4275 258.265 55.388 257.927 55.2731C257.589 55.1582 257.279 54.9706 257.021 54.7235C256.763 54.4764 256.562 54.1758 256.433 53.8428C256.303 53.5098 256.248 53.1525 256.271 52.796C256.251 52.4299 256.31 52.0637 256.444 51.7226C256.579 51.3814 256.786 51.0735 257.051 50.8199C257.316 50.5664 257.633 50.3733 257.979 50.2539C258.326 50.1346 258.695 50.0918 259.06 50.1285C260.701 50.1285 261.45 50.9948 261.558 51.8731H259.934C259.903 51.6607 259.791 51.4686 259.621 51.3378C259.451 51.2069 259.236 51.1476 259.023 51.1724C258.226 51.1724 257.956 51.858 257.956 52.7442C257.956 53.5477 258.182 54.3424 259.041 54.3424C259.254 54.3589 259.466 54.2941 259.633 54.1612C259.8 54.0282 259.911 53.8369 259.943 53.6257L261.574 53.6265Z" fill="black"/>
<path d="M263.765 53.759C263.858 54.201 264.198 54.3865 264.727 54.3865C265.221 54.3865 265.45 54.2272 265.45 53.935C265.45 53.6014 265.202 53.4755 264.321 53.2836C262.673 52.9213 262.345 52.3751 262.345 51.6911C262.345 50.8399 263.033 50.1272 264.588 50.1272C266.203 50.1272 266.863 50.8717 266.941 51.672H265.361C265.318 51.3996 265.164 51.1225 264.584 51.1225C264.209 51.1225 263.979 51.2507 263.979 51.5255C263.979 51.8002 264.183 51.9069 265.044 52.0988C266.765 52.489 267.106 53.0543 267.106 53.771C267.106 54.7265 266.298 55.385 264.659 55.385C263.115 55.385 262.296 54.7305 262.173 53.755L263.765 53.759Z" fill="black"/>
<path d="M269.621 50.2234H267.981V55.2949H269.621V50.2234Z" fill="black"/>
<path d="M261.081 60.363C260.943 60.8226 260.65 61.2203 260.253 61.4887C259.855 61.7571 259.376 61.8796 258.898 61.8353C258.555 61.8512 258.212 61.7933 257.893 61.6656C257.573 61.538 257.285 61.3435 257.047 61.0952C256.809 60.847 256.628 60.5507 256.514 60.2264C256.4 59.902 256.357 59.5571 256.388 59.2148C256.361 58.8703 256.407 58.5239 256.522 58.1983C256.638 57.8726 256.821 57.5749 257.059 57.3245C257.298 57.0741 257.586 56.8767 257.906 56.745C258.226 56.6133 258.569 56.5502 258.915 56.56C259.4 56.5009 259.889 56.6226 260.29 56.9017C260.691 57.1809 260.974 57.5979 261.086 58.0729H260.508C260.4 57.7386 260.18 57.4517 259.885 57.2602C259.59 57.0687 259.238 56.9843 258.889 57.0211C257.553 57.0211 257 58.1271 257 59.2044C256.966 59.4766 256.991 59.7527 257.072 60.0146C257.154 60.2766 257.289 60.5183 257.471 60.7239C257.652 60.9295 257.876 61.0944 258.125 61.2076C258.375 61.3208 258.646 61.3798 258.921 61.3807C259.259 61.406 259.596 61.3207 259.881 61.1377C260.166 60.9547 260.384 60.6839 260.501 60.3662L261.081 60.363Z" fill="black"/>
<path d="M267.107 59.171C267.134 59.5235 267.085 59.8776 266.964 60.2098C266.843 60.542 266.653 60.8447 266.406 61.0979C266.16 61.351 265.862 61.5489 265.532 61.6782C265.203 61.8075 264.85 61.8654 264.497 61.8481C263.973 61.8553 263.459 61.7071 263.02 61.4223C262.581 61.1374 262.236 60.7288 262.029 60.248C261.822 59.7671 261.763 59.2358 261.858 58.7212C261.954 58.2066 262.2 57.7319 262.565 57.357C262.93 56.9822 263.399 56.7241 263.911 56.6155C264.424 56.5068 264.957 56.5525 265.443 56.7467C265.929 56.9409 266.347 57.2749 266.643 57.7065C266.939 58.138 267.101 58.6477 267.107 59.171ZM262.555 59.1821C262.527 59.4586 262.558 59.7377 262.644 60.0018C262.73 60.2659 262.871 60.5091 263.056 60.7162C263.241 60.9233 263.468 61.0896 263.721 61.2047C263.974 61.3197 264.248 61.381 264.526 61.3846C265.922 61.3846 266.495 60.3439 266.495 59.1798C266.52 58.9063 266.487 58.6307 266.4 58.3705C266.312 58.1103 266.171 57.8712 265.985 57.6686C265.8 57.4659 265.574 57.304 265.323 57.1933C265.071 57.0825 264.8 57.0253 264.525 57.0253C264.25 57.0253 263.979 57.0825 263.727 57.1933C263.476 57.304 263.25 57.4659 263.065 57.6686C262.879 57.8712 262.738 58.1103 262.65 58.3705C262.563 58.6307 262.53 58.9063 262.555 59.1798" fill="black"/>
<path d="M273.182 59.488C273.182 58.5046 273.192 57.5387 273.217 57.0131H273.189C272.956 57.768 271.914 60.1536 271.225 61.7741H270.686C270.168 60.4913 269.088 57.8277 268.831 57.0044H268.811C268.853 57.5944 268.87 58.7665 268.87 59.648V61.7741H268.313V56.6333H269.177C269.894 58.3206 270.784 60.5144 270.987 61.1283H271.002C271.133 60.6999 272.173 58.2736 272.908 56.6333H273.754V61.7741H273.183L273.182 59.488Z" fill="black"/>
<path d="M275.349 56.6333H277.429C278.494 56.6333 279.224 57.1716 279.224 58.0937C279.224 59.054 278.48 59.5915 277.377 59.5915H275.935V61.7741H275.35L275.349 56.6333ZM275.934 59.1312H277.381C278.232 59.1312 278.616 58.7331 278.616 58.1096C278.616 57.4479 278.129 57.0935 277.412 57.0935H275.934V59.1312Z" fill="black"/>
<path d="M280.439 60.1029L279.769 61.775H279.188L281.238 56.6343H281.938L284.076 61.775H283.453L282.767 60.1029H280.439ZM282.599 59.6378C282.011 58.1894 281.699 57.4624 281.581 57.0969H281.573C281.435 57.507 281.086 58.3988 280.611 59.6378H282.599Z" fill="black"/>
<path d="M285.018 61.7741V56.6333H285.821C286.671 57.8532 288.603 60.582 288.942 61.141H288.951C288.899 60.4363 288.906 59.6552 288.906 58.8167V56.6333H289.471V61.7741H288.721C287.924 60.6179 285.938 57.7361 285.556 57.1652H285.547C285.587 57.8022 285.583 58.6049 285.583 59.5357V61.7741H285.018Z" fill="black"/>
<path d="M292.301 61.774V59.8629C292.301 59.8186 292.289 59.7752 292.266 59.7371L290.258 56.6316H290.925C291.467 57.4876 292.378 58.9201 292.627 59.3342C292.866 58.9241 293.798 57.494 294.371 56.6316H294.999L292.913 59.757C292.893 59.7935 292.883 59.8353 292.886 59.8772V61.7724L292.301 61.774Z" fill="black"/>
</g>
</g>
<defs>
<clipPath id="clip0_2006_5298">
<rect width="295" height="64" fill="white"/>
</clipPath>
</defs>
</svg>
