<svg width="64" height="64" viewBox="0 0 64 64" fill="none" xmlns="http://www.w3.org/2000/svg">
<path d="M3.12851 32.309C3.12851 37.8157 9.59079 45.5592 17.5678 51.5755C8.26012 46.267 0 37.929 0 32.309C0 26.689 8.24596 18.3086 17.5678 13C9.57664 19.0164 3.12851 26.8023 3.12851 32.309Z" fill="#0D3E67"/>
<path d="M46.4322 13C55.7611 18.3156 64 26.689 64 32.309C64 37.9219 55.7469 46.267 46.4322 51.5755C54.4092 45.5592 60.8786 37.8157 60.8786 32.309C60.8786 26.8023 54.4304 19.0164 46.4322 13Z" fill="#0D3E67"/>
<path d="M13.8872 39.5074C14.1918 39.5566 14.499 39.5874 14.8073 39.5994C17.13 39.7318 19.4601 39.6155 21.758 39.2526C22.2682 40.668 22.8542 42.055 23.5134 43.4074C19.3727 43.9454 17.0157 43.5773 15.7275 43.1172C14.9847 41.9844 14.3677 40.774 13.8872 39.5074Z" fill="#0D3E67"/>
<path d="M23.3506 36.8036C22.9684 35.1402 22.6923 33.5689 22.4941 32.1533C25.4487 31.5094 28.3687 30.7156 31.2426 29.775C33.7058 29.0177 43.601 25.8113 47.777 21.6777C48.5255 22.7338 49.1657 23.8626 49.6881 25.0469C43.8982 31.2261 33.2457 34.2484 33.0829 34.2979C29.8971 35.3451 26.646 36.1821 23.3506 36.8036Z" fill="#0D3E67"/>
<path d="M28.9847 51.6959C24.6701 51.0241 20.7092 48.9139 17.7447 45.7078L18.2898 45.7574C20.386 45.8697 22.4883 45.7582 24.5609 45.4247C25.7707 47.6899 27.2566 49.7963 28.9847 51.6959Z" fill="#0D3E67"/>
<path d="M13.144 37.1787C12.8115 35.7682 12.6405 34.3244 12.6344 32.8753L13.873 33.0593C16.0615 33.1589 18.2541 33.0021 20.4061 32.5921C20.6043 34.0219 20.8803 35.5437 21.2484 37.1787C18.5636 37.6034 15.8288 37.6034 13.144 37.1787Z" fill="#0D3E67"/>
<path d="M26.8188 45.0425C30.0128 44.4027 33.1658 43.5731 36.261 42.5581C37.5988 42.1051 47.1117 38.7501 51.2595 34.2342C50.875 38.985 48.7421 43.4242 45.2733 46.693C41.8045 49.9617 37.2465 51.8276 32.4813 51.9294C30.1667 50.0211 28.2438 47.6823 26.8188 45.0425Z" fill="#0D3E67"/>
<path d="M22.9471 15.7746C21.029 18.6625 19.5355 23.2632 20.1654 30.405C16.3928 31.0491 14.1137 30.9642 12.7476 30.6952C13.0847 27.5597 14.1924 24.5564 15.9721 21.953C17.7517 19.3496 20.148 17.227 22.9471 15.7746Z" fill="#0D3E67"/>
<path d="M30.6552 27.7083C27.3497 28.77 24.5963 29.499 22.2889 29.9945L22.2393 30.0086C21.397 19.7242 25.2687 15.5835 27.5479 14.0617C30.9526 13.278 34.505 13.4193 37.8367 14.4709C41.1684 15.5226 44.1581 17.4463 46.4959 20.0427C43.7425 22.8031 36.2327 26.0024 30.6552 27.7083Z" fill="#0D3E67"/>
<path d="M50.5021 27.2765C50.8192 28.2752 51.0559 29.2977 51.2099 30.3342L51.1745 30.3413C51.2595 31.7569 47.2816 36.6054 35.6381 40.5267C32.4172 41.6141 29.1221 42.468 25.7784 43.0818C25.0811 41.7243 24.4574 40.3303 23.9097 38.9058C27.218 38.2672 30.4827 37.4209 33.6846 36.3718C34.2225 36.2161 44.238 33.3778 50.5021 27.2765Z" fill="#0D3E67"/>
</svg>
