<svg width="309" height="64" viewBox="0 0 309 64" fill="none" xmlns="http://www.w3.org/2000/svg">
<g clip-path="url(#clip0_2004_4962)">
<path d="M309.221 57.8942C309.221 61.3517 306.425 64.1471 302.967 64.1471C299.509 64.1471 296.713 61.3517 296.713 57.8942C296.713 54.4368 299.509 51.6414 302.967 51.6414C306.425 51.6414 309.221 54.4368 309.221 57.8942Z" fill="white"/>
<path d="M284.28 57.8942C284.28 61.3517 281.484 64.1471 278.026 64.1471C274.568 64.1471 271.773 61.3517 271.773 57.8942C271.773 54.4368 274.568 51.6414 278.026 51.6414C281.484 51.6414 284.28 54.4368 284.28 57.8942Z" fill="white"/>
<path d="M259.266 57.8942C259.266 61.3517 256.47 64.1471 253.012 64.1471C249.554 64.1471 246.758 61.3517 246.758 57.8942C246.758 54.4368 249.554 51.6414 253.012 51.6414C256.47 51.6414 259.266 54.4368 259.266 57.8942Z" fill="white"/>
<path d="M234.251 57.8942C234.251 61.3517 231.456 64.1471 227.998 64.1471C224.54 64.1471 221.744 61.3517 221.744 57.8942C221.744 54.4368 224.54 51.6414 227.998 51.6414C231.456 51.6414 234.251 54.4368 234.251 57.8942Z" fill="white"/>
<path d="M209.237 57.8942C209.237 61.3517 206.441 64.1471 202.983 64.1471C199.526 64.1471 196.73 61.3517 196.73 57.8942C196.73 54.4368 199.526 51.6414 202.983 51.6414C206.441 51.6414 209.237 54.4368 209.237 57.8942Z" fill="white"/>
<path d="M184.149 57.8942C184.149 61.3517 181.353 64.1471 177.896 64.1471C174.438 64.1471 171.642 61.3517 171.642 57.8942C171.642 54.4368 174.438 51.6414 177.896 51.6414C181.353 51.6414 184.149 54.4368 184.149 57.8942Z" fill="white"/>
<path d="M39.287 25.8942C39.287 20.8184 42.377 15.9632 47.6742 15.9632C52.8978 15.9632 55.9878 20.8919 55.9878 25.8942C55.9878 30.6758 53.4128 35.8253 47.6742 35.8253C41.862 35.8253 39.287 30.6023 39.287 25.8942ZM34.0635 25.8942C34.0635 33.4712 39.6549 39.7977 47.6742 39.7977C55.6935 39.7977 61.2849 33.4712 61.2849 25.8942C61.2849 17.8023 55.8406 11.9908 47.6742 11.9908C39.5078 11.9172 34.0635 17.8023 34.0635 25.8942ZM34.0635 25.8942C34.0635 33.4712 39.6549 39.7977 47.6742 39.7977C55.6935 39.7977 61.2849 33.4712 61.2849 25.8942C61.2849 17.8023 55.8406 11.9908 47.6742 11.9908C39.5078 11.9172 34.0635 17.8023 34.0635 25.8942ZM39.287 25.8942C39.287 20.8184 42.377 15.9632 47.6742 15.9632C52.8978 15.9632 55.9878 20.8919 55.9878 25.8942C55.9878 30.6758 53.4128 35.8253 47.6742 35.8253C41.862 35.8253 39.287 30.6023 39.287 25.8942Z" fill="white"/>
<path d="M152.146 37.3702L143.317 13.315C143.317 13.2414 143.243 13.1679 143.243 13.0943C143.243 12.8 143.464 12.5793 143.832 12.5793H147.584H147.658C148.099 12.5793 148.541 12.8736 148.688 13.315L155.677 34.5747H155.751L162.813 13.3885V13.315C162.961 12.9472 163.328 12.6529 163.77 12.6529H167.228C167.522 12.6529 167.816 12.8736 167.816 13.1679C167.816 13.2414 167.816 13.2414 167.816 13.315L158.693 38.4L152.808 55.3931C152.808 55.4667 152.734 55.5403 152.734 55.6138C152.513 55.8345 152.219 55.9081 151.925 55.6874L148.982 53.3334C148.541 52.9656 148.393 52.5242 148.614 52.0828L153.102 40.4598C153.176 40.1656 152.44 38.2529 152.146 37.3702Z" fill="white"/>
<path d="M135.371 28.8368V26.4828C134.341 26.4828 133.238 26.4092 132.208 26.4092C129.559 26.4092 122.938 26.8506 122.938 31.4851C122.938 34.2805 125.66 35.8253 127.941 35.8253C132.796 35.8253 135.371 32.8092 135.371 28.8368ZM140.448 38.1057C140.448 38.6943 139.933 39.2092 139.344 39.2092H137.063C136.401 39.2092 135.886 38.7678 135.886 38.1057V35.7517H135.813C134.636 37.3701 132.061 39.7977 127.499 39.7977C121.761 39.7977 117.714 37.2966 117.714 31.4851C117.714 24.7908 125.071 22.731 130.148 22.731C132.061 22.731 133.458 22.731 135.371 22.8046C135.371 18.2437 133.679 15.8897 128.75 15.8897C126.616 15.8897 124.336 16.4782 122.496 17.5816C122.349 17.6552 122.128 17.7287 121.908 17.7287C121.319 17.7287 120.878 17.2874 120.804 16.6988L120.657 14.7862C120.657 14.5655 120.731 14.3448 120.951 14.2713C123.379 12.8736 126.175 11.9172 129.486 11.9172C137.137 11.9172 140.227 15.669 140.227 22.9517V33.9862C140.301 35.8988 140.374 37.1494 140.448 38.1057Z" fill="white"/>
<path d="M92.3319 25.7471C92.2584 29.9402 94.4655 35.8253 99.7627 35.8253C105.354 35.8253 107.635 30.3816 107.635 25.8943C107.635 20.9655 105.06 15.8897 99.6891 15.8897C94.3184 15.8897 92.1848 20.892 92.3319 25.7471ZM107.782 38.0322V35.3839H107.708C106.384 37.3701 103.368 39.7977 98.5855 39.7977C90.4927 39.7977 87.1084 32.6621 87.1084 25.3793C87.1084 18.2437 90.8605 11.9172 98.6591 11.9172C103.294 11.9172 106.016 13.7563 107.561 16.1839H107.635V1.10345C107.635 0.514943 108.076 0 108.665 0H111.461C112.049 0 112.564 0.441379 112.564 1.10345V38.0322C112.564 38.6207 112.123 39.0621 111.534 39.1356H108.886C108.297 39.1356 107.782 38.6207 107.782 38.0322Z" fill="white"/>
<path d="M28.0306 38.1057C28.0306 38.6942 27.5156 39.2092 26.927 39.2092H23.837C23.2485 39.2092 22.807 38.6942 22.807 38.1057V22.5839H5.22345V38.1057C5.22345 38.6942 4.78202 39.1356 4.19345 39.2092H4.11988H1.17702C0.514877 39.2092 -0.00012207 38.6942 -0.00012207 38.1057V38.0321V3.89881C-0.00012207 3.23674 0.514878 2.79536 1.10345 2.79536H4.19345C4.78202 2.79536 5.29702 3.31031 5.29702 3.82525V17.9494H22.807V3.75169C22.807 3.16318 23.322 2.7218 23.9106 2.7218H26.927C27.5892 2.7218 28.1042 3.23674 28.1042 3.82525V38.1057H28.0306Z" fill="white"/>
<path d="M67.612 39.1356H67.5385C66.9499 39.1356 66.4349 38.6207 66.4349 38.0322V1.10345C66.4349 0.514943 66.9499 0 67.5385 0H67.612H70.3342C70.9228 0 71.4378 0.514943 71.4378 1.10345V39.1356H67.612Z" fill="white"/>
<path d="M78.942 39.1356H78.8684C78.2798 39.1356 77.7648 38.6207 77.7648 38.0322V13.6092C77.7648 13.0207 78.2798 12.5057 78.8684 12.5057H81.6641C82.2527 12.5057 82.7677 13.0207 82.7677 13.6092V39.1356H78.942Z" fill="white"/>
<path d="M82.9884 1.02986V5.51722C82.9884 6.10572 82.4734 6.54711 81.8848 6.54711H81.8113H77.397V2.05975C77.397 1.47124 77.912 0.956299 78.5005 0.956299H78.5741H82.9884V1.02986Z" fill="white"/>
<path d="M39.287 25.8943C39.287 30.6759 41.862 35.8253 47.6742 35.8253C53.4863 35.8253 55.9878 30.6023 55.9878 25.8943C55.9878 20.8184 52.8978 15.9633 47.6742 15.9633C42.377 15.8897 39.287 20.8184 39.287 25.8943ZM34.0635 25.8943C34.0635 17.8023 39.5078 11.9908 47.6742 11.9908C55.8406 11.9908 61.2849 17.8023 61.2849 25.8943C61.2849 33.4713 55.6935 39.7977 47.6742 39.7977C39.5813 39.7977 34.0635 33.4713 34.0635 25.8943Z" fill="white"/>
<path d="M199.305 37.7379C199.305 38.2528 199.011 38.6207 198.643 38.7678C195.994 39.6505 192.978 39.7977 190.991 39.7977C179.367 39.7977 171.716 32.3678 171.716 20.8184C171.716 9.63675 179.882 2.1333 191.065 2.1333C193.64 2.1333 196.141 2.50111 198.496 3.38387H198.569C198.937 3.531 199.231 3.89882 199.231 4.3402L198.937 7.87123C198.937 8.16548 198.643 8.38617 198.422 8.38617C198.348 8.38617 198.275 8.38617 198.201 8.31261C196.068 7.20916 193.713 6.69422 191.359 6.69422C182.898 6.69422 177.307 12.7264 177.307 20.8919C177.307 29.4253 183.487 35.1632 191.138 35.1632C193.419 35.1632 196.436 34.6482 198.422 33.7655C198.496 33.7655 198.569 33.6919 198.643 33.6919C198.937 33.6919 199.158 33.9126 199.158 34.2804L199.305 37.7379Z" fill="white"/>
<path d="M229.028 38.0322C229.028 38.6207 228.513 39.1356 227.924 39.1356H225.128C224.54 39.1356 224.025 38.6207 224.025 38.0322V37.9586V25.3793C224.025 19.2 222.627 16.1839 218.36 15.8897C212.768 15.8897 210.193 20.377 210.193 26.8506V38.1057C210.193 38.6943 209.752 39.1356 209.163 39.2092H206.368C205.779 39.2092 205.264 38.6943 205.264 38.1057V1.17701C205.264 0.514941 205.779 0 206.368 0H209.163C209.752 0 210.267 0.514943 210.267 1.10345V16.331H210.341C212.106 13.5356 215.196 11.9172 218.948 11.9172C225.864 11.9172 228.954 16.1839 228.954 23.3195V38.0322H229.028Z" fill="white"/>
<path d="M281.631 37.9587C281.631 38.5472 281.263 38.915 280.822 39.0621C278.983 39.7242 277.07 39.7977 275.525 39.7977C267.432 39.7977 261.914 33.4713 261.914 25.8943C261.914 17.8023 267.358 11.9908 275.525 11.9908C277.143 11.9908 279.13 12.2851 280.601 12.7265C281.116 12.8736 281.411 13.2414 281.411 13.7564V13.8299L281.19 16.3311C281.19 16.6253 280.969 16.846 280.601 16.846C280.528 16.846 280.454 16.846 280.454 16.846C278.762 16.2575 277.143 15.9633 275.746 15.9633C270.228 15.9633 267.138 20.892 267.138 25.8943C267.138 30.6759 269.713 35.8253 276.04 35.8253C277.438 35.8253 279.203 35.4575 280.601 34.7219C280.675 34.6483 280.748 34.6483 280.896 34.6483C281.19 34.6483 281.411 34.869 281.411 35.1633L281.631 37.9587Z" fill="white"/>
<path d="M303.482 39.1356C303.114 39.1356 302.82 38.9885 302.599 38.7678L290.975 25.4529V38.0322C290.975 38.6207 290.46 39.1356 289.871 39.1356H289.798H287.223H287.149C286.561 39.1356 286.046 38.6207 286.046 38.0322V1.10345C286.046 0.514943 286.561 0 287.149 0H289.871C290.533 0 290.975 0.514943 290.975 1.10345V23.3195L301.348 12.9471C301.569 12.7264 301.863 12.5793 302.158 12.5793H307.087C307.381 12.5793 307.602 12.8 307.602 13.1678C307.602 13.3149 307.528 13.4621 307.455 13.5356L295.978 24.423L309.073 38.2529C309.221 38.3264 309.294 38.4736 309.294 38.6943C309.294 38.9885 309.073 39.2092 308.779 39.2092L303.482 39.1356Z" fill="white"/>
<path d="M239.548 23.3195H253.38C253.38 19.2736 250.952 15.8897 246.685 15.8897C241.903 15.8897 239.916 19.8621 239.548 23.3195ZM256.617 37.2965C256.617 37.8115 256.323 38.1793 255.955 38.3264C254.189 38.9885 252.056 39.7977 248.156 39.7977C238.666 39.7977 234.325 34.0598 234.325 25.3793C234.325 17.508 239.328 11.9172 246.906 11.9172C255.587 11.9172 258.603 18.0965 258.677 26.4092C258.677 26.7034 258.456 26.9977 258.162 26.9977H239.622C239.622 32.2942 243.742 35.8988 248.451 35.8988C251.173 35.8988 254.189 34.7218 255.881 33.7655C255.955 33.692 256.028 33.692 256.176 33.692C256.47 33.692 256.764 33.9126 256.764 34.2069V37.2965H256.617Z" fill="white"/>
</g>
<defs>
<clipPath id="clip0_2004_4962">
<rect width="309" height="64" fill="white"/>
</clipPath>
</defs>
</svg>
