<svg width="64" height="64" viewBox="0 0 64 64" fill="none" xmlns="http://www.w3.org/2000/svg">
<path d="M63.6185 36.0046C62.3378 40.1228 58.0689 43.9899 52.9462 44.7935C53.7749 46.0741 54.1516 47.6561 53.9507 49.4139C53.3982 54.185 48.828 58.027 43.9313 58.0773C40.6167 58.1024 36.1218 56.671 32.9578 51.6739C30.1202 47.2292 29.7184 40.173 29.9193 38.0386C26.454 41.5792 24.2944 45.0195 23.2649 47.405C20.9546 52.8039 20.0758 59.383 20.126 62.4717C20.126 62.4717 19.6991 62.8735 19.2973 62.9488C18.0167 62.7228 16.9118 62.2457 16.0831 61.5175C15.0786 60.6135 14.8526 59.7597 14.8526 59.7597C16.3844 52.1008 18.8202 47.3297 22.4613 41.8806C27.358 34.523 34.9164 29.9779 43.8811 27.2408C50.3598 25.257 57.0896 24.8301 61.71 28.7474C64.196 30.8066 64.3467 33.7697 63.6185 36.0046ZM25.4496 31.9366C23.9178 34.4979 19.7242 38.6161 16.4095 40.7506C9.50398 45.1701 4.53196 45.4715 2.04596 43.8895C1.74462 43.7137 1.49352 43.4877 1.26752 43.2617C-0.666038 41.2277 -0.339599 37.6117 1.9204 34.6486C3.02529 33.1921 4.45662 32.1626 5.83773 31.6855C4.75795 31.1832 4.02975 30.1286 3.87908 28.647C3.57775 25.6839 5.81264 21.7917 8.90131 20.2097C11.6133 18.8286 17.4642 17.4474 21.7582 23.8508C23.4406 26.3368 24.9473 29.8774 25.4496 31.9366ZM53.8251 5.01742C53.4485 1.32609 49.506 -0.0299136 45.1618 1.82831C43.1027 2.7072 41.2947 4.18876 40.014 5.8712C40.2149 4.18876 39.7378 2.7072 38.5325 1.82831C36.1469 0.0956421 31.8027 1.37631 28.8396 4.59054C27.81 5.72054 24.4451 9.78854 24.2693 15.765C24.194 18.6528 25.4746 25.0561 29.6933 29.4757C40.9431 25.2319 46.9949 18.7281 49.3051 16.0412C51.9669 12.9274 53.0969 10.1903 53.574 8.18143C53.9256 6.59943 53.8754 5.46943 53.8251 5.01742Z" fill="#82C341"/>
<path d="M49.3052 16.0412C51.967 12.9274 53.097 10.1903 53.5741 8.18143C53.5992 8.08098 53.6243 7.98054 53.6494 7.85498C53.097 10.0899 48.3761 15.8654 41.8472 20.7872C35.0672 25.8848 31.2001 28.4461 29.7185 29.4506C40.9432 25.2319 46.995 18.7281 49.3052 16.0412Z" fill="#3CB14A"/>
<path d="M16.4092 40.7256C19.7239 38.5912 23.9175 34.473 25.4493 31.9116C22.4861 34.7241 18.1168 38.9176 10.6085 42.2323C6.8921 43.8143 3.25099 44.417 2.04565 43.8394C4.53166 45.4465 9.50368 45.1452 16.4092 40.7256Z" fill="#3CB14A"/>
<path d="M63.6181 36.0046C63.7939 35.4522 63.9194 34.8746 63.9697 34.272C63.6181 36.6575 62.011 39.5453 59.4497 41.1273C57.1896 42.5335 54.5781 43.4626 51.615 43.2115C52.0921 43.6635 52.4688 44.0402 52.9459 44.7684C58.0686 43.99 62.3375 40.1229 63.6181 36.0046Z" fill="#3CB14A"/>
<path d="M30.6223 33.4941C30.5972 33.5193 30.572 33.5193 30.572 33.5444C30.572 33.5193 30.5972 33.4941 30.6223 33.4941Z" fill="#F9ED32"/>
<path d="M30.572 33.5193C22.5114 39.2948 19.7743 49.6908 19.3223 62.9244C19.724 62.8491 20.1509 62.4473 20.1509 62.4473C20.1007 59.3586 20.9796 52.8046 23.2898 47.3806C24.3194 44.995 26.4789 41.5548 29.9443 38.0141C30.1954 35.6537 30.4716 34.2726 30.6474 33.4941C30.5972 33.4941 30.572 33.5193 30.572 33.5193Z" fill="#3CB14A"/>
</svg>
