<svg width="343" height="64" viewBox="0 0 343 64" fill="none" xmlns="http://www.w3.org/2000/svg">
<g clip-path="url(#clip0_2025_378)">
<path d="M341.8 33.6539C340.569 37.6131 336.465 41.331 331.54 42.1035C332.336 43.3347 332.699 44.8557 332.505 46.5456C331.974 51.1325 327.58 54.8262 322.873 54.8745C319.686 54.8987 315.365 53.5226 312.323 48.7184C309.595 44.4453 309.208 37.6614 309.402 35.6093C306.07 39.0133 303.994 42.3208 303.004 44.6143C300.783 49.8047 299.938 56.1299 299.986 59.0994C299.986 59.0994 299.576 59.4856 299.19 59.558C297.958 59.3408 296.896 58.8821 296.099 58.182C295.134 57.3129 294.917 56.492 294.917 56.492C296.389 49.1288 298.731 44.5418 302.232 39.303C306.939 32.2295 314.206 27.8598 322.824 25.2284C329.053 23.3212 335.523 22.9107 339.965 26.6769C342.355 28.6565 342.5 31.5052 341.8 33.6539ZM305.104 29.7429C303.632 32.2053 299.6 36.1646 296.413 38.2167C289.774 42.4656 284.994 42.7553 282.604 41.2344C282.314 41.0654 282.073 40.8481 281.856 40.6308C279.997 38.6754 280.311 35.1989 282.483 32.3502C283.546 30.95 284.922 29.9602 286.25 29.5015C285.212 29.0186 284.511 28.0047 284.367 26.5803C284.077 23.7316 286.225 19.9896 289.195 18.4686C291.802 17.1408 297.427 15.813 301.556 21.9692C303.173 24.3593 304.622 27.7633 305.104 29.7429ZM332.385 3.86284C332.023 0.313989 328.232 -0.98967 324.056 0.796825C322.076 1.64179 320.338 3.06616 319.107 4.68366C319.3 3.06616 318.841 1.64179 317.682 0.796825C315.389 -0.868961 311.212 0.362272 308.364 3.45243C307.374 4.53881 304.139 8.44979 303.97 14.1955C303.897 16.9719 305.129 23.128 309.184 27.377C320 23.297 325.818 17.0443 328.039 14.4611C330.598 11.4675 331.685 8.83606 332.143 6.90471C332.481 5.38377 332.433 4.29739 332.385 3.86284Z" fill="#82C341"/>
<path d="M328.039 14.4611C330.598 11.4675 331.685 8.83601 332.143 6.90466C332.167 6.8081 332.192 6.71153 332.216 6.59082C331.685 8.73944 327.146 14.2921 320.869 19.0239C314.351 23.9247 310.633 26.3871 309.208 27.3528C320 23.297 325.818 17.0442 328.039 14.4611Z" fill="#3CB14A"/>
<path d="M296.413 38.1925C299.6 36.1405 303.632 32.1812 305.104 29.7188C302.256 32.4226 298.055 36.4543 290.836 39.641C287.263 41.162 283.763 41.7414 282.604 41.1861C284.994 42.7312 289.774 42.4415 296.413 38.1925Z" fill="#3CB14A"/>
<path d="M341.8 33.6541C341.969 33.1229 342.09 32.5677 342.138 31.9883C341.8 34.2818 340.255 37.0581 337.792 38.579C335.62 39.9309 333.109 40.8242 330.26 40.5828C330.719 41.0173 331.081 41.3795 331.54 42.0796C336.465 41.3312 340.569 37.6133 341.8 33.6541Z" fill="#3CB14A"/>
<path d="M310.077 31.2397C310.053 31.2639 310.029 31.2639 310.029 31.288C310.029 31.2639 310.053 31.2397 310.077 31.2397Z" fill="#F9ED32"/>
<path d="M310.029 31.2639C302.28 36.8165 299.648 46.8112 299.214 59.534C299.6 59.4616 300.01 59.0753 300.01 59.0753C299.962 56.1058 300.807 49.8048 303.028 44.5902C304.018 42.2967 306.094 38.9893 309.426 35.5853C309.667 33.3159 309.933 31.9881 310.102 31.2397C310.053 31.2397 310.029 31.2639 310.029 31.2639Z" fill="#3CB14A"/>
<path d="M193.352 44.5904C197.842 42.3211 199.46 37.71 199.46 34.0163C199.46 29.8881 198.204 26.6289 195.766 24.2389C195.549 24.0216 195.331 23.8285 195.09 23.6353L198.953 17.1895H193.231L190.769 21.3177C188.886 20.69 186.906 20.4003 185.095 20.4003C181.498 20.4003 177.901 21.6798 175.245 23.925C173.145 25.7115 170.634 28.8982 170.634 34.0163C170.634 42.9005 177.322 45.0733 183.792 47.1978L187.389 48.3324C191.227 49.4671 193.545 50.1672 193.545 53.1849C193.545 54.561 193.062 55.744 192.096 56.6372C190.6 58.0616 187.968 58.8341 185.071 58.6651C182.536 58.5203 177.153 58.0133 176.477 52.4848H170.924C170.924 59.5342 177.225 64.0005 185.047 64.0005C190.069 64.0005 193.786 62.5761 196.273 60.1619C198.229 58.2789 199.267 55.8405 199.267 53.1125C199.315 49.2498 197.215 46.2321 193.352 44.5904ZM192.459 39.4241C191.517 40.9933 189.851 42.5384 187.775 42.9971C187.775 42.9971 183.864 41.8865 181.329 41.0174C177.901 39.8345 176.308 37.6134 176.308 34.0163C176.308 28.3188 180.871 25.7115 185.119 25.7115C189.344 25.7115 193.883 28.3671 193.883 33.9922C193.883 36.2856 193.328 37.9756 192.459 39.4241Z" fill="#006472"/>
<path d="M133.891 21.3174H128.193V49.4668H133.891V21.3174Z" fill="#006472"/>
<path d="M127.855 14.2921C127.855 12.5056 129.038 11.2261 131.066 11.2261C133.046 11.2261 134.229 12.5056 134.229 14.2921C134.229 16.1751 133.046 17.4547 131.066 17.4547C129.014 17.4305 127.855 16.1751 127.855 14.2921Z" fill="#006472"/>
<path d="M21.4862 13.061H15.5715L0 49.4669H6.13203L10.0913 40.2206H26.9664L30.9257 49.4669H37.0577L21.4862 13.061ZM12.1433 35.1991L18.4926 20.3277L24.8419 35.1991H12.1433Z" fill="#006472"/>
<path d="M106.079 13.061H100.092V49.4669H124.717V44.4454H106.079V13.061Z" fill="#006472"/>
<path d="M239.608 21.8006C236.566 23.1525 234.9 25.5908 234.779 28.4154C234.465 35.0061 239.511 36.5512 246.271 37.4927C251.654 38.2411 254.745 39.0378 254.6 41.7417C254.551 42.5625 253.875 43.6006 252.886 44.0835C249.264 45.8941 240.066 44.9284 235.745 42.2487L234.562 47.0529C237.169 48.7428 241.08 49.7327 244.798 49.9016C248.83 50.0948 252.91 49.8051 255.855 48.4049C258.728 47.0288 260.225 44.4697 260.346 41.7417C260.635 35.2717 254.6 33.8715 248.951 32.8817C242.529 31.7711 240.187 31.1193 240.356 28.343C240.428 27.0393 241.636 26.1944 242.601 25.9047C246.102 24.8183 253.465 25.5425 257.786 27.9084L258.921 23.0559C253.296 20.2313 244.774 19.5071 239.608 21.8006Z" fill="#006472"/>
<path d="M152.818 20.8105C146.565 20.8105 142.364 21.7038 140.409 22.2591L140.192 22.3315V49.4669H145.961V26.3149C147.917 25.8562 149.462 25.7113 152.528 25.7113C157.236 25.7113 160.398 26.8943 160.398 32.6642V49.4428H166.096V32.9297C166.072 24.9147 161.605 20.8105 152.818 20.8105Z" fill="#006472"/>
<path d="M223.746 44.518C221.888 44.9284 220.198 45.0732 217.18 45.0732C212.327 45.0732 209.31 43.9144 209.31 38.1687V21.3418H203.612V37.9031C203.612 45.9182 208.078 49.9982 216.866 49.9982C222.757 49.9982 226.426 49.2739 229.251 48.5496L229.492 48.5014V21.3418H223.722V44.518H223.746Z" fill="#006472"/>
<path d="M82.8788 20.8105C79.1127 20.8105 75.9743 21.5348 73.8739 23.0316C70.7355 25.2526 69.5043 28.6084 69.5043 32.9539V49.4669H75.2017V32.6883C75.2017 30.6363 75.6122 29.1636 76.3364 28.1255C77.6401 26.2183 80.0301 25.7355 83.072 25.7355C84.4964 25.7355 86.1139 25.9045 87.7072 26.2183L88.8419 21.4141C87.0554 21.052 85.0758 20.8105 82.8788 20.8105Z" fill="#006472"/>
<path d="M64.5552 32.6398C63.8792 24.8903 59.2682 20.8345 51.0841 20.8345C42.224 20.8345 37.5164 25.6146 37.5164 34.6919V36.1163C37.5164 45.1936 42.7069 49.9737 52.5084 49.9737C56.4918 49.9737 60.2821 49.3943 63.5171 48.2837L62.31 43.5037L62.0445 43.6002C60.1855 44.3003 56.7091 45.0729 52.5084 45.0729C48.4043 45.0729 43.5277 43.7692 43.407 37.6855H64.6276V34.716C64.6276 33.9676 64.6035 33.2917 64.5552 32.6398ZM51.0841 25.7353C54.4881 25.7353 58.5198 26.9665 58.8095 32.6398H43.4311C43.6484 28.1253 46.2798 25.7353 51.0841 25.7353Z" fill="#006472"/>
</g>
<defs>
<clipPath id="clip0_2025_378">
<rect width="342.162" height="64" fill="white"/>
</clipPath>
</defs>
</svg>
