<svg width="64" height="64" viewBox="0 0 64 64" fill="none" xmlns="http://www.w3.org/2000/svg">
<path d="M64 12.0408C64 13.5376 63.4054 14.9732 62.347 16.0316C61.2885 17.09 59.853 17.6846 58.3562 17.6846C56.8593 17.6846 55.4238 17.09 54.3654 16.0316C53.307 14.9732 52.7123 13.5376 52.7123 12.0408C52.7123 10.544 53.307 9.10843 54.3654 8.05001C55.4238 6.99159 56.8593 6.39697 58.3562 6.39697C59.853 6.39697 61.2885 6.99159 62.347 8.05001C63.4054 9.10843 64 10.544 64 12.0408ZM3.02245 20.6578H18.2502C19.7539 20.6578 20.867 21.146 21.3064 23.2503C21.7946 25.6084 21.6091 27.2488 18.9434 27.4344L14.1589 27.7761C17.6839 49.9902 38.238 57.2361 49.4324 33.2978C51.2877 29.3384 51.8735 28.6159 53.9191 29.1186C56.6678 29.8022 57.0437 31.2277 55.7255 35.2067C46.0636 64.7134 13.5393 67.6743 7.15859 28.2789L3.28692 28.5572C0.12814 28.7818 0.00128582 26.1161 0.00128582 24.6513C-0.00847871 21.7074 1.08025 20.6577 3.02327 20.6577L3.02245 20.6578Z" fill="#D40E14"/>
</svg>
