<svg width="248" height="64" viewBox="0 0 248 64" fill="none" xmlns="http://www.w3.org/2000/svg">
<g clip-path="url(#clip0_2024_138)">
<path opacity="0.5" fill-rule="evenodd" clip-rule="evenodd" d="M23.8321 25.3656C27.6357 28.0505 30.5152 31.9563 31.9039 36.5113C34.0234 31.8805 35.6054 26.9885 35.6054 22.7006C35.6054 21.244 35.3914 19.8376 34.994 18.5107C30.6282 19.689 26.7732 22.108 23.8321 25.3656Z" fill="white"/>
<path opacity="0.7" fill-rule="evenodd" clip-rule="evenodd" d="M23.8321 25.3655C26.7626 22.1537 30.6682 19.6784 34.9932 18.511C34.7296 17.6245 34.3854 16.7649 33.9689 15.9777L33.9671 15.9775L33.9687 15.9806C33.8387 16.045 33.7095 16.1108 33.5808 16.1778C29.5043 18.2148 26.1007 21.4368 23.8321 25.3655Z" fill="white"/>
<path d="M20.2723 21.4009C20.3194 21.4009 20.366 21.4101 20.4095 21.4281C20.453 21.4461 20.4925 21.4724 20.5258 21.5056C20.5591 21.5389 20.5855 21.5783 20.6036 21.6217C20.6216 21.6652 20.6309 21.7117 20.6309 21.7587C20.6309 21.8057 20.6216 21.8522 20.6036 21.8957C20.5856 21.9391 20.5592 21.9785 20.5259 22.0118C20.4926 22.045 20.4531 22.0714 20.4096 22.0894C20.3661 22.1074 20.3195 22.1167 20.2724 22.1167C20.1773 22.1167 20.0861 22.079 20.0189 22.0119C19.9516 21.9448 19.9138 21.8538 19.9138 21.7589C19.9138 21.6639 19.9516 21.5729 20.0188 21.5058C20.086 21.4386 20.1772 21.4009 20.2723 21.4009Z" fill="white"/>
<path opacity="0.8" fill-rule="evenodd" clip-rule="evenodd" d="M15.1906 9.40086C16.9965 8.5934 18.9731 8.13731 21.0782 8.13731C23.2289 8.13731 25.2702 8.60632 27.1068 9.44725C25.5687 8.21638 23.7533 7.31678 21.7681 6.85813C20.4075 6.56368 19.0193 6.41558 17.6271 6.41638C17.581 6.41638 17.5347 6.41559 17.4884 6.41447C11.7825 6.37446 6.59089 3.88259 3.05682 -0.0644531C5.24555 4.4506 9.77121 7.82963 14.6356 9.25355C14.7945 9.29994 14.9962 9.35367 15.1906 9.40086Z" fill="white"/>
<path opacity="0.8" fill-rule="evenodd" clip-rule="evenodd" d="M-0.184143 9.15078C2.75902 8.8439 5.70186 9.01416 8.485 9.82672C7.88308 9.2383 7.32061 8.60525 6.79886 7.94335C4.35381 7.86667 2.00123 8.29439 -0.184143 9.15078Z" fill="white"/>
<path opacity="0.5" fill-rule="evenodd" clip-rule="evenodd" d="M9.6618 13.7644C5.44772 13.3157 2.45026 15.6904 2.40155 15.7398C3.2871 15.1482 4.27247 14.8644 5.41722 14.8644C6.48802 14.8644 7.53599 15.2197 8.37092 15.7428C8.75628 15.0573 9.18429 14.4056 9.6618 13.7644Z" fill="white"/>
<path d="M8.79238 13.0098C6.47429 13.1899 4.15381 14.1998 2.40155 15.7398C2.60373 15.5724 5.56223 13.3278 9.6618 13.7645C9.38038 13.5034 9.09041 13.2517 8.79238 13.0098Z" fill="white"/>
<path opacity="0.8" fill-rule="evenodd" clip-rule="evenodd" d="M8.13296 12.501C5.97362 13.0334 3.94013 14.2329 2.40155 15.7399C4.1479 14.204 6.48036 13.1936 8.79238 13.0097C8.57656 12.835 8.3567 12.6654 8.13296 12.501Z" fill="white"/>
<path opacity="0.5" fill-rule="evenodd" clip-rule="evenodd" d="M9.66169 13.7639C10.1323 13.1866 10.6547 12.5828 11.2138 12.0575C11.2138 12.0651 11.2137 12.0717 11.2138 12.0575C9.15001 10.7882 6.81403 9.85097 4.28466 9.3987C2.85596 9.14315 -0.116429 9.12402 -0.184143 9.15048C0.0959756 9.18699 0.398772 9.24151 0.679689 9.29173C4.15706 9.91362 7.25114 11.5837 9.66169 13.7639Z" fill="white"/>
<path d="M8.485 9.82669C8.49059 9.82828 8.47957 9.82509 8.485 9.82669C5.7255 9.02083 2.73395 8.85424 -0.184143 9.15075C0.294646 9.13465 2.97478 9.16462 4.28466 9.39881C6.81403 9.85108 9.15001 10.7885 11.2138 12.0576C10.2388 11.3975 9.32544 10.6509 8.485 9.82669Z" fill="white"/>
<path opacity="0.3" fill-rule="evenodd" clip-rule="evenodd" d="M11.2138 12.0577C11.2263 12.0461 11.2002 12.0695 11.2138 12.0577C12.0443 11.2831 12.9999 10.5732 13.9939 10.0089C14.0029 10.0121 13.9854 10.0057 13.9939 10.0089C9.08512 8.34661 5.10405 4.67234 3.05682 -0.0649414C4.11262 4.95674 7.11886 9.28017 11.2138 12.0577Z" fill="white"/>
<path d="M15.1906 9.40086C15.0046 9.35576 14.8196 9.30664 14.6358 9.25355C9.77139 7.82963 5.24573 4.4506 3.05701 -0.0644531C5.10408 4.67251 9.08547 8.34694 13.9939 10.0095C14.3831 9.78815 14.7824 9.58504 15.1906 9.40086Z" fill="white"/>
<path opacity="0.7" fill-rule="evenodd" clip-rule="evenodd" d="M31.9041 36.5112C30.7426 32.702 28.5384 29.3476 25.6235 26.7808C25.5877 26.8179 25.5516 26.8544 25.5151 26.8906L25.5152 26.8904L25.52 26.886C28.4234 29.8151 30.4978 33.6369 31.3358 37.8423C31.614 37.2675 31.9648 36.3782 31.9041 36.5112Z" fill="white"/>
<path d="M21.1426 8.12598C23.7139 8.126 26.0561 8.80362 28.1514 9.97852C25.2047 11.5178 22.5842 13.6088 20.4531 16.1016C19.9923 16.1447 19.546 16.2387 19.1191 16.375C18.9591 16.4261 18.8017 16.4828 18.6475 16.5459C18.0454 16.7924 17.4895 17.1277 16.9971 17.5371C16.7376 17.7528 16.4964 17.9894 16.2744 18.2432C16.0567 18.4922 15.8576 18.7579 15.6807 19.0391C15.5785 19.2014 15.4829 19.3683 15.3955 19.54C15.1771 19.9695 15.0067 20.4273 14.8906 20.9062C14.7745 21.385 14.7129 21.885 14.7129 22.3994C14.7129 25.8932 17.5512 28.7256 21.0518 28.7256C21.5708 28.7256 22.0748 28.6615 22.5576 28.5439C22.6093 28.5314 22.6607 28.5178 22.7119 28.5039C23.5418 28.2795 24.3033 27.8914 24.9609 27.376C25.1548 27.2241 25.3409 27.0627 25.5156 26.8896C25.5169 26.8884 25.5182 26.887 25.5195 26.8857C28.4229 29.8149 30.498 33.6373 31.3359 37.8428C27.0716 46.6474 21.1888 54.1705 21.1426 54.2295C21.0859 54.1571 6.61523 35.6584 6.61523 22.6885C6.61526 14.6458 13.1193 8.12598 21.1426 8.12598Z" fill="white"/>
<path opacity="0.5" fill-rule="evenodd" clip-rule="evenodd" d="M28.1511 9.97852C23.5467 12.3838 19.737 16.1325 17.3515 20.6642C17.1037 21.2062 16.9757 21.7952 16.9764 22.391C16.9764 24.6617 18.7925 26.5026 21.0328 26.5026C22.1201 26.5026 23.104 26.0715 23.8323 25.3656C26.101 21.4291 29.4987 18.2177 33.581 16.1777C33.7097 16.1109 33.8389 16.045 33.9689 15.9805C32.6565 13.457 30.6345 11.371 28.1511 9.97852ZM21.0328 24.2884C19.9831 24.2884 19.1321 23.4389 19.1321 22.391C19.1321 21.343 19.9831 20.4934 21.0328 20.4934C22.0827 20.4934 22.9336 21.343 22.9336 22.391C22.9336 23.4389 22.0827 24.2884 21.0328 24.2884Z" fill="white"/>
<path d="M247.587 38.7064C246.291 37.6387 244.411 37.2181 242.498 37.2181C239.322 37.2181 236.114 38.771 235.66 42.4269C235.303 45.3065 237.702 46.3418 239.906 47.3447C241.299 47.9918 242.531 48.5418 242.401 49.6741C242.239 50.9035 241.137 51.1946 239.776 51.1946C237.961 51.1946 235.789 50.4181 235.012 50.127L233.877 53.4917C234.817 54.1064 237.151 54.6242 239.257 54.6242C243.892 54.6242 246.258 52.6506 246.712 49.1887C247.036 46.3093 244.67 45.4357 242.758 44.6593C241.234 44.0446 239.776 43.3975 239.906 42.2651C240.035 41.1975 240.975 40.8415 242.142 40.8415C243.925 40.8415 246.193 41.6828 246.55 42.1681L247.587 38.7064ZM229.242 42.2653C228.983 44.4007 226.714 45.4683 224.77 45.4683C224.348 45.4683 223.83 45.4036 223.376 45.2418C223.83 42.4918 225.321 40.68 227.784 40.68C228.756 40.68 229.34 41.4889 229.242 42.2653ZM228.465 37.3801C222.177 37.3801 219.324 41.8126 218.741 46.4067C218.223 50.7744 220.005 54.4951 225.612 54.4951C228.853 54.4951 231.187 53.7833 231.868 53.5245L231.803 50.2568C230.863 50.6126 229.307 50.9686 227.751 50.9686C225.321 50.9686 223.116 50.1921 223.343 47.7656C223.992 47.9597 224.77 48.0567 225.547 48.0567C228.756 48.0567 233.067 46.6007 233.618 42.2007C234.007 38.933 231.771 37.3801 228.465 37.3801ZM208.11 48.8655C207.754 51.648 207.397 54.6245 212.356 54.6245C212.907 54.6245 214.528 54.5598 215.986 53.9451L215.921 50.7421C215.014 50.9686 214.106 51.0332 213.685 51.0332C212.615 51.0332 212.421 50.4832 212.551 49.2861L213.62 40.7446H217.963L218.579 37.6063H214.009L214.527 33.4651L210.055 33.8534L209.569 37.6388H206.651L206.295 40.7448H209.115L208.11 48.8655ZM198.29 52.9098C198.646 54.0745 199.781 54.5922 201.239 54.5922C202.309 54.5922 203.508 54.3011 204.675 53.7833L204.837 50.8391C204.513 51.0332 204.091 51.1626 203.67 51.1626C203.119 51.1626 202.665 50.9037 202.73 50.2566L204.189 38.5768C202.114 37.6387 200.17 37.2827 198.355 37.2827C191.808 37.2827 189.247 41.7151 188.664 46.1476C188.113 50.5477 189.377 54.5595 194.303 54.5595C195.956 54.5598 197.415 53.8156 198.29 52.9098ZM198.322 50.451C197.479 51.001 196.539 51.1628 195.924 51.1628C193.525 51.1628 192.845 48.8655 193.136 46.439C193.493 43.6567 194.53 40.7124 197.642 40.7124C198.257 40.7124 198.744 40.7448 199.424 41.133L198.322 50.451ZM182.376 41.8124C183.154 41.2948 184.904 41.0359 186.298 41.0359C186.719 41.0359 187.497 41.0682 187.983 41.133L188.891 37.4446C188.372 37.3476 187.854 37.3152 187.4 37.3152C185.617 37.3152 183.737 37.9946 182.311 39.1594V37.6063H178.454L176.445 54.2038H180.853L182.376 41.8124ZM171.097 35.0505H175.602L176.186 30.2622H171.68L171.097 35.0505ZM175.278 37.6065H170.773L168.764 54.204H173.269L175.278 37.6065ZM157.323 43.0742L158.165 36.0536C158.814 35.9241 159.592 35.7947 160.434 35.7947C162.347 35.7947 164.324 36.5065 163.902 39.7419C163.546 42.6538 161.633 43.2684 159.494 43.2684C158.749 43.2684 158.003 43.236 157.323 43.0742ZM151.294 54.2038H155.962L156.934 46.2125C158.068 46.4714 159.138 46.6008 160.208 46.6008C164.356 46.6008 167.759 44.5303 168.375 39.6124C169.121 33.53 165.102 32.3653 160.856 32.3653C158.328 32.3653 155.702 32.624 153.887 33.0123L151.294 54.2038ZM139.95 54.4951C140.404 54.4951 142.316 54.3656 143.516 53.4922L143.451 54.1393C142.997 57.6981 141.506 58.2805 139.659 58.2805C138.297 58.2805 135.867 57.9245 133.792 57.2776L132.787 60.7393C134.797 61.5806 137.26 62.0011 139.043 62.0011C143.03 62.0011 147.016 60.2864 147.761 54.2362L149.803 37.6063H145.363L143.775 50.7419C142.803 51.0979 141.992 51.2272 141.279 51.2272C138.395 51.2272 138.071 48.8654 138.524 45.2418C138.881 42.1682 140.048 38.8034 140.469 37.6063H136.256C135.478 39.6446 134.667 42.5888 134.311 45.436C133.727 50.1273 133.792 54.4951 139.95 54.4951ZM125.625 52.9098C125.981 54.0745 127.116 54.5922 128.574 54.5922C129.644 54.5922 130.843 54.3011 132.01 53.7833L132.172 50.8391C131.848 51.0332 131.426 51.1626 131.005 51.1626C130.454 51.1626 130 50.9037 130.065 50.2566L131.524 38.5768C129.449 37.6387 127.505 37.2827 125.69 37.2827C119.142 37.2827 116.582 41.7151 115.999 46.1476C115.448 50.5477 116.712 54.5595 121.638 54.5595C123.291 54.5598 124.75 53.8156 125.625 52.9098ZM125.657 50.451C124.814 51.001 123.874 51.1628 123.259 51.1628C120.86 51.1628 120.18 48.8655 120.471 46.439C120.828 43.6567 121.865 40.7124 124.977 40.7124C125.592 40.7124 126.079 40.7448 126.759 41.133L125.657 50.451ZM108.317 50.8715C107.539 51.098 106.761 51.195 106.145 51.195C103.747 51.195 102.483 49.6744 102.904 46.2449C103.261 43.1713 104.816 40.7448 107.345 40.7448C107.993 40.7448 108.738 40.7771 109.548 40.9713L108.317 50.8715ZM115.123 31.524H110.715L109.938 37.9624C108.965 37.5095 107.863 37.3801 106.988 37.3801C101.219 37.3801 98.9501 41.9095 98.4314 46.2127C97.5886 52.9098 101.089 54.56 105.108 54.56C107.831 54.56 110.553 54.1394 112.401 53.6218L115.123 31.524ZM92.695 35.0505H97.2003L97.7836 30.2622H93.2784L92.695 35.0505ZM96.8761 37.6065H92.3708L90.3615 54.204H94.8665L96.8761 37.6065ZM88.2874 50.7421C87.3798 50.9686 86.6345 50.9686 86.2454 50.9686C85.2407 50.9686 85.0462 50.451 85.1757 49.2539L87.3474 31.5564H82.8099L80.6707 48.995C80.3467 51.7126 80.1521 54.6245 85.0138 54.6245C85.5324 54.6245 86.8613 54.5274 88.3522 53.9127L88.2874 50.7421ZM71.7901 40.8095C73.6051 40.8095 74.8043 41.6184 74.2858 45.9861C73.7672 50.095 72.3087 51.1628 70.4936 51.1628C68.711 51.1628 67.4794 50.095 67.998 45.9861C68.5167 41.6184 69.9751 40.8095 71.7901 40.8095ZM69.9102 54.6245C74.61 54.6245 77.8834 52.2951 78.6613 45.9538C79.4392 39.5477 76.8787 37.3154 72.2438 37.3154C67.771 37.3154 64.4326 39.6124 63.6548 45.9861C62.8447 52.3597 65.4699 54.6245 69.9102 54.6245ZM56.8814 41.133H49.0701L50.1398 32.5916H45.5049L42.8472 54.2038H47.4821L48.6164 44.886H56.4276L55.2933 54.2038H59.9282L62.5859 32.5916H57.9511L56.8814 41.133Z" fill="white"/>
</g>
<defs>
<clipPath id="clip0_2024_138">
<rect width="247.415" height="64" fill="white"/>
</clipPath>
</defs>
</svg>
