<svg width="64" height="64" viewBox="0 0 64 64" fill="none" xmlns="http://www.w3.org/2000/svg">
<path fill-rule="evenodd" clip-rule="evenodd" d="M36.0161 30.4305C39.8198 33.1154 42.6992 37.0212 44.088 41.5763C46.2074 36.9455 47.7894 32.0534 47.7894 27.7655C47.7894 26.3089 47.5754 24.9025 47.1781 23.5757C42.8123 24.7539 38.9572 27.173 36.0161 30.4305Z" fill="#FABF37"/>
<path fill-rule="evenodd" clip-rule="evenodd" d="M36.0161 30.4305C38.9467 27.2187 42.8522 24.7434 47.1773 23.576C46.9136 22.6894 46.5694 21.8298 46.1529 21.0426L46.1512 21.0425L46.1528 21.0455C46.0228 21.1099 45.8936 21.1758 45.7648 21.2427C41.6883 23.2798 38.2847 26.5018 36.0161 30.4305Z" fill="#DA7F0A"/>
<path d="M32.4564 26.4658C32.5034 26.4658 32.5501 26.4751 32.5936 26.493C32.6371 26.511 32.6766 26.5374 32.7099 26.5706C32.7432 26.6038 32.7696 26.6433 32.7876 26.6867C32.8057 26.7301 32.815 26.7766 32.815 26.8236C32.815 26.8706 32.8057 26.9172 32.7877 26.9606C32.7697 27.004 32.7433 27.0435 32.71 27.0767C32.6767 27.11 32.6372 27.1363 32.5937 27.1543C32.5502 27.1723 32.5036 27.1816 32.4565 27.1816C32.3614 27.1816 32.2702 27.1439 32.203 27.0768C32.1357 27.0097 32.0979 26.9187 32.0979 26.8238C32.0979 26.7289 32.1356 26.6378 32.2029 26.5707C32.2701 26.5036 32.3613 26.4658 32.4564 26.4658Z" fill="#A7A5A6"/>
<path fill-rule="evenodd" clip-rule="evenodd" d="M27.3747 14.4658C29.1806 13.6583 31.1573 13.2022 33.2623 13.2022C35.413 13.2022 37.4543 13.6713 39.2909 14.5122C37.7528 13.2813 35.9375 12.3817 33.9522 11.9231C32.5917 11.6286 31.2034 11.4805 29.8113 11.4813C29.7651 11.4813 29.7188 11.4805 29.6725 11.4794C23.9666 11.4394 18.775 8.94753 15.241 5.00049C17.4297 9.51554 21.9554 12.8946 26.8197 14.3185C26.9786 14.3649 27.1803 14.4186 27.3747 14.4658Z" fill="#3AB6D7"/>
<path fill-rule="evenodd" clip-rule="evenodd" d="M12 14.2157C14.9432 13.9088 17.886 14.0791 20.6691 14.8917C20.0672 14.3032 19.5048 13.6702 18.983 13.0083C16.538 12.9316 14.1854 13.3593 12 14.2157Z" fill="#78CB19"/>
<path fill-rule="evenodd" clip-rule="evenodd" d="M21.8459 18.8294C17.6319 18.3806 14.6344 20.7553 14.5857 20.8047C15.4712 20.2131 16.4566 19.9293 17.6014 19.9293C18.6722 19.9293 19.7201 20.2847 20.5551 20.8077C20.9404 20.1222 21.3684 19.4705 21.8459 18.8294Z" fill="#EE980D"/>
<path fill-rule="evenodd" clip-rule="evenodd" d="M40.3351 15.0437C38.2398 13.8688 35.8979 13.1909 33.3265 13.1909C25.3032 13.1909 18.7993 19.7108 18.7993 27.7535C18.7993 40.7488 33.3265 59.2949 33.3265 59.2949C33.3265 59.2949 39.2386 51.7469 43.5197 42.9075C42.6818 38.702 40.6074 34.8803 37.704 31.9511C37.7024 31.9527 37.7007 31.9542 37.699 31.9556C36.5535 33.0897 34.9766 33.7905 33.2355 33.7905C29.735 33.7905 26.897 30.9583 26.897 27.4644C26.897 24.1725 29.4167 21.4686 32.6361 21.1671C34.7674 18.674 37.3881 16.5832 40.3351 15.0437Z" fill="#D13926"/>
<path d="M33.2172 25.5586C32.1675 25.5586 31.3164 26.408 31.3164 27.4562C31.3164 28.504 32.1675 29.3536 33.2172 29.3536C34.2671 29.3536 35.118 28.504 35.118 27.4562C35.118 26.408 34.2671 25.5586 33.2172 25.5586ZM32.4567 27.1815C32.3616 27.1815 32.2704 27.1438 32.2032 27.0766C32.1359 27.0095 32.0981 26.9185 32.0981 26.8236C32.0981 26.7287 32.1359 26.6376 32.2032 26.5705C32.2704 26.5034 32.3616 26.4657 32.4567 26.4657C32.5518 26.4657 32.643 26.5034 32.7102 26.5705C32.7774 26.6376 32.8152 26.7287 32.8152 26.8236C32.8152 26.9185 32.7774 27.0095 32.7102 27.0766C32.643 27.1438 32.5518 27.1815 32.4567 27.1815Z" fill="#231F20"/>
<path d="M20.9765 18.0747C18.6584 18.2548 16.338 19.2648 14.5857 20.8047C14.7879 20.6374 17.7464 18.3927 21.8459 18.8294C21.5645 18.5684 21.2746 18.3167 20.9765 18.0747Z" fill="#F6C229"/>
<path fill-rule="evenodd" clip-rule="evenodd" d="M20.3171 17.5659C18.1578 18.0984 16.1243 19.2978 14.5857 20.8048C16.332 19.269 18.6645 18.2586 20.9765 18.0746C20.7607 17.9 20.5408 17.7303 20.3171 17.5659Z" fill="#F3B623"/>
<path fill-rule="evenodd" clip-rule="evenodd" d="M21.8458 18.8288C22.3165 18.2516 22.8389 17.6477 23.398 17.1224C23.398 17.1301 23.3978 17.1366 23.398 17.1224C21.3341 15.8531 18.9982 14.9159 16.4688 14.4636C15.0401 14.2081 12.0677 14.189 12 14.2154C12.2801 14.2519 12.5829 14.3065 12.8638 14.3567C16.3412 14.9786 19.4353 16.6486 21.8458 18.8288Z" fill="#4CAE09"/>
<path d="M20.6691 14.8916C20.6747 14.8932 20.6637 14.89 20.6691 14.8916C17.9096 14.0858 14.9181 13.9192 12 14.2157C12.4788 14.1996 15.1589 14.2296 16.4688 14.4638C18.9982 14.916 21.3341 15.8534 23.398 17.1225C22.4229 16.4625 21.5096 15.7158 20.6691 14.8916Z" fill="#B6DD57"/>
<path fill-rule="evenodd" clip-rule="evenodd" d="M23.3979 17.1227C23.4104 17.111 23.3844 17.1345 23.3979 17.1227C24.2284 16.348 25.1841 15.6382 26.178 15.0738C26.187 15.077 26.1696 15.0706 26.178 15.0738C21.2693 13.4116 17.2882 9.73728 15.241 5C16.2968 10.0217 19.303 14.3451 23.3979 17.1227Z" fill="#209BC7"/>
<path d="M27.3748 14.4658C27.1888 14.4207 27.0038 14.3716 26.82 14.3185C21.9556 12.8946 17.4299 9.51554 15.2412 5.00049C17.2883 9.73745 21.2697 13.4119 26.1781 15.0745C26.5673 14.8531 26.9666 14.65 27.3748 14.4658Z" fill="#4FCAE3"/>
<path fill-rule="evenodd" clip-rule="evenodd" d="M44.0883 41.5761C42.9268 37.767 40.7226 34.4125 37.8077 31.8457C37.7719 31.8828 37.7358 31.9194 37.6992 31.9555L37.6994 31.9554L37.7042 31.9509C40.6076 34.8801 42.6819 38.7018 43.5199 42.9073C43.7981 42.3324 44.149 41.4432 44.0883 41.5761Z" fill="#CA3322"/>
<path fill-rule="evenodd" clip-rule="evenodd" d="M36.0165 30.4305C35.2886 31.1345 34.3026 31.5674 33.2171 31.5674C30.9767 31.5674 29.1606 29.7266 29.1606 27.4559C29.1606 26.8391 29.2956 26.2543 29.5358 25.7291C30.3945 24.0979 31.4384 22.5687 32.637 21.1665C29.4173 21.4678 26.8975 24.172 26.8975 27.4642C26.8975 30.958 29.7354 33.7902 33.2359 33.7902C34.9773 33.7902 36.5544 33.0892 37.6999 31.9548C37.7362 31.919 37.7719 31.8826 37.8074 31.8461V31.8455C37.2362 31.3421 36.6384 30.8698 36.0165 30.4305Z" fill="#A92F1E"/>
<path fill-rule="evenodd" clip-rule="evenodd" d="M40.3354 15.0435C35.731 17.4488 31.9213 21.1975 29.5358 25.7291C29.2879 26.2711 29.16 26.8601 29.1606 27.4559C29.1606 29.7267 30.9768 31.5675 33.2171 31.5675C34.3044 31.5675 35.2883 31.1364 36.0165 30.4305C38.2853 26.494 41.6829 23.2827 45.7653 21.2426C45.894 21.1758 46.0232 21.11 46.1532 21.0454C44.8408 18.5219 42.8187 16.4359 40.3354 15.0435ZM33.2171 29.3533C32.1674 29.3533 31.3163 28.5038 31.3163 27.4559C31.3163 26.4079 32.1674 25.5584 33.2171 25.5584C34.267 25.5584 35.1179 26.4079 35.1179 27.4559C35.1179 28.5038 34.267 29.3533 33.2171 29.3533Z" fill="#ECECEC"/>
</svg>
