<svg width="64" height="64" viewBox="0 0 64 64" fill="none" xmlns="http://www.w3.org/2000/svg">
<g clip-path="url(#clip0_1_144)">
<path d="M23.6081 15.1077C18.4789 14.4064 15.8745 17.2611 12.2828 19.8853L0.00397091 29.528L0 29.53L2.364 30.7795C2.36797 30.7835 2.37392 30.7855 2.37988 30.7895C5.45506 32.3012 9.7321 31.7847 12.6444 29.6274L17.8293 25.5072L19.8118 23.9299L29.6929 16.0791L23.6081 15.1077Z" fill="#7BCBE2"/>
<path d="M0.00366211 29.5282L2.36369 30.7817C2.36965 30.7837 2.37361 30.7877 2.37957 30.7897C5.45475 32.3034 9.73377 31.7869 12.6461 29.6275L17.829 25.5094L19.8135 23.9321L0.00366211 29.5282Z" fill="#089BC9"/>
<path d="M44.5752 21.0631L37.9838 19.8771C37.9838 19.8771 33.3949 18.7865 29.5608 21.7564C29.5608 21.7564 26.73 23.8622 24.6421 25.4911L19.9996 29.1682L9.2603 37.7104L9.1709 37.7819L12.413 39.4963C15.4901 41.016 19.7771 40.5015 22.6933 38.3401L32.2963 30.7336L40.0399 24.6349L44.5752 21.0631Z" fill="#8F174F"/>
<path d="M24.6446 25.4917C26.7285 23.8628 29.5593 21.757 29.5593 21.757C30.2844 21.1948 31.0373 20.7797 31.7803 20.4737L19.8153 23.9323L17.8307 25.5076L12.6498 29.6277C9.7375 31.7871 5.45848 32.3036 2.3833 30.7899C5.00554 32.3612 9.07797 32.7228 15.2124 30.8932L19.4021 29.6456L20.004 29.1688L24.6446 25.4917ZM41.5223 29.1549C43.4989 27.6074 44.9908 26.487 46.4747 25.8215L33.0814 30.1164L32.2948 30.7362L22.6918 38.3407C19.7755 40.5021 15.4886 41.0186 12.4114 39.4969C17.1394 42.0933 24.4201 40.1843 30.5426 38.007L30.9081 37.711C30.9062 37.711 41.1568 29.4192 41.5223 29.1549ZM57.2716 37.7825C51.896 36.2211 50.283 37.2084 43.9498 39.1135H43.9478L43.4194 39.5525L43.4036 39.5625L33.1967 47.6557C30.2883 49.8111 25.7431 50.2263 22.668 48.7205C26.4623 50.6991 30.3857 50.2143 37.0982 48.1205L64.0001 39.8624L57.2716 37.7825Z" fill="#C8C4C3"/>
<path d="M59.0554 26.6218L51.9396 25.3266C47.6764 24.5359 45.6601 25.9146 41.5201 29.1546C41.1546 29.4208 30.906 37.7107 30.906 37.7107L19.3999 46.9939L22.64 48.7082C25.7191 50.2299 30.2842 49.8167 33.1985 47.6554L43.4054 39.5622L43.4193 39.5522L43.4133 39.5562L59.0554 26.6218Z" fill="#8F174F"/>
<path d="M33.0795 30.1163L9.16943 37.7824L19.4002 29.6455L42.1561 22.9667L33.0795 30.1163ZM43.9499 39.1134L19.4021 46.994L30.5407 38.0049L55.3209 29.711L43.9499 39.1134Z" fill="#B4175E"/>
</g>
<defs>
<clipPath id="clip0_1_144">
<rect width="64" height="64" fill="white"/>
</clipPath>
</defs>
</svg>
