<svg width="64" height="64" viewBox="0 0 64 64" fill="none" xmlns="http://www.w3.org/2000/svg">
<g clip-path="url(#clip0_2021_17)">
<path d="M33.3641 45.2205C33.3641 43.1172 34.2656 42.8167 36.3688 44.0186C39.9745 46.1219 43.5801 47.9247 43.5801 47.9247C43.5801 46.7228 44.782 45.8214 46.8853 46.4223C48.9886 47.0233 51.0918 47.3237 51.0918 47.3237C51.0918 47.3237 49.89 44.6195 49.289 43.4176C48.3876 41.3144 49.289 40.1125 50.1904 39.812C50.1904 39.812 48.9886 38.9106 48.0871 38.3097C46.2843 37.1078 46.5848 35.6054 48.3876 35.0045C50.7914 33.8026 54.0965 32.6007 54.0965 32.6007C53.1951 31.9998 51.9933 30.4975 53.1951 28.3942C54.397 26.5914 56.5003 23.8871 56.5003 23.8871C56.5003 23.8871 53.1951 23.8871 50.7914 23.8871C48.6881 23.8871 48.0871 22.0843 48.0871 20.8824C48.0871 20.8824 44.782 23.2862 42.3782 24.7885C40.2749 26.2909 38.4721 24.7885 38.7726 22.3848C39.3735 18.7791 39.674 14.5726 39.674 14.5726C38.4721 15.7745 36.3688 15.474 35.167 13.6712C33.6646 10.6665 32.1623 7.06084 32.1623 7.06084C32.1623 7.06084 30.6599 10.6665 29.1576 13.6712C28.2562 15.474 26.1529 15.7745 24.951 14.873C24.951 14.873 25.2515 19.0796 25.8524 22.6853C26.1529 24.7885 24.3501 26.2909 22.2468 24.7885C19.843 23.2862 16.2374 20.8824 16.2374 20.8824C16.2374 22.0843 15.6364 23.5867 13.5332 23.8871C11.1294 23.8871 7.82424 23.8871 7.82424 23.8871C7.82424 23.8871 9.92752 26.5914 11.1294 28.3942C12.3313 30.197 11.1294 31.9998 10.228 32.6007C10.228 32.6007 13.2327 34.1031 15.9369 35.0045C17.7397 35.9059 18.3407 37.1078 16.2374 38.3097C15.6364 38.9106 14.1341 39.812 14.1341 39.812C15.336 40.1125 16.2374 41.3144 15.336 43.4176C14.735 44.6195 13.5332 47.3237 13.5332 47.3237C13.5332 47.3237 15.6364 46.7228 17.7397 46.4223C19.843 45.8214 20.7444 47.0233 21.0449 47.9247C21.0449 47.9247 24.6505 45.8214 28.2562 44.0186C30.059 42.8167 31.2609 43.4176 31.2609 45.2205V50.3284C31.2609 53.3331 30.6599 56.3378 29.7585 58.1407C16.2374 56.6383 4.81954 45.8214 4.81954 31.3989C4.81954 16.6759 17.1388 4.65708 32.4627 4.65708C47.7867 4.65708 60.1059 16.6759 60.1059 31.3989C60.1059 45.2205 49.289 56.6383 35.4674 58.1407V61.7463C51.6928 60.2439 64.3125 47.3237 64.3125 31.3989C64.3125 14.2721 49.89 0.750977 32.1623 0.750977C14.735 0.750977 0.3125 14.2721 0.3125 31.0984C0.3125 45.8214 11.4299 58.1406 26.1529 60.8449C28.5566 61.4458 30.059 61.7463 31.5613 63.2486C33.0637 60.2439 33.3641 54.2345 33.3641 50.9294V45.2205Z" fill="#F01428"/>
</g>
<defs>
<clipPath id="clip0_2021_17">
<rect width="64" height="64" fill="white"/>
</clipPath>
</defs>
</svg>
