<svg width="190" height="64" viewBox="0 0 190 64" fill="none" xmlns="http://www.w3.org/2000/svg">
<path d="M21.2193 0.179706C11.1879 1.77052 3.28251 8.85415 0.67733 18.6392C-0.161118 21.7608 -0.221007 27.2836 0.497663 30.3151C3.28251 41.691 13.1343 49.4049 24.8127 49.4049C36.4911 49.4049 46.3428 41.691 49.1277 30.3151C49.8463 27.2836 49.7865 21.7608 48.948 18.6392C46.5824 9.75461 39.785 3.00115 31.0112 0.749999C28.3162 0.0596457 23.7047 -0.210494 21.2193 0.179706ZM29.9332 6.93317C33.0774 7.74358 35.4131 9.09427 37.8685 11.5555C41.5217 15.1874 43.2286 19.4496 43.2286 24.8523V27.4937H29.1247H15.0208L15.2304 28.3041C15.6197 29.9249 17.1169 32.1761 18.5243 33.2566C22.1177 35.988 28.2563 35.898 31.9994 33.0165C32.9576 32.2961 33.5864 32.026 33.9757 32.1461C35.5029 32.6263 40.833 35.3277 40.833 35.5978C40.833 35.7779 39.9047 36.8285 38.7968 37.9691C35.2334 41.5109 31.0711 43.0717 25.0822 43.1017C19.3029 43.1017 15.2005 41.4809 11.4574 37.7289C7.83409 34.0971 6.39675 30.4352 6.39675 24.9424C6.39675 19.1494 7.83409 15.5176 11.637 11.7056C14.4518 8.85415 17.2666 7.29335 20.8001 6.63301C23.3753 6.12275 27.2981 6.27283 29.9332 6.93317Z" fill="#006EB7"/>
<path d="M22.6397 14.4673C20.4538 15.2477 18.9865 16.4484 17.7588 18.3393L16.5909 20.1402L25.9337 20.2303C31.0841 20.2603 35.3363 20.2303 35.3961 20.1703C35.6656 19.9001 34.2882 17.679 33.1802 16.6585C31.2338 14.7975 29.7067 14.1972 26.6523 14.0771C24.7359 14.0171 23.568 14.1072 22.6397 14.4673Z" fill="#006EB7"/>
<path d="M109.21 2.49094C107.233 3.45143 105.886 6.03275 106.305 8.0738C106.964 11.2554 110.377 13.2665 113.252 12.1559C114.39 11.7357 115.738 10.445 116.217 9.27441C118.073 4.9522 113.402 0.41988 109.21 2.49094Z" fill="black"/>
<path d="M181.915 10.8652V18.8193L180.657 17.8288C177.663 15.4576 175.267 14.5871 171.614 14.5871C165.895 14.5871 161.163 17.4686 158.439 22.6613C157.061 25.3326 156.462 27.8839 156.462 31.3957C156.462 36.7985 157.87 40.3103 161.403 43.8821C166.793 49.3449 174.399 49.9753 180.328 45.4729L181.915 44.2723V45.9532V47.604H185.958H190V25.2426V2.88114H185.958H181.915V10.8652ZM177.184 22.7813C178.651 23.4117 180.627 25.4527 181.406 27.1636C181.915 28.2441 182.065 29.1446 182.065 31.3957C182.065 33.917 181.975 34.4573 181.226 35.9581C178.621 41.2408 172.033 42.6515 167.691 38.8396C165.625 37.0086 164.757 35.0876 164.607 31.996C164.457 29.0545 165.086 26.9235 166.673 25.0025C169.039 22.121 173.411 21.1905 177.184 22.7813Z" fill="black"/>
<path d="M58.4235 4.02157C58.3037 4.23168 50.7577 47.0036 50.7577 47.4838C50.7577 47.5439 52.5843 47.6039 54.8002 47.6039C58.723 47.6039 58.8427 47.5739 58.9925 46.9135C59.0523 46.5533 60.1303 40.4602 61.388 33.3766C62.6157 26.293 63.6638 20.47 63.6938 20.41C63.7536 20.3799 65.8797 26.4731 68.3951 33.9769L73.0065 47.6039H76.6598H80.3429L84.4753 35.3576C89.3563 20.8602 89.6258 20.1098 89.6857 20.2899C89.7156 20.3799 90.7637 26.5031 92.0513 33.9469L94.357 47.4538L98.4295 47.5439C102.202 47.6039 102.502 47.5739 102.382 47.0936C102.322 46.7935 100.705 37.3086 98.8188 25.9928C96.9323 14.677 95.2853 5.07211 95.1955 4.59186L95.0158 3.78145H91.0332C87.5596 3.78145 87.0206 3.84148 86.8709 4.29171C86.7511 4.59186 84.5052 11.2253 81.8402 19.0893C79.2051 26.9233 76.9293 33.5267 76.8095 33.7668C76.6897 34.0069 74.5936 28.244 71.5392 19.0593L66.4786 3.93152L62.5259 3.84148C60.3699 3.81146 58.5133 3.87149 58.4235 4.02157Z" fill="black"/>
<path d="M136.938 15.0372C136.16 15.3073 134.543 16.1478 133.345 16.9582L131.159 18.4289L131.069 16.8081L130.979 15.1873H126.967H122.924V31.3956V47.6039H126.967H131.009V39.8599C131.009 30.7052 131.279 27.8238 132.327 25.7527C134.693 21.1003 140.652 20.5 142.748 24.7322C143.436 26.1129 143.436 26.353 143.526 36.8584L143.616 47.6039H147.659H151.701L151.611 34.9074L151.521 22.2409L150.713 20.53C149.755 18.459 147.958 16.658 145.742 15.5775C144.305 14.8871 143.616 14.7371 141.191 14.677C139.304 14.617 137.867 14.7371 136.938 15.0372Z" fill="black"/>
<path d="M107.353 31.3956V47.6039H111.396H115.438V31.3956V15.1873H111.396H107.353V31.3956Z" fill="black"/>
<path d="M11.6598 55.3788C11.6598 54.9632 11.5228 54.6483 11.2489 54.4341C10.9749 54.2175 10.6042 54.1092 10.1368 54.1092C9.79496 54.1092 9.48709 54.1646 9.21314 54.2754C8.9392 54.3863 8.71552 54.5387 8.54211 54.7327C8.3687 54.9266 8.26188 55.1471 8.22167 55.3939C8.189 55.6005 8.21036 55.7781 8.28576 55.9267C8.36116 56.0729 8.46797 56.195 8.6062 56.2933C8.74694 56.389 8.89773 56.4684 9.05858 56.5313C9.21943 56.5918 9.36771 56.6409 9.50342 56.6787L10.2574 56.8903C10.4459 56.9432 10.6557 57.0163 10.887 57.1095C11.1182 57.2027 11.3343 57.3299 11.5354 57.4912C11.7364 57.6499 11.8897 57.8539 11.9953 58.1033C12.1034 58.3527 12.1272 58.6588 12.0669 59.0215C11.9966 59.4397 11.8244 59.8176 11.5505 60.1552C11.279 60.4927 10.9196 60.761 10.4723 60.9601C10.0274 61.1591 9.50845 61.2586 8.91532 61.2586C8.36241 61.2586 7.89746 61.1691 7.52048 60.9903C7.14601 60.8114 6.86955 60.562 6.69111 60.2421C6.51519 59.9222 6.44733 59.5506 6.48754 59.1274H7.45262C7.42749 59.4196 7.48529 59.6614 7.62604 59.8529C7.76678 60.0418 7.96281 60.1829 8.21413 60.2761C8.46546 60.3668 8.74442 60.4121 9.05104 60.4121C9.40792 60.4121 9.73715 60.3542 10.0387 60.2383C10.3428 60.1199 10.5942 59.9562 10.7927 59.7471C10.9938 59.5355 11.1169 59.2886 11.1622 59.0064C11.2074 58.7495 11.1722 58.5404 11.0566 58.3792C10.941 58.2179 10.7739 58.0869 10.5552 57.9862C10.3366 57.8854 10.0965 57.7972 9.83517 57.7217L8.9304 57.4496C8.35739 57.2758 7.92134 57.0276 7.62227 56.7052C7.3257 56.3827 7.21889 55.9608 7.30183 55.4393C7.37723 55.006 7.55943 54.6281 7.84846 54.3057C8.13748 53.9807 8.49561 53.7288 8.92286 53.5499C9.35011 53.3685 9.81004 53.2778 10.3026 53.2778C10.8003 53.2778 11.2262 53.3685 11.5806 53.5499C11.935 53.7288 12.1989 53.9769 12.3723 54.2943C12.5457 54.6092 12.6098 54.9707 12.5645 55.3788H11.6598Z" fill="black"/>
<path d="M16.2698 61.2435C15.737 61.2435 15.2909 61.1162 14.9315 60.8618C14.5721 60.6074 14.3183 60.2509 14.17 59.7924C14.0242 59.3339 14.0004 58.7999 14.0984 58.1902C14.1939 57.5957 14.3836 57.078 14.6676 56.6371C14.9541 56.1938 15.3098 55.8512 15.7345 55.6093C16.1617 55.365 16.6317 55.2428 17.1444 55.2428C17.6772 55.2428 18.1221 55.3713 18.4789 55.6282C18.8383 55.8827 19.0922 56.2404 19.2405 56.7014C19.3887 57.1599 19.4139 57.6965 19.3159 58.3111C19.2204 58.9006 19.0281 59.4158 18.7391 59.8567C18.4526 60.295 18.0969 60.6363 17.6722 60.8807C17.25 61.1225 16.7825 61.2435 16.2698 61.2435ZM16.2849 60.4424C16.692 60.4424 17.0451 60.3378 17.3442 60.1287C17.6458 59.9196 17.8896 59.6438 18.0756 59.3012C18.2641 58.9586 18.391 58.5883 18.4563 58.1902C18.5166 57.8123 18.5141 57.4609 18.4488 57.1359C18.3834 56.8085 18.244 56.5452 18.0303 56.3462C17.8167 56.1447 17.5164 56.0439 17.1293 56.0439C16.7222 56.0439 16.3666 56.1497 16.0625 56.3613C15.7609 56.5729 15.5171 56.8513 15.3311 57.1964C15.1451 57.5415 15.0207 57.9131 14.9579 58.3111C14.8976 58.689 14.8988 59.0404 14.9617 59.3654C15.027 59.6879 15.1665 59.9486 15.3801 60.1476C15.5963 60.3441 15.8979 60.4424 16.2849 60.4424Z" fill="black"/>
<path d="M24.5008 55.3184L24.3802 56.0741H21.2587L21.3794 55.3184H24.5008ZM21.3492 61.1225L22.45 54.5173C22.5003 54.1847 22.6209 53.9076 22.8119 53.6859C23.0054 53.4642 23.2354 53.298 23.5018 53.1871C23.7707 53.0763 24.0434 53.0209 24.3198 53.0209C24.5385 53.0209 24.7132 53.0385 24.8439 53.0738C24.9771 53.109 25.0738 53.1418 25.1341 53.172L24.7571 53.9429C24.7119 53.9278 24.6516 53.9089 24.5762 53.8862C24.5033 53.8635 24.4028 53.8522 24.2746 53.8522C23.9806 53.8522 23.7569 53.9265 23.6036 54.0751C23.4503 54.2238 23.3472 54.4417 23.2944 54.7289L22.2389 61.1225H21.3492Z" fill="black"/>
<path d="M29.009 55.3184L28.8884 56.0741H25.8876L26.0082 55.3184H29.009ZM27.109 53.9278H27.9987L27.0789 59.4599C27.0387 59.7118 27.045 59.9007 27.0977 60.0267C27.153 60.1501 27.236 60.2333 27.3465 60.2761C27.4596 60.3164 27.5815 60.3366 27.7122 60.3366C27.8102 60.3366 27.8907 60.3315 27.9535 60.3214C28.0163 60.3088 28.0666 60.2988 28.1043 60.2912L28.1646 61.0923C28.0967 61.115 28.005 61.1377 27.8894 61.1603C27.7763 61.1855 27.6368 61.1981 27.4709 61.1981C27.2196 61.1981 26.9834 61.144 26.7622 61.0356C26.5411 60.9273 26.3714 60.7623 26.2533 60.5406C26.1352 60.3189 26.1038 60.0393 26.159 59.7017L27.109 53.9278Z" fill="black"/>
<path d="M31.4373 61.1225L30.6381 55.3184H31.573L32.0857 59.7622H32.146L34.1214 55.3184H35.0714L35.554 59.7471H35.6143L37.6048 55.3184H38.5397L35.8103 61.1225H34.9357L34.4079 56.6636H34.3175L32.3119 61.1225H31.4373Z" fill="black"/>
<path d="M41.1828 61.2586C40.8159 61.2586 40.4942 61.1893 40.2177 61.0507C39.9413 60.9097 39.7364 60.7069 39.6032 60.4424C39.47 60.1753 39.4336 59.8529 39.4939 59.475C39.5517 59.1425 39.6636 58.8729 39.8294 58.6663C39.9953 58.4573 40.1964 58.2935 40.4326 58.1751C40.6714 58.0542 40.9277 57.9648 41.2017 57.9068C41.4781 57.8464 41.7533 57.7997 42.0273 57.767C42.3841 57.7217 42.6744 57.6864 42.8981 57.6612C43.1218 57.636 43.2902 57.5944 43.4032 57.5365C43.5163 57.4786 43.5855 57.379 43.6106 57.238V57.2077C43.6709 56.8374 43.6219 56.549 43.4636 56.3424C43.3052 56.1333 43.0225 56.0288 42.6153 56.0288C42.1931 56.0288 41.84 56.122 41.556 56.3084C41.272 56.4948 41.0622 56.6938 40.9265 56.9054L40.1423 56.6031C40.3484 56.2505 40.5947 55.9759 40.8812 55.7794C41.1677 55.5804 41.4681 55.4418 41.7822 55.3637C42.0964 55.2831 42.3992 55.2428 42.6907 55.2428C42.8767 55.2428 43.0866 55.2655 43.3203 55.3108C43.554 55.3536 43.7727 55.4431 43.9763 55.5791C44.1824 55.7151 44.3369 55.9204 44.44 56.195C44.5455 56.4696 44.5606 56.8374 44.4852 57.2984L43.8519 61.1225H42.9622L43.0979 60.3366H43.0527C42.9722 60.4625 42.8491 60.5973 42.6832 60.7409C42.5198 60.8845 42.3125 61.0067 42.0612 61.1074C41.8124 61.2082 41.5196 61.2586 41.1828 61.2586ZM41.4392 60.4575C41.791 60.4575 42.0989 60.3882 42.3628 60.2496C42.6292 60.1111 42.8428 59.9322 43.0036 59.7131C43.167 59.4939 43.2688 59.2634 43.309 59.0215L43.4447 58.2053C43.3995 58.2507 43.3103 58.2922 43.1771 58.33C43.0439 58.3653 42.8931 58.3968 42.7247 58.4245C42.5588 58.4497 42.3967 58.4724 42.2384 58.4925C42.0825 58.5102 41.9569 58.5253 41.8614 58.5379C41.6251 58.5681 41.4002 58.6172 41.1866 58.6852C40.9755 58.7507 40.797 58.8502 40.6513 58.9838C40.508 59.1148 40.4188 59.2936 40.3836 59.5203C40.3308 59.8302 40.405 60.0645 40.606 60.2232C40.8071 60.3794 41.0848 60.4575 41.4392 60.4575Z" fill="black"/>
<path d="M46.2188 61.1225L47.1839 55.3184H48.0434L47.8927 56.195H47.953C48.1038 55.9078 48.3337 55.6748 48.6428 55.496C48.952 55.3171 49.28 55.2277 49.6268 55.2277C49.6946 55.2277 49.7763 55.2289 49.8718 55.2315C49.9673 55.2315 50.0415 55.2352 50.0942 55.2428L49.9435 56.1497C49.9133 56.1421 49.8454 56.1308 49.7399 56.1157C49.6343 56.098 49.5212 56.0892 49.4006 56.0892C49.1191 56.0892 48.859 56.1484 48.6202 56.2668C48.3815 56.3827 48.1817 56.5439 48.0208 56.7505C47.86 56.9546 47.7569 57.1876 47.7117 57.4496L47.1085 61.1225H46.2188Z" fill="black"/>
<path d="M53.169 61.2435C52.6136 61.2435 52.1549 61.12 51.793 60.8731C51.4311 60.6237 51.1785 60.2761 51.0353 59.8302C50.892 59.3818 50.8694 58.8603 50.9674 58.2658C51.0654 57.6713 51.2602 57.1473 51.5517 56.6938C51.8433 56.2379 52.2064 55.8827 52.6412 55.6282C53.076 55.3713 53.5535 55.2428 54.0738 55.2428C54.3754 55.2428 54.6656 55.2932 54.9446 55.3939C55.2236 55.4947 55.4648 55.6585 55.6684 55.8852C55.872 56.1094 56.014 56.4066 56.0944 56.777C56.1748 57.1473 56.1698 57.6033 56.0793 58.1449L56.019 58.5228H51.5555L51.6761 57.7519H55.2349C55.2927 57.4244 55.2776 57.1322 55.1897 56.8752C55.1042 56.6183 54.9547 56.4155 54.741 56.2668C54.5299 56.1182 54.2623 56.0439 53.9381 56.0439C53.6038 56.0439 53.2922 56.1346 53.0031 56.316C52.7141 56.4948 52.4728 56.7215 52.2793 56.9961C52.0858 57.2682 51.9652 57.5453 51.9174 57.8275L51.8119 58.4925C51.7365 58.9737 51.7478 59.3566 51.8458 59.6413C51.9463 59.9259 52.121 60.1312 52.3698 60.2572C52.6186 60.3806 52.9303 60.4424 53.3047 60.4424C53.5435 60.4424 53.7634 60.4096 53.9644 60.3441C54.1655 60.2761 54.3452 60.1753 54.5035 60.0418C54.6619 59.9058 54.7951 59.737 54.9031 59.5355L55.7174 59.7773C55.5792 60.0695 55.3844 60.3265 55.1331 60.5482C54.8843 60.7673 54.5928 60.9386 54.2585 61.0621C53.9267 61.183 53.5636 61.2435 53.169 61.2435Z" fill="black"/>
<path d="M64.9714 55.3184L64.8508 56.0741H61.7294L61.85 55.3184H64.9714ZM61.8198 61.1225L62.9206 54.5173C62.9709 54.1847 63.0915 53.9076 63.2825 53.6859C63.4761 53.4642 63.706 53.298 63.9724 53.1871C64.2413 53.0763 64.514 53.0209 64.7905 53.0209C65.0091 53.0209 65.1838 53.0385 65.3145 53.0738C65.4477 53.109 65.5445 53.1418 65.6048 53.172L65.2278 53.9429C65.1825 53.9278 65.1222 53.9089 65.0468 53.8862C64.9739 53.8635 64.8734 53.8522 64.7452 53.8522C64.4512 53.8522 64.2275 53.9265 64.0742 54.0751C63.9209 54.2238 63.8179 54.4417 63.7651 54.7289L62.7095 61.1225H61.8198Z" fill="black"/>
<path d="M68.148 61.2435C67.6152 61.2435 67.1691 61.1162 66.8097 60.8618C66.4503 60.6074 66.1965 60.2509 66.0482 59.7924C65.9024 59.3339 65.8785 58.7999 65.9766 58.1902C66.0721 57.5957 66.2618 57.078 66.5458 56.6371C66.8323 56.1938 67.1879 55.8512 67.6127 55.6093C68.0399 55.365 68.5099 55.2428 69.0226 55.2428C69.5554 55.2428 70.0002 55.3713 70.3571 55.6282C70.7165 55.8827 70.9703 56.2404 71.1186 56.7014C71.2669 57.1599 71.292 57.6965 71.194 58.3111C71.0985 58.9006 70.9063 59.4158 70.6172 59.8567C70.3307 60.295 69.9751 60.6363 69.5504 60.8807C69.1281 61.1225 68.6607 61.2435 68.148 61.2435ZM68.1631 60.4424C68.5702 60.4424 68.9233 60.3378 69.2224 60.1287C69.524 59.9196 69.7678 59.6438 69.9537 59.3012C70.1422 58.9586 70.2692 58.5883 70.3345 58.1902C70.3948 57.8123 70.3923 57.4609 70.327 57.1359C70.2616 56.8085 70.1221 56.5452 69.9085 56.3462C69.6949 56.1447 69.3946 56.0439 69.0075 56.0439C68.6004 56.0439 68.2447 56.1497 67.9406 56.3613C67.6391 56.5729 67.3953 56.8513 67.2093 57.1964C67.0233 57.5415 66.8989 57.9131 66.8361 58.3111C66.7758 58.689 66.777 59.0404 66.8398 59.3654C66.9052 59.6879 67.0447 59.9486 67.2583 60.1476C67.4744 60.3441 67.776 60.4424 68.1631 60.4424Z" fill="black"/>
<path d="M72.8353 61.1225L73.8004 55.3184H74.6599L74.5091 56.195H74.5694C74.7202 55.9078 74.9502 55.6748 75.2593 55.496C75.5685 55.3171 75.8964 55.2277 76.2433 55.2277C76.3111 55.2277 76.3928 55.2289 76.4883 55.2315C76.5838 55.2315 76.6579 55.2352 76.7107 55.2428L76.5599 56.1497C76.5298 56.1421 76.4619 56.1308 76.3563 56.1157C76.2508 56.098 76.1377 56.0892 76.0171 56.0892C75.7356 56.0892 75.4755 56.1484 75.2367 56.2668C74.9979 56.3827 74.7981 56.5439 74.6373 56.7505C74.4764 56.9546 74.3734 57.1876 74.3282 57.4496L73.725 61.1225H72.8353Z" fill="black"/>
<path d="M84.7612 55.3184L84.6406 56.0741H81.6398L81.7604 55.3184H84.7612ZM82.8612 53.9278H83.7509L82.831 59.4599C82.7908 59.7118 82.7971 59.9007 82.8499 60.0267C82.9052 60.1501 82.9881 60.2333 83.0987 60.2761C83.2118 60.3164 83.3337 60.3366 83.4644 60.3366C83.5624 60.3366 83.6428 60.3315 83.7056 60.3214C83.7685 60.3088 83.8187 60.2988 83.8564 60.2912L83.9167 61.0923C83.8489 61.115 83.7572 61.1377 83.6415 61.1603C83.5285 61.1855 83.389 61.1981 83.2231 61.1981C82.9718 61.1981 82.7355 61.144 82.5144 61.0356C82.2932 60.9273 82.1236 60.7623 82.0054 60.5406C81.8873 60.3189 81.8559 60.0393 81.9112 59.7017L82.8612 53.9278Z" fill="black"/>
<path d="M87.4646 57.631L86.8916 61.1225H86.0019L87.2837 53.3836H88.1734L87.7059 56.2253H87.7813C87.9623 55.923 88.2035 55.6836 88.5051 55.5073C88.8092 55.331 89.1912 55.2428 89.6511 55.2428C90.0432 55.2428 90.3737 55.3221 90.6426 55.4808C90.914 55.637 91.105 55.8776 91.2156 56.2026C91.3287 56.525 91.3451 56.9357 91.2646 57.4345L90.6464 61.1225H89.7567L90.3599 57.4949C90.4353 57.0339 90.3737 56.6775 90.1752 56.4255C89.9791 56.1711 89.6738 56.0439 89.2591 56.0439C88.9675 56.0439 88.6961 56.1056 88.4448 56.229C88.196 56.3525 87.9849 56.5326 87.8115 56.7694C87.6406 57.0062 87.5249 57.2934 87.4646 57.631Z" fill="black"/>
<path d="M95.4298 61.2435C94.8744 61.2435 94.4157 61.12 94.0538 60.8731C93.6919 60.6237 93.4394 60.2761 93.2961 59.8302C93.1528 59.3818 93.1302 58.8603 93.2282 58.2658C93.3263 57.6713 93.521 57.1473 93.8126 56.6938C94.1041 56.2379 94.4673 55.8827 94.9021 55.6282C95.3368 55.3713 95.8144 55.2428 96.3346 55.2428C96.6362 55.2428 96.9265 55.2932 97.2054 55.3939C97.4844 55.4947 97.7257 55.6585 97.9292 55.8852C98.1328 56.1094 98.2748 56.4066 98.3552 56.777C98.4357 57.1473 98.4306 57.6033 98.3402 58.1449L98.2798 58.5228H93.8163L93.937 57.7519H97.4957C97.5535 57.4244 97.5384 57.1322 97.4505 56.8752C97.365 56.6183 97.2155 56.4155 97.0019 56.2668C96.7908 56.1182 96.5231 56.0439 96.1989 56.0439C95.8646 56.0439 95.553 56.1346 95.264 56.316C94.9749 56.4948 94.7337 56.7215 94.5402 56.9961C94.3466 57.2682 94.226 57.5453 94.1782 57.8275L94.0727 58.4925C93.9973 58.9737 94.0086 59.3566 94.1066 59.6413C94.2071 59.9259 94.3818 60.1312 94.6306 60.2572C94.8794 60.3806 95.1911 60.4424 95.5656 60.4424C95.8043 60.4424 96.0242 60.4096 96.2253 60.3441C96.4263 60.2761 96.606 60.1753 96.7644 60.0418C96.9227 59.9058 97.0559 59.737 97.164 59.5355L97.9783 59.7773C97.84 60.0695 97.6453 60.3265 97.3939 60.5482C97.1451 60.7673 96.8536 60.9386 96.5193 61.0621C96.1876 61.183 95.8244 61.2435 95.4298 61.2435Z" fill="black"/>
<path d="M104.533 54.215L104.669 53.3836H110.459L110.324 54.215H107.896L106.75 61.1225H105.815L106.961 54.215H104.533Z" fill="black"/>
<path d="M110.642 61.1225L111.607 55.3184H112.466L112.315 56.195H112.376C112.527 55.9078 112.756 55.6748 113.066 55.496C113.375 55.3171 113.703 55.2277 114.05 55.2277C114.117 55.2277 114.199 55.2289 114.295 55.2315C114.39 55.2315 114.464 55.2352 114.517 55.2428L114.366 56.1497C114.336 56.1421 114.268 56.1308 114.163 56.1157C114.057 56.098 113.944 56.0892 113.823 56.0892C113.542 56.0892 113.282 56.1484 113.043 56.2668C112.804 56.3827 112.604 56.5439 112.444 56.7505C112.283 56.9546 112.18 57.1876 112.134 57.4496L111.531 61.1225H110.642Z" fill="black"/>
<path d="M117.044 61.2586C116.677 61.2586 116.356 61.1893 116.079 61.0507C115.803 60.9097 115.598 60.7069 115.465 60.4424C115.331 60.1753 115.295 59.8529 115.355 59.475C115.413 59.1425 115.525 58.8729 115.691 58.6663C115.857 58.4573 116.058 58.2935 116.294 58.1751C116.533 58.0542 116.789 57.9648 117.063 57.9068C117.34 57.8464 117.615 57.7997 117.889 57.767C118.246 57.7217 118.536 57.6864 118.759 57.6612C118.983 57.636 119.152 57.5944 119.265 57.5365C119.378 57.4786 119.447 57.379 119.472 57.238V57.2077C119.532 56.8374 119.483 56.549 119.325 56.3424C119.167 56.1333 118.884 56.0288 118.477 56.0288C118.055 56.0288 117.701 56.122 117.417 56.3084C117.133 56.4948 116.924 56.6938 116.788 56.9054L116.004 56.6031C116.21 56.2505 116.456 55.9759 116.743 55.7794C117.029 55.5804 117.329 55.4418 117.644 55.3637C117.958 55.2831 118.261 55.2428 118.552 55.2428C118.738 55.2428 118.948 55.2655 119.182 55.3108C119.415 55.3536 119.634 55.4431 119.838 55.5791C120.044 55.7151 120.198 55.9204 120.301 56.195C120.407 56.4696 120.422 56.8374 120.347 57.2984L119.713 61.1225H118.824L118.959 60.3366H118.914C118.834 60.4625 118.71 60.5973 118.545 60.7409C118.381 60.8845 118.174 61.0067 117.923 61.1074C117.674 61.2082 117.381 61.2586 117.044 61.2586ZM117.301 60.4575C117.652 60.4575 117.96 60.3882 118.224 60.2496C118.491 60.1111 118.704 59.9322 118.865 59.7131C119.028 59.4939 119.13 59.2634 119.17 59.0215L119.306 58.2053C119.261 58.2507 119.172 58.2922 119.038 58.33C118.905 58.3653 118.754 58.3968 118.586 58.4245C118.42 58.4497 118.258 58.4724 118.1 58.4925C117.944 58.5102 117.818 58.5253 117.723 58.5379C117.487 58.5681 117.262 58.6172 117.048 58.6852C116.837 58.7507 116.658 58.8502 116.513 58.9838C116.369 59.1148 116.28 59.2936 116.245 59.5203C116.192 59.8302 116.266 60.0645 116.467 60.2232C116.668 60.3794 116.946 60.4575 117.301 60.4575Z" fill="black"/>
<path d="M127.573 55.3184L124.467 61.1225H123.562L122.386 55.3184H123.313L124.142 59.9436H124.203L126.57 55.3184H127.573Z" fill="black"/>
<path d="M130.731 61.2435C130.175 61.2435 129.717 61.12 129.355 60.8731C128.993 60.6237 128.74 60.2761 128.597 59.8302C128.454 59.3818 128.431 58.8603 128.529 58.2658C128.627 57.6713 128.822 57.1473 129.113 56.6938C129.405 56.2379 129.768 55.8827 130.203 55.6282C130.638 55.3713 131.115 55.2428 131.635 55.2428C131.937 55.2428 132.227 55.2932 132.506 55.3939C132.785 55.4947 133.026 55.6585 133.23 55.8852C133.434 56.1094 133.576 56.4066 133.656 56.777C133.736 57.1473 133.731 57.6033 133.641 58.1449L133.581 58.5228H129.117L129.238 57.7519H132.796C132.854 57.4244 132.839 57.1322 132.751 56.8752C132.666 56.6183 132.516 56.4155 132.303 56.2668C132.092 56.1182 131.824 56.0439 131.5 56.0439C131.165 56.0439 130.854 56.1346 130.565 56.316C130.276 56.4948 130.034 56.7215 129.841 56.9961C129.647 57.2682 129.527 57.5453 129.479 57.8275L129.373 58.4925C129.298 58.9737 129.309 59.3566 129.407 59.6413C129.508 59.9259 129.683 60.1312 129.931 60.2572C130.18 60.3806 130.492 60.4424 130.866 60.4424C131.105 60.4424 131.325 60.4096 131.526 60.3441C131.727 60.2761 131.907 60.1753 132.065 60.0418C132.223 59.9058 132.357 59.737 132.465 59.5355L133.279 59.7773C133.141 60.0695 132.946 60.3265 132.695 60.5482C132.446 60.7673 132.154 60.9386 131.82 61.0621C131.488 61.183 131.125 61.2435 130.731 61.2435Z" fill="black"/>
<path d="M137.432 53.3836L136.15 61.1225H135.261L136.542 53.3836H137.432Z" fill="black"/>
<path d="M144.589 53.3836L143.307 61.1225H142.372L143.654 53.3836H144.589Z" fill="black"/>
<path d="M147.267 57.631L146.694 61.1225H145.804L146.769 55.3184H147.629L147.478 56.2253H147.554C147.734 55.9305 147.979 55.6937 148.289 55.5149C148.598 55.3335 148.971 55.2428 149.408 55.2428C149.795 55.2428 150.122 55.3234 150.388 55.4846C150.657 55.6433 150.847 55.8852 150.958 56.2101C151.071 56.5326 151.087 56.9407 151.007 57.4345L150.388 61.1225H149.499L150.102 57.4949C150.177 57.0415 150.118 56.6863 149.925 56.4293C149.734 56.1724 149.431 56.0439 149.016 56.0439C148.73 56.0439 148.465 56.1056 148.221 56.229C147.979 56.3525 147.775 56.5326 147.606 56.7694C147.44 57.0062 147.327 57.2934 147.267 57.631Z" fill="black"/>
<path d="M154.936 61.2435C154.451 61.2435 154.044 61.1213 153.715 60.8769C153.386 60.63 153.153 60.2824 153.017 59.834C152.884 59.3831 152.868 58.8502 152.968 58.2356C153.071 57.6259 153.264 57.0969 153.545 56.6485C153.829 56.2001 154.177 55.8537 154.589 55.6093C155.002 55.365 155.451 55.2428 155.939 55.2428C156.316 55.2428 156.604 55.3058 156.802 55.4317C157.003 55.5552 157.149 55.6962 157.24 55.8549C157.33 56.0111 157.399 56.1396 157.447 56.2404H157.522L157.997 53.3836H158.887L157.605 61.1225H156.746L156.897 60.2308H156.791C156.708 60.3366 156.592 60.4701 156.444 60.6313C156.296 60.79 156.1 60.9323 155.856 61.0583C155.615 61.1817 155.308 61.2435 154.936 61.2435ZM155.155 60.4424C155.512 60.4424 155.831 60.3492 156.112 60.1627C156.396 59.9738 156.633 59.7131 156.821 59.3805C157.01 59.0455 157.14 58.6588 157.213 58.2205C157.286 57.7872 157.284 57.408 157.206 57.083C157.128 56.7556 156.978 56.5011 156.757 56.3197C156.536 56.1358 156.243 56.0439 155.879 56.0439C155.504 56.0439 155.179 56.1409 154.902 56.3348C154.626 56.5263 154.401 56.787 154.228 57.1171C154.054 57.4445 153.933 57.8123 153.866 58.2205C153.798 58.6336 153.797 59.009 153.862 59.3465C153.927 59.6816 154.065 59.9486 154.277 60.1476C154.49 60.3441 154.783 60.4424 155.155 60.4424Z" fill="black"/>
<path d="M164.135 58.7495L164.708 55.3184H165.598L164.633 61.1225H163.743L163.909 60.1401H163.849C163.668 60.4348 163.415 60.6855 163.091 60.892C162.767 61.0961 162.386 61.1981 161.949 61.1981C161.587 61.1981 161.278 61.1188 161.021 60.9601C160.767 60.7988 160.586 60.557 160.478 60.2345C160.373 59.9096 160.36 59.5002 160.441 59.0064L161.059 55.3184H161.949L161.345 58.946C161.278 59.3692 161.342 59.7068 161.538 59.9587C161.734 60.2106 162.016 60.3366 162.386 60.3366C162.607 60.3366 162.841 60.2799 163.087 60.1665C163.336 60.0532 163.557 59.8793 163.751 59.645C163.947 59.4108 164.075 59.1122 164.135 58.7495Z" fill="black"/>
<path d="M171.861 56.6183L171.017 56.845C170.986 56.7089 170.934 56.5779 170.858 56.452C170.785 56.3235 170.672 56.219 170.519 56.1384C170.368 56.0552 170.162 56.0137 169.901 56.0137C169.546 56.0137 169.238 56.0955 168.977 56.2593C168.716 56.4205 168.566 56.6258 168.528 56.8752C168.491 57.0944 168.541 57.2695 168.679 57.4005C168.817 57.5315 169.049 57.6385 169.373 57.7217L170.202 57.9333C170.7 58.0617 171.054 58.2545 171.265 58.5114C171.479 58.7659 171.552 59.0971 171.484 59.5052C171.429 59.8378 171.284 60.135 171.05 60.397C170.817 60.659 170.518 60.8656 170.153 61.0167C169.789 61.1679 169.383 61.2435 168.936 61.2435C168.34 61.2435 167.87 61.115 167.526 60.858C167.181 60.5986 166.998 60.2232 166.975 59.732L167.865 59.5203C167.888 59.8302 167.998 60.0645 168.197 60.2232C168.398 60.3794 168.679 60.4575 169.041 60.4575C169.456 60.4575 169.801 60.3693 170.078 60.193C170.354 60.0141 170.511 59.8 170.549 59.5506C170.587 59.3465 170.547 59.1765 170.428 59.0404C170.313 58.9044 170.112 58.8024 169.825 58.7344L168.905 58.5076C168.393 58.3792 168.033 58.1827 167.827 57.9182C167.624 57.6536 167.556 57.3211 167.624 56.9206C167.679 56.5931 167.82 56.3034 168.046 56.0514C168.275 55.7995 168.561 55.6018 168.905 55.4582C169.252 55.3146 169.629 55.2428 170.036 55.2428C170.609 55.2428 171.038 55.3687 171.322 55.6207C171.606 55.8701 171.786 56.2026 171.861 56.6183Z" fill="black"/>
<path d="M176.778 55.3184L176.658 56.0741H173.657L173.777 55.3184H176.778ZM174.878 53.9278H175.768L174.848 59.4599C174.808 59.7118 174.814 59.9007 174.867 60.0267C174.922 60.1501 175.005 60.2333 175.116 60.2761C175.229 60.3164 175.351 60.3366 175.481 60.3366C175.579 60.3366 175.66 60.3315 175.723 60.3214C175.786 60.3088 175.836 60.2988 175.873 60.2912L175.934 61.0923C175.866 61.115 175.774 61.1377 175.659 61.1603C175.546 61.1855 175.406 61.1981 175.24 61.1981C174.989 61.1981 174.753 61.144 174.531 61.0356C174.31 60.9273 174.141 60.7623 174.022 60.5406C173.904 60.3189 173.873 60.0393 173.928 59.7017L174.878 53.9278Z" fill="black"/>
<path d="M177.895 61.1225L178.86 55.3184H179.719L179.568 56.195H179.629C179.78 55.9078 180.009 55.6748 180.319 55.496C180.628 55.3171 180.956 55.2277 181.303 55.2277C181.37 55.2277 181.452 55.2289 181.548 55.2315C181.643 55.2315 181.717 55.2352 181.77 55.2428L181.619 56.1497C181.589 56.1421 181.521 56.1308 181.416 56.1157C181.31 56.098 181.197 56.0892 181.076 56.0892C180.795 56.0892 180.535 56.1484 180.296 56.2668C180.057 56.3827 179.857 56.5439 179.697 56.7505C179.536 56.9546 179.433 57.1876 179.387 57.4496L178.784 61.1225H177.895Z" fill="black"/>
<path d="M183.003 63.2991C182.852 63.2991 182.719 63.2865 182.604 63.2613C182.49 63.2386 182.413 63.216 182.37 63.1933L182.732 62.4073C182.938 62.4627 183.121 62.4791 183.282 62.4564C183.446 62.4363 183.6 62.3569 183.746 62.2184C183.894 62.0823 184.049 61.8682 184.21 61.576L184.458 61.1225L183.297 55.3184H184.225L185.054 59.9587H185.114L187.482 55.3184H188.485L184.933 61.9614C184.767 62.2713 184.585 62.5245 184.387 62.721C184.188 62.9175 183.973 63.0623 183.742 63.1555C183.511 63.2512 183.265 63.2991 183.003 63.2991Z" fill="black"/>
</svg>
