<svg width="198" height="64" viewBox="0 0 198 64" fill="none" xmlns="http://www.w3.org/2000/svg">
<g clip-path="url(#clip0_2025_448)">
<path d="M98.0496 0.189112C99.4452 -0.227265 101.072 0.0400392 102.17 1.02958C103.1 1.89574 103.496 3.19114 103.501 4.4377C103.506 16.69 103.504 28.9423 103.504 41.1946C103.437 43.0297 103.825 45.0885 102.689 46.6846C101.558 48.3321 99.1831 48.7665 97.4405 47.8977C96.0191 47.1909 95.2583 45.5614 95.2763 44.0218C95.2815 31.348 95.2763 18.6716 95.2789 5.99783C95.2943 4.86693 95.1607 3.69234 95.5616 2.61027C95.96 1.47937 96.893 0.533523 98.0496 0.189112Z" fill="white"/>
<path d="M65.4052 23.2979C67.4922 20.3216 70.9697 18.4864 74.5578 18.1395C78.3694 17.7179 82.5743 18.3656 85.5275 20.9847C88.2699 23.3956 89.4934 27.089 89.7427 30.6436C89.8198 32.0418 90.0254 33.5763 89.2955 34.846C88.7274 35.8483 87.4757 36.1131 86.4117 36.1208C81.117 36.1311 75.8197 36.1131 70.5251 36.1285C70.8618 38.0973 71.7845 40.2075 73.7404 41.0351C76.47 42.1968 79.5491 41.5131 82.2787 40.6958C83.3608 40.3745 84.4788 39.9761 85.6252 40.1355C87.2238 40.4799 88.3599 42.1942 88.1774 43.7981C88.0232 45.0189 87.0157 45.8979 86.0107 46.4788C84.1653 47.5018 82.0551 47.9104 79.9809 48.1546C76.0536 48.6121 71.7999 48.3062 68.4303 46.0496C65.0916 43.8906 63.1793 40.0481 62.709 36.1773C62.1667 31.7668 62.7784 26.9888 65.4052 23.2979ZM73.1878 25.1305C71.2139 26.1689 70.7255 28.572 70.5276 30.5974C74.3881 30.5999 78.2512 30.5922 82.1117 30.5999C81.9652 28.5335 81.2763 26.1971 79.3101 25.1613C77.4287 24.236 75.0821 24.2463 73.1878 25.1305Z" fill="white"/>
<path d="M33.5163 18.3579C34.9325 17.9595 36.6083 18.1985 37.6698 19.2754C38.5694 20.1596 38.9292 21.4473 38.9241 22.6784C38.9318 27.2277 38.9215 31.7745 38.9266 36.3212C38.9163 37.961 39.5872 39.7088 41.0188 40.6135C42.2782 41.4308 43.8486 41.5054 45.3008 41.3357C46.5474 41.1789 47.7913 40.5955 48.5162 39.5366C49.3335 38.38 49.4491 36.9149 49.4646 35.5424C49.4671 31.0856 49.462 26.6289 49.4646 22.1747C49.4774 20.6222 50.413 19.0647 51.8857 18.4941C53.487 17.849 55.5534 18.1548 56.6741 19.5453C57.5479 20.5503 57.7176 21.9356 57.6944 23.2207C57.6662 27.3228 57.7253 31.4275 57.6662 35.5321C57.5814 39.0431 56.6304 42.7982 53.9573 45.2502C51.0915 47.8924 46.9817 48.5324 43.2215 48.3859C39.7568 48.2676 36.0737 47.2267 33.7142 44.5434C31.5501 42.0965 30.7379 38.7398 30.7019 35.5424C30.707 31.0856 30.6942 26.6289 30.707 22.1747C30.7276 20.486 31.8688 18.8308 33.5163 18.3579Z" fill="white"/>
<path d="M134.521 18.4016C138.382 17.9158 142.589 18.0932 145.992 20.1828C148.334 21.5861 149.927 24.0099 150.616 26.6238C151.089 28.3535 151.246 30.1579 151.248 31.9467C151.243 35.8843 151.246 39.8219 151.248 43.7595C151.271 45.0626 150.847 46.4351 149.85 47.3193C148.377 48.6352 145.969 48.6661 144.44 47.4324C143.437 46.6176 142.913 45.3042 142.952 44.0242C142.964 40.0815 142.952 36.1388 142.959 32.196C142.967 30.4586 143.031 28.5515 141.975 27.0659C141.111 25.7885 139.546 25.2024 138.053 25.1485C136.577 25.1048 134.966 25.3875 133.861 26.4439C132.833 27.4694 132.475 28.9755 132.48 30.3892C132.488 34.8562 132.478 39.3233 132.488 43.7878C132.491 44.8519 132.259 45.9545 131.594 46.8104C130.18 48.6995 127.039 48.8563 125.42 47.1522C124.61 46.3349 124.251 45.1628 124.258 44.0319C124.256 41.0325 124.261 38.0356 124.258 35.0361C124.287 32.2963 124.073 29.505 124.813 26.8294C125.43 24.2823 126.906 21.9177 129.08 20.4193C130.699 19.3192 132.596 18.6895 134.521 18.4016Z" fill="white"/>
<path d="M161.169 21.6376C163.976 19.1701 167.798 18.0984 171.486 18.1883C175.1 18.1935 178.786 18.9337 181.952 20.7251C183.41 21.5168 184.502 23.0512 184.466 24.7527C184.466 33.237 184.463 41.7239 184.468 50.2108C184.414 54.0507 183.183 58.1245 180.181 60.6922C177.166 63.2881 173.036 64.0489 169.165 63.9975C166.189 63.8716 163.19 63.1211 160.627 61.5712C159.702 60.9775 158.828 60.2373 158.291 59.2657C157.309 57.4537 158.45 54.8681 160.47 54.4131C161.956 54.1818 163.349 54.9092 164.685 55.4515C166.5 56.2508 168.479 56.7032 170.468 56.6312C172.165 56.6287 173.984 56.2046 175.216 54.9657C176.359 53.7757 176.709 52.0588 176.696 50.4601C176.691 48.9797 176.683 47.5018 176.694 46.0213C174.37 48.0647 171.108 48.5556 168.117 48.3628C164.984 48.17 161.91 46.7718 159.859 44.3661C156.972 41.0582 156.119 36.4549 156.353 32.1832C156.553 28.2379 158.121 24.2412 161.169 21.6376ZM169.826 25.2153C168.569 25.4312 167.346 25.9864 166.459 26.9168C164.837 28.6749 164.47 31.186 164.472 33.4863C164.505 35.5554 164.667 37.8043 165.95 39.5212C167.166 41.1019 169.325 41.4617 171.201 41.3152C172.995 41.2279 174.766 40.2512 175.591 38.6165C177.133 35.6916 176.586 32.2835 176.694 29.1118C176.637 28.1685 176.976 26.9502 176.033 26.3385C174.275 25.0431 171.915 24.9043 169.826 25.2153Z" fill="white"/>
<path d="M0.419493 20.5402C1.2908 18.8515 3.43951 18.1935 5.21554 18.5559C6.6266 18.8181 7.63156 20.0698 7.98368 21.4038C9.60806 26.8861 11.2376 32.3658 12.8517 37.8532C12.9391 38.1745 13.0907 38.4778 13.2655 38.7605C14.967 33.1446 16.6171 27.5132 18.2826 21.8844C18.5962 20.679 19.177 19.4118 20.3593 18.8464C22.2587 17.9802 24.8727 18.5945 25.9496 20.4502C26.6358 21.6813 26.4611 23.1875 25.965 24.4521C23.6544 30.8853 21.3874 37.334 19.0845 43.7699C18.6013 45.0088 18.1387 46.3273 17.1748 47.2885C16.1776 48.237 14.7177 48.3321 13.412 48.3423C11.9624 48.35 10.3483 48.2164 9.23538 47.1729C8.215 46.1936 7.68039 44.8391 7.19719 43.5412C4.91225 37.0847 2.64531 30.6232 0.350096 24.1745C-0.0765617 23.0127 -0.179371 21.6608 0.419493 20.5402Z" fill="white"/>
<path d="M112.476 18.7514C114.206 18.0651 116.404 18.5869 117.457 20.1702C118.085 21.0466 118.229 22.1595 118.223 23.2107C118.213 30.0656 118.218 36.9229 118.221 43.7777C118.218 44.924 117.933 46.1218 117.152 46.9931C115.671 48.7408 112.643 48.7897 111.101 47.101C110.361 46.2708 109.983 45.1528 109.991 44.0476C109.994 36.9306 109.996 29.8111 109.991 22.6941C109.947 21.0492 110.901 19.3451 112.476 18.7514Z" fill="white"/>
<path d="M190.108 3.09587C191.408 2.68464 192.842 2.68464 194.143 3.10101C195.759 3.6202 197.039 5.06724 197.322 6.7456C197.5 8.1875 197.435 9.78104 196.551 11.0019C194.829 13.4128 191.089 13.7418 188.74 12.0994C185.72 9.85044 186.34 4.20107 190.108 3.09587Z" fill="white"/>
</g>
<defs>
<clipPath id="clip0_2025_448">
<rect width="197.402" height="64" fill="white"/>
</clipPath>
</defs>
</svg>
