<svg width="64" height="64" viewBox="0 0 64 64" fill="none" xmlns="http://www.w3.org/2000/svg">
<g clip-path="url(#clip0_2025_423)">
<circle cx="32" cy="32" r="32" fill="#FFF000"/>
<path d="M16.5083 16.5066C17.5643 14.4723 20.1686 13.6796 22.3211 14.1162C24.0313 14.4321 25.2493 15.94 25.6761 17.547C27.6449 24.1514 29.6199 30.7528 31.5762 37.3635C31.6821 37.7505 31.8659 38.1159 32.0777 38.4565C34.1399 31.691 36.1398 24.9069 38.1584 18.126C38.5385 16.6738 39.2425 15.1473 40.6755 14.4661C42.9775 13.4226 46.1456 14.1627 47.4509 16.3982C48.2826 17.8814 48.0708 19.6958 47.4696 21.2192C44.6691 28.9693 41.9215 36.738 39.1304 44.4913C38.5447 45.9837 37.984 47.5721 36.8158 48.7301C35.6071 49.8727 33.8378 49.9872 32.2553 49.9996C30.4983 50.0089 28.542 49.8479 27.1932 48.5908C25.9565 47.4111 25.3085 45.7793 24.7229 44.2157C21.9535 36.4377 19.206 28.6535 16.4242 20.8848C15.9071 19.4853 15.7825 17.8566 16.5083 16.5066Z" fill="black"/>
</g>
<defs>
<clipPath id="clip0_2025_423">
<rect width="64" height="64" fill="white"/>
</clipPath>
</defs>
</svg>
