<svg width="64" height="64" viewBox="0 0 64 64" fill="none" xmlns="http://www.w3.org/2000/svg">
<path d="M49.274 31.0904C49.274 31.3711 45.3276 31.6344 39.694 31.8555C38.699 31.2911 37.9441 30.7238 37.3914 30.235C44.2236 30.4765 49.274 30.7747 49.274 31.0904Z" fill="#747F8A"/>
<path d="M45.2271 21.5792C45.2271 21.8134 41.9193 22.0331 37.1904 22.2222C37.8683 21.8265 38.5665 21.428 39.2996 21.0279C42.8721 21.1923 45.2271 21.3829 45.2271 21.5792Z" fill="#747F8A"/>
<path d="M9.99157 42.0408C7.8024 42.067 5.88233 42.0771 4.38264 42.0771C2.22401 42.0771 0.475586 41.4124 0.475586 40.5876C0.475586 39.7672 2.22401 39.1025 4.38264 39.1025C6.29398 39.1025 8.88316 39.1229 11.8535 39.1607C10.7043 40.8189 10.1588 41.8153 10.1079 41.8779C10.0745 41.9259 10.0323 41.9826 9.99157 42.0408Z" fill="#747F8A"/>
<path d="M11.1706 44.0331C11.8921 44.9044 12.5844 45.6375 13.511 46.439C13.511 46.439 13.8601 46.9379 14.9205 46.5103C15.9998 46.071 16.9148 45.4732 17.9461 44.0898C20.9571 44.1408 24.15 44.2077 27.2933 44.2789C27.5523 44.6557 28.0774 45.4353 28.7247 46.3968C19.9622 46.6238 10.452 46.759 5.58056 46.759C3.55139 46.759 1.90479 46.1292 1.90479 45.3583C1.90479 44.583 3.55139 43.9575 5.58056 43.9575C7.06425 43.9575 8.97559 43.9677 11.1633 43.9924C11.1618 44.0128 11.1706 44.0331 11.1706 44.0331Z" fill="#747F8A"/>
<path d="M7.78124 51.3406C5.98045 51.3406 4.52148 50.7864 4.52148 50.1027C4.52148 49.4176 5.98045 48.8619 7.78124 48.8619C12.545 48.8619 22.3112 49.0074 30.6752 49.2445C31.0781 49.822 31.481 50.3965 31.8636 50.9246C23.2523 51.1777 12.7705 51.3406 7.78124 51.3406Z" fill="#747F8A"/>
<path d="M35.5599 55.3142C28.5356 55.6225 16.4581 55.8291 11.4397 55.8291C10.0273 55.8291 8.87964 55.3884 8.87964 54.8545C8.87964 54.3163 10.0273 53.8785 11.4397 53.8785C16.2399 53.8785 27.513 54.0676 34.6275 54.3512C34.9489 54.696 35.2631 55.0203 35.5599 55.3142Z" fill="#747F8A"/>
<path d="M17.2341 57.9487C21.3782 57.9487 33.994 58.2615 33.994 58.6397C33.994 59.0237 21.3768 59.3335 17.2341 59.3335C16.4268 59.3335 15.7737 59.0237 15.7737 58.6397C15.7737 58.2615 16.4268 57.9487 17.2341 57.9487Z" fill="#747F8A"/>
<path d="M17.2803 32.4399C12.0641 32.5287 7.3905 32.5781 4.38239 32.5781C2.22522 32.5781 0.475342 31.9134 0.475342 31.0901C0.475342 30.2682 2.22522 29.6006 4.38239 29.6006C7.87634 29.6006 13.6176 29.6675 19.8419 29.7853C18.9167 30.7002 18.0614 31.5905 17.2803 32.4399Z" fill="#747F8A"/>
<path d="M42.8649 25.787C45.921 25.9528 47.844 26.1346 47.844 26.3237C47.844 26.5317 45.5166 26.731 41.915 26.9084C42.6845 26.3295 42.8533 25.8248 42.8649 25.787Z" fill="#747F8A"/>
<path d="M5.58152 27.7224C3.5509 27.7224 1.9043 27.0969 1.9043 26.3231C1.9043 25.5507 3.5509 24.9223 5.58152 24.9223C9.74604 24.9223 17.2998 25.0241 24.8768 25.1914C23.9473 25.9754 23.0658 26.7507 22.2338 27.5115C15.5833 27.6453 9.26166 27.7224 5.58152 27.7224Z" fill="#747F8A"/>
<path d="M28.2264 22.502C20.4792 22.6984 12.0861 22.8191 7.78052 22.8191C5.97972 22.8191 4.52222 22.2649 4.52222 21.5798C4.52222 20.8947 5.97972 20.3375 7.78052 20.3375C12.5327 20.3375 22.2756 20.4859 30.6279 20.7216C30.2119 21.0241 29.793 21.3267 29.3682 21.6438C28.9813 21.9318 28.6002 22.2154 28.2264 22.502Z" fill="#747F8A"/>
<path d="M11.439 17.8005C10.0266 17.8005 8.87891 17.3656 8.87891 16.826C8.87891 16.2878 10.0266 15.8499 11.439 15.8499C16.7672 15.8499 30.0564 16.0856 36.8057 16.4216C36.3752 16.7038 35.9446 16.9961 35.5097 17.29C28.4753 17.594 16.4472 17.8005 11.439 17.8005Z" fill="#747F8A"/>
<path d="M3.97978 37.3542C1.78334 37.3542 0 36.6779 0 35.8386C0 35.0051 1.78334 34.3258 3.97978 34.3258C6.73334 34.3258 10.8542 34.3665 15.5147 34.4378C14.6391 35.4676 13.8783 36.4219 13.2267 37.2772C9.51598 37.3266 6.27223 37.3542 3.97978 37.3542Z" fill="#747F8A"/>
<path d="M15.7747 13.0395C15.7747 12.657 16.4278 12.3471 17.2351 12.3471C21.3778 12.3471 33.995 12.657 33.995 13.0395C33.995 13.4192 21.3792 13.7305 17.2351 13.7305C16.4278 13.7305 15.7747 13.4192 15.7747 13.0395Z" fill="#747F8A"/>
<path d="M49.6874 34.7182C49.7165 35.4732 49.7121 36.2223 49.6743 36.9569C42.3344 37.2478 35.3741 37.69 35.3741 38.1875C35.3741 38.6762 42.1787 39.114 49.4343 39.4035C49.3063 40.2414 49.1419 41.0632 48.9412 41.8691C41.7889 42.1614 35.1516 42.592 35.1516 43.0764C35.1516 43.5433 41.3482 43.9637 48.2095 44.256C47.8953 45.1317 47.5389 45.9827 47.1389 46.7972C41.2463 47.0809 36.3763 47.4591 36.3763 47.8722C36.3763 48.2576 40.631 48.614 45.9942 48.8889C45.6931 49.3791 45.3789 49.8592 45.0501 50.313C44.701 50.8076 44.3214 51.2978 43.9199 51.7792C40.567 52.0338 38.2659 52.3232 38.2659 52.6331C38.2659 52.8993 39.9139 53.148 42.4537 53.3706C41.0674 54.7422 39.4296 56.0237 37.4993 57.1423C37.4993 57.1423 35.2258 55.1844 33.3493 52.8978C31.6765 50.8585 28.1273 45.4823 27.2924 44.2793C26.456 43.0764 25.9062 42.7244 24.9287 43.0735C23.6181 43.5375 22.0951 43.7702 21.6267 43.7702C21.1583 43.7702 20.9009 43.5884 21.6864 43.2771C22.4689 42.9615 25.5629 41.501 27.0858 38.4827C28.7964 35.0833 27.2924 30.3894 27.2924 30.3894C26.7178 32.8985 25.4116 33.8353 25.4116 33.8353C25.8334 31.505 25.3738 29.393 24.2232 27.9107L23.5817 30.8606C23.5817 30.8606 23.1802 30.8403 22.1867 31.6752C21.1947 32.5116 20.9212 33.7306 20.9212 33.7306C21.7024 34.0448 22.642 33.2607 22.642 33.2607C21.442 37.7511 19.7212 41.4065 18.4659 43.3396C17.212 45.2728 16.1778 46.0016 14.921 46.5121C13.8606 46.9369 13.5115 46.4379 13.5115 46.4379C12.5849 45.6379 11.8926 44.9048 11.1711 44.0335C11.1711 44.0335 11.1129 43.9317 11.3078 43.9346C11.8242 43.9419 12.7435 43.0589 12.9442 42.6924C13.1741 42.272 13.1493 41.9505 13.0344 41.9287C12.921 41.9098 12.7246 42.2429 11.7282 42.8713C10.7376 43.4982 10.2823 43.0633 9.95212 42.7142C9.69611 42.4363 9.94775 42.0931 10.1078 41.8778C10.259 41.6858 15.5 31.9123 29.3681 21.6443C47.5418 8.18782 59.1481 4.55424 59.8128 4.29241C60.2521 4.11931 60.9692 3.89094 61.1322 4.05822C61.3125 4.24732 61.4013 4.39859 61.3765 4.61824C61.3533 4.83643 61.2369 4.94843 60.3961 5.31936C53.4199 8.39292 45.2756 13.516 40.6485 16.4979C34.9581 19.2704 29.5252 23.2298 29.3274 23.3244C28.8895 23.5964 29.2125 23.992 29.4772 23.8262C39.0863 17.4347 50.3521 13.0811 62.802 9.51442C63.397 9.34568 63.7228 9.34568 63.8217 9.4766C63.9337 9.62206 63.9817 9.78788 63.9992 9.97116C64.0152 10.1995 63.8261 10.3203 63.3155 10.5195C49.9405 15.4885 40.0827 20.1039 33.7421 24.3702C33.7421 24.3702 33.086 24.7659 33.0773 25.2241C33.0744 25.3986 33.4293 25.419 33.4293 25.419C36.6033 25.4757 40.8463 25.6619 42.8653 25.7797C42.8653 25.7797 42.5773 26.8023 40.6441 27.6256C39.1517 28.2627 37.7699 28.1609 36.4025 28.1726C36.0985 28.1667 35.8411 28.4737 36.084 28.8009C36.2062 28.9639 39.1154 33.6477 49.6874 34.7182Z" fill="#5C0632"/>
</svg>
