<svg width="227" height="64" viewBox="0 0 227 64" fill="none" xmlns="http://www.w3.org/2000/svg">
<g clip-path="url(#clip0_2007_5554)">
<path d="M41.6145 56.8353C41.1301 56.8682 40.6597 56.898 40.1736 56.898C39.6249 56.898 39.0933 56.851 38.5446 56.8353L40.1423 52.983L41.6145 56.8353ZM43.3847 61.2051C43.6669 61.1894 44.1059 61.1126 44.5434 61.1126C44.9824 61.1126 45.5312 61.1894 45.7664 61.2051C45.0608 59.6858 44.026 57.3198 43.4317 55.9573C42.8673 54.6434 41.9281 52.4499 41.1771 50.3034C41.0046 50.3504 40.8463 50.3834 40.6754 50.3834C40.4872 50.3834 40.3304 50.3504 40.158 50.3034C39.7832 51.5875 38.8723 53.6242 37.2918 57.1661L35.4746 61.2051C35.6925 61.1737 35.9136 61.1126 36.1786 61.1126C36.4295 61.1126 36.7289 61.1737 36.9312 61.2051C37.1805 60.3129 37.6822 59.0116 38.1824 57.8074C38.8096 57.7745 39.4367 57.7447 40.0623 57.7447C40.7365 57.7447 41.395 57.7745 42.0708 57.8074L42.7262 59.4678L43.3847 61.2051Z" fill="#505967"/>
<path d="M47.1396 54.0787C47.1396 56.7567 47.1396 59.3422 46.9672 61.2048C47.3137 61.1907 47.7511 61.1123 48.0945 61.1123C48.4551 61.1123 48.8314 61.1907 49.192 61.2048C49.0666 59.9364 49.0352 58.2446 49.0352 55.9116C49.0352 54.328 49.0352 51.6202 49.2077 50.46C48.8314 50.507 48.441 50.5556 48.0945 50.5556C47.8609 50.5556 47.2792 50.4929 46.9828 50.46C47.1396 51.9777 47.1396 53.0909 47.1396 54.0787Z" fill="#505967"/>
<path d="M56.4553 55.88C57.8821 55.6134 59.1819 54.7197 59.1819 52.9825C59.1819 52.324 58.931 51.6811 58.4622 51.2264C57.7896 50.5851 57.0197 50.4597 56.0022 50.4597C55.6416 50.4597 53.8243 50.5381 53.4183 50.5381C52.6186 50.5381 52.211 50.4926 51.8519 50.4597C51.9601 52.4807 51.9601 52.7003 51.9601 54.7526C51.9601 57.774 51.9444 58.1189 51.8206 61.2046C52.1655 61.1591 52.5418 61.1121 52.8993 61.1121C53.2928 61.1121 53.6362 61.1732 53.9498 61.2046C53.9498 60.7985 53.8871 58.7775 53.8871 58.3228V56.0995H54.2634C55.11 57.2895 56.079 58.6677 56.8786 59.9064C57.1138 60.2654 57.4588 60.8455 57.6939 61.2046C58.1643 61.1419 58.3525 61.1121 58.9639 61.1121C59.5268 61.1121 59.9188 61.1591 60.3563 61.2046C59.37 59.9691 58.9451 59.4203 57.7096 57.6815C57.4744 57.3522 57.1295 56.8348 56.8943 56.5071L56.4553 55.88ZM53.8871 51.3064C54.1222 51.2891 54.7024 51.2264 55.0003 51.2264C55.5161 51.2264 56.0351 51.3064 56.4553 51.62C57.0041 52.0261 57.1138 52.5905 57.1138 53.249C57.1138 54.265 56.5353 55.4112 54.9689 55.4112C54.5613 55.4112 54.185 55.3782 53.8871 55.3626V51.3064Z" fill="#505967"/>
<path d="M64.6141 57.5409C63.8803 55.3631 62.8611 52.3088 62.3751 50.4602C61.9831 50.5229 61.6397 50.5543 61.2791 50.5543C60.9028 50.5543 60.3697 50.4931 60.0562 50.4602C60.699 52.152 61.2462 53.654 61.6711 54.8456C62.3923 56.8824 62.8611 58.2935 63.4256 60.0135L63.816 61.2051C64.0355 61.1596 64.2848 61.1126 64.4588 61.1126C64.6313 61.1126 64.7881 61.1424 65.0531 61.2051C65.3039 60.3913 65.6018 59.3894 65.8229 58.7466C66.4313 56.9607 66.5112 56.7099 67.3109 54.4866L67.7797 53.1868C67.9521 53.687 68.25 54.4866 68.4209 54.9868C68.5934 55.4728 69.393 57.8701 69.5812 58.4032C69.8321 59.1072 69.8932 59.3095 70.4733 61.2051C70.6144 61.1894 70.9108 61.1126 71.1475 61.1126C71.367 61.1126 71.5379 61.1596 71.7731 61.2051C72.3689 59.3424 72.4317 59.1543 73.3081 56.6472C74.1705 54.2028 74.702 52.8105 75.6412 50.4602C75.406 50.5229 75.1739 50.5543 74.9372 50.5543C74.6393 50.5543 74.39 50.5072 74.2175 50.4602C73.6531 52.4969 73.3724 53.4847 72.9177 54.83C72.1808 57.0219 72.0867 57.2728 71.6336 58.4644C71.1319 57.1175 70.6458 55.7535 70.1911 54.3768C69.9418 53.6242 68.9838 50.4931 68.9697 50.4602C68.7518 50.5072 68.5934 50.5543 68.2798 50.5543C68.0007 50.5543 67.7938 50.4931 67.5915 50.4602C67.1211 52.3715 65.4607 56.9764 65.3039 57.3998L64.912 58.4173L64.6141 57.5409Z" fill="#505967"/>
<path d="M80.4202 56.8353C79.9341 56.8682 79.4653 56.898 78.9777 56.898C78.4305 56.898 77.8974 56.851 77.3502 56.8353L78.9464 52.983L80.4202 56.8353ZM82.1888 61.2051C82.4726 61.1894 82.9116 61.1126 83.349 61.1126C83.7881 61.1126 84.3368 61.1894 84.5704 61.2051C83.8664 59.6858 82.8316 57.3198 82.2358 55.9573C81.6714 54.6434 80.7322 52.4499 79.9812 50.3034C79.8087 50.3504 79.6519 50.3834 79.4794 50.3834C79.2929 50.3834 79.1345 50.3504 78.962 50.3034C78.5873 51.5875 77.6779 53.6242 76.0959 57.1661L74.2787 61.2051C74.4998 61.1737 74.7177 61.1126 74.9842 61.1126C75.2351 61.1126 75.5314 61.1737 75.7368 61.2051C75.9861 60.3129 76.4894 59.0116 76.9896 57.8074C77.6152 57.7745 78.2424 57.7447 78.868 57.7447C79.5422 57.7447 80.1991 57.7745 80.8733 57.8074L81.5318 59.4678L82.1888 61.2051Z" fill="#505967"/>
<path d="M88.7645 57.0075C88.7645 56.868 88.8585 56.6955 88.9683 56.5058C89.6268 55.3785 90.2367 54.2026 90.9423 53.0752C91.1759 52.6989 92.3205 50.8833 92.5572 50.46C92.3832 50.5227 92.2107 50.5556 91.8987 50.5556C91.5522 50.5556 91.2386 50.507 90.9878 50.46C89.8604 52.9357 89.6096 53.4672 88.28 55.7548C86.9488 53.4217 86.353 52.1847 85.5377 50.46C85.0846 50.5384 84.6283 50.5556 84.2536 50.5556C83.9087 50.5556 83.548 50.5227 82.9695 50.46C83.7832 51.8225 85.1159 53.9846 85.914 55.3628L86.8375 56.9605C86.8375 57.9326 86.7905 59.9834 86.745 61.2048C87.0413 61.1735 87.4804 61.1123 87.7924 61.1123C88.153 61.1123 88.5152 61.1735 88.8758 61.2048C88.8115 59.7482 88.7645 58.9031 88.7645 57.5861V57.0075Z" fill="#505967"/>
<path d="M93.4595 58.8568C93.3827 59.6078 93.3654 59.8117 93.0989 60.6254C93.6633 60.9076 94.6825 61.425 96.0277 61.425C98.8954 61.425 100.007 59.5937 100.007 57.9945C100.007 57.5555 99.8973 56.6304 99.2404 55.9264C98.7857 55.4247 98.3153 55.2538 97.1096 54.7834C95.733 54.2503 94.9318 53.9367 94.9318 52.7937C94.9318 51.8702 95.5432 51.1019 96.7803 51.1019C97.7665 51.1019 98.5991 51.5723 98.8327 52.4645H99.0522C99.1933 51.8702 99.2247 51.7448 99.5383 50.9765C98.77 50.6331 98.0801 50.3352 96.9371 50.3352C94.1008 50.3352 93.287 52.0897 93.287 53.4663C93.287 54.7677 93.7433 55.5673 95.261 56.24C95.6985 56.4281 96.437 56.7088 96.8744 56.8985C97.1723 57.0224 98.1601 57.4598 98.1601 58.6985C98.1601 59.8274 97.3432 60.6583 96.1077 60.6583C95.1826 60.6583 94.3987 60.4232 93.679 58.8568H93.4595Z" fill="#505967"/>
<path d="M6.43783 29.9075C6.43783 18.0667 12.7816 14.8697 17.5763 14.8697C25.2825 14.8697 28.619 21.2621 28.619 28.0762C28.619 31.9756 28.1487 35.6414 26.2217 38.6031C24.2947 41.5618 21.1009 43.3492 17.6217 43.3492C8.92924 43.3492 6.43783 35.0769 6.43783 29.9075ZM29.8404 54.1113C31.25 53.1235 33.4592 51.9021 35.0569 51.1966L24.4374 44.6161C30.9678 42.3144 35.0569 36.4865 35.0569 28.545C35.0569 17.2686 26.4569 12.4739 17.6688 12.4739C8.17821 12.4739 0 17.7374 0 29.6739C0 32.2092 0.564447 37.0039 4.51087 40.9989C8.59998 45.135 13.4401 45.745 17.5292 45.745C18.0451 45.745 18.5609 45.745 19.0799 45.6995L29.8404 54.1113Z" fill="#5C0632"/>
<path d="M56.9796 31.9761C55.5214 32.0717 54.1134 32.1658 52.6537 32.1658C51.0105 32.1658 49.4128 32.0231 47.7697 31.9761L52.5628 20.4159L56.9796 31.9761ZM62.2901 45.0869C63.1352 45.0399 64.4522 44.8047 65.7661 44.8047C67.0847 44.8047 68.7263 45.0399 69.4335 45.0869C67.3184 40.529 64.217 33.4326 62.4296 29.3435C60.7378 25.3971 57.9187 18.8166 55.6641 12.3788C55.1467 12.5215 54.6763 12.6155 54.1605 12.6155C53.596 12.6155 53.1256 12.5215 52.6098 12.3788C51.4809 16.2343 48.7559 22.3428 44.0098 32.9623L38.5566 45.0869C39.2152 44.9944 39.8737 44.8047 40.6717 44.8047C41.4228 44.8047 42.3181 44.9944 42.928 45.0869C43.679 42.4074 45.1858 38.508 46.6878 34.8892C48.5662 34.7967 50.4461 34.7027 52.326 34.7027C54.347 34.7027 56.321 34.7967 58.3436 34.8892L60.3145 39.872L62.2901 45.0869Z" fill="#5C0632"/>
<path d="M83.1429 21.2623C83.1429 19.4764 83.1884 17.6906 83.2354 15.9973C86.4779 15.9973 89.8159 16.0459 92.588 16.3265C92.4469 15.5755 92.3528 15.1537 92.3528 14.6363C92.3528 14.26 92.4469 13.647 92.588 12.8505C88.0771 13.0841 83.941 13.1311 80.04 13.1311C76.4213 13.1311 71.2049 13.0841 67.4921 12.8505C67.6347 13.4149 67.7273 14.0248 67.7273 14.5893C67.7273 15.1537 67.6347 15.7636 67.4921 16.3265C69.891 16.0929 74.4018 15.9973 74.8236 15.9973H77.1739C77.2209 17.8317 77.268 19.4764 77.268 21.2153L77.315 34.3245C77.315 37.8978 77.0344 41.5165 76.8446 45.0867C78.5364 44.9001 79.242 44.806 80.04 44.806C80.6045 44.806 82.1081 44.9471 83.4722 45.0867C83.3295 43.7728 83.1429 42.2205 83.1429 38.6504V21.2623Z" fill="#5C0632"/>
<path d="M109.3 31.9761C107.843 32.0717 106.433 32.1658 104.977 32.1658C103.331 32.1658 101.734 32.0231 100.088 31.9761L104.883 20.4159L109.3 31.9761ZM114.61 45.0869C115.455 45.0399 116.772 44.8047 118.088 44.8047C119.403 44.8047 121.048 45.0399 121.753 45.0869C119.638 40.529 116.537 33.4326 114.751 29.3435C113.059 25.3971 110.239 18.8166 107.984 12.3788C107.467 12.5215 106.996 12.6155 106.48 12.6155C105.916 12.6155 105.446 12.5215 104.928 12.3788C103.802 16.2343 101.076 22.3428 96.3282 32.9623L90.8782 45.0869C91.5351 44.9944 92.1952 44.8047 92.9933 44.8047C93.7443 44.8047 94.6364 44.9944 95.2495 45.0869C96.0021 42.4074 97.5042 38.508 99.0078 34.8892C100.886 34.7967 102.766 34.7027 104.648 34.7027C106.669 34.7027 108.643 34.7967 110.662 34.8892L112.636 39.872L114.61 45.0869Z" fill="#5C0632"/>
<path d="M140.68 29.1112C144.955 28.3116 148.856 25.6336 148.856 20.4156C148.856 18.4416 148.104 16.5147 146.692 15.1537C144.673 13.2268 142.37 12.8505 139.315 12.8505C138.234 12.8505 132.784 13.0841 131.561 13.0841C129.163 13.0841 127.942 12.943 126.863 12.8505C127.191 18.912 127.191 19.569 127.191 25.7246C127.191 34.7965 127.144 35.8282 126.769 45.0867C127.802 44.9471 128.93 44.8044 130.01 44.8044C131.184 44.8044 132.219 44.9942 133.158 45.0867C133.158 43.8637 132.972 37.8037 132.972 36.4397V29.7666H134.101C136.637 33.3383 139.552 37.4745 141.948 41.1873C142.652 42.2691 143.685 44.0079 144.389 45.0867C145.8 44.9001 146.365 44.8044 148.196 44.8044C149.888 44.8044 151.064 44.9471 152.379 45.0867C149.419 41.3754 148.152 39.7307 144.438 34.5143C143.732 33.5265 142.699 31.9758 141.993 30.9896L140.68 29.1112ZM132.972 15.3873C133.676 15.3419 135.414 15.1537 136.308 15.1537C137.859 15.1537 139.408 15.3873 140.68 16.3265C142.323 17.5495 142.652 19.2397 142.652 21.2153C142.652 24.2695 140.913 27.7001 136.214 27.7001C134.991 27.7001 133.864 27.6045 132.972 27.5606V15.3873Z" fill="#5C0632"/>
<path d="M210.928 29.2007C210.928 29.5033 206.674 29.7871 200.602 30.0254C199.529 29.417 198.716 28.8056 198.12 28.2787C205.484 28.539 210.928 28.8604 210.928 29.2007Z" fill="#747F8A"/>
<path d="M206.566 18.9486C206.566 19.201 203 19.4378 197.903 19.6416C198.634 19.2151 199.386 18.7855 200.177 18.3543C204.027 18.5315 206.566 18.7369 206.566 18.9486Z" fill="#747F8A"/>
<path d="M168.586 41.0043C166.226 41.0325 164.156 41.0435 162.54 41.0435C160.213 41.0435 158.328 40.3269 158.328 39.4379C158.328 38.5536 160.213 37.8371 162.54 37.8371C164.6 37.8371 167.391 37.859 170.592 37.8998C169.354 39.6872 168.766 40.7612 168.711 40.8287C168.675 40.8804 168.629 40.9415 168.586 41.0043Z" fill="#747F8A"/>
<path d="M169.857 43.1516C170.634 44.0908 171.381 44.881 172.379 45.7449C172.379 45.7449 172.756 46.2827 173.899 45.8217C175.062 45.3482 176.048 44.7038 177.16 43.2127C180.405 43.2676 183.847 43.3397 187.235 43.4166C187.514 43.8226 188.08 44.663 188.778 45.6994C179.333 45.944 169.082 46.0898 163.831 46.0898C161.644 46.0898 159.869 45.4109 159.869 44.5799C159.869 43.7443 161.644 43.0701 163.831 43.0701C165.43 43.0701 167.491 43.081 169.849 43.1077C169.847 43.1296 169.857 43.1516 169.857 43.1516Z" fill="#747F8A"/>
<path d="M166.203 51.0283C164.262 51.0283 162.689 50.4309 162.689 49.694C162.689 48.9555 164.262 48.3566 166.203 48.3566C171.338 48.3566 181.865 48.5134 190.88 48.769C191.315 49.3914 191.749 50.0107 192.161 50.5799C182.879 50.8527 171.581 51.0283 166.203 51.0283Z" fill="#747F8A"/>
<path d="M196.146 55.3114C188.574 55.6438 175.556 55.8665 170.146 55.8665C168.624 55.8665 167.387 55.3914 167.387 54.816C167.387 54.2358 168.624 53.7639 170.146 53.7639C175.321 53.7639 187.472 53.9677 195.141 54.2735C195.487 54.6451 195.826 54.9947 196.146 55.3114Z" fill="#747F8A"/>
<path d="M176.393 58.1514C180.86 58.1514 194.458 58.4885 194.458 58.8962C194.458 59.3101 180.858 59.644 176.393 59.644C175.522 59.644 174.818 59.3101 174.818 58.8962C174.818 58.4885 175.522 58.1514 176.393 58.1514Z" fill="#747F8A"/>
<path d="M176.442 30.6555C170.819 30.7511 165.782 30.8044 162.539 30.8044C160.214 30.8044 158.328 30.0879 158.328 29.2005C158.328 28.3146 160.214 27.5949 162.539 27.5949C166.305 27.5949 172.494 27.6671 179.203 27.7941C178.206 28.7803 177.284 29.7398 176.442 30.6555Z" fill="#747F8A"/>
<path d="M204.02 23.4843C207.314 23.663 209.387 23.859 209.387 24.0628C209.387 24.287 206.878 24.5018 202.996 24.6931C203.825 24.0691 204.007 23.525 204.02 23.4843Z" fill="#747F8A"/>
<path d="M163.832 25.5703C161.643 25.5703 159.868 24.8961 159.868 24.062C159.868 23.2294 161.643 22.5521 163.832 22.5521C168.321 22.5521 176.463 22.6618 184.63 22.8422C183.628 23.6873 182.678 24.5229 181.781 25.343C174.613 25.4872 167.799 25.5703 163.832 25.5703Z" fill="#747F8A"/>
<path d="M188.241 19.9434C179.89 20.155 170.843 20.2852 166.202 20.2852C164.261 20.2852 162.69 19.6878 162.69 18.9493C162.69 18.2108 164.261 17.6103 166.202 17.6103C171.325 17.6103 181.827 17.7702 190.83 18.0242C190.381 18.3504 189.93 18.6765 189.472 19.0183C189.055 19.3287 188.644 19.6345 188.241 19.9434Z" fill="#747F8A"/>
<path d="M170.146 14.8757C168.623 14.8757 167.386 14.4069 167.386 13.8252C167.386 13.2451 168.623 12.7732 170.146 12.7732C175.889 12.7732 190.214 13.0272 197.489 13.3894C197.025 13.6935 196.56 14.0087 196.092 14.3254C188.509 14.6531 175.544 14.8757 170.146 14.8757Z" fill="#747F8A"/>
<path d="M162.106 35.9526C159.738 35.9526 157.816 35.2236 157.816 34.3189C157.816 33.4205 159.738 32.6883 162.106 32.6883C165.074 32.6883 169.516 32.7322 174.539 32.809C173.595 33.9191 172.775 34.9476 172.073 35.8695C168.073 35.9228 164.577 35.9526 162.106 35.9526Z" fill="#747F8A"/>
<path d="M174.819 9.74377C174.819 9.33141 175.523 8.99744 176.393 8.99744C180.859 8.99744 194.459 9.33141 194.459 9.74377C194.459 10.153 180.86 10.4885 176.393 10.4885C175.523 10.4885 174.819 10.153 174.819 9.74377Z" fill="#747F8A"/>
<path d="M211.374 33.1113C211.405 33.9251 211.4 34.7326 211.36 35.5244C203.448 35.8379 195.945 36.3146 195.945 36.8508C195.945 37.3776 203.28 37.8496 211.101 38.1616C210.963 39.0647 210.786 39.9506 210.569 40.8192C202.86 41.1343 195.706 41.5984 195.706 42.1205C195.706 42.6238 202.385 43.077 209.781 43.3921C209.442 44.336 209.058 45.2532 208.627 46.1313C202.275 46.437 197.026 46.8447 197.026 47.2899C197.026 47.7054 201.612 48.0896 207.393 48.3859C207.068 48.9143 206.729 49.4317 206.375 49.9209C205.999 50.454 205.59 50.9824 205.157 51.5013C201.543 51.7757 199.062 52.0877 199.062 52.4217C199.062 52.7086 200.839 52.9767 203.576 53.2166C202.082 54.6952 200.317 56.0765 198.236 57.2822C198.236 57.2822 195.785 55.1718 193.763 52.7071C191.96 50.5089 188.134 44.7139 187.234 43.4172C186.333 42.1205 185.74 41.7411 184.686 42.1174C183.274 42.6176 181.632 42.8684 181.127 42.8684C180.622 42.8684 180.345 42.6725 181.191 42.3369C182.035 41.9967 185.37 40.4225 187.011 37.1691C188.855 33.5049 187.234 28.4452 187.234 28.4452C186.615 31.1499 185.207 32.1596 185.207 32.1596C185.661 29.6478 185.166 27.3712 183.926 25.7735L183.234 28.9532C183.234 28.9532 182.802 28.9313 181.731 29.8313C180.661 30.7328 180.367 32.0467 180.367 32.0467C181.209 32.3854 182.221 31.5403 182.221 31.5403C180.928 36.3804 179.073 40.3206 177.72 42.4043C176.368 44.4881 175.254 45.2736 173.899 45.8239C172.756 46.2818 172.38 45.744 172.38 45.744C171.381 44.8816 170.635 44.0914 169.857 43.1522C169.857 43.1522 169.794 43.0425 170.004 43.0456C170.561 43.0535 171.552 42.1017 171.768 41.7066C172.016 41.2535 171.989 40.907 171.865 40.8835C171.743 40.8631 171.531 41.2221 170.457 41.8995C169.39 42.5752 168.899 42.1064 168.543 41.7301C168.267 41.4307 168.538 41.0606 168.711 40.8286C168.874 40.6216 174.523 30.0869 189.471 19.019C209.061 4.51426 221.571 0.597621 222.288 0.315397C222.761 0.128816 223.534 -0.117345 223.71 0.0629649C223.904 0.266793 224 0.429853 223.973 0.666607C223.948 0.901794 223.823 1.02253 222.917 1.42234C215.397 4.73533 206.618 10.2575 201.631 13.4717C195.497 16.4602 189.641 20.728 189.428 20.8299C188.956 21.1231 189.304 21.5496 189.589 21.3708C199.947 14.4815 212.09 9.7887 225.51 5.94419C226.151 5.76231 226.502 5.76231 226.609 5.90342C226.73 6.06021 226.781 6.23896 226.8 6.43651C226.818 6.68267 226.614 6.81281 226.063 7.02761C211.646 12.3836 201.021 17.3586 194.186 21.9572C194.186 21.9572 193.479 22.3837 193.47 22.8776C193.467 23.0658 193.849 23.0877 193.849 23.0877C197.27 23.1489 201.844 23.3495 204.02 23.4765C204.02 23.4765 203.71 24.5788 201.626 25.4662C200.017 26.153 198.528 26.0432 197.054 26.0558C196.726 26.0495 196.449 26.3803 196.711 26.7331C196.842 26.9087 199.978 31.9574 211.374 33.1113Z" fill="#5C0632"/>
<path d="M106.902 59.5126H104.97C104.97 59.5126 104.71 58.3242 105.409 57.8695C106.112 57.4085 106.902 57.0542 106.902 57.0542V59.5126ZM116.068 55.0629C116.068 55.0629 114.894 55.7371 114.151 56.3988C113.412 57.0542 114.303 57.3035 114.303 57.3035V59.5126H108.697V51.7813C108.697 51.7813 106.654 53.6596 106.463 53.9089C106.266 54.1755 106.949 54.4169 106.949 54.4169L106.833 55.1492C106.833 55.1492 106.019 55.5709 105.032 56.2389C104.05 56.8989 103.323 57.7409 103.323 58.3242C103.323 58.909 103.075 61.2044 103.075 61.2044H116.068V55.0629ZM104.464 52.236C105.104 52.236 105.555 51.9835 105.555 51.474C105.555 50.9628 105.256 50.6069 104.464 50.6069C103.76 50.6069 103.572 50.9142 103.572 51.474C103.572 52.0384 103.816 52.236 104.464 52.236ZM106.853 52.236C107.499 52.236 107.937 51.9835 107.937 51.474C107.937 50.9628 107.641 50.6069 106.853 50.6069C106.146 50.6069 105.961 50.9142 105.961 51.474C105.961 52.0384 106.204 52.236 106.853 52.236ZM110.474 61.8692C109.775 61.8692 109.582 62.1687 109.582 62.7316C109.582 63.2897 109.829 63.4936 110.474 63.4936C111.113 63.4936 111.567 63.2396 111.567 62.7316C111.567 62.2189 111.272 61.8692 110.474 61.8692ZM112.957 61.8692C112.258 61.8692 112.067 62.1687 112.067 62.7316C112.067 63.2897 112.321 63.4936 112.957 63.4936C113.606 63.4936 114.052 63.2396 114.052 62.7316C114.052 62.2189 113.759 61.8692 112.957 61.8692ZM140.955 52.0839C141.6 52.0839 142.051 51.8377 142.051 51.3282C142.051 50.8217 141.754 50.4595 140.955 50.4595C140.258 50.4595 140.068 50.7669 140.068 51.3282C140.068 51.8895 140.317 52.0839 140.955 52.0839ZM143.437 52.0839C144.077 52.0839 144.526 51.8377 144.526 51.3282C144.526 50.8217 144.228 50.4595 143.437 50.4595C142.735 50.4595 142.548 50.7669 142.548 51.3282C142.548 51.8895 142.788 52.0839 143.437 52.0839ZM150.289 52.294C149.94 52.5966 150.042 52.9588 150.485 52.9086V61.2154H152.326V50.875C152.326 50.875 150.633 51.993 150.289 52.294ZM142.892 56.9523H141.7C141.7 56.2984 142.892 55.9362 142.892 55.9362V56.9523ZM135.048 58.3242C135.048 58.6252 135.034 59.116 135.019 59.5126H124.619V57.6845C124.891 56.9805 125.349 56.8989 126.057 56.8989H133.66C135.302 56.8989 135.048 57.7629 135.048 58.3242ZM147.21 52.8992V59.5126H144.734V53.5076C144.734 53.5076 144.228 53.702 143.533 54.0093C142.845 54.3213 140.355 55.3326 140.355 56.6998V58.2803H142.892V59.5126H136.874C136.879 59.2226 136.885 58.7961 136.885 58.1705C136.885 56.1997 135.206 55.1272 133.712 55.1272H126.755C125.537 55.1272 124.949 55.422 124.619 55.7591V50.6681C124.619 50.6681 123.533 51.4316 122.735 52.0384C121.938 52.6452 122.735 53.0529 122.735 53.0529V59.5126H120.455L120.406 53.9685C120.406 53.9685 118.82 55.1272 118.365 55.48C117.921 55.8312 118.168 56.1448 118.665 56.1448C118.665 56.1448 118.574 60.2386 118.574 61.2044C118.574 62.1765 117.769 63.2866 116.081 62.7817C116.081 62.7817 115.544 62.8852 115.99 63.2897C116.433 63.6927 116.97 64 117.57 64C118.168 64 120.356 63.5876 120.356 61.2044H149.044V50.8688C149.044 50.8688 147.356 51.9835 147.008 52.2862C146.658 52.5888 146.76 52.9525 147.21 52.8992Z" fill="#5C0632"/>
</g>
<defs>
<clipPath id="clip0_2007_5554">
<rect width="226.801" height="64" fill="white"/>
</clipPath>
</defs>
</svg>
