<svg width="171" height="64" viewBox="0 0 171 64" fill="none" xmlns="http://www.w3.org/2000/svg">
<g clip-path="url(#clip0_2004_2295)">
<path d="M33.9165 55.2V28.4832C31.9071 27.649 30.1183 27.0602 28.55 26.7168C26.9817 26.3242 25.4134 26.0544 23.8451 25.9072C23.257 28.1642 22.7424 30.4704 22.3013 32.8256C21.8602 35.1318 21.4927 37.4378 21.1986 39.744C20.9045 42.001 20.684 44.209 20.537 46.368C20.3899 48.527 20.3164 50.5142 20.3164 52.3296C20.3164 54.3904 20.3899 56.0832 20.537 57.408C20.733 58.7328 20.9535 59.7878 21.1986 60.5728C21.4927 61.407 21.7867 62.0448 22.0808 62.4864C22.4238 62.928 22.7179 63.296 22.9629 63.5904C21.7377 63.5904 20.4145 63.5168 18.9932 63.3696C17.6209 63.2224 16.3221 62.7318 15.0969 61.8976C13.9207 61.1126 12.9405 59.8858 12.1564 58.2176C11.3723 56.5494 10.9802 54.1696 10.9802 51.0784C10.9802 49.4592 11.1026 47.6682 11.3477 45.7056C11.5928 43.743 11.9358 41.6822 12.3769 39.5232C12.818 37.3152 13.3571 35.0582 13.9942 32.752C14.6804 30.3968 15.44 28.0662 16.2732 25.76C13.9207 25.9072 12.0339 26.2752 10.6126 26.864C9.19128 27.4528 8.35818 28.385 8.11311 29.6608C8.35818 29.6608 8.67669 29.9798 9.06879 30.6176C9.46089 31.2064 9.6569 31.7952 9.6569 32.384C9.6569 33.12 9.31386 33.7088 8.6277 34.1504C7.94158 34.592 7.08392 34.8128 6.05472 34.8128C4.63345 34.8128 3.3592 34.3712 2.23199 33.488C1.05577 32.6048 0.467651 31.3046 0.467651 29.5872C0.467651 27.232 1.66838 25.2938 4.06984 23.7728C6.4713 22.2518 9.63237 21.4912 13.5531 21.4912C14.7294 21.4912 16.1751 21.5648 17.8905 21.712C19.1157 18.768 20.488 15.9958 22.0073 13.3952C23.5265 10.7456 25.1684 8.43944 26.9327 6.4768C28.697 4.46507 30.5594 2.89494 32.5198 1.7664C34.4801 0.588801 36.5385 0 38.6949 0C39.4301 0 40.3368 0.0736005 41.415 0.220802C42.5422 0.368002 43.5958 0.637869 44.5761 1.0304V55.2H33.9165ZM33.9165 5.2992C32.0541 6.52586 30.3389 8.70936 28.7705 11.8496C27.2022 14.9898 25.8545 18.6208 24.7273 22.7424C26.2465 23.0368 27.7659 23.4048 29.2851 23.8464C30.8535 24.239 32.3973 24.705 33.9165 25.2448V5.2992Z" fill="black"/>
<path d="M69.3898 16.928C71.8893 16.928 73.6782 18.1547 74.7564 20.608C75.8836 23.0614 76.4472 26.447 76.4472 30.7648C76.4472 33.5616 76.2021 36.432 75.712 39.376C75.222 42.32 74.3888 44.9942 73.2126 47.3984C72.0363 49.8027 70.468 51.7899 68.5077 53.36C66.5963 54.8811 64.1949 55.6416 61.3033 55.6416C57.7746 55.6416 55.0301 54.5376 53.0697 52.3296C51.1094 50.1216 50.1292 47.1531 50.1292 43.424V18.4H60.7152V43.424C60.7152 45.1904 60.9602 46.4907 61.4503 47.3248C61.9404 48.1099 62.749 48.5024 63.8763 48.5024C65.2976 48.5024 66.5228 47.9382 67.552 46.8096C68.5812 45.6811 69.4144 44.2336 70.0515 42.4672C70.7376 40.7008 71.2277 38.7382 71.5217 36.5792C71.8648 34.4203 72.0363 32.3104 72.0363 30.2496C72.0363 27.9926 71.8403 25.8827 71.4482 23.92C71.3502 24.1654 71.0317 24.3616 70.4925 24.5088C69.9534 24.607 69.5369 24.656 69.2428 24.656C68.7037 24.656 68.2136 24.5088 67.7725 24.2144C67.3804 23.92 67.0128 23.552 66.6698 23.1104C66.3758 22.6198 66.1307 22.1046 65.9347 21.5648C65.7876 21.0251 65.7141 20.5099 65.7141 20.0192C65.7141 19.136 66.0082 18.4 66.5963 17.8112C67.2334 17.2224 68.1646 16.928 69.3898 16.928Z" fill="black"/>
<path d="M109.607 18.4V43.424C109.607 45.4848 109.876 46.8586 110.416 47.5456C111.004 48.1834 112.008 48.5024 113.43 48.5024C114.85 48.5024 116.027 47.889 116.958 46.6624C117.938 45.4357 118.502 43.8901 118.649 42.0256H121.737C121.344 45.0186 120.658 47.4229 119.678 49.2384C118.698 51.0048 117.595 52.3786 116.37 53.36C115.144 54.2922 113.895 54.9056 112.621 55.2C111.346 55.4944 110.219 55.6416 109.239 55.6416C106.642 55.6416 104.657 55.0528 103.285 53.8752C101.961 52.6485 101.03 50.9802 100.491 48.8704C100.099 49.7045 99.633 50.5386 99.0944 51.3728C98.5551 52.1578 97.8934 52.8693 97.1095 53.5072C96.3744 54.145 95.4922 54.6602 94.463 55.0528C93.4826 55.4453 92.3311 55.6416 91.0079 55.6416C89.4393 55.6416 87.8955 55.3472 86.3765 54.7584C84.8567 54.1696 83.4599 53.2128 82.1862 51.888C80.9604 50.5632 79.956 48.8213 79.1718 46.6624C78.4367 44.4544 78.0691 41.7557 78.0691 38.5664C78.0691 36.3093 78.3141 33.9786 78.8042 31.5744C79.3433 29.1701 80.1518 26.9621 81.2305 24.9504C82.3572 22.9386 83.8035 21.2949 85.5678 20.0192C87.3809 18.6944 89.5616 18.032 92.1106 18.032C92.6987 18.032 93.3356 18.081 94.022 18.1792C94.7076 18.2282 95.3692 18.4 96.0068 18.6944C96.6437 18.9397 97.2318 19.3322 97.7712 19.872C98.3097 20.3626 98.7269 21.0496 99.0209 21.9328V18.4H109.607ZM99.0209 25.4656C98.9714 25.2693 98.8739 25.024 98.7269 24.7296C98.5798 24.3861 98.3593 24.0672 98.0652 23.7728C97.7712 23.4293 97.4036 23.1594 96.9625 22.9632C96.5214 22.7178 96.0068 22.5952 95.4187 22.5952C94.2425 22.5952 93.2133 23.1104 92.3311 24.1408C91.4977 25.1221 90.8113 26.3733 90.2727 27.8944C89.7821 29.3664 89.4145 31.0101 89.17 32.8256C88.9247 34.592 88.8025 36.2848 88.8025 37.904C88.8025 40.5045 88.9982 42.5408 89.3906 44.0128C89.7821 45.4357 90.248 46.4906 90.7873 47.1776C91.3754 47.8154 91.9875 48.208 92.6252 48.3552C93.262 48.4533 93.8014 48.5024 94.2425 48.5024C94.7811 48.5024 95.3204 48.3797 95.8598 48.1344C96.4479 47.84 96.9625 47.4229 97.4036 46.8832C97.8934 46.3434 98.2858 45.681 98.5798 44.896C98.8739 44.0618 99.0209 43.105 99.0209 42.0256V25.4656Z" fill="black"/>
<path d="M127.35 6.77118V18.4H131.835V21.344H127.35V43.424C127.35 45.4848 127.62 46.8586 128.159 47.5456C128.747 48.1834 129.752 48.5024 131.173 48.5024C132.594 48.5024 133.771 47.889 134.702 46.6624C135.682 45.4357 136.245 43.8901 136.392 42.0256H139.48C139.088 45.0186 138.402 47.4229 137.422 49.2384C136.442 51.0048 135.339 52.3786 134.113 53.36C132.889 54.2922 131.639 54.9056 130.364 55.2C129.091 55.4944 127.963 55.6416 126.983 55.6416C123.209 55.6416 120.563 54.6112 119.043 52.5504C117.524 50.4405 116.764 47.6682 116.764 44.2336V21.344H114.412V18.4H116.764V8.24318L127.35 6.77118Z" fill="black"/>
<path d="M165.402 18.4V43.424C165.402 45.4848 165.671 46.8586 166.21 47.5456C166.799 48.1834 167.803 48.5024 169.225 48.5024C169.813 48.5024 170.302 48.4042 170.695 48.208C170.254 50.9557 169.616 52.8938 168.783 54.0224C167.999 55.1018 166.578 55.6416 164.52 55.6416C162.069 55.6416 160.206 55.0282 158.933 53.8016C157.658 52.5749 156.776 50.9312 156.286 48.8704C155.894 49.7045 155.428 50.5386 154.889 51.3728C154.35 52.1578 153.688 52.8693 152.904 53.5072C152.169 54.145 151.287 54.6602 150.258 55.0528C149.277 55.4453 148.126 55.6416 146.803 55.6416C145.234 55.6416 143.69 55.3472 142.171 54.7584C140.652 54.1696 139.255 53.2128 137.981 51.888C136.755 50.5632 135.751 48.8213 134.967 46.6624C134.232 44.4544 133.864 41.7557 133.864 38.5664C133.864 36.3093 134.109 33.9786 134.599 31.5744C135.138 29.1701 135.947 26.9621 137.025 24.9504C138.152 22.9386 139.598 21.2949 141.363 20.0192C143.176 18.6944 145.356 18.032 147.905 18.032C148.494 18.032 149.13 18.081 149.817 18.1792C150.502 18.2282 151.164 18.4 151.802 18.6944C152.439 18.9397 153.027 19.3322 153.566 19.872C154.105 20.3626 154.522 21.0496 154.816 21.9328V18.4H165.402ZM151.214 22.5952C150.037 22.5952 149.008 23.1104 148.126 24.1408C147.293 25.1221 146.606 26.3733 146.068 27.8944C145.577 29.3664 145.209 31.0101 144.965 32.8256C144.72 34.592 144.597 36.2848 144.597 37.904C144.597 40.5045 144.793 42.5408 145.185 44.0128C145.577 45.4357 146.043 46.4906 146.582 47.1776C147.17 47.8154 147.782 48.208 148.42 48.3552C149.057 48.4533 149.596 48.5024 150.037 48.5024C150.576 48.5024 151.115 48.3797 151.655 48.1344C152.243 47.84 152.757 47.4229 153.198 46.8832C153.688 46.3434 154.081 45.681 154.375 44.896C154.669 44.1109 154.816 43.1786 154.816 42.0992V25.392C154.717 25.1957 154.595 24.9504 154.448 24.656C154.301 24.3125 154.081 23.9936 153.787 23.6992C153.492 23.4048 153.125 23.1594 152.684 22.9632C152.292 22.7178 151.802 22.5952 151.214 22.5952Z" fill="black"/>
</g>
<defs>
<clipPath id="clip0_2004_2295">
<rect width="171" height="64" fill="white"/>
</clipPath>
</defs>
</svg>
