<svg width="319" height="64" viewBox="0 0 319 64" fill="none" xmlns="http://www.w3.org/2000/svg">
<g clip-path="url(#clip0_2023_57)">
<path d="M79.1754 4.86865C77.3272 4.86865 75.8391 6.35588 75.8391 8.20404V48.9225C75.8391 50.7706 77.3272 52.2579 79.1754 52.2579H104.778C105.262 52.2579 105.651 51.8688 105.651 51.3852V46.7144C105.651 46.2309 105.262 45.8416 104.778 45.8416H83.0071V30.9506H102.583C103.067 30.9506 103.456 30.5613 103.456 30.0778V25.6641C103.456 25.1805 103.067 24.7914 102.583 24.7914H83.0071V11.1344H104.778C105.262 11.1344 105.651 10.7453 105.651 10.2618V5.74128C105.651 5.25775 105.262 4.86865 104.778 4.86865H79.1754Z" fill="#191E3B"/>
<path d="M165.607 16.7319C159.515 16.7319 155.732 18.8299 153.199 22.3182V18.6738C153.199 18.1903 152.81 17.801 152.327 17.801H147.055C146.571 17.801 146.182 18.1903 146.182 18.6738V63.1267C146.182 63.6102 146.571 63.9996 147.055 63.9996H152.418C152.901 63.9996 153.29 63.6102 153.29 63.1267V47.9193C155.64 51.3024 159.448 53.3053 165.607 53.3052C175.964 53.3052 182.414 45.1072 182.414 35.0078C182.414 24.9084 176.098 16.7319 165.607 16.7319ZM164.102 22.6127C171.554 22.6127 175.22 28.1622 175.22 35.0078C175.22 41.8535 171.554 47.403 164.102 47.403C156.651 47.403 152.985 41.8535 152.985 35.0078C152.985 28.1622 156.651 22.6127 164.102 22.6127Z" fill="#191E3B"/>
<path d="M269.632 17.8013H274.934C275.418 17.8013 275.807 18.1905 275.807 18.6741V51.3854C275.807 51.8689 275.418 52.2582 274.934 52.2582H269.632C269.148 52.2582 268.759 51.8689 268.759 51.3854V18.6741C268.759 18.1905 269.148 17.8013 269.632 17.8013Z" fill="#191E3B"/>
<path d="M269.556 4.85156H275.01C275.494 4.85156 275.883 5.24082 275.883 5.72435V11.1789C275.883 11.6625 275.494 12.0517 275.01 12.0517H269.556C269.072 12.0517 268.683 11.6625 268.683 11.1789V5.72435C268.683 5.24082 269.072 4.85156 269.556 4.85156Z" fill="#191E3B"/>
<path d="M241.739 53.3053C247.831 53.3053 251.614 51.2073 254.147 47.7191V51.3851C254.147 51.8686 254.536 52.2579 255.02 52.2579H260.291C260.775 52.2579 261.164 51.8686 261.164 51.3851V5.74152C261.164 5.25799 260.775 4.86865 260.291 4.86865H254.928C254.445 4.86865 254.056 5.25799 254.056 5.74152V22.3115C251.534 19.0144 247.898 16.732 241.739 16.732C231.382 16.7321 224.932 24.93 224.932 35.0294C224.932 45.1288 231.248 53.3053 241.739 53.3053ZM243.244 47.4246C235.792 47.4246 232.126 41.8751 232.126 35.0294C232.126 28.1838 235.792 22.6343 243.244 22.6343C250.695 22.6343 254.361 28.1838 254.361 35.0294C254.361 41.8751 250.695 47.4246 243.244 47.4246Z" fill="#191E3B"/>
<path d="M298.672 16.7539C288.181 16.7539 281.865 24.9303 281.865 35.0297C281.865 45.1291 288.181 53.3056 298.672 53.3056C304.764 53.3056 308.546 51.2076 311.079 47.7193V51.3853C311.079 51.8688 311.468 52.2582 311.952 52.2582H317.224C317.707 52.2582 318.097 51.8688 318.097 51.3853V35.0297V18.6742C318.097 18.1906 317.707 17.8013 317.224 17.8013H311.952C311.468 17.8013 311.079 18.1906 311.079 18.6742V22.3402C308.546 18.8519 304.764 16.7539 298.672 16.7539ZM300.176 22.6346C307.628 22.6346 311.294 28.1841 311.294 35.0297C311.294 41.8754 307.628 47.4249 300.176 47.4249C292.724 47.4249 289.058 41.8754 289.058 35.0297C289.058 28.1841 292.724 22.6346 300.176 22.6346Z" fill="#191E3B"/>
<path d="M111.297 17.8013C110.543 17.8013 110.409 18.3962 110.751 18.8675L121.972 34.2338L109.656 51.1917C109.313 51.6628 109.449 52.2582 110.202 52.2582H116.278C116.805 52.2582 117.079 52.0782 117.254 51.8197L125.646 39.435L134.387 51.8197C134.567 52.0748 134.836 52.2582 135.363 52.2582H141.671C142.425 52.2582 142.561 51.6619 142.218 51.1917L129.831 34.2338L140.982 18.8675C141.324 18.3962 141.189 17.8013 140.435 17.8013H134.478C133.951 17.8013 133.678 17.9813 133.502 18.2395L126.138 29.0624L118.531 18.2395C118.352 17.9837 118.082 17.8013 117.555 17.8013H111.297Z" fill="#191E3B"/>
<path d="M203.689 16.7319C193.14 16.7319 186.79 24.3174 186.79 35.0186C186.79 46.8212 194.295 53.3053 203.689 53.3052C215.041 53.3052 219.516 46.6288 219.766 46.3788C220.054 46.091 219.976 45.5554 219.734 45.3184L216.453 42.1015C216.211 41.8645 215.751 41.8281 215.433 42.149C215.193 42.3906 211.199 47.4399 204.655 47.4398C197.699 47.4398 194.275 43.1784 193.814 36.9005H219.734C220.538 36.9005 220.582 36.1858 220.584 35.7167C220.638 22.9712 213.231 16.7319 203.689 16.7319ZM203.712 22.2782C210.092 22.2782 212.765 26.1149 213.329 31.5801H194.066C194.823 26.2225 197.637 22.2782 203.712 22.2782Z" fill="#191E3B"/>
<path d="M11.8609 0H45.347C51.9179 0 57.2079 5.28996 57.2079 11.8609V45.3468C57.2079 51.9177 51.9179 57.2077 45.347 57.2077H11.8609C5.28996 57.2077 0 51.9177 0 45.3468V11.8609C0 5.28996 5.28996 0 11.8609 0Z" fill="#FDDB32"/>
<path d="M15.9975 10.2417C15.4644 10.2417 15.1294 10.3642 14.8471 10.6465L9.13055 16.3631C9.02439 16.4692 8.96475 16.6133 8.96472 16.7634C8.96469 17.0759 9.21812 17.3293 9.53064 17.3293H34.3122L19.0771 32.5641C18.7769 32.8643 18.6022 33.039 18.6022 33.6282L18.6022 37.6366C18.6022 37.8794 18.7126 38.0898 18.8711 38.2482C19.0295 38.4066 19.2396 38.5168 19.4824 38.5168H23.4911C24.0803 38.5168 24.2547 38.3424 24.5549 38.0421L39.79 22.8071V47.5886C39.79 47.9011 40.0434 48.1546 40.3559 48.1545C40.506 48.1545 40.6501 48.0949 40.7562 47.9887L46.4728 42.2722C46.755 41.9899 46.8776 41.6548 46.8776 41.1218L46.8776 14.0618C46.8775 13.5601 46.7787 13.0633 46.5867 12.5999C46.3947 12.1364 46.1133 11.7153 45.7586 11.3605C45.4038 11.0058 44.9827 10.7244 44.5192 10.5325C44.0557 10.3405 43.5589 10.2417 43.0573 10.2417L15.9975 10.2417Z" fill="#191E3B"/>
<path d="M11.1424 39.6309H16.6411C17.1011 39.6309 17.4714 40.0011 17.4714 40.4611V45.9943C17.4714 46.4542 17.1011 46.8245 16.6411 46.8245H11.1424C10.6824 46.8245 10.3121 46.4542 10.3121 45.9943V40.4611C10.3121 40.0011 10.6824 39.6309 11.1424 39.6309Z" fill="#191E3B"/>
</g>
<defs>
<clipPath id="clip0_2023_57">
<rect width="318.096" height="64" fill="white"/>
</clipPath>
</defs>
</svg>
