<svg width="64" height="64" viewBox="0 0 64 64" fill="none" xmlns="http://www.w3.org/2000/svg">
<g clip-path="url(#clip0_2023_75)">
<path d="M13.2692 0H50.7311C58.0822 0 64.0002 5.91804 64.0002 13.2692V50.7308C64.0002 58.082 58.0822 64 50.7311 64H13.2692C5.91804 64 0 58.082 0 50.7308V13.2692C0 5.91804 5.91804 0 13.2692 0Z" fill="#FDDB32"/>
<path d="M17.8971 11.4575C17.3007 11.4575 16.9259 11.5946 16.6101 11.9104L10.2148 18.3057C10.0961 18.4244 10.0293 18.5856 10.0293 18.7535C10.0293 19.1032 10.3128 19.3866 10.6624 19.3866H38.3863L21.3423 36.4303C21.0065 36.7662 20.8111 36.9615 20.8111 37.6207L20.8111 42.1051C20.8111 42.3766 20.9346 42.612 21.1118 42.7892C21.2891 42.9665 21.5242 43.0897 21.7957 43.0898H26.2804C26.9395 43.0898 27.1347 42.8946 27.4705 42.5587L44.5144 25.5148V53.2387C44.5144 53.5883 44.7979 53.8718 45.1475 53.8718C45.3155 53.8718 45.4767 53.805 45.5954 53.6863L51.9907 47.291C52.3065 46.9752 52.4436 46.6004 52.4435 46.004L52.4435 15.7311C52.4435 15.1699 52.333 14.6142 52.1182 14.0957C51.9034 13.5772 51.5886 13.106 51.1917 12.7092C50.7948 12.3123 50.3237 11.9976 49.8052 11.7828C49.2867 11.568 48.7309 11.4575 48.1697 11.4575L17.8971 11.4575Z" fill="#191E3B"/>
<path d="M12.4655 44.3364H18.6171C19.1316 44.3364 19.5459 44.7507 19.5459 45.2653V51.4554C19.5459 51.97 19.1316 52.3842 18.6171 52.3842H12.4655C11.9509 52.3842 11.5366 51.97 11.5366 51.4554V45.2653C11.5366 44.7507 11.9509 44.3364 12.4655 44.3364Z" fill="#191E3B"/>
</g>
<defs>
<clipPath id="clip0_2023_75">
<rect width="64" height="64" fill="white"/>
</clipPath>
</defs>
</svg>
